<svg version="1.1" xmlns="http://www.w3.org/2000/svg" viewBox="-1640.1359187743064 -1572.2921328318212 2836.8847008484845 3115.7607531915273" fill="none" stroke="black" stroke-width="0.6%" vector-effect="non-scaling-stroke">
    <path d="M 757.34557 1374.46306 L 122.10295 1201.59031" />
    <path d="M 711.37912 1033.73449 L 757.34557 1374.46306" />
    <path d="M 711.37912 1033.73449 L 807.86652 1006.24997" />
    <path d="M 861.35947 1402.76904 L 807.86652 1006.24997" />
    <path d="M 902.2363 1413.89313 L 861.35947 1402.76904" />
    <path d="M 866.649 1441.97793 L 902.2363 1413.89313 L 902.2363 1502.50662" />
    <path d="M 867.63507 1449.28723 L 866.649 1441.97793" />
    <path d="M 856.99654 1449.59546 L 867.63507 1449.28723 L 867.63507 1537.90072" />
    <path d="M 851.59896 1453.85513 L 856.99654 1449.59546" />
    <path d="M 837.97176 1450.14667 L 851.59896 1453.85513 L 851.59896 1542.46862 L 856.99654 1538.20895 L 867.63507 1537.90072" />
    <path d="M 767.82993 1452.1789 L 837.97176 1450.14667 L 837.97176 1538.76016 L 851.59896 1542.46862" />
    <path d="M 764.87206 1430.25356 L 767.82993 1452.1789 L 767.82993 1540.79239 L 837.97176 1538.76016" />
    <path d="M 25.61555 1229.07483 L 764.87206 1430.25356" />
    <path d="M 25.61555 1229.07483 L 122.10295 1201.59031" />
    <path d="M 711.37912 1122.34799 L 744.93543 1371.08581" />
    <path d="M 711.37912 1033.73449 L 711.37912 1122.34799" />
    <path d="M -102.59746 983.40986 L -102.59746 1355.62773 L 28.16106 1318.38105" />
    <path d="M 283.74271 1245.5784 L 711.56331 1123.71334" />
    <path d="M 819.56285 1092.94958 L 936.07953 1059.7597 L 936.07953 687.54184" />
    <path d="M -102.59746 983.40986 A 914.4 690.30598 127.01467 0 1 -133.74555 961.65887 L -1410.61476 -1.04368" />
    <path d="M -133.74555 961.65887 A 914.4 690.30598 127.01467 0 1 967.22762 -498.60395 L -309.64159 -1461.3065 A 914.4 690.30598 307.01467 0 0 -1410.61476 -1.04368" />
    <path d="M 967.22762 -498.60395 A 914.4 690.30598 127.01467 0 1 936.07953 687.54184" />
    <path d="M 25.61555 1229.07483 L 25.61555 1317.68832 L 764.87206 1518.86706 L 767.82993 1540.79239" />
    <path d="M 867.63507 1529.81324 L 902.2363 1502.50662" />
    <path d="M 856.99654 1538.20895 L 856.99654 1449.59546" />
    <path d="M 764.87206 1518.86706 L 764.87206 1430.25356" />
    <path d="M -1379.46667 22.4406 L -1379.46667 392.92518 L -1331.78871 428.87224" />
    <path d="M -801.51758 828.67306 L -102.59746 1355.62773" />
    <path d="M -806.48837 466.29862 L -714.84954 803.9856" />
    <path d="M -989.76602 328.11543 L -806.48837 466.29862" />
    <path d="M -1421.66698 624.54317 L -1330.02815 425.03939 L -1146.7505 563.22258 L -1055.11167 900.90955 L -1421.66698 624.54317 Z" />
    <path d="M -1330.02815 425.03939 L -989.76602 328.11543" />
    <path d="M -1146.7505 563.22258 L -806.48837 466.29862" />
    <path d="M -1055.11167 900.90955 L -714.84954 803.9856" />
</svg>