<svg version="1.1" xmlns="http://www.w3.org/2000/svg" viewBox="-1287.8719896391615 -261.9111569686009 2192.6179895991986 934.3307219741248" fill="none" stroke="black" stroke-width="0.6%" vector-effect="non-scaling-stroke">
    <path d="M 332.85141 248.25081 L 436.40505 290.54592" />
    <path d="M 595.21185 355.40845 L 698.76549 397.70356" />
    <path d="M 857.57229 462.56608 L 866.77239 466.32374 L 903.746 462.61022 L 903.746 381.77114 L 866.77239 385.48466 L 866.77239 466.32374" />
    <path d="M -220.75618 -58.70193 L -220.75618 -54.02476" />
    <path d="M 864.65324 384.61912 L 866.77239 385.48466" />
    <path d="M 864.65324 384.62402 L 864.65324 384.61912 L 896.22013 381.44864 L 891.68863 379.59781 L 891.68863 379.60271 L 896.22013 381.45354" />
    <path d="M 860.12175 382.77319 L 864.65324 384.62402 L 896.22013 381.45354" />
    <path d="M 860.12175 382.76829 L 860.12175 382.77319" />
    <path d="M 686.4143 311.81979 L 860.12175 382.76829" />
    <path d="M 686.4143 311.81979 L 686.4143 311.82469" />
    <path d="M 681.08312 309.64724 L 686.4143 311.82469" />
    <path d="M 681.08312 309.64235 L 681.08312 309.64724" />
    <path d="M 507.37568 238.69385 L 681.08312 309.64235" />
    <path d="M 507.37568 238.69385 L 507.37568 238.69874" />
    <path d="M 502.0445 236.5213 L 507.37568 238.69874" />
    <path d="M 502.0445 236.5164 L 502.0445 236.5213" />
    <path d="M 328.33706 165.5679 L 502.0445 236.5164" />
    <path d="M 328.33706 165.5679 L 328.33706 165.5728" />
    <path d="M 323.00588 163.39535 L 328.33706 165.5728" />
    <path d="M 323.00588 163.39046 L 323.00588 163.39535" />
    <path d="M 243.74152 131.01598 L 323.00588 163.39046" />
    <path d="M -208.77881 -53.80993 L -159.56124 -33.70767" />
    <path d="M -208.77881 -53.80993 L -208.77881 -53.80503" />
    <path d="M -214.10998 -55.98248 L -208.77881 -53.80503" />
    <path d="M -214.10998 -55.98738 L -214.10998 -55.98248" />
    <path d="M -220.75618 -58.70193 L -214.10998 -55.98738" />
    <path d="M 342.0404 247.3279 L 342.0404 175.84089 L 315.95762 165.18772" />
    <path d="M 866.76128 461.64317 L 866.76128 390.15615 L 848.43537 382.67118" />
    <path d="M 604.40084 354.48553 L 604.40084 282.99852 L 586.07492 275.51354" />
    <path d="M -202.42805 -29.40226 L -202.42805 -46.54001 L -220.75396 -54.02499" />
    <path d="M -183.78257 -62.41544 L -122.58763 -37.42118" />
    <path d="M 243.74152 112.20109 L 903.746 381.77114" />
    <path d="M -183.78257 -62.41544 L -220.75618 -58.70193" />
    <path d="M -182.5431 -59.15786 L -214.10998 -55.98738" />
    <path d="M -177.21192 -56.98041 L -182.5431 -59.15786 L -182.5431 -59.15296 L -177.21192 -56.97551 L -208.77881 -53.80503" />
    <path d="M -177.21192 -56.98041 L -208.77881 -53.80993" />
    <path d="M 354.57276 160.21998 L 323.00588 163.39046" />
    <path d="M 359.90394 162.39742 L 354.57276 160.21998 L 354.57276 160.22487 L 359.90394 162.40232 L 328.33706 165.5728" />
    <path d="M 359.90394 162.39742 L 328.33706 165.5679" />
    <path d="M 533.61139 233.34592 L 502.0445 236.5164" />
    <path d="M 538.94256 235.52337 L 533.61139 233.34592 L 533.61139 233.35082 L 538.94256 235.52827 L 507.37568 238.69874" />
    <path d="M 538.94256 235.52337 L 507.37568 238.69385" />
    <path d="M 712.65001 306.47187 L 681.08312 309.64235" />
    <path d="M 717.98118 308.64931 L 712.65001 306.47187 L 712.65001 306.47676 L 717.98118 308.65421 L 686.4143 311.82469" />
    <path d="M 717.98118 308.64931 L 686.4143 311.81979" />
    <path d="M 891.68863 379.59781 L 860.12175 382.76829" />
    <path d="M 891.68863 379.60271 L 860.12175 382.77319" />
    <path d="M 712.65001 306.47676 L 681.08312 309.64724" />
    <path d="M 533.61139 233.35082 L 502.0445 236.5213" />
    <path d="M 354.57276 160.22487 L 323.00588 163.39535" />
    <path d="M -182.5431 -59.15296 L -214.10998 -55.98248" />
    <path d="M -537.43192 335.65937 L -249.95442 306.78602" />
    <path d="M 243.74152 257.20073 L 342.0404 247.3279" />
    <path d="M -704.0052 267.62962 L -289.34695 225.98264" />
    <path d="M 243.74152 172.44088 L 315.95762 165.18772" />
    <path d="M -677.91281 278.28182 L -289.34695 239.25547" />
    <path d="M 243.74152 185.71372 L 342.0404 175.84089" />
    <path d="M -162.38092 565.00701 L -109.88858 559.73485" />
    <path d="M 719.32499 671.41956 L -109.88858 559.73485" />
    <path d="M 730.7458 667.9411 L 719.32499 671.41956 L 719.32499 599.93255 L 730.7458 596.45409 L 730.7458 667.9411 Z" />
    <path d="M 751.32956 668.20512 L 730.7458 667.9411" />
    <path d="M 751.32956 668.20512 L 814.26894 466.91533 L 814.26894 395.42832 L 866.76128 390.15615" />
    <path d="M 814.26894 466.91533 L 866.76128 461.64317" />
    <path d="M 236.82328 524.91218 L 748.51885 473.51907" />
    <path d="M 776.62133 389.88396 L 848.43537 382.67118" />
    <path d="M 751.32956 596.71811 L 814.26894 395.42832" />
    <path d="M 730.7458 596.45409 L 751.32956 596.71811 L 751.32956 668.20512" />
    <path d="M 719.32499 599.93255 L -109.88858 488.24783 L -109.88858 559.73485" />
    <path d="M -162.38092 493.52 L -109.88858 488.24783" />
    <path d="M -171.51784 485.11211 L -108.89279 478.82225 L -107.81439 478.49379" />
    <path d="M -106.87811 478.6199 L -107.81439 478.49379" />
    <path d="M -106.87811 478.6199 L 774.60665 390.08631 L 774.67771 389.85903 L 776.62133 389.88396" />
    <path d="M -67.21582 483.96191 L 771.59618 399.71424" />
    <path d="M 712.41989 588.96911 L -67.21582 483.96191" />
    <path d="M 712.41989 588.96911 L 771.59618 399.71424" />
    <path d="M -275.07148 442.817 L -1.84646 415.37513" />
    <path d="M 22.34989 412.94492 L 177.33267 397.37893" />
    <path d="M 201.52901 394.94873 L 604.40084 354.48553" />
    <path d="M -433.87828 377.95448 L -144.81478 348.92184" />
    <path d="M -119.81478 346.41091 L -54.30271 339.83108" />
    <path d="M 243.74152 309.89645 L 586.07492 275.51354" />
    <path d="M -415.55237 385.43945 L -142.14864 357.97963" />
    <path d="M -119.81478 355.73649 L -35.97679 347.31606" />
    <path d="M 243.74152 319.22202 L 604.40084 282.99852" />
    <path d="M -778.05424 217.70498 L -289.34695 168.62074" />
    <path d="M -796.73162 138.7683 L -289.34695 87.80815" />
    <path d="M -794.57629 147.8774 L -289.34695 97.13373" />
    <path d="M -809.24242 85.89355 L -289.34695 33.67687" />
    <path d="M -1240.71679 48.41691 L -1177.84211 42.10197" />
    <path d="M -827.91981 6.95687 L -220.75396 -54.02499" />
    <path d="M -1222.38125 55.90092 L -1180.66034 51.7106" />
    <path d="M -825.76448 16.06596 L -202.42805 -46.54001" />
    <path d="M -1249.89838 44.66192 L -1243.25218 47.37647 L -1274.81906 50.54695 L -1269.48789 52.7244" />
    <path d="M -1243.25218 47.38137 L -1243.25218 47.37647" />
    <path d="M -1237.921 49.55881 L -1243.25218 47.38137 L -1274.81906 50.55185" />
    <path d="M -1237.921 49.55392 L -1186.22118 70.67002" />
    <path d="M -772.90076 239.48525 L -706.13631 266.7543 L -737.7032 269.92478 L -732.37202 272.10223" />
    <path d="M -706.13631 266.7592 L -706.13631 266.7543" />
    <path d="M -700.80514 268.93665 L -706.13631 266.7592 L -737.7032 269.92968" />
    <path d="M -700.80514 268.93175 L -527.09769 339.88025 L -558.66458 343.05073 L -553.3334 345.22817" />
    <path d="M -527.09769 339.88514 L -527.09769 339.88025" />
    <path d="M -521.76652 342.06259 L -527.09769 339.88514 L -558.66458 343.05562" />
    <path d="M -521.76652 342.0577 L -348.05907 413.00619 L -379.62595 416.17667 L -374.29478 418.35412" />
    <path d="M -348.05907 413.01109 L -348.05907 413.00619" />
    <path d="M -342.7279 415.18854 L -348.05907 413.01109 L -379.62595 416.18157" />
    <path d="M -342.7279 415.18364 L -169.02045 486.13214 L -200.58733 489.30262 L -196.05583 491.15345 L -164.48895 487.98297 L -162.36981 488.8485 L -199.34342 492.56202 L -199.34342 573.4011 L -162.36981 569.68758 L -162.36981 488.8485" />
    <path d="M -169.02045 486.13703 L -169.02045 486.13214" />
    <path d="M -164.48895 487.98786 L -169.02045 486.13703 L -200.58733 489.30751" />
    <path d="M -1249.89838 44.66192 L -1286.87199 48.37543 L -1191.14927 87.4721" />
    <path d="M -1286.87199 48.37543 L -1286.87199 129.21451 L -1212.32304 159.66304" />
    <path d="M -767.97267 260.31296 L -199.34342 492.56202" />
    <path d="M -342.7279 415.18364 L -374.29478 418.35412" />
    <path d="M -521.76652 342.0577 L -553.3334 345.22817" />
    <path d="M -700.80514 268.93175 L -732.37202 272.10223" />
    <path d="M -1237.921 49.55392 L -1269.48789 52.7244" />
    <path d="M -879.74594 295.49974 L -199.34342 573.4011" />
    <path d="M 190.49203 -227.50747 L 332.71546 -241.79195 L 488.20806 -178.28306 L 565.95436 150.29809" />
    <path d="M 124.35635 -2.02107 L 190.49203 -227.50747 L 345.98462 -163.99858 L 423.73092 164.58257 L 168.96296 60.52598" />
    <path d="M 345.98462 -163.99858 L 488.20806 -178.28306" />
    <path d="M 423.73092 164.58257 L 565.95436 150.29809" />
    <path d="M -762.4349 283.71738 L -904.65833 298.00186 L -982.40463 -30.57929 L -1137.89723 -94.08817 L -1215.64353 170.98409 L -904.65833 298.00186" />
    <path d="M -840.1812 -44.86377 L -982.40463 -30.57929" />
    <path d="M -762.4349 283.71738 L -840.1812 -44.86377 L -995.6738 -108.37265 L -1137.89723 -94.08817" />
    <path d="M 168.96296 16.1979 L 6.05114 -50.34126 L -12.72521 -48.45542" />
    <path d="M 168.96296 61.24452 L 168.96296 16.1979" />
    <path d="M 243.74152 91.23975 L 168.96296 60.69744" />
    <path d="M 4.80616 115.23768 L 243.74152 91.23975" />
    <path d="M -68.89734 85.13447 L 4.80616 115.23768" />
    <path d="M -68.89734 85.13447 L 168.96296 61.24452" />
    <path d="M -160.99541 343.12015 L -68.89734 333.8701 L 4.80616 363.97331 L 4.80616 115.23768" />
    <path d="M -278.76994 295.0167 L -160.99541 343.12015 L -160.99541 49.3379 L 168.96296 16.1979" />
    <path d="M -289.34695 285.87464 A 101.6 20.57798 180 0 0 -278.76994 295.0167 L -278.76994 1.23445 L -160.99541 49.3379" />
    <path d="M 4.80616 363.97331 L 243.74152 339.97539 L 243.74152 91.23975" />
    <path d="M -72.72521 -42.42921 L -232.88423 -26.34333 A 101.6 20.57798 180 0 0 -289.34695 -7.90761 L -289.34695 285.87464" />
    <path d="M -289.34695 -7.90761 A 101.6 20.57798 180 0 0 -278.76994 1.23445" />
    <path d="M -69.60208 -7.31701 A 30 6.07618 360 0 1 -72.72521 -10.01644" />
    <path d="M -12.72521 -10.01644 A 30 6.07618 360 0 1 -69.60208 -7.31701" />
    <path d="M -68.89734 85.13447 L -68.89734 333.8701" />
    <path d="M 10.18153 120.57344 L 238.36615 97.65528" />
    <path d="M 10.18153 120.57344 L 10.18153 357.55778 L 10.89235 357.84811 L 239.07697 334.92995 L 239.07697 97.94561 L 238.36615 97.65528" />
    <path d="M -144.81478 356.41673 A 12.5 2.53174 180 0 0 -119.81478 356.41673 L -119.81478 338.98409" />
    <path d="M 176.52901 396.4858 A 12.5 2.53174 180 0 0 201.52901 396.4858 L 201.52901 344.21508" />
    <path d="M -2.65011 414.48199 A 12.5 2.53174 180 0 0 22.34989 414.48199 L 22.34989 362.21128" />
    <path d="M -69.60208 -252.13555 A 30 6.07618 360 0 1 -72.72521 -254.83498 L -72.72521 -10.01644" />
    <path d="M -72.72521 -254.83498 A 30 6.07618 360 1 1 -12.72521 -254.83498 L -12.72521 -10.01644" />
    <path d="M -12.72521 -254.83498 A 30 6.07618 360 0 1 -69.60208 -252.13555" />
    <path d="M 10.89235 120.86376 L 239.07697 97.94561" />
    <path d="M 10.18153 120.57344 L 10.89235 120.86376" />
    <path d="M 10.89235 357.84811 L 10.89235 120.86376" />
    <path d="M 57.79249 282.62987 L 57.79249 341.38632 L 59.34742 342.0214 L 193.73176 328.52426 L 193.73176 269.76781 L 59.34742 283.26495 L 59.34742 342.0214" />
    <path d="M 192.17684 269.13272 L 57.79249 282.62987 L 59.34742 283.26495" />
    <path d="M 192.17684 269.13272 L 193.73176 269.76781" />
    <path d="M -144.81478 356.41673 L -144.81478 341.49501" />
    <path d="M 176.52901 396.4858 L 176.52901 346.726" />
    <path d="M -2.65011 414.48199 L -2.65011 360.9279" />
</svg>