<svg version="1.1" xmlns="http://www.w3.org/2000/svg" viewBox="-2601.984228557994 -1011.0683353921235 4674.41470392784 2642.081170834219" fill="none" stroke="black" stroke-width="0.6%" vector-effect="non-scaling-stroke">
    <path d="M 1905.04442 798.15283 L 1175.56016 763.30348" />
    <path d="M 1582.22671 573.35748 L 1905.04442 798.15283" />
    <path d="M 1582.22671 573.35748 L 1648.81383 542.25594" />
    <path d="M 2024.48934 803.85903 L 1648.81383 542.25594" />
    <path d="M 2071.43047 806.10153 L 2024.48934 803.85903" />
    <path d="M 2061.63716 829.72705 L 2071.43047 806.10153 L 2071.43047 900.16282" />
    <path d="M 2068.56224 834.54935 L 2061.63716 829.72705" />
    <path d="M 2058.98089 836.13508 L 2068.56224 834.54935 L 2068.56224 928.61065" />
    <path d="M 2057.49553 839.7184 L 2058.98089 836.13508" />
    <path d="M 2041.84666 838.97081 L 2057.49553 839.7184 L 2057.49553 933.77969 L 2058.98089 930.19637 L 2068.56224 928.61065" />
    <path d="M 1978.67502 849.42578 L 2041.84666 838.97081 L 2041.84666 933.0321 L 2057.49553 933.77969" />
    <path d="M 1957.90223 834.96057 L 1978.67502 849.42578 L 1978.67502 943.48708 L 2041.84666 933.0321" />
    <path d="M 1108.97305 794.40502 L 1957.90223 834.96057" />
    <path d="M 1108.97305 794.40502 L 1175.56016 763.30348" />
    <path d="M 1582.22671 667.41877 L 1760.01819 791.22455" />
    <path d="M 1582.22671 573.35748 L 1582.22671 667.41877" />
    <path d="M 1020.49171 536.19804 A 914.4 505.67595 103.8603 0 1 841.29085 -21.1788 L 411.27019 -127.28198" />
    <path d="M 1020.49171 536.19804 L 1020.49171 931.29919 L 1111.89617 888.60595" />
    <path d="M 1361.17871 772.17096 L 1583.52028 668.31955" />
    <path d="M 1730.95536 599.45551 L 1737.29516 596.49431 L 1737.29516 201.39316" />
    <path d="M 1916.49603 -523.38612 A 914.4 505.67595 103.8603 0 1 1737.29516 201.39316" />
    <path d="M 1916.49603 -523.38612 L 1725.74559 -434.29032 L 1677.21085 -446.26577 L 1832.68553 -518.88495 L -42.69672 -981.61627 A 854.4 472.49511 103.8603 0 1 -114.42828 -534.24217 L -115.63887 -533.67672" />
    <path d="M 1725.74559 -434.29032 A 590.15 326.36118 103.8603 0 1 1237.51985 286.43369 A 590.15 326.36118 103.8603 0 1 1032.04128 -110.2746 L 983.50655 -122.25004" />
    <path d="M 1032.04128 -110.2746 L 841.29085 -21.1788" />
    <path d="M 1108.97305 794.40502 L 1108.97305 888.46631 L 1957.90223 929.02186 L 1978.67502 943.48708" />
    <path d="M 2068.56224 907.0822 L 2071.43047 900.16282" />
    <path d="M 2058.98089 930.19637 L 2058.98089 836.13508" />
    <path d="M 1957.90223 929.02186 L 1957.90223 834.96057" />
    <path d="M 428.97915 390.24839 L 1020.49171 536.19804" />
    <path d="M 828.03187 -49.63086 L 403.50663 -154.37811" />
    <path d="M 828.03187 -49.63086 L 983.50655 -122.25004" />
    <path d="M 1677.21085 -446.26577 A 590.15 326.36118 103.8603 0 1 1213.66771 278.76309" />
    <path d="M -321.02247 -851.61575 L -42.69672 -981.61627" />
    <path d="M -321.02247 -851.61575 L -369.55721 -863.5912 L -369.55721 -596.32847" />
    <path d="M -55.9557 -1010.06833 L -369.55721 -863.5912" />
    <path d="M 1916.49603 -523.38612 L -55.9557 -1010.06833" />
    <path d="M 326.94801 760.1744 L 1020.49171 931.29919" />
    <path d="M 1134.15133 221.25641 L 1153.9799 211.99488 A 50 27.6507 103.8603 0 1 1165.95766 210.48139 L 1115.67529 198.07473" />
    <path d="M 1183.37636 245.29501 L 1183.37636 263.36715" />
    <path d="M 1165.95766 210.48139 A 50 27.6507 103.8603 0 1 1183.37636 245.29501" />
    <path d="M 1179.83139 -214.89688 L -114.42828 -534.24217" />
    <path d="M 1179.83139 -214.89688 A 854.4 472.49511 103.8603 0 1 1166.23161 -174.31537" />
    <path d="M 1047.03729 30.50295 L 1319.98108 97.84903" />
    <path d="M 1379.98108 112.65342 L 1476.65413 136.5065" />
    <path d="M -321.02247 -584.35302 L -321.02247 -851.61575" />
    <path d="M 1179.83139 -214.89688 L 925.61491 -96.15734" />
    <path d="M 919.74441 -92.468 A 50 27.6507 103.8603 0 1 925.61491 -96.15734" />
    <path d="M 1033.13539 -78.74658 L 1166.23161 -174.31537" />
    <path d="M 402.64715 -157.17983 L 831.65975 -51.32537" />
    <path d="M 1274.60351 94.63227 L 1101.03543 175.70252" />
    <path d="M 1471.11564 143.11962 L 1379.98108 120.6331" />
    <path d="M 1319.98108 105.82871 L 1274.60351 94.63227" />
    <path d="M 1224.09672 279.55357 L 1436.62068 180.28778" />
    <path d="M 1374.24845 146.07788 A 30 10.18443 360 0 1 1319.98108 140.09016" />
    <path d="M 1379.98108 140.09016 A 30 10.18443 360 0 1 1374.24845 146.07788" />
    <path d="M 1374.24845 -136.106 A 30 10.18443 360 0 1 1319.98108 -142.09372 L 1319.98108 140.09016" />
    <path d="M 1319.98108 -142.09372 A 30 10.18443 360 0 1 1379.98108 -142.09372 L 1379.98108 140.09016" />
    <path d="M 1379.98108 -142.09372 A 30 10.18443 360 0 1 1374.24845 -136.106" />
    <path d="M 435.22107 1484.67859 L -294.26319 1449.82923" />
    <path d="M 112.40336 1259.88324 L 435.22107 1484.67859" />
    <path d="M 112.40336 1259.88324 L 178.99048 1228.7817" />
    <path d="M 554.66599 1490.38478 L 178.99048 1228.7817" />
    <path d="M 601.60712 1492.62728 L 554.66599 1490.38478" />
    <path d="M 591.81381 1516.25281 L 601.60712 1492.62728 L 601.60712 1586.68858" />
    <path d="M 598.73889 1521.07511 L 591.81381 1516.25281" />
    <path d="M 589.15754 1522.66083 L 598.73889 1521.07511 L 598.73889 1615.1364" />
    <path d="M 587.67218 1526.24415 L 589.15754 1522.66083" />
    <path d="M 572.02331 1525.49657 L 587.67218 1526.24415 L 587.67218 1620.30545 L 589.15754 1616.72213 L 598.73889 1615.1364" />
    <path d="M 508.85167 1535.95154 L 572.02331 1525.49657 L 572.02331 1619.55786 L 587.67218 1620.30545" />
    <path d="M 488.07888 1521.48632 L 508.85167 1535.95154 L 508.85167 1630.01283 L 572.02331 1619.55786" />
    <path d="M -360.8503 1480.93077 L 488.07888 1521.48632" />
    <path d="M -360.8503 1480.93077 L -294.26319 1449.82923" />
    <path d="M 112.40336 1353.94453 L 290.19484 1477.75031" />
    <path d="M 112.40336 1259.88324 L 112.40336 1353.94453" />
    <path d="M -449.33164 1222.7238 L -449.33164 1617.82495 L -357.92718 1575.13171" />
    <path d="M -108.64464 1458.69671 L 113.69693 1354.84531" />
    <path d="M 261.13201 1285.98127 L 267.47181 1283.02007 L 267.47181 887.91892" />
    <path d="M -449.33164 1222.7238 A 914.4 505.67595 103.8603 0 1 128.11949 -473.53185 L -1844.33223 -960.21407 A 914.4 505.67595 283.8603 0 0 -2421.78336 736.04158 L -2421.78336 1131.14273 L -2160.39465 1195.63771" />
    <path d="M 128.11949 -473.53185 A 914.4 505.67595 103.8603 0 1 267.47181 887.91892" />
    <path d="M -360.8503 1480.93077 L -360.8503 1574.99207 L 488.07888 1615.54762 L 508.85167 1630.01283" />
    <path d="M -90.92991 -155.10971 A 590.15 326.36118 103.8603 0 1 50.44367 -172.97342 A 590.15 326.36118 103.8603 0 1 -232.3035 972.95945 A 590.15 326.36118 103.8603 0 1 -90.92991 -155.10971 Z" />
    <path d="M 598.73889 1593.60796 L 601.60712 1586.68858" />
    <path d="M 589.15754 1616.72213 L 589.15754 1522.66083" />
    <path d="M 488.07888 1615.54762 L 488.07888 1521.48632" />
    <path d="M -2421.78336 736.04158 L -449.33164 1222.7238" />
    <path d="M -1528.99193 1351.42986 L -449.33164 1617.82495" />
    <path d="M -1536.67154 968.86057 L -1395.11189 1288.89711" />
    <path d="M -1819.79084 899.00379 L -1536.67154 968.86057" />
    <path d="M 25.76107 -177.27827 A 590.15 326.36118 103.8603 0 1 -256.15564 965.28884" />
    <path d="M -2196.16947 1258.8629 L -2054.60982 1008.68315 L -1771.49052 1078.53993 L -1629.93087 1398.57646 L -2196.16947 1258.8629 Z" />
    <path d="M -2054.60982 1008.68315 L -1819.79084 899.00379" />
    <path d="M -1771.49052 1078.53993 L -1536.67154 968.86057" />
    <path d="M -1629.93087 1398.57646 L -1395.11189 1288.89711" />
    <path d="M -335.67202 907.78217 L -315.84345 898.52063 A 50 27.6507 103.8603 0 1 -303.86569 897.00714 L -354.14806 884.60048" />
    <path d="M -286.44699 931.82077 L -286.44699 949.89291" />
    <path d="M -303.86569 897.00714 A 50 27.6507 103.8603 0 1 -286.44699 931.82077" />
    <path d="M -289.99196 471.62887 L -429.55778 437.19244" />
    <path d="M -289.99196 471.62887 A 854.4 472.49511 103.8603 0 1 -303.59175 512.21038" />
    <path d="M -422.78606 717.02871 L -149.84227 784.37479" />
    <path d="M -89.84227 799.17917 L 6.83078 823.03226" />
    <path d="M -289.99196 471.62887 L -437.63988 540.59233" />
    <path d="M -436.68796 607.77918 L -303.59175 512.21038" />
    <path d="M -195.21984 781.15802 L -368.78792 862.22828" />
    <path d="M 1.29228 829.64537 L -89.84227 807.15886" />
    <path d="M -149.84227 792.35447 L -195.21984 781.15802" />
    <path d="M -245.72663 966.07932 L -33.20267 866.81354" />
    <path d="M -95.57491 832.60364 A 30 10.18443 360 0 1 -149.84227 826.61592" />
    <path d="M -89.84227 826.61592 A 30 10.18443 360 0 1 -95.57491 832.60364" />
    <path d="M -95.57491 550.41976 A 30 10.18443 360 0 1 -149.84227 544.43204 L -149.84227 826.61592" />
    <path d="M -149.84227 544.43204 A 30 10.18443 360 0 1 -89.84227 544.43204 L -89.84227 826.61592" />
    <path d="M -89.84227 544.43204 A 30 10.18443 360 0 1 -95.57491 550.41976" />
    <path d="M 1119.67841 203.53134 L 1153.9799 211.99488" />
    <path d="M 375.21165 -231.96369 L 925.61491 -96.15734" />
    <path d="M -350.14494 890.05709 L -315.84345 898.52063" />
</svg>