<svg version="1.1" xmlns="http://www.w3.org/2000/svg" viewBox="-2487.6582701669454 -967.2940983620354 4750.03458714275 2629.2755174389767" fill="none" stroke="black" stroke-width="0.6%" vector-effect="non-scaling-stroke">
    <path d="M 1631.43086 616.62416 L 1707.33735 638.4216" />
    <path d="M 1995.58974 710.4184 L 2006.48761 706.33879 L 2006.48761 628.35192 L 1979.29636 638.53095 L 1979.29636 694.71423" />
    <path d="M 1975.70807 637.50053 L 1979.29636 638.53095" />
    <path d="M 1975.70807 637.50053 L 1975.70807 637.50525" />
    <path d="M 1673.89992 550.83278 L 1825.22932 594.28879" />
    <path d="M 1673.89992 550.83278 L 1673.89992 550.83751 L 1630.22374 567.18766" />
    <path d="M 1979.27756 694.6961 L 1979.27756 643.0366 L 1968.8959 640.05539" />
    <path d="M 1697.11493 539.51193 L 1852.42056 584.10976" />
    <path d="M 1998.92308 626.17968 L 2006.48761 628.35192" />
    <path d="M 1697.11493 542.14225 L 1673.89992 550.83278" />
    <path d="M 1998.92308 628.81 L 1975.70807 637.50053" />
    <path d="M 1630.22374 -177.88563 L 1630.22374 601.51067" />
    <path d="M 1630.61339 610.24519 L 1630.22374 601.51067" />
    <path d="M 1679.63841 653.86652 A 75 46.68317 106.02204 0 1 1658.93788 655.09898 A 75 46.68317 106.02204 0 1 1630.61339 610.24519" />
    <path d="M 1910.24022 567.54084 L 1679.63841 653.86652" />
    <path d="M 1959.55738 482.67374 A 75 46.68317 106.02204 0 1 1910.24022 567.54084" />
    <path d="M 1959.65489 478.18827 L 1959.55738 482.67374" />
    <path d="M 1959.65489 478.18827 L 1959.65489 60.6328" />
    <path d="M 2122.71917 -362.25107 A 500 311.22111 106.02204 0 1 1959.65489 60.6328" />
    <path d="M 2122.71917 -362.25107 L 2199.74431 -391.08539 L 2192.07122 -393.28881 L 2115.04608 -364.45448 A 500 311.22111 106.02204 0 1 1951.9818 58.42938 L 1959.65489 60.6328" />
    <path d="M 1998.92308 327.97108 A 914.4 569.16116 286.02204 0 0 2199.74431 -391.08539" />
    <path d="M 1998.92308 327.97108 L 1998.92308 628.81" />
    <path d="M 1218.85319 920.83354 L 1975.70807 637.50525" />
    <path d="M 1218.85319 920.82881 L 1195.63818 929.51934 L 1195.63818 628.68042" />
    <path d="M 994.81695 59.97862 A 914.4 569.16116 286.02204 0 0 1195.63818 628.68042" />
    <path d="M 1630.22374 -177.88563 L 994.81695 59.97862 L 509.42439 -79.40755" />
    <path d="M 1187.96509 927.31593 L 1187.96509 738.37609 L 893.83003 653.91176" />
    <path d="M 1671.96533 651.6631 A 75 46.68317 106.02204 0 1 1655.17715 653.73328" />
    <path d="M 1902.56713 565.33742 L 1671.96533 651.6631 L 1679.63841 653.86652" />
    <path d="M 1951.88429 480.47033 A 75 46.68317 106.02204 0 1 1902.56713 565.33742 L 1910.24022 567.54084" />
    <path d="M 1951.9818 475.98485 L 1951.88429 480.47033 L 1959.55738 482.67374" />
    <path d="M 1951.9818 452.36678 L 1951.9818 475.98485 L 1959.65489 478.18827" />
    <path d="M 893.83003 842.8516 L 893.83003 653.91176" />
    <path d="M 933.36177 665.26376 L 933.36177 771.37426 L 936.39253 770.2397 L 936.39253 779.68693 L 1187.96509 851.92893" />
    <path d="M 1630.22374 510.5043 L 1657.5832 500.2623 L 1657.5832 368.00111" />
    <path d="M 1697.11493 379.35311 L 1697.11493 542.14225" />
    <path d="M 1007.79894 800.19211 L 917.04504 834.16579" />
    <path d="M 917.04504 834.16107 L 893.83003 842.8516" />
    <path d="M 884.80287 840.25934 L 884.80287 651.31951 L 590.66781 566.85518" />
    <path d="M 1630.22374 504.53273 L 1648.55603 497.67004 L 1648.55603 365.40885 L 1630.22374 360.14452" />
    <path d="M 590.66781 755.79501 L 590.66781 566.85518" />
    <path d="M 630.19955 578.20718 L 630.19955 684.31768 L 758.41415 636.3206 L 749.38699 633.72834 L 630.19955 599.50227" />
    <path d="M 791.20567 680.72848 L 613.88282 747.1092" />
    <path d="M 613.88282 747.10448 L 590.66781 755.79501" />
    <path d="M 581.64065 753.20275 L 581.64065 564.26292 L 513.84955 544.79591" />
    <path d="M 630.19955 678.34611 L 749.38699 633.72834" />
    <path d="M 287.50559 668.73842 L 287.50559 479.79859" />
    <path d="M 327.03733 491.15059 L 327.03733 597.26109 L 369.08029 581.52233" />
    <path d="M 540.93961 573.87024 L 502.76523 588.1608" />
    <path d="M 319.38197 656.81024 L 310.7206 660.05262" />
    <path d="M 310.7206 660.04789 L 287.50559 668.73842" />
    <path d="M 278.47843 666.14617 L 278.47843 477.20634 L 212.04141 458.12817" />
    <path d="M 327.03733 591.28952 L 373.3113 573.96688" />
    <path d="M 237.77739 486.81365 L 204.2041 499.3818" />
    <path d="M 471.52052 688.67776 L 581.64065 647.45434" />
    <path d="M 630.19955 629.27633 L 675.2087 612.42718" />
    <path d="M 496.54553 610.34489 L 570.95535 582.48961" />
    <path d="M 1222.42268 995.32965 L 1261.02676 980.87823" />
    <path d="M 2237.83942 1044.36941 L 1261.02676 980.87823" />
    <path d="M 2241.85015 1037.73618 L 2237.83942 1044.36941 L 2237.83942 975.40465 L 2241.85015 968.77142 L 2261.37632 966.59362 L 1940.67348 657.48802 L 1979.27756 643.0366" />
    <path d="M 2261.37632 1035.55839 L 2241.85015 1037.73618" />
    <path d="M 1449.38003 910.36827 L 1909.29095 738.20082" />
    <path d="M 2134.09285 954.87345 L 1909.29095 738.20082" />
    <path d="M 2237.83942 975.40465 L 1261.02676 911.91347 L 1261.02676 980.87823" />
    <path d="M 1222.42268 926.36489 L 1261.02676 911.91347" />
    <path d="M 1292.40929 900.16543 L 1909.29095 669.23606 L 1909.29095 738.20082" />
    <path d="M 2210.81928 959.86054 L 1292.40929 900.16543" />
    <path d="M 2210.81928 959.86054 L 1909.29095 669.23606" />
    <path d="M 753.96187 787.32982 L 844.70862 753.35881" />
    <path d="M 784.99274 796.2407 L 875.73949 762.26969" />
    <path d="M 1630.22374 322.65716 L 1648.55603 327.92149" />
    <path d="M 1697.11493 241.30333 L 1697.11493 341.86575 L 1951.9818 415.05376" />
    <path d="M 1630.22374 -177.88563 L 1622.55065 -180.08905 L 1600.7888 -171.94251" />
    <path d="M 1951.9818 58.42938 L 1951.9818 200.15361" />
    <path d="M 1914.51907 189.39575 L 1951.9818 200.15361" />
    <path d="M 1914.51907 205.42822 L 1914.51907 189.39575" />
    <path d="M 1914.51907 205.42822 L 1951.9818 216.18609 L 1951.9818 441.03011" />
    <path d="M 1907.59825 428.28485 L 1951.9818 441.03011" />
    <path d="M 1907.59825 439.62152 L 1907.59825 428.28485" />
    <path d="M 1907.59825 439.62152 L 1951.9818 452.36678" />
    <path d="M 2122.71917 -362.25107 L 2115.04608 -364.45448" />
    <path d="M 1674.01046 185.51 L 1630.22374 172.93613" />
    <path d="M 1721.47863 199.14104 A 914.4 569.16116 106.02204 0 1 1697.11493 241.30333" />
    <path d="M 1951.9818 265.33272 L 1721.47863 199.14104 L 1693.52547 169.5241 A 854.4 531.81463 106.02204 0 1 1657.5832 230.23277" />
    <path d="M 1897.93616 -477.75314 A 914.4 569.16116 106.02204 0 1 1736.98612 170.2595" />
    <path d="M 1897.93616 -477.75314 L 1888.909 -480.3454 L 1849.37726 -465.54671 A 854.4 531.81463 106.02204 0 1 1690.04968 156.78115 L 1630.22374 139.60143" />
    <path d="M 1594.77394 -564.80973 A 914.4 569.16116 106.02204 0 1 1536.6034 -172.69674" />
    <path d="M 1594.77394 -564.80973 L 1585.74678 -567.40198 L 1546.21504 -552.60329 A 854.4 531.81463 106.02204 0 1 1531.61305 -364.48526" />
    <path d="M 1291.61172 -651.86631 A 914.4 569.16116 106.02204 0 1 1274.08249 -438.43818" />
    <path d="M 1291.61172 -651.86631 L 1282.58456 -654.45857 L 1243.05282 -639.65988 A 854.4 531.81463 106.02204 0 1 1228.45083 -451.54185" />
    <path d="M 988.4495 -738.9229 A 914.4 569.16116 106.02204 0 1 970.92027 -525.49476" />
    <path d="M 988.4495 -738.9229 L 979.42234 -741.51515 L 939.8906 -726.71647 A 854.4 531.81463 106.02204 0 1 925.28861 -538.59843" />
    <path d="M 685.28728 -825.97948 A 914.4 569.16116 106.02204 0 1 667.75805 -612.55135" />
    <path d="M 685.28728 -825.97948 L 676.26012 -828.57174 L 636.72838 -813.77305 A 854.4 531.81463 106.02204 0 1 622.12639 -625.65502" />
    <path d="M 382.12506 -913.03607 A 914.4 569.16116 106.02204 0 1 364.59583 -699.60794" />
    <path d="M 382.12506 -913.03607 L 373.0979 -915.62833 L 291.69869 -885.15657" />
    <path d="M 264.00546 646.63309 L 278.47843 650.78918" />
    <path d="M 310.7206 660.04789 L 315.75477 661.49352" />
    <path d="M 465.83534 704.59091 L 581.64065 737.84576" />
    <path d="M 613.88282 747.10448 L 884.80287 824.90235" />
    <path d="M 917.04504 834.16107 L 1187.96509 911.95893" />
    <path d="M 1218.85319 920.82881 L 1222.44149 921.85924 L 1195.25024 932.03827 L 1195.25024 1010.02513 L 1222.44149 999.8461 L 1222.44149 921.85924" />
    <path d="M 272.27481 666.99505 L 304.82608 676.34253" />
    <path d="M 459.81028 720.84806 L 1195.25024 932.03827" />
    <path d="M 1187.96509 927.31593 L 1195.63818 929.51934" />
    <path d="M 884.80287 840.25934 L 893.83003 842.8516" />
    <path d="M 581.64065 753.20275 L 590.66781 755.79501" />
    <path d="M 278.47843 666.14617 L 287.50559 668.73842" />
    <path d="M 1187.96509 626.477 L 1195.63818 628.68042" />
    <path d="M 1187.96509 727.03942 L 1187.96509 626.477 A 914.4 569.16116 106.02204 0 1 1169.22871 608.41284 L 875.09365 523.94851" />
    <path d="M 1187.96509 727.03942 L 893.83003 642.57509 L 893.83003 542.01267 A 914.4 569.16116 106.02204 0 1 875.09365 523.94851" />
    <path d="M 884.80287 539.42042 L 893.83003 542.01267" />
    <path d="M 884.80287 639.98283 L 884.80287 539.42042 A 914.4 569.16116 106.02204 0 1 866.06649 521.35626 L 571.93143 436.89193" />
    <path d="M 884.80287 639.98283 L 590.66781 555.5185 L 590.66781 454.95609 A 914.4 569.16116 106.02204 0 1 571.93143 436.89193" />
    <path d="M 581.64065 452.36383 L 590.66781 454.95609" />
    <path d="M 581.64065 552.92625 L 581.64065 452.36383 A 914.4 569.16116 106.02204 0 1 562.90427 434.29967 L 536.96196 426.85003" />
    <path d="M 581.64065 552.92625 L 516.3497 534.17719" />
    <path d="M 407.69671 502.97621 L 287.50559 468.46192 L 287.50559 367.8995 A 914.4 569.16116 106.02204 0 1 268.76921 349.83534" />
    <path d="M 278.47843 365.30725 L 287.50559 367.8995" />
    <path d="M 278.47843 465.86966 L 278.47843 365.30725 A 914.4 569.16116 106.02204 0 1 259.74205 347.24309 L 235.15382 340.18229" />
    <path d="M 278.47843 465.86966 L 214.54156 447.50944" />
    <path d="M -15.65663 318.17096 L -15.65663 280.84292 A 914.4 569.16116 106.02204 0 1 -16.93198 279.68003" />
    <path d="M -16.93198 280.47669 L -15.65663 280.84292" />
    <path d="M 403.35669 513.06659 L 287.50559 479.79859" />
    <path d="M 443.03166 399.87685 L 268.76921 349.83534" />
    <path d="M 189.41554 327.04801 L -16.93198 267.7929" />
    <path d="M -542.13046 116.976 L -640.71745 88.66558" />
    <path d="M -622.03376 106.68189 A 914.4 569.16116 106.02204 0 1 -640.71745 88.66558" />
    <path d="M -631.06092 104.08964 A 914.4 569.16116 106.02204 0 1 -649.74462 86.07333 L -657.4177 83.86991" />
    <path d="M -663.04502 78.01286 A 914.4 569.16116 286.02204 0 0 -657.4177 83.86991" />
    <path d="M -655.37193 80.21628 L -663.04502 78.01286" />
    <path d="M -655.37193 80.21628 A 914.4 569.16116 106.02204 0 1 -671.81824 61.84336" />
    <path d="M -712.92493 6.18618 A 914.4 569.16116 106.02204 0 1 -741.4008 -43.21592" />
    <path d="M -772.88186 -113.95546 A 914.4 569.16116 106.02204 0 1 -779.04332 -130.71641" />
    <path d="M -792.41948 -172.01058 A 914.4 569.16116 106.02204 0 1 -831.13114 -423.24499" />
    <path d="M 325.55064 -132.20905 L 207.61624 -166.07529" />
    <path d="M 144.12774 -184.30676 L 8.53997 -223.24238" />
    <path d="M -250.18264 -297.53761 L -398.7082 -340.18847" />
    <path d="M -462.1967 -358.41993 L -489.85636 -366.36273" />
    <path d="M -553.34486 -384.5942 L -701.87042 -427.24505" />
    <path d="M -765.35892 -445.47652 L -793.01858 -453.41931" />
    <path d="M 1163.60139 602.55579 L 869.46633 518.09146 L 897.41949 467.54601 A 854.4 531.81463 106.02204 0 1 733.16022 -3.85683" />
    <path d="M 1163.60139 602.55579 A 914.4 569.16116 106.02204 0 1 987.19574 69.09245 L 693.06069 -15.37188" />
    <path d="M 869.46633 518.09146 A 914.4 569.16116 106.02204 0 1 693.06069 -15.37188" />
    <path d="M 860.43917 515.4992 L 566.30411 431.03487 L 594.25727 380.48943 A 854.4 531.81463 106.02204 0 1 548.78754 323.83423" />
    <path d="M 860.43917 515.4992 A 914.4 569.16116 106.02204 0 1 684.03352 -17.96413 L 513.1786 -67.02713" />
    <path d="M 566.30411 431.03487 A 914.4 569.16116 106.02204 0 1 540.607 401.43809" />
    <path d="M 465.71582 277.51572 A 914.4 569.16116 106.02204 0 1 453.10624 247.91209" />
    <path d="M 444.33528 224.85666 A 914.4 569.16116 106.02204 0 1 442.63272 220.10218" />
    <path d="M 429.25657 178.80802 A 914.4 569.16116 106.02204 0 1 390.52425 -73.03795" />
    <path d="M 557.27695 428.44262 L 537.57677 422.78548" />
    <path d="M 444.0777 395.93613 L 263.14189 343.97829 L 291.09505 293.43284 A 854.4 531.81463 106.02204 0 1 246.87005 238.58667" />
    <path d="M 557.27695 428.44262 A 914.4 569.16116 106.02204 0 1 539.6219 408.64121" />
    <path d="M 464.20888 290.94794 A 914.4 569.16116 106.02204 0 1 444.07907 245.31983" />
    <path d="M 437.23016 227.51646 A 914.4 569.16116 106.02204 0 1 433.60556 217.50993" />
    <path d="M 420.2294 176.21577 A 914.4 569.16116 106.02204 0 1 381.23291 -84.4931" />
    <path d="M 352.13003 -113.27411 L 211.37045 -153.69487" />
    <path d="M 149.00037 -171.60518 L 86.73625 -189.48505" />
    <path d="M 263.14189 343.97829 A 914.4 569.16116 106.02204 0 1 238.64936 315.88167" />
    <path d="M 197.51272 257.01138 A 914.4 569.16116 106.02204 0 1 139.4705 133.0456" />
    <path d="M 126.09435 91.75144 A 914.4 569.16116 106.02204 0 1 86.73625 -189.48505" />
    <path d="M 254.11473 341.38603 L 235.76862 336.11773" />
    <path d="M 189.99277 322.97266 L -16.93198 263.55179" />
    <path d="M 254.11473 341.38603 A 914.4 569.16116 106.02204 0 1 237.66842 323.01312" />
    <path d="M 196.56173 267.35594 A 914.4 569.16116 106.02204 0 1 130.44334 130.45334" />
    <path d="M 117.06718 89.15918 A 914.4 569.16116 106.02204 0 1 77.70908 -192.0773 L 1.57673 -213.9396" />
    <path d="M -259.93356 -289.03535 L -394.95399 -327.80805" />
    <path d="M -457.32407 -345.71835 L -500.72569 -358.18163" />
    <path d="M -464.7865 -35.3068 A 914.4 569.16116 106.02204 0 1 -466.85394 -41.06757" />
    <path d="M -480.23009 -82.36174 A 914.4 569.16116 106.02204 0 1 -519.23703 -343.47291" />
    <path d="M -540.49506 113.20452 L -646.34477 82.80853 L -599.22781 -2.38928" />
    <path d="M -469.71964 -26.89887 A 914.4 569.16116 106.02204 0 1 -475.8811 -43.65983" />
    <path d="M -489.25726 -84.95399 A 914.4 569.16116 106.02204 0 1 -527.96892 -336.1884" />
    <path d="M -563.09578 -376.09193 L -698.11621 -414.86463" />
    <path d="M -760.48629 -432.77493 L -803.88791 -445.23822" />
    <path d="M -646.34477 82.80853 A 914.4 569.16116 106.02204 0 1 -670.8373 54.71191" />
    <path d="M -711.97394 -4.15838 A 914.4 569.16116 106.02204 0 1 -732.37364 -40.62366" />
    <path d="M -767.94872 -122.36339 A 914.4 569.16116 106.02204 0 1 -770.01616 -128.12416" />
    <path d="M -783.39231 -169.41832 A 914.4 569.16116 106.02204 0 1 -822.39925 -430.5295" />
    <path d="M 989.21287 32.21865 L 1563.32608 -182.70037 L 1600.7888 -171.94251" />
    <path d="M 989.21287 32.21865 L 499.80245 -108.32129" />
    <path d="M 304.82608 -164.31104 L 197.9943 -194.98904" />
    <path d="M 131.53393 -214.07391 L 34.65908 -241.89266" />
    <path d="M -226.68589 -316.94093 L -408.33014 -369.10221" />
    <path d="M -529.84811 -403.99752 L -711.49236 -456.15879" />
    <path d="M -720.90784 -481.30575 L -693.85688 -491.43227 L -721.3032 -499.3138" />
    <path d="M 1907.3347 439.72018 L 1907.59825 439.62152" />
    <path d="M 1907.3347 439.72018 L 1657.5832 368.00111" />
    <path d="M 933.36177 627.7764 L 1187.96509 700.88873" />
    <path d="M 933.36177 540.68089 L 933.36177 627.7764 L 893.83003 642.57509" />
    <path d="M 630.19955 540.71982 L 884.80287 613.83214" />
    <path d="M 630.19955 453.6243 L 630.19955 540.71982 L 590.66781 555.5185" />
    <path d="M 327.03733 453.66323 L 417.13856 479.53685" />
    <path d="M 521.81706 509.59651 L 581.64065 526.77556" />
    <path d="M 327.03733 366.56772 L 327.03733 453.66323 L 287.50559 468.46192" />
    <path d="M 166.96967 407.69792 L 174.84675 409.95992" />
    <path d="M 220.00891 422.92876 L 278.47843 439.71897" />
    <path d="M 23.87511 279.51113 L 23.87511 329.52296" />
    <path d="M 936.39253 770.2397 L 933.36177 769.36938" />
    <path d="M 791.20567 737.99481 L 884.80287 764.87235" />
    <path d="M 791.20567 67.24164 L 988.95487 124.02764" />
    <path d="M 791.20567 737.99481 L 791.20567 624.44197" />
    <path d="M 791.20567 586.95461 L 791.20567 499.8591" />
    <path d="M 791.20567 437.04547 L 791.20567 422.50365" />
    <path d="M 791.20567 295.3261 L 791.20567 67.24164" />
    <path d="M 1173.15666 -36.64062 L 1114.04819 -53.61431 L 930.1044 15.24496" />
    <path d="M 1648.55603 497.67004 L 1657.5832 500.2623" />
    <path d="M 1648.55603 354.07218 L 1630.22374 348.80785" />
    <path d="M 1648.55603 354.07218 L 1648.55603 227.64052 L 1657.5832 230.23277" />
    <path d="M 1657.5832 356.66444 L 1657.5832 230.23277" />
    <path d="M 1907.3347 428.38351 L 1657.5832 356.66444" />
    <path d="M 1907.3347 428.38351 L 1907.3347 439.72018" />
    <path d="M 777.82255 641.89395 L 758.41415 636.3206" />
    <path d="M 791.20567 636.88399 L 777.82255 641.89395 L 776.2601 620.15018" />
    <path d="M 581.64065 585.55802 L 508.94171 564.68166" />
    <path d="M 394.7911 531.90198 L 327.03733 512.44569" />
    <path d="M 278.47843 498.50143 L 207.13356 478.01392" />
    <path d="M 2241.85015 968.77142 L 2241.85015 1037.73618" />
    <path d="M 2261.37632 966.59362 L 2261.37632 1035.55839" />
    <path d="M -522.23468 -13.61449 A 762 474.30097 106.02204 0 1 -542.59741 -29.17364" />
    <path d="M 1684.49831 166.93184 A 854.4 531.81463 106.02204 0 1 1648.55603 227.64052" />
    <path d="M 1697.11493 341.86575 L 1657.5832 356.66444" />
    <path d="M 1907.3347 428.38351 L 1907.59825 428.28485" />
    <path d="M 1934.99136 227.11903 L 1699.07684 159.37341" />
    <path d="M 1950.19781 243.23057 L 1914.51907 205.42822" />
    <path d="M 1950.19781 243.23057 L 1693.52547 169.5241" />
    <path d="M 1684.49831 166.93184 L 1630.22374 151.34626" />
    <path d="M 1858.40442 -462.95445 A 854.4 531.81463 106.02204 0 1 1699.07684 159.37341" />
    <path d="M 1897.93616 -477.75314 L 1858.40442 -462.95445 L 1849.37726 -465.54671" />
    <path d="M 1555.2422 -550.01104 A 854.4 531.81463 106.02204 0 1 1540.64022 -361.893" />
    <path d="M 1532.77965 -315.86346 A 854.4 531.81463 106.02204 0 1 1492.49513 -156.18484" />
    <path d="M 1594.77394 -564.80973 L 1555.2422 -550.01104 L 1546.21504 -552.60329" />
    <path d="M 1522.0129 -309.41125 A 854.4 531.81463 106.02204 0 1 1481.29544 -151.99223" />
    <path d="M 1252.07998 -637.06762 A 854.4 531.81463 106.02204 0 1 1237.47799 -448.94959" />
    <path d="M 1291.61172 -651.86631 L 1252.07998 -637.06762 L 1243.05282 -639.65988" />
    <path d="M 948.91776 -724.12421 A 854.4 531.81463 106.02204 0 1 934.31577 -536.00618" />
    <path d="M 988.4495 -738.9229 L 948.91776 -724.12421 L 939.8906 -726.71647" />
    <path d="M 645.75554 -811.1808 A 854.4 531.81463 106.02204 0 1 631.15355 -623.06276" />
    <path d="M 685.28728 -825.97948 L 645.75554 -811.1808 L 636.72838 -813.77305" />
    <path d="M 281.61521 -875.41025 A 762 474.30097 106.02204 0 1 259.31653 -668.75498" />
    <path d="M 382.12506 -913.03607 L 281.61521 -875.41025 L 272.58805 -878.00251 A 762 474.30097 106.02204 0 1 248.98201 -664.88626" />
    <path d="M 269.1187 -884.66585 L 270.7163 -884.70058 L 272.31623 -884.73535 L 273.9185 -884.77017 L 275.5231 -884.80504 L 277.13006 -884.83996 L 278.73936 -884.87494 L 280.35101 -884.90996 L 281.96501 -884.94504 L 283.58138 -884.98017 L 285.2001 -885.01534 L 286.82119 -885.05057 L 288.44465 -885.08585 L 290.07048 -885.12119 L 291.69869 -885.15657" />
    <path d="M 262.5288 -882.19893 L 269.1187 -884.66585" />
    <path d="M 262.5288 -882.19893 L 264.12621 -882.23365 L 265.72597 -882.26842 L 267.32811 -882.30324 L 268.93261 -882.33811 L 270.53949 -882.37303 L 272.14875 -882.408 L 273.76039 -882.44303 L 275.37441 -882.47811 L 276.99083 -882.51324 L 278.60963 -882.54842 L 280.23083 -882.58365 L 281.85443 -882.61894 L 283.48043 -882.65427 L 285.10884 -882.68966 L 272.58805 -878.00251" />
    <path d="M 194.23055 722.57059 L 304.82608 754.32939" />
    <path d="M 431.34438 790.66061 L 1195.25024 1010.02513" />
    <path d="M -582.30471 42.62586 L -563.1409 7.9735" />
    <path d="M -547.23225 -20.79283 L -536.16893 -40.79774 A 762 474.30097 106.02204 0 1 -541.88222 -46.49934 L -570.31778 -54.66495 A 762 474.30097 106.02204 0 1 -590.11848 -76.46443" />
    <path d="M -660.94156 74.20934 L -663.04502 78.01286" />
    <path d="M 1105.20809 527.21495 L 897.41949 467.54601" />
    <path d="M 802.04587 440.15836 L 594.25727 380.48943" />
    <path d="M 467.10282 147.84523 A 854.4 531.81463 106.02204 0 1 439.1443 17.49868" />
    <path d="M 456.47274 340.92299 L 291.09505 293.43284" />
    <path d="M 202.17989 160.89861 A 854.4 531.81463 106.02204 0 1 196.90371 149.53822" />
    <path d="M 179.43727 107.06948 A 854.4 531.81463 106.02204 0 1 126.83578 -177.97" />
    <path d="M 195.72143 266.04519 L -12.06717 206.37626 A 854.4 531.81463 106.02204 0 1 -16.93198 201.13558" />
    <path d="M -16.93198 215.1729 L -12.06717 206.37626" />
    <path d="M -433.46775 -85.47676 A 854.4 531.81463 106.02204 0 1 -479.48866 -352.08317" />
    <path d="M -516.7056 61.46341 L -589.95605 40.42869 L -570.79224 5.77633" />
    <path d="M -554.88359 -22.99001 L -541.88222 -46.49934" />
    <path d="M -583.31915 -31.15561 L -570.31778 -54.66495" />
    <path d="M -717.07767 -471.40291 L -693.63734 -480.17778 A 762 474.30097 106.02204 0 1 -693.85688 -491.43227" />
    <path d="M -624.76487 -123.86659 A 762 474.30097 106.02204 0 1 -660.66319 -191.1494" />
    <path d="M 873.487 36.43966 L 791.20567 67.24164" />
    <path d="M 773.50961 581.87298 L 767.1193 492.94241" />
    <path d="M 762.51058 428.80534 L 757.29941 356.28413" />
    <path d="M -460.41326 -185.44624 L -460.67645 -189.10889" />
    <path d="M 764.6453 -61.71524 A 50 31.12211 106.02204 0 1 778.44566 -62.53688 A 50 31.12211 106.02204 0 1 797.58842 -26.81134 L 797.58842 -22.80856" />
    <path d="M 797.58842 14.64449 L 797.58842 64.85226" />
    <path d="M 686.26639 45.02518 L 541.7719 66.61658" />
    <path d="M 534.88821 24.29422 L 663.51365 -23.85665" />
    <path d="M 720.13105 -45.05135 L 764.6453 -61.71524" />
    <path d="M 22.22719 -532.76455 L 1225.84891 -187.13046 A 50 31.12211 106.02204 0 1 1258.79202 -246.69884" />
    <path d="M 1225.84891 -187.13046 L 1225.84891 -151.7349" />
    <path d="M 22.22719 -452.92988 L 22.22719 -532.76455" />
    <path d="M 1287.58963 -148.79239 L 1289.02115 -169.78583 L 1555.28005 -329.34732 L 1555.28005 -357.689 L 1258.79202 -246.69884" />
    <path d="M 351.65833 -703.32309 L 234.97412 -659.64241 A 700 229.50913 180 0 0 -457.63434 -614.12504" />
    <path d="M 29.85764 -565.85214 A 50 31.12211 286.02204 0 0 22.22719 -532.76455" />
    <path d="M -735.46444 -296.35917 L -724.25529 -300.55531" />
    <path d="M -675.54039 -318.79171 L -618.78023 -340.03985" />
    <path d="M -735.46444 -268.01748 L -735.46444 -296.35917 L -722.82192 -292.72872" />
    <path d="M 1293.02619 -122.17017 A 57.5 18.85254 360 0 1 1192.27104 -134.59139 L 1192.27104 -43.79608" />
    <path d="M 1192.27104 -134.59139 A 57.5 18.85254 360 0 1 1307.27104 -134.59139 L 1307.27104 -86.84628" />
    <path d="M 1307.27104 -134.59139 A 57.5 18.85254 360 0 1 1293.02619 -122.17017" />
    <path d="M -735.46444 -268.01748 L -718.00537 -263.00391" />
    <path d="M -626.8099 -236.81606 L -515.83189 -204.94742" />
    <path d="M -461.18119 -189.25383 L -414.84315 -175.94732" />
    <path d="M -16.93198 -61.68246 L 90.49255 -30.83425" />
    <path d="M 145.14325 -15.14066 L 191.48129 -1.83415" />
    <path d="M 244.12294 13.28252 L 393.65477 56.22233" />
    <path d="M 448.30547 71.91592 L 455.70951 74.04208" />
    <path d="M -420.9269 -402.1662 L -198.46556 -338.28382" />
    <path d="M 79.17333 -258.55655 L 114.74305 -248.34229" />
    <path d="M 185.39754 -228.05303 L 304.82608 -193.75772" />
    <path d="M 487.20569 -141.38528 L 764.6453 -61.71524" />
    <path d="M -668.97277 -277.2653 L -660.80522 -274.9199" />
    <path d="M -606.95606 -259.45648 L -519.96582 -234.47621" />
    <path d="M -466.62525 -219.15884 L -419.6597 -205.67213" />
    <path d="M -365.81055 -190.20872 L -357.643 -187.86331" />
    <path d="M -16.93198 -90.02415 L 86.35862 -60.36304" />
    <path d="M 139.69919 -45.04567 L 186.66474 -31.55896" />
    <path d="M 240.51389 -16.09555 L 389.52084 26.69354" />
    <path d="M 442.86141 42.01092 L 447.71757 43.40542" />
    <path d="M 55.1703 -592.33293 L -130.74651 -522.73506" />
    <path d="M -355.54858 -438.5805 L -398.13519 -422.63822" />
    <path d="M -648.52027 -522.71076 A 700 229.50913 180 0 0 -689.86475 -462.69106" />
    <path d="M -682.97446 -404.75736 A 700 229.50913 180 0 0 -618.78023 -340.03985" />
    <path d="M 351.65833 -703.32309 L 1555.28005 -357.689" />
    <path d="M 55.1703 -592.33293 L 1258.79202 -246.69884" />
    <path d="M 55.1703 -592.33293 A 50 31.12211 286.02204 0 0 29.85764 -565.85214 L -103.85457 -515.79703" />
    <path d="M -329.84227 -431.19864 L -406.03732 -402.67506" />
    <path d="M -634.56881 -334.1294 A 700 229.50913 0 0 1 -678.7106 -380.17361" />
    <path d="M 281.56722 689.87615 L 176.97283 729.03101 L 148.45119 658.801" />
    <path d="M 149.9211 365.71854 L 45.32671 404.8734 L -16.93198 386.99509" />
    <path d="M 281.56722 689.87615 L 202.59478 495.41909" />
    <path d="M 172.45541 421.2057 L 149.9211 365.71854 L -16.93198 317.80472" />
    <path d="M 122.51852 594.94594 L 45.32671 404.8734" />
    <path d="M -16.93198 673.34897 L 79.11852 700.93099" />
    <path d="M 125.04334 714.11884 L 176.97283 729.03101" />
    <path d="M 266.29012 -881.11882 A 765 476.1683 106.02204 0 1 241.55309 -662.10524" />
    <path d="M 262.5288 -882.19893 L 266.29012 -881.11882" />
    <path d="M 217.47317 -862.84422 L 266.29012 -881.11882" />
    <path d="M -692.59142 -513.8901 A 690.9233 430.05983 286.02204 0 0 -688.67627 -449.60689" />
    <path d="M -683.89226 -410.78006 A 690.9233 430.05983 286.02204 0 0 -665.20241 -322.66173" />
    <path d="M -631.25793 -231.53988 A 690.9233 430.05983 286.02204 0 0 -545.33674 -110.55481 A 690.9233 430.05983 286.02204 0 0 -529.32624 -96.46027" />
    <path d="M 194.5863 -663.75087 A 690.9233 430.05983 286.02204 0 0 217.47317 -862.84422 A 739.8449 242.57309 180 0 0 -751.53578 -699.68666" />
    <path d="M 220.25157 -866.00334 A 749.84697 245.85247 180 0 0 -760.66758 -701.16251" />
    <path d="M 219.69357 -866.16358 L 220.25157 -866.00334" />
    <path d="M 219.69357 -866.16358 L 262.5288 -882.19893" />
    <path d="M 219.69217 -866.07063 A 700 435.70955 286.02204 0 0 219.69357 -866.16358" />
    <path d="M -1876.5215 -937.33883 L -1884.19459 -939.54225 A 914.4 569.16116 286.02204 0 0 -1892.10094 -936.50812" />
    <path d="M -1892.10094 -931.21779 L -1892.10094 -936.50812" />
    <path d="M -1884.42785 -934.3047 L -1892.10094 -936.50812" />
    <path d="M -2302.52766 -524.84649 A 914.4 569.16116 106.02204 0 1 -1884.42785 -934.3047" />
    <path d="M -2302.52766 -524.84649 L -2310.20074 -527.04991 A 914.4 569.16116 286.02204 0 0 -2315.75469 -516.90195" />
    <path d="M -2310.11603 -510.92767 L -2315.75469 -516.90195" />
    <path d="M -2308.0816 -514.69853 L -2315.75469 -516.90195" />
    <path d="M -2478.98518 152.04769 A 914.4 569.16116 106.02204 0 1 -2308.0816 -514.69853" />
    <path d="M -2478.97478 146.96796 L -2486.65827 149.84427 A 914.4 569.16116 286.02204 0 0 -2486.60639 161.16153" />
    <path d="M -2478.98518 152.04769 L -2486.65827 149.84427" />
    <path d="M -2478.9333 163.36494 L -2486.60639 161.16153" />
    <path d="M -2302.52766 696.82828 A 914.4 569.16116 106.02204 0 1 -2478.9333 163.36494" />
    <path d="M -2308.09728 690.82134 L -2310.20074 694.62486 A 914.4 569.16116 286.02204 0 0 -2304.57343 700.48192" />
    <path d="M -2302.52766 696.82828 L -2310.20074 694.62486" />
    <path d="M -2296.90034 702.68533 L -2304.57343 700.48192" />
    <path d="M -2278.16396 821.31191 L -2278.16396 720.74949 L -2269.13679 723.34175 A 914.4 569.16116 106.02204 0 1 -2287.87317 705.27759" />
    <path d="M -2278.16396 720.74949 A 914.4 569.16116 106.02204 0 1 -2296.90034 702.68533" />
    <path d="M -1876.5215 -937.33883 A 914.4 569.16116 106.02204 0 1 -1624.14061 -952.36499" />
    <path d="M -1377.92606 -190.10472 A 762 474.30097 106.02204 0 1 -1398.17371 -48.27425" />
    <path d="M -1516.56058 -724.37265 A 762 474.30097 106.02204 0 1 -1460.98079 -647.34751" />
    <path d="M -1436.18333 -598.43355 A 762 474.30097 106.02204 0 1 -1374.6651 -295.81389" />
    <path d="M -1516.56058 -724.37265 L -1524.23367 -726.57607" />
    <path d="M -1529.78972 -732.56198 A 762 474.30097 106.02204 0 1 -1524.23367 -726.57607" />
    <path d="M -1529.78972 -732.56198 L -1527.7769 -736.2016" />
    <path d="M -1522.11663 -730.35856 L -1529.78972 -732.56198" />
    <path d="M -1584.7308 -782.84027 A 762 474.30097 106.02204 0 1 -1522.11663 -730.35856" />
    <path d="M 26.85474 802.122 L -16.93198 789.54813" />
    <path d="M 74.32291 815.75304 A 914.4 569.16116 106.02204 0 1 49.95921 857.91534 L 49.95921 958.47775 L 10.42747 973.27644 L 10.42747 846.84477" />
    <path d="M 304.82608 881.94473 L 74.32291 815.75304 L 46.36975 786.1361 A 854.4 531.81463 106.02204 0 1 10.42747 846.84477" />
    <path d="M -451.51755 1245.29242 A 914.4 569.16116 106.02204 0 1 202.5058 -427.82206 L 194.83271 -430.02548" />
    <path d="M 202.5058 -427.82206 A 914.4 569.16116 106.02204 0 1 351.76736 944.58308 L 351.76736 1245.422 L 328.55234 1254.11253 L 332.14064 1255.14296 L 332.14064 1311.32623" />
    <path d="M -459.19063 1243.08901 L -451.51755 1245.29242" />
    <path d="M -459.19063 1243.08901 A 914.4 569.16116 106.02204 0 1 -477.92702 1225.02485 L -772.06207 1140.56052" />
    <path d="M -753.32569 1158.62468 A 914.4 569.16116 106.02204 0 1 -772.06207 1140.56052" />
    <path d="M -762.35285 1156.03242 L -753.32569 1158.62468" />
    <path d="M -762.35285 1156.03242 A 914.4 569.16116 106.02204 0 1 -781.08924 1137.96826 L -1075.22429 1053.50393" />
    <path d="M -1056.48791 1071.56809 A 914.4 569.16116 106.02204 0 1 -1075.22429 1053.50393" />
    <path d="M -1065.51507 1068.97584 L -1056.48791 1071.56809" />
    <path d="M -1065.51507 1068.97584 A 914.4 569.16116 106.02204 0 1 -1084.25146 1050.91168 L -1378.38651 966.44735" />
    <path d="M -1359.65013 984.51151 A 914.4 569.16116 106.02204 0 1 -1378.38651 966.44735" />
    <path d="M -1368.67729 981.91925 L -1359.65013 984.51151" />
    <path d="M -1368.67729 981.91925 A 914.4 569.16116 106.02204 0 1 -1387.41368 963.85509 L -1681.54873 879.39076" />
    <path d="M -1662.81235 897.45492 A 914.4 569.16116 106.02204 0 1 -1681.54873 879.39076" />
    <path d="M -1671.83951 894.86266 L -1662.81235 897.45492" />
    <path d="M -1671.83951 894.86266 A 914.4 569.16116 106.02204 0 1 -1690.5759 876.7985 L -1984.71095 792.33417" />
    <path d="M -1965.97457 810.39833 A 914.4 569.16116 106.02204 0 1 -1984.71095 792.33417" />
    <path d="M -1975.00173 807.80608 L -1965.97457 810.39833" />
    <path d="M -1975.00173 807.80608 A 914.4 569.16116 106.02204 0 1 -1993.73812 789.74192 L -2287.87317 705.27759" />
    <path d="M -483.55433 1219.16779 L -777.68939 1134.70346 L -749.73623 1084.15802 A 854.4 531.81463 106.02204 0 1 -913.99551 612.75518" />
    <path d="M -483.55433 1219.16779 A 914.4 569.16116 106.02204 0 1 -659.95998 685.70446 L -954.09504 601.24013" />
    <path d="M -777.68939 1134.70346 A 914.4 569.16116 106.02204 0 1 -954.09504 601.24013" />
    <path d="M -786.71655 1132.11121 L -1080.85161 1047.64688 L -1052.89845 997.10143 A 854.4 531.81463 106.02204 0 1 -1217.15773 525.69859" />
    <path d="M -786.71655 1132.11121 A 914.4 569.16116 106.02204 0 1 -963.1222 598.64787 L -1257.25726 514.18354" />
    <path d="M -1080.85161 1047.64688 A 914.4 569.16116 106.02204 0 1 -1257.25726 514.18354" />
    <path d="M -1089.87877 1045.05462 L -1384.01383 960.59029 L -1356.06067 910.04485 A 854.4 531.81463 106.02204 0 1 -1520.31995 438.64201" />
    <path d="M -1089.87877 1045.05462 A 914.4 569.16116 106.02204 0 1 -1266.28442 511.59129 L -1560.41948 427.12696" />
    <path d="M -1384.01383 960.59029 A 914.4 569.16116 106.02204 0 1 -1560.41948 427.12696" />
    <path d="M -1393.04099 957.99804 L -1687.17605 873.53371 L -1659.22289 822.98826 A 854.4 531.81463 106.02204 0 1 -1823.48217 351.58542" />
    <path d="M -1393.04099 957.99804 A 914.4 569.16116 106.02204 0 1 -1569.44664 424.5347 L -1863.5817 340.07037" />
    <path d="M -1687.17605 873.53371 A 914.4 569.16116 106.02204 0 1 -1863.5817 340.07037" />
    <path d="M -1696.20321 870.94145 L -1990.33827 786.47712 L -1962.38511 735.93168 A 854.4 531.81463 106.02204 0 1 -2126.64439 264.52883" />
    <path d="M -1696.20321 870.94145 A 914.4 569.16116 106.02204 0 1 -1872.60886 337.47811 L -2166.74392 253.01378" />
    <path d="M -1990.33827 786.47712 A 914.4 569.16116 106.02204 0 1 -2166.74392 253.01378" />
    <path d="M -1999.36543 783.88487 L -2293.50049 699.42054 L -2217.4735 561.94705 A 762 474.30097 106.02204 0 1 -2331.54305 363.26191" />
    <path d="M -1999.36543 783.88487 A 914.4 569.16116 106.02204 0 1 -2175.77108 250.42153 L -2469.90614 165.9572" />
    <path d="M -2293.50049 699.42054 A 914.4 569.16116 106.02204 0 1 -2469.90614 165.9572" />
    <path d="M -2175.82296 239.10428 L -2469.95802 154.63995 L -2369.44817 117.01413 A 762 474.30097 106.02204 0 1 -2232.92325 -442.03893" />
    <path d="M -2175.82296 239.10428 A 914.4 569.16116 106.02204 0 1 -2004.91938 -427.64195 L -2299.05444 -512.10628 L -2232.92325 -442.03893" />
    <path d="M -2469.95802 154.63995 A 914.4 569.16116 106.02204 0 1 -2299.05444 -512.10628" />
    <path d="M -1872.66074 326.16086 L -2166.7958 241.69653 L -2127.26406 226.89784 A 854.4 531.81463 106.02204 0 1 -1967.93648 -395.43002" />
    <path d="M -1872.66074 326.16086 A 914.4 569.16116 106.02204 0 1 -1701.75716 -340.58536 L -1995.89222 -425.04969 L -1967.93648 -395.43002" />
    <path d="M -2166.7958 241.69653 A 914.4 569.16116 106.02204 0 1 -1995.89222 -425.04969" />
    <path d="M -660.01186 674.3872 L -954.14692 589.92287 L -914.61518 575.12419 A 854.4 531.81463 106.02204 0 1 -755.2876 -47.20368" />
    <path d="M -660.01186 674.3872 A 914.4 569.16116 106.02204 0 1 -489.10828 7.64098 L -783.24334 -76.82335 L -755.2876 -47.20368" />
    <path d="M -954.14692 589.92287 A 914.4 569.16116 106.02204 0 1 -783.24334 -76.82335" />
    <path d="M -963.17408 587.33062 L -1257.30914 502.86629 L -1217.7774 488.0676 A 854.4 531.81463 106.02204 0 1 -1058.44982 -134.26026" />
    <path d="M -963.17408 587.33062 A 914.4 569.16116 106.02204 0 1 -792.2705 -79.4156 L -1086.40556 -163.87993 L -1058.44982 -134.26026" />
    <path d="M -1257.30914 502.86629 A 914.4 569.16116 106.02204 0 1 -1086.40556 -163.87993" />
    <path d="M -1266.3363 500.27403 L -1560.47136 415.8097 L -1520.93962 401.01102 A 854.4 531.81463 106.02204 0 1 -1361.61204 -221.31685" />
    <path d="M -1266.3363 500.27403 A 914.4 569.16116 106.02204 0 1 -1095.43272 -166.47219 L -1389.56778 -250.93652 L -1361.61204 -221.31685" />
    <path d="M -1560.47136 415.8097 A 914.4 569.16116 106.02204 0 1 -1389.56778 -250.93652" />
    <path d="M -1569.49852 413.21745 L -1863.63358 328.75312 L -1824.10184 313.95443 A 854.4 531.81463 106.02204 0 1 -1664.77426 -308.37343" />
    <path d="M -1569.49852 413.21745 A 914.4 569.16116 106.02204 0 1 -1398.59494 -253.52877 L -1692.73 -337.9931 L -1664.77426 -308.37343" />
    <path d="M -1863.63358 328.75312 A 914.4 569.16116 106.02204 0 1 -1692.73 -337.9931" />
    <path d="M -1999.36543 -437.7899 L -2293.50049 -522.25423 A 914.4 569.16116 106.02204 0 1 -1875.40069 -931.71245 L -1875.40069 -802.03436" />
    <path d="M -1999.36543 -437.7899 A 914.4 569.16116 106.02204 0 1 -1581.26563 -847.24811 L -1875.40069 -931.71245" />
    <path d="M -1696.20321 -350.73332 L -1990.33827 -435.19765 A 914.4 569.16116 106.02204 0 1 -1572.23847 -844.65586 L -1572.23847 -787.96727" />
    <path d="M -1696.20321 -350.73332 A 914.4 569.16116 106.02204 0 1 -1278.10341 -760.19153 L -1572.23847 -844.65586" />
    <path d="M -483.55433 -2.50697 L -777.68939 -86.9713 A 914.4 569.16116 106.02204 0 1 -359.58959 -496.42952 L -359.58959 -439.74093" />
    <path d="M -483.55433 -2.50697 A 914.4 569.16116 106.02204 0 1 -65.45453 -411.96519 L -359.58959 -496.42952" />
    <path d="M -786.71655 -89.56356 L -1080.85161 -174.02789 A 914.4 569.16116 106.02204 0 1 -662.75181 -583.4861 L -662.75181 -526.79751" />
    <path d="M -786.71655 -89.56356 A 914.4 569.16116 106.02204 0 1 -368.61675 -499.02177 L -662.75181 -583.4861" />
    <path d="M -1089.87877 -176.62015 L -1384.01383 -261.08448 A 914.4 569.16116 106.02204 0 1 -965.91403 -670.54269 L -965.91403 -613.8541" />
    <path d="M -1089.87877 -176.62015 A 914.4 569.16116 106.02204 0 1 -671.77897 -586.07836 L -965.91403 -670.54269" />
    <path d="M -1393.04099 -263.67673 L -1687.17605 -348.14106 A 914.4 569.16116 106.02204 0 1 -1269.07625 -757.59927 L -1269.07625 -700.91068" />
    <path d="M -1393.04099 -263.67673 A 914.4 569.16116 106.02204 0 1 -974.94119 -673.13494 L -1269.07625 -757.59927" />
    <path d="M -1573.35928 -850.28224 L -1867.49434 -934.74657 A 914.4 569.16116 106.02204 0 1 -1615.11345 -949.77274 L -1624.14061 -952.36499" />
    <path d="M -1573.35928 -850.28224 A 914.4 569.16116 106.02204 0 1 -1320.97839 -865.30841" />
    <path d="M -1615.11345 -949.77274 A 914.4 569.16116 106.02204 0 1 -1477.3371 -875.18537" />
    <path d="M -1270.19706 -763.22566 L -1564.33212 -847.68999 A 914.4 569.16116 106.02204 0 1 -1311.95123 -862.71615 L -1320.97839 -865.30841" />
    <path d="M -1270.19706 -763.22566 A 914.4 569.16116 106.02204 0 1 -1017.81617 -778.25182" />
    <path d="M -1311.95123 -862.71615 A 914.4 569.16116 106.02204 0 1 -1174.17488 -788.12878" />
    <path d="M -57.54818 -414.99932 L -351.68324 -499.46365 A 914.4 569.16116 106.02204 0 1 -99.30235 -514.48981 L -108.32951 -517.08207" />
    <path d="M -57.54818 -414.99932 A 914.4 569.16116 106.02204 0 1 194.83271 -430.02548" />
    <path d="M -99.30235 -514.48981 A 914.4 569.16116 106.02204 0 1 38.474 -439.90244" />
    <path d="M -360.7104 -502.0559 L -654.84546 -586.52023 A 914.4 569.16116 106.02204 0 1 -402.46457 -601.5464 L -411.49173 -604.13865" />
    <path d="M -360.7104 -502.0559 A 914.4 569.16116 106.02204 0 1 -108.32951 -517.08207" />
    <path d="M -402.46457 -601.5464 A 914.4 569.16116 106.02204 0 1 -264.68822 -526.95902" />
    <path d="M -663.87262 -589.11249 L -958.00768 -673.57682 A 914.4 569.16116 106.02204 0 1 -705.62679 -688.60298 L -714.65395 -691.19524" />
    <path d="M -663.87262 -589.11249 A 914.4 569.16116 106.02204 0 1 -411.49173 -604.13865" />
    <path d="M -705.62679 -688.60298 A 914.4 569.16116 106.02204 0 1 -567.85044 -614.01561" />
    <path d="M -967.03484 -676.16907 L -1261.1699 -760.6334 A 914.4 569.16116 106.02204 0 1 -1008.78901 -775.65957 L -1017.81617 -778.25182" />
    <path d="M -967.03484 -676.16907 A 914.4 569.16116 106.02204 0 1 -714.65395 -691.19524" />
    <path d="M -1008.78901 -775.65957 A 914.4 569.16116 106.02204 0 1 -871.01266 -701.0722" />
    <path d="M -1048.83558 -245.64347 L -1265.08254 -307.74132 L -1324.25937 -285.5885" />
    <path d="M -1360.38724 -727.1317 A 914.4 569.16116 106.02204 0 1 -1357.39211 -721.48877" />
    <path d="M -1333.30004 -670.29464 A 914.4 569.16116 106.02204 0 1 -1273.90554 -440.83088" />
    <path d="M -1267.17977 -368.52019 A 914.4 569.16116 106.02204 0 1 -1265.08254 -307.74132" />
    <path d="M -745.67336 -158.58688 L -961.92032 -220.68473 L -1001.45571 -205.88468" />
    <path d="M -1057.22502 -640.07512 A 914.4 569.16116 106.02204 0 1 -1054.22989 -634.43218" />
    <path d="M -1030.13782 -583.23805 A 914.4 569.16116 106.02204 0 1 -970.74332 -353.77429" />
    <path d="M -964.01755 -281.46361 A 914.4 569.16116 106.02204 0 1 -961.92032 -220.68473" />
    <path d="M 469.39645 190.33466 L 250.72856 127.54161 L 211.19317 142.34166" />
    <path d="M 157.5326 -287.89031 A 914.4 569.16116 106.02204 0 1 250.72856 127.54161" />
    <path d="M 201.60186 113.4343 L -16.93198 50.67975" />
    <path d="M -147.73836 -378.90536 A 914.4 569.16116 106.02204 0 1 -144.74323 -373.26242" />
    <path d="M -450.90058 -465.96195 A 914.4 569.16116 106.02204 0 1 -447.90545 -460.31901" />
    <path d="M -423.81338 -409.12488 A 914.4 569.16116 106.02204 0 1 -364.41888 -179.66112" />
    <path d="M -442.51114 -71.5303 L -658.7581 -133.62815 L -698.29349 -118.82809" />
    <path d="M -754.0628 -553.01853 A 914.4 569.16116 106.02204 0 1 -751.06767 -547.3756" />
    <path d="M -726.9756 -496.18146 A 914.4 569.16116 106.02204 0 1 -667.5811 -266.7177" />
    <path d="M -660.85533 -194.40702 A 914.4 569.16116 106.02204 0 1 -658.7581 -133.62815" />
    <path d="M -1265.30298 -270.35158 A 914.4 569.16116 106.02204 0 1 -1266.9145 -227.45803" />
    <path d="M -1269.09345 -194.74905 A 914.4 569.16116 106.02204 0 1 -1282.55989 -82.99593" />
    <path d="M -962.14076 -183.29499 A 914.4 569.16116 106.02204 0 1 -963.75228 -140.40144" />
    <path d="M -965.93123 -107.69246 A 914.4 569.16116 106.02204 0 1 -979.39767 4.06065" />
    <path d="M 250.50812 164.93135 A 914.4 569.16116 106.02204 0 1 89.8304 786.87151" />
    <path d="M -658.97854 -96.23841 A 914.4 569.16116 106.02204 0 1 -660.59006 -53.34486" />
    <path d="M -662.76901 -20.63588 A 914.4 569.16116 106.02204 0 1 -676.23545 91.11724" />
    <path d="M -2269.13679 823.90416 L -2269.13679 723.34175" />
    <path d="M -2278.16396 821.31191 L -2285.83704 819.10849 L -2278.16396 816.23607" />
    <path d="M -2285.83704 819.10849 L -2285.83704 830.44516" />
    <path d="M -2278.16396 832.64858 L -2285.83704 830.44516" />
    <path d="M -2278.16396 1021.58842 L -2278.16396 832.64858" />
    <path d="M -2278.16396 1021.58842 L -2269.13679 1024.18067 L -2269.13679 835.24084" />
    <path d="M -1975.00173 919.70517 L -2269.13679 835.24084" />
    <path d="M -1975.00173 1108.645 L -1975.00173 919.70517" />
    <path d="M -1975.00173 1108.645 L -1965.97457 1111.23726 L -1965.97457 922.29742" />
    <path d="M -1867.59494 950.54829 L -1965.97457 922.29742" />
    <path d="M -1368.67729 1093.81834 L -1462.95191 1066.74628" />
    <path d="M -1368.67729 1282.75817 L -1368.67729 1093.81834" />
    <path d="M -1368.67729 1282.75817 L -1359.65013 1285.35043 L -1359.65013 1096.41059" />
    <path d="M -1065.51507 1180.87492 L -1359.65013 1096.41059" />
    <path d="M -1065.51507 1369.81476 L -1065.51507 1180.87492" />
    <path d="M -1065.51507 1369.81476 L -1056.48791 1372.40701 L -1056.48791 1183.46718" />
    <path d="M -762.35285 1267.93151 L -1056.48791 1183.46718" />
    <path d="M -762.35285 1456.87134 L -762.35285 1267.93151" />
    <path d="M -762.35285 1456.87134 L -753.32569 1459.4636 L -753.32569 1270.52377" />
    <path d="M -459.19063 1354.9881 L -753.32569 1270.52377" />
    <path d="M -459.19063 1543.92793 L -459.19063 1354.9881" />
    <path d="M -459.19063 1543.92793 L -451.51755 1546.13135 L -451.51755 1245.29242" />
    <path d="M -459.19063 1343.65142 L -459.19063 1243.08901" />
    <path d="M -459.19063 1343.65142 L -753.32569 1259.18709 L -753.32569 1158.62468" />
    <path d="M -762.35285 1256.59484 L -762.35285 1156.03242" />
    <path d="M -762.35285 1256.59484 L -1056.48791 1172.13051 L -1056.48791 1071.56809" />
    <path d="M -1065.51507 1169.53825 L -1065.51507 1068.97584" />
    <path d="M -1065.51507 1169.53825 L -1359.65013 1085.07392 L -1359.65013 984.51151" />
    <path d="M -1368.67729 1082.48167 L -1368.67729 981.91925" />
    <path d="M -1368.67729 1082.48167 L -1468.16374 1053.91297" />
    <path d="M -1662.81235 934.78296 L -1662.81235 897.45492" />
    <path d="M -1671.83951 932.1907 L -1671.83951 894.86266" />
    <path d="M -1856.11765 942.50745 L -1965.97457 910.96075 L -1965.97457 810.39833" />
    <path d="M -1975.00173 908.36849 L -1975.00173 807.80608" />
    <path d="M -1975.00173 908.36849 L -2269.13679 823.90416" />
    <path d="M -16.93198 939.26916 L 1.40031 944.53349" />
    <path d="M 49.95921 958.47775 L 304.82608 1031.66576" />
    <path d="M 49.95921 995.96511 L 49.95921 1158.75426 L 26.7442 1167.44479 L 178.07359 1210.9008" />
    <path d="M -1839.05878 -814.57263 A 762 474.30097 106.02204 0 1 -1710.9302 -827.79422" />
    <path d="M -1581.76846 -784.09204 A 762 474.30097 106.02204 0 1 -1513.08947 -727.7663" />
    <path d="M -1484.65391 -719.6007 L -1513.08947 -727.7663" />
    <path d="M -1484.65391 -719.6007 A 762 474.30097 106.02204 0 1 -1479.09785 -713.61479 L -1507.53342 -721.78039 A 762 474.30097 106.02204 0 1 -1455.95783 -651.59728" />
    <path d="M -1430.4918 -603.18577 A 762 474.30097 106.02204 0 1 -1366.11114 -310.07191" />
    <path d="M -1337.01 -262.00486 L -1338.36008 -262.39255" />
    <path d="M -1337.01 -262.00486 A 762 474.30097 106.02204 0 1 -1337.10495 -250.63264 L -1344.07675 -252.63468" />
    <path d="M -1367.29262 -210.68987 A 762 474.30097 106.02204 0 1 -1387.83919 -52.14297" />
    <path d="M -2094.63284 641.81631 A 762 474.30097 106.02204 0 1 -2189.75313 587.43837" />
    <path d="M -2183.32466 575.81427 A 762 474.30097 106.02204 0 1 -2189.03794 570.11266 L -2217.4735 561.94705" />
    <path d="M -2347.14949 306.9744 A 762 474.30097 106.02204 0 1 -2365.16224 196.03564" />
    <path d="M -2368.04903 157.75362 A 762 474.30097 106.02204 0 1 -2368.589 146.83962" />
    <path d="M -2340.79306 136.43422 A 762 474.30097 106.02204 0 1 -2341.0126 125.17973 L -2369.44817 117.01413" />
    <path d="M -2204.48768 -433.87333 L -2232.92325 -442.03893" />
    <path d="M -2204.48768 -433.87333 A 762 474.30097 106.02204 0 1 -2199.0197 -444.11237" />
    <path d="M -2219.82187 -466.15269 A 762 474.30097 106.02204 0 1 -2219.04484 -467.53873" />
    <path d="M -2202.42253 -496.10013 A 762 474.30097 106.02204 0 1 -1875.40069 -802.03436" />
    <path d="M -1846.96513 -793.86876 L -1875.40069 -802.03436" />
    <path d="M -1846.96513 -793.86876 A 762 474.30097 106.02204 0 1 -1839.05878 -796.91777" />
    <path d="M -2097.94363 759.81808 L -2269.13679 823.90416" />
    <path d="M 37.34259 783.54385 L -16.93198 767.95827" />
    <path d="M 1.40031 970.68418 L 1.40031 844.25252 L 10.42747 846.84477" />
    <path d="M 37.34259 783.54385 A 854.4 531.81463 106.02204 0 1 1.40031 844.25252" />
    <path d="M 303.04208 859.84257 L 267.36335 822.04023 L 267.36335 806.00775 L 304.82608 816.76561" />
    <path d="M 303.04208 859.84257 L 46.36975 786.1361" />
    <path d="M 267.36335 822.04023 L 304.82608 832.79809 L 304.82608 1057.64211" />
    <path d="M 328.55234 1254.11253 L 328.55234 1254.11726" />
    <path d="M -428.30253 1537.44554 L 328.55234 1254.11726" />
    <path d="M -428.30253 1537.44082 L -451.51755 1546.13135" />
    <path d="M -263.40419 429.16286 A 57.5 35.79043 106.02204 0 1 -231.66337 318.62996" />
    <path d="M -16.93198 -151.72536 L -16.83447 -156.21084 A 75 46.68317 106.02204 0 1 32.48269 -241.07793 L 263.08449 -327.40361 A 75 46.68317 106.02204 0 1 283.78503 -328.63607 A 75 46.68317 106.02204 0 1 312.10952 -283.78229 L 312.49916 -275.04776 L 312.49916 -140.90913 A 500 311.22111 106.02204 0 1 312.49916 677.2448 L 312.49916 1094.80027 L 312.40166 1099.28575 A 75 46.68317 106.02204 0 1 263.08449 1184.15284 L 32.48269 1270.47852 A 75 46.68317 106.02204 0 1 11.78216 1271.71098 A 75 46.68317 106.02204 0 1 -16.54233 1226.85719 L -16.93198 1218.12267 L -16.93198 -151.72536 Z" />
    <path d="M -713.79395 1157.29289 L -713.79395 1244.3884 L -459.19063 1317.50073" />
    <path d="M -713.79395 1244.3884 L -753.32569 1259.18709" />
    <path d="M -1016.95617 1070.2363 L -1016.95617 1157.33182 L -762.35285 1230.44415" />
    <path d="M -1016.95617 1157.33182 L -1056.48791 1172.13051" />
    <path d="M -1320.11839 983.17972 L -1320.11839 1070.27523 L -1065.51507 1143.38756" />
    <path d="M -1320.11839 1070.27523 L -1359.65013 1085.07392" />
    <path d="M -1623.28061 896.12313 L -1623.28061 946.13496" />
    <path d="M -1926.44283 809.06655 L -1926.44283 896.16206 L -1816.58592 927.70876" />
    <path d="M -1926.44283 896.16206 L -1965.97457 910.96075" />
    <path d="M -2229.46043 659.23787 L -2183.32466 575.81427" />
    <path d="M -541.94763 1143.82695 L -749.73623 1084.15802" />
    <path d="M -845.10985 1056.77036 L -1052.89845 997.10143" />
    <path d="M -1148.27207 969.71378 L -1356.06067 910.04485" />
    <path d="M -1451.43429 882.65719 L -1659.22289 822.98826" />
    <path d="M -1754.59651 795.60061 L -1962.38511 735.93168" />
    <path d="M -2057.75873 708.54402 L -2237.11177 657.04069 L -2189.03794 570.11266" />
    <path d="M -2384.85318 152.92811 L -2340.79306 136.43422" />
    <path d="M -2175.55064 213.03179 L -2401.99072 148.00686 L -2341.0126 125.17973" />
    <path d="M -2014.87292 -408.90837 L -2242.66314 -474.321 L -2204.48768 -433.87333" />
    <path d="M -1872.38842 300.08837 L -2127.26406 226.89784" />
    <path d="M -1711.7107 -321.85178 L -1967.93648 -395.43002" />
    <path d="M -659.73954 648.31471 L -914.61518 575.12419" />
    <path d="M -499.06182 26.37456 L -755.2876 -47.20368" />
    <path d="M -962.90176 561.25813 L -1217.7774 488.0676" />
    <path d="M -802.22404 -60.68202 L -1058.44982 -134.26026" />
    <path d="M -1266.06398 474.20154 L -1520.93962 401.01102" />
    <path d="M -1105.38626 -147.73861 L -1361.61204 -221.31685" />
    <path d="M -1569.2262 387.14496 L -1824.10184 313.95443" />
    <path d="M -1408.54848 -234.7952 L -1664.77426 -308.37343" />
    <path d="M -2221.90532 -468.36015 L -2199.0197 -444.11237" />
    <path d="M -1655.02155 -811.7394 L -1846.96513 -866.85825 L -1846.96513 -793.86876" />
    <path d="M -1351.85933 -724.68282 L -1572.23847 -787.96727" />
    <path d="M -1951.89726 -424.15886 A 854.4 531.81463 106.02204 0 1 -1572.23847 -787.96727" />
    <path d="M -139.21045 -376.45647 L -359.58959 -439.74093" />
    <path d="M -739.24838 -75.93252 A 854.4 531.81463 106.02204 0 1 -359.58959 -439.74093" />
    <path d="M -442.37267 -463.51306 L -662.75181 -526.79751" />
    <path d="M -1042.4106 -162.9891 A 854.4 531.81463 106.02204 0 1 -662.75181 -526.79751" />
    <path d="M -745.53489 -550.56964 L -965.91403 -613.8541" />
    <path d="M -1345.57282 -250.04569 A 854.4 531.81463 106.02204 0 1 -965.91403 -613.8541" />
    <path d="M -1048.69711 -637.62623 L -1269.07625 -700.91068" />
    <path d="M -1648.73504 -337.10228 A 854.4 531.81463 106.02204 0 1 -1269.07625 -700.91068" />
    <path d="M -1839.05878 -864.58785 L -1839.05878 -796.91777" />
    <path d="M -1333.03443 -806.31093 A 854.4 531.81463 106.02204 0 1 -1252.20275 -769.57642" />
    <path d="M -1464.02967 -756.89384 L -1484.65391 -719.6007" />
    <path d="M -1492.46524 -765.05945 L -1513.08947 -727.7663" />
    <path d="M -1029.87221 -719.25434 A 854.4 531.81463 106.02204 0 1 -949.04053 -682.51983" />
    <path d="M -1455.71597 -816.49959 A 854.4 531.81463 106.02204 0 1 -1328.51166 -805.04682 A 854.4 531.81463 106.02204 0 1 -1249.1068 -770.59131" />
    <path d="M 304.82608 -277.25118 L 304.82608 -222.42945" />
    <path d="M 304.43643 -285.9857 L 304.82608 -277.25118 L 312.49916 -275.04776" />
    <path d="M 279.87267 -329.47379 A 75 46.68317 106.02204 0 1 304.43643 -285.9857 L 312.10952 -283.78229" />
    <path d="M 297.41219 -287.52221 L 267.36335 -233.18731 L 304.82608 -222.42945" />
    <path d="M 297.41219 -287.52221 L 217.6978 -310.41313" />
    <path d="M -243.06709 -468.27324 A 854.4 531.81463 106.02204 0 1 -115.86278 -456.82047 A 854.4 531.81463 106.02204 0 1 -36.45792 -422.36497" />
    <path d="M -120.38555 -458.08459 A 854.4 531.81463 106.02204 0 1 -39.55387 -421.35007" />
    <path d="M -546.22931 -555.32983 A 854.4 531.81463 106.02204 0 1 -419.025 -543.87706 A 854.4 531.81463 106.02204 0 1 -339.62014 -509.42156" />
    <path d="M -423.54777 -545.14117 A 854.4 531.81463 106.02204 0 1 -342.71609 -508.40666" />
    <path d="M -849.39153 -642.38641 A 854.4 531.81463 106.02204 0 1 -722.18722 -630.93365 A 854.4 531.81463 106.02204 0 1 -642.78236 -596.47814" />
    <path d="M -726.70999 -632.19776 A 854.4 531.81463 106.02204 0 1 -645.87831 -595.46324" />
    <path d="M -1152.55375 -729.443 A 854.4 531.81463 106.02204 0 1 -1025.34944 -717.99023 A 854.4 531.81463 106.02204 0 1 -945.94458 -683.53473" />
    <path d="M -1456.37833 -754.69667 L -1479.09785 -713.61479" />
    <path d="M -1140.00811 -663.84725 A 854.4 531.81463 106.02204 0 1 -1101.81344 -603.82054" />
    <path d="M -1077.36769 -553.85808 A 854.4 531.81463 106.02204 0 1 -1014.81035 -296.04936" />
    <path d="M -1010.5671 -215.09364 A 854.4 531.81463 106.02204 0 1 -1010.48287 -208.47694 L -1014.14913 -209.52975" />
    <path d="M -1062.67522 -223.46458 L -1276.18236 -284.77566 A 854.4 531.81463 106.02204 0 1 -1276.12684 -273.45977 L -1337.10495 -250.63264" />
    <path d="M -1276.18236 -284.77566 L -1337.01 -262.00486" />
    <path d="M -836.84589 -576.79067 A 854.4 531.81463 106.02204 0 1 -798.65122 -516.76396" />
    <path d="M -774.20547 -466.80149 A 854.4 531.81463 106.02204 0 1 -711.64813 -208.99277" />
    <path d="M -707.40488 -128.03705 A 854.4 531.81463 106.02204 0 1 -707.32065 -121.42035 L -710.98691 -122.47316" />
    <path d="M -759.513 -136.408 L -1001.45571 -205.88468" />
    <path d="M -1130.98094 -661.255 A 854.4 531.81463 106.02204 0 1 -1096.34682 -607.6278" />
    <path d="M -1071.30243 -557.96543 A 854.4 531.81463 106.02204 0 1 -1007.07461 -306.76309" />
    <path d="M -1001.89659 -228.27341 A 854.4 531.81463 106.02204 0 1 -1001.45571 -205.88468" />
    <path d="M 295.39074 -283.86698 L 211.29473 -308.01614" />
    <path d="M 267.36335 -217.15483 L 304.82608 -206.39697 L 304.82608 -143.11255 L 312.49916 -140.90913" />
    <path d="M 304.82608 -143.11255 A 500 311.22111 106.02204 0 1 468.58887 240.55935 L 431.12615 229.80149 A 500 311.22111 106.02204 0 1 430.42763 241.39966" />
    <path d="M 467.86551 216.04813 L 431.12615 229.80149" />
    <path d="M 467.86551 216.04813 L 211.19317 142.34166" />
    <path d="M 110.08582 -270.12863 A 854.4 531.81463 106.02204 0 1 211.19317 142.34166" />
    <path d="M 103.93469 -267.82596 A 854.4 531.81463 106.02204 0 1 202.16601 139.74941 L -16.93198 76.83285" />
    <path d="M -221.49428 -400.08524 A 854.4 531.81463 106.02204 0 1 -186.86016 -346.45804" />
    <path d="M -230.52145 -402.6775 A 854.4 531.81463 106.02204 0 1 -192.32678 -342.65079" />
    <path d="M -524.6565 -487.14183 A 854.4 531.81463 106.02204 0 1 -490.02238 -433.51463" />
    <path d="M -464.97799 -383.85226 A 854.4 531.81463 106.02204 0 1 -400.75017 -132.64992" />
    <path d="M -533.68367 -489.73408 A 854.4 531.81463 106.02204 0 1 -495.489 -429.70737" />
    <path d="M -471.04325 -379.74491 A 854.4 531.81463 106.02204 0 1 -408.48591 -121.93618" />
    <path d="M -456.35078 -49.35141 L -698.29349 -118.82809" />
    <path d="M -827.81872 -574.19841 A 854.4 531.81463 106.02204 0 1 -793.1846 -520.57121" />
    <path d="M -768.14021 -470.90885 A 854.4 531.81463 106.02204 0 1 -703.91239 -219.70651" />
    <path d="M -698.73437 -141.21683 A 854.4 531.81463 106.02204 0 1 -698.29349 -118.82809" />
    <path d="M -1010.42734 -197.16105 L -1020.20008 -199.9674" />
    <path d="M -1068.48666 -213.83346 L -1276.12684 -273.45977" />
    <path d="M -1010.42734 -197.16105 A 854.4 531.81463 106.02204 0 1 -1011.22045 -154.03249" />
    <path d="M -1012.86767 -121.17081 A 854.4 531.81463 106.02204 0 1 -1025.02933 -9.04301" />
    <path d="M -707.26512 -110.10446 L -717.03786 -112.91082" />
    <path d="M -765.32444 -126.77688 L -1001.40018 -194.56879 A 854.4 531.81463 106.02204 0 1 -1002.19329 -151.44023" />
    <path d="M -707.26512 -110.10446 A 854.4 531.81463 106.02204 0 1 -708.05823 -66.9759" />
    <path d="M -709.70545 -34.11423 A 854.4 531.81463 106.02204 0 1 -721.86711 78.01357" />
    <path d="M -1003.8405 -118.57856 A 854.4 531.81463 106.02204 0 1 -1016.00217 -6.45076" />
    <path d="M 467.89035 252.15752 L 430.42763 241.39966" />
    <path d="M 450.78349 222.44277 L 211.2487 153.65755 A 854.4 531.81463 106.02204 0 1 51.92112 775.98541" />
    <path d="M 304.82608 675.04138 L 304.82608 816.76561" />
    <path d="M 467.89035 252.15752 A 500 311.22111 106.02204 0 1 304.82608 675.04138 L 312.49916 677.2448" />
    <path d="M 287.83564 843.73103 L 51.92112 775.98541" />
    <path d="M 202.22154 151.06529 L -16.93198 88.13279" />
    <path d="M 202.22154 151.06529 A 854.4 531.81463 106.02204 0 1 42.89396 773.39316 L -16.93198 756.21344" />
    <path d="M -462.16222 -39.72029 L -698.23796 -107.51221 A 854.4 531.81463 106.02204 0 1 -699.03107 -64.38364" />
    <path d="M -700.67828 -31.52197 A 854.4 531.81463 106.02204 0 1 -712.83995 80.60583" />
    <path d="M -2278.16396 1014.14386 L -2293.39405 1019.84524 L -2293.39405 1097.8321 L -1991.51901 1184.51906" />
    <path d="M -2293.39405 1019.84524 L -1955.66593 1116.82783" />
    <path d="M -1374.88092 1283.60705 L -451.90548 1548.65027 L -451.90548 1626.63714 L -424.71424 1616.4581 L -424.71424 1538.47124 L -451.90548 1548.65027" />
    <path d="M -428.30253 1537.44082 L -424.71424 1538.47124" />
    <path d="M -730.11068 1450.77307 L -459.19063 1528.57094" />
    <path d="M -730.11068 1450.77307 L -753.32569 1459.4636" />
    <path d="M -1033.2729 1363.71648 L -762.35285 1441.51435" />
    <path d="M -1033.2729 1363.71648 L -1056.48791 1372.40701" />
    <path d="M -1336.43512 1276.6599 L -1065.51507 1354.45777" />
    <path d="M -1336.43512 1276.6599 L -1359.65013 1285.35043" />
    <path d="M -1383.15027 1263.2451 L -1368.67729 1267.40118" />
    <path d="M -1949.42307 1105.04121 L -1965.97457 1111.23726" />
    <path d="M -2245.92178 1015.49014 L -1975.00173 1093.28801" />
    <path d="M -2245.92178 1015.49014 L -2269.13679 1024.18067" />
    <path d="M -2015.70277 929.31248 L -2245.92178 1015.49486" />
    <path d="M -2082.20986 784.07527 L -2184.03196 822.19233" />
    <path d="M -1926.44283 1033.78836 L -1908.03339 1026.89679" />
    <path d="M -1926.44283 933.64943 L -1926.44283 1039.75993 L -1911.97849 1034.34521" />
    <path d="M -1409.37833 1103.42565 L -1442.95162 1115.9938" />
    <path d="M -1320.11839 1207.90153 L -1200.93096 1163.28376 L -1320.11839 1129.05769" />
    <path d="M -1320.11839 1107.7626 L -1320.11839 1213.8731 L -1191.90379 1165.87602 L -1200.93096 1163.28376" />
    <path d="M -1106.21611 1190.48224 L -1336.43512 1276.66462" />
    <path d="M -1016.95617 1294.95811 L -897.76874 1250.34035 L -1016.95617 1216.11428" />
    <path d="M -1016.95617 1194.81918 L -1016.95617 1300.92968 L -888.74157 1252.9326 L -897.76874 1250.34035" />
    <path d="M -855.95006 1297.34048 L -1033.2729 1363.72121" />
    <path d="M -16.93198 1121.14473 L 1.40031 1114.28205 L 10.42747 1116.8743 L 10.42747 984.61311" />
    <path d="M 1.40031 1114.28205 L 1.40031 982.02086 L -16.93198 976.75652" />
    <path d="M -713.79395 1281.87577 L -713.79395 1387.98627 L -710.76319 1386.8517 L -713.79395 1385.98138" />
    <path d="M -710.76319 1386.8517 L -710.76319 1396.29893 L -459.19063 1468.54094" />
    <path d="M -16.93198 1127.1163 L 10.42747 1116.8743" />
    <path d="M 26.7442 1167.44479 L 26.7442 1167.44951 L -16.93198 1183.79967" />
    <path d="M -639.35679 1416.80411 L -730.11068 1450.77779" />
    <path d="M 24.8096 1268.2751 A 75 46.68317 106.02204 0 1 8.02142 1270.34528" />
    <path d="M 255.4114 1181.94942 L 24.8096 1268.2751 L 32.48269 1270.47852" />
    <path d="M 304.72857 1097.08233 A 75 46.68317 106.02204 0 1 255.4114 1181.94942 L 263.08449 1184.15284" />
    <path d="M 304.82608 1092.59685 L 304.72857 1097.08233 L 312.40166 1099.28575" />
    <path d="M 304.82608 1068.97878 L 304.82608 1092.59685 L 312.49916 1094.80027" />
    <path d="M -1480.18606 1024.30993 L -1368.67729 1056.33098" />
    <path d="M -2083.00315 773.03556 L -2201.16949 817.27108 L -1975.00173 882.2178" />
    <path d="M 1.40031 970.68418 L -16.93198 965.41985" />
    <path d="M 260.44253 1044.89685 L 304.82608 1057.64211" />
    <path d="M 260.17898 1044.99551 L 260.44253 1044.89685" />
    <path d="M 260.17898 1044.99551 L 10.42747 973.27644" />
    <path d="M 359.33189 1244.96393 L 332.14064 1255.14296" />
    <path d="M 49.95921 1156.12393 L 205.26484 1200.72177" />
    <path d="M 351.76736 1242.79168 L 359.33189 1244.96393" />
    <path d="M 260.44253 1056.23353 L 304.82608 1068.97878" />
    <path d="M 260.17898 1056.33219 L 260.44253 1056.23353 L 260.44253 1044.89685" />
    <path d="M 260.17898 1056.33219 L 10.42747 984.61311" />
    <path d="M 260.17898 1044.99551 L 260.17898 1056.33219" />
    <path d="M -15.72486 1233.23617 L 60.18163 1255.0336" />
    <path d="M 332.12183 1311.3081 L 332.12183 1259.64861 L 321.74017 1256.66739" />
    <path d="M -96.47926 471.59505 A 57.5 35.79043 106.02204 0 1 -112.34966 472.53994 L -263.40419 429.16286" />
    <path d="M -112.34966 472.53994 A 57.5 35.79043 106.02204 0 1 -80.60885 362.00704 L -231.66337 318.62996" />
    <path d="M -80.60885 362.00704 A 57.5 35.79043 106.02204 0 1 -96.47926 471.59505" />
    <path d="M 267.36335 -217.15483 L 267.36335 -233.18731" />
    <path d="M -658.36224 609.88673 L -717.05133 631.85696" />
    <path d="M -773.66872 653.05166 L -855.95006 683.85364 L -658.20086 740.63964" />
    <path d="M -855.95006 1354.60682 L -762.35285 1381.48435" />
    <path d="M -855.95006 1354.60682 L -855.95006 1241.05398" />
    <path d="M -855.95006 1203.56661 L -855.95006 1116.4711" />
    <path d="M -855.95006 1053.65747 L -855.95006 1039.11566" />
    <path d="M -855.95006 911.9381 L -855.95006 683.85364" />
    <path d="M -1452.92518 1339.18259 L -451.90548 1626.63714" />
    <path d="M -2072.95489 912.87187 L -2074.51734 891.1281" />
    <path d="M -2077.26783 852.8509 L -2082.20986 784.07527 L -2083.00315 773.03556 L -2083.65814 763.92033" />
    <path d="M -1877.38498 969.03206 L -1926.44283 954.94452" />
    <path d="M -1975.00173 941.00026 L -2072.95489 912.87187" />
    <path d="M -1368.67729 1115.11343 L -1453.16186 1090.8527" />
    <path d="M -1065.51507 1202.17002 L -1191.90379 1165.87602" />
    <path d="M -869.33317 1258.50595 L -888.74157 1252.9326" />
    <path d="M -855.95006 1253.49599 L -869.33317 1258.50595 L -870.89562 1236.76218" />
    <path d="M -1295.49739 -86.71109 L -1412.1816 -43.0304 A 700 229.50913 180 0 0 -1440.11637 -45.96527" />
    <path d="M -1624.92853 336.91812 L -1624.92853 83.84745 L -1534.46663 109.82465" />
    <path d="M -1617.29808 50.75987 A 50 31.12211 286.02204 0 0 -1624.92853 83.84745" />
    <path d="M -2382.62017 320.25284 L -2265.93595 276.57215" />
    <path d="M -2382.62017 348.59452 L -2382.62017 320.25284 L -2167.12154 382.13579" />
    <path d="M -2088.26686 699.78326 L -2092.04634 647.18615" />
    <path d="M -2107.56898 431.16576 L -2107.83217 427.50311" />
    <path d="M 348.43402 1327.0304 L 359.33189 1322.95079 L 359.33189 1244.96393" />
    <path d="M -1202.15889 1315.21889 L -1065.51507 1264.06634" />
    <path d="M -1016.95617 1245.88834 L -971.94703 1229.03918" />
    <path d="M -1306.41224 1285.28132 L -1076.20037 1199.10161" />
    <path d="M -424.73304 1611.94165 L -386.12897 1597.49023" />
    <path d="M 590.68369 1660.98142 L -386.12897 1597.49023" />
    <path d="M 594.69443 1654.34818 L 590.68369 1660.98142 L 590.68369 1592.01665 L 594.69443 1585.38342 L 594.69443 1654.34818 Z" />
    <path d="M 614.22059 1652.17039 L 594.69443 1654.34818" />
    <path d="M -197.77569 1526.98027 L 262.13523 1354.81282" />
    <path d="M 486.93713 1571.48545 L 262.13523 1354.81282" />
    <path d="M 293.51776 1274.10002 L 332.12183 1259.64861" />
    <path d="M 614.22059 1583.20563 L 293.51776 1274.10002" />
    <path d="M 594.69443 1585.38342 L 614.22059 1583.20563 L 614.22059 1652.17039" />
    <path d="M 590.68369 1592.01665 L -386.12897 1528.52547 L -386.12897 1597.49023" />
    <path d="M -424.73304 1542.97689 L -386.12897 1528.52547" />
    <path d="M -354.74644 1516.77743 L 262.13523 1285.84806 L 262.13523 1354.81282" />
    <path d="M 563.66355 1576.47254 L -354.74644 1516.77743" />
    <path d="M 563.66355 1576.47254 L 262.13523 1285.84806" />
    <path d="M -893.19386 1403.94182 L -802.44711 1369.97082" />
    <path d="M -862.16298 1412.8527 L -771.41623 1378.8817" />
    <path d="M -2124.09552 1050.47398 L -1975.00173 994.66079" />
    <path d="M -1926.44283 976.48279 L -1893.88365 964.29427" />
    <path d="M -2228.34886 1020.53641 L -1998.13699 934.3567" />
    <path d="M -1489.389 122.76922 L -1231.30441 196.88124" />
    <path d="M -1186.22678 209.8258 L -928.14219 283.93782" />
    <path d="M -883.06456 296.88239 L -624.97997 370.99441" />
    <path d="M -849.5673 589.80066 L -849.5673 593.80345" />
    <path d="M -849.5673 631.25649 L -849.5673 681.46426" />
    <path d="M -873.64612 1198.48498 L -880.03642 1109.55442" />
    <path d="M -884.64514 1045.41734 L -889.85632 972.89613" />
    <path d="M -882.51042 554.89676 A 50 31.12211 106.02204 0 1 -868.71006 554.07512 L -914.11841 541.03558" />
    <path d="M -868.71006 554.07512 A 50 31.12211 106.02204 0 1 -849.5673 589.80066" />
    <path d="M -960.88933 661.63718 L -1178.99845 694.22861 L -1178.99845 665.88692 L -983.64207 592.75535" />
    <path d="M -914.58607 566.90427 L -882.51042 554.89676" />
    <path d="M -1591.98542 24.27907 L -1806.04769 104.41319" />
    <path d="M -1856.81664 123.41852 L -2086.13214 209.26267 L -1871.44753 270.91188" />
    <path d="M -1823.7333 284.61358 L -1568.28531 357.96846" />
    <path d="M -1520.57108 371.67016 L -1265.12309 445.02505" />
    <path d="M -1217.40886 458.72675 L -961.96087 532.08163" />
    <path d="M -914.24664 545.78333 L -882.51042 554.89676" />
    <path d="M -2113.78097 397.45316 L -1863.95932 469.19238" />
    <path d="M -1810.61875 484.50975 L -1560.7971 556.24896" />
    <path d="M -1507.45653 571.56633 L -1257.63488 643.30555" />
    <path d="M -1204.29431 658.62292 L -1178.99845 665.88692" />
    <path d="M -1488.38418 -50.06562 A 700 229.50913 180 0 0 -1770.02736 -51.48027" />
    <path d="M -1819.71583 -47.7744 A 700 229.50913 180 0 0 -2106.70389 3.04685" />
    <path d="M -2157.28046 19.49268 A 700 229.50913 180 0 0 -2337.02047 153.92095" />
    <path d="M -2330.13018 211.85464 A 700 229.50913 180 0 0 -2265.93595 276.57215" />
    <path d="M -1295.49739 -86.71109 L -1153.26459 -45.86727" />
    <path d="M -1107.63293 -32.7636 L -850.10237 41.18932" />
    <path d="M -804.47071 54.29298 L -546.94015 128.2459" />
    <path d="M -1591.98542 24.27907 L -1518.26867 45.4477" />
    <path d="M -1473.34021 58.34944 L -1215.10645 132.50429" />
    <path d="M -1170.17799 145.40602 L -911.94423 219.56087" />
    <path d="M -867.01577 232.46261 L -608.78201 306.61746" />
    <path d="M -1591.98542 24.27907 A 50 31.12211 286.02204 0 0 -1617.29808 50.75987 L -1808.98883 122.51921" />
    <path d="M -1859.4657 141.41521 L -2053.19304 213.93695" />
    <path d="M -2281.72453 282.4826 A 700 229.50913 0 0 1 -2325.86633 236.43839" />
    <path d="M -2072.33178 208.44103 A 50 31.12211 286.02204 0 0 -2086.13214 209.26267" />
    <path d="M -2382.62017 348.59452 L -2162.98761 411.66458" />
    <path d="M -2108.33691 427.35817 L -1859.82539 498.72117" />
    <path d="M -1805.17469 514.41476 L -1556.66317 585.77775" />
    <path d="M -1502.01247 601.47134 L -1253.50095 672.83434" />
    <path d="M -1198.85025 688.52793 L -1178.99845 694.22861" />
    <path d="M -1365.5885 1306.48815 L -1470.18289 1345.64301 L -1601.82901 1021.48541 L -1865.12126 945.87795 L -1996.76739 1194.4281 L -1470.18289 1345.64301" />
    <path d="M -1497.23463 982.33054 L -1601.82901 1021.48541" />
    <path d="M -1365.5885 1306.48815 L -1497.23463 982.33054 L -1760.52688 906.72309 L -1865.12126 945.87795" />
    <path d="M -1575.88 -776.87877 A 765 476.1683 106.02204 0 1 -1528.55368 -734.79702" />
    <path d="M -1519.90076 -725.33182 A 765 476.1683 106.02204 0 1 -1463.71461 -645.00498" />
    <path d="M -1439.554 -595.57391 A 765 476.1683 106.02204 0 1 -1380.7871 -285.34299" />
    <path d="M -1385.90238 -174.02786 A 765 476.1683 106.02204 0 1 -1405.60263 -45.49324" />
    <path d="M -1884.7964 -742.90408 A 690.9233 430.05983 286.02204 0 0 -2172.94033 -487.63397" />
    <path d="M -2190.52065 -459.34767 A 690.9233 430.05983 286.02204 0 0 -2199.277 -444.38498" />
    <path d="M -2205.11661 -434.05393 A 690.9233 430.05983 286.02204 0 0 -2335.832 167.00512" />
    <path d="M -2331.04798 205.83195 A 690.9233 430.05983 286.02204 0 0 -2312.35814 293.95028" />
    <path d="M -2281.95272 377.50236 A 690.9233 430.05983 286.02204 0 0 -2192.49246 506.05719 A 690.9233 430.05983 286.02204 0 0 -2130.32887 551.38754" />
    <path d="M -1432.41497 -186.70032 A 690.9233 430.05983 286.02204 0 0 -1429.77873 -240.89171" />
    <path d="M -1429.67261 -274.19593 A 690.9233 430.05983 286.02204 0 0 -1485.5009 -553.11086" />
    <path d="M -1510.41691 -601.65891 A 690.9233 430.05983 286.02204 0 0 -1661.44641 -742.54991" />
    <path d="M -1729.97721 -761.95198 A 690.9233 430.05983 286.02204 0 0 -1829.26912 -758.81661 A 690.9233 430.05983 286.02204 0 0 -1884.7964 -742.90408" />
    <path d="M 778.44566 -62.53688 L 484.96103 -146.81443" />
    <path d="M 304.82608 -198.5423 L 183.15288 -233.48218" />
    <path d="M 111.70649 -253.99885 L 86.40613 -261.26415" />
    <path d="M -193.68234 -341.69483 L -423.17156 -407.59535" />
    <path d="M -961.74632 527.35867 L -1217.28063 453.979" />
    <path d="M -1264.90854 440.30208 L -1520.44285 366.92241" />
    <path d="M -1568.07076 353.2455 L -1823.60507 279.86582" />
    <path d="M -1871.23298 266.18891 L -2072.33178 208.44103" />
</svg>