<svg version="1.1" xmlns="http://www.w3.org/2000/svg" viewBox="-2601.983379284768 -1011.0629004000901 4674.413706678964 2642.0722187431184" fill="none" stroke="black" stroke-width="0.6%" vector-effect="non-scaling-stroke">
    <path d="M 1108.97286 794.40562 L 1175.55988 763.30424" />
    <path d="M 1905.04425 798.15312 L 1175.55988 763.30424" />
    <path d="M 1582.22582 573.35922 L 1905.04425 798.15312" />
    <path d="M 1582.22582 573.35922 L 1648.81284 542.25784" />
    <path d="M 2024.48919 803.85923 L 1648.81284 542.25784" />
    <path d="M 2071.43033 806.1017 L 2024.48919 803.85923" />
    <path d="M 2061.63709 829.72709 L 2071.43033 806.1017 L 2071.43033 900.16307" />
    <path d="M 2068.56218 834.54936 L 2061.63709 829.72709" />
    <path d="M 2058.98084 836.13508 L 2068.56218 834.54936 L 2068.56218 928.61073" />
    <path d="M 2057.49549 839.71838 L 2058.98084 836.13508" />
    <path d="M 2041.84662 838.9708 L 2057.49549 839.71838 L 2057.49549 933.77975 L 2058.98084 930.19645 L 2068.56218 928.61073" />
    <path d="M 1978.67501 849.42574 L 2041.84662 838.9708 L 2041.84662 933.03217 L 2057.49549 933.77975" />
    <path d="M 1957.90217 834.96061 L 1978.67501 849.42574 L 1978.67501 943.4871 L 2041.84662 933.03217" />
    <path d="M 1108.97286 794.40562 L 1957.90217 834.96061" />
    <path d="M 1020.49166 536.19819 A 914.4 505.67559 103.86019 0 1 841.29106 -21.17957 L 411.27171 -127.28156" />
    <path d="M 1020.49166 536.19819 L 1020.49166 931.29965 L 1111.896 888.60663" />
    <path d="M 1361.17942 772.17164 L 1583.5194 668.32137" />
    <path d="M 1730.95498 599.45734 L 1737.29404 596.4965 L 1737.29404 201.39504" />
    <path d="M 1916.49464 -523.3843 A 914.4 505.67559 103.86019 0 1 1737.29404 201.39504" />
    <path d="M 1916.49464 -523.3843 L 1711.04121 -427.42137 L 1662.50644 -439.39673 L 1832.68416 -518.88313 L -42.69957 -981.61101 A 854.4 472.49478 103.86019 0 1 -114.68447 -533.44416" />
    <path d="M 1711.04121 -427.42137 A 565.15 312.53561 103.86019 0 1 1243.5092 262.16239 A 565.15 312.53561 103.86019 0 1 1046.74449 -117.1425 L 998.20971 -129.11786" />
    <path d="M 1046.74449 -117.1425 L 841.29106 -21.17957" />
    <path d="M 1108.97286 794.40562 L 1108.97286 888.46698 L 1957.90217 929.02198 L 1978.67501 943.4871" />
    <path d="M 1582.22582 573.35922 L 1582.22582 667.42059 L 1760.0167 791.22487" />
    <path d="M 2068.56218 907.08224 L 2071.43033 900.16307" />
    <path d="M 2058.98084 930.19645 L 2058.98084 836.13508" />
    <path d="M 1957.90217 929.02198 L 1957.90217 834.96061" />
    <path d="M 428.97951 390.24984 L 1020.49166 536.19819" />
    <path d="M 828.03199 -49.63146 L 403.50833 -154.37746" />
    <path d="M 828.03199 -49.63146 L 998.20971 -129.11786" />
    <path d="M 1662.50644 -439.39673 A 565.15 312.53561 103.86019 0 1 1219.67547 254.41715" />
    <path d="M -321.0249 -851.61116 L -42.69957 -981.61101" />
    <path d="M -321.0249 -851.61116 L -369.55968 -863.58652 L -369.55968 -596.33148" />
    <path d="M -55.95864 -1010.0629 L -369.55968 -863.58652" />
    <path d="M 1916.49464 -523.3843 L -55.95864 -1010.0629" />
    <path d="M 326.94761 760.17618 L 1020.49166 931.29965" />
    <path d="M -321.0249 -584.35613 L -321.0249 -851.61116" />
    <path d="M 1065.13611 34.97198 L 1319.97995 97.85157" />
    <path d="M 1379.97995 112.65583 L 1458.5545 132.04314" />
    <path d="M 1227.71731 -203.07816 A 854.4 472.49478 103.86019 0 1 1214.54297 -163.71037" />
    <path d="M 1227.71731 -203.07816 L 823.26085 -302.87282 L 566.10511 -182.76084 L 923.99804 -94.45516" />
    <path d="M 1050.49481 -52.2501 L 1214.54297 -163.71037" />
    <path d="M 1227.71731 -203.07816 L 1044.77324 -117.62888" />
    <path d="M 539.64833 -128.07583 L 539.64833 -120.78659" />
    <path d="M 566.10511 -182.76084 A 45 24.88561 283.86019 0 0 539.64833 -128.07583 L 838.24364 -54.40111" />
    <path d="M 1274.60223 141.66525 L 1146.21357 201.63286" />
    <path d="M 1414.73716 176.24182 L 1379.97995 167.6659" />
    <path d="M 1319.97995 152.86164 L 1274.60223 141.66525" />
    <path d="M 1374.24733 193.11052 A 30 10.18437 0 0 1 1319.97995 187.12284" />
    <path d="M 1379.97995 187.12284 A 30 10.18437 0 0 1 1374.24733 193.11052" />
    <path d="M 1374.24733 -89.07358 A 30 10.18437 0 0 1 1319.97995 -95.06126 L 1319.97995 187.12284" />
    <path d="M 1319.97995 -95.06126 A 30 10.18437 0 0 1 1379.97995 -95.06126 L 1379.97995 187.12284" />
    <path d="M 1379.97995 -95.06126 A 30 10.18437 0 0 1 1374.24733 -89.07358" />
    <path d="M -360.8483 1480.92783 L -294.26129 1449.82645" />
    <path d="M 435.22309 1484.67533 L -294.26129 1449.82645" />
    <path d="M 112.40466 1259.88143 L 435.22309 1484.67533" />
    <path d="M 112.40466 1259.88143 L 178.99167 1228.78005" />
    <path d="M 554.66802 1490.38145 L 178.99167 1228.78005" />
    <path d="M 601.60916 1492.62392 L 554.66802 1490.38145" />
    <path d="M 591.81593 1516.24931 L 601.60916 1492.62392 L 601.60916 1586.68528" />
    <path d="M 598.74101 1521.07158 L 591.81593 1516.24931" />
    <path d="M 589.15968 1522.65729 L 598.74101 1521.07158 L 598.74101 1615.13294" />
    <path d="M 587.67432 1526.24059 L 589.15968 1522.65729" />
    <path d="M 572.02545 1525.49302 L 587.67432 1526.24059 L 587.67432 1620.30196 L 589.15968 1616.71866 L 598.74101 1615.13294" />
    <path d="M 508.85385 1535.94795 L 572.02545 1525.49302 L 572.02545 1619.55438 L 587.67432 1620.30196" />
    <path d="M 488.08101 1521.48283 L 508.85385 1535.94795 L 508.85385 1630.00932 L 572.02545 1619.55438" />
    <path d="M -360.8483 1480.92783 L 488.08101 1521.48283" />
    <path d="M -449.32951 1222.72041 L -449.32951 1617.82187 L -357.92516 1575.12884" />
    <path d="M -108.64174 1458.69385 L 113.69823 1354.84358" />
    <path d="M 261.13382 1285.97955 L 267.47288 1283.01871 L 267.47288 887.91725" />
    <path d="M -449.32951 1222.72041 A 914.4 505.67559 103.86019 0 1 128.11939 -473.53529 L -1844.33388 -960.21389 A 914.4 505.67559 283.86019 0 0 -2421.78278 736.04181 L -2421.78278 1131.14327 L -2160.39395 1195.63775" />
    <path d="M 128.11939 -473.53529 A 914.4 505.67559 103.86019 0 1 267.47288 887.91725" />
    <path d="M -360.8483 1480.92783 L -360.8483 1574.9892 L 488.08101 1615.54419 L 508.85385 1630.00932" />
    <path d="M 112.40466 1259.88143 L 112.40466 1353.9428 L 290.19554 1477.74708" />
    <path d="M -90.92831 -131.59783 A 565.15 312.53561 103.86019 0 1 44.45534 -148.70464 A 565.15 312.53561 103.86019 0 1 -226.31197 948.6846 A 565.15 312.53561 103.86019 0 1 -90.92831 -131.59783 Z" />
    <path d="M 598.74101 1593.60446 L 601.60916 1586.68528" />
    <path d="M 589.15968 1616.71866 L 589.15968 1522.65729" />
    <path d="M 488.08101 1615.54419 L 488.08101 1521.48283" />
    <path d="M -2421.78278 736.04181 L -449.32951 1222.72041" />
    <path d="M -1528.99134 1351.42858 L -449.32951 1617.82187" />
    <path d="M -1536.67026 968.85919 L -1395.1105 1288.89568" />
    <path d="M -1819.78978 899.00293 L -1536.67026 968.85919" />
    <path d="M 19.75429 -152.93476 A 565.15 312.53561 103.86019 0 1 -250.1457 940.93937" />
    <path d="M -2196.16817 1258.86195 L -2054.60841 1008.68172 L -1771.48889 1078.53798 L -1629.92913 1398.57447 L -2196.16817 1258.86195 Z" />
    <path d="M -2054.60841 1008.68172 L -1819.78978 899.00293" />
    <path d="M -1771.48889 1078.53798 L -1536.67026 968.85919" />
    <path d="M -1629.92913 1398.57447 L -1395.1105 1288.89568" />
    <path d="M -404.68505 721.4942 L -149.84122 784.37378" />
    <path d="M -89.84122 799.17804 L -11.26667 818.56535" />
    <path d="M -242.10386 483.44405 L -415.84796 440.57483" />
    <path d="M -242.10386 483.44405 A 854.4 472.49478 103.86019 0 1 -255.27819 522.81185" />
    <path d="M -419.32635 634.27211 L -255.27819 522.81185" />
    <path d="M -242.10386 483.44405 L -423.0991 567.98308" />
    <path d="M -195.21893 828.18746 L -323.6076 888.15508" />
    <path d="M -55.084 862.76403 L -89.84122 854.18811" />
    <path d="M -149.84122 839.38385 L -195.21893 828.18746" />
    <path d="M -95.57383 879.63274 A 30 10.18437 0 0 1 -149.84122 873.64506" />
    <path d="M -89.84122 873.64506 A 30 10.18437 0 0 1 -95.57383 879.63274" />
    <path d="M -95.57383 597.44864 A 30 10.18437 0 0 1 -149.84122 591.46096 L -149.84122 873.64506" />
    <path d="M -149.84122 591.46096 A 30 10.18437 0 0 1 -89.84122 591.46096 L -89.84122 873.64506" />
    <path d="M -89.84122 591.46096 A 30 10.18437 0 0 1 -95.57383 597.44864" />
</svg>