<svg version="1.1" xmlns="http://www.w3.org/2000/svg" viewBox="-1481.1292474702468 -1503.1769612411797 2828.9883180674306 3158.6155173831953" fill="none" stroke="black" stroke-width="0.6%" vector-effect="non-scaling-stroke">
    <path d="M 972.43002 1214.64496 L 976.35751 1218.18214 L 1013.65575 1210.64713 L 1013.65575 1137.87392" />
    <path d="M 976.35751 1145.40893 L 976.35751 1218.18214" />
    <path d="M 976.34681 1213.85369 L 976.34681 1147.82779 L 974.15508 1145.85387" />
    <path d="M -80.94548 1354.86438 L -95.70624 1357.84636 L -95.70624 1341.57052 L -93.3392 1343.70233" />
    <path d="M -22.9637 1343.15539 L 966.69899 1143.22305" />
    <path d="M -346.34149 241.3502 L -358.14304 243.73435" />
    <path d="M -883.65701 349.89904 L -903.20326 353.84779" />
    <path d="M -967.70183 366.87784 L -1075.7019 388.69608" />
    <path d="M -1139.43 417.84631 L -1139.43 401.57048 L -1141.79704 399.43867 L -1141.79704 390.63371 L -1146.0774 386.77872 L -1146.0774 395.58368 L -1157.94685 384.8938 L -1157.94685 102.86772" />
    <path d="M -61.83117 1423.58712 L -8.87796 1412.88947" />
    <path d="M 810.25676 1654.43856 L -8.87796 1412.88947" />
    <path d="M 821.98542 1647.20192 L 810.25676 1654.43856 L 810.25676 1588.41265 L 821.98542 1581.17602 L 842.54233 1581.8903 L 923.3936 1158.52543 L 976.34681 1147.82779" />
    <path d="M 842.54233 1647.9162 L 821.98542 1647.20192" />
    <path d="M 842.54233 1647.9162 L 923.3936 1224.55133 L 923.3936 1158.52543" />
    <path d="M 923.3936 1224.55133 L 976.34681 1213.85369" />
    <path d="M 167.04405 1377.34959 L 867.23102 1235.89734" />
    <path d="M 810.25676 1588.41265 L -8.87796 1346.86357 L -8.87796 1412.88947" />
    <path d="M -61.83117 1357.56122 L -8.87796 1346.86357" />
    <path d="M 34.16947 1338.1671 L 880.34617 1167.2219" />
    <path d="M 804.32893 1565.2742 L 34.16947 1338.1671" />
    <path d="M 804.32893 1565.2742 L 880.34617 1167.2219" />
    <path d="M 1024.67667 847.62396 L 1024.67667 1135.64746 L 970.45098 1146.60217 L 970.45098 833.81182" />
    <path d="M 918.93247 1040.41196 L 834.43165 964.30871 L 780.20596 975.26342 L 780.20596 662.47306" />
    <path d="M 834.43165 676.28521 L 834.43165 964.30871" />
    <path d="M 769.93309 906.21992 L 661.93301 808.95273 L 607.70732 819.90744 L 607.70732 507.11708" />
    <path d="M 661.93301 520.92923 L 661.93301 808.95273" />
    <path d="M 597.43445 750.86394 L 550.50399 708.59735" />
    <path d="M -1139.43 415.59973 L -1146.92165 417.1132 L -1146.92165 491.77674 L -1051.17119 578.01166" />
    <path d="M -1146.92165 417.1132 L -1030.77087 521.72109" />
    <path d="M -656.14894 859.11365 L -99.11871 1360.78705 L -99.11871 1435.45059 L -61.82047 1427.91557 L -61.82047 1355.14236" />
    <path d="M -78.90375 1356.70321 L -99.11871 1360.78705" />
    <path d="M -95.70624 1357.84636 L -657.79216 851.61971" />
    <path d="M -1029.12765 517.18698 L -1139.43 417.84631" />
    <path d="M -1129.92759 410.12855 L -1129.92759 128.10246" />
    <path d="M -1024.6806 504.91625 L -1129.92759 410.12855" />
    <path d="M -967.70183 460.24774 L -967.70183 274.20647" />
    <path d="M -957.42895 458.1724 L -957.42895 283.45844" />
    <path d="M -795.20319 505.93564 L -795.20319 429.56245" />
    <path d="M -784.93032 515.18761 L -784.93032 438.81442" />
    <path d="M -622.70456 866.94452 L -662.23921 831.33876" />
    <path d="M -622.70456 866.94452 L -622.70456 584.91843" />
    <path d="M -612.43168 876.19649 L -612.43168 594.1704" />
    <path d="M -450.20592 1022.3005 L -612.43168 876.19649" />
    <path d="M -450.20592 1022.3005 L -450.20592 740.27441" />
    <path d="M -439.93305 1031.55246 L -439.93305 749.52638" />
    <path d="M -277.70729 1177.65647 L -439.93305 1031.55246" />
    <path d="M -277.70729 1177.65647 L -277.70729 895.63039" />
    <path d="M -267.43441 1186.90844 L -267.43441 904.88236" />
    <path d="M -105.20865 1333.01245 L -267.43441 1186.90844" />
    <path d="M -105.20865 1333.01245 L -105.20865 1050.98637" />
    <path d="M -77.18939 1358.2472 L -77.18939 1076.22111" />
    <path d="M -77.18939 1358.2472 L -89.05884 1347.55732 L -89.05884 1338.75236 L -93.3392 1334.89737 L -93.3392 1343.70233" />
    <path d="M -89.05884 1342.83761 L -93.3392 1343.70233" />
    <path d="M -213.20872 1175.95373 L -267.43441 1186.90844" />
    <path d="M -385.70736 1020.59775 L -439.93305 1031.55246" />
    <path d="M -558.20599 865.24177 L -612.43168 876.19649" />
    <path d="M -1075.7019 399.17384 L -1129.92759 410.12855" />
    <path d="M 597.43445 810.65547 L 607.70732 819.90744" />
    <path d="M 769.93309 966.01145 L 780.20596 975.26342" />
    <path d="M -346.08836 240.44951 L -358.91351 243.04046" />
    <path d="M -884.42747 349.20515 L -903.20326 352.99824" />
    <path d="M -967.70183 366.02829 L -1075.7019 387.84654" />
    <path d="M 821.98542 1581.17602 L 821.98542 1647.20192" />
    <path d="M 842.54233 1581.8903 L 842.54233 1647.9162" />
    <path d="M -669.3297 921.90631 L -99.11871 1435.45059" />
    <path d="M 889.80279 1052.88042 A 75 61.30651 312.00688 0 0 952.70459 997.61204 A 75 61.30651 312.00688 0 0 957.45115 975.63861 L 960.17811 978.09457" />
    <path d="M 889.80279 1052.88042 L 428.88441 1145.99547 L 436.35792 1152.72628 L 897.2763 1059.61123" />
    <path d="M 382.59882 1137.06807 A 75 61.30651 312.00688 0 0 428.88441 1145.99547" />
    <path d="M 942.43172 1017.16215 L 942.43172 808.57707 A 854.4 698.40375 312.00688 0 0 957.5849 792.43608" />
    <path d="M 942.43172 808.57707 L 952.70459 817.82904" />
    <path d="M 952.70459 997.61204 L 952.70459 817.82904" />
    <path d="M -213.20872 953.71918 L -213.20872 1175.95373" />
    <path d="M -385.70736 798.3632 L -385.70736 1020.59775" />
    <path d="M -558.20599 643.00722 L -558.20599 865.24177" />
    <path d="M -730.70463 487.65124 L -730.70463 564.02443" />
    <path d="M -903.20326 332.29526 L -903.20326 447.21769" />
    <path d="M -1075.7019 176.93929 L -1075.7019 399.17384" />
    <path d="M 597.43445 497.86511 A 854.4 698.40375 312.00688 0 0 646.73648 442.66505 A 854.4 698.40375 312.00688 0 0 703.42247 367.86661" />
    <path d="M 597.43445 810.65547 L 597.43445 497.86511 L 607.70732 507.11708" />
    <path d="M 685.75332 493.93489 A 914.4 747.44896 132.00688 0 1 661.93301 520.92923" />
    <path d="M 657.00935 451.91702 L 649.34068 461.14089" />
    <path d="M 657.00935 451.91702 A 854.4 698.40375 132.00688 0 1 607.70732 507.11708" />
    <path d="M 769.93309 653.22109 A 854.4 698.40375 312.00688 0 0 819.23511 598.02103 A 854.4 698.40375 312.00688 0 0 1045.3996 5.89714 A 854.4 698.40375 312.00688 0 0 1040.54246 -79.66154" />
    <path d="M 769.93309 966.01145 L 769.93309 653.22109 L 780.20596 662.47306" />
    <path d="M 858.25195 649.29087 A 914.4 747.44896 132.00688 0 1 834.43165 676.28521" />
    <path d="M 829.50799 607.273 L 821.83932 616.49687 L 957.5849 738.75226" />
    <path d="M 829.50799 607.273 A 854.4 698.40375 132.00688 0 1 780.20596 662.47306" />
    <path d="M 64.96469 -1157.53699 A 854.4 698.40375 132.00688 0 1 83.86276 -1129.51747" />
    <path d="M 125.61001 -1051.42975 A 854.4 698.40375 132.00688 0 1 149.03665 -990.40105" />
    <path d="M 166.96029 -923.89837 A 854.4 698.40375 132.00688 0 1 180.38705 -832.74763" />
    <path d="M 182.90162 -768.15429 A 854.4 698.40375 132.00688 0 1 182.80825 -758.54027" />
    <path d="M 178.17676 -684.52701 A 854.4 698.40375 132.00688 0 1 171.86368 -638.42809" />
    <path d="M 156.57475 -565.47797 A 854.4 698.40375 132.00688 0 1 109.89904 -428.13093" />
    <path d="M -1221.68427 -484.27693 A 700 572.19409 132.00688 0 1 -1056.96273 -960.4489" />
    <path d="M -1040.21678 -981.53383 A 700 572.19409 132.00688 0 1 -476.73255 -1274.35241" />
    <path d="M -267.01218 -1238.52033 A 700 572.19409 132.00688 0 1 -120.81354 -1148.73544 A 700 572.19409 132.00688 0 1 -118.86905 -1146.97429" />
    <path d="M -60.49149 -1082.98887 A 700 572.19409 132.00688 0 1 -3.81932 -986.78907" />
    <path d="M 19.32201 -924.42504 A 700 572.19409 132.00688 0 1 26.14429 -899.63519" />
    <path d="M 41.23709 -807.85781 A 700 572.19409 132.00688 0 1 41.35912 -806.37554" />
    <path d="M 43.16206 -740.29352 A 700 572.19409 132.00688 0 1 17.79614 -573.05073" />
    <path d="M -13.71511 -482.04933 A 700 572.19409 132.00688 0 1 -39.08876 -427.20011 L -46.56228 -433.93092 A 700 572.19409 312.00688 0 0 -27.94931 -473.06452" />
    <path d="M -269.09229 -147.21762 A 700 572.19409 132.00688 0 1 -391.93391 -66.91919" />
    <path d="M -479.5738 -27.21566 A 700 572.19409 132.00688 0 1 -618.01474 9.68832" />
    <path d="M -29.80928 -429.07476 L -39.08876 -427.20011" />
    <path d="M -22.9637 1347.29249 L -77.18939 1358.2472" />
    <path d="M 960.17811 1137.35021 L -22.9637 1335.96519" />
    <path d="M 960.17811 1137.35021 L 970.45098 1146.60217" />
    <path d="M 1048.49697 820.62962 A 914.4 747.44896 132.00688 0 1 1024.67667 847.62396" />
    <path d="M 1019.75301 778.61176 A 854.4 698.40375 132.00688 0 1 970.45098 833.81182" />
    <path d="M 1012.08434 787.83562 L 1019.75301 778.61176 L 1027.42168 769.38789 L 1065.71471 799.97472 A 914.4 747.44896 312.00688 0 0 1297.79032 238.37295" />
    <path d="M -1141.79704 394.71896 L -1146.0774 395.58368" />
    <path d="M -22.9637 1034.50213 A 854.4 698.40375 132.00688 0 1 -72.26573 999.22213 L -64.59706 1005.34753" />
    <path d="M -22.9637 1034.50213 L -22.9637 1042.84343" />
    <path d="M -22.9637 1053.53411 L -22.9637 1347.29249" />
    <path d="M 957.5849 812.70512 A 854.4 698.40375 132.00688 0 1 952.70459 817.82904" />
    <path d="M 960.17811 1004.34285 A 75 61.30651 132.00688 0 1 897.2763 1059.61123" />
    <path d="M 436.35792 1152.72628 A 75 61.30651 132.00688 0 1 386.16643 1140.62129 A 75 61.30651 132.00688 0 1 369.11029 1106.97882" />
    <path d="M 368.57581 1098.58484 L 369.11029 1106.97882" />
    <path d="M 368.57581 1098.58484 L 368.57581 -212.88852" />
    <path d="M 368.70956 -217.17493 L 368.57581 -212.88852" />
    <path d="M 368.70956 -217.17493 A 75 61.30651 132.00688 0 1 436.35792 -294.41674" />
    <path d="M 897.2763 -387.53179 L 436.35792 -294.41674" />
    <path d="M 954.64847 -359.27785 A 75 61.30651 132.00688 0 1 957.05042 -348.51514 L 957.5849 -340.12116 L 965.05842 -333.39035 L 965.05842 -153.06982 A 500 408.71006 132.00688 0 1 1001.42703 -124.60465 A 500 408.71006 132.00688 0 1 965.05842 526.42316 L 965.05842 819.43592" />
    <path d="M 957.05042 -348.51514 L 964.52394 -341.78433" />
    <path d="M 897.2763 -387.53179 A 75 61.30651 132.00688 0 1 899.94365 -388.0181" />
    <path d="M 961.12409 -355.37011 A 75 61.30651 132.00688 0 1 964.52394 -341.78433" />
    <path d="M -172.4175 1080.2604 L -105.20865 1140.79014" />
    <path d="M -182.19533 1061.71042 A 101.6 43.33739 180 0 0 -172.4175 1080.2604 L -172.4175 991.03814" />
    <path d="M 957.5849 971.35221 L 957.5849 812.70512 L 957.5849 519.69236 L 965.05842 526.42316" />
    <path d="M 957.5849 971.35221 L 957.45115 975.63861" />
    <path d="M -56.22453 1093.54019 L -17.88118 1047.42086 L -33.21852 1035.17005 L -79.9344 993.09672 L -118.22744 1039.15552" />
    <path d="M -17.88118 1047.42086 L -64.59706 1005.34753" />
    <path d="M 957.5849 -334.27871 A 854.4 698.40375 312.00688 0 0 934.49427 -370.72624" />
    <path d="M -326.18269 768.53869 A 854.4 698.40375 132.00688 0 1 -485.0665 401.0345" />
    <path d="M -488.60023 316.35326 A 854.4 698.40375 132.00688 0 1 -271.95718 -253.45602" />
    <path d="M -254.79087 -274.16237 A 854.4 698.40375 132.00688 0 1 272.72174 -599.37777" />
    <path d="M 345.84839 -611.70281 A 854.4 698.40375 132.00688 0 1 814.05208 -497.51455" />
    <path d="M 940.71543 -367.30467 A 854.4 698.40375 132.00688 0 1 957.45384 -342.17953" />
    <path d="M 1051.56506 -63.62171 A 854.4 698.40375 132.00688 0 1 1055.67247 15.14911 L 1055.67247 26.00267 L 1103.93256 69.46674" />
    <path d="M 1055.67247 15.14911 A 854.4 698.40375 132.00688 0 1 829.50799 607.273" />
    <path d="M -498.68132 613.18271 A 854.4 698.40375 132.00688 0 1 -527.80673 578.97314" />
    <path d="M -1283.35588 -146.66462 A 854.4 698.40375 132.00688 0 1 -1347.55967 -375.7454" />
    <path d="M -1351.09341 -460.42664 A 854.4 698.40375 132.00688 0 1 -1134.45035 -1030.23591" />
    <path d="M -1117.28404 -1050.94226 A 854.4 698.40375 132.00688 0 1 -589.77144 -1376.15766" />
    <path d="M -516.64479 -1388.48271 A 854.4 698.40375 132.00688 0 1 -48.4411 -1274.29445" />
    <path d="M 71.0842 -1154.00256 A 854.4 698.40375 132.00688 0 1 88.93757 -1128.32524" />
    <path d="M 132.77446 -1049.05555 A 854.4 698.40375 132.00688 0 1 156.41681 -989.80713" />
    <path d="M 175.39512 -922.93473 A 854.4 698.40375 132.00688 0 1 189.75093 -833.67788" />
    <path d="M 193.14223 -769.1957 A 854.4 698.40375 132.00688 0 1 193.1793 -761.63079 L 193.1793 -750.77722" />
    <path d="M 193.1793 -761.63079 A 854.4 698.40375 132.00688 0 1 193.08112 -749.2883" />
    <path d="M 188.44963 -675.27504 A 854.4 698.40375 132.00688 0 1 184.20665 -642.35406" />
    <path d="M 170.33202 -570.42408 A 854.4 698.40375 132.00688 0 1 125.36676 -431.25573" />
    <path d="M 1097.14358 860.53597 L 1058.80022 829.90895 L 1012.08434 787.83562" />
    <path d="M 811.51523 607.19877 L 649.34068 461.14089" />
    <path d="M 590.70546 408.33275 L 639.0166 451.8428" />
    <path d="M 654.35387 433.395 L 616.31689 399.13808" />
    <path d="M 725.20746 360.04565 A 854.4 698.40375 132.00688 0 1 657.00935 451.91702" />
    <path d="M 664.67802 442.69316 L 826.8525 588.75098" />
    <path d="M 664.67802 442.69316 L 657.00935 451.91702" />
    <path d="M 957.5849 706.49139 L 837.17666 598.04914 L 829.50799 607.273" />
    <path d="M 6.6961 -567.11082 A 700 572.19409 312.00688 0 0 35.39771 -738.0001" />
    <path d="M 34.52347 -804.47334 A 700 572.19409 312.00688 0 0 33.76358 -814.58862" />
    <path d="M 18.67078 -906.366 A 700 572.19409 312.00688 0 0 13.97923 -923.88963" />
    <path d="M -8.12348 -986.26361 A 700 572.19409 312.00688 0 0 -63.01452 -1083.05696" />
    <path d="M -119.09623 -1146.96327 A 700 572.19409 312.00688 0 0 -124.56839 -1152.08076" />
    <path d="M -197.1324 -336.5845 L -71.42278 -223.36771" />
    <path d="M 368.57581 172.90447 L 546.56116 333.2019" />
    <path d="M 953.25385 251.04157 L 546.56116 333.2019" />
    <path d="M 856.60325 163.99596 L 953.25385 251.04157" />
    <path d="M 823.10168 170.76397 L 856.60325 163.99596" />
    <path d="M 812.82881 161.512 L 823.10168 170.76397" />
    <path d="M 684.10461 8.63998 L 823.04944 133.77668" />
    <path d="M 650.60304 15.40799 L 684.10461 8.63998" />
    <path d="M 640.33017 6.15602 L 650.60304 15.40799" />
    <path d="M 511.60598 -146.716 L 650.55081 -21.5793" />
    <path d="M 478.10441 -139.94799 L 511.60598 -146.716" />
    <path d="M 467.83154 -149.19996 L 478.10441 -139.94799" />
    <path d="M 385.11657 -260.63508 L 478.05217 -176.93528" />
    <path d="M 182.78848 -442.8561 L 203.26406 -424.41535" />
    <path d="M 182.78848 -442.8561 L 22.73273 -410.52153 A 700 298.5844 180 0 0 -29.80928 -429.07476" />
    <path d="M -46.4159 -434.21871 A 700 298.5844 180 0 0 -73.50398 -441.95727" />
    <path d="M -158.32959 -461.62193 A 700 298.5844 180 0 0 -374.60105 -486.94721" />
    <path d="M -459.19142 -488.62676 A 700 298.5844 180 0 0 -492.32829 -488.09367" />
    <path d="M -530.85706 -486.62682 A 700 298.5844 180 0 0 -683.76277 -471.42185" />
    <path d="M -766.56159 -456.24623 A 700 298.5844 180 0 0 -966.55001 -391.29281" />
    <path d="M -1045.00173 -346.9356 A 700 298.5844 180 0 0 -1096.00296 -304.4357" />
    <path d="M -1063.40514 -248.1133 L -1105.83495 -239.5416" />
    <path d="M -1149.19171 -197.09095 A 700 298.5844 180 0 0 -1149.38516 -190.07166 A 700 298.5844 180 0 0 -1148.3623 -173.93611" />
    <path d="M -1308.41805 -141.60154 L -1231.6168 -157.11698" />
    <path d="M -1168.25857 -169.91665 L -1148.3623 -173.93611" />
    <path d="M -1308.41805 -141.60154 L -1203.33751 -46.96375" />
    <path d="M -1152.09919 -0.81741 L -1118.59762 -7.58542 A 854.4 698.40375 132.00688 0 1 -1175.06104 -220.38942" />
    <path d="M -1152.09919 -0.81741 L -1030.83888 108.39223" />
    <path d="M -979.60055 154.53857 L -946.09898 147.77056 A 854.4 698.40375 132.00688 0 1 -1002.5624 -65.03344" />
    <path d="M -979.60055 154.53857 L -858.34024 263.74821" />
    <path d="M -807.10192 309.89454 L -773.60035 303.12653 A 854.4 698.40375 132.00688 0 1 -830.06377 90.32254" />
    <path d="M -807.10192 309.89454 L -685.84161 419.10419" />
    <path d="M -634.60328 465.25052 L -601.10171 458.48251 A 854.4 698.40375 132.00688 0 1 -657.56513 245.67852" />
    <path d="M -634.60328 465.25052 L -537.95268 552.29613 L -521.57014 548.98652" />
    <path d="M -458.12973 536.17024 L -379.87768 520.36171" />
    <path d="M -901.72536 -223.76188 L -871.32503 -196.38268" />
    <path d="M -816.86319 -147.33318 L -698.82639 -41.0267" />
    <path d="M -644.36456 8.0228 L -526.32776 114.32928" />
    <path d="M -471.86592 163.37877 L -353.82912 269.68526" />
    <path d="M -270.26957 -351.32901 L -327.61019 -339.74501" />
    <path d="M -360.41022 -333.11873 L -520.8997 -300.69654" />
    <path d="M -603.4739 -284.01484 L -790.79181 -246.17275" />
    <path d="M -861.8146 -231.82468 L -901.72536 -223.76188" />
    <path d="M -1149.38515 -173.72948 A 700 298.5844 360 0 1 -1149.38516 -173.79131 L -1149.38516 -190.07166" />
    <path d="M -288.35857 -331.3943 L -312.84533 -326.44746" />
    <path d="M -345.64536 -319.82118 L -532.01765 -282.17012" />
    <path d="M -613.20936 -265.76772 L -796.2499 -228.78974" />
    <path d="M -866.62415 -214.57269 L -866.94885 -214.50709" />
    <path d="M -625.48825 2.95751 A 700 572.19409 312.00688 0 0 -474.7149 -38.73717" />
    <path d="M -384.33831 -81.85657 A 700 572.19409 312.00688 0 0 -269.09229 -159.91651" />
    <path d="M -22.9637 1034.50213 L -33.23657 1025.25016" />
    <path d="M 960.17811 1137.35021 L 960.17811 1004.34285 L 960.17811 824.55985 A 854.4 698.40375 312.00688 0 0 965.05842 819.43592" />
    <path d="M -103.14622 972.70015 A 854.4 698.40375 312.00688 0 0 -33.23657 1025.25016" />
    <path d="M 71.82571 1197.78825 L 71.82571 968.0543 L 104.97284 997.90732 L 346.00604 949.21362 L 312.85891 919.3606" />
    <path d="M 71.82571 968.0543 L 312.85891 919.3606" />
    <path d="M 960.17811 824.55985 L 970.45098 833.81182" />
    <path d="M 1062.78286 -275.12716 A 854.4 698.40375 132.00688 0 1 965.05842 819.43592" />
    <path d="M -295.9116 560.33369 A 854.4 698.40375 312.00688 0 0 -98.03779 977.35723 A 854.4 698.40375 312.00688 0 0 -72.26573 999.22213" />
    <path d="M -81.71216 -82.11726 A 854.4 698.40375 312.00688 0 0 -298.35521 487.69201" />
    <path d="M 462.96676 -428.03901 A 854.4 698.40375 312.00688 0 0 -64.54585 -102.82361" />
    <path d="M 1012.91527 -319.63329 A 854.4 698.40375 312.00688 0 0 531.30466 -439.76987" />
    <path d="M 1245.91749 186.48785 A 854.4 698.40375 312.00688 0 0 1068.27362 -270.74138" />
    <path d="M 1019.75301 778.61176 A 854.4 698.40375 312.00688 0 0 1245.91749 186.48785 L 1245.91749 175.63428 L 1300.07202 164.69395 A 914.4 747.44896 312.00688 0 0 1112.09504 -311.7127" />
    <path d="M 1074.13756 811.46122 L 1027.42168 769.38789" />
    <path d="M 1074.13756 811.46122 L 1058.80022 829.90895" />
    <path d="M -79.9344 993.09672 L -72.26573 999.22213" />
    <path d="M 1039.15257 -378.21792 A 914.4 747.44896 132.00688 0 1 1057.659 -362.20996" />
    <path d="M 456.63489 -511.92611 A 914.4 747.44896 132.00688 0 1 1022.35811 -391.67519 L 1050.37737 -366.44045 A 914.4 747.44896 312.00688 0 0 484.65415 -486.69136" />
    <path d="M -130.90935 -158.69131 A 914.4 747.44896 132.00688 0 1 434.87924 -507.53188 L 462.8985 -482.29713 A 914.4 747.44896 312.00688 0 0 -102.89009 -133.45657" />
    <path d="M -380.604 473.33005 A 914.4 747.44896 132.00688 0 1 -146.2491 -140.24062" />
    <path d="M -166.21024 996.70635 A 914.4 747.44896 132.00688 0 1 -380.60295 495.11661" />
    <path d="M 957.5849 -159.80062 L 957.5849 -340.12116" />
    <path d="M 957.5849 519.69236 A 500 408.71006 312.00688 0 0 997.66494 -127.94193" />
    <path d="M 957.5849 971.35221 L 960.17811 973.6877" />
    <path d="M 965.05842 -333.39035 L 964.52394 -341.78433" />
    <path d="M -1245.36522 23.32519 L -1245.75109 23.78932" />
    <path d="M -71.56187 1081.28938 L -119.68455 1037.94906" />
    <path d="M -184.06094 979.9703 L -309.92957 866.61031" />
    <path d="M -356.55958 824.61432 L -482.4282 711.25433" />
    <path d="M -529.05821 669.25834 L -654.92684 555.89835" />
    <path d="M -701.55685 513.90236 L -827.42547 400.54237" />
    <path d="M -874.05548 358.54638 L -999.92411 245.18639" />
    <path d="M -1046.55412 203.1904 L -1172.42274 89.83041" />
    <path d="M -1236.79914 31.85165 L -1245.75109 23.78932" />
    <path d="M -71.56187 1081.28938 L -33.21852 1035.17005" />
    <path d="M -288.96051 844.34783 L -308.47246 867.81677" />
    <path d="M -461.45915 688.99185 L -480.97109 712.46079" />
    <path d="M -633.95778 533.63588 L -653.46973 557.10481" />
    <path d="M -806.45642 378.2799 L -825.96836 401.74883" />
    <path d="M -978.95505 222.92392 L -998.467 246.39285" />
    <path d="M -1151.45369 67.56794 L -1170.96563 91.03687" />
    <path d="M -542.82872 349.0126 A 914.4 747.44896 312.00688 0 0 -328.436 850.60234 L -338.70887 841.35037 A 914.4 747.44896 132.00688 0 1 -553.10159 339.76063" />
    <path d="M -328.436 850.60234 A 914.4 747.44896 312.00688 0 0 -308.47246 867.81677" />
    <path d="M -56.22453 1093.54019 L -71.56187 1081.28938" />
    <path d="M 866.65393 -533.5739 A 914.4 747.44896 132.00688 0 1 885.16036 -517.56594" />
    <path d="M 284.13626 -667.28209 A 914.4 747.44896 132.00688 0 1 849.85948 -547.03117 L 860.13235 -537.7792 L 824.10821 -494.44942" />
    <path d="M -303.40799 -314.04729 A 914.4 747.44896 132.00688 0 1 262.38061 -662.88786 L 272.65348 -653.63589 L 272.65348 -599.43924" />
    <path d="M -553.10264 317.97407 A 914.4 747.44896 132.00688 0 1 -318.74773 -295.5966" />
    <path d="M -308.47486 -286.34463 A 914.4 747.44896 312.00688 0 0 -542.82977 327.22604" />
    <path d="M -488.67524 316.2857 L -542.82977 327.22604" />
    <path d="M 272.65348 -653.63589 A 914.4 747.44896 312.00688 0 0 -293.13511 -304.79532" />
    <path d="M -254.84208 -274.20849 L -293.13511 -304.79532" />
    <path d="M 860.13235 -537.7792 A 914.4 747.44896 312.00688 0 0 294.40913 -658.03012" />
    <path d="M 1055.67247 4.29552 L 1055.67247 15.14911" />
    <path d="M 1083.54818 -1.33594 L 1055.67247 4.29552" />
    <path d="M 913.28394 -491.57791 A 914.4 747.44896 312.00688 0 0 895.43324 -508.31397 L 885.16036 -517.56594" />
    <path d="M 895.43324 -508.31397 A 914.4 747.44896 312.00688 0 0 876.9268 -524.32193" />
    <path d="M 875.46969 628.63597 L 837.17666 598.04914" />
    <path d="M 875.46969 628.63597 A 914.4 747.44896 312.00688 0 0 1106.22461 82.8312" />
    <path d="M -715.32735 193.65662 A 914.4 747.44896 312.00688 0 0 -500.93464 695.24636 L -511.20751 685.99439 A 914.4 747.44896 132.00688 0 1 -725.60022 184.40465" />
    <path d="M -500.93464 695.24636 A 914.4 747.44896 312.00688 0 0 -480.97109 712.46079" />
    <path d="M -634.60328 492.38446 L -634.60328 465.25052" />
    <path d="M -1308.41805 -114.46761 L -1187.5991 -5.65547" />
    <path d="M -1152.09919 26.31652 L -1015.10047 149.70051" />
    <path d="M -979.60055 181.6725 L -842.60183 305.05649" />
    <path d="M -807.10192 337.02848 L -670.1032 460.41247" />
    <path d="M -634.60328 492.38446 L -537.95268 579.43006 L -537.95268 552.29613" />
    <path d="M -375.88693 572.13146 L -444.73317 575.23194" />
    <path d="M -512.02112 578.26224 L -537.95268 579.43006" />
    <path d="M -887.82599 38.30064 A 914.4 747.44896 312.00688 0 0 -673.43327 539.89038 L -683.70614 530.63841 A 914.4 747.44896 132.00688 0 1 -898.09886 29.04867" />
    <path d="M -673.43327 539.89038 A 914.4 747.44896 312.00688 0 0 -653.46973 557.10481" />
    <path d="M -807.10192 337.02848 L -807.10192 309.89454" />
    <path d="M -1060.32462 -117.05534 A 914.4 747.44896 312.00688 0 0 -845.93191 384.5344 L -856.20478 375.28244 A 914.4 747.44896 132.00688 0 1 -1070.59749 -126.30731" />
    <path d="M -845.93191 384.5344 A 914.4 747.44896 312.00688 0 0 -825.96836 401.74883" />
    <path d="M -979.60055 181.6725 L -979.60055 154.53857" />
    <path d="M -1232.82326 -272.41132 A 914.4 747.44896 312.00688 0 0 -1018.43054 229.17843 L -1028.70341 219.92646 A 914.4 747.44896 132.00688 0 1 -1243.09613 -281.66329" />
    <path d="M -1018.43054 229.17843 A 914.4 747.44896 312.00688 0 0 -998.467 246.39285" />
    <path d="M -1152.09919 26.31652 L -1152.09919 -0.81741" />
    <path d="M -1405.32189 -427.7673 A 914.4 747.44896 312.00688 0 0 -1190.92918 73.82245 L -1218.94843 48.5877 A 914.4 747.44896 132.00688 0 1 -1433.34115 -453.00204" />
    <path d="M -1190.92918 73.82245 A 914.4 747.44896 312.00688 0 0 -1170.96563 91.03687" />
    <path d="M -1170.96804 -1063.12453 A 914.4 747.44896 312.00688 0 0 -1405.32294 -449.55386 L -1433.3422 -474.7886 A 914.4 747.44896 132.00688 0 1 -1198.9873 -1088.35927" />
    <path d="M -1351.16841 -460.49419 L -1405.32294 -449.55386" />
    <path d="M -589.8397 -1430.41578 L -589.8397 -1376.21914 L -474.96782 -1272.76306" />
    <path d="M -589.8397 -1430.41578 A 914.4 747.44896 312.00688 0 0 -1155.62829 -1081.57521 L -1183.64755 -1106.80996 A 914.4 747.44896 132.00688 0 1 -617.85895 -1455.65053 L -589.8397 -1430.41578 Z" />
    <path d="M -1117.33526 -1050.98839 L -1155.62829 -1081.57521" />
    <path d="M -2.36083 -1314.5591 L -38.38497 -1271.22931" />
    <path d="M -2.36083 -1314.5591 A 914.4 747.44896 312.00688 0 0 -568.08405 -1434.81001" />
    <path d="M 193.1793 -769.19922 L 193.1793 -761.63079" />
    <path d="M 244.85845 -836.94771 A 914.4 747.44896 312.00688 0 0 234.96958 -913.008" />
    <path d="M 219.02985 -981.71351 A 914.4 747.44896 312.00688 0 0 207.62572 -1018.05388" />
    <path d="M 50.79077 -1268.35781 A 914.4 747.44896 312.00688 0 0 32.94006 -1285.09386 L 4.9208 -1310.32861" />
    <path d="M 32.94006 -1285.09386 A 914.4 747.44896 312.00688 0 0 14.43363 -1301.10183" />
    <path d="M 183.91077 -441.84534 A 914.4 747.44896 312.00688 0 0 227.53259 -588.29147" />
    <path d="M 244.52038 -702.96099 A 914.4 747.44896 312.00688 0 0 244.64009 -704.43053" />
    <path d="M 1112.48092 842.08824 L 1097.14358 860.53597" />
    <path d="M 1112.48092 842.08824 L 1065.71712 799.97176" />
    <path d="M 957.5849 702.58557 L 875.4721 628.63301" />
    <path d="M 828.68154 586.49242 L 702.97346 473.27703" />
    <path d="M 656.18291 431.13645 L 619.41767 398.02488" />
    <path d="M 1112.48092 842.08824 L 1074.13756 811.46122" />
    <path d="M 702.97106 473.27999 L 664.67802 442.69316" />
    <path d="M 344.36232 -483.07211 A 854.4 698.40375 312.00688 0 0 350.6754 -529.17103" />
    <path d="M 355.30688 -603.18429 A 854.4 698.40375 312.00688 0 0 355.40025 -612.79832" />
    <path d="M 587.15507 409.60736 L 953.25385 278.1755 L 953.25385 251.04157" />
    <path d="M 417.01902 -547.60502 A 914.4 747.44896 312.00688 0 0 417.13873 -549.07455" />
    <path d="M 365.67793 -606.27482 L 365.67793 -595.42125 L 458.08393 -512.19842" />
    <path d="M 365.67793 -606.27482 A 854.4 698.40375 132.00688 0 1 365.57975 -593.93232" />
    <path d="M 360.94827 -519.91906 A 854.4 698.40375 132.00688 0 1 356.70529 -486.99808" />
    <path d="M 467.83154 -149.19996 A 854.4 698.40375 312.00688 0 0 513.75403 -310.05236" />
    <path d="M 528.90804 -131.13339 A 914.4 747.44896 312.00688 0 0 581.16358 -323.67048" />
    <path d="M 526.13658 -312.55389 A 854.4 698.40375 132.00688 0 1 478.10441 -139.94799" />
    <path d="M 640.33017 6.15602 A 854.4 698.40375 312.00688 0 0 700.40233 -304.81483 A 854.4 698.40375 312.00688 0 0 699.20909 -347.51812" />
    <path d="M 701.40668 24.22259 A 914.4 747.44896 312.00688 0 0 762.136 -238.36259" />
    <path d="M 710.6752 -295.56286 L 710.6752 -284.70929 L 872.82596 -138.67283" />
    <path d="M 710.6752 -295.56286 A 854.4 698.40375 132.00688 0 1 650.60304 15.40799" />
    <path d="M 812.82881 161.512 A 854.4 698.40375 312.00688 0 0 872.90097 -149.45885 A 854.4 698.40375 312.00688 0 0 836.91909 -375.33838" />
    <path d="M 702.97106 473.27999 A 914.4 747.44896 312.00688 0 0 800.04593 333.17815" />
    <path d="M 873.90531 179.57857 A 914.4 747.44896 312.00688 0 0 934.63463 -83.00661" />
    <path d="M 883.17384 -140.20688 L 883.17384 -129.35331" />
    <path d="M 883.17384 -140.20688 A 854.4 698.40375 132.00688 0 1 823.10168 170.76397" />
    <path d="M 501.37308 387.55405 A 50 40.87101 132.00688 0 1 546.56116 333.2019" />
    <path d="M -245.41909 -285.02303 L -119.64232 -171.74577" />
    <path d="M 368.57581 267.95397 L 501.37308 387.55405 L 501.37308 893.69232 L 528.48593 888.21497 L 587.15507 409.60736" />
    <path d="M 773.8573 -508.09355 A 854.4 698.40375 312.00688 0 0 754.95923 -536.11308" />
    <path d="M -661.09887 160.99728 A 854.4 698.40375 132.00688 0 1 -444.45581 -408.812" />
    <path d="M -427.2895 -429.51835 A 854.4 698.40375 132.00688 0 1 100.2231 -754.73375" />
    <path d="M 173.34975 -767.05879 A 854.4 698.40375 132.00688 0 1 641.55344 -652.87053" />
    <path d="M 761.07874 -532.57864 A 854.4 698.40375 132.00688 0 1 778.93211 -506.90132" />
    <path d="M 843.51404 -376.6707 A 854.4 698.40375 132.00688 0 1 883.17384 -140.20688" />
    <path d="M 666.53255 -524.33311 A 854.4 698.40375 312.00688 0 0 643.10591 -585.36181" />
    <path d="M 601.35866 -663.44953 A 854.4 698.40375 312.00688 0 0 582.4606 -691.46906" />
    <path d="M -833.5975 5.6413 A 854.4 698.40375 132.00688 0 1 -616.95445 -564.16798" />
    <path d="M -599.78814 -584.87433 A 854.4 698.40375 132.00688 0 1 -72.27553 -910.08973" />
    <path d="M 0.85112 -922.41477 A 854.4 698.40375 132.00688 0 1 469.05481 -808.22651" />
    <path d="M 588.5801 -687.93462 A 854.4 698.40375 132.00688 0 1 606.43348 -662.2573" />
    <path d="M 650.27036 -582.98762 A 854.4 698.40375 132.00688 0 1 673.91271 -523.73919" />
    <path d="M 708.76859 -349.44933 A 854.4 698.40375 132.00688 0 1 710.6752 -295.56286" />
    <path d="M 525.38432 -522.03567 A 854.4 698.40375 312.00688 0 0 511.95756 -613.18641" />
    <path d="M 494.03392 -679.68909 A 854.4 698.40375 312.00688 0 0 470.60728 -740.71779" />
    <path d="M 428.86003 -818.80551 A 854.4 698.40375 312.00688 0 0 409.96196 -846.82503" />
    <path d="M -1006.09614 -149.71468 A 854.4 698.40375 132.00688 0 1 -789.45308 -719.52396" />
    <path d="M -772.28677 -740.2303 A 854.4 698.40375 132.00688 0 1 -244.77417 -1065.4457" />
    <path d="M -171.64752 -1077.77075 A 854.4 698.40375 132.00688 0 1 296.55617 -963.58249" />
    <path d="M 416.08147 -843.2906 A 854.4 698.40375 132.00688 0 1 433.93484 -817.61328" />
    <path d="M 477.77173 -738.3436 A 854.4 698.40375 132.00688 0 1 501.41408 -679.09517" />
    <path d="M 520.39239 -612.22277 A 854.4 698.40375 132.00688 0 1 534.7482 -522.96592" />
    <path d="M 352.88568 -677.39165 A 854.4 698.40375 312.00688 0 0 339.45893 -768.54239" />
    <path d="M 321.53528 -835.04507 A 854.4 698.40375 312.00688 0 0 298.10864 -896.07377" />
    <path d="M 256.36139 -974.16149 A 854.4 698.40375 312.00688 0 0 237.46333 -1002.18101" />
    <path d="M -1178.59477 -305.07066 A 854.4 698.40375 132.00688 0 1 -961.95172 -874.87993" />
    <path d="M -944.78541 -895.58628 A 854.4 698.40375 132.00688 0 1 -417.2728 -1220.80168" />
    <path d="M -344.14615 -1233.12673 A 854.4 698.40375 132.00688 0 1 124.05754 -1118.93847" />
    <path d="M 243.58283 -998.64658 A 854.4 698.40375 132.00688 0 1 261.43621 -972.96926" />
    <path d="M 305.27309 -893.69957 A 854.4 698.40375 132.00688 0 1 328.91544 -834.45115" />
    <path d="M 347.89375 -767.57875 A 854.4 698.40375 132.00688 0 1 362.24956 -678.3219" />
    <path d="M 365.64086 -613.83972 A 854.4 698.40375 132.00688 0 1 365.67793 -606.27482" />
    <path d="M -269.09229 -250.87584 L -269.09229 46.63675" />
    <path d="M -384.01029 -206.69817 A 600 490.45207 132.00688 0 1 -612.12847 -109.14484" />
    <path d="M -682.45124 -99.2079 A 600 490.45207 132.00688 0 1 -737.53386 -97.95317" />
    <path d="M -1062.48005 -255.02573 A 600 490.45207 132.00688 0 1 -1154.3941 -491.43396" />
    <path d="M -1112.77965 -764.80872 A 600 490.45207 132.00688 0 1 -1021.15594 -928.20053" />
    <path d="M -1004.61806 -949.47285 A 600 490.45207 132.00688 0 1 -747.83159 -1150.42701" />
    <path d="M -481.33735 -1204.29627 A 600 490.45207 132.00688 0 1 -381.24902 -1188.3579" />
    <path d="M -93.00218 -905.33436 A 600 490.45207 132.00688 0 1 -72.30171 -767.21925" />
    <path d="M -76.04077 -696.18669 A 600 490.45207 132.00688 0 1 -152.14218 -461.24409" />
    <path d="M -163.95558 -451.62424 A 600 490.45207 312.00688 0 0 -81.06538 -693.89825" />
    <path d="M -76.54547 -765.44085 A 600 490.45207 312.00688 0 0 -95.92806 -904.61815" />
    <path d="M -741.81422 -101.80816 A 600 490.45207 312.00688 0 0 -681.08153 -103.52047" />
    <path d="M -610.32143 -114.2907 A 600 490.45207 312.00688 0 0 -375.5565 -219.31518" />
    <path d="M -1308.41805 -114.46761 L -1308.41805 -141.60154" />
    <path d="M -867.00398 -214.49595 A 50 40.87101 312.00688 0 0 -868.26437 -215.69188 A 50 40.87101 312.00688 0 0 -901.72536 -223.76188" />
    <path d="M 71.82571 1197.78825 L 104.97284 1227.64127 L 346.00604 1178.94758 L 346.00604 949.21362" />
    <path d="M 104.97284 1227.64127 L 104.97284 997.90732" />
    <path d="M -352.5837 520.35135 A 914.4 747.44896 312.00688 0 0 -138.19098 1021.9411 L -166.21024 996.70635" />
    <path d="M -138.19098 1021.9411 A 914.4 747.44896 312.00688 0 0 -118.22744 1039.15552" />
    <path d="M -352.58474 498.56479 A 914.4 747.44896 132.00688 0 1 -118.22984 -115.00588" />
    <path d="M -298.43022 487.62446 L -352.58474 498.56479" />
    <path d="M 462.8985 -428.10049 L 462.8985 -482.29713" />
    <path d="M -64.59706 -102.86974 L -102.89009 -133.45657" />
    <path d="M 1012.08434 -320.38165 L 1050.37737 -366.44045" />
    <path d="M 1103.52896 -320.23916 A 914.4 747.44896 312.00688 0 0 1085.67826 -336.97521 L 1057.659 -362.20996" />
    <path d="M 1085.67826 -336.97521 A 914.4 747.44896 312.00688 0 0 1067.17182 -352.98318" />
    <path d="M 1245.91749 197.34143 L 1245.91749 186.48785" />
    <path d="M -13.58563 -1326.33657 A 914.4 747.44896 132.00688 0 1 4.9208 -1310.32861" />
    <path d="M -596.1033 -1460.04476 A 914.4 747.44896 132.00688 0 1 -30.38008 -1339.79384 L -2.36083 -1314.5591" />
    <path d="M 1346.85907 228.46004 L 1292.63338 239.41475 L 1245.91749 197.34143" />
    <path d="M 1045.32459 16.68315 L 883.17384 -129.35331" />
    <path d="M 700.32732 -294.02881 L 651.61233 -337.90258" />
    <path d="M 355.33005 -604.74077 L 347.39396 -611.88818" />
    <path d="M 285.58529 -667.5544 L 193.1793 -750.77722" />
    <path d="M 1097.80967 42.24519 L 1055.67247 4.29552" />
    <path d="M 1346.85907 206.7529 L 1300.07097 164.61453" />
    <path d="M 1041.79086 -67.99809 L 937.32732 -162.0802" />
    <path d="M 869.29223 -223.35407 L 764.82868 -317.43618" />
    <path d="M 524.29496 -534.06603 L 431.98196 -617.20509" />
    <path d="M 351.79632 -689.422 L 259.48333 -772.56107" />
    <path d="M 1346.85907 206.7529 L 1292.63338 217.70761 L 1292.63338 239.41475" />
    <path d="M 1292.63338 217.70761 L 1245.91749 175.63428" />
    <path d="M 883.17384 -151.06045 L 1045.32224 -5.02612" />
    <path d="M 937.32836 -162.00079 L 883.17384 -151.06045 L 883.17384 -140.20688" />
    <path d="M 872.8236 -160.3821 L 710.6752 -306.41643 L 710.6752 -295.56286" />
    <path d="M 764.82973 -317.35677 L 710.6752 -306.41643" />
    <path d="M 671.29881 -341.87966 L 700.32497 -315.73808" />
    <path d="M 478.26834 -515.72705 L 368.9851 -614.14989" />
    <path d="M 196.48646 -769.50587 L 305.76971 -671.08303" />
    <path d="M 1112.48092 -312.17683 L -61.7083 -1369.67689" />
    <path d="M 1112.48092 -312.17683 L 1074.13756 -266.05751" />
    <path d="M -82.18651 -1375.74427 L -77.04565 -1381.9277 L -61.7083 -1369.67689" />
    <path d="M 1097.14358 -324.42764 L -77.04565 -1381.9277" />
    <path d="M 1097.14358 -324.42764 L 1058.80022 -278.30832 L 1074.13756 -266.05751" />
    <path d="M 1058.80022 -278.30832 L 1012.08434 -320.38165" />
    <path d="M 687.63371 -693.13518 L 651.60957 -649.8054" />
    <path d="M 677.36084 -702.38715 L 687.63371 -693.13518 A 914.4 747.44896 312.00688 0 0 121.91049 -813.3861" />
    <path d="M 515.13508 -848.49116 L 479.11093 -805.16138" />
    <path d="M 504.86221 -857.74313 L 515.13508 -848.49116 A 914.4 747.44896 312.00688 0 0 -50.58814 -968.74207" />
    <path d="M 342.63644 -1003.84714 L 306.6123 -960.51736" />
    <path d="M 332.36357 -1013.09911 L 342.63644 -1003.84714 A 914.4 747.44896 312.00688 0 0 -223.08678 -1124.09805" />
    <path d="M 170.13781 -1159.20312 L 134.11366 -1115.87333" />
    <path d="M 159.86494 -1168.45509 L 170.13781 -1159.20312 A 914.4 747.44896 312.00688 0 0 -395.58541 -1279.45403" />
    <path d="M 531.30466 -444.67691 L -642.88456 -1502.17696" />
    <path d="M 531.30466 -444.67691 L 531.30466 -390.40904" />
    <path d="M 387.52536 -495.98316 L 272.65348 -599.43924" />
    <path d="M -664.57484 -1444.27553 L -664.57484 -1497.79508 L -642.88456 -1502.17696" />
    <path d="M 509.61438 -440.29502 L -664.57484 -1497.79508" />
    <path d="M 509.61438 -440.29502 L 509.61438 -386.02716 L 531.30466 -390.40904" />
    <path d="M 509.61438 -386.02716 L 462.8985 -428.10049" />
    <path d="M 100.15484 -754.79522 L 215.02672 -651.33914" />
    <path d="M 100.15484 -808.99187 L 100.15484 -754.79522" />
    <path d="M 89.88197 -818.24383 L 100.15484 -808.99187 A 914.4 747.44896 312.00688 0 0 -465.63375 -460.1513" />
    <path d="M 42.52809 -806.69512 L -72.34379 -910.1512" />
    <path d="M -72.34379 -964.34784 L -72.34379 -910.1512" />
    <path d="M -82.61666 -973.59981 L -72.34379 -964.34784 A 914.4 747.44896 312.00688 0 0 -638.13238 -615.50728" />
    <path d="M -244.84243 -1065.50718 L -129.97055 -962.0511" />
    <path d="M -244.84243 -1119.70382 L -244.84243 -1065.50718" />
    <path d="M -255.1153 -1128.95579 L -244.84243 -1119.70382 A 914.4 747.44896 312.00688 0 0 -810.63102 -770.86326" />
    <path d="M -302.46918 -1117.40708 L -417.34106 -1220.86316" />
    <path d="M -417.34106 -1275.0598 L -417.34106 -1220.86316" />
    <path d="M -427.61393 -1284.31177 L -417.34106 -1275.0598 A 914.4 747.44896 312.00688 0 0 -983.12965 -926.21924" />
    <path d="M -130.90935 -158.69131 L -102.89009 -133.45657" />
    <path d="M -1181.76715 -1109.01713 L -1192.0704 -1118.29646 L -1230.41375 -1148.92348" />
    <path d="M -56.22453 -91.42343 L -1230.41375 -1148.92348" />
    <path d="M -56.22453 -91.42343 L -17.88118 -60.79641 L -64.59706 -102.86974" />
    <path d="M -254.84208 -274.20849 L -129.02895 -160.89848" />
    <path d="M -303.40799 -314.04729 L -293.13511 -304.79532" />
    <path d="M -301.52759 -316.25446 L -427.34072 -429.56447 L -465.63375 -460.1513" />
    <path d="M -475.90662 -469.40327 L -465.63375 -460.1513" />
    <path d="M -599.83935 -584.92045 L -474.02622 -471.61044" />
    <path d="M -599.83935 -584.92045 L -638.13238 -615.50728" />
    <path d="M -648.40526 -624.75925 L -638.13238 -615.50728" />
    <path d="M -646.52486 -626.96642 L -772.33799 -740.27643 L -810.63102 -770.86326" />
    <path d="M -820.90389 -780.11523 L -810.63102 -770.86326" />
    <path d="M -944.83662 -895.63241 L -819.02349 -782.3224" />
    <path d="M -944.83662 -895.63241 L -983.12965 -926.21924" />
    <path d="M -993.40253 -935.4712 L -983.12965 -926.21924" />
    <path d="M -991.52213 -937.67838 L -1117.33526 -1050.98839" />
    <path d="M -71.56187 -72.9757 L -1245.75109 -1130.47575 L -1230.41375 -1148.92348" />
    <path d="M -71.56187 -72.9757 L -33.21852 -42.34868 L -17.88118 -60.79641" />
    <path d="M -380.604 473.33005 L -352.58474 498.56479" />
    <path d="M -1431.06049 -526.76046 L -1480.12925 -516.84755" />
    <path d="M -305.94003 540.6525 L -1480.12925 -516.84755" />
    <path d="M -305.94003 540.6525 L -251.71433 529.69779 L -298.43022 487.62446" />
    <path d="M -488.67524 316.2857 L -377.91027 416.04302" />
    <path d="M -553.10264 317.97407 L -542.82977 327.22604" />
    <path d="M -550.4089 260.68704 L -661.17387 160.92973 L -715.3284 171.87006" />
    <path d="M -725.60127 162.61809 L -715.3284 171.87006" />
    <path d="M -833.67251 5.57375 L -722.90754 105.33106" />
    <path d="M -833.67251 5.57375 L -887.82704 16.51408" />
    <path d="M -898.09991 7.26211 L -887.82704 16.51408" />
    <path d="M -895.40617 -50.02492 L -1006.17114 -149.78223 L -1060.32567 -138.8419" />
    <path d="M -1070.59854 -148.09387 L -1060.32567 -138.8419" />
    <path d="M -1178.66978 -305.13821 L -1067.90481 -205.3809" />
    <path d="M -1178.66978 -305.13821 L -1232.82431 -294.19788" />
    <path d="M -1243.09718 -303.44985 L -1232.82431 -294.19788" />
    <path d="M -1240.40344 -360.73688 L -1351.16841 -460.49419" />
    <path d="M -305.94003 562.35965 L -1480.12925 -495.14041 L -1480.12925 -516.84755" />
    <path d="M -305.94003 562.35965 L -251.71433 551.40493 L -251.71433 529.69779" />
    <path d="M 957.5849 -159.80062 L 965.05842 -153.06982" />
    <path d="M 365.67793 -613.84324 L 365.67793 -606.27482" />
    <path d="M 368.57581 774.09224 L 501.37308 893.69232" />
    <path d="M 694.1553 -688.92988 A 914.4 747.44896 132.00688 0 1 712.66173 -672.92191" />
    <path d="M 111.63762 -822.63806 A 914.4 747.44896 132.00688 0 1 677.36084 -702.38715" />
    <path d="M -475.90662 -469.40327 A 914.4 747.44896 132.00688 0 1 89.88197 -818.24383" />
    <path d="M -725.60127 162.61809 A 914.4 747.44896 132.00688 0 1 -491.24637 -450.95258" />
    <path d="M -480.9735 -441.70061 A 914.4 747.44896 312.00688 0 0 -715.3284 171.87006" />
    <path d="M 937.32836 -162.00079 A 914.4 747.44896 312.00688 0 0 900.62414 -387.70429" />
    <path d="M 740.78531 -646.93389 A 914.4 747.44896 312.00688 0 0 722.9346 -663.66994 L 712.66173 -672.92191" />
    <path d="M 722.9346 -663.66994 A 914.4 747.44896 312.00688 0 0 704.42817 -679.67791" />
    <path d="M 521.65666 -844.28586 A 914.4 747.44896 132.00688 0 1 540.16309 -828.27789" />
    <path d="M -60.86101 -977.99404 A 914.4 747.44896 132.00688 0 1 504.86221 -857.74313" />
    <path d="M -648.40526 -624.75925 A 914.4 747.44896 132.00688 0 1 -82.61666 -973.59981" />
    <path d="M -898.09991 7.26211 A 914.4 747.44896 132.00688 0 1 -663.745 -606.30856" />
    <path d="M -653.47213 -597.05659 A 914.4 747.44896 312.00688 0 0 -887.82704 16.51408" />
    <path d="M 764.82973 -317.35677 A 914.4 747.44896 312.00688 0 0 763.11967 -360.42937" />
    <path d="M 736.52576 -515.64557 A 914.4 747.44896 312.00688 0 0 725.12163 -551.98594" />
    <path d="M 568.28667 -802.28987 A 914.4 747.44896 312.00688 0 0 550.43597 -819.02592 L 540.16309 -828.27789" />
    <path d="M 550.43597 -819.02592 A 914.4 747.44896 312.00688 0 0 531.92953 -835.03389" />
    <path d="M 349.15802 -999.64184 A 914.4 747.44896 132.00688 0 1 367.66446 -983.63387" />
    <path d="M -233.35965 -1133.35002 A 914.4 747.44896 132.00688 0 1 332.36357 -1013.09911" />
    <path d="M -820.90389 -780.11523 A 914.4 747.44896 132.00688 0 1 -255.1153 -1128.95579" />
    <path d="M -1070.59854 -148.09387 A 914.4 747.44896 132.00688 0 1 -836.24364 -761.66454" />
    <path d="M -825.97077 -752.41257 A 914.4 747.44896 312.00688 0 0 -1060.32567 -138.8419" />
    <path d="M 589.85572 -526.23575 A 914.4 747.44896 312.00688 0 0 579.96685 -602.29604" />
    <path d="M 564.02712 -671.00155 A 914.4 747.44896 312.00688 0 0 552.62299 -707.34192" />
    <path d="M 395.78804 -957.64585 A 914.4 747.44896 312.00688 0 0 377.93733 -974.3819 L 367.66446 -983.63387" />
    <path d="M 377.93733 -974.3819 A 914.4 747.44896 312.00688 0 0 359.4309 -990.38987" />
    <path d="M 176.65939 -1154.99782 A 914.4 747.44896 132.00688 0 1 195.16582 -1138.98985" />
    <path d="M -405.85828 -1288.706 A 914.4 747.44896 132.00688 0 1 159.86494 -1168.45509" />
    <path d="M -993.40253 -935.4712 A 914.4 747.44896 132.00688 0 1 -427.61393 -1284.31177" />
    <path d="M -1243.09718 -303.44985 A 914.4 747.44896 132.00688 0 1 -1008.74227 -917.02052" />
    <path d="M -998.4694 -907.76855 A 914.4 747.44896 312.00688 0 0 -1232.82431 -294.19788" />
    <path d="M 417.35708 -681.59173 A 914.4 747.44896 312.00688 0 0 407.46822 -757.65202" />
    <path d="M 391.52849 -826.35753 A 914.4 747.44896 312.00688 0 0 380.12436 -862.6979" />
    <path d="M 223.2894 -1113.00183 A 914.4 747.44896 312.00688 0 0 205.4387 -1129.73788 L 195.16582 -1138.98985" />
    <path d="M 205.4387 -1129.73788 A 914.4 747.44896 312.00688 0 0 186.93226 -1145.74585" />
    <path d="M 110.39541 1002.23863 L 340.58347 955.73588" />
    <path d="M 110.39541 1002.23863 L 110.39541 1221.11901 L 111.08026 1221.73581 L 341.26833 1175.23306 L 341.26833 956.35268 L 340.58347 955.73588" />
    <path d="M 279.43836 1222.27738 A 12.5 5.33186 180 0 0 304.43836 1222.27738 L 304.43836 1187.34511" />
    <path d="M 98.68605 1258.79309 A 12.5 5.33186 180 0 0 123.68605 1258.79309 L 123.68605 1223.86081" />
    <path d="M 1346.85907 206.7529 L 1346.85907 228.46004" />
    <path d="M 1097.14358 -324.42764 L 1112.48092 -312.17683" />
    <path d="M 509.61438 -440.29502 L 531.30466 -444.67691" />
    <path d="M -71.56187 -72.9757 L -56.22453 -91.42343" />
    <path d="M -305.94003 562.35965 L -305.94003 540.6525" />
    <path d="M 111.08026 1002.85543 L 341.26833 956.35268" />
    <path d="M 110.39541 1002.23863 L 111.08026 1002.85543" />
    <path d="M 111.08026 1221.73581 L 111.08026 1002.85543" />
    <path d="M 158.39218 1147.05639 L 158.39218 1201.32425 L 159.89031 1202.6735 L 295.45454 1175.28672 L 295.45454 1121.01886 L 159.89031 1148.40564 L 159.89031 1202.6735" />
    <path d="M 293.95641 1119.66961 L 158.39218 1147.05639 L 159.89031 1148.40564" />
    <path d="M 293.95641 1119.66961 L 295.45454 1121.01886" />
    <path d="M 554.66737 674.63359 L 597.43445 665.99376" />
    <path d="M 661.93301 652.96371 L 696.52901 645.97461" />
    <path d="M 640.50084 390.45588 L 647.757 423.5479" />
    <path d="M 667.70956 514.54233 L 696.52901 645.97461" />
    <path d="M -643.52341 916.69291 L -786.99555 945.67725 L -861.90191 604.06378 L -1011.71462 469.13923 L -1086.62097 675.82816 L -786.99555 945.67725" />
    <path d="M -718.42976 575.07944 L -861.90191 604.06378" />
    <path d="M -643.52341 916.69291 L -718.42976 575.07944 L -868.24247 440.15489 L -1011.71462 469.13923" />
    <path d="M 889.80279 1052.88042 L 897.2763 1059.61123" />
    <path d="M -182.19533 981.78321 L -182.19533 1061.71042" />
    <path d="M -349.2057 251.78351 L -467.89863 144.88611" />
    <path d="M -521.70434 96.42754 L -640.39727 -10.46987" />
    <path d="M -694.20297 -58.92844 L -812.8959 -165.82585" />
    <path d="M -866.70161 -214.28442 L -868.26437 -215.69188" />
    <path d="M 279.43836 1222.27738 L 279.43836 1192.39563" />
    <path d="M 98.68605 1258.79309 L 98.68605 1221.97926" />
</svg>