<svg version="1.1" xmlns="http://www.w3.org/2000/svg" viewBox="-2601.9830628482687 -1011.0608753405429 4674.413335106725 2642.0688832238498" fill="none" stroke="black" stroke-width="0.6%" vector-effect="non-scaling-stroke">
    <path d="M 1905.04419 798.15322 L 1175.55977 763.30452" />
    <path d="M 1582.22549 573.35987 L 1905.04419 798.15322" />
    <path d="M 1582.22549 573.35987 L 1648.81247 542.25855" />
    <path d="M 2024.48913 803.85931 L 1648.81247 542.25855" />
    <path d="M 2071.43027 806.10177 L 2024.48913 803.85931" />
    <path d="M 2061.63706 829.72711 L 2071.43027 806.10177 L 2071.43027 900.16316" />
    <path d="M 2068.56216 834.54937 L 2061.63706 829.72711" />
    <path d="M 2058.98082 836.13508 L 2068.56216 834.54937 L 2068.56216 928.61076" />
    <path d="M 2057.49547 839.71837 L 2058.98082 836.13508" />
    <path d="M 2041.8466 838.9708 L 2057.49547 839.71837 L 2057.49547 933.77977 L 2058.98082 930.19647 L 2068.56216 928.61076" />
    <path d="M 1978.67501 849.42572 L 2041.8466 838.9708 L 2041.8466 933.03219 L 2057.49547 933.77977" />
    <path d="M 1957.90215 834.96063 L 1978.67501 849.42572 L 1978.67501 943.48711 L 2041.8466 933.03219" />
    <path d="M 1108.97279 794.40584 L 1957.90215 834.96063" />
    <path d="M 1108.97279 794.40584 L 1175.55977 763.30452" />
    <path d="M 1582.22549 667.42126 L 1760.01615 791.22499" />
    <path d="M 1582.22549 573.35987 L 1582.22549 667.42126" />
    <path d="M 1020.49164 536.19825 A 914.4 505.67545 103.86015 0 1 841.29114 -21.17986 L 411.27227 -127.2814" />
    <path d="M 1020.49164 536.19825 L 1020.49164 931.29982 L 1111.89594 888.60688" />
    <path d="M 1361.17969 772.1719 L 1583.51907 668.32204" />
    <path d="M 1730.95484 599.45802 L 1737.29363 596.49731 L 1737.29363 201.39574" />
    <path d="M 1916.49412 -523.38362 A 914.4 505.67545 103.86015 0 1 1737.29363 201.39574" />
    <path d="M 1916.49412 -523.38362 L 1711.04081 -427.42088 L 1662.50602 -439.39621 L 1832.68364 -518.88245 L -42.70063 -981.60905 A 854.4 472.49465 103.86015 0 1 -114.6845 -533.44526" />
    <path d="M 1711.04081 -427.42088 A 565.15 312.53552 103.86015 0 1 1243.50937 262.16268 A 565.15 312.53552 103.86015 0 1 1046.74445 -117.1426 L 998.20966 -129.11793" />
    <path d="M 1046.74445 -117.1426 L 841.29114 -21.17986" />
    <path d="M 1108.97279 794.40584 L 1108.97279 888.46723 L 1957.90215 929.02202 L 1978.67501 943.48711" />
    <path d="M 2068.56216 907.08226 L 2071.43027 900.16316" />
    <path d="M 2058.98082 930.19647 L 2058.98082 836.13508" />
    <path d="M 1957.90215 929.02202 L 1957.90215 834.96063" />
    <path d="M 428.97965 390.25039 L 1020.49164 536.19825" />
    <path d="M 828.03204 -49.63169 L 403.50896 -154.37722" />
    <path d="M 828.03204 -49.63169 L 998.20966 -129.11793" />
    <path d="M 1662.50602 -439.39621 A 565.15 312.53552 103.86015 0 1 1219.67563 254.41745" />
    <path d="M -321.02581 -851.60945 L -42.70063 -981.60905" />
    <path d="M -321.02581 -851.60945 L -369.5606 -863.58478 L -369.5606 -596.33261" />
    <path d="M -55.95973 -1010.06087 L -369.5606 -863.58478" />
    <path d="M 1916.49412 -523.38362 L -55.95973 -1010.06087" />
    <path d="M 326.94746 760.17685 L 1020.49164 931.29982" />
    <path d="M -321.02581 -584.35728 L -321.02581 -851.60945" />
    <path d="M 1065.1364 34.9733 L 1458.55391 132.04393" />
    <path d="M 435.22384 1484.67412 L -294.26058 1449.82541" />
    <path d="M 112.40514 1259.88076 L 435.22384 1484.67412" />
    <path d="M 112.40514 1259.88076 L 178.99212 1228.77944" />
    <path d="M 554.66878 1490.38021 L 178.99212 1228.77944" />
    <path d="M 601.60992 1492.62266 L 554.66878 1490.38021" />
    <path d="M 591.81671 1516.248 L 601.60992 1492.62266 L 601.60992 1586.68406" />
    <path d="M 598.74181 1521.07026 L 591.81671 1516.248" />
    <path d="M 589.16047 1522.65597 L 598.74181 1521.07026 L 598.74181 1615.13165" />
    <path d="M 587.67512 1526.23927 L 589.16047 1522.65597" />
    <path d="M 572.02625 1525.49169 L 587.67512 1526.23927 L 587.67512 1620.30066 L 589.16047 1616.71737 L 598.74181 1615.13165" />
    <path d="M 508.85466 1535.94661 L 572.02625 1525.49169 L 572.02625 1619.55309 L 587.67512 1620.30066" />
    <path d="M 488.0818 1521.48153 L 508.85466 1535.94661 L 508.85466 1630.00801 L 572.02625 1619.55309" />
    <path d="M -360.84756 1480.92673 L 488.0818 1521.48153" />
    <path d="M -360.84756 1480.92673 L -294.26058 1449.82541" />
    <path d="M 112.40514 1353.94216 L 290.1958 1477.74588" />
    <path d="M 112.40514 1259.88076 L 112.40514 1353.94216" />
    <path d="M -449.32871 1222.71914 L -449.32871 1617.82072 L -357.92441 1575.12777" />
    <path d="M -108.64066 1458.69279 L 113.69872 1354.84293" />
    <path d="M 261.13449 1285.97891 L 267.47328 1283.01821 L 267.47328 887.91664" />
    <path d="M -449.32871 1222.71914 A 914.4 505.67545 103.86015 0 1 128.11936 -473.53657 L -1844.33449 -960.21382 A 914.4 505.67545 283.86015 0 0 -2421.78256 736.04189 L -2421.78256 1131.14347 L -2160.39369 1195.63776" />
    <path d="M 128.11936 -473.53657 A 914.4 505.67545 103.86015 0 1 267.47328 887.91664" />
    <path d="M -360.84756 1480.92673 L -360.84756 1574.98813 L 488.0818 1615.54292 L 508.85466 1630.00801" />
    <path d="M -90.92772 -131.59911 A 565.15 312.53552 103.86015 0 1 44.45554 -148.70587 A 565.15 312.53552 103.86015 0 1 -226.31098 948.68357 A 565.15 312.53552 103.86015 0 1 -90.92772 -131.59911 Z" />
    <path d="M 598.74181 1593.60315 L 601.60992 1586.68406" />
    <path d="M 589.16047 1616.71737 L 589.16047 1522.65597" />
    <path d="M 488.0818 1615.54292 L 488.0818 1521.48153" />
    <path d="M -2421.78256 736.04189 L -449.32871 1222.71914" />
    <path d="M -1528.99113 1351.42811 L -449.32871 1617.82072" />
    <path d="M -1536.66978 968.85867 L -1395.10998 1288.89515" />
    <path d="M -1819.78939 899.0026 L -1536.66978 968.85867" />
    <path d="M 19.75449 -152.93597 A 565.15 312.53552 103.86015 0 1 -250.14472 940.93835" />
    <path d="M -2196.16769 1258.8616 L -2054.60789 1008.68118 L -1771.48828 1078.53725 L -1629.92848 1398.57373 L -2196.16769 1258.8616 Z" />
    <path d="M -2054.60789 1008.68118 L -1819.78939 899.0026" />
    <path d="M -1771.48828 1078.53725 L -1536.66978 968.85867" />
    <path d="M -1629.92848 1398.57373 L -1395.10998 1288.89515" />
    <path d="M -404.68395 721.49419 L -11.26644 818.56483" />
</svg>