<svg version="1.1" xmlns="http://www.w3.org/2000/svg" viewBox="-2601.984755816265 -1011.071709626007 4674.415323053575 2642.0867286055673" fill="none" stroke="black" stroke-width="0.6%" vector-effect="non-scaling-stroke">
    <path d="M 1108.97316 794.40464 L 1175.56034 763.303" />
    <path d="M 1905.04453 798.15266 L 1175.56034 763.303" />
    <path d="M 1582.22726 573.3564 L 1905.04453 798.15266" />
    <path d="M 1582.22726 573.3564 L 1648.81444 542.25476" />
    <path d="M 2024.48944 803.8589 L 1648.81444 542.25476" />
    <path d="M 2071.43057 806.10142 L 2024.48944 803.8589" />
    <path d="M 2061.63721 829.72703 L 2071.43057 806.10142 L 2071.43057 900.16267" />
    <path d="M 2068.56227 834.54935 L 2061.63721 829.72703" />
    <path d="M 2058.98093 836.13508 L 2068.56227 834.54935 L 2068.56227 928.6106" />
    <path d="M 2057.49555 839.71841 L 2058.98093 836.13508" />
    <path d="M 2041.84669 838.97082 L 2057.49555 839.71841 L 2057.49555 933.77966 L 2058.98093 930.19632 L 2068.56227 928.6106" />
    <path d="M 1978.67503 849.42581 L 2041.84669 838.97082 L 2041.84669 933.03206 L 2057.49555 933.77966" />
    <path d="M 1957.90226 834.96054 L 1978.67503 849.42581 L 1978.67503 943.48706 L 2041.84669 933.03206" />
    <path d="M 1108.97316 794.40464 L 1957.90226 834.96054" />
    <path d="M 1020.49174 536.19794 A 914.4 505.67617 103.86037 0 1 841.29072 -21.17832 L 411.26925 -127.28224" />
    <path d="M 1020.49174 536.19794 L 1020.49174 931.29891 L 1111.89628 888.60554" />
    <path d="M 1361.17826 772.17053 L 1583.52082 668.31843" />
    <path d="M 1730.95559 599.45437 L 1737.29586 596.49295 L 1737.29586 201.39199" />
    <path d="M 1916.49689 -523.38725 A 914.4 505.67617 103.86037 0 1 1737.29586 201.39199" />
    <path d="M 1916.49689 -523.38725 L 1711.04297 -427.42352 L 1662.50825 -439.39902 A 565.15 312.53597 103.86037 0 1 1219.67475 254.41584" />
    <path d="M 1711.04297 -427.42352 A 565.15 312.53597 103.86037 0 1 1243.50845 262.16114 A 565.15 312.53597 103.86037 0 1 1046.74464 -117.14204 L 998.20992 -129.11755" />
    <path d="M 1046.74464 -117.14204 L 841.29072 -21.17832" />
    <path d="M 1108.97316 794.40464 L 1108.97316 888.46589 L 1957.90226 929.02179 L 1978.67503 943.48706" />
    <path d="M 1582.22726 573.3564 L 1582.22726 667.41765 L 1760.01912 791.22436" />
    <path d="M 2068.56227 907.08217 L 2071.43057 900.16267" />
    <path d="M 2058.98093 930.19632 L 2058.98093 836.13508" />
    <path d="M 1957.90226 929.02179 L 1957.90226 834.96054" />
    <path d="M 428.97893 390.24748 L 1020.49174 536.19794" />
    <path d="M 828.0318 -49.63049 L 403.50557 -154.37851" />
    <path d="M 828.0318 -49.63049 L 998.20992 -129.11755" />
    <path d="M 1662.50825 -439.39902 L 1832.68638 -518.88608 L -42.69496 -981.61953 A 854.4 472.49532 103.86037 0 1 -114.42658 -534.24553 L -115.645 -533.67642" />
    <path d="M -321.02096 -851.6186 L -42.69496 -981.61953" />
    <path d="M -321.02096 -851.6186 L -369.55568 -863.5941 L -369.55568 -596.3266" />
    <path d="M -55.95388 -1010.07171 L -369.55568 -863.5941" />
    <path d="M 1916.49689 -523.38725 L -55.95388 -1010.07171" />
    <path d="M 326.94826 760.1733 L 1020.49174 931.29891" />
    <path d="M 1155.47654 211.29561 L 1156.91977 210.62151 A 45 24.88564 103.86037 0 1 1167.69981 209.25936 L 1148.99091 204.64311" />
    <path d="M 1167.69981 209.25936 A 45 24.88564 103.86037 0 1 1183.0785 234.3945" />
    <path d="M 1179.83245 -214.89877 L -114.42658 -534.24553" />
    <path d="M 1179.83245 -214.89877 A 854.4 472.49532 103.86037 0 1 1166.65809 -175.53096" />
    <path d="M 1065.13488 34.96628 L 1319.98178 97.84746" />
    <path d="M 1379.98178 112.65192 L 1458.55704 132.03966" />
    <path d="M -321.02096 -584.35109 L -321.02096 -851.6186" />
    <path d="M 1179.83245 -214.89877 L 922.6761 -94.78579" />
    <path d="M 917.10608 -91.23544 A 45 24.88564 103.86037 0 1 922.6761 -94.78579" />
    <path d="M 1047.43926 -94.52913 L 1166.65809 -175.53096" />
    <path d="M 401.05372 -162.27836 L 838.25124 -54.40381" />
    <path d="M 1274.6043 141.66146 L 1146.21252 201.63089" />
    <path d="M 1414.73978 176.23863 L 1379.98178 167.66241" />
    <path d="M 1319.98178 152.85795 L 1274.6043 141.66146" />
    <path d="M 1374.24914 193.10729 A 30 10.18447 360 0 1 1319.98178 187.11954" />
    <path d="M 1379.98178 187.11954 A 30 10.18447 360 0 1 1374.24914 193.10729" />
    <path d="M 1374.24914 -89.07645 A 30 10.18447 360 0 1 1319.98178 -95.0642 L 1319.98178 187.11954" />
    <path d="M 1319.98178 -95.0642 A 30 10.18447 360 1 1 1379.98178 -95.0642 L 1379.98178 187.11954" />
    <path d="M 1379.98178 -95.0642 A 30 10.18447 360 0 1 1374.24914 -89.07645" />
    <path d="M -360.85155 1480.9326 L -294.26437 1449.83096" />
    <path d="M 435.21982 1484.68061 L -294.26437 1449.83096" />
    <path d="M 112.40256 1259.88436 L 435.21982 1484.68061" />
    <path d="M 112.40256 1259.88436 L 178.98973 1228.78272" />
    <path d="M 554.66473 1490.38685 L 178.98973 1228.78272" />
    <path d="M 601.60586 1492.62937 L 554.66473 1490.38685" />
    <path d="M 591.8125 1516.25499 L 601.60586 1492.62937 L 601.60586 1586.69062" />
    <path d="M 598.73756 1521.07731 L 591.8125 1516.25499" />
    <path d="M 589.15622 1522.66303 L 598.73756 1521.07731 L 598.73756 1615.13855" />
    <path d="M 587.67084 1526.24637 L 589.15622 1522.66303" />
    <path d="M 572.02198 1525.49877 L 587.67084 1526.24637 L 587.67084 1620.30761 L 589.15622 1616.72428 L 598.73756 1615.13855" />
    <path d="M 508.85032 1535.95377 L 572.02198 1525.49877 L 572.02198 1619.56002 L 587.67084 1620.30761" />
    <path d="M 488.07755 1521.48849 L 508.85032 1535.95377 L 508.85032 1630.01502 L 572.02198 1619.56002" />
    <path d="M -360.85155 1480.9326 L 488.07755 1521.48849" />
    <path d="M -449.33296 1222.7259 L -449.33296 1617.82686 L -357.92843 1575.13349" />
    <path d="M -108.64644 1458.69849 L 113.69612 1354.84639" />
    <path d="M 261.13088 1285.98233 L 267.47115 1283.02091 L 267.47115 887.91995" />
    <path d="M -449.33296 1222.7259 A 914.4 505.67617 103.86037 0 1 128.11955 -473.52971 L -1844.33121 -960.21418 A 914.4 505.67617 283.86037 0 0 -2421.78373 736.04144 L -2421.78373 1131.1424 L -2160.39508 1195.63769" />
    <path d="M 128.11955 -473.52971 A 914.4 505.67617 103.86037 0 1 267.47115 887.91995" />
    <path d="M -360.85155 1480.9326 L -360.85155 1574.99385 L 488.07755 1615.54974 L 508.85032 1630.01502" />
    <path d="M 112.40256 1259.88436 L 112.40256 1353.9456 L 290.19441 1477.75231" />
    <path d="M -90.93091 -131.59225 A 565.15 312.53597 103.86037 0 1 44.45445 -148.69931 A 565.15 312.53597 103.86037 0 1 -226.31626 948.6891 A 565.15 312.53597 103.86037 0 1 -90.93091 -131.59225 Z" />
    <path d="M 598.73756 1593.61013 L 601.60586 1586.69062" />
    <path d="M 589.15622 1616.72428 L 589.15622 1522.66303" />
    <path d="M 488.07755 1615.54974 L 488.07755 1521.48849" />
    <path d="M -2421.78373 736.04144 L -449.33296 1222.7259" />
    <path d="M -1528.99229 1351.43065 L -449.33296 1617.82686" />
    <path d="M -1536.67233 968.86143 L -1395.11275 1288.89799" />
    <path d="M -1819.79149 899.00433 L -1536.67233 968.86143" />
    <path d="M 19.75343 -152.92951 A 565.15 312.53597 103.86037 0 1 -250.14996 940.9438" />
    <path d="M -2196.17027 1258.86349 L -2054.61069 1008.68403 L -1771.49153 1078.54114 L -1629.93195 1398.5777 L -2196.17027 1258.86349 Z" />
    <path d="M -2054.61069 1008.68403 L -1819.79149 899.00433" />
    <path d="M -1771.49153 1078.54114 L -1536.67233 968.86143" />
    <path d="M -1629.93195 1398.5777 L -1395.11275 1288.89799" />
    <path d="M -314.34817 897.82357 L -312.90494 897.14946 A 45 24.88564 103.86037 0 1 -302.12489 895.78732 L -320.8338 891.17106" />
    <path d="M -302.12489 895.78732 A 45 24.88564 103.86037 0 1 -286.74621 920.92245" />
    <path d="M -289.99225 471.62919 L -415.85054 440.57479" />
    <path d="M -289.99225 471.62919 A 854.4 472.49532 103.86037 0 1 -303.16662 510.99699" />
    <path d="M -404.68983 721.49424 L -149.84293 784.37541" />
    <path d="M -89.84293 799.17987 L -11.26766 818.56761" />
    <path d="M -289.99225 471.62919 L -422.93155 533.72268" />
    <path d="M -422.38545 591.99883 L -303.16662 510.99699" />
    <path d="M -195.22041 828.18942 L -323.61218 888.15884" />
    <path d="M -55.08493 862.76659 L -89.84293 854.19036" />
    <path d="M -149.84293 839.3859 L -195.22041 828.18942" />
    <path d="M -95.57557 879.63525 A 30 10.18447 360 0 1 -149.84293 873.6475" />
    <path d="M -89.84293 873.6475 A 30 10.18447 360 0 1 -95.57557 879.63525" />
    <path d="M -95.57557 597.45151 A 30 10.18447 360 0 1 -149.84293 591.46375 L -149.84293 873.6475" />
    <path d="M -149.84293 591.46375 A 30 10.18447 360 1 1 -89.84293 591.46375 L -89.84293 873.6475" />
    <path d="M -89.84293 591.46375 A 30 10.18447 360 0 1 -95.57557 597.45151" />
    <path d="M 1154.09879 209.92546 L 1156.91977 210.62151" />
    <path d="M 376.21662 -229.61974 L 922.6761 -94.78579" />
    <path d="M -315.72592 896.45341 L -312.90494 897.14946" />
</svg>