<svg version="1.1" xmlns="http://www.w3.org/2000/svg" viewBox="-1481.1715737143497 -1503.1951371792277 2829.0431754641795 3158.638114105196" fill="none" stroke="black" stroke-width="0.6%" vector-effect="non-scaling-stroke">
    <path d="M 972.44296 1214.62708 L 976.37044 1218.16412 L 1013.66811 1210.62824 L 1013.66811 1137.85706" />
    <path d="M 976.37044 1145.39294 L 976.37044 1218.16412" />
    <path d="M 976.35974 1213.83571 L 976.35974 1147.81048 L 974.16918 1145.83769" />
    <path d="M -80.91635 1354.87131 L -95.67707 1357.85367 L -95.67707 1341.57799 L -93.30987 1343.70987" />
    <path d="M -22.93409 1343.1607 L 966.71207 1143.20587" />
    <path d="M -346.28515 241.28856 L -358.19042 243.69398" />
    <path d="M -883.69931 349.87136 L -903.23376 353.81824" />
    <path d="M -967.73219 366.84994 L -1075.74417 388.67341" />
    <path d="M -1139.47209 417.8251 L -1139.47209 401.54943 L -1141.83929 399.41756 L -1141.83929 390.61269 L -1146.11995 386.75759 L -1146.11995 395.56246 L -1157.9902 384.87225 L -1157.9902 102.84847" />
    <path d="M -61.80235 1423.59303 L -8.84994 1412.89416" />
    <path d="M 810.30309 1654.44298 L -8.84994 1412.89416" />
    <path d="M 822.0312 1647.20585 L 810.30309 1654.44298 L 810.30309 1588.41775 L 822.0312 1581.18062 L 842.58816 1581.89465 L 923.40733 1158.50934 L 976.35974 1147.81048" />
    <path d="M 842.58816 1647.91988 L 822.0312 1647.20585" />
    <path d="M 842.58816 1647.91988 L 923.40733 1224.53457 L 923.40733 1158.50934" />
    <path d="M 923.40733 1224.53457 L 976.35974 1213.83571" />
    <path d="M 167.06493 1377.35113 L 867.25155 1235.88067" />
    <path d="M 810.30309 1588.41775 L -8.84994 1346.86893 L -8.84994 1412.89416" />
    <path d="M -61.80235 1357.5678 L -8.84994 1346.86893" />
    <path d="M 34.19682 1338.17147 L 880.36056 1167.2068" />
    <path d="M 804.3735 1565.27832 L 34.19682 1338.17147" />
    <path d="M 804.3735 1565.27832 L 880.36056 1167.2068" />
    <path d="M 1024.69023 847.6095 L 1024.69023 1135.63008 L 970.46537 1146.58604 L 970.46537 833.79885" />
    <path d="M 918.9454 1040.39762 L 834.43222 964.28612 L 780.20736 975.24208 L 780.20736 662.4549" />
    <path d="M 834.43222 676.26555 L 834.43222 964.28612" />
    <path d="M 769.93379 906.19965 L 661.92181 808.92543 L 607.69695 819.88139 L 607.69695 507.09421" />
    <path d="M 661.92181 520.90486 L 661.92181 808.92543" />
    <path d="M 597.42337 750.83896 L 550.50225 708.58239" />
    <path d="M -1139.47209 415.57839 L -1146.9638 417.09206 L -1146.9638 491.75484 L -1051.192 578.0057" />
    <path d="M -1146.9638 417.09206 L -1030.79028 521.71646" />
    <path d="M -656.15392 859.10922 L -99.08932 1360.79454 L -99.08932 1435.45731 L -61.79165 1427.92144 L -61.79165 1355.15026" />
    <path d="M -78.87448 1356.71019 L -99.08932 1360.79454" />
    <path d="M -95.67707 1357.85367 L -657.79723 851.61538" />
    <path d="M -1029.14698 517.1825 L -1139.47209 417.8251" />
    <path d="M -1129.96903 410.10776 L -1129.96903 128.08398" />
    <path d="M -1024.69963 504.91206 L -1129.96903 410.10776" />
    <path d="M -967.73219 460.24387 L -967.73219 274.19242" />
    <path d="M -957.45862 458.16813 L -957.45862 283.44467" />
    <path d="M -795.22178 505.92544 L -795.22178 429.55311" />
    <path d="M -784.94821 515.17769 L -784.94821 438.80536" />
    <path d="M -622.71137 866.93759 L -662.24458 831.33448" />
    <path d="M -622.71137 866.93759 L -622.71137 584.9138" />
    <path d="M -612.43779 876.18984 L -612.43779 594.16605" />
    <path d="M -450.20095 1022.29828 L -612.43779 876.18984" />
    <path d="M -450.20095 1022.29828 L -450.20095 740.27449" />
    <path d="M -439.92738 1031.55053 L -439.92738 749.52674" />
    <path d="M -277.69054 1177.65897 L -439.92738 1031.55053" />
    <path d="M -277.69054 1177.65897 L -277.69054 895.63518" />
    <path d="M -267.41697 1186.91122 L -267.41697 904.88743" />
    <path d="M -105.18013 1333.01966 L -267.41697 1186.91122" />
    <path d="M -105.18013 1333.01966 L -105.18013 1050.99587" />
    <path d="M -77.15896 1358.25517 L -77.15896 1076.23139" />
    <path d="M -77.15896 1358.25517 L -89.02921 1347.56497 L -89.02921 1338.7601 L -93.30987 1334.90499 L -93.30987 1343.70987" />
    <path d="M -89.02921 1342.84497 L -93.30987 1343.70987" />
    <path d="M -213.19211 1175.95526 L -267.41697 1186.91122" />
    <path d="M -385.70252 1020.59457 L -439.92738 1031.55053" />
    <path d="M -558.21293 865.23388 L -612.43779 876.18984" />
    <path d="M -1075.74417 399.1518 L -1129.96903 410.10776" />
    <path d="M 597.42337 810.62914 L 607.69695 819.88139" />
    <path d="M 769.93379 965.98983 L 780.20736 975.24208" />
    <path d="M -346.03191 240.38779 L -358.96093 243.00006" />
    <path d="M -884.46983 349.17745 L -903.23376 352.96864" />
    <path d="M -967.73219 366.00034 L -1075.74417 387.82381" />
    <path d="M 822.0312 1581.18062 L 822.0312 1647.20585" />
    <path d="M 842.58816 1581.89465 L 842.58816 1647.91988" />
    <path d="M -669.33442 921.9018 L -99.08932 1435.45731" />
    <path d="M 889.81693 1052.86617 A 75 61.30495 312.0058 0 0 952.71777 997.59677 A 75 61.30495 312.0058 0 0 957.46426 975.62344 L 960.1918 978.07983" />
    <path d="M 889.81693 1052.86617 L 428.90561 1145.99182 L 436.37963 1152.72284 L 897.29096 1059.59718" />
    <path d="M 382.62135 1137.06613 A 75 61.30495 312.0058 0 0 428.90561 1145.99182" />
    <path d="M 942.4442 1017.14816 L 942.4442 808.56334 A 854.4 698.38597 312.0058 0 0 957.59801 792.42121" />
    <path d="M 942.4442 808.56334 L 952.71777 817.81559" />
    <path d="M 952.71777 997.59677 L 952.71777 817.81559" />
    <path d="M -213.19211 953.72166 L -213.19211 1175.95526" />
    <path d="M -385.70252 798.36096 L -385.70252 1020.59457" />
    <path d="M -558.21293 643.00027 L -558.21293 865.23388" />
    <path d="M -730.72334 487.63958 L -730.72334 564.01191" />
    <path d="M -903.23376 332.27889 L -903.23376 447.21217" />
    <path d="M -1075.74417 176.9182 L -1075.74417 399.1518" />
    <path d="M 597.42337 497.84196 A 854.4 698.38597 312.0058 0 0 646.72465 442.64123 A 854.4 698.38597 312.0058 0 0 703.40081 367.85512" />
    <path d="M 597.42337 810.62914 L 597.42337 497.84196 L 607.69695 507.09421" />
    <path d="M 685.74199 493.90991 A 914.4 747.42992 132.0058 0 1 661.92181 520.90486" />
    <path d="M 656.99822 451.89347 L 649.32967 461.11744" />
    <path d="M 656.99822 451.89347 A 854.4 698.38597 132.0058 0 1 607.69695 507.09421" />
    <path d="M 769.93379 653.20265 A 854.4 698.38597 312.0058 0 0 819.23506 598.00192 A 854.4 698.38597 312.0058 0 0 1045.39608 5.87836 A 854.4 698.38597 312.0058 0 0 1040.53769 -79.69082" />
    <path d="M 769.93379 965.98983 L 769.93379 653.20265 L 780.20736 662.4549" />
    <path d="M 858.2524 649.2706 A 914.4 747.42992 132.0058 0 1 834.43222 676.26555" />
    <path d="M 829.50863 607.25417 L 821.84008 616.47813 L 957.59801 738.74" />
    <path d="M 829.50863 607.25417 A 854.4 698.38597 132.0058 0 1 780.20736 662.4549" />
    <path d="M 64.90717 -1157.56814 A 854.4 698.38597 132.0058 0 1 83.81267 -1129.53662" />
    <path d="M 125.55483 -1051.45352 A 854.4 698.38597 132.0058 0 1 148.98432 -990.41101" />
    <path d="M 166.90424 -923.91038 A 854.4 698.38597 132.0058 0 1 180.32863 -832.74117" />
    <path d="M 182.83903 -768.1472 A 854.4 698.38597 132.0058 0 1 182.746 -758.59305" />
    <path d="M 178.11549 -684.57985 A 854.4 698.38597 132.0058 0 1 171.78808 -638.39058" />
    <path d="M 156.49013 -565.43277 A 854.4 698.38597 132.0058 0 1 109.83677 -428.17264" />
    <path d="M -1221.72339 -484.21939 A 700 572.17951 132.0058 0 1 -1057.00537 -960.45924" />
    <path d="M -1040.25989 -981.54406 A 700 572.17951 132.0058 0 1 -476.78302 -1274.37314" />
    <path d="M -267.0395 -1238.53563 A 700 572.17951 132.0058 0 1 -120.87394 -1148.7687 A 700 572.17951 132.0058 0 1 -118.90326 -1146.98376" />
    <path d="M -60.53393 -1083.00047 A 700 572.17951 132.0058 0 1 -3.86319 -986.78939" />
    <path d="M 19.27285 -924.42601 A 700 572.17951 132.0058 0 1 26.0816 -899.68302" />
    <path d="M 41.17606 -807.90576 A 700 572.17951 132.0058 0 1 41.30349 -806.35696" />
    <path d="M 43.10027 -740.27213 A 700 572.17951 132.0058 0 1 17.70675 -572.98428" />
    <path d="M -13.83021 -481.95625 A 700 572.17951 132.0058 0 1 -39.14777 -427.24037 L -46.6218 -433.97138 A 700 572.17951 312.0058 0 0 -28.07202 -472.96309" />
    <path d="M -269.14556 -147.2567 A 700 572.17951 132.0058 0 1 -391.85199 -67.02619" />
    <path d="M -479.51445 -27.29116 A 700 572.17951 132.0058 0 1 -618.06128 9.65757" />
    <path d="M -29.86844 -429.11523 L -39.14777 -427.24037" />
    <path d="M -22.93409 1347.29921 L -77.15896 1358.25517" />
    <path d="M 960.1918 1137.33379 L -22.93409 1335.97122" />
    <path d="M 960.1918 1137.33379 L 970.46537 1146.58604" />
    <path d="M 1048.51041 820.61456 A 914.4 747.42992 132.0058 0 1 1024.69023 847.6095" />
    <path d="M 1019.76664 778.59812 L 1012.09809 787.82208" />
    <path d="M 1019.76664 778.59812 A 854.4 698.38597 132.0058 0 1 970.46537 833.79885" />
    <path d="M -1141.83929 394.69756 L -1146.11995 395.56246" />
    <path d="M -22.93409 1034.51203 A 854.4 698.38597 132.0058 0 1 -72.23537 999.23363 L -79.90392 993.10848 L -118.19637 1039.16777" />
    <path d="M -64.56682 1005.35878 L -72.23537 999.23363 A 854.4 698.38597 132.0058 0 1 -98.00381 977.37249 A 854.4 698.38597 132.0058 0 1 -295.87751 560.35886" />
    <path d="M -22.93409 1034.51203 L -22.93409 1042.85268" />
    <path d="M -22.93409 1053.5514 L -22.93409 1347.29921" />
    <path d="M 957.59801 812.6916 A 854.4 698.38597 132.0058 0 1 952.71777 817.81559" />
    <path d="M 960.1918 1004.32778 A 75 61.30495 132.0058 0 1 897.29096 1059.59718" />
    <path d="M 436.37963 1152.72284 A 75 61.30495 132.0058 0 1 386.1892 1140.61948 A 75 61.30495 132.0058 0 1 369.13303 1106.97753" />
    <path d="M 368.59856 1098.58364 L 369.13303 1106.97753" />
    <path d="M 368.59856 1098.58364 L 368.59856 -212.8764" />
    <path d="M 368.73231 -217.16277 L 368.59856 -212.8764" />
    <path d="M 368.73231 -217.16277 A 75 61.30495 132.0058 0 1 436.37963 -294.40549" />
    <path d="M 897.29096 -387.53115 L 436.37963 -294.40549" />
    <path d="M 954.6617 -359.27914 A 75 61.30495 132.0058 0 1 957.06354 -348.51685 L 957.59801 -340.12297 L 965.07203 -333.39196 L 965.07203 -153.07326 A 500 408.69965 132.0058 0 1 1001.4382 -124.61099 A 500 408.69965 132.0058 0 1 965.07203 526.41283 L 965.07203 819.42261" />
    <path d="M 957.06354 -348.51685 L 964.53756 -341.78584" />
    <path d="M 897.29096 -387.53115 A 75 61.30495 132.0058 0 1 899.95788 -388.01746" />
    <path d="M 961.13782 -355.37126 A 75 61.30495 132.0058 0 1 964.53756 -341.78584" />
    <path d="M -172.39911 1080.26364 L -105.18013 1140.80021" />
    <path d="M -182.17835 1061.71155 A 101.6 43.33937 180 0 0 -172.39911 1080.26364 L -172.39911 991.04017" />
    <path d="M 957.59801 971.33708 L 957.59801 812.6916 L 957.59801 519.68181 L 965.07203 526.41283" />
    <path d="M 957.59801 971.33708 L 957.46426 975.62344" />
    <path d="M -56.19051 1093.5532 L -17.84774 1047.43338 L -33.18485 1035.18308 L -79.90392 993.10848" />
    <path d="M -17.84774 1047.43338 L -64.56682 1005.35878" />
    <path d="M 957.59801 -334.26566 A 854.4 698.38597 312.0058 0 0 934.496 -370.73323" />
    <path d="M -326.14722 768.56578 A 854.4 698.38597 132.0058 0 1 -485.0458 401.04983" />
    <path d="M -488.5794 316.37042 A 854.4 698.38597 132.0058 0 1 -271.93942 -253.43879" />
    <path d="M -254.77361 -274.14507 A 854.4 698.38597 132.0058 0 1 272.73091 -599.37039" />
    <path d="M 345.85714 -611.69723 A 854.4 698.38597 132.0058 0 1 814.06627 -497.51188" />
    <path d="M 940.71765 -367.31173 A 854.4 698.38597 132.0058 0 1 957.46782 -342.16766" />
    <path d="M 1051.56082 -63.65328 A 854.4 698.38597 132.0058 0 1 1055.66966 15.13061 L 1055.66966 25.98407 L 1103.94381 69.45916" />
    <path d="M 1055.66966 15.13061 A 854.4 698.38597 132.0058 0 1 829.50863 607.25417" />
    <path d="M -498.65763 613.20509 A 854.4 698.38597 132.0058 0 1 -527.79492 578.9841" />
    <path d="M -1283.3944 -146.67475 A 854.4 698.38597 132.0058 0 1 -1347.59787 -375.75362" />
    <path d="M -1351.13146 -460.43304 A 854.4 698.38597 132.0058 0 1 -1134.49149 -1030.24225" />
    <path d="M -1117.32568 -1050.94853 A 854.4 698.38597 132.0058 0 1 -589.82115 -1376.17385" />
    <path d="M -516.69493 -1388.50069 A 854.4 698.38597 132.0058 0 1 -48.48579 -1274.31533" />
    <path d="M 71.02717 -1154.03376 A 854.4 698.38597 132.0058 0 1 88.88829 -1128.34446" />
    <path d="M 132.71991 -1049.07959 A 854.4 698.38597 132.0058 0 1 156.36538 -989.81753" />
    <path d="M 175.33993 -922.94732 A 854.4 698.38597 132.0058 0 1 189.69377 -833.67239" />
    <path d="M 193.08099 -769.18978 A 854.4 698.38597 132.0058 0 1 193.11759 -761.67285 L 193.11759 -750.81939" />
    <path d="M 193.11759 -761.67285 A 854.4 698.38597 132.0058 0 1 193.01958 -749.3408" />
    <path d="M 188.38906 -675.3276 A 854.4 698.38597 132.0058 0 1 184.13343 -642.31892" />
    <path d="M 170.25043 -570.38208 A 854.4 698.38597 132.0058 0 1 125.30552 -431.29805" />
    <path d="M 1097.15993 860.52244 L 1058.81716 829.89669 L 1012.09809 787.82208" />
    <path d="M 811.51529 607.17976 L 649.32967 461.11744" />
    <path d="M 590.70173 408.31786 L 639.00488 451.81907" />
    <path d="M 654.34192 433.37108 L 616.31288 399.1226" />
    <path d="M 725.18763 360.03292 A 854.4 698.38597 132.0058 0 1 656.99822 451.89347" />
    <path d="M 664.66677 442.66951 L 826.85233 588.73177" />
    <path d="M 664.66677 442.66951 L 656.99822 451.89347" />
    <path d="M 957.59801 706.47967 L 837.17719 598.0302 L 829.50863 607.25417" />
    <path d="M 6.60297 -567.04043 A 700 572.17951 312.0058 0 0 35.3345 -737.97747" />
    <path d="M 34.4666 -804.45379 A 700 572.17951 312.0058 0 0 33.70203 -814.63677" />
    <path d="M 18.60758 -906.41403 A 700 572.17951 312.0058 0 0 13.92921 -923.89014" />
    <path d="M -8.16825 -986.26356 A 700 572.17951 312.0058 0 0 -63.05777 -1083.06847" />
    <path d="M -119.1315 -1146.97268 A 700 572.17951 312.0058 0 0 -124.62905 -1152.11412" />
    <path d="M -197.12197 -336.56209 L -71.40095 -223.33934" />
    <path d="M 368.59856 172.91864 L 546.5598 333.18828" />
    <path d="M 953.24626 251.01858 L 546.5598 333.18828" />
    <path d="M 856.58906 163.97033 L 953.24626 251.01858" />
    <path d="M 823.088 170.73912 L 856.58906 163.97033" />
    <path d="M 812.81443 161.48687 L 823.088 170.73912" />
    <path d="M 684.07865 8.60964 L 823.03482 133.75181" />
    <path d="M 650.57759 15.37842 L 684.07865 8.60964" />
    <path d="M 640.30402 6.12617 L 650.57759 15.37842" />
    <path d="M 511.56823 -146.75105 L 650.52441 -21.60888" />
    <path d="M 478.06718 -139.98227 L 511.56823 -146.75105" />
    <path d="M 467.7936 -149.23452 L 478.06718 -139.98227" />
    <path d="M 385.13405 -260.61607 L 478.014 -176.96957" />
    <path d="M 182.72829 -442.90014 L 203.27822 -424.39312" />
    <path d="M 182.72829 -442.90014 L 22.67498 -410.56188 A 700 298.59803 180 0 0 -29.86844 -429.11523" />
    <path d="M -46.47542 -434.25918 A 700 298.59803 180 0 0 -73.45469 -441.96802" />
    <path d="M -152.92804 -460.58463 A 700 298.59803 180 0 0 -374.55186 -486.9804" />
    <path d="M -459.14067 -488.66471 A 700 298.59803 180 0 0 -492.38043 -488.13076" />
    <path d="M -530.90908 -486.66358 A 700 298.59803 180 0 0 -683.73175 -471.46939" />
    <path d="M -766.53115 -456.29765 A 700 298.59803 180 0 0 -966.547 -391.34637" />
    <path d="M -1045.00062 -346.99565 A 700 298.59803 180 0 0 -1129.49955 -260.83414" />
    <path d="M -1149.23308 -197.10881 A 700 298.59803 180 0 0 -1149.42619 -190.09544 A 700 298.59803 180 0 0 -1148.4021 -173.94951" />
    <path d="M -1308.45541 -141.61125 L -1231.64506 -157.13054" />
    <path d="M -1168.28704 -169.93182 L -1148.4021 -173.94951" />
    <path d="M -1308.45541 -141.61125 L -1203.36399 -46.96725" />
    <path d="M -1152.12587 -0.82286 L -1118.62481 -7.59164 A 854.4 698.38597 132.0058 0 1 -1175.08745 -220.39293" />
    <path d="M -1152.12587 -0.82286 L -1030.85358 108.39344" />
    <path d="M -979.61546 154.53784 L -946.1144 147.76905 A 854.4 698.38597 132.0058 0 1 -1002.57704 -65.03224" />
    <path d="M -979.61546 154.53784 L -858.34316 263.75413" />
    <path d="M -807.10505 309.89853 L -773.60399 303.12975 A 854.4 698.38597 132.0058 0 1 -830.06663 90.32845" />
    <path d="M -807.10505 309.89853 L -685.83275 419.11482" />
    <path d="M -634.59463 465.25922 L -601.09357 458.49044 A 854.4 698.38597 132.0058 0 1 -657.55622 245.68914" />
    <path d="M -634.59463 465.25922 L -537.93743 552.30747 L -521.55113 548.99667" />
    <path d="M -458.11108 536.17881 L -379.84577 520.36555" />
    <path d="M -901.76895 -223.78095 L -871.32931 -196.3674" />
    <path d="M -816.86715 -147.31947 L -698.8189 -41.00671" />
    <path d="M -644.35674 8.04122 L -526.30849 114.35398" />
    <path d="M -471.84633 163.40191 L -353.79807 269.71467" />
    <path d="M -270.17789 -351.3919 L -327.65292 -339.77925" />
    <path d="M -360.45219 -333.15227 L -520.8557 -300.74325" />
    <path d="M -603.43465 -284.05844 L -790.78151 -246.2056" />
    <path d="M -861.80594 -231.85535 L -901.76895 -223.78095" />
    <path d="M -1149.42617 -173.7426 A 700 298.59803 0 0 1 -1149.42619 -173.81525 L -1149.42619 -190.09544" />
    <path d="M -288.27092 -331.45606 L -312.8881 -326.48224" />
    <path d="M -345.68737 -319.85526 L -531.97546 -282.21634" />
    <path d="M -613.17158 -265.81093 L -796.2405 -228.82244" />
    <path d="M -866.61628 -214.60324 L -866.99295 -214.52713" />
    <path d="M -625.53531 2.92656 A 700 572.17951 312.0058 0 0 -474.65243 -38.81696" />
    <path d="M -384.24937 -81.97222 A 700 572.17951 312.0058 0 0 -269.14556 -159.95647" />
    <path d="M -33.20767 1025.25978 L -22.93409 1034.51203" />
    <path d="M 960.1918 1137.33379 L 960.1918 1004.32778 L 960.1918 824.5466 A 854.4 698.38597 312.0058 0 0 965.07203 819.42261" />
    <path d="M -103.11259 972.71527 A 854.4 698.38597 312.0058 0 0 -33.20767 1025.25978" />
    <path d="M 71.853 1197.79349 L 71.853 968.06187 L 105.0024 997.91579 L 346.03191 949.21655 L 312.88251 919.36263" />
    <path d="M 71.853 968.06187 L 312.88251 919.36263" />
    <path d="M 960.1918 824.5466 L 970.46537 833.79885" />
    <path d="M 1074.15427 811.44876 L 1027.4352 769.37416 L 1019.76664 778.59812" />
    <path d="M 1074.15427 811.44876 L 1058.81716 829.89669" />
    <path d="M 1062.79368 -275.13314 A 854.4 698.38597 132.0058 0 1 965.07203 819.42261" />
    <path d="M -298.32139 487.71437 A 854.4 698.38597 132.0058 0 1 -81.68141 -82.09484" />
    <path d="M -64.5156 -102.80112 A 854.4 698.38597 132.0058 0 1 462.98892 -428.02644" />
    <path d="M 531.32968 -439.75939 A 854.4 698.38597 132.0058 0 1 1012.9291 -319.63553" />
    <path d="M 1068.28533 -270.74676 A 854.4 698.38597 132.0058 0 1 1245.92767 186.47456 L 1245.92767 197.32802" />
    <path d="M 1245.92767 186.47456 A 854.4 698.38597 132.0058 0 1 1019.76664 778.59812" />
    <path d="M 1039.16384 -378.2218 A 914.4 747.42992 132.0058 0 1 1057.66627 -362.21779" />
    <path d="M 456.65481 -511.91425 A 914.4 747.42992 132.0058 0 1 1022.36937 -391.67874 L 1050.39054 -366.44323 L 1012.09809 -320.38393" />
    <path d="M -130.88043 -158.66831 A 914.4 747.42992 132.0058 0 1 434.89949 -507.51952 L 462.92066 -482.28401 L 462.92066 -428.08791" />
    <path d="M -380.57126 473.35289 A 914.4 747.42992 132.0058 0 1 -146.21995 -140.21743" />
    <path d="M -166.17733 996.72161 A 914.4 747.42992 132.0058 0 1 -380.57021 495.13923" />
    <path d="M 957.59801 -159.80427 L 957.59801 -340.12297" />
    <path d="M 957.59801 519.68181 A 500 408.69965 312.0058 0 0 997.67586 -127.94836" />
    <path d="M 957.59801 971.33708 L 960.1918 973.67301" />
    <path d="M 965.07203 -333.39196 L 964.53756 -341.78584" />
    <path d="M -1245.41065 23.30604 L -1245.79701 23.77077" />
    <path d="M -71.52762 1081.3029 L -119.65373 1037.96113" />
    <path d="M -184.02431 979.9898 L -309.91174 866.61717" />
    <path d="M -356.53472 824.62911 L -482.42216 711.25648" />
    <path d="M -529.04514 669.26842 L -654.93257 555.89579" />
    <path d="M -701.55555 513.90773 L -827.44298 400.5351" />
    <path d="M -874.06596 358.54704 L -999.9534 245.17441" />
    <path d="M -1046.57638 203.18634 L -1172.46381 89.81372" />
    <path d="M -1236.83439 31.84239 L -1245.79701 23.77077" />
    <path d="M -71.52762 1081.3029 L -33.18485 1035.18308" />
    <path d="M -288.93811 844.34906 L -308.45438 867.82381" />
    <path d="M -461.44852 688.98837 L -480.96479 712.46312" />
    <path d="M -633.95893 533.62768 L -653.47521 557.10243" />
    <path d="M -806.46935 378.26699 L -825.98562 401.74174" />
    <path d="M -978.97976 222.90629 L -998.49603 246.38105" />
    <path d="M -1151.49017 67.5456 L -1171.00645 91.02036" />
    <path d="M -542.80705 349.03079 A 914.4 747.42992 312.0058 0 0 -328.41417 850.61317 L -338.68774 841.36092 A 914.4 747.42992 132.0058 0 1 -553.08062 339.77854" />
    <path d="M -328.41417 850.61317 A 914.4 747.42992 312.0058 0 0 -308.45438 867.82381" />
    <path d="M -56.19051 1093.5532 L -71.52762 1081.3029" />
    <path d="M 866.65343 -533.58249 A 914.4 747.42992 132.0058 0 1 885.15585 -517.57848" />
    <path d="M 284.1444 -667.27494 A 914.4 747.42992 132.0058 0 1 849.85895 -547.03943 L 860.13253 -537.78718 L 824.10515 -494.45238" />
    <path d="M -303.39085 -314.029 A 914.4 747.42992 132.0058 0 1 262.38908 -662.88021 L 272.66265 -653.62796 L 272.66265 -599.43187" />
    <path d="M -553.08167 317.9922 A 914.4 747.42992 132.0058 0 1 -318.73036 -295.57812" />
    <path d="M -308.45679 -286.32587 A 914.4 747.42992 312.0058 0 0 -542.8081 327.24445" />
    <path d="M -488.6544 316.30287 L -542.8081 327.24445" />
    <path d="M 272.66265 -653.62796 A 914.4 747.42992 312.0058 0 0 -293.11727 -304.77675" />
    <path d="M -254.82483 -274.19119 L -293.11727 -304.77675" />
    <path d="M 860.13253 -537.78718 A 914.4 747.42992 312.0058 0 0 294.41797 -658.02269" />
    <path d="M 1055.66966 4.27714 L 1055.66966 15.13061" />
    <path d="M 1083.55439 -1.35688 L 1055.66966 4.27714" />
    <path d="M 913.2764 -491.59442 A 914.4 747.42992 312.0058 0 0 895.42943 -508.32623 L 885.15585 -517.57848" />
    <path d="M 895.42943 -508.32623 A 914.4 747.42992 312.0058 0 0 876.927 -524.33024" />
    <path d="M 875.46963 628.61576 L 837.17719 598.0302" />
    <path d="M 875.46963 628.61576 A 914.4 747.42992 312.0058 0 0 1106.22581 82.75909" />
    <path d="M -715.31746 193.67009 A 914.4 747.42992 312.0058 0 0 -500.92458 695.25248 L -511.19816 686.00023 A 914.4 747.42992 132.0058 0 1 -725.59104 184.41785" />
    <path d="M -500.92458 695.25248 A 914.4 747.42992 312.0058 0 0 -480.96479 712.46312" />
    <path d="M -634.59463 492.39288 L -634.59463 465.25922" />
    <path d="M -1308.45541 -114.4776 L -1187.62587 -5.66005" />
    <path d="M -1152.12587 26.3108 L -1015.11546 149.70064" />
    <path d="M -979.61546 181.67149 L -842.60504 305.06134" />
    <path d="M -807.10505 337.03218 L -670.09463 460.42203" />
    <path d="M -634.59463 492.39288 L -537.93743 579.44112 L -537.93743 552.30747" />
    <path d="M -375.85597 572.13772 L -444.71486 575.2405" />
    <path d="M -512.00227 578.27248 L -537.93743 579.44112" />
    <path d="M -887.82788 38.3094 A 914.4 747.42992 312.0058 0 0 -673.435 539.89178 L -683.70857 530.63954 A 914.4 747.42992 132.0058 0 1 -898.10145 29.05715" />
    <path d="M -673.435 539.89178 A 914.4 747.42992 312.0058 0 0 -653.47521 557.10243" />
    <path d="M -807.10505 337.03218 L -807.10505 309.89853" />
    <path d="M -1060.33829 -117.05129 A 914.4 747.42992 312.0058 0 0 -845.94541 384.53109 L -856.21898 375.27884 A 914.4 747.42992 132.0058 0 1 -1070.61186 -126.30354" />
    <path d="M -845.94541 384.53109 A 914.4 747.42992 312.0058 0 0 -825.98562 401.74174" />
    <path d="M -979.61546 181.67149 L -979.61546 154.53784" />
    <path d="M -1232.8487 -272.41198 A 914.4 747.42992 312.0058 0 0 -1018.45582 229.1704 L -1028.7294 219.91815 A 914.4 747.42992 132.0058 0 1 -1243.12228 -281.66423" />
    <path d="M -1018.45582 229.1704 A 914.4 747.42992 312.0058 0 0 -998.49603 246.38105" />
    <path d="M -1152.12587 26.3108 L -1152.12587 -0.82286" />
    <path d="M -1405.35912 -427.77267 A 914.4 747.42992 312.0058 0 0 -1190.96624 73.80971 L -1218.98741 48.5742 A 914.4 747.42992 132.0058 0 1 -1433.38029 -453.00818" />
    <path d="M -1190.96624 73.80971 A 914.4 747.42992 312.0058 0 0 -1171.00645 91.02036" />
    <path d="M -1171.00885 -1063.12932 A 914.4 747.42992 312.0058 0 0 -1405.36016 -449.55901 L -1433.38134 -474.79452 A 914.4 747.42992 132.0058 0 1 -1199.03002 -1088.36483" />
    <path d="M -1351.20647 -460.50059 L -1405.36016 -449.55901" />
    <path d="M -589.88941 -1430.43142 L -589.88941 -1376.23532 L -475.00629 -1272.77304" />
    <path d="M -589.88941 -1430.43142 A 914.4 747.42992 312.0058 0 0 -1155.66934 -1081.58021 L -1183.69051 -1106.81572 A 914.4 747.42992 132.0058 0 1 -617.91058 -1455.66693 L -589.88941 -1430.43142 Z" />
    <path d="M -1117.37689 -1050.99465 L -1155.66934 -1081.58021" />
    <path d="M -2.41954 -1314.59063 L -38.44691 -1271.25584" />
    <path d="M -2.41954 -1314.59063 A 914.4 747.42992 312.0058 0 0 -568.13409 -1434.82615" />
    <path d="M 193.11759 -769.19326 L 193.11759 -761.67285" />
    <path d="M 244.79939 -836.94715 A 914.4 747.42992 312.0058 0 0 234.91151 -913.02607" />
    <path d="M 218.97487 -981.72891 A 914.4 747.42992 312.0058 0 0 207.56667 -1018.08534" />
    <path d="M 50.72434 -1268.39788 A 914.4 747.42992 312.0058 0 0 32.87736 -1285.12969 L 4.85619 -1310.3652" />
    <path d="M 32.87736 -1285.12969 A 914.4 747.42992 312.0058 0 0 14.37493 -1301.1337" />
    <path d="M 183.84927 -441.89059 A 914.4 747.42992 312.0058 0 0 227.45382 -588.25872" />
    <path d="M 244.45874 -703.01534 A 914.4 747.42992 312.0058 0 0 244.57765 -704.47511" />
    <path d="M 1112.49704 842.07451 L 1097.15993 860.52244" />
    <path d="M 1112.49704 842.07451 L 1065.73005 799.95676" />
    <path d="M 957.59801 702.57441 L 875.47204 628.6128" />
    <path d="M 828.68111 586.47348 L 702.96163 473.25211" />
    <path d="M 656.17069 431.11279 L 619.41322 398.00948" />
    <path d="M 1112.49704 842.07451 L 1074.15427 811.44876" />
    <path d="M 1065.72764 799.95971 L 1027.4352 769.37416" />
    <path d="M 702.95922 473.25507 L 664.66677 442.66951" />
    <path d="M 344.29849 -483.02989 A 854.4 698.38597 312.0058 0 0 350.6259 -529.21916" />
    <path d="M 355.25642 -603.23236 A 854.4 698.38597 312.0058 0 0 355.34944 -612.78651" />
    <path d="M 587.15309 409.59194 L 953.24626 278.15224 L 953.24626 251.01858" />
    <path d="M 416.96916 -547.65465 A 914.4 747.42992 312.0058 0 0 417.08806 -549.11442" />
    <path d="M 365.628 -606.31216 L 365.628 -595.4587 L 458.09421 -512.1848" />
    <path d="M 365.628 -606.31216 A 854.4 698.38597 132.0058 0 1 365.52999 -593.98011" />
    <path d="M 360.89947 -519.96691 A 854.4 698.38597 132.0058 0 1 356.64384 -486.95823" />
    <path d="M 467.7936 -149.23452 A 854.4 698.38597 312.0058 0 0 513.70462 -310.02876" />
    <path d="M 528.8701 -131.16921 A 914.4 747.42992 312.0058 0 0 581.11566 -323.64894" />
    <path d="M 526.08884 -312.53095 A 854.4 698.38597 132.0058 0 1 478.06718 -139.98227" />
    <path d="M 640.30402 6.12617 A 854.4 698.38597 312.0058 0 0 700.37526 -304.84303 A 854.4 698.38597 312.0058 0 0 699.18437 -347.50435" />
    <path d="M 701.38051 24.19148 A 914.4 747.42992 312.0058 0 0 762.10889 -238.39304" />
    <path d="M 710.64883 -295.59078 L 710.64883 -284.73732 L 872.81066 -138.69642" />
    <path d="M 710.64883 -295.59078 A 854.4 698.38597 132.0058 0 1 650.57759 15.37842" />
    <path d="M 812.81443 161.48687 A 854.4 698.38597 312.0058 0 0 872.88567 -149.48234 A 854.4 698.38597 312.0058 0 0 836.91334 -375.33204" />
    <path d="M 702.95922 473.25507 A 914.4 747.42992 312.0058 0 0 800.02608 333.16341" />
    <path d="M 873.89093 179.55218 A 914.4 747.42992 312.0058 0 0 934.6193 -83.03235" />
    <path d="M 883.15924 -140.23009 L 883.15924 -129.37662" />
    <path d="M 883.15924 -140.23009 A 854.4 698.38597 132.0058 0 1 823.088 170.73912" />
    <path d="M 501.37241 387.541 A 50 40.86997 132.0058 0 1 546.5598 333.18828" />
    <path d="M -245.40751 -284.99953 L -119.61937 -171.71632" />
    <path d="M 368.59856 267.96655 L 501.37241 387.541 L 501.37241 893.67414 L 528.48484 888.19616 L 587.15309 409.59194" />
    <path d="M 773.85433 -508.09385 A 854.4 698.38597 312.0058 0 0 754.94883 -536.12538" />
    <path d="M -661.08981 161.00973 A 854.4 698.38597 132.0058 0 1 -444.44984 -408.79949" />
    <path d="M -427.28403 -429.50576 A 854.4 698.38597 132.0058 0 1 100.2205 -754.73108" />
    <path d="M 173.34672 -767.05792 A 854.4 698.38597 132.0058 0 1 641.55586 -652.87257" />
    <path d="M 761.06882 -532.59099 A 854.4 698.38597 132.0058 0 1 778.92994 -506.90169" />
    <path d="M 843.50926 -376.66473 A 854.4 698.38597 132.0058 0 1 883.15924 -140.23009" />
    <path d="M 666.51556 -524.32893 A 854.4 698.38597 312.0058 0 0 643.08607 -585.37144" />
    <path d="M 601.34391 -663.45454 A 854.4 698.38597 312.0058 0 0 582.43841 -691.48607" />
    <path d="M -833.60022 5.64903 A 854.4 698.38597 132.0058 0 1 -616.96025 -564.16018" />
    <path d="M -599.79444 -584.86646 A 854.4 698.38597 132.0058 0 1 -72.28991 -910.09178" />
    <path d="M 0.83631 -922.41861 A 854.4 698.38597 132.0058 0 1 469.04544 -808.23326" />
    <path d="M 588.55841 -687.95168 A 854.4 698.38597 132.0058 0 1 606.41953 -662.26238" />
    <path d="M 650.25115 -582.99751 A 854.4 698.38597 132.0058 0 1 673.89662 -523.73545" />
    <path d="M 708.74514 -349.43607 A 854.4 698.38597 132.0058 0 1 710.64883 -295.59078" />
    <path d="M 525.34946 -522.01979 A 854.4 698.38597 312.0058 0 0 511.92506 -613.189" />
    <path d="M 494.00514 -679.68962 A 854.4 698.38597 312.0058 0 0 470.57565 -740.73213" />
    <path d="M 428.8335 -818.81523 A 854.4 698.38597 312.0058 0 0 409.928 -846.84676" />
    <path d="M -1006.11064 -149.71166 A 854.4 698.38597 132.0058 0 1 -789.47066 -719.52087" />
    <path d="M -772.30485 -740.22715 A 854.4 698.38597 132.0058 0 1 -244.80033 -1065.45247" />
    <path d="M -171.6741 -1077.7793 A 854.4 698.38597 132.0058 0 1 296.53503 -963.59395" />
    <path d="M 416.04799 -843.31237 A 854.4 698.38597 132.0058 0 1 433.90912 -817.62307" />
    <path d="M 477.74074 -738.35821 A 854.4 698.38597 132.0058 0 1 501.3862 -679.09614" />
    <path d="M 520.36076 -612.22594 A 854.4 698.38597 132.0058 0 1 534.7146 -522.95101" />
    <path d="M 352.83904 -677.38048 A 854.4 698.38597 312.0058 0 0 339.41465 -768.54969" />
    <path d="M 321.49473 -835.05032 A 854.4 698.38597 312.0058 0 0 298.06524 -896.09282" />
    <path d="M 256.32309 -974.17593 A 854.4 698.38597 312.0058 0 0 237.41759 -1002.20745" />
    <path d="M -1178.62105 -305.07235 A 854.4 698.38597 132.0058 0 1 -961.98108 -874.88156" />
    <path d="M -944.81527 -895.58784 A 854.4 698.38597 132.0058 0 1 -417.31074 -1220.81316" />
    <path d="M -344.18452 -1233.14 A 854.4 698.38597 132.0058 0 1 124.02462 -1118.95464" />
    <path d="M 243.53758 -998.67306 A 854.4 698.38597 132.0058 0 1 261.39871 -972.98377" />
    <path d="M 305.23033 -893.7189 A 854.4 698.38597 132.0058 0 1 328.87579 -834.45683" />
    <path d="M 347.85035 -767.58663 A 854.4 698.38597 132.0058 0 1 362.20418 -678.3117" />
    <path d="M 365.5914 -613.82909 A 854.4 698.38597 132.0058 0 1 365.628 -606.31216" />
    <path d="M -269.14556 -250.92268 L -269.14556 46.82364" />
    <path d="M -1308.45541 -114.4776 L -1308.45541 -141.61125" />
    <path d="M -867.04809 -214.51599 A 50 40.86997 312.0058 0 0 -868.30866 -215.71204 A 50 40.86997 312.0058 0 0 -901.76895 -223.78095" />
    <path d="M 71.853 1197.79349 L 105.0024 1227.64741 L 346.03191 1178.94817 L 346.03191 949.21655" />
    <path d="M 105.0024 1227.64741 L 105.0024 997.91579" />
    <path d="M 1065.72764 799.95971 A 914.4 747.42992 312.0058 0 0 1297.79942 238.36154" />
    <path d="M -352.54904 520.37474 A 914.4 747.42992 312.0058 0 0 -138.15616 1021.95712 L -166.17733 996.72161" />
    <path d="M -138.15616 1021.95712 A 914.4 747.42992 312.0058 0 0 -118.19637 1039.16777" />
    <path d="M -118.19878 -114.98191 A 914.4 747.42992 312.0058 0 0 -352.55009 498.5884" />
    <path d="M -298.39639 487.64682 L -352.55009 498.5884" />
    <path d="M 462.92066 -482.28401 A 914.4 747.42992 312.0058 0 0 -102.85926 -133.4328" />
    <path d="M -64.56682 -102.84724 L -102.85926 -133.4328" />
    <path d="M 1050.39054 -366.44323 A 914.4 747.42992 312.0058 0 0 484.67598 -486.67874" />
    <path d="M 1245.92767 175.6211 L 1245.92767 186.47456" />
    <path d="M 1300.08136 164.67951 L 1245.92767 175.6211" />
    <path d="M 1300.08136 164.67951 A 914.4 747.42992 312.0058 0 0 1112.11068 -311.71412" />
    <path d="M 1103.53442 -320.25047 A 914.4 747.42992 312.0058 0 0 1085.68744 -336.98228 L 1057.66627 -362.21779" />
    <path d="M 1085.68744 -336.98228 A 914.4 747.42992 312.0058 0 0 1067.18501 -352.98629" />
    <path d="M -13.64624 -1326.36921 A 914.4 747.42992 132.0058 0 1 4.85619 -1310.3652" />
    <path d="M -596.15526 -1460.06166 A 914.4 747.42992 132.0058 0 1 -30.44071 -1339.82615 L -2.41954 -1314.59063" />
    <path d="M 1346.8716 228.44667 L 1292.64674 239.40263 L 1245.92767 197.32802" />
    <path d="M 1045.32108 16.66427 L 883.15924 -129.37662" />
    <path d="M 700.30025 -294.05711 L 651.62346 -337.89482" />
    <path d="M 355.27942 -604.7785 L 347.39244 -611.88142" />
    <path d="M 285.5838 -667.54549 L 193.11759 -750.81939" />
    <path d="M 1097.82124 42.23833 L 1055.66966 4.27714" />
    <path d="M 1346.8716 206.73974 L 1300.08032 164.6001" />
    <path d="M 1041.78748 -68.01515 L 937.31189 -162.10454" />
    <path d="M 869.27707 -223.37584 L 764.80148 -317.46523" />
    <path d="M 524.25624 -534.09722 L 431.97841 -617.20147" />
    <path d="M 351.74583 -689.45791 L 259.468 -772.56216" />
    <path d="M 1346.8716 206.73974 L 1292.64674 217.6957 L 1292.64674 239.40263" />
    <path d="M 1292.64674 217.6957 L 1245.92767 175.6211" />
    <path d="M 883.15924 -151.08355 L 1045.31872 -5.04478" />
    <path d="M 937.31294 -162.02513 L 883.15924 -151.08355 L 883.15924 -140.23009" />
    <path d="M 872.80831 -160.40547 L 710.64883 -306.44424 L 710.64883 -295.59078" />
    <path d="M 764.80253 -317.38582 L 710.64883 -306.44424" />
    <path d="M 671.30988 -341.8724 L 700.29789 -315.76616" />
    <path d="M 478.27836 -515.71414 L 368.98327 -614.14391" />
    <path d="M 196.47286 -769.5046 L 305.76795 -671.07483" />
    <path d="M 1112.49704 -312.17885 L -61.77235 -1369.71098" />
    <path d="M 1112.49704 -312.17885 L 1074.15427 -266.05903" />
    <path d="M -82.2505 -1375.77749 L -77.10946 -1381.96128 L -61.77235 -1369.71098" />
    <path d="M 1097.15993 -324.42915 L -77.10946 -1381.96128" />
    <path d="M 1097.15993 -324.42915 L 1058.81716 -278.30933 L 1074.15427 -266.05903" />
    <path d="M 1058.81716 -278.30933 L 1012.09809 -320.38393" />
    <path d="M 687.62211 -693.14787 L 651.59474 -649.81308" />
    <path d="M 677.34854 -702.40012 L 687.62211 -693.14787 A 914.4 747.42992 312.0058 0 0 121.90756 -813.38338" />
    <path d="M 515.1117 -848.50856 L 479.08433 -805.17377" />
    <path d="M 504.83813 -857.76081 L 515.1117 -848.50856 A 914.4 747.42992 312.0058 0 0 -50.60286 -968.74407" />
    <path d="M 342.60129 -1003.86925 L 306.57391 -960.53446" />
    <path d="M 332.32771 -1013.1215 L 342.60129 -1003.86925 A 914.4 747.42992 312.0058 0 0 -223.11327 -1124.10476" />
    <path d="M 170.09087 -1159.22994 L 134.0635 -1115.89515" />
    <path d="M 159.8173 -1168.48219 L 170.09087 -1159.22994 A 914.4 747.42992 312.0058 0 0 -395.62368 -1279.46546" />
    <path d="M 531.32968 -444.66301 L -642.93971 -1502.19514" />
    <path d="M 531.32968 -444.66301 L 531.32968 -390.39569" />
    <path d="M 387.54578 -495.96958 L 272.66265 -599.43187" />
    <path d="M -664.62965 -1444.28982 L -664.62965 -1497.81275 L -642.93971 -1502.19514" />
    <path d="M 509.63974 -440.28062 L -664.62965 -1497.81275" />
    <path d="M 509.63974 -440.28062 L 509.63974 -386.01331 L 531.32968 -390.39569" />
    <path d="M 509.63974 -386.01331 L 462.92066 -428.08791" />
    <path d="M 100.15224 -754.79256 L 215.03536 -651.33027" />
    <path d="M 100.15224 -808.98865 L 100.15224 -754.79256" />
    <path d="M 89.87867 -818.2409 L 100.15224 -808.98865 A 914.4 747.42992 312.0058 0 0 -465.62769 -460.13744" />
    <path d="M 42.52495 -806.69097 L -72.35817 -910.15325" />
    <path d="M -72.35817 -964.34934 L -72.35817 -910.15325" />
    <path d="M -82.63174 -973.60159 L -72.35817 -964.34934 A 914.4 747.42992 312.0058 0 0 -638.1381 -615.49814" />
    <path d="M -244.86858 -1065.51394 L -129.98546 -962.05166" />
    <path d="M -244.86858 -1119.71003 L -244.86858 -1065.51394" />
    <path d="M -255.14216 -1128.96228 L -244.86858 -1119.71003 A 914.4 747.42992 312.0058 0 0 -810.64851 -770.85883" />
    <path d="M -302.49587 -1117.41235 L -417.379 -1220.87463" />
    <path d="M -417.379 -1275.07073 L -417.379 -1220.87463" />
    <path d="M -427.65257 -1284.32297 L -417.379 -1275.07073 A 914.4 747.42992 312.0058 0 0 -983.15893 -926.21952" />
    <path d="M -130.88043 -158.66831 L -102.85926 -133.4328" />
    <path d="M -1181.81038 -1109.02264 L -1192.11714 -1118.30477 L -1230.4599 -1148.93052" />
    <path d="M -56.19051 -91.39839 L -1230.4599 -1148.93052" />
    <path d="M -56.19051 -91.39839 L -17.84774 -60.77264 L -64.56682 -102.84724" />
    <path d="M -254.82483 -274.19119 L -129.00031 -160.87523" />
    <path d="M -303.39085 -314.029 L -293.11727 -304.77675" />
    <path d="M -301.51072 -316.23592 L -427.33524 -429.55189 L -465.62769 -460.13744" />
    <path d="M -475.90126 -469.38969 L -465.62769 -460.13744" />
    <path d="M -599.84565 -584.91258 L -474.02113 -471.59661" />
    <path d="M -599.84565 -584.91258 L -638.1381 -615.49814" />
    <path d="M -648.41167 -624.75038 L -638.1381 -615.49814" />
    <path d="M -646.53155 -626.9573 L -772.35607 -740.27327 L -810.64851 -770.85883" />
    <path d="M -820.92209 -780.11108 L -810.64851 -770.85883" />
    <path d="M -944.86648 -895.63396 L -819.04196 -782.31799" />
    <path d="M -944.86648 -895.63396 L -983.15893 -926.21952" />
    <path d="M -993.4325 -935.47177 L -983.15893 -926.21952" />
    <path d="M -991.55237 -937.67868 L -1117.37689 -1050.99465" />
    <path d="M -71.52762 -72.95046 L -1245.79701 -1130.48259 L -1230.4599 -1148.93052" />
    <path d="M -71.52762 -72.95046 L -33.18485 -42.32471 L -17.84774 -60.77264" />
    <path d="M -380.57126 473.35289 L -352.55009 498.5884" />
    <path d="M -1431.09939 -526.76962 L -1480.17157 -516.85474" />
    <path d="M -305.90218 540.67739 L -1480.17157 -516.85474" />
    <path d="M -305.90218 540.67739 L -251.67732 529.72143 L -298.39639 487.64682" />
    <path d="M -488.6544 316.30287 L -377.87762 416.06703" />
    <path d="M -553.08167 317.9922 L -542.8081 327.24445" />
    <path d="M -550.38803 260.70634 L -661.16482 160.94218 L -715.31851 171.88376" />
    <path d="M -725.59209 162.63151 L -715.31851 171.88376" />
    <path d="M -833.67523 5.58149 L -722.89845 105.34565" />
    <path d="M -833.67523 5.58149 L -887.82893 16.52307" />
    <path d="M -898.1025 7.27082 L -887.82893 16.52307" />
    <path d="M -895.40886 -50.01504 L -1006.18564 -149.77921 L -1060.33934 -138.83762" />
    <path d="M -1070.61291 -148.08987 L -1060.33934 -138.83762" />
    <path d="M -1178.69605 -305.1399 L -1067.91927 -205.37573" />
    <path d="M -1178.69605 -305.1399 L -1232.84975 -294.19832" />
    <path d="M -1243.12332 -303.45057 L -1232.84975 -294.19832" />
    <path d="M -1240.42969 -360.73642 L -1351.20647 -460.50059" />
    <path d="M -305.90218 562.38431 L -1480.17157 -495.14782 L -1480.17157 -516.85474" />
    <path d="M -305.90218 562.38431 L -251.67732 551.42835 L -251.67732 529.72143" />
    <path d="M 957.59801 -159.80427 L 965.07203 -153.07326" />
    <path d="M 365.628 -613.83257 L 365.628 -606.31216" />
    <path d="M 368.59856 774.09969 L 501.37241 893.67414" />
    <path d="M 694.14301 -688.94318 A 914.4 747.42992 132.0058 0 1 712.64544 -672.93917" />
    <path d="M 111.63398 -822.63563 A 914.4 747.42992 132.0058 0 1 677.34854 -702.40012" />
    <path d="M -475.90126 -469.38969 A 914.4 747.42992 132.0058 0 1 89.87867 -818.2409" />
    <path d="M -725.59209 162.63151 A 914.4 747.42992 132.0058 0 1 -491.24077 -450.93881" />
    <path d="M -480.9672 -441.68656 A 914.4 747.42992 312.0058 0 0 -715.31851 171.88376" />
    <path d="M 937.31294 -162.02513 A 914.4 747.42992 312.0058 0 0 900.6125 -387.71562" />
    <path d="M 740.76599 -646.95512 A 914.4 747.42992 312.0058 0 0 722.91901 -663.68692 L 712.64544 -672.93917" />
    <path d="M 722.91901 -663.68692 A 914.4 747.42992 312.0058 0 0 704.41658 -679.69093" />
    <path d="M 521.6326 -844.30387 A 914.4 747.42992 132.0058 0 1 540.13503 -828.29986" />
    <path d="M -60.87643 -977.99632 A 914.4 747.42992 132.0058 0 1 504.83813 -857.76081" />
    <path d="M -648.41167 -624.75038 A 914.4 747.42992 132.0058 0 1 -82.63174 -973.60159" />
    <path d="M -898.1025 7.27082 A 914.4 747.42992 132.0058 0 1 -663.75119 -606.2995" />
    <path d="M -653.47761 -597.04725 A 914.4 747.42992 312.0058 0 0 -887.82893 16.52307" />
    <path d="M 764.80253 -317.38582 A 914.4 747.42992 312.0058 0 0 763.0952 -360.41733" />
    <path d="M 736.50611 -515.64684 A 914.4 747.42992 312.0058 0 0 725.09791 -552.00326" />
    <path d="M 568.25558 -802.31581 A 914.4 747.42992 312.0058 0 0 550.4086 -819.04761 L 540.13503 -828.29986" />
    <path d="M 550.4086 -819.04761 A 914.4 747.42992 312.0058 0 0 531.90617 -835.05162" />
    <path d="M 349.12219 -999.66456 A 914.4 747.42992 132.0058 0 1 367.62461 -983.66056" />
    <path d="M -233.38684 -1133.35701 A 914.4 747.42992 132.0058 0 1 332.32771 -1013.1215" />
    <path d="M -820.92209 -780.11108 A 914.4 747.42992 132.0058 0 1 -255.14216 -1128.96228" />
    <path d="M -1070.61291 -148.08987 A 914.4 747.42992 132.0058 0 1 -836.2616 -761.66019" />
    <path d="M -825.98803 -752.40794 A 914.4 747.42992 312.0058 0 0 -1060.33934 -138.83762" />
    <path d="M 589.82022 -526.22576 A 914.4 747.42992 312.0058 0 0 579.93233 -602.30469" />
    <path d="M 563.9957 -671.00753 A 914.4 747.42992 312.0058 0 0 552.5875 -707.36395" />
    <path d="M 395.74517 -957.6765 A 914.4 747.42992 312.0058 0 0 377.89819 -974.40831 L 367.62461 -983.66056" />
    <path d="M 377.89819 -974.40831 A 914.4 747.42992 312.0058 0 0 359.39576 -990.41231" />
    <path d="M 176.61177 -1155.02525 A 914.4 747.42992 132.0058 0 1 195.1142 -1139.02125" />
    <path d="M -405.89725 -1288.71771 A 914.4 747.42992 132.0058 0 1 159.8173 -1168.48219" />
    <path d="M -993.4325 -935.47177 A 914.4 747.42992 132.0058 0 1 -427.65257 -1284.32297" />
    <path d="M -1243.12332 -303.45057 A 914.4 747.42992 132.0058 0 1 -1008.77201 -917.02088" />
    <path d="M -998.49844 -907.76863 A 914.4 747.42992 312.0058 0 0 -1232.84975 -294.19832" />
    <path d="M 417.30981 -681.58645 A 914.4 747.42992 312.0058 0 0 407.42192 -757.66538" />
    <path d="M 391.48529 -826.36822 A 914.4 747.42992 312.0058 0 0 380.07708 -862.72464" />
    <path d="M 223.23475 -1113.03719 A 914.4 747.42992 312.0058 0 0 205.38777 -1129.769 L 195.1142 -1139.02125" />
    <path d="M 205.38777 -1129.769 A 914.4 747.42992 312.0058 0 0 186.88535 -1145.773" />
    <path d="M 110.42488 1002.24693 L 340.60942 955.73888" />
    <path d="M 110.42488 1002.24693 L 110.42488 1221.12509 L 111.10979 1221.7419 L 341.29433 1175.23386 L 341.29433 956.3557 L 340.60942 955.73888" />
    <path d="M 279.46306 1222.27742 A 12.5 5.33211 180 0 0 304.46306 1222.27742 L 304.46306 1187.34703" />
    <path d="M 98.71352 1258.79728 A 12.5 5.33211 180 0 0 123.71352 1258.79728 L 123.71352 1223.86689" />
    <path d="M 1346.8716 206.73974 L 1346.8716 228.44667" />
    <path d="M 1097.15993 -324.42915 L 1112.49704 -312.17885" />
    <path d="M 509.63974 -440.28062 L 531.32968 -444.66301" />
    <path d="M -71.52762 -72.95046 L -56.19051 -91.39839" />
    <path d="M -305.90218 562.38431 L -305.90218 540.67739" />
    <path d="M 111.10979 1002.86374 L 341.29433 956.3557" />
    <path d="M 110.42488 1002.24693 L 111.10979 1002.86374" />
    <path d="M 111.10979 1221.7419 L 111.10979 1002.86374" />
    <path d="M 158.42098 1147.06205 L 158.42098 1201.32937 L 159.91921 1202.67865 L 295.48136 1175.28875 L 295.48136 1121.02144 L 159.91921 1148.41134 L 159.91921 1202.67865" />
    <path d="M 293.98313 1119.67215 L 158.42098 1147.06205 L 159.91921 1148.41134" />
    <path d="M 293.98313 1119.67215 L 295.48136 1121.02144" />
    <path d="M 554.66838 674.59596 L 597.42337 665.95745" />
    <path d="M 661.92181 652.92575 L 696.50421 645.93848" />
    <path d="M 640.47797 390.44653 L 647.72831 423.50969" />
    <path d="M 667.68783 514.52949 L 696.50421 645.93848" />
    <path d="M -643.52768 916.68763 L -786.99763 945.67527 L -861.9091 604.06254 L -1011.73204 469.1339 L -1086.64351 675.81799 L -786.99763 945.67527" />
    <path d="M -718.43915 575.0749 L -861.9091 604.06254" />
    <path d="M -643.52768 916.68763 L -718.43915 575.0749 L -868.26209 440.14626 L -1011.73204 469.1339" />
    <path d="M -50.2459 -441.55715 A 3.5 2.8609 312.0058 0 0 -49.84878 -437.92706 L -46.25588 -434.69134" />
    <path d="M -45.16434 -443.1286 A 3.5 2.8609 312.0058 0 0 -50.2459 -441.55715" />
    <path d="M -636.48772 -26.99227 A 690.9233 564.76022 312.0058 0 0 -452.8437 -86.33786" />
    <path d="M -346.99759 -147.56877 A 690.9233 564.76022 312.0058 0 0 -269.14556 -208.16262" />
    <path d="M -38.89129 -540.81907 A 690.9233 564.76022 312.0058 0 0 3.29471 -727.66874" />
    <path d="M 5.40047 -795.72311 A 690.9233 564.76022 312.0058 0 0 2.48542 -842.75006" />
    <path d="M -30.42008 -983.1852 A 690.9233 564.76022 312.0058 0 0 -82.32129 -1083.29563" />
    <path d="M -133.23338 -1146.16159 A 690.9233 564.76022 312.0058 0 0 -225.98375 -1220.31153" />
    <path d="M 889.81693 1052.86617 L 897.29096 1059.59718" />
    <path d="M -182.17835 981.7836 L -182.17835 1061.71155" />
    <path d="M -349.1749 251.81324 L -467.87927 144.90959" />
    <path d="M -521.68531 96.45255 L -640.38968 -10.4511" />
    <path d="M -694.19572 -58.90814 L -812.90009 -165.81179" />
    <path d="M -866.70613 -214.26883 L -868.30866 -215.71204" />
    <path d="M 279.46306 1222.27742 L 279.46306 1192.3982" />
    <path d="M 98.71352 1258.79728 L 98.71352 1221.98373" />
    <path d="M -45.16434 -443.1286 L -42.99911 -441.17863" />
</svg>