<svg version="1.1" xmlns="http://www.w3.org/2000/svg" viewBox="-1296.1586343359838 -1407.3559213124377 2274.0066964504977 2994.4020423134607" fill="none" stroke="black" stroke-width="0.6%" vector-effect="non-scaling-stroke">
    <path d="M 516.19739 756.72672 L 624.85546 860.86658" />
    <path d="M 699.51672 932.42327 L 860.52872 1086.74008" />
    <path d="M 935.18997 1158.29677 L 939.00683 1161.95492 L 976.84806 1155.08478 L 976.84806 1080.0597 L 939.00683 1086.92985 L 939.00683 1161.95492" />
    <path d="M 524.51549 689.67386 L 939.00683 1086.92985" />
    <path d="M 938.99685 1091.26001 L 922.53504 1075.48272" />
    <path d="M 938.99685 1157.60563 L 938.99685 1091.26001" />
    <path d="M 703.3236 865.38651 L 686.86179 849.60922" />
    <path d="M 703.3236 931.73212 L 703.3236 865.38651" />
    <path d="M 529.29822 651.11985 L 976.84806 1080.0597" />
    <path d="M -523.63529 885.82834 L -274.66426 840.62719" />
    <path d="M 193.19615 755.68628 L 348.84042 727.42878" />
    <path d="M -605.26438 807.59355 L -356.29334 762.3924" />
    <path d="M 111.56706 677.45149 L 267.21134 649.19399" />
    <path d="M -581.83473 830.04894 L -332.8637 784.8478" />
    <path d="M 134.99671 699.90688 L 290.64098 671.64938" />
    <path d="M -114.2951 1348.83271 L -60.57099 1339.079" />
    <path d="M 740.13764 1586.04612 L -60.57099 1339.079" />
    <path d="M 752.39998 1579.12838 L 740.13764 1586.04612 L 740.13764 1519.70051 L 752.39998 1512.78276 L 752.39998 1579.12838 Z" />
    <path d="M 772.89323 1580.09928 L 752.39998 1579.12838" />
    <path d="M 772.89323 1580.09928 L 885.27273 1167.35934 L 885.27273 1101.01373 L 938.99685 1091.26001" />
    <path d="M 885.27273 1167.35934 L 938.99685 1157.60563" />
    <path d="M 118.50579 1306.56728 L 822.59485 1178.73863" />
    <path d="M 849.03583 1088.82664 L 922.53504 1075.48272" />
    <path d="M 772.89323 1513.75367 L 885.27273 1101.01373" />
    <path d="M 752.39998 1512.78276 L 772.89323 1513.75367 L 772.89323 1580.09928" />
    <path d="M 740.13764 1519.70051 L -60.57099 1272.73338 L -60.57099 1339.079" />
    <path d="M -114.2951 1282.4871 L -60.57099 1272.73338" />
    <path d="M -126.95003 1266.01865 L -57.2577 1253.36588 L -56.09983 1252.71268" />
    <path d="M -55.19574 1252.99153 L -56.09983 1252.71268" />
    <path d="M -55.19574 1252.99153 L 846.97386 1089.20099 L 847.10075 1088.73496 L 849.03583 1088.82664" />
    <path d="M -16.89687 1264.80427 L 841.59862 1108.94284" />
    <path d="M 735.93817 1497.00547 L -16.89687 1264.80427" />
    <path d="M 735.93817 1497.00547 L 841.59862 1108.94284" />
    <path d="M -287.96203 1111.70184 L -148.00753 1086.29285" />
    <path d="M 296.24325 1005.63831 L 703.3236 931.73212" />
    <path d="M -362.62329 1040.14515 L -220.78638 1014.3944" />
    <path d="M 296.24325 920.52673 L 686.86179 849.60922" />
    <path d="M -346.16148 1055.92245 L -206.20697 1030.51345" />
    <path d="M 296.24325 939.29269 L 703.3236 865.38651" />
    <path d="M -706.12736 632.96677 L -525.54224 600.18121" />
    <path d="M -118.3658 526.25758 L -6.03984 505.8646" />
    <path d="M 46.76665 496.27748 L 97.96244 486.98279" />
    <path d="M -722.86674 550.89425 L -600.20349 528.62451" />
    <path d="M -119.34326 441.32346 L 23.30119 415.4261" />
    <path d="M -719.17593 568.99015 L -583.74168 544.40181" />
    <path d="M -118.3658 459.91197 L 39.763 431.20339" />
    <path d="M -851.42443 387.79648 L -763.74961 371.87896" />
    <path d="M -275.1928 283.18057 L -140.24493 258.68054" />
    <path d="M -1087.3819 345.52341 L -838.41086 300.32226" />
    <path d="M -349.85405 211.62388 L -214.90618 187.12385" />
    <path d="M -1070.92009 361.3007 L -821.94905 316.09956" />
    <path d="M -333.39224 227.40117 L -198.44438 202.90114" />
    <path d="M -114.28513 1353.182 L -114.28513 1278.15693 L -152.12636 1285.02707 L -152.12636 1360.05215 L -114.28513 1353.182 Z" />
    <path d="M -1091.19077 341.87291 L -1022.76269 407.45562" />
    <path d="M -686.36386 729.86633 L -114.28513 1278.15693" />
    <path d="M -1129.032 423.76813 L -1052.71877 496.90811" />
    <path d="M -686.43669 847.95948 L -152.12636 1360.05215" />
    <path d="M -1091.19077 341.87291 L -1129.032 348.74306 L -1033.69879 440.11213" />
    <path d="M -1129.032 348.74306 L -1129.032 423.76813" />
    <path d="M -675.42777 783.48555 L -152.12636 1285.02707" />
    <path d="M 550.85989 623.32602 L 696.42072 596.89918" />
    <path d="M 539.59669 568.10304 L 550.85989 623.32602 L 534.6709 607.81021" />
    <path d="M 643.89049 339.34567 L 696.42072 596.89918" />
    <path d="M -663.1404 843.72999 L -808.70124 870.15683 L -878.53922 527.74414 L -1018.21518 393.87618 L -1088.05316 602.4209 L -808.70124 870.15683" />
    <path d="M -732.97838 501.31731 L -878.53922 527.74414" />
    <path d="M -663.1404 843.72999 L -732.97838 501.31731 L -872.65434 367.44934 L -1018.21518 393.87618" />
    <path d="M -562.96446 -1370.10014 A 765 637.50206 133.78366 0 1 -33.63246 -1227.13207 A 765 637.50206 133.78366 0 1 49.76354 -447.6358" />
    <path d="M -240.70219 -115.79627 A 765 637.50206 133.78366 0 1 -551.59153 18.27504" />
    <path d="M -1173.84214 -222.21756 A 765 637.50206 133.78366 0 1 -562.96446 -1370.10014" />
    <path d="M -564.95983 -1372.01254 A 765 637.50206 313.78366 0 0 -1174.53671 -222.09146" />
    <path d="M -34.63139 -1228.08697 A 765 637.50206 313.78366 0 0 -35.62784 -1229.04447 L -33.63246 -1227.13207" />
    <path d="M -35.62784 -1229.04447 A 765 637.50206 313.78366 0 0 -564.95983 -1372.01254" />
    <path d="M -14.36644 -460.38239 L 5.12148 -463.92046" />
    <path d="M -1111.56249 -261.18444 A 690.9233 575.77127 133.78366 0 1 -1193.37322 -498.22156 A 690.9233 575.77127 133.78366 0 1 -413.26885 -1312.17154 A 690.9233 575.77127 133.78366 0 1 -14.36644 -460.38239 A 654.36626 272.95981 180 0 0 -238.0162 -516.61676 A 700 291.99529 180 0 0 -1057.80912 -367.78185 A 654.36626 272.95981 180 0 0 -1111.56249 -261.18444 Z" />
    <path d="M -1131.0504 -257.64638 L -1111.56249 -261.18444" />
    <path d="M -612.23783 -39.84947 A 690.9233 575.77127 313.78366 0 0 -240.70219 -192.71379" />
    <path d="M -194.85626 -399.95424 L 523.47726 288.50958" />
    <path d="M 936.09065 213.59886 L 523.47726 288.50958" />
    <path d="M 217.75713 -474.86495 L 936.09065 213.59886" />
    <path d="M 217.75713 -474.86495 L 55.37126 -445.3835 A 700 291.99529 180 0 0 5.12148 -463.92046" />
    <path d="M -1131.0504 -257.64638 A 700 291.99529 180 0 0 -1132.94609 -236.17147 A 700 291.99529 180 0 0 -1132.77276 -229.67378" />
    <path d="M -1295.15863 -200.19233 L -1132.77276 -229.67378" />
    <path d="M -1295.15863 -200.19233 L -576.82512 488.27149 L -164.21173 413.36077 A 50 41.6668 133.78366 0 1 -129.61487 422.70509 L -847.94838 -265.75872 A 50 41.6668 313.78366 0 0 -882.54524 -275.10304 L -164.21173 413.36077" />
    <path d="M -194.85626 -399.95424 L -882.54524 -275.10304" />
    <path d="M -230.08312 -377.19954 L -847.30472 -265.14183" />
    <path d="M 477.63132 342.27519 A 50 41.6668 133.78366 0 1 523.47726 288.50958" />
    <path d="M -240.70219 -346.18862 L 477.63132 342.27519 L 477.63132 850.8643 L 505.13888 845.87026 L 564.66214 366.04834 L 936.09065 240.86418 L 936.09065 213.59886" />
    <path d="M -194.85626 -399.95424 A 50 41.6668 313.78366 0 0 -230.08312 -377.19954 A 50 41.6668 313.78366 0 0 -240.70219 -346.18862 L -240.70219 162.40049 L 477.63132 850.8643" />
    <path d="M -1295.15863 -172.92701 L -1295.15863 -200.19233" />
    <path d="M -864.20687 275.5989 L -869.47338 235.05743" />
    <path d="M -1295.15863 -172.92701 L -576.82512 515.53681 L -576.82512 488.27149" />
    <path d="M -129.61487 422.70509 A 50 41.6668 133.78366 0 1 -118.3658 450.47956 L -118.3658 686.17012" />
    <path d="M -180.37975 698.4332 L -205.39661 505.85392 L -576.82512 515.53681" />
    <path d="M -847.31838 -265.13935 A 50 41.6668 313.78366 0 0 -847.94838 -265.75872" />
    <path d="M -864.20687 275.5989 L -223.00023 890.14293" />
    <path d="M -554.98298 -1394.26008 A 800 666.66882 133.78366 0 1 97.2961 -452.99503" />
    <path d="M -240.70219 -67.28199 A 800 666.66882 133.78366 0 1 -516.50416 51.90341" />
    <path d="M -1207.26206 -216.15011 A 800 666.66882 133.78366 0 1 -554.98298 -1394.26008" />
    <path d="M -554.98298 -1385.17164 A 790 658.33546 133.78366 0 1 86.96736 -451.11983" />
    <path d="M -240.70219 -77.35475 A 790 658.33546 133.78366 0 1 -524.16869 44.55758" />
    <path d="M -1196.93331 -218.02531 A 790 658.33546 133.78366 0 1 -554.98298 -1385.17164" />
    <path d="M 228.93654 789.94051 L 82.59604 649.68513 L 53.96016 654.88403" />
    <path d="M 228.93654 831.74734 L 228.93654 789.94051" />
    <path d="M 296.24325 895.00099 L 228.93654 830.49303" />
    <path d="M 51.70104 939.39808 L 296.24325 895.00099" />
    <path d="M -14.50536 875.94466 L 51.70104 939.39808" />
    <path d="M -14.50536 875.94466 L 228.93654 831.74734" />
    <path d="M -108.7646 1123.90398 L -14.50536 1106.79104 L 51.70104 1170.24446 L 51.70104 939.39808" />
    <path d="M -214.55916 1022.50856 L -108.7646 1123.90398 L -108.7646 851.25077 L 228.93654 789.94051" />
    <path d="M -223.00023 1005.59538 A 101.6 42.38103 180 0 0 -214.55916 1022.50856 L -214.55916 749.85535 L -108.7646 851.25077" />
    <path d="M 51.70104 1170.24446 L 296.24325 1125.84737 L 296.24325 895.00099" />
    <path d="M -6.03984 665.77714 L -161.94616 694.08222 A 101.6 42.38103 180 0 0 -223.00023 732.94218 L -223.00023 1005.59538" />
    <path d="M -223.00023 732.94218 A 101.6 42.38103 180 0 0 -214.55916 749.85535" />
    <path d="M -3.5474 736.61256 A 30 12.51408 360 0 1 -6.03984 731.61851" />
    <path d="M 53.96016 731.61851 A 30 12.51408 360 0 1 -3.5474 736.61256" />
    <path d="M -14.50536 875.94466 L -14.50536 1106.79104" />
    <path d="M 57.20256 943.85233 L 290.74174 901.45286" />
    <path d="M 57.20256 943.85233 L 57.20256 1163.79258 L 57.84107 1164.40455 L 291.38025 1122.00508 L 291.38025 902.06483 L 290.74174 901.45286" />
    <path d="M 230.85576 1169.09332 A 12.5 5.2142 180 1 0 255.85576 1169.09332 L 255.85576 1133.17979" />
    <path d="M 47.47203 1202.38697 A 12.5 5.2142 180 1 0 72.47203 1202.38697 L 72.47203 1166.47344" />
    <path d="M -3.5474 509.40156 A 30 12.51408 360 0 1 -6.03984 504.40751 L -6.03984 731.61851" />
    <path d="M -6.03984 504.40751 A 30 12.51408 360 0 1 53.96016 504.40751 L 53.96016 731.61851" />
    <path d="M 53.96016 504.40751 A 30 12.51408 360 0 1 -3.5474 509.40156" />
    <path d="M 57.84107 944.4643 L 291.38025 902.06483" />
    <path d="M 57.20256 943.85233 L 57.84107 944.4643" />
    <path d="M 57.84107 1164.40455 L 57.84107 944.4643" />
    <path d="M 105.84177 1090.25317 L 105.84177 1144.78381 L 107.23853 1146.12249 L 244.77632 1121.15225 L 244.77632 1066.62161 L 107.23853 1091.59185 L 107.23853 1146.12249" />
    <path d="M 243.37956 1065.28293 L 105.84177 1090.25317 L 107.23853 1091.59185" />
    <path d="M 243.37956 1065.28293 L 244.77632 1066.62161" />
    <path d="M -1132.94609 -229.64231 L -1132.94609 -236.17147" />
    <path d="M 230.85576 1169.09332 L 230.85576 1137.71859" />
    <path d="M 47.47203 1202.38697 L 47.47203 1166.1913" />
</svg>