<svg version="1.1" xmlns="http://www.w3.org/2000/svg" viewBox="-1425.3558977366067 -1523.4543374758061 2341.9101462720205 3051.6730426701156" fill="none" stroke="black" stroke-width="0.6%" vector-effect="non-scaling-stroke">
    <path d="M -1367.60313 -952.40093 L -1371.97029 -956.44343 A 765 614.79591 132.78911 0 1 -999.5227 -1407.55139" />
    <path d="M -1253.63869 -270.1967 A 765 614.79591 132.78911 0 1 -1371.97029 -956.44343" />
    <path d="M -1249.27153 -266.15421 A 765 614.79591 132.78911 0 1 -1367.60313 -952.40093 A 765 614.79591 132.78911 0 1 -995.15554 -1403.50889 L -999.5227 -1407.55139" />
    <path d="M -95.98752 -1229.80119 L -150.0104 -1195.7947 L -154.37756 -1199.8372" />
    <path d="M -258.4743 -1345.28642 A 700 562.55835 132.78911 0 1 -154.37756 -1199.8372" />
    <path d="M -472.80227 -1522.45434 L -495.17928 -1463.92538" />
    <path d="M -468.43511 -1518.41184 A 765 614.79591 132.78911 0 1 -212.12945 -1390.97319 A 765 614.79591 132.78911 0 1 -95.98752 -1229.80119" />
    <path d="M -468.43511 -1518.41184 L -472.80227 -1522.45434" />
    <path d="M -490.81212 -1459.88288 L -468.43511 -1518.41184" />
    <path d="M -490.81212 -1459.88288 A 700 562.55835 132.78911 0 1 -256.28407 -1343.27235 A 700 562.55835 132.78911 0 1 -150.0104 -1195.7947" />
    <path d="M -490.81212 -1459.88288 L -495.17928 -1463.92538" />
    <path d="M 174.10976 789.87024 L 174.10976 754.40444" />
    <path d="M -55.01817 804.38821 L 174.10976 754.40444" />
    <path d="M -55.01817 804.38821 L -55.01817 1020.57832 L 14.81279 1085.21783 L 243.94071 1035.23406 L 212.74169 1006.35447 L 212.74169 790.16436 L 205.11662 783.10616 L -24.0113 833.08993 L -24.0113 1049.28004 L -16.38623 1056.33824 L 86.80721 1033.82681" />
    <path d="M -55.01817 1020.57832 L -24.0113 1013.81423" />
    <path d="M 243.94071 819.04395 L 174.10976 754.40444" />
    <path d="M 243.94071 1035.23406 L 243.94071 819.04395" />
    <path d="M 90.69398 1008.81022 L 90.69398 1053.4776" />
    <path d="M 99.68997 1006.84777 L 90.69398 1008.81022" />
    <path d="M 122.17995 1001.94163 L 113.18396 1003.90408 L 113.18396 1048.57146" />
    <path d="M 144.66994 997.03548 L 135.67394 998.99794 L 135.67394 1043.66532" />
    <path d="M 167.15992 992.12934 L 158.16392 994.0918 L 158.16392 1038.75918" />
    <path d="M 95.8032 1003.24995 L 99.68997 1006.84777" />
    <path d="M 86.80721 1049.87978 L 90.69398 1053.4776" />
    <path d="M 86.80721 1005.2124 L 86.80721 1049.87978" />
    <path d="M 86.80721 1005.2124 L 90.69398 1008.81022" />
    <path d="M 95.8032 1003.24995 L 86.80721 1005.2124" />
    <path d="M 118.29318 998.3438 L 122.17995 1001.94163" />
    <path d="M 109.29719 1044.97364 L 113.18396 1048.57146" />
    <path d="M 118.29318 998.3438 L 109.29719 1000.30626 L 109.29719 1044.97364" />
    <path d="M 109.29719 1000.30626 L 113.18396 1003.90408" />
    <path d="M 140.78316 993.43766 L 144.66994 997.03548" />
    <path d="M 131.78717 1040.0675 L 135.67394 1043.66532" />
    <path d="M 140.78316 993.43766 L 131.78717 995.40012 L 131.78717 1040.0675" />
    <path d="M 131.78717 995.40012 L 135.67394 998.99794" />
    <path d="M 163.27314 988.53152 L 167.15992 992.12934" />
    <path d="M 154.27715 1035.16136 L 158.16392 1038.75918" />
    <path d="M 163.27314 988.53152 L 154.27715 990.49398 L 154.27715 1035.16136" />
    <path d="M 154.27715 990.49398 L 158.16392 994.0918" />
    <path d="M 874.68744 1063.18242 L 878.42779 1066.64469 L 915.55425 1058.54563 L 915.55425 984.79979 L 878.42779 992.89885 L 878.42779 1066.64469" />
    <path d="M 876.34465 990.97058 L 878.42779 992.89885" />
    <path d="M 876.34465 990.97058 L 876.34465 990.97504" />
    <path d="M 878.41687 1062.36885 L 878.41687 997.15448 L 872.61913 991.78776" />
    <path d="M 908.04203 977.84605 L 915.55425 984.79979" />
    <path d="M 908.04203 984.05586 L 876.34465 990.97058" />
    <path d="M -157.05197 1216.40386 L -188.74935 1223.31858 L -761.7162 692.94776" />
    <path d="M -188.74935 1223.31858 L -188.74935 1207.24279 L -766.25343 672.67205" />
    <path d="M 908.04203 967.98007 L -188.74935 1207.24279" />
    <path d="M 908.04203 984.05586 L 908.04203 967.98007 L -156.84727 -17.74224 L -1253.63865 221.52048" />
    <path d="M -157.05197 1216.40833 L 876.34465 990.97504" />
    <path d="M -1253.63865 237.59627 L -1253.63865 221.52048" />
    <path d="M -154.97975 1287.80213 L -102.27041 1276.3037" />
    <path d="M 722.27763 1527.2187 L -102.27041 1276.3037" />
    <path d="M 733.84243 1519.54458 L 722.27763 1527.2187 L 722.27763 1462.00433 L 733.84243 1454.33021 L 733.84243 1519.54458 Z" />
    <path d="M 754.41451 1520.20811 L 733.84243 1519.54458" />
    <path d="M 754.41451 1520.20811 L 825.70753 1073.86728 L 825.70753 1008.65291 L 878.41687 997.15448" />
    <path d="M 825.70753 1073.86728 L 878.41687 1062.36885" />
    <path d="M 65.40194 1239.72633 L 772.06576 1085.56912" />
    <path d="M 754.41451 1454.99374 L 825.70753 1008.65291" />
    <path d="M 733.84243 1454.33021 L 754.41451 1454.99374 L 754.41451 1520.20811" />
    <path d="M 722.27763 1462.00433 L -102.27041 1211.08933 L -102.27041 1276.3037" />
    <path d="M -154.97975 1222.58776 L -102.27041 1211.08933" />
    <path d="M -59.42125 1201.74188 L 782.85836 1018.00036" />
    <path d="M 715.82788 1437.65491 L -59.42125 1201.74188" />
    <path d="M 715.82788 1437.65491 L 782.85836 1018.00036" />
    <path d="M -1253.63865 235.21856 L -1261.14651 236.85638 L -1261.14651 310.60223 L -1156.25428 407.69646" />
    <path d="M -1261.14651 236.85638 L -1135.44026 353.21726" />
    <path d="M -759.96355 700.77993 L -192.0953 1226.43119 L -192.0953 1300.17703 L -154.96884 1292.07797 L -154.96884 1218.33213 L -192.0953 1226.43119" />
    <path d="M -157.05197 1216.40386 L -154.96884 1218.33213" />
    <path d="M -1133.6876 348.62981 L -1253.63865 237.59627" />
    <path d="M -1129.15037 336.75394 L -1253.63865 221.52048" />
    <path d="M -769.2575 765.92276 L -192.0953 1300.17703" />
    <path d="M 215.29608 18.11574 L 358.10746 -13.03826 L 510.9582 128.44911 L 587.38358 469.97438" />
    <path d="M 138.87071 218.15364 L 215.29608 18.11574 L 368.14683 159.60311 L 444.5722 501.12838 L 138.87071 218.15364 Z" />
    <path d="M 368.14683 159.60311 L 510.9582 128.44911" />
    <path d="M 444.5722 501.12838 L 587.38358 469.97438" />
    <path d="M -746.49718 760.95765 L -889.30856 792.11165 L -965.73393 450.58637 L -1118.58468 309.099 L -1195.01005 509.1369 L -889.30856 792.11165" />
    <path d="M -822.92255 419.43237 L -965.73393 450.58637" />
    <path d="M -746.49718 760.95765 L -822.92255 419.43237 L -975.7733 277.945 L -1118.58468 309.099" />
    <path d="M -995.15554 -1403.50889 L -972.77853 -1354.74293" />
    <path d="M -1367.60313 -952.40093 L -1371.97029 -956.44343" />
    <path d="M -1177.07422 -1174.61887 A 700 562.55835 132.78911 0 1 -972.77853 -1354.74293" />
    <path d="M -1205.11634 -313.85565 A 700 562.55835 312.78911 0 0 -731.79532 -204.22774" />
    <path d="M -1177.07422 -1174.61887 L -1218.42155 -1206.65903" />
    <path d="M -1251.46119 -268.16888 A 765 614.79591 132.78911 0 1 -1218.42155 -1206.65903" />
    <path d="M -727.42816 -200.18524 L -731.79532 -204.22774" />
    <path d="M -1172.70706 -1170.57638 A 700 562.55835 312.78911 0 0 -1202.93941 -311.82722 A 700 562.55835 312.78911 0 0 -727.42816 -200.18524 L -727.42816 -142.11765 A 765 614.79591 132.78911 0 1 -1247.09403 -264.12638 L -1251.46119 -268.16888" />
    <path d="M -1172.70706 -1170.57638 L -1177.07422 -1174.61887" />
    <path d="M -1247.09403 -264.12638 A 765 614.79591 132.78911 0 1 -1214.05439 -1202.61653 L -1172.70706 -1170.57638" />
    <path d="M -1214.05439 -1202.61653 L -1218.42155 -1206.65903" />
    <path d="M -16.38623 840.14813 L -16.38623 1056.33824" />
    <path d="M -16.38623 840.14813 L 212.74169 790.16436" />
    <path d="M 90.69398 1032.97892 L 109.29719 1028.92067" />
    <path d="M 113.18396 1028.07278 L 131.78717 1024.01453" />
    <path d="M 135.67394 1023.16663 L 154.27715 1019.10838" />
    <path d="M 158.16392 1018.26049 L 212.74169 1006.35447" />
    <path d="M -24.0113 833.08993 L -16.38623 840.14813" />
    <path d="M -212.12945 -1390.97319 L -216.49661 -1395.01569" />
</svg>