<svg version="1.1" xmlns="http://www.w3.org/2000/svg" viewBox="-1471.831203632883 -1496.2355004737456 2823.9644611161966 3155.637515837973" fill="none" stroke="black" stroke-width="0.6%" vector-effect="non-scaling-stroke">
    <path d="M 976.66456 1221.06763 L 980.5975 1224.61865 L 1017.94776 1217.16904 L 1017.94776 1144.17422" />
    <path d="M 980.5975 1151.62382 L 980.5975 1224.61865" />
    <path d="M 980.58686 1220.28532 L 980.58686 1154.18439 L 978.26595 1152.08886" />
    <path d="M -78.16444 1358.80643 L -92.94598 1361.75465 L -92.94598 1345.46031 L -90.59371 1347.58415" />
    <path d="M -20.24338 1347.25845 L 970.94128 1149.56411" />
    <path d="M -346.40028 252.65158 L -347.77153 252.92508" />
    <path d="M -874.02146 357.88699 L -894.98857 362.06894" />
    <path d="M -959.49865 374.93564 L -1066.41049 396.25948" />
    <path d="M -1130.15491 425.2678 L -1130.15491 408.97347 L -1132.50718 406.84963 L -1132.50718 398.03466 L -1136.76082 394.19408 L -1136.76082 403.00905 L -1148.55618 392.35912 L -1148.55618 110.012" />
    <path d="M -59.03917 1427.64142 L -6.01209 1417.06503" />
    <path d="M 811.44613 1658.40201 L -6.01209 1417.06503" />
    <path d="M 823.22486 1651.21721 L 811.44613 1658.40201 L 811.44613 1592.30109 L 823.22486 1585.11628 L 843.77673 1585.85267 L 927.55979 1164.76078 L 980.58686 1154.18439" />
    <path d="M 843.77673 1651.95359 L 823.22486 1651.21721" />
    <path d="M 843.77673 1651.95359 L 927.55979 1230.86171 L 927.55979 1164.76078" />
    <path d="M 927.55979 1230.86171 L 980.58686 1220.28532" />
    <path d="M 170.71868 1381.81562 L 870.75698 1242.19117" />
    <path d="M 811.44613 1592.30109 L -6.01209 1350.9641 L -6.01209 1417.06503" />
    <path d="M -59.03917 1361.54049 L -6.01209 1350.9641" />
    <path d="M 37.09538 1342.36621 L 884.45232 1173.35868" />
    <path d="M 805.67857 1569.27389 L 37.09538 1342.36621" />
    <path d="M 805.67857 1569.27389 L 884.45232 1173.35868" />
    <path d="M 1028.85823 853.64731 L 1028.85823 1141.99809 L 974.55691 1152.82863 L 974.55691 839.68285" />
    <path d="M 923.1013 1046.51109 L 839.8007 971.29971 L 785.49938 982.13025 L 785.49938 668.98446" />
    <path d="M 839.8007 682.94892 L 839.8007 971.29971" />
    <path d="M 775.29063 913.05413 L 668.37879 816.52436 L 614.07746 827.3549 L 614.07746 514.20912" />
    <path d="M 668.37879 528.17358 L 668.37879 816.52436" />
    <path d="M 603.86871 758.27878 L 556.05593 715.10905" />
    <path d="M -1130.15491 423.03585 L -1137.64145 424.52906 L -1137.64145 499.27743 L -1043.905 583.91125" />
    <path d="M -1137.64145 424.52906 L -1023.63202 527.46718" />
    <path d="M -650.25194 864.58877 L -96.3788 1364.67597 L -96.3788 1439.42435 L -59.02853 1431.97474 L -59.02853 1358.97992" />
    <path d="M -76.13545 1360.63839 L -96.3788 1364.67597" />
    <path d="M -92.94598 1361.75465 L -651.88488 857.09361" />
    <path d="M -1021.99908 522.92075 L -1130.15491 425.2678" />
    <path d="M -1120.71182 417.49956 L -1120.71182 135.15243" />
    <path d="M -1017.57979 510.61656 L -1120.71182 417.49956" />
    <path d="M -959.49865 465.72566 L -959.49865 280.71039" />
    <path d="M -949.2899 463.6895 L -949.2899 289.92778" />
    <path d="M -788.07673 511.94562 L -788.07673 435.48573" />
    <path d="M -777.86798 521.16301 L -777.86798 444.70312" />
    <path d="M -616.65482 872.6082 L -656.30417 836.80914" />
    <path d="M -616.65482 872.6082 L -616.65482 590.26108" />
    <path d="M -606.44607 881.82559 L -606.44607 599.47847" />
    <path d="M -445.2329 1027.38354 L -606.44607 881.82559" />
    <path d="M -445.2329 1027.38354 L -445.2329 745.03642" />
    <path d="M -435.02415 1036.60093 L -435.02415 754.25381" />
    <path d="M -273.81099 1182.15888 L -435.02415 1036.60093" />
    <path d="M -273.81099 1182.15888 L -273.81099 899.81176" />
    <path d="M -263.60224 1191.37627 L -263.60224 909.02915" />
    <path d="M -102.38907 1336.93423 L -263.60224 1191.37627" />
    <path d="M -102.38907 1336.93423 L -102.38907 1054.58711" />
    <path d="M -74.54471 1362.07466 L -74.54471 1079.72754" />
    <path d="M -74.54471 1362.07466 L -86.34006 1351.42473 L -86.34006 1342.60977 L -90.59371 1338.76919 L -90.59371 1347.58415" />
    <path d="M -86.34006 1346.73575 L -90.59371 1347.58415" />
    <path d="M -209.30091 1180.54574 L -263.60224 1191.37627" />
    <path d="M -380.72283 1025.77039 L -435.02415 1036.60093" />
    <path d="M -552.14474 870.99505 L -606.44607 881.82559" />
    <path d="M -1066.41049 406.66902 L -1120.71182 417.49956" />
    <path d="M 603.86871 818.13751 L 614.07746 827.3549" />
    <path d="M 775.29063 972.91286 L 785.49938 982.13025" />
    <path d="M -346.15878 251.7594 L -348.53718 252.23378" />
    <path d="M -874.78712 357.19569 L -894.98857 361.22492" />
    <path d="M -959.49865 374.09162 L -1066.41049 395.41546" />
    <path d="M 823.22486 1585.11628 L 823.22486 1651.21721" />
    <path d="M 843.77673 1585.85267 L 843.77673 1651.95359" />
    <path d="M -663.5485 927.3318 L -96.3788 1439.42435" />
    <path d="M 893.93176 1058.9198 A 75 61.46178 312.0786 0 0 956.92129 1003.7471 A 75 61.46178 312.0786 0 0 961.67447 981.76066 L 964.34816 984.1747" />
    <path d="M 893.93176 1058.9198 L 432.37049 1150.97939 L 439.79735 1157.68504 L 901.35862 1065.62546" />
    <path d="M 385.98951 1141.90253 A 75 61.46178 312.0786 0 0 432.37049 1150.97939" />
    <path d="M 946.71254 1023.181 L 946.71254 814.54242 A 854.4 700.17259 312.0786 0 0 961.80841 798.5064" />
    <path d="M 946.71254 814.54242 L 956.92129 823.75981" />
    <path d="M 956.92129 1003.7471 L 956.92129 823.75981" />
    <path d="M -209.30091 958.05734 L -209.30091 1180.54574" />
    <path d="M -380.72283 803.282 L -380.72283 1025.77039" />
    <path d="M -552.14474 648.50666 L -552.14474 870.99505" />
    <path d="M -723.56666 493.73131 L -723.56666 570.1912" />
    <path d="M -894.98857 338.95597 L -894.98857 452.85896" />
    <path d="M -1066.41049 184.18062 L -1066.41049 406.66902" />
    <path d="M 603.86871 504.99173 A 854.4 700.17259 312.0786 0 0 653.23951 449.85316 A 854.4 700.17259 312.0786 0 0 710.94516 373.74757" />
    <path d="M 603.86871 818.13751 L 603.86871 504.99173 L 614.07746 514.20912" />
    <path d="M 692.23256 501.2083 A 914.4 749.34202 132.0786 0 1 668.37879 528.17358" />
    <path d="M 663.44826 459.07055 L 655.76889 468.28558" />
    <path d="M 663.44826 459.07055 A 854.4 700.17259 132.0786 0 1 614.07746 514.20912" />
    <path d="M 775.29063 659.76707 A 854.4 700.17259 312.0786 0 0 824.66142 604.62851 A 854.4 700.17259 312.0786 0 0 1051.14136 12.40159 A 854.4 700.17259 312.0786 0 0 1046.36843 -72.47311" />
    <path d="M 775.29063 972.91286 L 775.29063 659.76707 L 785.49938 668.98446" />
    <path d="M 863.65447 655.98364 A 914.4 749.34202 132.0786 0 1 839.8007 682.94892" />
    <path d="M 834.87017 613.84589 L 827.19081 623.06092 L 961.80841 744.60597" />
    <path d="M 834.87017 613.84589 A 854.4 700.17259 132.0786 0 1 785.49938 668.98446" />
    <path d="M 75.36161 -1149.652 A 854.4 700.17259 132.0786 0 1 93.5311 -1122.84199" />
    <path d="M 135.83849 -1044.31623 A 854.4 700.17259 132.0786 0 1 159.01303 -984.6758" />
    <path d="M 177.35102 -917.97646 A 854.4 700.17259 132.0786 0 1 191.05835 -828.66369" />
    <path d="M 194.02723 -764.12914 A 854.4 700.17259 132.0786 0 1 193.93363 -749.1292" />
    <path d="M 189.29658 -675.04293 A 854.4 700.17259 132.0786 0 1 184.33206 -637.38472" />
    <path d="M 169.96578 -565.16269 A 854.4 700.17259 132.0786 0 1 121.02702 -418.76166" />
    <path d="M -316.12853 -1311.24205 A 762 624.45168 132.0786 0 1 -261.09082 -1296.60141" />
    <path d="M -107.29547 -1218.21908 A 762 624.45168 132.0786 0 1 -68.56519 -1186.54279 A 762 624.45168 132.0786 0 1 -23.4024 -1140.26908" />
    <path d="M 27.54821 -1069.90577 A 762 624.45168 132.0786 0 1 68.62903 -986.68945" />
    <path d="M 89.60762 -922.5482 A 762 624.45168 132.0786 0 1 106.85512 -827.75163" />
    <path d="M 110.30124 -746.36714 A 762 624.45168 132.0786 0 1 93.61122 -603.80928" />
    <path d="M 72.02964 -523.89334 A 762 624.45168 132.0786 0 1 23.17042 -405.21409" />
    <path d="M -258.79938 -73.88904 A 762 624.45168 132.0786 0 1 -425.86487 21.15561" />
    <path d="M -503.47656 49.73727 A 762 624.45168 132.0786 0 1 -556.81128 64.18492" />
    <path d="M -1261.01835 -381.31641 A 762 624.45168 132.0786 0 1 -1085.43408 -988.57229" />
    <path d="M -1068.56352 -1009.54706 A 762 624.45168 132.0786 0 1 -524.6626 -1319.67041" />
    <path d="M -443.35009 -1324.52708 A 762 624.45168 132.0786 0 1 -316.12853 -1311.24205" />
    <path d="M -20.24338 1351.24412 L -74.54471 1362.07466" />
    <path d="M 964.34816 1143.61124 L -20.24338 1339.99057" />
    <path d="M 964.34816 1143.61124 L 974.55691 1152.82863" />
    <path d="M 1052.712 826.68203 A 914.4 749.34202 132.0786 0 1 1028.85823 853.64731" />
    <path d="M 1023.9277 784.54428 A 854.4 700.17259 132.0786 0 1 974.55691 839.68285" />
    <path d="M 1016.24834 793.7593 L 1023.9277 784.54428 L 1031.60707 775.32925 L 1069.95352 806.04732 A 914.4 749.34202 312.0786 0 0 1302.3825 243.99227" />
    <path d="M -1132.50718 402.16065 L -1136.76082 403.00905" />
    <path d="M -20.24338 1038.09834 A 854.4 700.17259 132.0786 0 1 -69.61418 1002.65403 L -61.93481 1008.80572" />
    <path d="M -20.24338 1038.09834 L -20.24338 1046.44854" />
    <path d="M -20.24338 1056.4011 L -20.24338 1351.24412" />
    <path d="M 961.80841 818.64236 A 854.4 700.17259 132.0786 0 1 956.92129 823.75981" />
    <path d="M 964.34816 1010.45275 A 75 61.46178 132.0786 0 1 901.35862 1065.62546" />
    <path d="M 439.79735 1157.68504 A 75 61.46178 132.0786 0 1 389.53614 1145.44009 A 75 61.46178 132.0786 0 1 372.45592 1111.71617" />
    <path d="M 371.92069 1103.31131 L 372.45592 1111.71617" />
    <path d="M 371.92069 1103.31131 L 371.92069 -209.65229" />
    <path d="M 372.05463 -213.94323 L 371.92069 -209.65229" />
    <path d="M 372.05463 -213.94323 A 75 61.46178 132.0786 0 1 439.79735 -291.10238" />
    <path d="M 901.35862 -383.16197 L 439.79735 -291.10238" />
    <path d="M 958.85111 -354.73144 A 75 61.46178 132.0786 0 1 961.27319 -343.89875 L 961.80841 -335.49388 L 969.23528 -328.78823 L 969.23528 -148.2628 A 500 409.7452 132.0786 0 1 1005.65273 -119.67536 A 500 409.7452 132.0786 0 1 969.23528 532.0023 L 969.23528 825.34801" />
    <path d="M 961.27319 -343.89875 L 968.70005 -337.1931" />
    <path d="M 901.35862 -383.16197 A 75 61.46178 132.0786 0 1 904.08535 -383.651" />
    <path d="M 965.28403 -350.83265 A 75 61.46178 132.0786 0 1 968.70005 -337.1931" />
    <path d="M -168.67147 1084.6486 L -102.38907 1144.4944" />
    <path d="M -178.32123 1066.30889 A 101.6 43.11528 180 0 0 -168.67147 1084.6486 L -168.67147 995.34671" />
    <path d="M 961.80841 977.46972 L 961.80841 818.64236 L 961.80841 525.29664 L 969.23528 532.0023" />
    <path d="M 961.80841 977.46972 L 961.67447 981.76066" />
    <path d="M -53.90736 1096.79693 L -15.51052 1050.7218 L -30.86926 1038.41843 L -77.29354 996.50235 L -115.63999 1042.517" />
    <path d="M -15.51052 1050.7218 L -61.93481 1008.80572" />
    <path d="M 961.80841 -330.76334 A 854.4 700.17259 312.0786 0 0 939.47812 -365.8081" />
    <path d="M -323.84589 770.83989 A 854.4 700.17259 132.0786 0 1 -481.53796 404.06014" />
    <path d="M -485.07653 319.27465 A 854.4 700.17259 132.0786 0 1 -268.13107 -250.63657" />
    <path d="M -250.94105 -271.32291 A 854.4 700.17259 132.0786 0 1 277.30732 -595.5788" />
    <path d="M 350.53666 -607.7337 A 854.4 700.17259 132.0786 0 1 817.70664 -493.49019" />
    <path d="M 945.6519 -362.38384 A 854.4 700.17259 132.0786 0 1 961.61397 -338.54727" />
    <path d="M 1057.34572 -56.21553 A 854.4 700.17259 132.0786 0 1 1061.35011 21.61898 L 1061.35011 32.48487 L 1108.36058 74.93021" />
    <path d="M 1061.35011 21.61898 A 854.4 700.17259 132.0786 0 1 834.87017 613.84589" />
    <path d="M -495.26781 616.06454 A 854.4 700.17259 132.0786 0 1 -523.55069 582.60937" />
    <path d="M -1274.41535 -140.43707 A 854.4 700.17259 132.0786 0 1 -1338.64754 -369.81658" />
    <path d="M -1342.18611 -454.60207 A 854.4 700.17259 132.0786 0 1 -1125.24065 -1024.51329" />
    <path d="M -1108.05063 -1045.19963 A 854.4 700.17259 132.0786 0 1 -579.80226 -1369.45552" />
    <path d="M -506.57292 -1381.61042 A 854.4 700.17259 132.0786 0 1 -39.40294 -1267.36691" />
    <path d="M 81.43523 -1146.11679 A 854.4 700.17259 132.0786 0 1 98.52681 -1121.64608" />
    <path d="M 142.94086 -1041.92042 A 854.4 700.17259 132.0786 0 1 166.30389 -984.04314" />
    <path d="M 185.69976 -916.96107 A 854.4 700.17259 132.0786 0 1 200.29721 -829.50409" />
    <path d="M 204.13429 -765.06117 A 854.4 700.17259 132.0786 0 1 204.24053 -752.25775 L 204.24053 -741.39185" />
    <path d="M 204.24053 -752.25775 A 854.4 700.17259 132.0786 0 1 204.14238 -739.91181" />
    <path d="M 199.50533 -665.82554 A 854.4 700.17259 132.0786 0 1 196.43995 -641.08787" />
    <path d="M 183.42549 -569.80797 A 854.4 700.17259 132.0786 0 1 136.39465 -421.82677" />
    <path d="M 1101.06946 866.43382 L 1062.67262 835.67539 L 1016.24834 793.7593" />
    <path d="M 816.93077 613.79722 L 655.76889 468.28558" />
    <path d="M 596.3121 414.60256 L 645.50886 459.02188" />
    <path d="M 660.86752 440.59177 L 621.95936 405.46193" />
    <path d="M 732.5449 366.04947 A 854.4 700.17259 132.0786 0 1 663.44826 459.07055" />
    <path d="M 671.12762 449.85552 L 832.28944 595.36711" />
    <path d="M 671.12762 449.85552 L 663.44826 459.07055" />
    <path d="M 961.80841 712.30866 L 842.54954 604.63087 L 834.87017 613.84589" />
    <path d="M -564.23815 57.47927 A 762 624.45168 312.0786 0 0 -500.11124 39.59974" />
    <path d="M -421.16172 9.14685 A 762 624.45168 312.0786 0 0 -258.79938 -86.03292" />
    <path d="M 14.05592 -408.57121 A 762 624.45168 312.0786 0 0 60.42379 -518.1003" />
    <path d="M 83.73673 -599.51934 A 762 624.45168 312.0786 0 0 102.80698 -749.69102" />
    <path d="M 99.42825 -834.45728 A 762 624.45168 312.0786 0 0 83.93148 -922.47328" />
    <path d="M 63.86057 -986.50443 A 762 624.45168 312.0786 0 0 23.79219 -1070.45113" />
    <path d="M -25.26251 -1140.39141 A 762 624.45168 312.0786 0 0 -72.29501 -1189.87747" />
    <path d="M -20.24338 1038.09834 L -30.45213 1028.88095" />
    <path d="M 964.34816 1143.61124 L 964.34816 1010.45275 L 964.34816 830.46546 A 854.4 700.17259 312.0786 0 0 969.23528 825.34801" />
    <path d="M -100.49571 976.06298 A 854.4 700.17259 312.0786 0 0 -30.45213 1028.88095" />
    <path d="M 74.75669 1201.87979 L 74.75669 971.88479 L 107.69692 1001.62624 L 349.06631 953.48449 L 316.12608 923.74304" />
    <path d="M 74.75669 971.88479 L 316.12608 923.74304" />
    <path d="M 964.34816 830.46546 L 974.55691 839.68285" />
    <path d="M 1066.90034 -270.41448 A 854.4 700.17259 132.0786 0 1 969.23528 825.34801" />
    <path d="M -293.60376 562.31585 A 854.4 700.17259 312.0786 0 0 -95.41896 980.70227 A 854.4 700.17259 312.0786 0 0 -69.61418 1002.65403" />
    <path d="M -79.07354 -79.93819 A 854.4 700.17259 312.0786 0 0 -296.019 489.97304" />
    <path d="M 466.36485 -424.88042 A 854.4 700.17259 312.0786 0 0 -61.88352 -100.62452" />
    <path d="M 1017.08052 -314.96587 A 854.4 700.17259 312.0786 0 0 534.44132 -436.40787" />
    <path d="M 1250.40764 192.31735 A 854.4 700.17259 312.0786 0 0 1072.33675 -266.05955" />
    <path d="M 1023.9277 784.54428 A 854.4 700.17259 312.0786 0 0 1250.40764 192.31735 L 1250.40764 181.45145 L 1304.6377 170.63512 A 914.4 749.34202 312.0786 0 0 1116.05981 -307.13086" />
    <path d="M 1078.03136 817.24534 L 1031.60707 775.32925" />
    <path d="M 1078.03136 817.24534 L 1062.67262 835.67539" />
    <path d="M -77.29354 996.50235 L -69.61418 1002.65403" />
    <path d="M 1043.56857 -373.35723 A 914.4 749.34202 132.0786 0 1 1062.09709 -357.28779" />
    <path d="M 460.23813 -508.68521 A 914.4 749.34202 132.0786 0 1 1026.75042 -386.87233 L 1054.59478 -361.7319 A 914.4 749.34202 312.0786 0 0 488.08249 -483.54477" />
    <path d="M -128.12562 -156.52932 A 914.4 749.34202 132.0786 0 1 438.45214 -504.34079 L 466.2965 -479.20036 A 914.4 749.34202 312.0786 0 0 -100.28125 -131.38889" />
    <path d="M -378.16854 475.58111 A 914.4 749.34202 132.0786 0 1 -143.48676 -138.09632" />
    <path d="M -163.47229 1000.0954 A 914.4 749.34202 132.0786 0 1 -378.16749 497.39243" />
    <path d="M 961.80841 -154.96845 L 961.80841 -335.49388" />
    <path d="M 961.80841 525.29664 A 500 409.7452 312.0786 0 0 1001.91432 -123.00052" />
    <path d="M 961.80841 977.46972 L 964.34816 979.76283" />
    <path d="M 969.23528 -328.78823 L 968.70005 -337.1931" />
    <path d="M -1235.75775 30.5038 L -1236.12614 30.94585" />
    <path d="M -69.26609 1084.49355 L -117.09941 1041.30527" />
    <path d="M -181.34443 983.299 L -306.15694 870.60689" />
    <path d="M -352.76635 828.52366 L -477.57885 715.83154" />
    <path d="M -524.18827 673.74831 L -649.00077 561.0562" />
    <path d="M -695.61018 518.97297 L -820.42269 406.28086" />
    <path d="M -867.0321 364.19763 L -991.8446 251.50551" />
    <path d="M -1038.45401 209.42228 L -1163.26652 96.73017" />
    <path d="M -1227.51155 38.7239 L -1236.12614 30.94585" />
    <path d="M -69.26609 1084.49355 L -30.86926 1038.41843" />
    <path d="M -285.50963 848.79369 L -304.69752 871.81862" />
    <path d="M -456.93155 694.01835 L -476.11943 717.04327" />
    <path d="M -628.35346 539.24301 L -647.54135 562.26793" />
    <path d="M -799.77538 384.46766 L -818.96327 407.49259" />
    <path d="M -971.1973 229.69232 L -990.38518 252.71724" />
    <path d="M -1142.61921 74.91697 L -1161.8071 97.9419" />
    <path d="M -539.38066 351.83448 A 914.4 749.34202 312.0786 0 0 -324.68546 854.53745 L -334.8942 845.32006 A 914.4 749.34202 132.0786 0 1 -549.58941 342.61709" />
    <path d="M -324.68546 854.53745 A 914.4 749.34202 312.0786 0 0 -304.69752 871.81862" />
    <path d="M -53.90736 1096.79693 L -69.26609 1084.49355" />
    <path d="M 872.14666 -528.13257 A 914.4 749.34202 132.0786 0 1 890.67517 -512.06313" />
    <path d="M 288.81621 -663.46055 A 914.4 749.34202 132.0786 0 1 855.3285 -541.64767 L 865.53725 -532.43028 L 829.94245 -489.71752" />
    <path d="M -299.54753 -311.30467 A 914.4 749.34202 132.0786 0 1 267.03022 -659.11614 L 277.23897 -649.89875 L 277.23897 -595.64052" />
    <path d="M -549.59046 320.80577 A 914.4 749.34202 132.0786 0 1 -314.90868 -292.87166" />
    <path d="M -304.69993 -283.65427 A 914.4 749.34202 312.0786 0 0 -539.38171 330.02316" />
    <path d="M -485.15165 319.20683 L -539.38171 330.02316" />
    <path d="M 277.23897 -649.89875 A 914.4 749.34202 312.0786 0 0 -289.33878 -302.08728" />
    <path d="M -250.99234 -271.36921 L -289.33878 -302.08728" />
    <path d="M 865.53725 -532.43028 A 914.4 749.34202 312.0786 0 0 299.02496 -654.24316" />
    <path d="M 1061.35011 10.75306 L 1061.35011 21.61898" />
    <path d="M 1088.47819 5.3423 L 1061.35011 10.75306" />
    <path d="M 918.75607 -486.04934 A 914.4 749.34202 312.0786 0 0 900.88392 -502.84574 L 890.67517 -512.06313" />
    <path d="M 900.88392 -502.84574 A 914.4 749.34202 312.0786 0 0 882.3554 -518.91518" />
    <path d="M 880.89598 635.34893 L 842.54954 604.63087" />
    <path d="M 880.89598 635.34893 A 914.4 749.34202 312.0786 0 0 1111.5234 94.20948" />
    <path d="M -596.41761 462.47374 A 854.4 700.17259 132.0786 0 1 -652.95987 249.2848" />
    <path d="M -710.80257 197.05913 A 914.4 749.34202 312.0786 0 0 -496.10737 699.76211 L -506.31612 690.54472 A 914.4 749.34202 132.0786 0 1 -721.01132 187.84174" />
    <path d="M -496.10737 699.76211 A 914.4 749.34202 312.0786 0 0 -476.11943 717.04327" />
    <path d="M -629.96591 496.3298 L -629.96591 469.16503 L -533.9186 555.88531 L -517.85638 552.68166" />
    <path d="M -629.96591 469.16503 L -596.41761 462.47374" />
    <path d="M -1299.5748 -108.25419 L -1179.70241 -0.02246" />
    <path d="M -1144.23166 32.00376 L -1008.28049 154.75288" />
    <path d="M -972.80974 186.77911 L -836.85857 309.52823" />
    <path d="M -801.38783 341.55445 L -665.43666 464.30357" />
    <path d="M -629.96591 496.3298 L -533.9186 583.05008 L -533.9186 555.88531" />
    <path d="M -373.25366 576.22066 L -440.94334 579.09796" />
    <path d="M -508.28754 581.96057 L -533.9186 583.05008" />
    <path d="M -767.83953 307.69839 A 854.4 700.17259 132.0786 0 1 -824.38179 94.50945" />
    <path d="M -882.22449 42.28379 A 914.4 749.34202 312.0786 0 0 -667.52929 544.98676 L -677.73804 535.76937 A 914.4 749.34202 132.0786 0 1 -892.43324 33.0664" />
    <path d="M -667.52929 544.98676 A 914.4 749.34202 312.0786 0 0 -647.54135 562.26793" />
    <path d="M -801.38783 341.55445 L -801.38783 314.38969 L -681.19697 422.90896" />
    <path d="M -801.38783 314.38969 L -767.83953 307.69839" />
    <path d="M -939.26144 152.92305 A 854.4 700.17259 132.0786 0 1 -995.80371 -60.26589" />
    <path d="M -1053.64641 -112.49156 A 914.4 749.34202 312.0786 0 0 -838.9512 390.21142 L -849.15995 380.99403 A 914.4 749.34202 132.0786 0 1 -1063.85515 -121.70895" />
    <path d="M -838.9512 390.21142 A 914.4 749.34202 312.0786 0 0 -818.96327 407.49259" />
    <path d="M -972.80974 186.77911 L -972.80974 159.61434 L -852.61889 268.13362" />
    <path d="M -972.80974 159.61434 L -939.26144 152.92305" />
    <path d="M -1110.68336 -1.85229 A 854.4 700.17259 132.0786 0 1 -1167.22562 -215.04123" />
    <path d="M -1225.06832 -267.2669 A 914.4 749.34202 312.0786 0 0 -1010.37312 235.43608 L -1020.58187 226.21869 A 914.4 749.34202 132.0786 0 1 -1235.27707 -276.48429" />
    <path d="M -1010.37312 235.43608 A 914.4 749.34202 312.0786 0 0 -990.38518 252.71724" />
    <path d="M -1144.23166 32.00376 L -1144.23166 4.839 L -1024.0408 113.35827" />
    <path d="M -1144.23166 4.839 L -1110.68336 -1.85229" />
    <path d="M -1396.49024 -422.04224 A 914.4 749.34202 312.0786 0 0 -1181.79504 80.66073 L -1209.6394 55.5203 A 914.4 749.34202 132.0786 0 1 -1424.3346 -447.18268" />
    <path d="M -1181.79504 80.66073 A 914.4 749.34202 312.0786 0 0 -1161.8071 97.9419" />
    <path d="M -1161.80951 -1057.53099 A 914.4 749.34202 312.0786 0 0 -1396.49129 -443.85356 L -1424.33565 -468.99399 A 914.4 749.34202 132.0786 0 1 -1189.65387 -1082.67142" />
    <path d="M -1342.26123 -454.66989 L -1396.49129 -443.85356" />
    <path d="M -579.87061 -1423.77547 L -579.87061 -1369.51724 L -466.07794 -1266.77483" />
    <path d="M -579.87061 -1423.77547 A 914.4 749.34202 312.0786 0 0 -1146.44836 -1075.964 L -1174.29273 -1101.10443 A 914.4 749.34202 132.0786 0 1 -607.71498 -1448.9159 L -579.87061 -1423.77547 Z" />
    <path d="M -1108.10192 -1045.24593 L -1146.44836 -1075.964" />
    <path d="M 8.42767 -1306.307 L -27.16713 -1263.59424" />
    <path d="M 8.42767 -1306.307 A 914.4 749.34202 312.0786 0 0 -558.08462 -1428.11988" />
    <path d="M 204.24053 -763.12366 L 204.24053 -752.25775" />
    <path d="M 219.89086 -766.24516 L 204.24053 -763.12366 L 310.47026 -667.20977" />
    <path d="M 255.59452 -832.31818 A 914.4 749.34202 312.0786 0 0 245.57065 -906.52368" />
    <path d="M 229.27825 -975.48862 A 914.4 749.34202 312.0786 0 0 218.26316 -1010.22251" />
    <path d="M 61.64649 -1259.92606 A 914.4 749.34202 312.0786 0 0 43.77434 -1276.72246 L 15.92998 -1301.8629" />
    <path d="M 43.77434 -1276.72246 A 914.4 749.34202 312.0786 0 0 25.24582 -1292.7919" />
    <path d="M 194.95915 -432.13245 A 914.4 749.34202 312.0786 0 0 240.35014 -586.80649" />
    <path d="M 255.65408 -693.40235 A 914.4 749.34202 312.0786 0 0 255.77316 -694.86349" />
    <path d="M 1116.42819 848.00377 L 1101.06946 866.43382" />
    <path d="M 1116.42819 848.00377 L 1069.95592 806.04436" />
    <path d="M 961.80841 708.39892 L 880.89839 635.34598" />
    <path d="M 834.12079 593.11089 L 709.47648 480.57063" />
    <path d="M 662.69887 438.33554 L 625.06408 404.35542" />
    <path d="M 1116.42819 848.00377 L 1078.03136 817.24534" />
    <path d="M 709.47407 480.57359 L 671.12762 449.85552" />
    <path d="M 355.75398 -482.60938 A 854.4 700.17259 312.0786 0 0 360.7185 -520.26759" />
    <path d="M 365.35555 -594.35386 A 854.4 700.17259 312.0786 0 0 365.4537 -606.6998 A 854.4 700.17259 312.0786 0 0 365.44915 -609.35379" />
    <path d="M 592.75845 415.86907 L 959.36786 285.21023 L 959.36786 258.04547 L 552.10792 339.27452" />
    <path d="M 427.076 -538.627 A 914.4 749.34202 312.0786 0 0 427.19507 -540.08815" />
    <path d="M 375.66245 -597.48241 L 375.66245 -586.6165 L 461.67956 -508.9524" />
    <path d="M 375.66245 -597.48241 A 854.4 700.17259 132.0786 0 1 375.5643 -585.13647" />
    <path d="M 370.92725 -511.0502 A 854.4 700.17259 132.0786 0 1 367.86187 -486.31252" />
    <path d="M 476.71967 -140.75159 A 854.4 700.17259 312.0786 0 0 523.83976 -307.86485" />
    <path d="M 537.80298 -122.58176 A 914.4 749.34202 312.0786 0 0 591.08904 -321.2779" />
    <path d="M 536.05452 -310.30112 A 854.4 700.17259 132.0786 0 1 486.92842 -131.5342 L 520.47671 -138.2255 L 658.37639 -13.71709" />
    <path d="M 648.14158 14.02375 A 854.4 700.17259 312.0786 0 0 708.29753 -297.14911 A 854.4 700.17259 312.0786 0 0 706.83834 -344.36439" />
    <path d="M 709.2249 32.19358 A 914.4 749.34202 312.0786 0 0 770.03891 -230.53746" />
    <path d="M 718.50628 -287.93172 L 718.50628 -277.06581 L 879.64434 -131.57568" />
    <path d="M 718.50628 -287.93172 A 854.4 700.17259 132.0786 0 1 658.35033 23.24114 L 691.89863 16.54985 L 829.7983 141.05825" />
    <path d="M 819.5635 168.7991 A 854.4 700.17259 312.0786 0 0 879.71945 -142.37377 A 854.4 700.17259 312.0786 0 0 842.71299 -371.46494" />
    <path d="M 709.47407 480.57359 A 914.4 749.34202 312.0786 0 0 807.37048 339.38179" />
    <path d="M 880.64681 186.96892 A 914.4 749.34202 312.0786 0 0 941.46082 -75.76212" />
    <path d="M 889.9282 -133.15638 L 889.9282 -122.29047" />
    <path d="M 889.9282 -133.15638 A 854.4 700.17259 132.0786 0 1 829.77225 178.01649 L 863.32055 171.32519 L 959.36786 258.04547" />
    <path d="M 74.75669 1201.87979 L 107.69692 1231.62124 L 349.06631 1183.47949 L 349.06631 953.48449" />
    <path d="M 107.69692 1231.62124 L 107.69692 1001.62624" />
    <path d="M -350.32313 522.53286 A 914.4 749.34202 312.0786 0 0 -135.62792 1025.23584 L -163.47229 1000.0954" />
    <path d="M -135.62792 1025.23584 A 914.4 749.34202 312.0786 0 0 -115.63999 1042.517" />
    <path d="M -350.32418 500.72154 A 914.4 749.34202 132.0786 0 1 -115.6424 -112.95588" />
    <path d="M -296.09411 489.90522 L -350.32418 500.72154" />
    <path d="M 466.2965 -424.94214 L 466.2965 -479.20036" />
    <path d="M -61.93481 -100.67083 L -100.28125 -131.38889" />
    <path d="M 1016.24834 -315.71724 L 1054.59478 -361.7319" />
    <path d="M 1107.8136 -315.35096 A 914.4 749.34202 312.0786 0 0 1089.94145 -332.14736 L 1062.09709 -357.28779" />
    <path d="M 1089.94145 -332.14736 A 914.4 749.34202 312.0786 0 0 1071.41293 -348.2168" />
    <path d="M 1250.40764 203.18326 L 1250.40764 192.31735" />
    <path d="M -2.59854 -1317.93233 A 914.4 749.34202 132.0786 0 1 15.92998 -1301.8629" />
    <path d="M -585.92898 -1453.26031 A 914.4 749.34202 132.0786 0 1 -19.41669 -1331.44743 L 8.42767 -1306.307" />
    <path d="M 1351.13326 234.2688 L 1296.83193 245.09934 L 1250.40764 203.18326" />
    <path d="M 1051.06625 23.19967 L 889.9282 -122.29047" />
    <path d="M 708.22242 -286.35102 L 655.3447 -334.09385" />
    <path d="M 365.37859 -595.90171 L 352.07413 -607.91419" />
    <path d="M 290.25765 -663.72775 L 204.24053 -741.39185" />
    <path d="M 1102.22938 47.66259 L 1061.35011 10.75306" />
    <path d="M 1351.13326 212.53699 L 1304.63665 170.55562" />
    <path d="M 1047.52767 -61.58583 L 944.15721 -154.91811" />
    <path d="M 876.10576 -216.36117 L 772.73529 -309.69346" />
    <path d="M 533.26193 -525.91186 L 436.77938 -613.0251" />
    <path d="M 361.84001 -680.6872 L 265.35747 -767.80044" />
    <path d="M 1351.13326 212.53699 L 1296.83193 223.36753 L 1296.83193 245.09934" />
    <path d="M 1296.83193 223.36753 L 1250.40764 181.45145" />
    <path d="M 889.9282 -144.02228 L 1051.06389 1.46572" />
    <path d="M 944.15826 -154.83861 L 889.9282 -144.02228 L 889.9282 -133.15638" />
    <path d="M 879.64197 -153.30962 L 718.50628 -298.79763 L 718.50628 -287.93172" />
    <path d="M 772.73634 -309.61395 L 718.50628 -298.79763" />
    <path d="M 675.05888 -338.0259 L 708.22006 -308.08497" />
    <path d="M 481.89217 -512.43443 L 375.66245 -608.34831 L 375.66245 -597.48241" />
    <path d="M 391.31278 -611.46981 L 375.66245 -608.34831" />
    <path d="M 1116.42819 -307.57291 L -50.43185 -1361.12061" />
    <path d="M 1116.42819 -307.57291 L 1078.03136 -261.49779" />
    <path d="M -70.88365 -1367.31245 L -65.79059 -1373.42399 L -50.43185 -1361.12061" />
    <path d="M 1101.06946 -319.87628 L -65.79059 -1373.42399" />
    <path d="M 1101.06946 -319.87628 L 1062.67262 -273.80116 L 1078.03136 -261.49779" />
    <path d="M 1062.67262 -273.80116 L 1016.24834 -315.71724" />
    <path d="M 694.11533 -687.20563 L 658.52053 -644.49286" />
    <path d="M 683.90659 -696.42302 L 694.11533 -687.20563 A 914.4 749.34202 312.0786 0 0 127.60305 -809.0185" />
    <path d="M 522.69342 -841.98097 L 487.09861 -799.2682" />
    <path d="M 512.48467 -851.19836 L 522.69342 -841.98097 A 914.4 749.34202 312.0786 0 0 -43.81887 -963.79385" />
    <path d="M 351.2715 -996.75632 L 315.6767 -954.04355" />
    <path d="M 341.06275 -1005.97371 L 351.2715 -996.75632 A 914.4 749.34202 312.0786 0 0 -215.24079 -1118.56919" />
    <path d="M 179.84959 -1151.53166 L 144.25478 -1108.81889" />
    <path d="M 169.64084 -1160.74905 L 179.84959 -1151.53166 A 914.4 749.34202 312.0786 0 0 -386.6627 -1273.34453" />
    <path d="M 534.44132 -441.6878 L -632.41873 -1495.2355" />
    <path d="M 534.44132 -441.6878 L 534.44132 -387.35827" />
    <path d="M 391.03164 -492.89811 L 277.23897 -595.64052" />
    <path d="M -654.13926 -1437.74168 L -654.13926 -1490.90328 L -632.41873 -1495.2355" />
    <path d="M 512.72079 -437.35558 L -654.13926 -1490.90328" />
    <path d="M 512.72079 -437.35558 L 512.72079 -383.02605 L 534.44132 -387.35827" />
    <path d="M 512.72079 -383.02605 L 466.2965 -424.94214" />
    <path d="M 105.81705 -750.41587 L 219.60973 -647.67346" />
    <path d="M 105.81705 -804.67409 L 105.81705 -750.41587" />
    <path d="M 95.6083 -813.89148 L 105.81705 -804.67409 A 914.4 749.34202 312.0786 0 0 -460.7607 -456.86262" />
    <path d="M 48.18781 -802.4488 L -65.60486 -905.19121" />
    <path d="M -65.60486 -959.44944 L -65.60486 -905.19121" />
    <path d="M -75.81361 -968.66683 L -65.60486 -959.44944 A 914.4 749.34202 312.0786 0 0 -632.18262 -611.63796" />
    <path d="M -237.02678 -1059.96655 L -123.2341 -957.22415" />
    <path d="M -237.02678 -1114.22478 L -237.02678 -1059.96655" />
    <path d="M -247.23553 -1123.44217 L -237.02678 -1114.22478 A 914.4 749.34202 312.0786 0 0 -803.60453 -766.41331" />
    <path d="M -294.65602 -1111.99949 L -408.4487 -1214.7419" />
    <path d="M -408.4487 -1269.00012 L -408.4487 -1214.7419" />
    <path d="M -418.65744 -1278.21751 L -408.4487 -1269.00012 A 914.4 749.34202 312.0786 0 0 -975.02645 -921.18865" />
    <path d="M -128.12562 -156.52932 L -100.28125 -131.38889" />
    <path d="M -1172.40995 -1103.30909 L -1182.37057 -1112.30245 L -1220.76741 -1143.06088" />
    <path d="M -53.90736 -89.51318 L -1220.76741 -1143.06088" />
    <path d="M -53.90736 -89.51318 L -15.51052 -58.75475 L -61.93481 -100.67083" />
    <path d="M -250.99234 -271.36921 L -126.24284 -158.73398" />
    <path d="M -299.54753 -311.30467 L -289.33878 -302.08728" />
    <path d="M -297.66476 -313.50933 L -422.41426 -426.14456 L -460.7607 -456.86262" />
    <path d="M -470.96945 -466.08001 L -460.7607 -456.86262" />
    <path d="M -593.83617 -580.9199 L -469.08667 -468.28467" />
    <path d="M -593.83617 -580.9199 L -632.18262 -611.63796" />
    <path d="M -642.39136 -620.85535 L -632.18262 -611.63796" />
    <path d="M -640.50859 -623.06002 L -765.25809 -735.69524 L -803.60453 -766.41331" />
    <path d="M -813.81328 -775.6307 L -803.60453 -766.41331" />
    <path d="M -936.68 -890.47059 L -811.9305 -777.83536" />
    <path d="M -936.68 -890.47059 L -975.02645 -921.18865" />
    <path d="M -985.2352 -930.40604 L -975.02645 -921.18865" />
    <path d="M -983.35242 -932.6107 L -1108.10192 -1045.24593" />
    <path d="M -69.26609 -71.08312 L -1236.12614 -1124.63083 L -1220.76741 -1143.06088" />
    <path d="M -69.26609 -71.08312 L -30.86926 -40.32469 L -15.51052 -58.75475" />
    <path d="M -378.16854 475.58111 L -350.32418 500.72154" />
    <path d="M -1422.08044 -520.61933 L -1470.8312 -510.89586" />
    <path d="M -303.97115 542.65184 L -1470.8312 -510.89586" />
    <path d="M -303.97115 542.65184 L -249.66983 531.8213 L -296.09411 489.90522" />
    <path d="M -485.15165 319.20683 L -375.4711 418.23643" />
    <path d="M -549.59046 320.80577 L -539.38171 330.02316" />
    <path d="M -546.89302 263.46109 L -656.57356 164.43149 L -710.80362 175.24781" />
    <path d="M -721.01237 166.03042 L -710.80362 175.24781" />
    <path d="M -827.99548 9.65614 L -718.31494 108.68574" />
    <path d="M -827.99548 9.65614 L -882.22554 20.47247" />
    <path d="M -892.43429 11.25508 L -882.22554 20.47247" />
    <path d="M -889.73685 -46.0896 L -999.41739 -145.1192 L -1053.64745 -134.30287" />
    <path d="M -1063.8562 -143.52026 L -1053.64745 -134.30287" />
    <path d="M -1170.83931 -299.89454 L -1061.15877 -200.86494" />
    <path d="M -1170.83931 -299.89454 L -1225.06937 -289.07822" />
    <path d="M -1235.27812 -298.29561 L -1225.06937 -289.07822" />
    <path d="M -1232.58068 -355.64029 L -1342.26123 -454.66989" />
    <path d="M -303.97115 564.38365 L -1470.8312 -489.16405 L -1470.8312 -510.89586" />
    <path d="M -303.97115 564.38365 L -249.66983 553.55311 L -249.66983 531.8213" />
    <path d="M 961.80841 -154.96845 L 969.23528 -148.2628" />
    <path d="M 819.5635 168.7991 L 829.77225 178.01649" />
    <path d="M 779.21877 -503.74061 A 854.4 700.17259 312.0786 0 0 761.04928 -530.55062" />
    <path d="M -656.49845 164.49931 A 854.4 700.17259 132.0786 0 1 -439.55299 -405.41191" />
    <path d="M -422.36297 -426.09825 A 854.4 700.17259 132.0786 0 1 105.88541 -750.35415" />
    <path d="M 179.11475 -762.50904 A 854.4 700.17259 132.0786 0 1 646.28472 -648.26553" />
    <path d="M 767.1229 -527.01542 A 854.4 700.17259 132.0786 0 1 784.21447 -502.5447" />
    <path d="M 849.21576 -372.76194 A 854.4 700.17259 132.0786 0 1 889.9282 -133.15638" />
    <path d="M -193.20811 -333.66479 L -68.56226 -221.12314" />
    <path d="M 371.92069 176.58505 L 552.10792 339.27452" />
    <path d="M 648.14158 14.02375 L 658.35033 23.24114" />
    <path d="M 476.71967 -140.75159 L 486.92842 -131.5342" />
    <path d="M 388.4795 -257.40462 L 486.95447 -168.49244" />
    <path d="M 193.71166 -433.25879 L 206.50425 -421.70848" />
    <path d="M 193.71166 -433.25879 L 33.43266 -401.29073 A 700 297.05413 180 0 0 -73.78988 -435.66907" />
    <path d="M -153.85705 -453.62556 A 700 297.05413 180 0 0 -374.66826 -478.31268" />
    <path d="M -459.34761 -479.50661 A 700 297.05413 180 0 0 -481.07737 -479.11097" />
    <path d="M -519.61612 -477.70021 A 700 297.05413 180 0 0 -681.77549 -461.3691" />
    <path d="M -764.45877 -445.82691 A 700 297.05413 180 0 0 -961.60396 -380.768" />
    <path d="M -1039.81924 -335.84537 A 700 297.05413 180 0 0 -1119.78502 -253.79807" />
    <path d="M -1139.96462 -190.42752 A 700 297.05413 180 0 0 -1140.20996 -182.56352 A 700 297.05413 180 0 0 -1139.29579 -167.38701" />
    <path d="M -1299.5748 -135.41895 L -1223.57279 -150.57775" />
    <path d="M -1160.19386 -163.21884 L -1139.29579 -167.38701" />
    <path d="M -1299.5748 -135.41895 L -1195.46272 -41.41707" />
    <path d="M -454.37789 540.02071 L -377.35056 524.65741" />
    <path d="M -892.31485 -216.648 L -865.62335 -192.54848" />
    <path d="M -811.1637 -143.37734 L -694.20143 -37.77313" />
    <path d="M -639.74179 11.398 L -522.77952 117.00221" />
    <path d="M -468.31987 166.17335 L -351.3576 271.77756" />
    <path d="M -274.32951 -339.90677 L -317.38925 -331.3184" />
    <path d="M -350.23476 -324.76727 L -520.05418 -290.89635" />
    <path d="M -602.11861 -274.52839 L -786.51125 -237.7508" />
    <path d="M -857.35638 -223.62056 L -892.31485 -216.648" />
    <path d="M -1299.5748 -108.25419 L -1299.5748 -135.41895" />
    <path d="M 673.27878 -520.34977 A 854.4 700.17259 312.0786 0 0 650.10424 -579.9902" />
    <path d="M 607.79685 -658.51595 A 854.4 700.17259 312.0786 0 0 589.62736 -685.32596" />
    <path d="M -827.92037 9.72396 A 854.4 700.17259 132.0786 0 1 -610.9749 -560.18726" />
    <path d="M -593.78489 -580.8736 A 854.4 700.17259 132.0786 0 1 -65.53651 -905.12949" />
    <path d="M 7.69283 -917.28438 A 854.4 700.17259 132.0786 0 1 474.86281 -803.04087" />
    <path d="M 595.70098 -681.79076 A 854.4 700.17259 132.0786 0 1 612.79256 -657.32004" />
    <path d="M 657.20661 -577.59439 A 854.4 700.17259 132.0786 0 1 680.56964 -519.71711" />
    <path d="M 716.27277 -346.24611 A 854.4 700.17259 132.0786 0 1 718.50628 -287.93172" />
    <path d="M 533.90218 -519.113 A 854.4 700.17259 312.0786 0 0 520.19485 -608.42577" />
    <path d="M 501.85686 -675.12511 A 854.4 700.17259 312.0786 0 0 478.68232 -734.76555" />
    <path d="M 436.37493 -813.2913 A 854.4 700.17259 312.0786 0 0 418.20545 -840.10131" />
    <path d="M -999.34228 -145.05138 A 854.4 700.17259 132.0786 0 1 -782.39682 -714.9626" />
    <path d="M -765.2068 -735.64894 A 854.4 700.17259 132.0786 0 1 -236.95842 -1059.90484" />
    <path d="M -163.72908 -1072.05973 A 854.4 700.17259 132.0786 0 1 303.44089 -957.81622" />
    <path d="M 424.27907 -836.5661 A 854.4 700.17259 132.0786 0 1 441.37064 -812.09539" />
    <path d="M 485.78469 -732.36974 A 854.4 700.17259 132.0786 0 1 509.14772 -674.49245" />
    <path d="M 528.5436 -607.41039 A 854.4 700.17259 132.0786 0 1 543.14104 -519.9534" />
    <path d="M 362.48027 -673.88835 A 854.4 700.17259 312.0786 0 0 348.77294 -763.20111" />
    <path d="M 330.43495 -829.90046 A 854.4 700.17259 312.0786 0 0 307.2604 -889.54089" />
    <path d="M 264.95302 -968.06664 A 854.4 700.17259 312.0786 0 0 246.78353 -994.87665" />
    <path d="M -1170.7642 -299.82673 A 854.4 700.17259 132.0786 0 1 -953.81874 -869.73795" />
    <path d="M -936.62872 -890.42428 A 854.4 700.17259 132.0786 0 1 -408.38034 -1214.68018" />
    <path d="M -335.151 -1226.83507 A 854.4 700.17259 132.0786 0 1 132.01897 -1112.59156" />
    <path d="M 252.85715 -991.34145 A 854.4 700.17259 132.0786 0 1 269.94873 -966.87073" />
    <path d="M 314.36277 -887.14508 A 854.4 700.17259 132.0786 0 1 337.72581 -829.26779" />
    <path d="M 357.12168 -762.18573 A 854.4 700.17259 132.0786 0 1 371.71913 -674.72875" />
    <path d="M 375.5562 -610.28583 A 854.4 700.17259 132.0786 0 1 375.66245 -597.48241" />
    <path d="M -258.79938 -242.21107 L -258.79938 34.14007" />
    <path d="M 506.85682 393.57457 A 50 40.97452 132.0786 0 1 552.10792 339.27452" />
    <path d="M 506.85682 393.57457 L 506.85682 900.28798 L 534.00748 894.87271 L 592.75845 415.86907" />
    <path d="M 113.12705 1005.97614 L 343.63618 960.00049" />
    <path d="M 113.12705 1005.97614 L 113.12705 1225.10523 L 113.80764 1225.71973 L 113.80764 1006.59063 L 344.31676 960.61499 L 343.63618 960.00049" />
    <path d="M 282.60595 1226.88762 A 12.5 5.30454 180 1 0 307.60595 1226.88762 L 307.60595 1191.74887" />
    <path d="M 101.60153 1262.98942 A 12.5 5.30454 180 1 0 126.60153 1262.98942 L 126.60153 1227.85067" />
    <path d="M 1351.13326 212.53699 L 1351.13326 234.2688" />
    <path d="M 944.15826 -154.83861 A 914.4 749.34202 312.0786 0 0 906.92971 -382.32474" />
    <path d="M 747.33415 -640.82468 A 914.4 749.34202 312.0786 0 0 729.46201 -657.62109 L 719.25326 -666.83848" />
    <path d="M 729.46201 -657.62109 A 914.4 749.34202 312.0786 0 0 710.93349 -673.69053" />
    <path d="M 700.72474 -682.90792 A 914.4 749.34202 132.0786 0 1 719.25326 -666.83848" />
    <path d="M 772.73634 -309.61395 A 914.4 749.34202 312.0786 0 0 770.72104 -357.10596" />
    <path d="M 743.544 -511.16259 A 914.4 749.34202 312.0786 0 0 732.52891 -545.89647" />
    <path d="M 575.91224 -795.60003 A 914.4 749.34202 312.0786 0 0 558.04009 -812.39643 L 547.83134 -821.61382" />
    <path d="M 558.04009 -812.39643 A 914.4 749.34202 312.0786 0 0 539.51157 -828.46587" />
    <path d="M 529.30282 -837.68326 A 914.4 749.34202 132.0786 0 1 547.83134 -821.61382" />
    <path d="M 598.43836 -522.7675 A 914.4 749.34202 312.0786 0 0 588.41448 -596.973" />
    <path d="M 572.12208 -665.93794 A 914.4 749.34202 312.0786 0 0 561.10699 -700.67182" />
    <path d="M 404.49032 -950.37537 A 914.4 749.34202 312.0786 0 0 386.61817 -967.17178 L 376.40943 -976.38917" />
    <path d="M 386.61817 -967.17178 A 914.4 749.34202 312.0786 0 0 368.08966 -983.24121" />
    <path d="M 357.88091 -992.4586 A 914.4 749.34202 132.0786 0 1 376.40943 -976.38917" />
    <path d="M 427.01644 -677.54284 A 914.4 749.34202 312.0786 0 0 416.99257 -751.74834" />
    <path d="M 400.70017 -820.71328 A 914.4 749.34202 312.0786 0 0 389.68507 -855.44716" />
    <path d="M 233.0684 -1105.15072 A 914.4 749.34202 312.0786 0 0 215.19626 -1121.94712 L 204.98751 -1131.16451" />
    <path d="M 215.19626 -1121.94712 A 914.4 749.34202 312.0786 0 0 196.66774 -1138.01656" />
    <path d="M 186.45899 -1147.23395 A 914.4 749.34202 132.0786 0 1 204.98751 -1131.16451" />
    <path d="M 1101.06946 -319.87628 L 1116.42819 -307.57291" />
    <path d="M 117.3943 -818.23589 A 914.4 749.34202 132.0786 0 1 683.90659 -696.42302" />
    <path d="M -54.02762 -973.01124 A 914.4 749.34202 132.0786 0 1 512.48467 -851.19836" />
    <path d="M -225.44953 -1127.78658 A 914.4 749.34202 132.0786 0 1 341.06275 -1005.97371" />
    <path d="M -396.87145 -1282.56193 A 914.4 749.34202 132.0786 0 1 169.64084 -1160.74905" />
    <path d="M 512.72079 -437.35558 L 534.44132 -441.6878" />
    <path d="M -470.96945 -466.08001 A 914.4 749.34202 132.0786 0 1 95.6083 -813.89148" />
    <path d="M -642.39136 -620.85535 A 914.4 749.34202 132.0786 0 1 -75.81361 -968.66683" />
    <path d="M -813.81328 -775.6307 A 914.4 749.34202 132.0786 0 1 -247.23553 -1123.44217" />
    <path d="M -985.2352 -930.40604 A 914.4 749.34202 132.0786 0 1 -418.65744 -1278.21751" />
    <path d="M -69.26609 -71.08312 L -53.90736 -89.51318" />
    <path d="M -476.12184 -438.42961 A 914.4 749.34202 312.0786 0 0 -710.80362 175.24781" />
    <path d="M -721.01237 166.03042 A 914.4 749.34202 132.0786 0 1 -486.33059 -447.647" />
    <path d="M -647.54376 -593.20496 A 914.4 749.34202 312.0786 0 0 -882.22554 20.47247" />
    <path d="M -892.43429 11.25508 A 914.4 749.34202 132.0786 0 1 -657.75251 -602.42235" />
    <path d="M -818.96568 -747.9803 A 914.4 749.34202 312.0786 0 0 -1053.64745 -134.30287" />
    <path d="M -1063.8562 -143.52026 A 914.4 749.34202 132.0786 0 1 -829.17442 -757.19769" />
    <path d="M -990.38759 -902.75565 A 914.4 749.34202 312.0786 0 0 -1225.06937 -289.07822" />
    <path d="M -1235.27812 -298.29561 A 914.4 749.34202 132.0786 0 1 -1000.59634 -911.97304" />
    <path d="M -303.97115 564.38365 L -303.97115 542.65184" />
    <path d="M -241.56175 -282.16598 L -116.84867 -169.56364" />
    <path d="M 371.92069 271.74194 L 506.85682 393.57457" />
    <path d="M -861.02974 -210.32437 A 50 40.97452 312.0786 0 0 -892.31485 -216.648" />
    <path d="M -291.98927 -320.08563 L -302.60361 -317.96857" />
    <path d="M -335.44912 -311.41745 L -530.97692 -272.41893" />
    <path d="M -611.6946 -256.31958 L -791.8728 -220.38257" />
    <path d="M 371.92069 778.45534 L 506.85682 900.28798" />
    <path d="M 113.12705 1005.97614 L 113.80764 1006.59063" />
    <path d="M 344.31676 1179.74409 L 344.31676 960.61499" />
    <path d="M 113.80764 1225.71973 L 344.31676 1179.74409" />
    <path d="M 161.18554 1151.07465 L 161.18554 1205.40417 L 162.67432 1206.74838 L 298.42763 1179.67203 L 298.42763 1125.3425 L 162.67432 1152.41885 L 162.67432 1206.74838" />
    <path d="M 296.93886 1123.9983 L 161.18554 1151.07465 L 162.67432 1152.41885" />
    <path d="M 296.93886 1123.9983 L 298.42763 1125.3425" />
    <path d="M 560.54388 683.18341 L 603.86871 674.54216" />
    <path d="M 668.37879 661.67546 L 704.21614 654.52761" />
    <path d="M 560.17779 681.50306 L 560.54388 683.18341 L 560.02874 682.71829" />
    <path d="M 647.93625 396.20382 L 655.74801 432.05967" />
    <path d="M 675.07662 520.7777 L 704.21614 654.52761" />
    <path d="M -637.70537 922.17732 L -781.37763 950.83312 L -855.81643 609.16027 L -1004.69402 474.73999 L -1079.13282 681.99257 L -781.37763 950.83312" />
    <path d="M -712.14417 580.50446 L -855.81643 609.16027" />
    <path d="M -637.70537 922.17732 L -712.14417 580.50446 L -861.02176 446.08419 L -1004.69402 474.73999" />
    <path d="M -68.96194 -1186.7809 A 765 626.91015 132.0786 0 1 -32.52724 -1140.82491" />
    <path d="M 8.39308 -1072.46299 A 765 626.91015 132.0786 0 1 43.35689 -985.38484" />
    <path d="M 59.2944 -921.64284 A 765 626.91015 132.0786 0 1 67.80729 -863.00757" />
    <path d="M 68.81899 -741.55328 A 765 626.91015 132.0786 0 1 37.57602 -577.74264" />
    <path d="M 4.36604 -487.25026 A 765 626.91015 132.0786 0 1 -26.94754 -422.32457" />
    <path d="M -258.79938 -141.15167 A 765 626.91015 132.0786 0 1 -395.61601 -49.15213" />
    <path d="M -482.69027 -7.96927 A 765 626.91015 132.0786 0 1 -596.53085 28.32247" />
    <path d="M -621.33019 -1284.61381 A 690.9233 566.205 312.0786 0 0 -1067.37814 -1008.47679" />
    <path d="M -1084.13084 -987.3956 A 690.9233 566.205 312.0786 0 0 -1238.98836 -438.27852 A 690.9233 566.205 312.0786 0 0 -1229.06411 -390.52216" />
    <path d="M -629.83518 -31.72412 A 690.9233 566.205 312.0786 0 0 -443.86664 -94.48262" />
    <path d="M -332.71395 -161.55658 A 690.9233 566.205 312.0786 0 0 -258.79938 -221.54864" />
    <path d="M -44.95226 -531.35658 A 690.9233 566.205 312.0786 0 0 0.85951 -720.75447" />
    <path d="M 3.9456 -789.30192 A 690.9233 566.205 312.0786 0 0 0.88594 -845.15725" />
    <path d="M -28.89525 -977.30977 A 690.9233 566.205 312.0786 0 0 -78.20929 -1077.3483" />
    <path d="M -126.58101 -1140.2588 A 690.9233 566.205 312.0786 0 0 -242.19939 -1232.11852" />
    <path d="M -383.27394 -1284.98253 A 690.9233 566.205 312.0786 0 0 -403.94463 -1288.94824" />
    <path d="M -499.46948 -1296.92377 A 690.9233 566.205 312.0786 0 0 -621.33019 -1284.61381" />
    <path d="M 59.97097 -517.87025 A 800 655.59231 132.0786 0 1 11.71618 -409.41435" />
    <path d="M -258.79938 -90.0292 A 800 655.59231 132.0786 0 1 -421.09773 8.98672" />
    <path d="M 100.76667 -749.24476 A 790 647.39741 132.0786 0 1 75.7151 -595.93994" />
    <path d="M 48.77913 -512.08719 A 790 647.39741 132.0786 0 1 3.79232 -412.2149" />
    <path d="M -258.79938 -100.43044 A 790 647.39741 132.0786 0 1 -416.33715 -2.701" />
    <path d="M -497.37662 31.61867 A 790 647.39741 132.0786 0 1 -568.34178 53.77414" />
    <path d="M 893.93176 1058.9198 L 901.35862 1065.62546" />
    <path d="M -178.32123 986.23587 L -178.32123 1066.30889" />
    <path d="M 282.60595 1226.88762 L 282.60595 1196.73518" />
    <path d="M 101.60153 1262.98942 L 101.60153 1226.11776" />
    <path d="M -1140.20996 -167.20468 L -1140.20996 -182.56352" />
    <path d="M -346.7279 253.86736 L -464.34721 147.66992" />
    <path d="M -518.14982 99.09202 L -635.76913 -7.10542" />
    <path d="M -689.57174 -55.68333 L -807.19105 -161.88077" />
</svg>