<svg version="1.1" xmlns="http://www.w3.org/2000/svg" viewBox="-2462.1450197222607 -961.2636846648411 4725.584949425304 2626.761407653581" fill="none" stroke="black" stroke-width="0.6%" vector-effect="non-scaling-stroke">
    <path d="M 2161.37016 947.72587 L 2226.45717 939.13366 L 2241.92407 940.18447 L 2244.11092 936.80317 L 2253.98277 935.49998 L 2248.02164 930.75643 L 2262.43993 908.46288 L 2216.04463 905.31083 L 1892.66147 647.97974" />
    <path d="M 2143.48884 933.49687 L 2161.37016 947.72587 L 2161.37016 1042.3278 L 2226.45717 1033.7356 L 2241.92407 1034.78641 L 2244.11092 1031.40511 L 2253.98277 1030.10191" />
    <path d="M 1304.43098 876.49203 L 2143.48884 933.49687" />
    <path d="M 1304.43098 876.49203 L 1376.98676 848.30598" />
    <path d="M 2097.98861 897.29021 L 1376.98676 848.30598" />
    <path d="M 1820.10568 676.16578 L 2097.98861 897.29021" />
    <path d="M 1820.10568 676.16578 L 1892.66147 647.97974" />
    <path d="M 2226.45717 939.13366 L 2226.45717 1033.7356" />
    <path d="M 2143.48884 1028.0988 L 2161.37016 1042.3278" />
    <path d="M 2143.48884 1028.0988 L 2143.48884 933.49687" />
    <path d="M 1304.43098 971.09396 L 2143.48884 1028.0988" />
    <path d="M 1304.43098 876.49203 L 1304.43098 971.09396" />
    <path d="M 1630.5777 -196.22688 L 1630.5777 584.23909" />
    <path d="M 1630.5777 -196.22688 L 1012.75455 43.78138 L 544.18523 -82.92455" />
    <path d="M 1012.75455 43.78138 A 914.4 554.17027 285.13148 0 0 1208.01844 612.68926 L 1208.01844 1010.06136 L 1307.74734 971.31927" />
    <path d="M 1587.57571 862.61321 L 1821.38385 771.78481" />
    <path d="M 1973.82502 712.56537 L 1989.074 706.64154 L 1989.074 309.26943 A 914.4 554.17027 285.13148 0 0 2184.33789 -411.34836 L 2176.50582 -413.46623 L 2101.6122 -384.372 A 500 303.02399 105.13148 0 1 1943.06041 39.55869 L 1943.06041 181.47743" />
    <path d="M 2109.44427 -382.25413 L 2184.33789 -411.34836" />
    <path d="M 2109.44427 -382.25413 A 500 303.02399 105.13148 0 1 1950.89248 41.67657" />
    <path d="M 1950.89248 459.80511 L 1950.89248 41.67657" />
    <path d="M 1950.89248 459.80511 L 1950.79767 464.29702 A 75 45.4536 105.13148 0 1 1902.84526 549.42166 L 1678.62492 636.52545 A 75 45.4536 105.13148 0 1 1659.0473 637.9737 A 75 45.4536 105.13148 0 1 1630.95657 592.98449 L 1630.5777 584.23909" />
    <path d="M 1820.10568 676.16578 L 1820.10568 770.76772 L 1968.00654 888.45934" />
    <path d="M 2262.43993 908.46288 L 2262.43993 1003.06482" />
    <path d="M 2253.98277 1016.14127 L 2262.43993 1003.06482" />
    <path d="M 2253.98277 935.49998 L 2253.98277 1030.10191" />
    <path d="M 2244.11092 1031.40511 L 2244.11092 936.80317" />
    <path d="M 2241.92407 940.18447 L 2241.92407 1034.78641" />
    <path d="M 1630.5777 -196.22688 L 1622.74563 -198.34476 L 1601.586 -190.12479" />
    <path d="M 1005.12132 16.39124 L 1563.34706 -200.46499 L 1601.586 -190.12479" />
    <path d="M 1005.12132 16.39124 L 535.72502 -110.53832" />
    <path d="M 341.48651 -163.0624 L 227.66356 -193.84129" />
    <path d="M 164.51691 -210.91678 L 56.49366 -240.12738" />
    <path d="M -199.55081 -309.36442 L -391.22362 -361.1947" />
    <path d="M -508.9944 -393.04112 L -700.6672 -444.87141" />
    <path d="M -814.86577 -479.88147 L -859.57112 -462.5146 A 914.4 554.17027 285.13148 0 0 -859.52067 -451.18197" />
    <path d="M 391.62588 -124.17815 L 236.12378 -166.22751" />
    <path d="M 175.4336 -182.63875 L 41.92147 -218.7418" />
    <path d="M -220.77458 -289.7775 L -382.7634 -333.58093" />
    <path d="M -443.45357 -349.99217 L -469.52799 -357.04296" />
    <path d="M -530.21817 -373.4542 L -692.20698 -417.25763" />
    <path d="M -752.89716 -433.66888 L -778.97158 -440.71967" />
    <path d="M -839.66176 -457.13091 L -859.57112 -462.5146" />
    <path d="M 1200.18637 610.57139 L 1208.01844 612.68926" />
    <path d="M 1200.18637 610.57139 A 914.4 554.17027 105.13148 0 1 1181.96848 592.53603 L 881.73909 511.35093" />
    <path d="M 899.95698 529.38629 A 914.4 554.17027 105.13148 0 1 881.73909 511.35093" />
    <path d="M 890.74278 526.89468 L 899.95698 529.38629" />
    <path d="M 890.74278 526.89468 A 914.4 554.17027 105.13148 0 1 872.52489 508.85932 L 572.29551 427.67423" />
    <path d="M 590.5134 445.70958 A 914.4 554.17027 105.13148 0 1 572.29551 427.67423" />
    <path d="M 581.2992 443.21797 L 590.5134 445.70958" />
    <path d="M 581.2992 443.21797 A 914.4 554.17027 105.13148 0 1 565.26702 427.46125" />
    <path d="M 471.88859 400.52317 L 262.85192 343.99752" />
    <path d="M 281.06981 362.03288 A 914.4 554.17027 105.13148 0 1 262.85192 343.99752" />
    <path d="M 271.85561 359.54126 L 281.06981 362.03288" />
    <path d="M 271.85561 359.54126 A 914.4 554.17027 105.13148 0 1 257.06182 345.06122" />
    <path d="M 212.5518 330.39585 L 29.0038 280.7626" />
    <path d="M -711.32415 46.96274 A 914.4 554.17027 105.13148 0 1 -736.05748 10.76759" />
    <path d="M -764.18033 -39.46243 A 914.4 554.17027 105.13148 0 1 -781.52031 -77.01232" />
    <path d="M -796.41143 -114.90712 A 914.4 554.17027 105.13148 0 1 -804.70007 -139.03685" />
    <path d="M -816.58463 -178.89559 A 914.4 554.17027 105.13148 0 1 -848.77122 -374.58396" />
    <path d="M -851.65123 -445.45298 A 914.4 554.17027 105.13148 0 1 -851.6886 -449.0641 L -859.52067 -451.18197" />
    <path d="M 1176.49689 586.68703 L 876.2675 505.50194 L 903.44711 454.80716 A 854.4 517.80739 105.13148 0 1 743.70538 -17.65327" />
    <path d="M 1176.49689 586.68703 A 914.4 554.17027 105.13148 0 1 1004.97293 52.99615 L 704.74354 -28.18895" />
    <path d="M 876.2675 505.50194 A 914.4 554.17027 105.13148 0 1 704.74354 -28.18895" />
    <path d="M 867.0533 503.01033 L 566.82391 421.82523 L 594.00352 371.13046 A 854.4 517.80739 105.13148 0 1 575.48424 349.6012" />
    <path d="M 867.0533 503.01033 A 914.4 554.17027 105.13148 0 1 695.52934 -30.68056 L 547.60957 -70.67958" />
    <path d="M 407.42198 -108.58773 L 395.29995 -111.86565" />
    <path d="M 566.82391 421.82523 A 914.4 554.17027 105.13148 0 1 566.24828 421.19763" />
    <path d="M 491.17453 313.88435 A 914.4 554.17027 105.13148 0 1 442.28848 198.1616" />
    <path d="M 430.40392 158.30285 A 914.4 554.17027 105.13148 0 1 395.29995 -111.86565" />
    <path d="M 473.01564 396.45852 L 258.11679 338.34767" />
    <path d="M 489.30581 324.68248 A 914.4 554.17027 105.13148 0 1 433.07428 195.66998" />
    <path d="M 421.18972 155.81124 A 914.4 554.17027 105.13148 0 1 386.08575 -114.35727 L 239.54811 -153.98254" />
    <path d="M 179.82572 -170.13209 L 85.85636 -195.54236" />
    <path d="M 218.07146 289.25143 A 914.4 554.17027 105.13148 0 1 132.84489 114.48489" />
    <path d="M 120.96034 74.62614 A 914.4 554.17027 105.13148 0 1 85.85636 -195.54236" />
    <path d="M 213.17438 326.19479 L 29.0038 276.39318" />
    <path d="M 217.00661 297.99286 A 914.4 554.17027 105.13148 0 1 123.63069 111.99327" />
    <path d="M 111.74614 72.13453 A 914.4 554.17027 105.13148 0 1 76.64216 -198.03397 L 37.39776 -208.64606" />
    <path d="M -232.76405 -278.09957 A 914.4 554.17027 105.13148 0 1 -232.80142 -281.71068 L -379.33906 -321.33596" />
    <path d="M -439.06146 -337.4855 L -479.62454 -348.45417" />
    <path d="M -450.77611 35.95462 A 914.4 554.17027 105.13148 0 1 -462.86252 9.156" />
    <path d="M -477.75364 -28.7388 A 914.4 554.17027 105.13148 0 1 -486.04228 -52.86853" />
    <path d="M -497.92684 -92.72727 A 914.4 554.17027 105.13148 0 1 -530.85855 -299.80696" />
    <path d="M -494.06085 134.95115 L -670.21397 87.31755" />
    <path d="M -454.73674 44.21428 A 914.4 554.17027 105.13148 0 1 -472.07672 6.66439" />
    <path d="M -486.96784 -31.23041 A 914.4 554.17027 105.13148 0 1 -495.25648 -55.36014" />
    <path d="M -507.14104 -95.21888 A 914.4 554.17027 105.13148 0 1 -539.32763 -290.90725" />
    <path d="M -542.20764 -361.77628 A 914.4 554.17027 105.13148 0 1 -542.24501 -365.38739 L -688.78265 -405.01266" />
    <path d="M -748.50504 -421.16221 L -789.06813 -432.13088" />
    <path d="M -710.2593 38.2213 A 914.4 554.17027 105.13148 0 1 -732.77217 3.57221" />
    <path d="M -760.2197 -47.72209 A 914.4 554.17027 105.13148 0 1 -772.30611 -74.52071" />
    <path d="M -787.19722 -112.41551 A 914.4 554.17027 105.13148 0 1 -795.48587 -136.54523" />
    <path d="M -807.37043 -176.40398 A 914.4 554.17027 105.13148 0 1 -840.30214 -383.48367" />
    <path d="M 164.37186 727.84867 L 341.48651 775.74228" />
    <path d="M 452.3136 805.71106 L 1208.01844 1010.06136" />
    <path d="M 310.24811 671.17953 L 341.48651 679.62671" />
    <path d="M 488.03806 719.25574 L 581.2992 744.47451 L 581.2992 555.27064 L 541.78732 544.58622" />
    <path d="M 430.60252 514.52072 L 281.06981 474.08554" />
    <path d="M 281.06981 601.02438 L 281.06981 474.08554" />
    <path d="M 271.85561 578.87012 L 281.06981 601.02438" />
    <path d="M 271.85561 578.87012 L 271.85561 471.59393 L 233.72587 461.28326" />
    <path d="M 271.85561 460.2417 L 236.26931 450.6188" />
    <path d="M 271.85561 460.2417 L 271.85561 359.54126" />
    <path d="M 281.06981 462.73331 L 281.06981 362.03288" />
    <path d="M 581.2992 543.9184 L 544.33076 533.92176" />
    <path d="M 435.08649 504.38099 L 281.06981 462.73331" />
    <path d="M 581.2992 543.9184 L 581.2992 443.21797" />
    <path d="M 590.5134 546.41002 L 590.5134 445.70958" />
    <path d="M 890.74278 627.59511 L 590.5134 546.41002" />
    <path d="M 890.74278 627.59511 L 890.74278 526.89468" />
    <path d="M 899.95698 630.08672 L 899.95698 529.38629" />
    <path d="M 1200.18637 711.27182 L 899.95698 630.08672" />
    <path d="M 1200.18637 711.27182 L 1200.18637 610.57139" />
    <path d="M 590.5134 746.96612 L 590.5134 557.76225" />
    <path d="M 590.5134 746.96612 L 890.74278 828.15122 L 890.74278 638.94734 L 590.5134 557.76225" />
    <path d="M 899.95698 830.64283 L 899.95698 641.43896" />
    <path d="M 899.95698 830.64283 L 1200.18637 911.82792 L 1200.18637 722.62405 L 899.95698 641.43896" />
    <path d="M 1681.01255 326.6669 L 1943.06041 397.52732" />
    <path d="M 1681.01255 225.96647 L 1681.01255 326.6669 L 1642.57477 341.59898 L 1642.57477 214.99379" />
    <path d="M 1630.5777 313.0288 L 1633.36057 313.78132" />
    <path d="M 1837.66295 569.58287 L 1681.01255 527.223 L 1630.5777 546.81563" />
    <path d="M 1681.01255 363.34517 L 1681.01255 527.223" />
    <path d="M 1657.70424 170.96793 L 1630.5777 163.63264" />
    <path d="M 1704.70203 183.67661 A 914.4 554.17027 105.13148 0 1 1681.01255 225.96647" />
    <path d="M 1943.06041 248.13116 L 1704.70203 183.67661 L 1677.52242 154.09899 A 854.4 517.80739 105.13148 0 1 1642.57477 214.99379" />
    <path d="M 1876.27644 -494.65132 A 914.4 554.17027 105.13148 0 1 1720.14699 153.985" />
    <path d="M 1876.27644 -494.65132 L 1867.06223 -497.14294 L 1828.62446 -482.21086 A 854.4 517.80739 105.13148 0 1 1673.70596 141.42687 L 1630.5777 129.76455" />
    <path d="M 1566.83285 -578.32803 A 914.4 554.17027 105.13148 0 1 1508.435 -179.13307" />
    <path d="M 1566.83285 -578.32803 L 1557.61865 -580.81964 L 1519.18087 -565.88756 A 854.4 517.80739 105.13148 0 1 1504.99776 -377.56938" />
    <path d="M 1257.38926 -662.00474 A 914.4 554.17027 105.13148 0 1 1240.48038 -449.09758" />
    <path d="M 1257.38926 -662.00474 L 1248.17506 -664.49635 L 1209.73729 -649.56427 A 854.4 517.80739 105.13148 0 1 1195.55417 -461.24609" />
    <path d="M 947.94567 -745.68144 A 914.4 554.17027 105.13148 0 1 931.03679 -532.77429" />
    <path d="M 947.94567 -745.68144 L 938.73147 -748.17306 L 900.2937 -733.24098 A 854.4 517.80739 105.13148 0 1 886.11059 -544.9228" />
    <path d="M 638.50209 -829.35815 A 914.4 554.17027 105.13148 0 1 621.59321 -616.451" />
    <path d="M 638.50209 -829.35815 L 629.28789 -831.84976 L 590.85011 -816.91769 A 854.4 517.80739 105.13148 0 1 576.667 -628.5995" />
    <path d="M 329.0585 -913.03486 A 914.4 554.17027 105.13148 0 1 312.14962 -700.1277" />
    <path d="M 329.0585 -913.03486 L 319.8443 -915.52647 L 240.69766 -884.78005" />
    <path d="M 2109.44427 -382.25413 L 2101.6122 -384.372" />
    <path d="M 1943.06041 39.55869 L 1950.89248 41.67657" />
    <path d="M 1904.82148 171.13723 L 1943.06041 181.47743" />
    <path d="M 1904.82148 187.19171 L 1904.82148 171.13723" />
    <path d="M 1904.82148 187.19171 L 1943.06041 197.53191 L 1943.06041 422.68452" />
    <path d="M 1897.75725 410.43409 L 1943.06041 422.68452" />
    <path d="M 1897.75725 421.78632 L 1897.75725 410.43409" />
    <path d="M 1897.75725 421.78632 L 1943.06041 434.03675 L 1943.06041 457.68724 L 1942.9656 462.17915 A 75 45.4536 105.13148 0 1 1895.01319 547.30379 L 1670.79285 634.40758 A 75 45.4536 105.13148 0 1 1655.20939 636.62584" />
    <path d="M 1943.06041 457.68724 L 1950.89248 459.80511" />
    <path d="M 1942.9656 462.17915 L 1950.79767 464.29702" />
    <path d="M 938.39476 615.15465 L 899.95698 630.08672" />
    <path d="M 938.39476 615.15465 L 1200.18637 685.94577" />
    <path d="M 1121.13322 513.67171 L 903.44711 454.80716" />
    <path d="M -472.36194 82.77434 L -614.74609 44.27221 L -579.07108 -22.26798" />
    <path d="M 811.68963 429.995 L 594.00352 371.13046" />
    <path d="M 480.91212 171.96078 A 854.4 517.80739 105.13148 0 1 435.55097 -72.21072" />
    <path d="M 486.00793 341.92734 L 284.55994 287.45375 A 854.4 517.80739 105.13148 0 1 267.30004 267.48005" />
    <path d="M 225.21892 206.73975 A 854.4 517.80739 105.13148 0 1 186.77734 129.06877" />
    <path d="M 171.46853 88.28408 A 854.4 517.80739 105.13148 0 1 124.81821 -185.00668" />
    <path d="M 192.80246 262.64159 L 29.0038 218.34876" />
    <path d="M -423.28366 -17.828 A 854.4 517.80739 105.13148 0 1 -432.10983 -38.28464" />
    <path d="M -447.41864 -79.06934 A 854.4 517.80739 105.13148 0 1 -493.4455 -336.17807" />
    <path d="M -715.75848 -487.07846 A 762 461.80856 105.13148 0 1 -715.76517 -487.54895" />
    <path d="M 222.11586 -877.56151 A 762 461.80856 105.13148 0 1 199.0812 -663.67443" />
    <path d="M 231.33006 -875.06989 L 222.11586 -877.56151" />
    <path d="M 231.33006 -875.06989 A 762 461.80856 105.13148 0 1 209.58818 -667.75612" />
    <path d="M -473.96334 30.14499 A 762 461.80856 105.13148 0 1 -560.00595 -17.11258" />
    <path d="M -609.36319 -64.32737 A 762 461.80856 105.13148 0 1 -631.42189 -92.18066" />
    <path d="M -723.05453 -305.44862 A 762 461.80856 105.13148 0 1 -737.06477 -384.62687" />
    <path d="M 211.75253 -881.63041 L 213.34693 -881.67714 L 214.94369 -881.72394 L 216.54282 -881.7708 L 218.14431 -881.81774 L 219.74817 -881.86474 L 221.35441 -881.91181 L 222.96302 -881.95896 L 224.57402 -882.00617 L 226.18739 -882.05345 L 227.80316 -882.1008 L 229.42132 -882.14823 L 231.04187 -882.19572 L 232.66482 -882.24328 L 234.29017 -882.29091 L 222.11586 -877.56151" />
    <path d="M 211.75253 -881.63041 L 218.16006 -884.11957 L 219.75466 -884.1663 L 221.35158 -884.2131 L 222.95084 -884.25997 L 224.55244 -884.30691 L 226.15637 -884.35391 L 227.76265 -884.40099 L 229.37128 -884.44813 L 230.98225 -884.49534 L 232.59558 -884.54262 L 234.21127 -884.58997 L 235.82932 -884.63739 L 237.44973 -884.68487 L 239.07251 -884.73243 L 240.69766 -884.78005" />
    <path d="M 938.39476 526.6712 L 938.39476 615.15465" />
    <path d="M 628.95117 442.9945 L 628.95117 531.47794 L 890.74278 602.26907" />
    <path d="M 628.95117 531.47794 L 590.5134 546.41002" />
    <path d="M 319.50758 359.31779 L 319.50758 447.80123 L 444.54201 481.61182" />
    <path d="M 319.50758 447.80123 L 281.06981 462.73331" />
    <path d="M -607.22849 46.30505 L -571.55349 -20.23515" />
    <path d="M 258.45655 336.14118 L 284.55994 287.45375" />
    <path d="M -669.87421 85.11106 L -608.09582 -30.11657" />
    <path d="M 549.72654 510.05479 L 581.2992 518.59236" />
    <path d="M 241.66509 426.75183 L 271.85561 434.91565" />
    <path d="M 29.0038 709.56226 L 48.86003 757.3038" />
    <path d="M 136.8376 738.54501 L 310.24811 671.17953 L 310.63249 671.03021" />
    <path d="M 281.45419 600.87506 L 310.63249 671.03021" />
    <path d="M 281.45419 600.87506 L 281.06981 601.02438" />
    <path d="M 229.86748 476.84204 L 271.85561 577.79662" />
    <path d="M 176.25872 347.94729 L 199.50539 403.84063" />
    <path d="M 29.0038 405.15201 L 176.25872 347.94729" />
    <path d="M 319.50758 585.52508 L 414.12729 548.76778" />
    <path d="M 792.6471 401.72265 L 793.14659 401.52862" />
    <path d="M 319.50758 484.47951 L 319.50758 591.59618 L 410.17189 556.37544" />
    <path d="M 792.6471 407.79374 L 793.14659 407.59971" />
    <path d="M 364.80045 630.76224 L 303.74876 654.47923" />
    <path d="M 628.95117 669.20179 L 744.40348 624.35156 L 628.95117 593.13208" />
    <path d="M 628.95117 568.15622 L 628.95117 675.27288 L 753.61768 626.84318 L 744.40348 624.35156" />
    <path d="M 793.14659 668.24838 L 590.5134 746.96612" />
    <path d="M 1630.5777 483.98338 L 1633.36057 482.90231 L 1642.57477 485.39392 L 1642.57477 352.95121" />
    <path d="M 1633.36057 482.90231 L 1633.36057 350.45959 L 1630.5777 349.70708" />
    <path d="M 938.39476 651.83292 L 938.39476 758.94959 L 941.34165 757.8048 L 938.39476 757.00793" />
    <path d="M 941.34165 757.8048 L 941.34165 767.26499 L 1200.18637 837.25925" />
    <path d="M 1630.5777 490.05447 L 1642.57477 485.39392" />
    <path d="M 1013.13115 786.6776 L 899.95698 830.64283" />
    <path d="M 1897.501 421.88587 L 1897.75725 421.78632" />
    <path d="M 1897.501 421.88587 L 1642.57477 352.95121" />
    <path d="M 1633.36057 339.10736 L 1630.5777 338.35484" />
    <path d="M 1633.36057 339.10736 L 1633.36057 212.50218 L 1642.57477 214.99379" />
    <path d="M 1668.30822 151.60737 A 854.4 517.80739 105.13148 0 1 1633.36057 212.50218" />
    <path d="M 1897.501 410.53363 L 1897.75725 410.43409" />
    <path d="M 1897.501 410.53363 L 1642.57477 341.59898" />
    <path d="M 1668.30822 151.60737 L 1630.5777 141.40465" />
    <path d="M 1939.51287 224.94388 L 1904.82148 187.19171" />
    <path d="M 1939.51287 224.94388 L 1677.52242 154.09899" />
    <path d="M 1925.27975 209.45499 L 1682.92016 143.91849" />
    <path d="M 1837.83866 -479.71924 A 854.4 517.80739 105.13148 0 1 1682.92016 143.91849" />
    <path d="M 1876.27644 -494.65132 L 1837.83866 -479.71924 L 1828.62446 -482.21086" />
    <path d="M 1528.39507 -563.39595 A 854.4 517.80739 105.13148 0 1 1514.21196 -375.07777" />
    <path d="M 1506.46848 -328.39573 A 854.4 517.80739 105.13148 0 1 1465.3847 -162.40915" />
    <path d="M 1566.83285 -578.32803 L 1528.39507 -563.39595 L 1519.18087 -565.88756" />
    <path d="M 1495.51759 -321.60492 A 854.4 517.80739 105.13148 0 1 1453.98389 -157.98023" />
    <path d="M 1218.95149 -647.07266 A 854.4 517.80739 105.13148 0 1 1204.76837 -458.75447" />
    <path d="M 1257.38926 -662.00474 L 1218.95149 -647.07266 L 1209.73729 -649.56427" />
    <path d="M 909.5079 -730.74936 A 854.4 517.80739 105.13148 0 1 895.32479 -542.43118" />
    <path d="M 947.94567 -745.68144 L 909.5079 -730.74936 L 900.2937 -733.24098" />
    <path d="M 600.06431 -814.42607 A 854.4 517.80739 105.13148 0 1 585.8812 -626.10789" />
    <path d="M 638.50209 -829.35815 L 600.06431 -814.42607 L 590.85011 -816.91769" />
    <path d="M 329.0585 -913.03486 L 231.33006 -875.06989" />
    <path d="M 1897.501 410.53363 L 1897.501 421.88587" />
    <path d="M 793.14659 727.19153 L 890.74278 753.58254" />
    <path d="M 793.14659 55.51778 L 1006.98223 113.34112" />
    <path d="M 793.14659 727.19153 L 793.14659 612.55633" />
    <path d="M 793.14659 575.87806 L 793.14659 487.39461" />
    <path d="M 793.14659 424.98077 L 793.14659 398.29392" />
    <path d="M 793.14659 263.66835 L 793.14659 55.51778" />
    <path d="M 1172.65102 -48.68971 L 1107.05507 -66.42753 L 939.52537 -1.34658" />
    <path d="M 883.90856 20.25911 L 793.14659 55.51778" />
    <path d="M 29.0038 308.12805 L 176.25872 347.94729" />
    <path d="M 420.18534 536.67967 L 319.50758 509.45537" />
    <path d="M 271.85561 496.56979 L 233.79153 486.27687" />
    <path d="M 581.2992 580.2465 L 535.92043 567.97562" />
    <path d="M 773.42822 632.20015 L 753.61768 626.84318" />
    <path d="M 792.6471 624.73411 L 773.42822 632.20015 L 771.65169 606.74389" />
    <path d="M 1297.553 -138.54491 A 57.5 18.63633 0 0 1 1195.90162 -150.48389 A 57.5 18.63633 0 1 1 1310.90162 -150.48389 A 57.5 18.63633 0 0 1 1297.553 -138.54491 Z" />
    <path d="M 300.81095 -703.1938 L 187.35575 -659.11939 A 700 226.87707 180 0 0 -446.22055 -623.87012" />
    <path d="M -19.50383 -508.45057 L -19.50383 -531.45884 L 1209.05632 -199.24363 A 50 30.3024 105.13148 0 1 1241.0878 -258.988" />
    <path d="M -12.08454 -564.61367 A 50 30.3024 285.13148 0 0 -19.50383 -531.45884" />
    <path d="M -756.22783 -292.56165 L -718.79528 -307.10322" />
    <path d="M -670.96722 -325.68318 L -642.77262 -336.63605" />
    <path d="M -756.22783 -264.18107 L -756.22783 -292.56165 L -714.29425 -281.22238" />
    <path d="M -470.57352 78.71855 L -475.6698 5.69278" />
    <path d="M 769.04278 569.36014 L 762.74898 479.17479" />
    <path d="M 758.30951 415.56047 L 750.411 302.38079" />
    <path d="M 792.6471 -4.41892 L 792.6471 262.25296" />
    <path d="M 792.6471 397.37441 L 792.6471 424.84571" />
    <path d="M 792.6471 487.25955 L 792.6471 575.74299" />
    <path d="M 792.6471 612.42127 L 792.6471 624.73411" />
    <path d="M 1209.05632 -199.24363 L 1209.05632 -162.34714" />
    <path d="M 1269.57427 -168.36788 L 1270.48039 -182.05589 L 1529.3711 -342.598 L 1529.3711 -370.97858 L 1241.0878 -258.988" />
    <path d="M 760.61562 -72.33702 A 50 30.3024 105.13148 0 1 773.66737 -73.30252 A 50 30.3024 105.13148 0 1 792.55173 -41.08975" />
    <path d="M 697.71846 32.68622 L 572.33228 52.35088" />
    <path d="M 489.45169 65.34927 L 472.33232 68.03415 L 472.33232 39.65357 L 482.36902 35.75457" />
    <path d="M 564.54389 3.83176 L 670.68108 -37.39978" />
    <path d="M 726.29789 -59.00547 L 760.61562 -72.33702" />
    <path d="M 12.52765 -591.20321 L -123.0043 -538.55257" />
    <path d="M -399.80282 -386.12602 L -179.57615 -326.57448" />
    <path d="M 80.45716 -256.25882 L 153.32051 -236.55582" />
    <path d="M 219.08435 -218.77261 L 341.48651 -185.67382" />
    <path d="M 527.14581 -135.46964 L 760.61562 -72.33702" />
    <path d="M -662.13821 -267.11886 L -631.85456 -258.92985" />
    <path d="M -579.69852 -244.82632 L -533.6965 -232.38691" />
    <path d="M -481.51202 -218.27569 L -404.85066 -197.54567" />
    <path d="M -352.69462 -183.44215 L -322.41097 -175.25314" />
    <path d="M 29.0038 -80.227 L 85.19067 -65.03349" />
    <path d="M 137.37516 -50.92227 L 214.03652 -30.19226" />
    <path d="M 266.19255 -16.08873 L 394.63426 18.64322" />
    <path d="M 446.81874 32.75443 L 472.33232 39.65357" />
    <path d="M -706.68476 -493.32945 A 700 226.87707 180 0 0 -713.76726 -481.93079" />
    <path d="M -678.21801 -361.95857 A 700 226.87707 180 0 0 -642.77262 -336.63605" />
    <path d="M 300.81095 -703.1938 L 1529.3711 -370.97858" />
    <path d="M 12.52765 -591.20321 L 1241.0878 -258.988" />
    <path d="M 12.52765 -591.20321 A 50 30.3024 285.13148 0 0 -12.08454 -564.61367 L -93.33523 -533.04988" />
    <path d="M -311.70774 -448.21782 L -370.26339 -425.47047" />
    <path d="M -659.12909 -330.28199 A 700 226.87707 0 0 1 -673.92808 -341.37703" />
    <path d="M -756.22783 -264.18107 L -710.03948 -251.69127" />
    <path d="M -658.95927 -237.87866 L -649.33645 -235.27655" />
    <path d="M -598.25623 -221.46394 L -529.65756 -202.91415" />
    <path d="M -476.23813 -188.46899 L -400.59589 -168.01456" />
    <path d="M -349.51568 -154.20195 L -339.89286 -151.59984" />
    <path d="M 29.0038 -51.84642 L 89.22961 -35.56074" />
    <path d="M 142.64904 -21.11558 L 218.29128 -0.66115" />
    <path d="M 269.3715 13.15147 L 398.6732 48.11597" />
    <path d="M 452.09263 62.56113 L 472.33232 68.03415" />
    <path d="M 215.59178 -880.59224 A 765 463.6267 105.13148 0 1 191.43699 -660.70485" />
    <path d="M 211.75253 -881.63041 L 215.59178 -880.59224" />
    <path d="M 168.12574 -862.15292 L 215.59178 -880.59224" />
    <path d="M -658.2328 -229.97057 A 690.9233 418.73266 285.13148 0 0 -656.21002 -225.60914" />
    <path d="M -630.22934 -177.60814 A 690.9233 418.73266 285.13148 0 0 -582.48223 -115.59191" />
    <path d="M -508.61141 -58.97145 A 690.9233 418.73266 285.13148 0 0 -494.08849 -51.80172" />
    <path d="M 145.91481 -662.92781 A 690.9233 418.73266 285.13148 0 0 168.12574 -862.15292 A 739.8449 239.7912 180 0 0 -774.96016 -708.90935" />
    <path d="M 170.67224 -865.29651 A 749.84697 243.03297 180 0 0 -785.17861 -709.19893" />
    <path d="M 170.10268 -865.45053 L 170.67224 -865.29651" />
    <path d="M 170.10268 -865.45053 L 211.75253 -881.63041" />
    <path d="M 170.10135 -865.3594 A 700 424.23358 285.13148 0 0 170.10268 -865.45053" />
    <path d="M 559.79626 1569.89579 L 624.88327 1561.30358 L 624.88327 1655.90552 L 640.35017 1656.95633 L 642.53702 1653.57503 L 652.40887 1652.27183" />
    <path d="M 541.91494 1555.66679 L 559.79626 1569.89579 L 559.79626 1664.49772 L 624.88327 1655.90552" />
    <path d="M -297.14293 1498.66195 L 541.91494 1555.66679" />
    <path d="M -297.14293 1498.66195 L -224.58714 1470.4759" />
    <path d="M 496.41471 1519.46013 L -224.58714 1470.4759" />
    <path d="M 218.53178 1298.3357 L 496.41471 1519.46013" />
    <path d="M 218.53178 1298.3357 L 291.08756 1270.14966" />
    <path d="M 614.47072 1527.48075 L 291.08756 1270.14966" />
    <path d="M 660.86603 1530.6328 L 614.47072 1527.48075" />
    <path d="M 646.44773 1552.92635 L 660.86603 1530.6328 L 660.86603 1625.23474" />
    <path d="M 652.40887 1557.6699 L 646.44773 1552.92635" />
    <path d="M 642.53702 1558.97309 L 652.40887 1557.6699 L 652.40887 1652.27183" />
    <path d="M 640.35017 1562.35439 L 642.53702 1558.97309" />
    <path d="M 624.88327 1561.30358 L 640.35017 1562.35439 L 640.35017 1656.95633" />
    <path d="M 541.91494 1650.26872 L 559.79626 1664.49772" />
    <path d="M 541.91494 1650.26872 L 541.91494 1555.66679" />
    <path d="M -297.14293 1593.26388 L 541.91494 1650.26872" />
    <path d="M -297.14293 1498.66195 L -297.14293 1593.26388" />
    <path d="M -393.55546 1234.85918 L -393.55546 1632.23128 L -293.82656 1593.48919" />
    <path d="M -13.99819 1484.78313 L 219.80994 1393.95473" />
    <path d="M 372.25112 1334.73529 L 387.5001 1328.81146 L 387.5001 931.43935" />
    <path d="M -393.55546 1234.85918 A 914.4 554.17027 105.13148 0 1 235.66265 -444.31073 L 227.83058 -446.4286" />
    <path d="M 235.66265 -444.31073 A 914.4 554.17027 105.13148 0 1 387.5001 931.43935" />
    <path d="M 218.53178 1298.3357 L 218.53178 1392.93764 L 366.43264 1510.62926" />
    <path d="M -210.22606 417.19016 A 57.5 34.84776 105.13148 0 1 -180.20704 306.17729" />
    <path d="M 29.0038 -165.31907 L 29.09861 -169.81098 A 75 45.4536 105.13148 0 1 77.05101 -254.93562 L 301.27136 -342.03941 A 75 45.4536 105.13148 0 1 320.84898 -343.48766 A 75 45.4536 105.13148 0 1 348.93971 -298.49845 L 349.31858 -289.75305 L 349.31858 -155.43032 A 500 303.02399 105.13148 0 1 349.31858 663.84649 L 349.31858 1081.97503 L 349.22377 1086.46694 A 75 45.4536 105.13148 0 1 301.27136 1171.59158 L 77.05101 1258.69537 A 75 45.4536 105.13148 0 1 57.47339 1260.14362 A 75 45.4536 105.13148 0 1 29.38266 1215.15441 L 29.0038 1206.40901 L 29.0038 -165.31907 Z" />
    <path d="M 652.40887 1638.31119 L 660.86603 1625.23474" />
    <path d="M 642.53702 1653.57503 L 642.53702 1558.97309" />
    <path d="M -1385.3093 1067.37924 L -1379.98948 1080.17001" />
    <path d="M -1329.7183 1082.41162 L -1385.3093 1067.37924 L -1384.92493 1067.22992" />
    <path d="M -1329.7183 1082.41162 L -1329.7183 981.71118 A 914.4 554.17027 105.13148 0 1 -1347.93619 963.67583 L -1648.16557 882.49073" />
    <path d="M -1329.7183 981.71118 L -1320.50409 984.2028 A 914.4 554.17027 105.13148 0 1 -1338.72198 966.16744" />
    <path d="M -1320.50409 1084.90323 L -1320.50409 984.2028" />
    <path d="M -1020.27471 1166.08832 L -1320.50409 1084.90323" />
    <path d="M -1020.27471 1166.08832 L -1020.27471 1065.38789 A 914.4 554.17027 105.13148 0 1 -1038.4926 1047.35253 L -1338.72198 966.16744" />
    <path d="M -1020.27471 1065.38789 L -1011.06051 1067.8795 A 914.4 554.17027 105.13148 0 1 -1029.2784 1049.84415" />
    <path d="M -1011.06051 1168.57994 L -1011.06051 1067.8795" />
    <path d="M -710.83112 1249.76503 L -1011.06051 1168.57994" />
    <path d="M -710.83112 1249.76503 L -710.83112 1149.0646 A 914.4 554.17027 105.13148 0 1 -729.04901 1131.02924 L -1029.2784 1049.84415" />
    <path d="M -710.83112 1149.0646 L -701.61692 1151.55621 A 914.4 554.17027 105.13148 0 1 -719.83481 1133.52085" />
    <path d="M -701.61692 1252.25664 L -701.61692 1151.55621" />
    <path d="M -401.38753 1333.44174 L -701.61692 1252.25664" />
    <path d="M -401.38753 1333.44174 L -401.38753 1232.7413 A 914.4 554.17027 105.13148 0 1 -419.60542 1214.70595 L -719.83481 1133.52085" />
    <path d="M -401.38753 1232.7413 L -393.55546 1234.85918" />
    <path d="M -2265.88113 1125.9353 L -2050.72712 1184.11514" />
    <path d="M -1437.20204 1350.01859 L -393.55546 1632.23128" />
    <path d="M -2265.88113 1029.81973 L -2265.88113 1125.9353" />
    <path d="M -2265.88113 1029.81973 L -2258.04906 1031.9376 L -2258.04906 842.73373 L -2265.88113 840.61585" />
    <path d="M -2265.88113 829.26362 L -2265.88113 840.61585" />
    <path d="M -2258.04906 831.38149 L -2265.88113 829.26362 L -2258.04906 826.22107" />
    <path d="M -2258.04906 831.38149 L -2258.04906 730.68106 A 914.4 554.17027 105.13148 0 1 -2276.26695 712.6457 L -2284.09902 710.52783" />
    <path d="M -2258.04906 730.68106 L -2248.83486 733.17268 A 914.4 554.17027 105.13148 0 1 -2267.05275 715.13732" />
    <path d="M -2248.83486 833.87311 L -2248.83486 733.17268" />
    <path d="M -1948.60547 915.0582 L -2248.83486 833.87311" />
    <path d="M -1948.60547 915.0582 L -1948.60547 814.35777 A 914.4 554.17027 105.13148 0 1 -1966.82336 796.32241 L -2267.05275 715.13732" />
    <path d="M -1948.60547 814.35777 L -1939.39127 816.84938 A 914.4 554.17027 105.13148 0 1 -1957.60916 798.81402" />
    <path d="M -1939.39127 917.54982 L -1939.39127 816.84938" />
    <path d="M -1825.26031 948.41199 L -1939.39127 917.54982" />
    <path d="M -1842.48979 955.1052 L -1939.39127 928.90205" />
    <path d="M -1939.39127 992.74891 L -1939.39127 928.90205" />
    <path d="M -1291.32579 1293.34945 L -1020.27471 1366.64443 L -1020.27471 1177.44056 L -1320.50409 1096.25546" />
    <path d="M -1320.50409 1223.1943 L -1320.50409 1096.25546" />
    <path d="M -1329.7183 1201.04004 L -1320.50409 1223.1943" />
    <path d="M -1329.7183 1201.04004 L -1329.7183 1093.76385 L -1379.98948 1080.17001" />
    <path d="M -1011.06051 1369.13604 L -1011.06051 1179.93217" />
    <path d="M -1011.06051 1369.13604 L -710.83112 1450.32114 L -710.83112 1261.11726 L -1011.06051 1179.93217" />
    <path d="M -701.61692 1452.81275 L -701.61692 1263.60888" />
    <path d="M -701.61692 1452.81275 L -401.38753 1533.99784 L -401.38753 1344.79397 L -701.61692 1263.60888" />
    <path d="M -2248.83486 1034.42921 L -2005.68596 1100.17916" />
    <path d="M -1948.60547 996.32839 L -1948.60547 926.41043 L -2248.83486 845.22534" />
    <path d="M -2248.83486 1034.42921 L -2248.83486 845.22534" />
    <path d="M -2289.57061 704.67884 A 914.4 554.17027 285.13148 0 0 -2284.09902 710.52783" />
    <path d="M -2281.73854 706.79671 L -2289.57061 704.67884" />
    <path d="M -2281.73854 706.79671 A 914.4 554.17027 105.13148 0 1 -2453.2625 173.10582 L -2461.09457 170.98795" />
    <path d="M -2461.14502 159.65532 A 914.4 554.17027 285.13148 0 0 -2461.09457 170.98795" />
    <path d="M -2453.31295 161.77319 L -2461.14502 159.65532" />
    <path d="M -2453.31295 161.77319 A 914.4 554.17027 105.13148 0 1 -2287.13879 -506.37697 L -2294.97086 -508.49485" />
    <path d="M -2289.57061 -518.67262 A 914.4 554.17027 285.13148 0 0 -2294.97086 -508.49485" />
    <path d="M -2281.73854 -516.55475 L -2289.57061 -518.67262" />
    <path d="M -2281.73854 -516.55475 A 914.4 554.17027 105.13148 0 1 -1875.20883 -927.77088 L -1883.0409 -929.88876" />
    <path d="M -1875.35335 -932.94966 A 914.4 554.17027 285.13148 0 0 -1883.0409 -929.88876" />
    <path d="M -1867.52128 -930.83179 L -1875.35335 -932.94966" />
    <path d="M -1867.52128 -930.83179 A 914.4 554.17027 105.13148 0 1 -1628.83095 -948.48885" />
    <path d="M 56.13034 793.13785 L 29.0038 785.80256" />
    <path d="M 103.12812 805.84653 A 914.4 554.17027 105.13148 0 1 79.43864 848.13639 L 79.43864 948.83682 L 41.00087 963.7689 L 41.00087 837.16371" />
    <path d="M 341.48651 870.30108 L 103.12812 805.84653 L 75.94851 776.2689 A 854.4 517.80739 105.13148 0 1 41.00087 837.16371" />
    <path d="M -1629.94768 900.52609 A 914.4 554.17027 105.13148 0 1 -1648.16557 882.49073" />
    <path d="M -1639.16188 898.03448 L -1629.94768 900.52609" />
    <path d="M -1639.16188 898.03448 A 914.4 554.17027 105.13148 0 1 -1657.37977 879.99912 L -1957.60916 798.81402" />
    <path d="M -425.07702 1208.85695 L -725.3064 1127.67186 L -698.12679 1076.97708 A 854.4 517.80739 105.13148 0 1 -857.86852 604.51665" />
    <path d="M -425.07702 1208.85695 A 914.4 554.17027 105.13148 0 1 -596.60098 675.16607 L -896.83036 593.98097" />
    <path d="M -725.3064 1127.67186 A 914.4 554.17027 105.13148 0 1 -896.83036 593.98097" />
    <path d="M -734.5206 1125.18025 L -1034.74999 1043.99515 L -1007.57038 993.30038 A 854.4 517.80739 105.13148 0 1 -1167.31211 520.83995" />
    <path d="M -734.5206 1125.18025 A 914.4 554.17027 105.13148 0 1 -906.04457 591.48936 L -1206.27395 510.30427" />
    <path d="M -1034.74999 1043.99515 A 914.4 554.17027 105.13148 0 1 -1206.27395 510.30427" />
    <path d="M -1043.96419 1041.50354 L -1344.19358 960.31844 L -1317.01397 909.62367 A 854.4 517.80739 105.13148 0 1 -1476.7557 437.16324" />
    <path d="M -1043.96419 1041.50354 A 914.4 554.17027 105.13148 0 1 -1215.48815 507.81265 L -1515.71754 426.62756" />
    <path d="M -1344.19358 960.31844 A 914.4 554.17027 105.13148 0 1 -1515.71754 426.62756" />
    <path d="M -1353.40778 957.82683 L -1653.63716 876.64174 L -1626.45755 825.94696 A 854.4 517.80739 105.13148 0 1 -1786.19928 353.48653" />
    <path d="M -1353.40778 957.82683 A 914.4 554.17027 105.13148 0 1 -1524.93174 424.13595 L -1825.16113 342.95085" />
    <path d="M -1653.63716 876.64174 A 914.4 554.17027 105.13148 0 1 -1825.16113 342.95085" />
    <path d="M -1662.85136 874.15012 L -1963.08075 792.96503 L -1935.90114 742.27025 A 854.4 517.80739 105.13148 0 1 -2095.64287 269.80983" />
    <path d="M -1662.85136 874.15012 A 914.4 554.17027 105.13148 0 1 -1834.37533 340.45924 L -2134.60471 259.27415" />
    <path d="M -1963.08075 792.96503 A 914.4 554.17027 105.13148 0 1 -2134.60471 259.27415" />
    <path d="M -1972.29495 790.47342 L -2272.52434 709.28832 L -2198.60125 571.40869 A 762 461.80856 105.13148 0 1 -2310.10416 370.88676" />
    <path d="M -1972.29495 790.47342 A 914.4 554.17027 105.13148 0 1 -2143.81891 256.78253 L -2444.0483 175.59744" />
    <path d="M -2272.52434 709.28832 A 914.4 554.17027 105.13148 0 1 -2444.0483 175.59744" />
    <path d="M -2143.86936 245.4499 L -2444.09875 164.2648 L -2346.37031 126.29984 A 762 461.80856 105.13148 0 1 -2213.62345 -433.91102" />
    <path d="M -2143.86936 245.4499 A 914.4 554.17027 105.13148 0 1 -1977.6952 -422.70027 L -2277.92459 -503.88536 L -2213.62345 -433.91102" />
    <path d="M -2444.09875 164.2648 A 914.4 554.17027 105.13148 0 1 -2277.92459 -503.88536" />
    <path d="M -1834.42577 329.1266 L -2134.65516 247.94151 L -2096.21739 233.00943 A 854.4 517.80739 105.13148 0 1 -1941.29889 -390.6283" />
    <path d="M -1834.42577 329.1266 A 914.4 554.17027 105.13148 0 1 -1668.25162 -339.02356 L -1968.481 -420.20865 L -1941.29889 -390.6283" />
    <path d="M -2134.65516 247.94151 A 914.4 554.17027 105.13148 0 1 -1968.481 -420.20865" />
    <path d="M -596.65142 663.83343 L -896.88081 582.64834 L -858.44304 567.71626 A 854.4 517.80739 105.13148 0 1 -703.52454 -55.92147" />
    <path d="M -596.65142 663.83343 A 914.4 554.17027 105.13148 0 1 -430.47727 -4.31673 L -730.70665 -85.50182 L -703.52454 -55.92147" />
    <path d="M -896.88081 582.64834 A 914.4 554.17027 105.13148 0 1 -730.70665 -85.50182" />
    <path d="M -906.09501 580.15672 L -1206.3244 498.97163 L -1167.88662 484.03955 A 854.4 517.80739 105.13148 0 1 -1012.96813 -139.59818" />
    <path d="M -906.09501 580.15672 A 914.4 554.17027 105.13148 0 1 -739.92085 -87.99344 L -1040.15024 -169.17853 L -1012.96813 -139.59818" />
    <path d="M -1206.3244 498.97163 A 914.4 554.17027 105.13148 0 1 -1040.15024 -169.17853" />
    <path d="M -1215.5386 496.48002 L -1515.76798 415.29492 L -1477.33021 400.36285 A 854.4 517.80739 105.13148 0 1 -1322.41171 -223.27488" />
    <path d="M -1215.5386 496.48002 A 914.4 554.17027 105.13148 0 1 -1049.36444 -171.67015 L -1349.59383 -252.85524 L -1322.41171 -223.27488" />
    <path d="M -1515.76798 415.29492 A 914.4 554.17027 105.13148 0 1 -1349.59383 -252.85524" />
    <path d="M -1524.98219 412.80331 L -1825.21157 331.61822 L -1786.7738 316.68614 A 854.4 517.80739 105.13148 0 1 -1631.8553 -306.95159" />
    <path d="M -1524.98219 412.80331 A 914.4 554.17027 105.13148 0 1 -1358.80803 -255.34685 L -1659.03742 -336.53195 L -1631.8553 -306.95159" />
    <path d="M -1825.21157 331.61822 A 914.4 554.17027 105.13148 0 1 -1659.03742 -336.53195" />
    <path d="M -1972.29495 -432.87804 L -2272.52434 -514.06313 A 914.4 554.17027 105.13148 0 1 -1865.99463 -925.27927 L -1865.99463 -795.42321" />
    <path d="M -1972.29495 -432.87804 A 914.4 554.17027 105.13148 0 1 -1565.76524 -844.09418 L -1865.99463 -925.27927" />
    <path d="M -1662.85136 -349.20133 L -1963.08075 -430.38643 A 914.4 554.17027 105.13148 0 1 -1556.55104 -841.60256 L -1556.55104 -784.83617" />
    <path d="M -1662.85136 -349.20133 A 914.4 554.17027 105.13148 0 1 -1256.32166 -760.41747 L -1556.55104 -841.60256" />
    <path d="M -425.07702 -14.4945 L -725.3064 -95.6796 A 914.4 554.17027 105.13148 0 1 -318.77669 -506.89573 L -318.77669 -450.12934" />
    <path d="M -425.07702 -14.4945 A 914.4 554.17027 105.13148 0 1 -18.54731 -425.71064 L -318.77669 -506.89573" />
    <path d="M -734.5206 -98.17121 L -1034.74999 -179.3563 A 914.4 554.17027 105.13148 0 1 -628.22028 -590.57244 L -628.22028 -533.80605" />
    <path d="M -734.5206 -98.17121 A 914.4 554.17027 105.13148 0 1 -327.99089 -509.38735 L -628.22028 -590.57244" />
    <path d="M -1043.96419 -181.84792 L -1344.19358 -263.03301 A 914.4 554.17027 105.13148 0 1 -937.66387 -674.24915 L -937.66387 -617.48275" />
    <path d="M -1043.96419 -181.84792 A 914.4 554.17027 105.13148 0 1 -637.43448 -593.06405 L -937.66387 -674.24915" />
    <path d="M -1353.40778 -265.52463 L -1653.63716 -346.70972 A 914.4 554.17027 105.13148 0 1 -1247.10746 -757.92585 L -1247.10746 -701.15946" />
    <path d="M -1353.40778 -265.52463 A 914.4 554.17027 105.13148 0 1 -946.87807 -676.74076 L -1247.10746 -757.92585" />
    <path d="M -1558.07769 -847.15508 L -1858.30708 -928.34018 A 914.4 554.17027 105.13148 0 1 -1619.61674 -945.99723 L -1628.83095 -948.48885" />
    <path d="M -1558.07769 -847.15508 A 914.4 554.17027 105.13148 0 1 -1319.38736 -864.81214" />
    <path d="M -1619.61674 -945.99723 A 914.4 554.17027 105.13148 0 1 -1479.09224 -869.93935" />
    <path d="M -1248.6341 -763.47838 L -1548.86349 -844.66347 A 914.4 554.17027 105.13148 0 1 -1310.17316 -862.32053 L -1319.38736 -864.81214" />
    <path d="M -1248.6341 -763.47838 A 914.4 554.17027 105.13148 0 1 -1009.94377 -781.13543" />
    <path d="M -1310.17316 -862.32053 A 914.4 554.17027 105.13148 0 1 -1169.64865 -786.26264" />
    <path d="M -10.85975 -428.77155 L -311.08914 -509.95664 A 914.4 554.17027 105.13148 0 1 -72.39881 -527.6137 L -81.61301 -530.10531" />
    <path d="M -10.85975 -428.77155 A 914.4 554.17027 105.13148 0 1 227.83058 -446.4286" />
    <path d="M -72.39881 -527.6137 A 914.4 554.17027 105.13148 0 1 68.1257 -451.55581" />
    <path d="M -320.30334 -512.44826 L -620.53273 -593.63335 A 914.4 554.17027 105.13148 0 1 -381.8424 -611.2904 L -391.0566 -613.78202" />
    <path d="M -320.30334 -512.44826 A 914.4 554.17027 105.13148 0 1 -81.61301 -530.10531" />
    <path d="M -381.8424 -611.2904 A 914.4 554.17027 105.13148 0 1 -241.31789 -535.23252" />
    <path d="M -629.74693 -596.12496 L -929.97631 -677.31006 A 914.4 554.17027 105.13148 0 1 -691.28598 -694.96711 L -700.50018 -697.45873" />
    <path d="M -629.74693 -596.12496 A 914.4 554.17027 105.13148 0 1 -391.0566 -613.78202" />
    <path d="M -691.28598 -694.96711 A 914.4 554.17027 105.13148 0 1 -550.76148 -618.90923" />
    <path d="M -939.19051 -679.80167 L -1239.4199 -760.98676 A 914.4 554.17027 105.13148 0 1 -1000.72957 -778.64382 L -1009.94377 -781.13543" />
    <path d="M -939.19051 -679.80167 A 914.4 554.17027 105.13148 0 1 -700.50018 -697.45873" />
    <path d="M -1000.72957 -778.64382 A 914.4 554.17027 105.13148 0 1 -860.20507 -702.58593" />
    <path d="M -1015.26722 -232.6214 L -1272.56585 -302.19757 L -1278.68844 -299.81911" />
    <path d="M -1372.29001 -735.0101 A 914.4 554.17027 105.13148 0 1 -1357.32443 -706.23435" />
    <path d="M -1334.79384 -654.81045 A 914.4 554.17027 105.13148 0 1 -1276.56791 -390.86614" />
    <path d="M -1272.65105 -309.42727 A 914.4 554.17027 105.13148 0 1 -1272.56585 -302.19757" />
    <path d="M -705.82363 -148.94469 L -963.12226 -218.52087 L -969.24485 -216.1424" />
    <path d="M -1062.84643 -651.3334 A 914.4 554.17027 105.13148 0 1 -1047.88084 -622.55765" />
    <path d="M -1025.35025 -571.13374 A 914.4 554.17027 105.13148 0 1 -967.12432 -307.18943" />
    <path d="M -963.20747 -225.75056 A 914.4 554.17027 105.13148 0 1 -963.12226 -218.52087" />
    <path d="M 501.53419 177.5372 L 274.65209 116.18596 L 236.21077 131.11942" />
    <path d="M 185.33647 -297.00171 A 914.4 554.17027 105.13148 0 1 274.65209 116.18596" />
    <path d="M 226.47604 103.15867 L 29.0038 49.76016" />
    <path d="M -134.51566 -400.30327 A 914.4 554.17027 105.13148 0 1 -119.55008 -371.52752" />
    <path d="M -443.95925 -483.97998 A 914.4 554.17027 105.13148 0 1 -428.99367 -455.20423" />
    <path d="M -406.46308 -403.78033 A 914.4 554.17027 105.13148 0 1 -348.23715 -139.83601" />
    <path d="M -396.38005 -65.26798 L -653.67868 -134.84416 L -659.80127 -132.46569" />
    <path d="M -753.40284 -567.65669 A 914.4 554.17027 105.13148 0 1 -738.43726 -538.88094" />
    <path d="M -715.90666 -487.45703 A 914.4 554.17027 105.13148 0 1 -657.68073 -223.51272" />
    <path d="M -653.76388 -142.07385 A 914.4 554.17027 105.13148 0 1 -653.67868 -134.84416" />
    <path d="M -1272.76329 -265.60592 A 914.4 554.17027 105.13148 0 1 -1273.36794 -243.88103" />
    <path d="M -1274.99145 -210.45196 A 914.4 554.17027 105.13148 0 1 -1289.42428 -77.95778" />
    <path d="M -963.3197 -181.92922 A 914.4 554.17027 105.13148 0 1 -963.92435 -160.20433" />
    <path d="M -965.54787 -126.77525 A 914.4 554.17027 105.13148 0 1 -979.9807 5.71892" />
    <path d="M 274.45465 152.77761 A 914.4 554.17027 105.13148 0 1 118.57309 776.15492" />
    <path d="M -653.87611 -98.25251 A 914.4 554.17027 105.13148 0 1 -654.48076 -76.52762" />
    <path d="M -656.10428 -43.09855 A 914.4 554.17027 105.13148 0 1 -670.53711 89.39563" />
    <path d="M 79.43864 948.83682 L 341.48651 1019.69724" />
    <path d="M 29.0038 935.19872 L 31.78667 935.95124" />
    <path d="M 236.08904 1191.75279 L 79.43864 1149.39292 L 29.0038 1168.98555" />
    <path d="M 79.43864 985.51509 L 79.43864 1149.39292" />
    <path d="M -41.03225 457.77285 A 57.5 34.84776 105.13148 0 1 -56.04176 458.88317 L -210.22606 417.19016" />
    <path d="M -56.04176 458.88317 A 57.5 34.84776 105.13148 0 1 -26.02274 347.8703 L -180.20704 306.17729" />
    <path d="M -26.02274 347.8703 A 57.5 34.84776 105.13148 0 1 -41.03225 457.77285" />
    <path d="M 69.21894 1256.5775 A 75 45.4536 105.13148 0 1 53.63549 1258.79576" />
    <path d="M 316.85482 -344.25767 A 75 45.4536 105.13148 0 1 341.10764 -300.61632 L 341.48651 -291.87093 L 341.48651 -236.97395" />
    <path d="M 341.10764 -300.61632 L 348.93971 -298.49845" />
    <path d="M 293.43929 1169.47371 L 69.21894 1256.5775 L 77.05101 1258.69537" />
    <path d="M 341.48651 -291.87093 L 349.31858 -289.75305" />
    <path d="M 341.3917 1084.34907 A 75 45.4536 105.13148 0 1 293.43929 1169.47371 L 301.27136 1171.59158" />
    <path d="M 341.3917 1084.34907 L 349.22377 1086.46694" />
    <path d="M 303.24757 -247.31415 L 341.48651 -236.97395" />
    <path d="M 303.24757 -231.25967 L 303.24757 -247.31415" />
    <path d="M 303.24757 -231.25967 L 341.48651 -220.91947 L 341.48651 -157.54819 A 500 303.02399 105.13148 0 1 500.71749 226.18184 L 462.47855 215.84164 A 500 303.02399 105.13148 0 1 461.79936 227.45772" />
    <path d="M 341.48651 -157.54819 L 349.31858 -155.43032" />
    <path d="M 341.48651 1079.85716 L 341.3917 1084.34907" />
    <path d="M 341.48651 1079.85716 L 349.31858 1081.97503" />
    <path d="M 500.0383 237.79792 L 461.79936 227.45772" />
    <path d="M 500.0383 237.79792 A 500 303.02399 105.13148 0 1 341.48651 661.72861 L 341.48651 803.64735" />
    <path d="M 341.48651 661.72861 L 349.31858 663.84649" />
    <path d="M 303.24757 809.36163 L 341.48651 819.70183 L 341.48651 1044.85444" />
    <path d="M 296.18335 1032.60401 L 341.48651 1044.85444" />
    <path d="M 296.18335 1043.95624 L 296.18335 1032.60401" />
    <path d="M 296.18335 1043.95624 L 341.48651 1056.20667 L 341.48651 1079.85716" />
    <path d="M 303.24757 793.30715 L 341.48651 803.64735" />
    <path d="M 303.24757 809.36163 L 303.24757 793.30715" />
    <path d="M -1681.567 1069.66439 L -1547.19324 1392.74731 L -2084.6883 1247.40316 L -1950.31454 996.99231 L -1694.06271 897.44513 L -1639.16188 912.29087" />
    <path d="M -1547.19324 1392.74731 L -1291.32579 1293.34945 L -1290.94141 1293.20013" />
    <path d="M -1320.11972 1223.04498 L -1290.94141 1293.20013" />
    <path d="M -1320.11972 1223.04498 L -1320.50409 1223.1943" />
    <path d="M -1379.48642 1080.30604 L -1329.7183 1199.96654" />
    <path d="M -1425.31518 970.11721 L -1384.92493 1067.22992" />
    <path d="M -1681.567 1069.66439 L -1425.31518 970.11721" />
    <path d="M -1282.06632 1207.695 L -1166.61401 1162.84477 L -1282.06632 1131.62529" />
    <path d="M -808.9268 1023.89257 L -808.42732 1023.69854" />
    <path d="M -1282.06632 1106.64943 L -1282.06632 1213.7661 L -1157.39981 1165.33639 L -1166.61401 1162.84477" />
    <path d="M -808.9268 1029.96366 L -808.42732 1029.76963" />
    <path d="M -1071.25242 1188.63152 L -1297.82515 1276.64915" />
    <path d="M -972.62273 1291.37171 L -857.17042 1246.52148 L -972.62273 1215.302" />
    <path d="M -972.62273 1190.32614 L -972.62273 1297.4428 L -847.95622 1249.0131 L -857.17042 1246.52148" />
    <path d="M -808.42732 1290.4183 L -1011.06051 1369.13604" />
    <path d="M 29.0038 1106.1533 L 31.78667 1105.07223 L 41.00087 1107.56384 L 41.00087 975.12113" />
    <path d="M 31.78667 1105.07223 L 31.78667 972.62951 L 29.0038 971.877" />
    <path d="M -663.17915 1274.00284 L -663.17915 1381.11951 L -660.23225 1379.97472 L -663.17915 1379.17785" />
    <path d="M -660.23225 1379.97472 L -660.23225 1389.43491 L -401.38753 1459.42917" />
    <path d="M 29.0038 1112.22439 L 41.00087 1107.56384" />
    <path d="M -588.44276 1408.84752 L -701.61692 1452.81275" />
    <path d="M -663.17915 1237.32457 L -701.61692 1252.25664" />
    <path d="M -663.17915 1237.32457 L -401.38753 1308.11569" />
    <path d="M -663.17915 1148.84112 L -663.17915 1237.32457" />
    <path d="M -972.62273 1153.64786 L -1011.06051 1168.57994" />
    <path d="M -972.62273 1153.64786 L -710.83112 1224.43899" />
    <path d="M -972.62273 1065.16442 L -972.62273 1153.64786" />
    <path d="M -1282.06632 1069.97115 L -1320.50409 1084.90323" />
    <path d="M -1282.06632 1069.97115 L -1020.27471 1140.76228" />
    <path d="M -1282.06632 981.48771 L -1282.06632 1069.97115" />
    <path d="M -1396.6744 1038.97996 L -1329.7183 1057.08557" />
    <path d="M -2287.36314 700.56151 L -2289.57061 704.67884" />
    <path d="M -2453.30252 156.60871 L -2461.14502 159.65532" />
    <path d="M -2289.2734 -502.29471 L -2294.97086 -508.49485" />
    <path d="M -1883.0409 -924.49918 L -1883.0409 -929.88876" />
    <path d="M -2075.53725 652.31491 A 762 461.80856 105.13148 0 1 -2170.79199 597.57883" />
    <path d="M -2076.10424 766.77174 L -2248.83486 833.87311" />
    <path d="M 66.73431 773.77729 L 29.0038 763.57457" />
    <path d="M 31.78667 961.27728 L 31.78667 834.6721 L 41.00087 837.16371" />
    <path d="M 66.73431 773.77729 A 854.4 517.80739 105.13148 0 1 31.78667 834.6721" />
    <path d="M 337.93897 847.1138 L 303.24757 809.36163" />
    <path d="M 337.93897 847.1138 L 75.94851 776.2689" />
    <path d="M -1629.94768 915.03575 L -1629.94768 900.52609" />
    <path d="M -1591.50991 897.811 L -1591.50991 925.17645" />
    <path d="M -1629.5633 914.88643 L -1629.94768 915.03575" />
    <path d="M -1639.16188 912.54413 L -1629.94768 915.03575" />
    <path d="M -1639.16188 912.54413 L -1639.16188 898.03448" />
    <path d="M -1900.9535 814.13429 L -1900.9535 902.61774 L -1786.82254 933.47991" />
    <path d="M -1900.9535 902.61774 L -1939.39127 917.54982" />
    <path d="M -2208.8024 668.47497 L -2164.02133 584.95037 A 762 461.80856 105.13148 0 1 -2169.57651 579.25728 L -2198.60125 571.40869" />
    <path d="M -480.44068 1135.84163 L -698.12679 1076.97708" />
    <path d="M -789.88427 1052.16492 L -1007.57038 993.30038" />
    <path d="M -1099.32786 968.48822 L -1317.01397 909.62367" />
    <path d="M -1408.77144 884.81151 L -1626.45755 825.94696" />
    <path d="M -1718.21503 801.1348 L -1935.90114 742.27025" />
    <path d="M -2027.65862 717.45809 L -2216.31999 666.44213 L -2169.57651 579.25728" />
    <path d="M -2359.40676 161.84034 L -2317.13211 145.41773 A 762 461.80856 105.13148 0 1 -2317.34558 134.14842 L -2346.37031 126.29984" />
    <path d="M -2324.62843 316.7213 A 762 461.80856 105.13148 0 1 -2342.41836 203.07921" />
    <path d="M -2345.08267 165.71372 A 762 461.80856 105.13148 0 1 -2345.52283 156.44679" />
    <path d="M -2143.62148 220.19088 L -2376.63624 157.18131 L -2317.34558 134.14842" />
    <path d="M -1987.73991 -403.18643 L -2221.71774 -466.45642 L -2184.59872 -426.06244 A 762 461.80856 105.13148 0 1 -2179.28205 -436.33117" />
    <path d="M -2184.59872 -426.06244 L -2213.62345 -433.91102" />
    <path d="M -1834.17789 303.86759 L -2096.21739 233.00943" />
    <path d="M -1678.29633 -319.50972 L -1941.29889 -390.6283" />
    <path d="M -596.45258 638.56115 L -858.44304 567.71626" />
    <path d="M -596.45258 638.56115 L -596.4029 638.54185" />
    <path d="M -441.53409 14.92343 L -703.52454 -55.92147" />
    <path d="M -441.53409 14.92343 L -440.79148 15.73155" />
    <path d="M -905.84713 554.89771 L -1167.88662 484.03955" />
    <path d="M -749.96556 -68.4796 L -1012.96813 -139.59818" />
    <path d="M -1215.29071 471.221 L -1477.33021 400.36285" />
    <path d="M -1059.40915 -152.1563 L -1322.41171 -223.27488" />
    <path d="M -1524.7343 387.5443 L -1786.7738 316.68614" />
    <path d="M -1368.85274 -235.83301 L -1631.8553 -306.95159" />
    <path d="M -2202.08688 -461.14803 L -2179.28205 -436.33117" />
    <path d="M -1639.33983 -807.2231 L -1836.9699 -860.66429 L -1836.9699 -787.57463 A 762 461.80856 105.13148 0 1 -1829.28234 -790.65044" />
    <path d="M -1836.9699 -787.57463 L -1865.99463 -795.42321" />
    <path d="M -2200.28906 -459.1916 A 762 461.80856 105.13148 0 1 -2199.59081 -460.47307" />
    <path d="M -2182.96427 -489.84518 A 762 461.80856 105.13148 0 1 -1865.99463 -795.42321" />
    <path d="M -1329.89624 -723.54639 L -1556.55104 -784.83617" />
    <path d="M -1925.29716 -420.16936 A 854.4 517.80739 105.13148 0 1 -1556.55104 -784.83617" />
    <path d="M -92.12189 -388.83957 L -318.77669 -450.12934" />
    <path d="M -687.52282 -85.46253 A 854.4 517.80739 105.13148 0 1 -318.77669 -450.12934" />
    <path d="M -401.56548 -472.51627 L -628.22028 -533.80605" />
    <path d="M -996.9664 -169.13924 A 854.4 517.80739 105.13148 0 1 -628.22028 -533.80605" />
    <path d="M -711.00907 -556.19298 L -937.66387 -617.48275" />
    <path d="M -1306.40999 -252.81594 A 854.4 517.80739 105.13148 0 1 -937.66387 -617.48275" />
    <path d="M -1020.45266 -639.86969 L -1247.10746 -701.15946" />
    <path d="M -1615.85358 -336.49265 A 854.4 517.80739 105.13148 0 1 -1247.10746 -701.15946" />
    <path d="M -1829.28234 -858.5855 L -1829.28234 -790.65044" />
    <path d="M -1330.45183 -805.61154 A 854.4 517.80739 105.13148 0 1 -1243.17473 -765.56164" />
    <path d="M -1460.72814 -758.92468 L -1484.68494 -714.24102 A 762 461.80856 105.13148 0 1 -1479.28263 -708.26279 L -1508.30737 -716.11137 A 762 461.80856 105.13148 0 1 -1450.42692 -632.14154" />
    <path d="M -1484.68494 -714.24102 L -1513.70967 -722.0896" />
    <path d="M -1489.75287 -766.77326 L -1513.70967 -722.0896" />
    <path d="M -1829.28234 -808.49905 A 762 461.80856 105.13148 0 1 -1676.42101 -817.25023" />
    <path d="M -1642.66121 -808.12124 A 762 461.80856 105.13148 0 1 -1639.60348 -807.06606" />
    <path d="M -1576.86628 -775.96547 A 762 461.80856 105.13148 0 1 -1513.70967 -722.0896" />
    <path d="M -1021.00824 -721.93483 A 854.4 517.80739 105.13148 0 1 -933.73114 -681.88493" />
    <path d="M -1436.66846 -814.32479 A 854.4 517.80739 105.13148 0 1 -1325.83525 -804.40076 A 854.4 517.80739 105.13148 0 1 -1239.82853 -766.80138" />
    <path d="M 332.46487 -301.80957 L 303.24757 -247.31415" />
    <path d="M 332.46487 -301.80957 L 253.01586 -323.2934" />
    <path d="M -198.89411 -479.61796 A 854.4 517.80739 105.13148 0 1 -88.0609 -469.69394 A 854.4 517.80739 105.13148 0 1 -2.05418 -432.09455" />
    <path d="M -92.67748 -470.90471 A 854.4 517.80739 105.13148 0 1 -5.40038 -430.85481" />
    <path d="M -508.3377 -563.29467 A 854.4 517.80739 105.13148 0 1 -397.50449 -553.37064 A 854.4 517.80739 105.13148 0 1 -311.49777 -515.77126" />
    <path d="M -402.12106 -554.58142 A 854.4 517.80739 105.13148 0 1 -314.84396 -514.53151" />
    <path d="M -817.78129 -646.97137 A 854.4 517.80739 105.13148 0 1 -706.94808 -637.04735 A 854.4 517.80739 105.13148 0 1 -620.94136 -599.44796" />
    <path d="M -711.56465 -638.25812 A 854.4 517.80739 105.13148 0 1 -624.28755 -598.20822" />
    <path d="M -1127.22487 -730.64808 A 854.4 517.80739 105.13148 0 1 -1016.39167 -720.72406 A 854.4 517.80739 105.13148 0 1 -930.38494 -683.12467" />
    <path d="M -1453.21054 -756.89184 L -1479.28263 -708.26279" />
    <path d="M -1145.63521 -673.72033 A 854.4 517.80739 105.13148 0 1 -1093.25708 -589.49644" />
    <path d="M -1070.51458 -538.85615 A 854.4 517.80739 105.13148 0 1 -1011.55008 -238.8229" />
    <path d="M -1028.00612 -210.73774 L -1281.98243 -279.41553 A 854.4 517.80739 105.13148 0 1 -1281.92844 -268.08427 L -1302.25092 -260.18952" />
    <path d="M -1281.98243 -279.41553 L -1293.78932 -274.82887" />
    <path d="M -1349.80941 -272.19045 L -1361.40304 -267.68663" />
    <path d="M -1426.87939 -582.52095 A 762 461.80856 105.13148 0 1 -1370.15099 -270.05216" />
    <path d="M -836.19162 -590.04362 A 854.4 517.80739 105.13148 0 1 -783.81349 -505.81973" />
    <path d="M -761.071 -455.17944 A 854.4 517.80739 105.13148 0 1 -702.1065 -155.14619" />
    <path d="M -718.56253 -127.06104 L -980.37643 -197.85819" />
    <path d="M -1136.42101 -671.22872 A 854.4 517.80739 105.13148 0 1 -1087.58874 -593.93528" />
    <path d="M -1064.26733 -543.67576 A 854.4 517.80739 105.13148 0 1 -1003.07171 -252.67173" />
    <path d="M 330.42137 -297.99809 L 246.39243 -320.72037" />
    <path d="M 498.20122 201.96431 L 462.47855 215.84164" />
    <path d="M 498.20122 201.96431 L 236.21077 131.11942" />
    <path d="M 139.33599 -279.13172 A 854.4 517.80739 105.13148 0 1 236.21077 131.11942" />
    <path d="M 132.93279 -276.64424 A 854.4 517.80739 105.13148 0 1 226.99657 128.6278 L 29.0038 75.08853" />
    <path d="M -208.09025 -420.19859 A 854.4 517.80739 105.13148 0 1 -159.25798 -342.90515" />
    <path d="M -217.30445 -422.69021 A 854.4 517.80739 105.13148 0 1 -164.92631 -338.46632" />
    <path d="M -517.53384 -503.8753 A 854.4 517.80739 105.13148 0 1 -468.70157 -426.58186" />
    <path d="M -445.38016 -376.32235 A 854.4 517.80739 105.13148 0 1 -384.18454 -85.31832" />
    <path d="M -526.74804 -506.36692 A 854.4 517.80739 105.13148 0 1 -474.3699 -422.14303" />
    <path d="M -451.62741 -371.50274 A 854.4 517.80739 105.13148 0 1 -392.66291 -71.46948" />
    <path d="M -409.11894 -43.38433 L -670.93284 -114.18148" />
    <path d="M -826.97742 -587.55201 A 854.4 517.80739 105.13148 0 1 -778.14516 -510.25857" />
    <path d="M -754.82374 -459.99906 A 854.4 517.80739 105.13148 0 1 -693.62813 -168.99503" />
    <path d="M -1033.53776 -200.9169 L -1281.92844 -268.08427" />
    <path d="M -1011.98889 -139.33338 A 854.4 517.80739 105.13148 0 1 -1024.9069 -6.42958" />
    <path d="M -1370.59293 -236.30358 A 762 461.80856 105.13148 0 1 -1370.72078 -232.11655" />
    <path d="M -1385.07875 -84.54276 A 762 461.80856 105.13148 0 1 -1391.98572 -45.5862" />
    <path d="M -724.09417 -117.24019 L -986.13367 -188.09835" />
    <path d="M -702.54531 -55.65667 A 854.4 517.80739 105.13148 0 1 -715.46332 77.24712" />
    <path d="M -1002.77469 -136.84177 A 854.4 517.80739 105.13148 0 1 -1015.6927 -3.93797" />
    <path d="M 481.02573 208.63654 L 236.26476 142.45068 A 854.4 517.80739 105.13148 0 1 81.34626 766.08841" />
    <path d="M 323.70585 831.62491 L 81.34626 766.08841" />
    <path d="M 227.05056 139.95906 L 29.0038 86.4052" />
    <path d="M 227.05056 139.95906 A 854.4 517.80739 105.13148 0 1 72.13206 763.59679 L 29.0038 751.93447" />
    <path d="M -414.65059 -33.56348 L -676.69008 -104.42164" />
    <path d="M -693.3311 -53.16506 A 854.4 517.80739 105.13148 0 1 -706.24912 79.73874" />
    <path d="M 31.78667 961.27728 L 29.0038 960.52476" />
    <path d="M 295.9271 1032.70355 L 296.18335 1032.60401" />
    <path d="M 295.9271 1032.70355 L 41.00087 963.7689" />
    <path d="M 295.9271 1044.05579 L 296.18335 1043.95624" />
    <path d="M 295.9271 1044.05579 L 41.00087 975.12113" />
    <path d="M 295.9271 1032.70355 L 295.9271 1044.05579" />
    <path d="M -2258.04906 1026.77717 L -2265.88113 1029.81973" />
    <path d="M -1999.58318 937.6014 L -2248.83486 1034.42921" />
    <path d="M -1950.31454 996.99231 L -1681.567 1069.66439" />
    <path d="M -1629.5633 914.88643 L -1425.31518 970.11721" />
    <path d="M -1900.9535 939.29601 L -1900.9535 977.81683" />
    <path d="M -2181.37235 826.78961 L -1948.60547 889.73216" />
    <path d="M -1329.7183 1118.73971 L -1367.78237 1108.44679" />
    <path d="M -1020.27471 1202.41642 L -1157.39981 1165.33639" />
    <path d="M -828.14569 1254.37007 L -847.95622 1249.0131" />
    <path d="M -808.9268 1246.90403 L -828.14569 1254.37007 L -829.92221 1228.91381" />
    <path d="M -808.42732 1349.36145 L -710.83112 1375.75246" />
    <path d="M -808.42732 677.6877 L -594.59167 735.51104" />
    <path d="M -808.42732 1349.36145 L -808.42732 1234.72625" />
    <path d="M -808.42732 1198.04798 L -808.42732 1109.56453" />
    <path d="M -808.42732 1047.15069 L -808.42732 1020.46384" />
    <path d="M -808.42732 885.83827 L -808.42732 677.6877" />
    <path d="M -2065.7047 793.20796 L -2164.14287 831.44864" />
    <path d="M -2066.47603 782.15537 L -2181.37235 826.78961" />
    <path d="M -1379.80713 -238.79519 A 762 461.80856 105.13148 0 1 -1380.93728 -211.27565" />
    <path d="M -1517.52157 -718.60298 A 762 461.80856 105.13148 0 1 -1455.70862 -627.18516" />
    <path d="M -1432.81044 -576.96675 A 762 461.80856 105.13148 0 1 -1379.36519 -272.54378" />
    <path d="M -1517.52157 -718.60298 L -1525.35364 -720.72086" />
    <path d="M -1530.75594 -726.69909 A 762 461.80856 105.13148 0 1 -1525.35364 -720.72086" />
    <path d="M -1522.92387 -724.58122 L -1530.75594 -726.69909 L -1528.64322 -730.63969" />
    <path d="M -1651.87541 -810.61285 A 762 461.80856 105.13148 0 1 -1640.54549 -806.50346" />
    <path d="M -1580.10162 -774.4497 A 762 461.80856 105.13148 0 1 -1522.92387 -724.58122" />
    <path d="M -594.81646 594.70542 L -662.04854 620.82334" />
    <path d="M -717.66534 642.42903 L -808.42732 677.6877" />
    <path d="M -2065.7047 793.20796 L -2066.47603 782.15537 L -2067.38507 769.1295" />
    <path d="M -1880.39609 969.83081 L -1900.9535 964.27188" />
    <path d="M -1948.60547 951.3863 L -2056.70584 922.15485 L -2058.48236 896.6986" />
    <path d="M -832.53112 1191.53006 L -838.82492 1101.34471" />
    <path d="M -843.26439 1037.73039 L -851.1629 924.55071" />
    <path d="M -2061.09127 859.31485 L -2065.7047 793.20796" />
    <path d="M -2071.82454 705.51518 L -2077.88535 618.66838" />
    <path d="M -808.9268 617.751 L -808.9268 884.42288" />
    <path d="M -808.9268 1019.54433 L -808.9268 1047.01563" />
    <path d="M -808.9268 1109.42947 L -808.9268 1197.91291" />
    <path d="M -808.9268 1234.59119 L -808.9268 1246.90403" />
    <path d="M -1621.07773 90.71108 L -1494.37849 124.97185" />
    <path d="M -1449.89185 137.00149 L -1184.9349 208.64855" />
    <path d="M -1140.44827 220.67819 L -875.49131 292.32526" />
    <path d="M -831.00468 304.3549 L -566.04773 376.00197" />
    <path d="M -1621.07773 334.3858 L -1621.07773 90.71108" />
    <path d="M -840.95828 549.8329 A 50 30.3024 105.13148 0 1 -827.90653 548.8674 L -858.13968 540.69205" />
    <path d="M -827.90653 548.8674 A 50 30.3024 105.13148 0 1 -809.02217 581.08017" />
    <path d="M -903.85544 654.85614 L -1129.24158 690.20407 L -1129.24158 661.82349 L -930.89282 584.77014" />
    <path d="M -858.3915 556.60526 L -840.95828 549.8329" />
    <path d="M -1300.76295 -81.02388 L -1400.56598 -42.25299" />
    <path d="M -1613.65844 57.55625 A 50 30.3024 285.13148 0 0 -1621.07773 90.71108" />
    <path d="M -2357.80173 329.60827 L -2244.34653 285.53387" />
    <path d="M -2357.80173 357.98885 L -2357.80173 329.60827 L -2135.27041 389.78301" />
    <path d="M -2357.80173 357.98885 L -2131.23147 419.25577" />
    <path d="M -2077.81204 433.70093 L -1821.78788 502.93247" />
    <path d="M -1768.36845 517.37763 L -1512.34429 586.60918" />
    <path d="M -1458.92486 601.05434 L -1202.90071 670.28589" />
    <path d="M -1149.48127 684.73105 L -1129.24158 690.20407" />
    <path d="M -2069.51843 217.61768 L -1833.54723 281.42671" />
    <path d="M -1786.56221 294.13194 L -1524.10364 365.10342" />
    <path d="M -1477.11863 377.80864 L -1214.66005 448.78012" />
    <path d="M -1167.67504 461.48535 L -905.21647 532.45683" />
    <path d="M -858.23145 545.16206 L -840.95828 549.8329" />
    <path d="M -2056.46668 216.65219 A 50 30.3024 285.13148 0 0 -2069.51843 217.61768" />
    <path d="M -1589.04626 30.96671 L -1479.41665 60.61167" />
    <path d="M -1435.09065 72.59788 L -1169.97306 144.28838" />
    <path d="M -1125.64707 156.27458 L -860.52947 227.96509" />
    <path d="M -816.20348 239.95129 L -551.08589 311.6418" />
    <path d="M -1589.04626 30.96671 A 50 30.3024 285.13148 0 0 -1613.65844 57.55625 L -1771.12709 118.72874" />
    <path d="M -2083.08592 403.89423 L -1825.82682 473.45972" />
    <path d="M -1773.64233 487.57094 L -1516.38323 557.13643" />
    <path d="M -1464.19875 571.24765 L -1206.93964 640.81314" />
    <path d="M -1154.75516 654.92435 L -1129.24158 661.82349" />
    <path d="M -1589.04626 30.96671 L -1768.17585 100.55391" />
    <path d="M -1818.09417 119.94588 L -2069.51843 217.61768" />
    <path d="M -1449.83221 -40.27603 A 700 226.87707 180 0 0 -1735.51107 -44.75797" />
    <path d="M -1783.96926 -41.69427 A 700 226.87707 180 0 0 -2075.64233 5.48723" />
    <path d="M -2124.98905 20.26597 A 700 226.87707 180 0 0 -2317.0463 143.54349" />
    <path d="M -2307.45624 230.91667 A 700 226.87707 180 0 0 -2244.34653 285.53387" />
    <path d="M -1300.76295 -81.02388 L -1113.71621 -30.44453" />
    <path d="M -1068.79 -18.29602 L -804.27262 53.23218" />
    <path d="M -759.34641 65.38069 L -494.82903 136.90889" />
    <path d="M -1820.75265 138.00698 L -2036.85234 221.9561" />
    <path d="M -2260.70299 291.88793 A 700 226.87707 0 0 1 -2303.43665 253.23528" />
    <path d="M -1580.23792 -774.38522 A 765 463.6267 105.13148 0 1 -1529.56659 -728.91743" />
    <path d="M -1521.29042 -719.62212 A 765 463.6267 105.13148 0 1 -1458.79047 -624.2535" />
    <path d="M -1436.50505 -573.44838 A 765 463.6267 105.13148 0 1 -1385.88709 -274.30736" />
    <path d="M -1386.36643 -240.56889 A 765 463.6267 105.13148 0 1 -1388.65281 -194.9249" />
    <path d="M -1875.96763 -736.03467 A 690.9233 418.73266 285.13148 0 0 -2154.5247 -482.15483" />
    <path d="M -2172.16249 -453.05618 A 690.9233 418.73266 285.13148 0 0 -2180.77251 -437.95313" />
    <path d="M -2186.96023 -426.70101 A 690.9233 418.73266 285.13148 0 0 -2317.5451 134.09447" />
    <path d="M -2317.2527 139.85715 A 690.9233 418.73266 285.13148 0 0 -2314.7578 173.91387" />
    <path d="M -2310.37141 211.74503 A 690.9233 418.73266 285.13148 0 0 -2291.58277 303.88392" />
    <path d="M -2263.72662 383.42772 A 690.9233 418.73266 285.13148 0 0 -2166.57299 523.50492 A 690.9233 418.73266 285.13148 0 0 -2095.66239 570.3682" />
    <path d="M -1455.65909 -40.75789 A 690.9233 418.73266 285.13148 0 0 -1433.34235 -253.27166" />
    <path d="M -1433.91167 -287.2937 A 690.9233 418.73266 285.13148 0 0 -1480.04704 -528.45278" />
    <path d="M -1502.86131 -579.0079 A 690.9233 418.73266 285.13148 0 0 -1652.14653 -733.25937" />
    <path d="M -1715.77744 -753.95735 A 690.9233 418.73266 285.13148 0 0 -1821.60827 -752.20396 A 690.9233 418.73266 285.13148 0 0 -1875.96763 -736.03467" />
    <path d="M 1895.01319 547.30379 L 1902.84526 549.42166" />
    <path d="M 1670.79285 634.40758 L 1678.62492 636.52545" />
    <path d="M 1195.90162 -150.48389 L 1195.90162 -57.72196" />
    <path d="M 1310.90162 -150.48389 L 1310.90162 -102.39648" />
    <path d="M 773.66737 -73.30252 L 525.31424 -140.45974" />
    <path d="M 341.48651 -190.16864 L 217.25278 -223.76271" />
    <path d="M 150.91021 -241.70242 L 87.27903 -258.90894" />
    <path d="M -175.47932 -329.96148 L -401.63439 -391.11612" />
    <path d="M -815.68653 -561.16316 A 750.0000000000001 750.0000000000001 0 0 0 -803.65132 -489.5696" />
    <path d="M -905.04619 528.00805 L -1167.58327 457.01534" />
    <path d="M -1214.48977 444.33134 L -1477.02686 373.33863" />
    <path d="M -1523.93336 360.65464 L -1786.47045 289.66193" />
    <path d="M -1833.37695 276.97793 L -2056.46668 216.65219" />
</svg>