<svg version="1.1" xmlns="http://www.w3.org/2000/svg" viewBox="-2543.7895811580643 -971.667012592778 4698.778746261363 2617.1389817303425" fill="none" stroke="black" stroke-width="0.6%" vector-effect="non-scaling-stroke">
    <path d="M 2057.63894 890.73108 L 2121.66154 881.07513 L 2137.24139 881.95678 L 2139.02658 878.45612 L 2148.73699 876.99158 L 2142.21903 872.1959 L 2153.98916 849.11533 L 2107.25507 846.47067 L 1753.66482 586.3117" />
    <path d="M 2038.08734 876.34572 L 2057.63894 890.73108 L 2057.63894 985.01954 L 2121.66154 975.36359 L 2137.24139 976.24524 L 2139.02658 972.74458 L 2148.73699 971.28004" />
    <path d="M 1192.90231 828.51721 L 2038.08734 876.34572" />
    <path d="M 1192.90231 828.51721 L 1262.07003 798.64216" />
    <path d="M 1988.33695 839.74117 L 1262.07003 798.64216" />
    <path d="M 1684.4971 616.18674 L 1988.33695 839.74117" />
    <path d="M 1684.4971 616.18674 L 1753.66482 586.3117" />
    <path d="M 2121.66154 881.07513 L 2121.66154 975.36359" />
    <path d="M 2038.08734 970.63418 L 2057.63894 985.01954" />
    <path d="M 2038.08734 970.63418 L 2038.08734 876.34572" />
    <path d="M 1192.90231 922.80566 L 2038.08734 970.63418" />
    <path d="M 1192.90231 828.51721 L 1192.90231 922.80566" />
    <path d="M 1845.57528 246.35529 A 914.4 526.54218 284.40871 0 0 2031.72114 -476.67145 L 2023.64426 -478.74655 L 1930.47935 -438.5066 A 762 438.78515 104.40871 0 1 1794.82464 112.9826 L 1755.39047 102.85124 A 762 438.78515 104.40871 0 1 1750.17634 113.05449" />
    <path d="M 1938.55623 -436.4315 L 2031.72114 -476.67145" />
    <path d="M 1938.55623 -436.4315 A 762 438.78515 104.40871 0 1 1283.66964 488.27671 A 762 438.78515 104.40871 0 1 1008.01091 -34.50876 L 960.49987 -46.71523" />
    <path d="M 1008.01091 -34.50876 L 914.84599 5.73119 A 914.4 526.54218 284.40871 0 0 1100.99185 567.95705 L 1100.99185 964.0124 L 1195.9905 922.98042" />
    <path d="M 1458.17012 809.73935 L 1685.78907 711.42578" />
    <path d="M 1835.70494 646.67386 L 1845.57528 642.41064 L 1845.57528 246.35529" />
    <path d="M 1684.4971 616.18674 L 1684.4971 710.4752 L 1849.50894 831.88498" />
    <path d="M 2153.98916 849.11533 L 2153.98916 943.40379" />
    <path d="M 2148.73699 953.703 L 2153.98916 943.40379" />
    <path d="M 2148.73699 876.99158 L 2148.73699 971.28004" />
    <path d="M 2139.02658 972.74458 L 2139.02658 878.45612" />
    <path d="M 2137.24139 881.95678 L 2137.24139 976.24524" />
    <path d="M 1620.8558 288.98746 L 1672.25327 302.19242" />
    <path d="M 1760.48251 175.95966 L 1655.55688 149.00233" />
    <path d="M 1714.03065 -558.292 A 914.4 526.54218 104.40871 0 1 1638.79542 -93.59151" />
    <path d="M 1714.03065 -558.292 L 1704.52844 -560.7333 L 1667.88556 -544.90644 A 854.4 491.99217 104.40871 0 1 1593.37402 -97.85407" />
    <path d="M 1394.91483 -640.27875 A 914.4 526.54218 104.40871 0 1 1319.6796 -175.57826" />
    <path d="M 1394.91483 -640.27875 L 1385.41262 -642.72004 L 1348.76974 -626.89318 A 854.4 491.99217 104.40871 0 1 1274.2582 -179.84081" />
    <path d="M 1075.79901 -722.26549 A 914.4 526.54218 104.40871 0 1 1000.56378 -257.565" />
    <path d="M 1075.79901 -722.26549 L 1066.2968 -724.70678 L 1029.65392 -708.87992 A 854.4 491.99217 104.40871 0 1 955.14238 -261.82756" />
    <path d="M 756.68319 -804.25223 A 914.4 526.54218 104.40871 0 1 681.44796 -339.55174" />
    <path d="M 756.68319 -804.25223 L 747.18098 -806.69353 L 710.5381 -790.86667 A 854.4 491.99217 104.40871 0 1 636.02656 -343.8143" />
    <path d="M 437.56737 -886.23898 A 914.4 526.54218 104.40871 0 1 345.7921 -373.04902" />
    <path d="M 437.56737 -886.23898 L 428.06516 -888.68027 L 391.42228 -872.85341 A 854.4 491.99217 104.40871 0 1 345.7921 -523.68483" />
    <path d="M 118.45155 -968.22572 A 914.4 526.54218 104.40871 0 1 70.70985 -598.79816" />
    <path d="M 118.45155 -968.22572 L 108.94934 -970.66701 L -216.80591 -829.96624 L -216.80591 -585.12835" />
    <path d="M 1938.55623 -436.4315 L 1930.47935 -438.5066" />
    <path d="M 1789.6105 123.18586 A 762 438.78515 104.40871 0 1 1279.63976 487.20584" />
    <path d="M 1789.6105 123.18586 L 1750.17634 113.05449" />
    <path d="M 903.97784 -22.30214 L 960.49987 -46.71523" />
    <path d="M 903.97784 -22.30214 L 460.09652 -136.34344" />
    <path d="M 317.41743 -173.00033 L 142.40603 -217.96399" />
    <path d="M 81.49185 -233.61396 L -105.69405 -281.70547" />
    <path d="M -241.48762 -316.59335 L -495.82561 -381.93747" />
    <path d="M -560.60344 -398.58009 L -814.94143 -463.92422" />
    <path d="M -879.71926 -480.56684 L -931.84876 -493.95987 L -889.83263 -512.10754" />
    <path d="M -840.49159 -533.41901 L -784.86381 -557.44586" />
    <path d="M -822.29303 -574.00688 L -852.89776 -560.78803" />
    <path d="M -903.16767 -539.07536 L -1016.00268 -490.33947 A 914.4 526.54218 284.40871 0 0 -1015.95459 -479.04563" />
    <path d="M 914.84599 5.73119 L 468.16071 -109.03051" />
    <path d="M 332.9782 -143.76139 L 150.47022 -190.65105" />
    <path d="M 91.89735 -205.69951 L -133.42152 -263.58808" />
    <path d="M -261.71853 -296.54995 L -487.76142 -354.62454" />
    <path d="M -580.83435 -378.53669 L -806.87724 -436.61128" />
    <path d="M -899.95017 -460.52344 L -1016.00268 -490.33947" />
    <path d="M 1092.91497 565.88195 L 1100.99185 567.95705" />
    <path d="M 1092.91497 565.88195 A 914.4 526.54218 104.40871 0 1 1075.54778 548.3539 L 765.93417 468.80845" />
    <path d="M 783.30136 486.3365 A 914.4 526.54218 104.40871 0 1 765.93417 468.80845" />
    <path d="M 773.79915 483.89521 L 783.30136 486.3365" />
    <path d="M 773.79915 483.89521 A 914.4 526.54218 104.40871 0 1 756.43196 466.36716 L 488.49612 397.52949" />
    <path d="M 391.95112 372.7253 L 170.80563 315.90894" />
    <path d="M 126.37739 310.91273 A 914.4 526.54218 104.40871 0 1 118.20032 302.39367 L -148.31019 233.9222" />
    <path d="M -192.73843 228.92598 A 914.4 526.54218 104.40871 0 1 -200.9155 220.40693 L -434.04825 160.51082" />
    <path d="M -523.70773 137.47564 L -786.54183 69.94871" />
    <path d="M -842.82355 55.4889 L -847.22401 54.35834" />
    <path d="M -852.4401 48.66314 A 914.4 526.54218 284.40871 0 0 -847.22401 54.35834" />
    <path d="M -844.36323 50.73824 L -852.4401 48.66314" />
    <path d="M -844.36323 50.73824 A 914.4 526.54218 104.40871 0 1 -941.00425 -107.9197" />
    <path d="M -955.19705 -145.32254 A 914.4 526.54218 104.40871 0 1 -963.08808 -169.13996" />
    <path d="M -974.41646 -208.57301 A 914.4 526.54218 104.40871 0 1 -988.60234 -271.7698" />
    <path d="M -999.23499 -340.50281 A 914.4 526.54218 104.40871 0 1 -1007.87772 -476.97053 L -1015.95459 -479.04563" />
    <path d="M 1070.33169 542.6587 L 760.71808 463.11325 L 786.62851 411.91877 A 854.4 491.99217 104.40871 0 1 729.60287 332.13397" />
    <path d="M 1070.33169 542.6587 A 914.4 526.54218 104.40871 0 1 906.8172 14.94993 L 597.20359 -64.59552" />
    <path d="M 760.71808 463.11325 A 914.4 526.54218 104.40871 0 1 597.20359 -64.59552" />
    <path d="M 751.21587 460.67196 L 489.12063 393.33485" />
    <path d="M 751.21587 460.67196 A 914.4 526.54218 104.40871 0 1 587.70138 -67.03681 L 471.4249 -96.91039" />
    <path d="M 339.07461 -130.91362 L 278.08777 -146.58226" />
    <path d="M 397.81256 323.93412 A 914.4 526.54218 104.40871 0 1 322.8774 161.2483" />
    <path d="M 311.54903 121.81525 A 914.4 526.54218 104.40871 0 1 278.08777 -146.58226" />
    <path d="M 392.53245 368.51957 L 171.43015 311.7143" />
    <path d="M 127.86808 300.52241 L 122.48644 299.13976 L 130.05439 284.18681" />
    <path d="M 396.76191 334.00122 A 914.4 526.54218 104.40871 0 1 313.3752 158.80701" />
    <path d="M 302.04682 119.37396 A 914.4 526.54218 104.40871 0 1 268.58556 -149.02356 L 153.73441 -178.53094" />
    <path d="M 96.084 -193.34239 L -41.02805 -228.56901" />
    <path d="M 122.48644 299.13976 A 914.4 526.54218 104.40871 0 1 3.76158 79.26156" />
    <path d="M -7.56679 39.82851 A 914.4 526.54218 104.40871 0 1 -41.02805 -228.56901" />
    <path d="M 112.98423 296.69847 L -147.68567 229.72756" />
    <path d="M -191.24774 218.53566 L -196.62938 217.15302 L -189.06143 202.20007" />
    <path d="M 112.98423 296.69847 A 914.4 526.54218 104.40871 0 1 -5.74062 76.82027" />
    <path d="M -17.069 37.38722 A 914.4 526.54218 104.40871 0 1 -50.53026 -231.0103 L -144.95584 -255.26997" />
    <path d="M -270.42062 -287.50419 L -360.14387 -310.55575" />
    <path d="M -196.62938 217.15302 A 914.4 526.54218 104.40871 0 1 -315.35424 -2.72518" />
    <path d="M -326.68261 -42.15823 A 914.4 526.54218 104.40871 0 1 -328.84677 -50.59713" />
    <path d="M -353.06275 -187.60296 A 914.4 526.54218 104.40871 0 1 -360.14387 -310.55575" />
    <path d="M -206.13159 214.71173 L -432.53033 156.54571" />
    <path d="M -206.13159 214.71173 A 914.4 526.54218 104.40871 0 1 -324.85644 -5.16648" />
    <path d="M -361.00335 -176.52932 A 914.4 526.54218 104.40871 0 1 -369.64608 -312.99704 L -484.49723 -342.50442" />
    <path d="M -589.53644 -369.49093 L -679.25969 -392.54249" />
    <path d="M -520.74144 129.51169 A 914.4 526.54218 104.40871 0 1 -612.38622 -23.49167" />
    <path d="M -626.57902 -60.89451 A 914.4 526.54218 104.40871 0 1 -634.47006 -84.71193" />
    <path d="M -645.79843 -124.14498 A 914.4 526.54218 104.40871 0 1 -662.36424 -200.38645" />
    <path d="M -672.17857 -269.5897 A 914.4 526.54218 104.40871 0 1 -679.25969 -392.54249" />
    <path d="M -525.24741 132.72498 L -785.91731 65.75407" />
    <path d="M -525.24741 132.72498 A 914.4 526.54218 104.40871 0 1 -621.88843 -25.93296" />
    <path d="M -636.08123 -63.3358 A 914.4 526.54218 104.40871 0 1 -643.97226 -87.15322" />
    <path d="M -655.30064 -126.58627 A 914.4 526.54218 104.40871 0 1 -669.48652 -189.78306" />
    <path d="M -680.11917 -258.51607 A 914.4 526.54218 104.40871 0 1 -688.7619 -394.98378 L -803.61305 -424.49117" />
    <path d="M -908.65226 -451.47768 L -998.37551 -474.52924" />
    <path d="M -839.85726 47.52495 A 914.4 526.54218 104.40871 0 1 -931.50204 -105.47841" />
    <path d="M -945.69484 -142.88125 A 914.4 526.54218 104.40871 0 1 -953.58588 -166.69867" />
    <path d="M -964.91425 -206.13172 A 914.4 526.54218 104.40871 0 1 -981.48006 -282.3732" />
    <path d="M -991.29439 -351.57644 A 914.4 526.54218 104.40871 0 1 -998.37551 -474.52924" />
    <path d="M 229.9749 740.23208 L 277.84833 752.53164" />
    <path d="M 380.56756 778.92211 L 1100.99185 964.0124" />
    <path d="M -821.77995 325.95342 L -821.77995 239.74739" />
    <path d="M -558.18047 242.05181 L -806.74601 178.19074" />
    <path d="M -365.27143 291.6137 L -468.83628 265.00598" />
    <path d="M -381.69703 298.70828 L -471.81457 275.55542" />
    <path d="M 414.62532 691.8751 L 454.68333 702.16674 L 454.68333 561.92105" />
    <path d="M 369.58665 491.72692 L 148.17664 434.8426" />
    <path d="M 145.06972 560.56258 L 145.06972 448.06635" />
    <path d="M 135.56751 538.5238 L 145.06972 560.56258" />
    <path d="M 135.56751 538.5238 L 135.56751 485.70762" />
    <path d="M 105.17744 423.79531 L 83.72501 418.28379" />
    <path d="M 78.2389 405.55969 L 83.72501 418.28379" />
    <path d="M 107.58096 413.09821 L 78.2389 405.55969 L 78.60533 405.40142" />
    <path d="M 372.06223 481.04833 L 150.60145 424.15097" />
    <path d="M 773.79915 584.26196 L 468.29194 505.77151" />
    <path d="M 773.79915 584.26196 L 773.79915 483.89521" />
    <path d="M 783.30136 586.70325 L 783.30136 486.3365" />
    <path d="M 1092.91497 666.2487 L 783.30136 586.70325" />
    <path d="M 1092.91497 666.2487 L 1092.91497 565.88195" />
    <path d="M 464.18554 704.60804 L 464.18554 523.68344" />
    <path d="M 464.18554 704.60804 L 773.79915 784.15349 L 773.79915 595.57657 L 465.86713 516.46315" />
    <path d="M 783.30136 786.59478 L 783.30136 598.01786" />
    <path d="M 783.30136 786.59478 L 1092.91497 866.14023 L 1092.91497 677.56331 L 783.30136 598.01786" />
    <path d="M -561.20954 252.5882 L -809.17082 188.88237" />
    <path d="M -812.27774 328.39472 L -812.27774 202.10612" />
    <path d="M 1646.08924 332.0261 L 1617.3846 324.65135" />
    <path d="M 819.94425 607.4321 L 819.94425 714.19485 L 974.93339 647.25167" />
    <path d="M 1057.0614 668.35187 L 783.30136 786.59478" />
    <path d="M 819.94425 707.64934 L 965.43118 644.81038" />
    <path d="M 500.82843 525.44535 L 500.82843 632.2081 L 655.81757 565.26493" />
    <path d="M 737.94558 586.36513 L 464.18554 704.60804" />
    <path d="M 500.82843 625.6626 L 646.31536 562.82363" />
    <path d="M 181.71261 443.45861 L 181.71261 550.22136 L 336.70175 483.27818" />
    <path d="M 359.99789 529.78915 L 215.13873 592.35697" />
    <path d="M 145.43615 560.40431 L 145.06972 560.56258" />
    <path d="M 181.71261 543.67586 L 327.19954 480.83689" />
    <path d="M 819.94425 570.87639 L 783.30136 586.70325" />
    <path d="M 819.94425 570.87639 L 1090.12369 640.29048" />
    <path d="M 1092.91497 639.08486 L 1090.12369 640.29048" />
    <path d="M 1654.42123 322.85213 L 1618.459 313.61277" />
    <path d="M 1778.35564 144.38936 L 1750.17634 113.05449" />
    <path d="M 1771.57577 156.65466 L 1679.35335 132.96102" />
    <path d="M 1777.20376 146.49921 L 1691.81426 124.56107" />
    <path d="M 1613.62915 -100.05719 L 1602.87623 -95.41278 L 1593.37402 -97.85407" />
    <path d="M 1677.38777 -542.46514 A 854.4 491.99217 104.40871 0 1 1602.87623 -95.41278" />
    <path d="M 1714.03065 -558.292 L 1677.38777 -542.46514 L 1667.88556 -544.90644" />
    <path d="M 1294.51333 -182.04394 L 1283.76041 -177.39952 L 1274.2582 -179.84081" />
    <path d="M 1358.27195 -624.45189 A 854.4 491.99217 104.40871 0 1 1283.76041 -177.39952" />
    <path d="M 1394.91483 -640.27875 L 1358.27195 -624.45189 L 1348.76974 -626.89318" />
    <path d="M 975.39751 -264.03068 L 964.64459 -259.38626 L 955.14238 -261.82756" />
    <path d="M 1039.15613 -706.43863 A 854.4 491.99217 104.40871 0 1 964.64459 -259.38626" />
    <path d="M 1075.79901 -722.26549 L 1039.15613 -706.43863 L 1029.65392 -708.87992" />
    <path d="M 656.28169 -346.01742 L 645.52877 -341.37301 L 636.02656 -343.8143" />
    <path d="M 720.04031 -788.42537 A 854.4 491.99217 104.40871 0 1 645.52877 -341.37301" />
    <path d="M 756.68319 -804.25223 L 720.04031 -788.42537 L 710.5381 -790.86667" />
    <path d="M 400.92449 -870.41212 A 854.4 491.99217 104.40871 0 1 345.7921 -486.18463" />
    <path d="M 437.56737 -886.23898 L 400.92449 -870.41212 L 391.42228 -872.85341" />
    <path d="M -207.3037 -827.52495 L -207.3037 -589.23256" />
    <path d="M 118.45155 -968.22572 L -207.3037 -827.52495" />
    <path d="M -216.80591 -829.96624 L -207.3037 -827.52495" />
    <path d="M 1017.55489 471.24801 L 786.62851 411.91877" />
    <path d="M -578.02421 61.3143 L -776.60424 10.29542" />
    <path d="M 708.30992 290.96984 A 854.4 491.99217 104.40871 0 1 634.34604 -55.05294" />
    <path d="M 381.57029 192.02242 A 854.4 491.99217 104.40871 0 1 374.28938 174.45699" />
    <path d="M 359.69723 134.18541 A 854.4 491.99217 104.40871 0 1 315.23022 -137.03968" />
    <path d="M 70.07828 126.99636 A 854.4 491.99217 104.40871 0 1 55.17356 92.47025" />
    <path d="M 40.58141 52.19867 A 854.4 491.99217 104.40871 0 1 -3.8856 -219.02642" />
    <path d="M -249.03754 45.00961 A 854.4 491.99217 104.40871 0 1 -263.94226 10.4835" />
    <path d="M -278.53441 -29.78807 A 854.4 491.99217 104.40871 0 1 -297.34896 -96.92624" />
    <path d="M -318.88006 -232.16458 A 854.4 491.99217 104.40871 0 1 -323.00142 -301.01317" />
    <path d="M -502.58577 69.08777 A 854.4 491.99217 104.40871 0 1 -553.85935 -8.45504" />
    <path d="M -572.76242 -47.06803 A 854.4 491.99217 104.40871 0 1 -583.05808 -71.50324" />
    <path d="M -597.65023 -111.77481 A 854.4 491.99217 104.40871 0 1 -629.56623 -245.94836" />
    <path d="M -637.99588 -314.15132 A 854.4 491.99217 104.40871 0 1 -642.11724 -382.99991" />
    <path d="M -258.90839 143.30104 L -411.0346 104.21701" />
    <path d="M -183.46995 151.07451 A 854.4 491.99217 104.40871 0 1 -227.74459 86.17374" />
    <path d="M 60.20743 225.28778 L -140.48417 173.72641" />
    <path d="M 135.64587 233.06125 A 854.4 491.99217 104.40871 0 1 91.37123 168.16049" />
    <path d="M 379.32325 307.27453 L 178.63165 255.71315" />
    <path d="M 698.43907 389.26127 L 496.32214 337.3337" />
    <path d="M -915.42316 -489.73983 L -885.54472 -502.64497" />
    <path d="M -836.48763 -523.83379 L -823.38266 -529.49412" />
    <path d="M -672.66835 187.18555 L -672.66835 148.40215" />
    <path d="M -672.66835 -427.37164 L -672.66835 -535.56553" />
    <path d="M -672.66835 116.4692 L -672.66835 99.20491" />
    <path d="M -672.66835 36.99847 L -672.66835 -38.97926" />
    <path d="M -672.66835 -72.73571 L -672.66835 -94.52577" />
    <path d="M -672.66835 -131.04835 L -672.66835 -184.45316" />
    <path d="M -642.73639 124.15927 L -672.66835 116.4692 L -805.81164 173.97669" />
    <path d="M -642.73639 124.15927 L -642.73639 135.47389 L -729.2773 172.85279" />
    <path d="M 819.94425 482.68463 L 819.94425 570.87639" />
    <path d="M 500.82843 400.69789 L 500.82843 488.88965 L 773.79915 559.02086" />
    <path d="M 500.82843 488.88965 L 468.98683 502.64273" />
    <path d="M 181.71261 318.71115 L 181.71261 406.9029 L 377.26664 457.14434" />
    <path d="M 181.71261 406.9029 L 151.53582 419.93692" />
    <path d="M -137.40321 236.7244 L -137.40321 263.99967" />
    <path d="M -456.51903 224.52472 L -456.51903 242.92942 L -328.62854 275.78685" />
    <path d="M -456.51903 242.92942 L -463.1705 245.80233" />
    <path d="M -771.85199 11.51637 L -737.82312 -55.71872" />
    <path d="M -722.7043 -85.59087 L -712.94498 -104.87358" />
    <path d="M -696.58726 -137.19356 L -671.5547 -186.65352" />
    <path d="M -850.1603 44.15864 L -852.4401 48.66314" />
    <path d="M 697.55701 295.61426 L 708.30992 290.96984" />
    <path d="M 697.55701 323.9008 L 697.55701 295.61426 L 965.04416 364.33665 L 965.81405 364.00412" />
    <path d="M 378.44119 241.91406 L 378.44119 214.45831" />
    <path d="M 59.32537 131.64078 L 70.07828 126.99636" />
    <path d="M 59.32537 159.92731 L 59.32537 131.64078 L 140.52669 152.50289" />
    <path d="M -259.79045 49.65403 L -249.03754 45.00961" />
    <path d="M -259.79045 77.94057 L -259.79045 49.65403 L -178.58913 70.51615" />
    <path d="M -753.84096 -40.07155 L -744.98977 -57.55997" />
    <path d="M -729.87095 -87.43211 L -725.94847 -95.18223" />
    <path d="M 66.4891 377.29986 L 112.65853 389.16164" />
    <path d="M -194.69832 443.61201 L -173.63065 492.47494" />
    <path d="M 145.43615 560.40431 L 152.24602 576.19867" />
    <path d="M 84.21382 418.40937 L 98.53352 451.62153" />
    <path d="M 126.83847 517.27012 L 135.56751 537.51566" />
    <path d="M 36.95261 308.7949 L 78.60533 405.40142" />
    <path d="M -183.64227 404.07462 L 36.95261 308.7949" />
    <path d="M -38.30404 262.18481 L -77.89998 279.28715" />
    <path d="M -357.41986 180.19807 L -455.94767 222.75436" />
    <path d="M -566.13736 270.34769 L -742.20873 346.39674" />
    <path d="M -456.51903 279.48512 L -456.51903 331.02553" />
    <path d="M -745.7029 168.63275 L -551.15766 218.61501" />
    <path d="M 99.71394 422.39164 L 88.09463 427.41027" />
    <path d="M 345.7921 -528.12445 L -59.11403 -632.1523" />
    <path d="M 345.7921 -351.22892 L 345.7921 -528.12445" />
    <path d="M -388.976 109.88427 L -388.976 56.64816" />
    <path d="M -388.976 -135.14323 L -388.976 -317.96325" />
    <path d="M -388.976 -354.48584 L -388.976 -455.0904" />
    <path d="M -174.11403 -603.5679 L -305.21251 -546.94362" />
    <path d="M -137.40321 248.41482 L -120.43206 241.08461" />
    <path d="M -137.40321 241.86932 L -129.93426 238.64331" />
    <path d="M -672.65949 187.39894 L -672.66835 187.18555" />
    <path d="M -626.86474 238.11832 A 75 43.18751 104.40871 0 1 -645.52753 240.04287 A 75 43.18751 104.40871 0 1 -663.02191 226.43073" />
    <path d="M -546.3696 203.35072 L -570.31482 213.69318" />
    <path d="M -623.38331 236.61461 L -626.86474 238.11832" />
    <path d="M -636.36695 235.67702 A 75 43.18751 104.40871 0 1 -650.15785 238.35213" />
    <path d="M -543.92084 195.74754 L -579.81703 211.25189" />
    <path d="M -632.88552 234.17332 L -636.36695 235.67702 L -626.86474 238.11832" />
    <path d="M 1633.00074 164.20753 L 1833.06847 29.34099" />
    <path d="M 1613.62915 -100.05719 L 1858.34478 -37.18523" />
    <path d="M 614.15523 -356.84049 L 404.88052 -266.45019" />
    <path d="M 1851.72249 -18.63898 L 1606.29466 87.36663" />
    <path d="M 1294.51333 -182.04394 L 1595.62986 -104.68154" />
    <path d="M 975.39751 -264.03068 L 1276.51404 -186.66829" />
    <path d="M 656.28169 -346.01742 L 957.39822 -268.65503" />
    <path d="M 614.15523 -356.84049 L 638.2824 -350.64177" />
    <path d="M -259.8048 20.64183 L -246.60095 14.9388" />
    <path d="M -193.58055 -7.96186 L -178.91517 -14.29615" />
    <path d="M -132.9599 -34.14524 L -39.27686 -74.60897" />
    <path d="M 1084.3756 312.79481 L 1239.86581 245.63521 A 50 28.79168 104.40871 0 1 1252.30766 244.35217 L 1037.10034 189.06144" />
    <path d="M 503.47263 245.75041 L 646.91986 282.60465" />
    <path d="M 185.78215 164.12986 L 327.80404 200.6179" />
    <path d="M -133.33367 82.14311 L 8.68822 118.63116" />
    <path d="M -301.91691 67.11751 L -297.63284 68.21816" />
    <path d="M -259.79045 77.94057 L -179.72947 98.50971" />
    <path d="M -134.89251 110.02916 L 21.48298 150.20491" />
    <path d="M 59.32537 159.92731 L 139.38635 180.49646" />
    <path d="M 184.22331 192.0159 L 340.5988 232.19165" />
    <path d="M 378.44119 241.91406 L 403.01591 248.22776" />
    <path d="M 501.9138 273.63645 L 659.71462 314.17839" />
    <path d="M 697.55701 323.9008 L 965.04416 392.62319 L 965.04416 364.33665" />
    <path d="M 1213.15973 345.54598 L 1115.41205 364.09253" />
    <path d="M 976.39016 390.47041 L 965.04416 392.62319" />
    <path d="M -642.73639 124.15927 L -745.7029 168.63275" />
    <path d="M -152.47903 260.12642 L 36.95261 308.7949" />
    <path d="M -484.48103 343.10292 L -230.76132 408.2882" />
    <path d="M -240.19513 237.59053 L -195.83624 248.98715" />
    <path d="M -484.48103 343.10292 L -240.19513 237.59053" />
    <path d="M -491.38194 355.56248 L -484.48103 343.10292" />
    <path d="M -301.91691 67.11751 L -301.91691 58.12446" />
    <path d="M 1225.92372 465.66009 L 1213.15973 345.54598" />
    <path d="M -24.8027 292.92882 L -27.78248 264.88799" />
    <path d="M -34.57842 200.93555 L -41.69417 133.97353" />
    <path d="M 1252.30766 244.35217 A 50 28.79168 104.40871 0 1 1270.40154 279.59039 L 1270.40154 484.47893" />
    <path d="M 308.79785 -177.80577 L 315.64654 -176.04622" />
    <path d="M 459.20548 -139.16328 L 907.73911 -23.92671" />
    <path d="M 1009.11066 2.11751 L 1575.75892 147.69991 A 50 28.79168 104.40871 0 1 1606.29466 87.36663" />
    <path d="M 1575.75892 147.69991 L 1575.75892 398.33016" />
    <path d="M 308.79785 -177.80577 L 308.79785 -175.21486" />
    <path d="M 1613.43786 365.20107 L 1633.00074 164.20753" />
    <path d="M 184.92148 -458.64093 L 345.7921 -528.12445" />
    <path d="M -94.71558 -526.14642 A 57.5 19.15438 180 0 0 -59.11403 -543.85732" />
    <path d="M 46.54187 -65.43131 L 46.54187 -206.07068" />
    <path d="M 46.54187 -242.59326 L 46.54187 -307.10788" />
    <path d="M 309.30084 -186.54466 A 50 28.79168 284.40871 0 0 308.79785 -177.80577" />
    <path d="M -162.14544 -781.84748 A 57.5 19.15438 360 0 1 -59.11403 -770.14962 L -59.11403 -543.85732" />
    <path d="M -59.11403 -770.14962 A 57.5 19.15438 360 0 1 -174.11403 -770.14962 L -174.11403 -550.31805" />
    <path d="M -174.11403 -770.14962 A 57.5 19.15438 360 0 1 -162.14544 -781.84748" />
    <path d="M 530.85205 1550.18351 L 594.87464 1540.52756 L 594.87464 1634.81602 L 610.45449 1635.69767 L 612.23969 1632.197 L 621.9501 1630.73247" />
    <path d="M 511.30044 1535.79814 L 530.85205 1550.18351 L 530.85205 1644.47197 L 594.87464 1634.81602" />
    <path d="M -333.88459 1487.96963 L 511.30044 1535.79814" />
    <path d="M -333.88459 1487.96963 L -264.71686 1458.09459" />
    <path d="M 461.55005 1499.1936 L -264.71686 1458.09459" />
    <path d="M 157.7102 1275.63917 L 461.55005 1499.1936" />
    <path d="M 157.7102 1275.63917 L 226.87792 1245.76412" />
    <path d="M 580.46817 1505.9231 L 226.87792 1245.76412" />
    <path d="M 627.20227 1508.56776 L 580.46817 1505.9231" />
    <path d="M 615.43214 1531.64833 L 627.20227 1508.56776 L 627.20227 1602.85621" />
    <path d="M 621.9501 1536.44401 L 615.43214 1531.64833" />
    <path d="M 612.23969 1537.90854 L 621.9501 1536.44401 L 621.9501 1630.73247" />
    <path d="M 610.45449 1541.40921 L 612.23969 1537.90854" />
    <path d="M 594.87464 1540.52756 L 610.45449 1541.40921 L 610.45449 1635.69767" />
    <path d="M 511.30044 1630.0866 L 530.85205 1644.47197" />
    <path d="M 511.30044 1630.0866 L 511.30044 1535.79814" />
    <path d="M -333.88459 1582.25809 L 511.30044 1630.0866" />
    <path d="M -333.88459 1487.96963 L -333.88459 1582.25809" />
    <path d="M -425.79505 1227.40948 A 914.4 526.54218 104.40871 0 1 174.03338 -461.65556 L 165.9565 -463.73066" />
    <path d="M 174.03338 -461.65556 A 914.4 526.54218 104.40871 0 1 318.78839 905.80772" />
    <path d="M -425.79505 1227.40948 L -425.79505 1623.46483 L -330.7964 1582.43285" />
    <path d="M -68.61677 1469.19178 L 159.00217 1370.87821" />
    <path d="M 308.91804 1306.12629 L 318.78839 1301.86307 L 318.78839 905.80772" />
    <path d="M 157.7102 1275.63917 L 157.7102 1369.92762 L 322.72205 1491.3374" />
    <path d="M -53.50333 -308.78046 A 762 438.78515 284.40871 0 0 -243.11725 1147.72914 A 762 438.78515 284.40871 1 0 136.11059 -328.33395 A 762 438.78515 284.40871 0 0 -53.50333 -308.78046 Z" />
    <path d="M 621.9501 1613.15543 L 627.20227 1602.85621" />
    <path d="M 612.23969 1632.197 L 612.23969 1537.90854" />
    <path d="M -68.90879 -437.02685 L -378.5224 -516.5723 L -378.5224 -459.99401" />
    <path d="M -766.06882 -96.73201 A 914.4 526.54218 104.40871 0 1 -378.5224 -516.5723" />
    <path d="M -456.4552 -17.18656 L -766.06882 -96.73201" />
    <path d="M -456.4552 -17.18656 A 914.4 526.54218 104.40871 0 1 -68.90879 -437.02685" />
    <path d="M -388.02461 -519.01359 L -697.63822 -598.55904 L -697.63822 -541.98076" />
    <path d="M -1085.18464 -178.71875 A 914.4 526.54218 104.40871 0 1 -697.63822 -598.55904" />
    <path d="M -775.57102 -99.1733 L -1085.18464 -178.71875" />
    <path d="M -775.57102 -99.1733 A 914.4 526.54218 104.40871 0 1 -388.02461 -519.01359" />
    <path d="M -707.14043 -601.00034 L -1016.75404 -680.54579 L -1016.75404 -623.9675" />
    <path d="M -1404.30046 -260.7055 A 914.4 526.54218 104.40871 0 1 -1016.75404 -680.54579" />
    <path d="M -1094.68684 -181.16005 L -1404.30046 -260.7055" />
    <path d="M -1094.68684 -181.16005 A 914.4 526.54218 104.40871 0 1 -707.14043 -601.00034" />
    <path d="M -1026.25625 -682.98708 L -1335.86986 -762.53253 L -1335.86986 -705.95424" />
    <path d="M -1723.41628 -342.69224 A 914.4 526.54218 104.40871 0 1 -1335.86986 -762.53253" />
    <path d="M -1413.80266 -263.14679 L -1723.41628 -342.69224" />
    <path d="M -1413.80266 -263.14679 A 914.4 526.54218 104.40871 0 1 -1026.25625 -682.98708" />
    <path d="M -1345.37207 -764.97382 L -1654.98568 -844.51927 L -1654.98568 -787.94098" />
    <path d="M -2042.5321 -424.67898 A 914.4 526.54218 104.40871 0 1 -1654.98568 -844.51927" />
    <path d="M -1732.91848 -345.13353 L -2042.5321 -424.67898" />
    <path d="M -1732.91848 -345.13353 A 914.4 526.54218 104.40871 0 1 -1345.37207 -764.97382" />
    <path d="M -1664.48789 -846.96057 L -1974.1015 -926.50602 L -1974.1015 -560.99244" />
    <path d="M -2361.64792 -506.66573 A 914.4 526.54218 104.40871 0 1 -1974.1015 -926.50602" />
    <path d="M -2052.0343 -427.12028 L -2361.64792 -506.66573" />
    <path d="M -2052.0343 -427.12028 A 914.4 526.54218 104.40871 0 1 -1664.48789 -846.96057" />
    <path d="M -1983.60371 -928.94731 L -1991.68058 -931.02241" />
    <path d="M -1984.352 -934.26203 A 914.4 526.54218 284.40871 0 0 -1991.68058 -931.02241" />
    <path d="M -1976.27513 -932.18693 L -1984.352 -934.26203" />
    <path d="M -1976.27513 -932.18693 A 914.4 526.54218 104.40871 0 1 -1748.73842 -955.65112" />
    <path d="M 233.69562 835.41208 L 128.76999 808.45475" />
    <path d="M -433.87192 1225.33438 L -425.79505 1227.40948" />
    <path d="M -433.87192 1225.33438 A 914.4 526.54218 104.40871 0 1 -451.23911 1207.80633 L -760.85272 1128.26088" />
    <path d="M -743.48554 1145.78893 A 914.4 526.54218 104.40871 0 1 -760.85272 1128.26088" />
    <path d="M -752.98774 1143.34764 L -743.48554 1145.78893" />
    <path d="M -752.98774 1143.34764 A 914.4 526.54218 104.40871 0 1 -770.35493 1125.81958 L -1079.96855 1046.27413" />
    <path d="M -1062.60136 1063.80219 A 914.4 526.54218 104.40871 0 1 -1079.96855 1046.27413" />
    <path d="M -1072.10356 1061.3609 L -1062.60136 1063.80219" />
    <path d="M -1072.10356 1061.3609 A 914.4 526.54218 104.40871 0 1 -1089.47075 1043.83284 L -1399.08437 964.28739" />
    <path d="M -1381.71718 981.81544 A 914.4 526.54218 104.40871 0 1 -1399.08437 964.28739" />
    <path d="M -1391.21938 979.37415 L -1381.71718 981.81544" />
    <path d="M -1391.21938 979.37415 A 914.4 526.54218 104.40871 0 1 -1408.58657 961.8461 L -1718.20019 882.30065" />
    <path d="M -1700.833 899.8287 A 914.4 526.54218 104.40871 0 1 -1718.20019 882.30065" />
    <path d="M -1710.3352 897.38741 L -1700.833 899.8287" />
    <path d="M -1710.3352 897.38741 A 914.4 526.54218 104.40871 0 1 -1727.70239 879.85935 L -2037.31601 800.3139" />
    <path d="M -2019.94882 817.84196 A 914.4 526.54218 104.40871 0 1 -2037.31601 800.3139" />
    <path d="M -2029.45102 815.40067 L -2019.94882 817.84196" />
    <path d="M -2029.45102 815.40067 A 914.4 526.54218 104.40871 0 1 -2046.81821 797.87261 L -2356.43183 718.32716" />
    <path d="M -2339.06464 735.85521 A 914.4 526.54218 104.40871 0 1 -2356.43183 718.32716" />
    <path d="M -2348.56684 733.41392 L -2339.06464 735.85521" />
    <path d="M -2348.56684 733.41392 A 914.4 526.54218 104.40871 0 1 -2365.93403 715.88587 L -2374.01091 713.81077" />
    <path d="M -2379.227 708.11557 A 914.4 526.54218 284.40871 0 0 -2374.01091 713.81077" />
    <path d="M -2371.15012 710.19067 L -2379.227 708.11557" />
    <path d="M -2371.15012 710.19067 A 914.4 526.54218 104.40871 0 1 -2534.66461 182.4819 L -2542.74149 180.4068" />
    <path d="M -2542.78958 169.11296 A 914.4 526.54218 284.40871 0 0 -2542.74149 180.4068" />
    <path d="M -2534.7127 171.18806 L -2542.78958 169.11296" />
    <path d="M -2534.7127 171.18806 A 914.4 526.54218 104.40871 0 1 -2376.29821 -498.83031 L -2384.37508 -500.90541" />
    <path d="M -2379.227 -511.18212 A 914.4 526.54218 284.40871 0 0 -2384.37508 -500.90541" />
    <path d="M -2371.15012 -509.10702 L -2379.227 -511.18212" />
    <path d="M -2371.15012 -509.10702 A 914.4 526.54218 104.40871 0 1 -1983.60371 -928.94731" />
    <path d="M -61.58021 -440.26647 L -371.19382 -519.81192 A 914.4 526.54218 104.40871 0 1 -143.65711 -543.27611 L -153.15932 -545.7174" />
    <path d="M -61.58021 -440.26647 A 914.4 526.54218 104.40871 0 1 165.9565 -463.73066" />
    <path d="M -143.65711 -543.27611 A 914.4 526.54218 104.40871 0 1 0.41315 -461.71369" />
    <path d="M -380.69603 -522.25321 L -690.30964 -601.79866 A 914.4 526.54218 104.40871 0 1 -462.77293 -625.26285 L -472.27514 -627.70414" />
    <path d="M -380.69603 -522.25321 A 914.4 526.54218 104.40871 0 1 -153.15932 -545.7174" />
    <path d="M -462.77293 -625.26285 A 914.4 526.54218 104.40871 0 1 -318.70267 -543.70044" />
    <path d="M -699.81185 -604.23995 L -1009.42546 -683.78541 A 914.4 526.54218 104.40871 0 1 -781.88875 -707.24959 L -791.39096 -709.69089" />
    <path d="M -699.81185 -604.23995 A 914.4 526.54218 104.40871 0 1 -472.27514 -627.70414" />
    <path d="M -781.88875 -707.24959 A 914.4 526.54218 104.40871 0 1 -637.81849 -625.68718" />
    <path d="M -1018.92767 -686.2267 L -1328.54128 -765.77215 A 914.4 526.54218 104.40871 0 1 -1101.00457 -789.23634 L -1110.50678 -791.67763" />
    <path d="M -1018.92767 -686.2267 A 914.4 526.54218 104.40871 0 1 -791.39096 -709.69089" />
    <path d="M -1101.00457 -789.23634 A 914.4 526.54218 104.40871 0 1 -956.93431 -707.67392" />
    <path d="M -1338.04349 -768.21344 L -1647.6571 -847.75889 A 914.4 526.54218 104.40871 0 1 -1420.12039 -871.22308 L -1429.6226 -873.66437" />
    <path d="M -1338.04349 -768.21344 A 914.4 526.54218 104.40871 0 1 -1110.50678 -791.67763" />
    <path d="M -1420.12039 -871.22308 A 914.4 526.54218 104.40871 0 1 -1276.05013 -789.66067" />
    <path d="M -1657.15931 -850.20018 L -1966.77292 -929.74564 A 914.4 526.54218 104.40871 0 1 -1739.23621 -953.20982 L -1748.73842 -955.65112" />
    <path d="M -1657.15931 -850.20018 A 914.4 526.54218 104.40871 0 1 -1429.6226 -873.66437" />
    <path d="M -1739.23621 -953.20982 A 914.4 526.54218 104.40871 0 1 -1595.16595 -871.64741" />
    <path d="M -461.60329 -6.90985 L -771.2169 -86.4553 L -745.30408 -57.64072" />
    <path d="M -929.6314 583.56306 A 914.4 526.54218 104.40871 0 1 -771.2169 -86.4553" />
    <path d="M -620.01778 663.10851 L -929.6314 583.56306 L -892.98851 567.73621 A 854.4 491.99217 104.40871 0 1 -745.30408 -57.64072" />
    <path d="M -620.01778 663.10851 A 914.4 526.54218 104.40871 0 1 -461.60329 -6.90985" />
    <path d="M -780.71911 -88.89659 L -1090.33272 -168.44204 L -1064.4199 -139.62746" />
    <path d="M -1248.74722 501.57632 A 914.4 526.54218 104.40871 0 1 -1090.33272 -168.44204" />
    <path d="M -939.1336 581.12177 L -1248.74722 501.57632 L -1212.10433 485.74946 A 854.4 491.99217 104.40871 0 1 -1064.4199 -139.62746" />
    <path d="M -939.1336 581.12177 A 914.4 526.54218 104.40871 0 1 -780.71911 -88.89659" />
    <path d="M -1099.83493 -170.88334 L -1409.44854 -250.42879 L -1383.53572 -221.61421" />
    <path d="M -1567.86304 419.58958 A 914.4 526.54218 104.40871 0 1 -1409.44854 -250.42879" />
    <path d="M -1258.24942 499.13503 L -1567.86304 419.58958 L -1531.22015 403.76272 A 854.4 491.99217 104.40871 0 1 -1383.53572 -221.61421" />
    <path d="M -1258.24942 499.13503 A 914.4 526.54218 104.40871 0 1 -1099.83493 -170.88334" />
    <path d="M -1418.95075 -252.87008 L -1728.56436 -332.41553 L -1702.65154 -303.60095" />
    <path d="M -1886.97886 337.60283 A 914.4 526.54218 104.40871 0 1 -1728.56436 -332.41553" />
    <path d="M -1577.36524 417.14829 L -1886.97886 337.60283 L -1850.33597 321.77598 A 854.4 491.99217 104.40871 0 1 -1702.65154 -303.60095" />
    <path d="M -1577.36524 417.14829 A 914.4 526.54218 104.40871 0 1 -1418.95075 -252.87008" />
    <path d="M -1738.06657 -334.85682 L -2047.68018 -414.40227 L -2021.76736 -385.58769" />
    <path d="M -2206.09468 255.61609 A 914.4 526.54218 104.40871 0 1 -2047.68018 -414.40227" />
    <path d="M -1896.48106 335.16154 L -2206.09468 255.61609 L -2169.45179 239.78923 A 854.4 491.99217 104.40871 0 1 -2021.76736 -385.58769" />
    <path d="M -1896.48106 335.16154 A 914.4 526.54218 104.40871 0 1 -1738.06657 -334.85682" />
    <path d="M -2057.18239 -416.84357 L -2366.796 -496.38902 L -2199.45524 -310.30917 L -2169.52329 -302.61909" />
    <path d="M -2525.2105 173.62935 A 914.4 526.54218 104.40871 0 1 -2366.796 -496.38902" />
    <path d="M -2215.59688 253.1748 L -2525.2105 173.62935 L -2199.45524 32.92858 L -2198.36542 33.20857" />
    <path d="M -2215.59688 253.1748 A 914.4 526.54218 104.40871 0 1 -2057.18239 -416.84357" />
    <path d="M -1135.91227 -250.06427 L -1339.81385 -302.45034" />
    <path d="M -1386.45851 -314.43422 L -1408.38343 -320.06714 L -1493.03681 -283.5035" />
    <path d="M -1503.45913 -749.01102 A 914.4 526.54218 104.40871 0 1 -1473.24281 -684.16876" />
    <path d="M -1454.21792 -631.2007 A 914.4 526.54218 104.40871 0 1 -1408.38343 -320.06714" />
    <path d="M -816.79645 -168.07752 L -1020.69803 -220.4636" />
    <path d="M -1067.34269 -232.44747 L -1089.26761 -238.08039 L -1125.91388 -222.25208" />
    <path d="M -1184.34331 -667.02428 A 914.4 526.54218 104.40871 0 1 -1154.12699 -602.18202" />
    <path d="M -1135.1021 -549.21396 A 914.4 526.54218 104.40871 0 1 -1089.26761 -238.08039" />
    <path d="M 402.03067 145.06166 L 187.19567 89.86658 L 150.5494 105.6949" />
    <path d="M 94.05705 -335.43934 A 914.4 526.54218 104.40871 0 1 187.19567 89.86658" />
    <path d="M 140.55101 77.88271 L -131.92015 7.87984 L -168.56642 23.70815" />
    <path d="M -226.99585 -421.06405 A 914.4 526.54218 104.40871 0 1 -196.77953 -356.22179" />
    <path d="M -160.97171 -242.9417 A 914.4 526.54218 104.40871 0 1 -131.92015 7.87984" />
    <path d="M -178.56481 -4.10404 L -333.14108 -43.81753" />
    <path d="M -429.11105 -68.47399 L -451.03597 -74.10691 L -487.68224 -58.27859" />
    <path d="M -546.11167 -503.05079 A 914.4 526.54218 104.40871 0 1 -515.89535 -438.20853" />
    <path d="M -496.87046 -385.24047 A 914.4 526.54218 104.40871 0 1 -451.03597 -74.10691" />
    <path d="M -497.68063 -86.09078 L -701.58221 -138.47686" />
    <path d="M -748.22687 -150.46073 L -770.15179 -156.09365 L -806.79806 -140.26533" />
    <path d="M -865.22749 -585.03753 A 914.4 526.54218 104.40871 0 1 -835.01117 -520.19528" />
    <path d="M -815.98628 -467.22722 A 914.4 526.54218 104.40871 0 1 -770.15179 -156.09365" />
    <path d="M -619.96969 674.40236 L -929.58331 594.85691" />
    <path d="M -766.06882 1122.56568 A 914.4 526.54218 104.40871 0 1 -929.58331 594.85691" />
    <path d="M -456.4552 1202.11113 L -766.06882 1122.56568 L -740.15838 1071.37119 A 854.4 491.99217 104.40871 0 1 -797.18403 991.5864" />
    <path d="M -456.4552 1202.11113 A 914.4 526.54218 104.40871 0 1 -619.96969 674.40236" />
    <path d="M -939.08551 592.41562 L -1248.69913 512.87016" />
    <path d="M -1085.18464 1040.57893 A 914.4 526.54218 104.40871 0 1 -1248.69913 512.87016" />
    <path d="M -775.57102 1120.12438 L -1085.18464 1040.57893 L -1059.2742 989.38445 A 854.4 491.99217 104.40871 0 1 -1116.29985 909.59966" />
    <path d="M -775.57102 1120.12438 A 914.4 526.54218 104.40871 0 1 -939.08551 592.41562" />
    <path d="M -1258.20133 510.42887 L -1567.81495 430.88342" />
    <path d="M -1404.30046 958.59219 A 914.4 526.54218 104.40871 0 1 -1567.81495 430.88342" />
    <path d="M -1094.68684 1038.13764 L -1404.30046 958.59219 L -1378.39002 907.39771 A 854.4 491.99217 104.40871 0 1 -1435.41567 827.61291" />
    <path d="M -1094.68684 1038.13764 A 914.4 526.54218 104.40871 0 1 -1258.20133 510.42887" />
    <path d="M -1577.31715 428.44213 L -1886.93077 348.89668" />
    <path d="M -1723.41628 876.60545 A 914.4 526.54218 104.40871 0 1 -1886.93077 348.89668" />
    <path d="M -1413.80266 956.1509 L -1723.41628 876.60545 L -1697.50584 825.41096 A 854.4 491.99217 104.40871 0 1 -1754.53149 745.62617" />
    <path d="M -1413.80266 956.1509 A 914.4 526.54218 104.40871 0 1 -1577.31715 428.44213" />
    <path d="M -1896.43297 346.45539 L -2206.04659 266.90994" />
    <path d="M -2042.5321 794.6187 A 914.4 526.54218 104.40871 0 1 -2206.04659 266.90994" />
    <path d="M -1732.91848 874.16415 L -2042.5321 794.6187 L -2016.62166 743.42422 A 854.4 491.99217 104.40871 0 1 -2168.90414 276.45252" />
    <path d="M -1732.91848 874.16415 A 914.4 526.54218 104.40871 0 1 -1896.43297 346.45539" />
    <path d="M -2215.54879 264.46864 L -2525.16241 184.92319" />
    <path d="M -2361.64792 712.63196 A 914.4 526.54218 104.40871 0 1 -2525.16241 184.92319" />
    <path d="M -2052.0343 792.17741 L -2361.64792 712.63196 L -2206.31354 405.7184" />
    <path d="M -2052.0343 792.17741 A 914.4 526.54218 104.40871 0 1 -2215.54879 264.46864" />
    <path d="M -1408.57163 -283.59291 A 914.4 526.54218 104.40871 0 1 -1408.81315 -272.90907" />
    <path d="M -1417.78836 -146.72499 A 914.4 526.54218 104.40871 0 1 -1456.07705 60.65427" />
    <path d="M -1089.45581 -201.60616 A 914.4 526.54218 104.40871 0 1 -1089.69733 -190.92232" />
    <path d="M -1098.67254 -64.73824 A 914.4 526.54218 104.40871 0 1 -1180.99479 286.4034" />
    <path d="M 187.00747 126.34081 A 914.4 526.54218 104.40871 0 1 112.00853 565.86091" />
    <path d="M -132.10835 44.35407 A 914.4 526.54218 104.40871 0 1 -207.10729 483.87417" />
    <path d="M -451.22417 -37.63268 A 914.4 526.54218 104.40871 0 1 -451.46569 -26.94884" />
    <path d="M -770.33999 -119.61942 A 914.4 526.54218 104.40871 0 1 -770.58151 -108.93558" />
    <path d="M -779.55672 17.2485 A 914.4 526.54218 104.40871 0 1 -845.33893 319.90068" />
    <path d="M -2356.64372 1127.39417 L -2114.82242 1189.52253" />
    <path d="M -1490.69695 1349.87188 L -425.79505 1623.46483" />
    <path d="M -2356.64372 1031.5971 L -2356.64372 1127.39417" />
    <path d="M -2356.64372 1031.5971 L -2348.56684 1033.6722 L -2348.56684 845.09528 L -2356.64372 843.02018" />
    <path d="M -2356.64372 831.70557 L -2356.64372 843.02018" />
    <path d="M -2348.56684 833.78067 L -2356.64372 831.70557 L -2348.56684 828.21699" />
    <path d="M -2348.56684 833.78067 L -2348.56684 733.41392" />
    <path d="M -2339.06464 836.22196 L -2339.06464 735.85521" />
    <path d="M -2029.45102 915.76741 L -2339.06464 836.22196" />
    <path d="M -2029.45102 915.76741 L -2029.45102 815.40067" />
    <path d="M -2019.94882 918.2087 L -2019.94882 817.84196" />
    <path d="M -1892.05832 951.06613 L -2019.94882 918.2087" />
    <path d="M -1908.48393 958.16071 L -2019.94882 929.52332" />
    <path d="M -2019.94882 1018.22866 L -2019.94882 929.52332" />
    <path d="M -1351.62685 1289.80448 L -1072.10356 1361.61917 L -1072.10356 1173.04226 L -1381.71718 1093.4968" />
    <path d="M -1381.71718 1220.01501 L -1381.71718 1093.4968" />
    <path d="M -1391.21938 1197.97623 L -1381.71718 1220.01501" />
    <path d="M -1391.21938 1197.97623 L -1391.21938 1091.05551 L -1443.06189 1077.73622" />
    <path d="M -1448.54799 1065.01212 L -1443.06189 1077.73622" />
    <path d="M -1391.21938 1079.7409 L -1448.54799 1065.01212 L -1448.18156 1064.85385" />
    <path d="M -1391.21938 1079.7409 L -1391.21938 979.37415" />
    <path d="M -1381.71718 1082.18219 L -1381.71718 981.81544" />
    <path d="M -1072.10356 1161.72764 L -1381.71718 1082.18219" />
    <path d="M -1072.10356 1161.72764 L -1072.10356 1061.3609" />
    <path d="M -1062.60136 1164.16893 L -1062.60136 1063.80219" />
    <path d="M -752.98774 1243.71438 L -1062.60136 1164.16893" />
    <path d="M -752.98774 1243.71438 L -752.98774 1143.34764" />
    <path d="M -743.48554 1246.15568 L -743.48554 1145.78893" />
    <path d="M -433.87192 1325.70113 L -743.48554 1246.15568" />
    <path d="M -433.87192 1325.70113 L -433.87192 1225.33438" />
    <path d="M -1062.60136 1364.06046 L -1062.60136 1175.48355" />
    <path d="M -1062.60136 1364.06046 L -752.98774 1443.60592 L -752.98774 1255.029 L -1062.60136 1175.48355" />
    <path d="M -743.48554 1446.04721 L -743.48554 1257.47029" />
    <path d="M -743.48554 1446.04721 L -433.87192 1525.59266 L -433.87192 1337.01574 L -743.48554 1257.47029" />
    <path d="M -2339.06464 1036.11349 L -2068.37342 1105.65906" />
    <path d="M -2029.45102 1035.38485 L -2029.45102 927.08203 L -2339.06464 847.53658" />
    <path d="M -2339.06464 1036.11349 L -2339.06464 847.53658" />
    <path d="M 94.0689 948.43988 L 145.46638 961.64484" />
    <path d="M 262.8236 782.63829 A 762 438.78515 104.40871 0 1 -247.14713 1146.65826" />
    <path d="M 262.8236 782.63829 L 223.38944 772.50692" />
    <path d="M 228.60358 762.30366 A 762 438.78515 104.40871 0 1 223.38944 772.50692" />
    <path d="M 268.03774 772.43503 L 228.60358 762.30366" />
    <path d="M 403.69245 220.94583 A 762 438.78515 104.40871 0 1 268.03774 772.43503" />
    <path d="M 403.69245 220.94583 L 364.25829 210.81446" />
    <path d="M 364.3463 199.46183 A 762 438.78515 104.40871 0 1 364.25829 210.81446" />
    <path d="M 403.78046 209.5932 L 364.3463 199.46183" />
    <path d="M 272.07593 -237.33899 A 762 438.78515 104.40871 0 1 403.78046 209.5932" />
    <path d="M 272.07593 -237.33899 L 232.64177 -247.47035" />
    <path d="M 227.49173 -253.29606 A 762 438.78515 104.40871 0 1 232.64177 -247.47035" />
    <path d="M 266.9259 -243.1647 L 227.49173 -253.29606" />
    <path d="M 132.06359 -329.33818 A 762 438.78515 104.40871 0 1 266.9259 -243.1647" />
    <path d="M -139.04992 -398.46911 L -378.5224 -459.99401" />
    <path d="M -730.0491 -87.47788 A 854.4 491.99217 104.40871 0 1 -378.5224 -459.99401" />
    <path d="M -458.16574 -480.45586 L -697.63822 -541.98076" />
    <path d="M -1049.16492 -169.46462 A 854.4 491.99217 104.40871 0 1 -697.63822 -541.98076" />
    <path d="M -777.28156 -562.4426 L -1016.75404 -623.9675" />
    <path d="M -1368.28074 -251.45137 A 854.4 491.99217 104.40871 0 1 -1016.75404 -623.9675" />
    <path d="M -1096.39738 -644.42934 L -1335.86986 -705.95424" />
    <path d="M -1687.39656 -333.43811 A 854.4 491.99217 104.40871 0 1 -1335.86986 -705.95424" />
    <path d="M -1415.5132 -726.41609 L -1654.98568 -787.94098" />
    <path d="M -2006.51238 -415.42485 A 854.4 491.99217 104.40871 0 1 -1654.98568 -787.94098" />
    <path d="M -1734.62902 -808.40283 L -1944.16954 -862.23766 L -1944.16954 -603.64935" />
    <path d="M -1944.16954 -520.40553 L -1944.16954 -492.32921" />
    <path d="M -1959.78823 -496.34194 L -1944.16954 -492.32921" />
    <path d="M -2108.99691 -441.75502 L -2024.86699 -478.09256" />
    <path d="M -2197.99922 -350.28509 A 75 43.18751 104.40871 0 1 -2157.61635 -420.48981" />
    <path d="M -2292.23766 -455.0765 L -2169.52329 -318.62038 L -2169.52329 -302.61909" />
    <path d="M -1991.68058 -925.20485 L -1991.68058 -931.02241" />
    <path d="M -1766.1033 -586.57673 A 75 43.18751 104.40871 0 1 -1744.02382 -544.9025 L -1752.1007 -546.9776 A 75 43.18751 104.40871 0 1 -1752.03086 -546.19236 L -1704.51982 -533.98589" />
    <path d="M -1752.1007 -546.9776 L -1746.3424 -558.355" />
    <path d="M -1751.66968 -537.48525 L -1751.66968 -531.82794 L -1743.59281 -529.75284 L -1743.59281 -347.87596" />
    <path d="M -1752.03086 -546.19236 L -1751.66968 -537.48525 L -1704.15864 -525.27878 L -1704.51982 -533.98589" />
    <path d="M -1743.59281 -212.55854 L -1743.59281 -181.82843" />
    <path d="M -1751.66968 -183.90353 L -1743.59281 -181.82843" />
    <path d="M -1751.66968 -183.90353 L -1743.59281 -187.39211" />
    <path d="M -1751.66968 -183.90353 L -1751.66968 -172.58891 L -1743.59281 -170.51381 L -1743.59281 74.32408" />
    <path d="M 251.56874 803.84178 L 223.38944 772.50692" />
    <path d="M 244.78887 816.10709 L 152.56646 792.41345" />
    <path d="M -706.84265 1142.13706 L -706.84265 1230.32882 L -436.6632 1299.7429" />
    <path d="M -706.84265 1230.32882 L -743.48554 1246.15568" />
    <path d="M -1025.95847 1060.15032 L -1025.95847 1148.34207 L -752.98774 1218.47329" />
    <path d="M -1025.95847 1148.34207 L -1062.60136 1164.16893" />
    <path d="M -1345.07429 978.16357 L -1345.07429 1066.35533 L -1072.10356 1136.48655" />
    <path d="M -1345.07429 1066.35533 L -1381.71718 1082.18219" />
    <path d="M -1700.833 914.29028 L -1700.833 899.8287" />
    <path d="M -1664.19011 896.17683 L -1664.19011 923.4521" />
    <path d="M -1700.46657 914.13201 L -1700.833 914.29028" />
    <path d="M -1710.3352 911.84898 L -1710.3352 897.38741" />
    <path d="M -1710.3352 911.84898 L -1700.833 914.29028" />
    <path d="M -1983.30593 814.19009 L -1983.30593 902.38185 L -1855.41544 935.23927" />
    <path d="M -1983.30593 902.38185 L -2019.94882 918.2087" />
    <path d="M -2298.63888 670.96879 L -2196.40504 468.9726" />
    <path d="M -2199.45524 775.92163 L -2199.45524 758.65734" />
    <path d="M -2199.45524 696.4509 L -2199.45524 474.99927" />
    <path d="M -2199.45524 775.92163 L -2339.06464 836.22196" />
    <path d="M -2376.94719 703.61107 L -2379.227 708.11557" />
    <path d="M -2534.70108 165.61936 L -2542.78958 169.11296" />
    <path d="M -2378.49913 -494.37146 L -2384.37508 -500.90541" />
    <path d="M 237.12558 -272.33086 L 227.49173 -253.29606" />
    <path d="M -264.22961 -492.33084 A 854.4 491.99217 104.40871 0 1 -158.58734 -485.16339 A 854.4 491.99217 104.40871 0 1 -62.57294 -440.52152" />
    <path d="M -163.34901 -486.3429 A 854.4 491.99217 104.40871 0 1 -72.07515 -442.96281" />
    <path d="M -583.34543 -574.31758 A 854.4 491.99217 104.40871 0 1 -477.70316 -567.15013 A 854.4 491.99217 104.40871 0 1 -381.68876 -522.50826" />
    <path d="M -482.46483 -568.32964 A 854.4 491.99217 104.40871 0 1 -391.19097 -524.94956" />
    <path d="M -902.46125 -656.30433 A 854.4 491.99217 104.40871 0 1 -796.81898 -649.13687 A 854.4 491.99217 104.40871 0 1 -700.80458 -604.49501" />
    <path d="M -801.58065 -650.31639 A 854.4 491.99217 104.40871 0 1 -710.30679 -606.9363" />
    <path d="M -1221.57707 -738.29107 A 854.4 491.99217 104.40871 0 1 -1115.9348 -731.12362 A 854.4 491.99217 104.40871 0 1 -1019.9204 -686.48175" />
    <path d="M -1120.69647 -732.30313 A 854.4 491.99217 104.40871 0 1 -1029.42261 -688.92304" />
    <path d="M -1540.69289 -820.27781 A 854.4 491.99217 104.40871 0 1 -1435.05062 -813.11036 A 854.4 491.99217 104.40871 0 1 -1339.03622 -768.46849" />
    <path d="M -1936.84096 -860.35481 L -1936.84096 -613.47719" />
    <path d="M -1936.84096 -531.24371 L -1936.84096 -495.49458 L -1944.16954 -492.32921" />
    <path d="M -1439.81229 -814.28987 A 854.4 491.99217 104.40871 0 1 -1348.53843 -770.90979" />
    <path d="M -1585.49223 -770.08684 L -1704.58966 -534.77114 A 75 43.18751 104.40871 0 1 -1704.51982 -533.98589" />
    <path d="M -1704.58966 -534.77114 L -1734.52162 -542.46121" />
    <path d="M -1615.42418 -777.77691 L -1734.52162 -542.46121" />
    <path d="M -1779.8942 -583.90163 A 75 43.18751 104.40871 0 1 -1761.23142 -585.82618 A 75 43.18751 104.40871 0 1 -1734.52162 -542.46121" />
    <path d="M -1936.84096 -516.11291 L -1779.8942 -583.90163" />
    <path d="M -475.12463 11.77337 L -472.22881 14.99347" />
    <path d="M -475.12463 11.77337 L -745.30408 -57.64072" />
    <path d="M -622.80906 637.15029 L -619.74055 635.82494" />
    <path d="M -622.80906 637.15029 L -892.98851 567.73621" />
    <path d="M -790.29519 -69.19977 L -1064.4199 -139.62746" />
    <path d="M -938.89731 555.94139 L -1212.10433 485.74946" />
    <path d="M -1109.41101 -151.18651 L -1383.53572 -221.61421" />
    <path d="M -1258.01313 473.95464 L -1531.22015 403.76272" />
    <path d="M -1428.52683 -233.17325 L -1702.65154 -303.60095" />
    <path d="M -1577.12895 391.9679 L -1850.33597 321.77598" />
    <path d="M -1747.64265 -315.16 L -2021.76736 -385.58769" />
    <path d="M -1896.24477 309.98116 L -2169.45179 239.78923" />
    <path d="M -2066.75847 -397.14674 L -2310.95122 -459.88436 L -2169.52329 -302.61909" />
    <path d="M -2199.45524 32.92858 L -2199.45524 -310.30917" />
    <path d="M -2215.36059 227.99441 L -2458.63565 165.49256 L -2201.47653 54.41995" />
    <path d="M -1578.32558 -768.24559 L -1704.15864 -519.62148 L -1704.15864 -525.27878" />
    <path d="M -1734.0906 -527.31155 L -1704.15864 -519.62148" />
    <path d="M -1263.98665 -687.48612 A 854.4 491.99217 104.40871 0 1 -1196.32751 -564.9439" />
    <path d="M -1177.33873 -511.83531 A 854.4 491.99217 104.40871 0 1 -1135.41609 -224.69337 L -1352.47788 -280.46055" />
    <path d="M -1398.60173 -292.31062 L -1415.09774 -296.54875 A 854.4 491.99217 104.40871 0 1 -1415.04627 -285.25636 L -1446.67925 -271.59339" />
    <path d="M -1415.09774 -296.54875 L -1463.10485 -275.81343" />
    <path d="M -1512.10961 -254.64721 L -1585.90092 -222.77514" />
    <path d="M -1700.90092 -173.10414 L -1704.15864 -171.69707" />
    <path d="M -1734.0906 -179.38714 L -1704.15864 -171.69707" />
    <path d="M -1542.04157 -262.33728 L -1585.90092 -243.39348" />
    <path d="M -1700.90092 -193.72248 L -1734.0906 -179.38714" />
    <path d="M -1734.0906 -527.31155 L -1734.0906 -345.43467" />
    <path d="M -1734.0906 -225.4912 L -1734.0906 -179.38714" />
    <path d="M -944.87083 -605.49938 A 854.4 491.99217 104.40871 0 1 -877.21169 -482.95716" />
    <path d="M -858.22291 -429.84857 A 854.4 491.99217 104.40871 0 1 -816.30027 -142.70662 L -1033.36206 -198.4738" />
    <path d="M -1079.48591 -210.32387 L -1125.91388 -222.25208" />
    <path d="M -1254.48444 -685.04483 A 854.4 491.99217 104.40871 0 1 -1190.20104 -570.69833" />
    <path d="M -1170.64997 -518.15655 A 854.4 491.99217 104.40871 0 1 -1125.91388 -222.25208" />
    <path d="M 403.52052 182.54164 L 364.3463 199.46183" />
    <path d="M 403.19094 170.60317 L 150.5494 105.6949" />
    <path d="M 37.98666 -334.27521 A 854.4 491.99217 104.40871 0 1 150.5494 105.6949" />
    <path d="M 30.71747 -333.29312 A 854.4 491.99217 104.40871 0 1 141.04719 103.25361 L -168.56642 23.70815" />
    <path d="M -297.13698 -439.0846 A 854.4 491.99217 104.40871 0 1 -232.85358 -324.7381" />
    <path d="M -196.31345 -212.43031 A 854.4 491.99217 104.40871 0 1 -168.56642 23.70815" />
    <path d="M -306.63919 -441.52589 A 854.4 491.99217 104.40871 0 1 -238.98005 -318.98367" />
    <path d="M -203.60133 -205.55179 A 854.4 491.99217 104.40871 0 1 -178.06863 21.26686 L -346.46919 -21.99835" />
    <path d="M -441.25427 -46.35039 L -487.68224 -58.27859" />
    <path d="M -616.2528 -521.07134 A 854.4 491.99217 104.40871 0 1 -551.9694 -406.72485" />
    <path d="M -532.41833 -354.18306 A 854.4 491.99217 104.40871 0 1 -487.68224 -58.27859" />
    <path d="M -625.75501 -523.51263 A 854.4 491.99217 104.40871 0 1 -558.09587 -400.97041" />
    <path d="M -539.10709 -347.86182 A 854.4 491.99217 104.40871 0 1 -497.18445 -60.71988 L -714.24624 -116.48706" />
    <path d="M -760.37009 -128.33713 L -806.79806 -140.26533" />
    <path d="M -935.36862 -603.05808 A 854.4 491.99217 104.40871 0 1 -871.08522 -488.71159" />
    <path d="M -851.53415 -436.16981 A 854.4 491.99217 104.40871 0 1 -806.79806 -140.26533" />
    <path d="M -818.47697 950.42227 A 854.4 491.99217 104.40871 0 1 -892.44086 604.39949" />
    <path d="M -829.22989 955.06669 L -818.47697 950.42227" />
    <path d="M -829.22989 983.35323 L -829.22989 955.06669 L -561.74273 1023.78908 L -560.97285 1023.45655" />
    <path d="M -509.23201 1130.70044 L -740.15838 1071.37119" />
    <path d="M -1137.59279 868.43553 A 854.4 491.99217 104.40871 0 1 -1211.55668 522.41275" />
    <path d="M -1148.34571 873.07995 L -1137.59279 868.43553" />
    <path d="M -1148.34571 901.36648 L -1148.34571 873.07995 L -879.86703 942.05707" />
    <path d="M -828.34783 1048.7137 L -1059.2742 989.38445" />
    <path d="M -1456.70861 786.44879 A 854.4 491.99217 104.40871 0 1 -1530.6725 440.426" />
    <path d="M -1467.46153 791.0932 L -1456.70861 786.44879" />
    <path d="M -1467.46153 819.37974 L -1467.46153 791.0932 L -1198.98285 860.07033" />
    <path d="M -1147.46365 966.72695 L -1378.39002 907.39771" />
    <path d="M -1775.82443 704.46204 A 854.4 491.99217 104.40871 0 1 -1849.78832 358.43926" />
    <path d="M -1786.57735 709.10646 L -1775.82443 704.46204" />
    <path d="M -1786.57735 737.393 L -1786.57735 709.10646 L -1518.09867 778.08359" />
    <path d="M -1466.57947 884.74021 L -1697.50584 825.41096" />
    <path d="M -1785.69529 802.75347 L -2016.62166 743.42422" />
    <path d="M -2442.21005 169.7126 L -2203.10483 66.43786" />
    <path d="M -2104.81111 720.76672 L -2305.80553 669.12755 L -2198.55033 457.21004" />
    <path d="M -1135.36462 -213.40098 L -1357.96613 -270.59142" />
    <path d="M -1403.87493 -282.38624 L -1415.04627 -285.25636" />
    <path d="M -1495.68401 -250.42717 L -1585.90092 -211.46053" />
    <path d="M -1700.90092 -161.78953 L -1704.15864 -160.38245 L -1704.15864 -171.69707" />
    <path d="M -1734.0906 -168.07252 L -1704.15864 -160.38245" />
    <path d="M -1135.36462 -213.40098 A 854.4 491.99217 104.40871 0 1 -1135.55326 -191.65938" />
    <path d="M -1136.56957 -158.16404 A 854.4 491.99217 104.40871 0 1 -1142.65688 -76.03863" />
    <path d="M -1734.0906 -168.07252 L -1734.0906 70.21987" />
    <path d="M -816.2488 -131.41424 L -1038.85031 -188.60468" />
    <path d="M -1084.75911 -200.39949 L -1125.86241 -210.95969 A 854.4 491.99217 104.40871 0 1 -1126.05105 -189.21809" />
    <path d="M -816.2488 -131.41424 A 854.4 491.99217 104.40871 0 1 -816.43744 -109.67264" />
    <path d="M -817.45375 -76.1773 A 854.4 491.99217 104.40871 0 1 -823.54106 5.94811" />
    <path d="M -1127.06736 -155.72275 A 854.4 491.99217 104.40871 0 1 -1130.1881 -105.57456" />
    <path d="M 403.50763 181.9637 L 150.60087 116.98728 A 854.4 491.99217 104.40871 0 1 76.08933 564.03965 L 66.58713 561.59836" />
    <path d="M 250.41687 805.95164 L 165.02736 784.0135" />
    <path d="M 86.84225 559.39523 L 76.08933 564.03965" />
    <path d="M 141.09866 114.54599 L -168.51495 35.00054 A 854.4 491.99217 104.40871 0 1 -243.02649 482.05291 L -252.52869 479.61162" />
    <path d="M 141.09866 114.54599 A 854.4 491.99217 104.40871 0 1 66.58713 561.59836" />
    <path d="M -232.27357 477.40849 L -243.02649 482.05291" />
    <path d="M -178.01716 32.55925 L -352.22266 -12.19736" />
    <path d="M -446.52747 -36.42601 L -487.63077 -46.9862 A 854.4 491.99217 104.40871 0 1 -487.81941 -25.2446" />
    <path d="M -178.01716 32.55925 A 854.4 491.99217 104.40871 0 1 -252.52869 479.61162" />
    <path d="M -488.83572 8.25073 A 854.4 491.99217 104.40871 0 1 -491.95646 58.39893" />
    <path d="M -497.13298 -49.4275 L -719.73449 -106.61793" />
    <path d="M -765.64329 -118.41275 L -806.74659 -128.97295 A 854.4 491.99217 104.40871 0 1 -806.93523 -107.23135" />
    <path d="M -497.13298 -49.4275 A 854.4 491.99217 104.40871 0 1 -497.32162 -27.6859" />
    <path d="M -498.33793 5.80944 A 854.4 491.99217 104.40871 0 1 -504.42524 87.93485" />
    <path d="M -807.95154 -73.73601 A 854.4 491.99217 104.40871 0 1 -811.07228 -23.58781" />
    <path d="M -433.87192 1298.53729 L -436.6632 1299.7429" />
    <path d="M 127.63434 982.30455 L 91.6721 973.06519" />
    <path d="M -1460.29779 1036.75229 L -1391.21938 1054.49981" />
    <path d="M -1734.12019 1073.75972 L -1595.54633 1395.1586 L -2149.84179 1252.74987 L -2011.26793 1002.55535 L -1734.12019 1073.75972 L -1489.83429 968.24733 L -1448.18156 1064.85385" />
    <path d="M -1595.54633 1395.1586 L -1351.62685 1289.80448 L -1351.26042 1289.64621" />
    <path d="M -1381.35075 1219.85674 L -1351.26042 1289.64621" />
    <path d="M -1381.35075 1219.85674 L -1381.71718 1220.01501" />
    <path d="M -1442.57308 1077.8618 L -1391.21938 1196.96809" />
    <path d="M -1345.07429 1203.12829 L -1199.58735 1140.28932" />
    <path d="M -1345.07429 1102.91104 L -1345.07429 1209.67379 L -1190.08515 1142.73061" />
    <path d="M -1107.95713 1163.83081 L -1358.79423 1272.1728" />
    <path d="M -1025.95847 1285.11503 L -880.47153 1222.27606" />
    <path d="M -1025.95847 1184.89778 L -1025.95847 1291.66053 L -870.96933 1224.71735" />
    <path d="M -788.84131 1245.81756 L -1062.60136 1364.06046" />
    <path d="M -706.84265 1367.10177 L -561.35571 1304.2628" />
    <path d="M -706.84265 1266.88452 L -706.84265 1373.64727 L -551.85351 1306.7041" />
    <path d="M -469.72549 1327.8043 L -743.48554 1446.04721" />
    <path d="M 119.30234 991.47853 L 90.59771 984.10378" />
    <path d="M -2348.56684 1028.10852 L -2356.64372 1031.5971" />
    <path d="M -1565.09094 921.63724 L -1604.68687 938.73958" />
    <path d="M -1884.20676 839.65049 L -1983.30593 882.45358" />
    <path d="M -2065.30459 917.87058 L -2339.06464 1036.11349" />
    <path d="M -2169.52329 783.6117 L -2199.45524 775.92163" />
    <path d="M -2169.52329 783.6117 L -2169.52329 794.92632 L -2256.06419 832.30521" />
    <path d="M -2199.45524 846.63797 L -2199.45524 807.85458" />
    <path d="M -1983.30593 938.93755 L -1983.30593 990.47796" />
    <path d="M -1664.19011 907.86725 L -1647.21895 900.53703" />
    <path d="M -1664.19011 901.32174 L -1656.72116 898.09574" />
    <path d="M -2199.44639 846.85137 L -2199.45524 846.63797" />
    <path d="M -2153.65164 897.57074 A 75 43.18751 104.40871 0 1 -2172.31442 899.4953 A 75 43.18751 104.40871 0 1 -2189.8088 885.88315" />
    <path d="M -1969.07237 817.84695 L -1983.30593 823.99473" />
    <path d="M -2029.45102 843.9258 L -2097.10172 873.14561" />
    <path d="M -2150.17021 896.06704 L -2153.65164 897.57074" />
    <path d="M -2163.15384 895.12945 A 75 43.18751 104.40871 0 1 -2176.94475 897.80455" />
    <path d="M -1978.57458 815.40566 L -1983.30593 817.44923" />
    <path d="M -2029.45102 837.3803 L -2106.60393 870.70431" />
    <path d="M -2159.67242 893.62575 L -2163.15384 895.12945 L -2153.65164 897.57074" />
    <path d="M -1209.07084 124.11473 L -1485.22102 53.16665" />
    <path d="M -1528.18666 42.12798 L -1585.90092 27.30012" />
    <path d="M -1180.99479 418.5238 L -1180.99479 198.30657" />
    <path d="M -1915.76289 769.3367 L -1915.76289 341.48917" />
    <path d="M -1915.76289 304.96659 L -1915.76289 148.68808 L -1885.03871 156.58169" />
    <path d="M -1700.90092 55.88453 L -1833.77567 113.27601" />
    <path d="M -1882.04022 134.12252 L -1915.76289 148.68808" />
    <path d="M -2272.4898 828.08517 L -2029.45102 890.52632" />
    <path d="M -1700.46657 914.13201 L -1489.83429 968.24733" />
    <path d="M -1766.98202 897.04296 L -1710.3352 911.59657" />
    <path d="M -2011.26793 1002.55535 L -1766.98202 897.04296" />
    <path d="M -2169.52329 783.6117 L -2272.4898 828.08517" />
    <path d="M -1786.59169 680.09426 L -1566.06376 584.84345" />
    <path d="M -442.41129 972.24723 L -286.92109 905.08764 A 50 28.79168 104.40871 0 1 -274.47923 903.8046 L -489.68656 848.51387" />
    <path d="M -561.74273 1052.07561 L -561.74273 1023.78908" />
    <path d="M -829.22989 983.35323 L -561.74273 1052.07561" />
    <path d="M -1828.7038 726.56993 L -1824.41973 727.67059" />
    <path d="M -1786.57735 737.393 L -1505.30391 809.65733" />
    <path d="M -1467.46153 819.37974 L -1186.18809 891.64408" />
    <path d="M -1148.34571 901.36648 L -867.07227 973.63082" />
    <path d="M -313.62717 1004.9984 L -411.37485 1023.54496" />
    <path d="M -550.39673 1049.92283 L -561.74273 1052.07561" />
    <path d="M -1828.7038 726.56993 L -1828.7038 717.57689" />
    <path d="M 106.21384 823.65995 L 306.28157 688.79341" />
    <path d="M -912.63167 302.61194 L -911.78976 302.82824" />
    <path d="M -912.63167 302.61194 L -1187.45331 421.31338 L -935.82377 485.96165" />
    <path d="M 324.93559 640.81345 L 79.50776 746.81906" />
    <path d="M 86.84225 559.39523 L 331.55789 622.2672" />
    <path d="M -232.27357 477.40849 L 68.84296 554.77088" />
    <path d="M -501.41833 408.26023 L -250.27286 472.78414" />
    <path d="M -868.6242 313.91827 L -592.67394 384.81498" />
    <path d="M -1427.07295 1081.84407 L -1438.69226 1086.8627" />
    <path d="M -1480.24503 594.02112 L -1480.24503 453.38175" />
    <path d="M -1480.24503 416.85917 L -1480.24503 260.58066 L -1214.52405 145.81" />
    <path d="M -1841.2119 167.8416 L -1565.92289 238.56843" />
    <path d="M -1522.09608 249.82835 L -1480.24503 260.58066" />
    <path d="M -1700.90092 115.5951 A 57.5 19.15438 180 0 0 -1585.90092 115.5951" />
    <path d="M -1551.5896 952.38125 L -1554.56937 924.34042" />
    <path d="M -1561.36531 860.38798 L -1568.48107 793.42596" />
    <path d="M -274.47923 903.8046 A 50 28.79168 104.40871 0 1 -256.38535 939.04282 L -256.38535 1143.93136" />
    <path d="M -300.86318 1125.11252 L -313.62717 1004.9984" />
    <path d="M -1187.45331 421.31338 A 50 28.79168 284.40871 0 0 -1211.59724 450.02266" />
    <path d="M 48.97203 807.15233 A 50 28.79168 104.40871 0 1 79.50776 746.81906" />
    <path d="M 48.97203 807.15233 L 48.97203 1057.78259" />
    <path d="M 86.65097 1024.6535 L 106.21384 823.65995" />
    <path d="M -1212.10163 483.15924 L -938.84668 553.36348" />
    <path d="M -892.98581 565.14598 L -619.73086 635.35022" />
    <path d="M -517.67624 661.56994 L 48.97203 807.15233" />
    <path d="M -1608.28483 -276.72614 A 57.5 19.15438 360 0 1 -1585.90092 -261.55873 L -1585.90092 115.5951" />
    <path d="M -1585.90092 -261.55873 A 57.5 19.15438 360 0 1 -1678.51702 -246.39132 L -1608.28483 -276.72614" />
    <path d="M -1678.51702 -246.39132 L -1681.41214 -243.65028 L -1684.14536 -240.98552 L -1686.70504 -238.40837 L -1689.08029 -235.92983 L -1691.26098 -233.56045 L -1693.23782 -231.31031 L -1695.0024 -229.18901 L -1696.54721 -227.20558 L -1697.86565 -225.36846 L -1698.95212 -223.68548 L -1699.80199 -222.16381 L -1700.41164 -220.80993 L -1700.77847 -219.62961 L -1700.90092 -218.62786 L -1700.90092 115.5951" />
    <path d="M -1982.28741 -375.44457 A 57.5 33.11043 284.40871 0 0 -1974.44933 -287.24379 L -1781.81215 -237.75175" />
    <path d="M -1678.51702 -246.39132 A 57.5 33.11043 104.40871 0 1 -1665.54714 -294.06815" />
    <path d="M -1608.3271 -279.36726 A 57.5 33.11043 104.40871 0 1 -1608.28483 -276.72614" />
    <path d="M 430.70825 -214.66321 L 1606.29466 87.36663" />
    <path d="M 10.60268 -70.18517 L 130.93829 -39.26873" />
    <path d="M 180.82084 -26.45298 L 278.65439 -1.31774" />
    <path d="M 329.7185 11.80157 L 387.77769 26.71805" />
    <path d="M 498.51132 55.16756 L 597.77021 80.669" />
    <path d="M 648.83432 93.78832 L 916.88603 162.65575" />
    <path d="M 1038.41297 193.87826 L 1239.86581 245.63521" />
    <path d="M -1516.18422 589.26726 L -1248.1325 658.13469" />
    <path d="M -1197.0684 671.254 L -929.01668 740.12143" />
    <path d="M -877.95258 753.24074 L -609.90086 822.10818" />
    <path d="M -488.37392 853.33069 L -286.92109 905.08764" />
    <path d="M -891.04692 497.46565 L -616.70795 567.94839" />
    <path d="M -518.72963 593.12083 L 79.50776 746.81906" />
    <path d="M 916.28374 158.02143 L 648.04716 89.1065" />
    <path d="M 597.16792 76.03468 L 498.02522 50.5631" />
    <path d="M 386.87486 22.00651 L 328.93134 7.11976" />
    <path d="M 278.0521 -5.95206 L 180.33473 -31.05745" />
    <path d="M 130.28878 -43.91518 L 9.81552 -74.86699" />
    <path d="M -610.50316 817.47385 L -878.73974 748.55893" />
    <path d="M -929.61898 735.48711 L -1197.85556 666.57218" />
    <path d="M -1248.7348 653.50037 L -1516.97138 584.58544" />
    <path d="M -1737.85182 -226.45753 L -1700.90092 -216.96416" />
</svg>