<svg version="1.1" xmlns="http://www.w3.org/2000/svg" viewBox="-2330.638671648236 -1002.5591346222164 4558.412320716824 1950.6705151989997" fill="none" stroke="black" stroke-width="0.6%" vector-effect="non-scaling-stroke">
    <path d="M 1955.40611 331.87801 L 1955.40611 367.03604" />
    <path d="M 1951.85208 331.28259 L 1955.40611 331.87801" />
    <path d="M 1951.85208 331.28259 L 1951.85208 331.2875" />
    <path d="M 1652.92669 281.20276 L 1683.422 286.31173" />
    <path d="M 1652.92669 281.20276 L 1652.92669 281.20767 L 1519.09994 309.18621" />
    <path d="M 1955.38748 367.02541 L 1955.38748 336.56552 L 1939.40986 333.88874" />
    <path d="M 1498.7312 245.00365 L 1515.01894 247.73239" />
    <path d="M 1676.42763 274.77365 L 1710.94814 280.55697" />
    <path d="M 1975.35302 324.85348 L 1982.93225 326.12325 L 1955.40611 331.87801" />
    <path d="M 1982.93225 382.73607 L 1982.93225 326.12325" />
    <path d="M 1676.42763 276.28953 L 1652.92669 281.20276" />
    <path d="M 1975.35302 326.36936 L 1951.85208 331.28259" />
    <path d="M 1498.7312 -556.31189 L 1498.7312 254.11139" />
    <path d="M 1499.12565 263.26283 L 1498.7312 254.11139" />
    <path d="M 1548.75448 317.3281 A 75 49.13943 99.5106 0 1 1536.36222 317.62239 A 75 49.13943 99.5106 0 1 1499.12565 263.26283" />
    <path d="M 1888.91279 246.2128 L 1548.75448 317.3281" />
    <path d="M 1938.83736 166.72654 A 75 49.13943 99.5106 0 1 1888.91279 246.2128" />
    <path d="M 1938.93607 162.07982 L 1938.83736 166.72654" />
    <path d="M 1938.93607 162.07982 L 1938.93607 -328.46418" />
    <path d="M 2050.65054 -671.69908 A 500 327.59621 99.5106 0 1 1938.93607 -328.46418" />
    <path d="M 2050.65054 -671.69908 L 2178.64763 -698.45883 L 2171.04783 -699.73205 L 2043.05074 -672.97229 A 500 327.59621 99.5106 0 1 1931.33627 -329.7374 L 1938.93607 -328.46418" />
    <path d="M 1975.35302 13.55434 A 914.4 599.10795 279.5106 0 0 2178.64763 -698.45883" />
    <path d="M 1975.35302 13.55434 L 1975.35302 326.36936" />
    <path d="M 1185.67551 491.46845 L 1951.85208 331.2875" />
    <path d="M 1185.67551 491.46354 L 1162.17457 496.37677 L 1162.17457 183.56175" />
    <path d="M 958.87996 -443.44772 A 914.4 599.10795 279.5106 0 0 1162.17457 183.56175" />
    <path d="M 1498.7312 -556.31189 L 958.87996 -443.44772 L -857.91882 -747.82124 A 914.4 599.10795 279.5106 0 0 -857.8663 -736.04424" />
    <path d="M 1213.03157 136.43225 L 1213.03157 385.94439 L 1285.08064 398.01498 L 1462.96342 360.82586 L 1462.96342 111.31372 L 1390.91436 99.24313" />
    <path d="M 1213.03157 136.43225 L 1390.91436 99.24313" />
    <path d="M 1154.57477 495.10355 L 1154.57477 298.64221 L 863.24918 249.8356" />
    <path d="M 1541.15469 316.05489 A 75 49.13943 99.5106 0 1 1532.60047 316.75806" />
    <path d="M 1881.31299 244.93959 L 1541.15469 316.05489 L 1548.75448 317.3281" />
    <path d="M 1931.23756 165.45333 A 75 49.13943 99.5106 0 1 1881.31299 244.93959 L 1888.91279 246.2128" />
    <path d="M 1931.33627 160.80661 L 1931.23756 165.45333 L 1938.83736 166.72654" />
    <path d="M 1931.33627 136.24833 L 1931.33627 160.80661 L 1938.93607 162.07982" />
    <path d="M 863.24918 446.29694 L 863.24918 249.8356" />
    <path d="M 903.26781 256.54004 L 903.26781 378.99547 L 988.73457 361.12733" />
    <path d="M 1498.74801 254.50121 L 1636.409 225.72107 L 1636.409 88.1947" />
    <path d="M 1676.42763 94.89913 L 1676.42763 276.28953" />
    <path d="M 1145.24057 387.34723 L 886.75012 441.38862" />
    <path d="M 886.75012 441.38371 L 863.24918 446.29694" />
    <path d="M 854.30824 444.79904 L 854.30824 248.3377 L 562.98265 199.53109" />
    <path d="M 903.26781 375.62833 L 979.79363 359.62943" />
    <path d="M 1498.7312 251.13759 L 1627.46807 224.22317 L 1627.46807 86.6968 L 1498.7312 65.12914" />
    <path d="M 562.98265 395.99242 L 562.98265 199.53109" />
    <path d="M 603.00128 206.23552 L 603.00128 328.69096 L 732.79501 301.55559 L 854.30824 321.91305" />
    <path d="M 921.04299 262.19946 L 928.16331 260.71085" />
    <path d="M 933.48827 318.53746 L 921.04299 321.13934" />
    <path d="M 854.30824 335.09126 L 586.48359 391.08411" />
    <path d="M 586.48359 391.07919 L 562.98265 395.99242" />
    <path d="M 554.04171 394.49452 L 554.04171 198.03319 L 262.71612 149.22657" />
    <path d="M 603.00128 325.32381 L 723.85408 300.05769 L 732.79501 301.55559" />
    <path d="M 262.71612 345.68791 L 262.71612 149.22657" />
    <path d="M 302.73474 155.93101 L 302.73474 278.38644 L 432.52848 251.25107 L 554.04171 271.60853" />
    <path d="M 933.48827 205.45763 L 921.04299 208.05951" />
    <path d="M 554.04171 284.78675 L 286.21706 340.77959" />
    <path d="M 286.21706 340.77468 L 262.71612 345.68791" />
    <path d="M 253.77518 344.19001 L 253.77518 147.72867 L 164.28154 132.73554" />
    <path d="M 302.73474 275.0193 L 423.58754 249.75317 L 432.52848 251.25107" />
    <path d="M 253.77518 234.48223 L 209.56294 243.72548" />
    <path d="M -337.81694 221.52744 L -337.81694 48.61754" />
    <path d="M -297.79832 55.32198 L -297.79832 136.84604" />
    <path d="M -346.75788 240.44691 L -346.75788 47.11964 L -638.08347 -1.68697" />
    <path d="M -638.08347 165.70315 L -638.08347 -1.68697" />
    <path d="M -346.75788 133.8732 L -560.87617 178.63791" />
    <path d="M -647.02441 164.20525 L -647.02441 -3.18487 L -654.62421 -4.45809" />
    <path d="M 512.0699 378.61245 L 554.04171 369.8376" />
    <path d="M 321.65426 346.71158 L 554.04171 298.12742" />
    <path d="M 603.00128 287.89168 L 624.45865 283.40568" />
    <path d="M 921.04299 221.40018 L 933.48827 218.79831" />
    <path d="M 1189.21091 568.45665 L 1228.29044 560.28647" />
    <path d="M 2202.94686 598.50695 L 1228.29044 560.28647" />
    <path d="M 2207.17664 594.72902 L 2202.94686 598.50695 L 2202.94686 526.79677 L 2207.17664 523.01883 L 2226.77365 521.81542 L 1916.30794 344.73569 L 1955.38748 336.56552" />
    <path d="M 2226.77365 593.5256 L 2207.17664 594.72902" />
    <path d="M 1548.88779 493.26069 L 1884.53889 423.08768" />
    <path d="M 2041.43382 512.57554 L 1884.53889 423.08768" />
    <path d="M 2202.94686 526.79677 L 1228.29044 488.57629 L 1228.29044 560.28647" />
    <path d="M 1189.21091 496.74646 L 1228.29044 488.57629" />
    <path d="M 1260.05949 481.93448 L 1884.53889 351.3775 L 1884.53889 423.08768" />
    <path d="M 2176.44216 517.8698 L 1260.05949 481.93448" />
    <path d="M 2176.44216 517.8698 L 1884.53889 351.3775" />
    <path d="M 952.07585 452.32792 L 1154.57477 409.99241" />
    <path d="M 730.92574 415.278 L 854.30824 389.483" />
    <path d="M 761.66022 420.42704 L 854.30824 401.05755" />
    <path d="M 217.73327 263.75191 L 253.77518 256.2168" />
    <path d="M 302.73474 245.98105 L 346.48084 236.83526" />
    <path d="M -401.06074 225.63306 L -346.75788 214.28021" />
    <path d="M -550.66688 185.20033 L -346.75788 142.57003" />
    <path d="M -297.79832 132.33428 L -295.4324 131.83965" />
    <path d="M 1498.7312 38.27023 L 1627.46807 59.83788" />
    <path d="M 1676.42763 -36.52549 L 1676.42763 68.04022 L 1636.409 76.40672 L 1636.409 -55.05806" />
    <path d="M 1676.42763 68.04022 L 1931.33627 110.7458" />
    <path d="M 1454.02651 -563.80139 L 1498.7312 -556.31189" />
    <path d="M 1931.33627 -329.7374 L 1931.33627 -121.09354" />
    <path d="M 1894.23138 -127.30983 L 1931.33627 -121.09354" />
    <path d="M 1894.23138 -110.63912 L 1894.23138 -127.30983" />
    <path d="M 1894.23138 -110.63912 L 1931.33627 -104.42283 L 1931.33627 124.46035" />
    <path d="M 1887.37666 117.09567 L 1931.33627 124.46035" />
    <path d="M 1887.37666 128.88365 L 1887.37666 117.09567" />
    <path d="M 1887.37666 128.88365 L 1931.33627 136.24833" />
    <path d="M 2050.65054 -671.69908 L 2043.05074 -672.97229" />
    <path d="M 1646.50967 -85.18317 L 1498.7312 -109.94092" />
    <path d="M 1701.0914 -76.03894 A 914.4 599.10795 99.5106 0 1 1676.42763 -36.52549" />
    <path d="M 1931.33627 -37.46535 L 1701.0914 -76.03894 L 1672.79396 -111.79971 A 854.4 559.79641 99.5106 0 1 1636.409 -55.05806" />
    <path d="M 1879.72224 -748.53866 A 914.4 599.10795 99.5106 0 1 1722.64328 -113.95859" />
    <path d="M 1879.72224 -748.53866 L 1870.7813 -750.03656 L 1830.76268 -741.67005 A 854.4 559.79641 99.5106 0 1 1669.47276 -122.8664 L 1498.7312 -151.47122" />
    <path d="M 1579.45571 -798.84317 A 914.4 599.10795 99.5106 0 1 1536.57298 -459.00949" />
    <path d="M 1579.45571 -798.84317 L 1570.51477 -800.34108 L 1530.49615 -791.97457 A 854.4 559.79641 99.5106 0 1 1498.7312 -509.0315" />
    <path d="M 1279.18918 -849.14769 A 914.4 599.10795 99.5106 0 1 1238.68175 -518.78027" />
    <path d="M 1279.18918 -849.14769 L 1270.24824 -850.64559 L 1230.22962 -842.27908 A 854.4 559.79641 99.5106 0 1 1185.89629 -508.44828" />
    <path d="M 978.92265 -899.4522 A 914.4 599.10795 99.5106 0 1 936.03992 -559.61852" />
    <path d="M 978.92265 -899.4522 L 969.98171 -900.9501 L 929.96309 -892.5836 A 854.4 559.79641 99.5106 0 1 885.62976 -558.75279" />
    <path d="M 678.65612 -949.75672 A 914.4 599.10795 99.5106 0 1 635.77339 -609.92304" />
    <path d="M 678.65612 -949.75672 L 669.71518 -951.25462 L 629.69655 -942.88811 A 854.4 559.79641 99.5106 0 1 585.36323 -609.05731" />
    <path d="M 378.38959 -1000.06123 A 914.4 599.10795 99.5106 0 1 334.34128 -655.68352" />
    <path d="M 378.38959 -1000.06123 L 369.44865 -1001.55913 L 287.0469 -984.33179" />
    <path d="M -543.93676 201.69662 L -346.75788 234.73057" />
    <path d="M 246.43794 334.11037 L 253.77518 335.3396" />
    <path d="M 286.21706 340.77468 L 554.04171 385.64411" />
    <path d="M 586.48359 391.07919 L 854.30824 435.94863" />
    <path d="M 886.75012 441.38371 L 1154.57477 486.25314" />
    <path d="M 1185.67551 491.46354 L 1189.22953 492.05895 L 1161.70339 497.81372 L 1161.70339 578.90516 L 1189.22953 573.1504 L 1189.22953 492.05895" />
    <path d="M -539.39728 212.82343 L -348.79414 244.75573" />
    <path d="M 250.97743 345.23718 L 1161.70339 497.81372" />
    <path d="M 1154.57477 495.10355 L 1162.17457 496.37677" />
    <path d="M 854.30824 444.79904 L 863.24918 446.29694" />
    <path d="M 554.04171 394.49452 L 562.98265 395.99242" />
    <path d="M 253.77518 344.19001 L 262.71612 345.68791" />
    <path d="M 1154.57477 182.28853 L 1162.17457 183.56175" />
    <path d="M 1154.57477 286.85424 L 1154.57477 182.28853 A 914.4 599.10795 99.5106 0 1 1135.60763 160.17746 L 844.28204 111.37084" />
    <path d="M 1154.57477 286.85424 L 863.24918 238.04763 L 863.24918 133.48192 A 914.4 599.10795 99.5106 0 1 844.28204 111.37084" />
    <path d="M 854.30824 131.98402 L 863.24918 133.48192" />
    <path d="M 854.30824 236.54972 L 854.30824 131.98402 A 914.4 599.10795 99.5106 0 1 835.3411 109.87294 L 544.0155 61.06633" />
    <path d="M 854.30824 236.54972 L 562.98265 187.74311 L 562.98265 83.17741 A 914.4 599.10795 99.5106 0 1 544.0155 61.06633" />
    <path d="M 554.04171 81.67951 L 562.98265 83.17741" />
    <path d="M 554.04171 186.24521 L 554.04171 81.67951 A 914.4 599.10795 99.5106 0 1 535.07457 59.56843 L 243.74897 10.76181" />
    <path d="M 554.04171 186.24521 L 262.71612 137.4386 L 262.71612 32.87289 A 914.4 599.10795 99.5106 0 1 243.74897 10.76181" />
    <path d="M 253.77518 31.37499 L 262.71612 32.87289" />
    <path d="M 253.77518 135.9407 L 253.77518 31.37499 A 914.4 599.10795 99.5106 0 1 234.80803 9.26391 L -56.51756 -39.5427" />
    <path d="M 253.77518 135.9407 L 159.11949 120.08275" />
    <path d="M -37.55041 10.79693 L -37.55041 -17.43162 A 914.4 599.10795 99.5106 0 1 -56.51756 -39.5427" />
    <path d="M -46.49135 -18.92952 L -37.55041 -17.43162" />
    <path d="M -46.49135 9.29903 L -46.49135 -18.92952 A 914.4 599.10795 99.5106 0 1 -65.4585 -41.0406 L -356.78409 -89.84722" />
    <path d="M -256.93619 50.37975 L -337.81694 36.82957 L -337.81694 -67.73614 A 914.4 599.10795 99.5106 0 1 -356.78409 -89.84722" />
    <path d="M -346.75788 -69.23404 L -337.81694 -67.73614" />
    <path d="M -346.75788 35.33167 L -346.75788 -69.23404 A 914.4 599.10795 99.5106 0 1 -365.72503 -91.34512 L -657.05062 -140.15173" />
    <path d="M -346.75788 35.33167 L -638.08347 -13.47495 L -638.08347 -118.04065 A 914.4 599.10795 99.5106 0 1 -657.05062 -140.15173" />
    <path d="M -647.02441 -119.53855 L -638.08347 -118.04065" />
    <path d="M -647.02441 -14.97285 L -647.02441 -119.53855 A 914.4 599.10795 99.5106 0 1 -665.99156 -141.64963 L -673.59136 -142.92285" />
    <path d="M -647.02441 -14.97285 L -654.62421 -16.24606 L -647.02441 -17.83492" />
    <path d="M -654.62421 -16.24606 L -654.62421 -4.45809" />
    <path d="M -262.09824 61.30291 L -337.81694 48.61754" />
    <path d="M -679.28798 -150.01254 A 914.4 599.10795 279.5106 0 0 -673.59136 -142.92285" />
    <path d="M -671.68818 -148.73933 L -679.28798 -150.01254" />
    <path d="M -671.68818 -148.73933 A 914.4 599.10795 99.5106 0 1 -850.2665 -734.77103 L -857.8663 -736.04424" />
    <path d="M 1129.911 153.08776 L 838.58541 104.28115 L 866.88285 56.68835 A 854.4 559.79641 99.5106 0 1 700.26705 -475.00569" />
    <path d="M 1129.911 153.08776 A 914.4 599.10795 99.5106 0 1 951.33268 -432.94394 L 660.00709 -481.75055" />
    <path d="M 838.58541 104.28115 A 914.4 599.10795 99.5106 0 1 660.00709 -481.75055" />
    <path d="M 829.64447 102.78325 L 538.31888 53.97663 L 566.61632 6.38383 A 854.4 559.79641 99.5106 0 1 457.5473 -195.86094" />
    <path d="M 829.64447 102.78325 A 914.4 599.10795 99.5106 0 1 651.06615 -483.24845 L 359.74056 -532.05507" />
    <path d="M 538.31888 53.97663 A 914.4 599.10795 99.5106 0 1 359.74056 -532.05507" />
    <path d="M 529.37794 52.47873 L 238.05235 3.67212 L 266.34979 -43.92068 A 854.4 559.79641 99.5106 0 1 157.28077 -246.16545" />
    <path d="M 529.37794 52.47873 A 914.4 599.10795 99.5106 0 1 350.79962 -533.55297 L 59.47403 -582.35958" />
    <path d="M 238.05235 3.67212 A 914.4 599.10795 99.5106 0 1 59.47403 -582.35958" />
    <path d="M 229.11141 2.17422 L -62.21418 -46.6324 L -33.91674 -94.22519 A 854.4 559.79641 99.5106 0 1 -142.98576 -296.46997" />
    <path d="M 229.11141 2.17422 A 914.4 599.10795 99.5106 0 1 50.53309 -583.85748 L -240.7925 -632.6641" />
    <path d="M -62.21418 -46.6324 A 914.4 599.10795 99.5106 0 1 -240.7925 -632.6641" />
    <path d="M -71.15512 -48.1303 L -362.48071 -96.93691 L -334.18327 -144.52971 A 854.4 559.79641 99.5106 0 1 -443.25229 -346.77448" />
    <path d="M -71.15512 -48.1303 A 914.4 599.10795 99.5106 0 1 -249.73344 -634.162 L -541.05903 -682.96861" />
    <path d="M -362.48071 -96.93691 A 914.4 599.10795 99.5106 0 1 -541.05903 -682.96861" />
    <path d="M -371.42165 -98.43481 L -662.74724 -147.24142 L -585.78388 -276.6843 A 762 499.25663 99.5106 0 1 -653.45669 -381.99063" />
    <path d="M -371.42165 -98.43481 A 914.4 599.10795 99.5106 0 1 -549.99997 -684.46651 L -841.32556 -733.27313" />
    <path d="M -662.74724 -147.24142 A 914.4 599.10795 99.5106 0 1 -841.32556 -733.27313" />
    <path d="M -768.71264 -766.47116 L -857.91882 -747.82124" />
    <path d="M -768.71264 -766.47116 L -768.74506 -766.58103 L -768.77746 -766.69084 L -768.80984 -766.8006 L -768.8422 -766.91029 L -768.87455 -767.01993 L -768.90688 -767.12951 L -768.93919 -767.23904 L -768.97149 -767.3485 L -769.00377 -767.4579 L -769.03603 -767.56725 L -769.06827 -767.67654 L -769.1005 -767.78577 L -769.1327 -767.89494 L -769.1649 -768.00406 A 775 507.77413 279.5106 0 0 -769.14211 -766.38137" />
    <path d="M -769.1649 -768.00406 L -762.49383 -769.39874 L -719.13103 -778.4644 L -718.57836 -778.37181" />
    <path d="M -762.0416 -767.86584 L -762.07402 -767.97572 L -762.10642 -768.08554 L -762.1388 -768.19529 L -762.17116 -768.30499 L -762.20351 -768.41464 L -762.23583 -768.52422 L -762.26815 -768.63374 L -762.30044 -768.7432 L -762.33272 -768.85261 L -762.36497 -768.96195 L -762.39722 -769.07124 L -762.42944 -769.18047 L -762.46165 -769.28964 L -762.49383 -769.39874 L -758.76844 -768.77462 L -709.35025 -779.10625 A 690.9233 452.68771 279.5106 0 0 -707.8588 -737.75219" />
    <path d="M -756.17105 -769.09317 L -762.0416 -767.86584" />
    <path d="M -711.46636 -761.60366 L -756.17105 -769.09317" />
    <path d="M -773.1955 -748.69824 L -711.46636 -761.60366" />
    <path d="M 954.19389 -459.30373 L -773.1955 -748.69824" />
    <path d="M 954.19389 -459.30373 L 1454.02651 -563.80139" />
    <path d="M 1213.03157 136.43225 L 1285.08064 148.50284 L 1462.96342 111.31372" />
    <path d="M 1285.08064 398.01498 L 1285.08064 148.50284" />
    <path d="M 933.48827 343.37297 A 101.6 19.01449 180 0 0 967.32339 357.54026 L 967.32339 267.27145" />
    <path d="M 967.32339 357.54026 L 1154.57477 388.91102" />
    <path d="M 1883.77498 129.63663 L 1887.37666 128.88365" />
    <path d="M 1883.77498 129.63663 L 1636.409 88.1947" />
    <path d="M -569.90089 -17.12306 L -346.75788 20.26073" />
    <path d="M -297.79832 -79.96516 L -297.79832 28.46306 L -337.81694 36.82957" />
    <path d="M -297.79832 28.46306 L -250.3365 36.41448" />
    <path d="M 2.46821 -29.66065 L 2.46821 17.50136" />
    <path d="M 152.51979 103.90615 L 253.77518 120.86975" />
    <path d="M 302.73474 20.64387 L 302.73474 129.07209 L 262.71612 137.4386" />
    <path d="M 302.73474 129.07209 L 554.04171 171.17427" />
    <path d="M 603.00128 70.94838 L 603.00128 179.3766 L 562.98265 187.74311" />
    <path d="M 603.00128 179.3766 L 854.30824 221.47878" />
    <path d="M 903.26781 121.2529 L 903.26781 229.68112 L 863.24918 238.04763" />
    <path d="M 903.26781 229.68112 L 933.48827 234.74404" />
    <path d="M 933.49276 234.74479 L 933.49276 235.10241" />
    <path d="M 1627.46807 224.22317 L 1636.409 225.72107" />
    <path d="M 1627.46807 74.90882 L 1498.7312 53.34117" />
    <path d="M 1627.46807 74.90882 L 1627.46807 -56.55596 L 1636.409 -55.05806" />
    <path d="M 1883.77498 117.84866 L 1636.409 76.40672" />
    <path d="M 1883.77498 117.84866 L 1883.77498 129.63663" />
    <path d="M 921.04299 325.55784 L 903.26781 329.27402" />
    <path d="M 603.00128 279.81087 L 723.85408 300.05769" />
    <path d="M 921.04299 162.28931 L 933.48827 164.3743" />
    <path d="M 196.5008 211.70868 L 253.77518 221.30402" />
    <path d="M 302.73474 229.50635 L 423.58754 249.75317" />
    <path d="M -451.85334 -30.01474 L -538.59969 -11.87908" />
    <path d="M -440.10715 105.05592 L -346.75788 120.69499" />
    <path d="M -297.79832 128.89732 L -294.31751 129.48048" />
    <path d="M 2207.17664 523.01883 L 2207.17664 594.72902" />
    <path d="M 2226.77365 521.81542 L 2226.77365 593.5256" />
    <path d="M -464.32179 -173.39065 A 762 499.25663 99.5106 0 1 -561.35367 -249.01549" />
    <path d="M -453.76607 -52.00932 L -638.08347 -13.47495" />
    <path d="M -452.86016 -41.59222 L -569.90089 -17.12306" />
    <path d="M 1663.85302 -113.29761 A 854.4 559.79641 99.5106 0 1 1627.46807 -56.55596" />
    <path d="M 1883.77498 117.84866 L 1887.37666 117.09567" />
    <path d="M 1088.20471 93.76704 L 866.88285 56.68835" />
    <path d="M 1917.42685 -81.32594 L 1678.4137 -121.3685" />
    <path d="M 1927.01466 -69.20939 L 1894.23138 -110.63912" />
    <path d="M 1927.01466 -69.20939 L 1672.79396 -111.79971" />
    <path d="M 1663.85302 -113.29761 L 1498.7312 -140.96094" />
    <path d="M 1839.70362 -740.17215 A 854.4 559.79641 99.5106 0 1 1678.4137 -121.3685" />
    <path d="M 1879.72224 -748.53866 L 1839.70362 -740.17215 L 1830.76268 -741.67005" />
    <path d="M 1519.82796 -461.81483 L 1498.7312 -457.40423" />
    <path d="M 1539.43709 -790.47667 A 854.4 559.79641 99.5106 0 1 1498.7312 -470.45121" />
    <path d="M 1579.45571 -798.84317 L 1539.43709 -790.47667 L 1530.49615 -791.97457" />
    <path d="M 1239.17056 -840.78118 A 854.4 559.79641 99.5106 0 1 1195.59191 -509.77168" />
    <path d="M 1279.18918 -849.14769 L 1239.17056 -840.78118 L 1230.22962 -842.27908" />
    <path d="M 919.2949 -562.42386 L 894.5707 -557.25489 L 885.62976 -558.75279" />
    <path d="M 938.90402 -891.0857 A 854.4 559.79641 99.5106 0 1 894.5707 -557.25489" />
    <path d="M 978.92265 -899.4522 L 938.90402 -891.0857 L 929.96309 -892.5836" />
    <path d="M 619.02837 -612.72838 L 594.30417 -607.55941 L 585.36323 -609.05731" />
    <path d="M 638.63749 -941.39021 A 854.4 559.79641 99.5106 0 1 594.30417 -607.55941" />
    <path d="M 678.65612 -949.75672 L 638.63749 -941.39021 L 629.69655 -942.88811" />
    <path d="M 276.64182 -978.7893 A 762 499.25663 99.5106 0 1 218.73049 -634.27423" />
    <path d="M 378.38959 -1000.06123 L 276.64182 -978.7893 L 267.70088 -980.2872 A 762 499.25663 99.5106 0 1 209.48295 -634.84718" />
    <path d="M 264.45202 -984.0975 L 266.05067 -984.11408 L 267.65165 -984.13068 L 269.25498 -984.1473 L 270.86064 -984.16395 L 272.46866 -984.18063 L 274.07902 -984.19733 L 275.69173 -984.21405 L 277.3068 -984.23079 L 278.92423 -984.24757 L 280.54403 -984.26436 L 282.16619 -984.28118 L 283.79072 -984.29802 L 285.41762 -984.31489 L 287.0469 -984.33179" />
    <path d="M 257.78096 -982.70281 L 264.45202 -984.0975" />
    <path d="M 257.78096 -982.70281 L 259.37941 -982.71939 L 260.98023 -982.73599 L 262.58342 -982.75261 L 264.18899 -982.76926 L 265.79693 -982.78594 L 267.40725 -982.80263 L 269.01995 -982.81936 L 270.63504 -982.83611 L 272.25252 -982.85288 L 273.87239 -982.86967 L 275.49466 -982.8865 L 277.11933 -982.90334 L 278.74641 -982.92021 L 280.37589 -982.93711 L 267.70088 -980.2872" />
    <path d="M -503.88665 299.86408 L 1161.70339 578.90516" />
    <path d="M 967.32339 249.09089 A 101.6 19.01449 0 0 1 933.48827 234.9236 A 101.6 19.01449 0 0 1 933.49276 234.74479" />
    <path d="M 967.32339 249.09089 L 1154.57477 280.46165" />
    <path d="M -597.27177 -188.60568 L -551.83627 -265.02258 A 762 499.25663 99.5106 0 1 -557.61992 -271.96591 L -585.78388 -276.6843" />
    <path d="M -676.43332 -154.81373 L -679.28798 -150.01254" />
    <path d="M 787.93817 43.46252 L 566.61632 6.38383" />
    <path d="M 444.03999 -236.90488 A 854.4 559.79641 99.5106 0 1 400.00051 -525.3102" />
    <path d="M 444.03999 -236.90488 L 419.31579 -231.73591 L 587.55446 -203.5504 L 681.00382 -223.08742" />
    <path d="M 419.31579 -202.26597 L 419.31579 -231.73591" />
    <path d="M 487.67164 -6.84199 L 266.34979 -43.92068" />
    <path d="M 143.77346 -287.2094 A 854.4 559.79641 99.5106 0 1 99.73398 -575.61472" />
    <path d="M 143.77346 -287.2094 L 119.04926 -282.04043 L 389.95629 -236.65459" />
    <path d="M 119.04926 -252.57049 L 119.04926 -282.04043" />
    <path d="M 187.40511 -57.14651 L -33.91674 -94.22519" />
    <path d="M -156.49307 -337.51391 A 854.4 559.79641 99.5106 0 1 -200.53255 -625.91923" />
    <path d="M -156.49307 -337.51391 L -181.21727 -332.34494 L 89.68976 -286.95911" />
    <path d="M -181.21727 -302.875 L -181.21727 -332.34494" />
    <path d="M -112.86142 -107.45102 L -334.18327 -144.52971" />
    <path d="M -456.7596 -387.81843 A 854.4 559.79641 99.5106 0 1 -500.79908 -676.22375" />
    <path d="M -456.7596 -387.81843 L -481.4838 -382.64946 L -210.57677 -337.26362" />
    <path d="M -481.4838 -353.17952 L -481.4838 -382.64946" />
    <path d="M -413.12795 -157.75554 L -606.28585 -190.11583 L -557.61992 -271.96591" />
    <path d="M -741.8943 -743.45426 L -711.24412 -749.86215 A 762 499.25663 99.5106 0 1 -711.46636 -761.60366" />
    <path d="M -680.73221 -443.46686 A 762 499.25663 99.5106 0 1 -737.77119 -715.92436" />
    <path d="M -739.06357 -742.98002 A 762 499.25663 99.5106 0 1 -739.10017 -744.03841" />
    <path d="M 959.38832 35.99137 A 101.6 19.01449 180 0 0 933.48827 48.6736 L 933.48827 67.84695" />
    <path d="M 933.48827 48.6736 A 101.6 19.01449 180 0 0 967.32339 62.84088 L 1080.93399 81.87439" />
    <path d="M 1046.69868 17.7378 L 959.38832 35.99137" />
    <path d="M -451.85334 -30.01474 L -452.86016 -41.59222 L -458.53907 -106.89452" />
    <path d="M 877.44194 58.45734 L 857.73578 -168.14578 L 749.33481 -170.52687" />
    <path d="M -440.10715 105.05592 L -446.60011 30.39279" />
    <path d="M -448.97038 3.13677 L -451.85334 -30.01474" />
    <path d="M -463.69889 -166.22783 L -473.23641 -275.90077" />
    <path d="M 887.69414 -266.2992 A 50 32.75962 99.5106 0 1 895.95565 -266.49539 L 717.98518 -296.3113" />
    <path d="M 895.95565 -266.49539 A 50 32.75962 99.5106 0 1 921.04299 -224.15473 L 921.04299 65.76195" />
    <path d="M 921.04299 124.23083 L 921.04299 232.65905" />
    <path d="M 921.04299 259.51796 L 921.04299 325.55784" />
    <path d="M 694.29264 -171.7359 L 587.55446 -174.08047 L 587.55446 -203.5504" />
    <path d="M 731.39324 -233.62211 L 887.69414 -266.2992" />
    <path d="M 13.43726 -539.47706 L 51.97903 -533.02004" />
    <path d="M 101.93 -524.65161 L 352.24557 -482.71553" />
    <path d="M 402.19653 -474.3471 L 652.5121 -432.41101" />
    <path d="M 702.46306 -424.04258 L 952.77863 -382.1065" />
    <path d="M 13.43726 -414.34623 L 13.43726 -539.47706" />
    <path d="M 1498.7312 -320.83359 L 1688.06663 -404.15939 L 1688.06663 -433.62933 L 1498.7312 -394.04586" />
    <path d="M 346.92579 -658.3145 L 228.80446 -633.61943 A 700 131.00536 180 0 0 164.60114 -637.25693" />
    <path d="M 21.16169 -572.52657 A 50 32.75962 279.5106 0 0 13.43726 -539.47706" />
    <path d="M -753.58638 -428.23558 L -635.46504 -452.93066" />
    <path d="M -753.58638 -398.76564 L -753.58638 -428.23558 L -510.8433 -387.56814" />
    <path d="M 1519.82796 -461.81483 L 1688.06663 -433.62933" />
    <path d="M 1187.76463 -508.13527 L 1185.89629 -508.44828" />
    <path d="M 919.2949 -562.42386 L 1188.25766 -517.36376" />
    <path d="M 619.02837 -612.72838 L 887.99113 -567.66827" />
    <path d="M 346.92579 -658.3145 L 587.7246 -617.97279" />
    <path d="M 150.42541 -634.29327 L 164.60114 -637.25693" />
    <path d="M 150.42541 -634.29327 A 654.36626 122.46498 180 0 0 -109.06741 -639.77069 A 700 131.00536 180 0 0 -120.91998 -639.42065" />
    <path d="M -249.72252 -632.99666 A 700 131.00536 180 0 0 -496.99932 -603.54798" />
    <path d="M -545.98563 -593.53425 A 700 131.00536 180 0 0 -676.24827 -547.91198" />
    <path d="M -661.86324 -464.47189 L -647.6875 -467.43555" />
    <path d="M -661.86324 -464.47189 A 700 131.00536 180 0 0 -635.46504 -452.93066" />
    <path d="M -453.44669 -490.98438 L -235.31279 -454.43978" />
    <path d="M -182.5172 -445.59478 L 64.95374 -404.13526" />
    <path d="M 117.74933 -395.29027 L 365.22028 -353.83075" />
    <path d="M 418.01586 -344.98575 L 665.48681 -303.52623" />
    <path d="M 718.28239 -294.68124 L 887.69414 -266.2992" />
    <path d="M 17.36356 -589.41447 L -195.99945 -544.80767" />
    <path d="M -244.99429 -534.56455 L -453.44669 -490.98438" />
    <path d="M 419.31579 -202.26597 L 587.55446 -174.08047" />
    <path d="M -753.58638 -398.76564 L -501.93631 -356.60599" />
    <path d="M -481.4838 -353.17952 L -201.66978 -306.30147" />
    <path d="M -181.21727 -302.875 L 98.59675 -255.99696" />
    <path d="M 119.04926 -252.57049 L 398.86328 -205.69244" />
    <path d="M -445.18519 -491.18057 A 50 32.75962 279.5106 0 0 -453.44669 -490.98438" />
    <path d="M 31.62355 -587.02545 A 50 32.75962 279.5106 0 0 21.16169 -572.52657 L -194.29673 -527.48168" />
    <path d="M -243.35911 -517.22444 L -402.29874 -483.99568" />
    <path d="M -661.86324 -447.41171 L -661.86324 -464.47189" />
    <path d="M 150.42541 -634.29327 A 690.9233 452.68771 279.5106 0 0 212.08815 -971.74706 A 739.8449 138.46235 180 0 0 -791.02459 -841.80783 A 739.8449 138.46235 180 0 0 -709.35025 -779.10625" />
    <path d="M -596.5116 -372.45046 A 690.9233 452.68771 279.5106 0 0 -504.80296 -272.56714 A 690.9233 452.68771 279.5106 0 0 -470.92347 -249.30404" />
    <path d="M -705.90774 -710.58619 A 690.9233 452.68771 279.5106 0 0 -647.6875 -467.43555" />
    <path d="M 261.50635 -982.07869 A 765 501.2222 99.5106 0 1 203.06157 -635.22939" />
    <path d="M -758.7654 -768.55078 A 765 501.2222 99.5106 0 1 -758.76844 -768.77462" />
    <path d="M 212.08815 -971.74706 L 261.50635 -982.07869" />
    <path d="M 257.78096 -982.70281 L 261.50635 -982.07869" />
    <path d="M 214.97082 -973.54457 A 749.84697 140.33424 180 0 0 -801.02673 -841.80783 A 750.0000000000001 750.0000000000001 0 0 0 -794.98344 -760.97884" />
    <path d="M -801.02673 -841.80783 A 749.84697 140.33424 180 0 0 -718.57836 -778.37181" />
    <path d="M 214.41815 -973.63716 L 214.97082 -973.54457" />
    <path d="M 214.41815 -973.63716 L 257.78096 -982.70281" />
    <path d="M 214.41737 -973.58384 A 700 458.6347 279.5106 0 0 214.41815 -973.63716" />
    <path d="M 256.07949 357.74292 L 150.19688 379.87931 L 19.80819 60.28158 L -240.96919 16.59279 L -371.35788 292.50174 L 150.19688 379.87931" />
    <path d="M 125.6908 38.1452 L 19.80819 60.28158" />
    <path d="M 256.07949 357.74292 L 125.6908 38.1452 L -135.08658 -5.54359 L -240.96919 16.59279" />
    <path d="M -1511.84852 460.04622 L -1294.06593 496.53196" />
    <path d="M -1072.91582 533.58187 L -838.68156 572.82381" />
    <path d="M -604.52238 612.05317 L -385.66654 648.71872" />
    <path d="M -164.51643 685.76863 L 54.33942 722.43418" />
    <path d="M -1535.93595 374.91933 L -1535.93595 379.61137" />
    <path d="M 287.96342 680.48244 L 287.96342 715.64047" />
    <path d="M 284.4094 679.88702 L 287.96342 680.48244" />
    <path d="M 284.4094 679.88702 L 284.4094 679.89193 L 307.91034 674.9787" />
    <path d="M 276.8096 678.61872 L 284.4094 679.89193" />
    <path d="M 276.8096 678.6138 L 276.8096 678.61872" />
    <path d="M -14.51599 629.80719 L 276.8096 678.6138" />
    <path d="M -14.51599 629.80719 L -14.51599 629.8121" />
    <path d="M -23.45693 628.3142 L -14.51599 629.8121" />
    <path d="M -23.45693 628.30929 L -23.45693 628.3142" />
    <path d="M -314.78252 579.50268 L -23.45693 628.30929" />
    <path d="M -314.78252 579.50268 L -314.78252 579.50759" />
    <path d="M -323.72346 578.00969 L -314.78252 579.50759" />
    <path d="M -323.72346 578.00478 L -323.72346 578.00969" />
    <path d="M -615.04905 529.19816 L -323.72346 578.00478" />
    <path d="M -615.04905 529.19816 L -615.04905 529.20307" />
    <path d="M -623.98999 527.70517 L -615.04905 529.20307" />
    <path d="M -623.98999 527.70026 L -623.98999 527.70517" />
    <path d="M -915.31558 478.89365 L -623.98999 527.70026" />
    <path d="M -915.31558 478.89365 L -915.31558 478.89856" />
    <path d="M -924.25652 477.40066 L -915.31558 478.89856" />
    <path d="M -924.25652 477.39575 L -924.25652 477.40066" />
    <path d="M -1215.58211 428.58913 L -924.25652 477.39575" />
    <path d="M -1215.58211 428.58913 L -1215.58211 428.59404" />
    <path d="M -1224.52305 427.09614 L -1215.58211 428.59404" />
    <path d="M -1224.52305 427.09123 L -1224.52305 427.09614" />
    <path d="M -1515.84864 378.28462 L -1224.52305 427.09123" />
    <path d="M -1515.84864 378.28462 L -1515.84864 378.28953" />
    <path d="M -1524.78958 376.79163 L -1515.84864 378.28953" />
    <path d="M -1524.78958 376.78672 L -1524.78958 376.79163" />
    <path d="M -1535.93595 374.91933 L -1524.78958 376.78672" />
    <path d="M -592.06711 609.4492 L -592.06711 537.73902 L -635.81066 530.41054" />
    <path d="M 287.9448 715.62984 L 287.9448 685.16995 L 257.21032 680.02091" />
    <path d="M -152.06116 683.16467 L -152.06116 611.45449 L -182.79564 606.30545" />
    <path d="M -1060.46055 530.97791 L -1060.46055 459.26773 L -1091.19503 454.11869" />
    <path d="M -1505.19775 456.46981 L -1505.19775 384.75962 L -1535.93223 379.61059" />
    <path d="M -1508.40981 369.16457 L 315.48957 674.72767 L 287.96342 680.48244" />
    <path d="M 315.48957 731.3405 L 315.48957 674.72767" />
    <path d="M -1508.40981 369.16457 L -1535.93595 374.91933" />
    <path d="M -1501.28865 371.87349 L -1524.78958 376.78672" />
    <path d="M -1492.34771 373.37139 L -1501.28865 371.87349 L -1501.28865 371.8784 L -1492.34771 373.3763 L -1515.84864 378.28953" />
    <path d="M -1492.34771 373.37139 L -1515.84864 378.28462" />
    <path d="M -1201.02212 422.178 L -1224.52305 427.09123" />
    <path d="M -1192.08118 423.6759 L -1201.02212 422.178 L -1201.02212 422.18291 L -1192.08118 423.68081 L -1215.58211 428.59404" />
    <path d="M -1192.08118 423.6759 L -1215.58211 428.58913" />
    <path d="M -900.75558 472.48252 L -924.25652 477.39575" />
    <path d="M -891.81465 473.98042 L -900.75558 472.48252 L -900.75558 472.48743 L -891.81465 473.98533 L -915.31558 478.89856" />
    <path d="M -891.81465 473.98042 L -915.31558 478.89365" />
    <path d="M -600.48905 522.78703 L -623.98999 527.70026" />
    <path d="M -591.54811 524.28493 L -600.48905 522.78703 L -600.48905 522.79194 L -591.54811 524.28984 L -615.04905 529.20307" />
    <path d="M -591.54811 524.28493 L -615.04905 529.19816" />
    <path d="M -300.22252 573.09154 L -323.72346 578.00478" />
    <path d="M -291.28158 574.58945 L -300.22252 573.09154 L -300.22252 573.09646 L -291.28158 574.59436 L -314.78252 579.50759" />
    <path d="M -291.28158 574.58945 L -314.78252 579.50268" />
    <path d="M 0.04401 623.39606 L -23.45693 628.30929" />
    <path d="M 8.98495 624.89396 L 0.04401 623.39606 L 0.04401 623.40097 L 8.98495 624.89887 L -14.51599 629.8121" />
    <path d="M 8.98495 624.89396 L -14.51599 629.80719" />
    <path d="M 300.31054 673.70057 L 276.8096 678.6138" />
    <path d="M 307.91034 674.97379 L 300.31054 673.70057 L 300.31054 673.70549 L 307.91034 674.9787" />
    <path d="M 307.91034 674.97379 L 284.4094 679.88702" />
    <path d="M 300.31054 673.70549 L 276.8096 678.61872" />
    <path d="M 0.04401 623.40097 L -23.45693 628.3142" />
    <path d="M -300.22252 573.09646 L -323.72346 578.00969" />
    <path d="M -600.48905 522.79194 L -623.98999 527.70517" />
    <path d="M -900.75558 472.48743 L -924.25652 477.40066" />
    <path d="M -1201.02212 422.18291 L -1224.52305 427.09614" />
    <path d="M -1501.28865 371.8784 L -1524.78958 376.79163" />
    <path d="M -1155.37279 727.21688 L -592.06711 609.4492" />
    <path d="M -1389.545 687.99025 L -635.81066 530.41054" />
    <path d="M -1345.78842 695.316 L -592.06711 537.73902" />
    <path d="M -478.23178 917.06107 L -439.15224 908.8909" />
    <path d="M 535.50418 947.11138 L -439.15224 908.8909" />
    <path d="M 539.73395 943.33344 L 535.50418 947.11138 L 535.50418 875.4012 L 539.73395 871.62326 L 539.73395 943.33344 Z" />
    <path d="M 559.33097 942.13002 L 539.73395 943.33344" />
    <path d="M -118.55489 841.86511 L 217.09621 771.69211" />
    <path d="M 373.99114 861.17997 L 217.09621 771.69211" />
    <path d="M 203.74615 691.19841 L 257.21032 680.02091" />
    <path d="M 248.86526 693.34012 L 287.9448 685.16995" />
    <path d="M 559.33097 870.41984 L 248.86526 693.34012" />
    <path d="M 539.73395 871.62326 L 559.33097 870.41984 L 559.33097 942.13002" />
    <path d="M 535.50418 875.4012 L -439.15224 837.18072 L -439.15224 908.8909" />
    <path d="M -478.23178 845.35089 L -439.15224 837.18072" />
    <path d="M -496.51099 837.59789 L -455.50209 829.02435 L -455.10269 828.66762" />
    <path d="M -454.00219 828.71078 L -455.10269 828.66762" />
    <path d="M -454.00219 828.71078 L 202.24626 691.51199 L 201.89571 691.31205 L 203.74615 691.19841" />
    <path d="M -407.38319 830.53891 L 217.09621 699.98193 L 217.09621 771.69211" />
    <path d="M 508.99948 866.47423 L -407.38319 830.53891" />
    <path d="M 508.99948 866.47423 L 217.09621 699.98193" />
    <path d="M -715.36683 800.93234 L -152.06116 683.16467" />
    <path d="M -936.51694 763.88243 L -182.79564 606.30545" />
    <path d="M -905.78246 769.03147 L -152.06116 611.45449" />
    <path d="M -1449.70941 612.35634 L -1060.46055 530.97791" />
    <path d="M -1481.01733 535.61701 L -1091.19503 454.11869" />
    <path d="M -1476.66629 546.28191 L -1060.46055 459.26773" />
    <path d="M -2068.50342 574.23748 L -2000.47906 560.01595" />
    <path d="M -1512.67025 458.03205 L -1505.19775 456.46981" />
    <path d="M -2289.66657 537.1903 L -1956.80553 467.6006" />
    <path d="M -1557.47779 384.11502 L -1535.93223 379.61059" />
    <path d="M -2258.91906 542.33661 L -1962.87509 480.44408" />
    <path d="M -1539.62714 391.95761 L -1505.19775 384.75962" />
    <path d="M -2302.11253 535.10028 L -2290.96616 536.96766 L -2314.46709 541.88089 L -2305.52615 543.37879" />
    <path d="M -2290.96616 536.97257 L -2290.96616 536.96766" />
    <path d="M -2282.02522 538.47048 L -2290.96616 536.97257 L -2314.46709 541.88581" />
    <path d="M -2282.02522 538.46556 L -2011.69733 583.75437" />
    <path d="M -1421.00474 682.7148 L -1390.16656 687.88121 L -1413.6675 692.79444 L -1404.72656 694.29234" />
    <path d="M -1390.16656 687.88612 L -1390.16656 687.88121" />
    <path d="M -1381.22563 689.38402 L -1390.16656 687.88612 L -1413.6675 692.79935" />
    <path d="M -1381.22563 689.37911 L -1089.90003 738.18572 L -1113.40097 743.09895 L -1104.46003 744.59685" />
    <path d="M -1089.90003 738.19063 L -1089.90003 738.18572" />
    <path d="M -1080.95909 739.68853 L -1089.90003 738.19063 L -1113.40097 743.10386" />
    <path d="M -1080.95909 739.68362 L -789.6335 788.49024 L -813.13444 793.40347 L -804.1935 794.90137" />
    <path d="M -789.6335 788.49515 L -789.6335 788.49024" />
    <path d="M -780.69256 789.99305 L -789.6335 788.49515 L -813.13444 793.40838" />
    <path d="M -780.69256 789.98814 L -489.36697 838.79475 L -512.86791 843.70798 L -505.26811 844.9812" />
    <path d="M -489.36697 838.79966 L -489.36697 838.79475" />
    <path d="M -481.76717 840.07288 L -489.36697 838.79966 L -512.86791 843.71289" />
    <path d="M -481.76717 840.06797 L -478.21315 840.66338 L -505.73929 846.41814 L -505.73929 927.50959 L -478.21315 921.75483 L -478.21315 840.66338" />
    <path d="M 201.89571 691.58528 L 201.89571 691.31205" />
    <path d="M -2302.11253 535.10028 L -2329.63867 540.85504 L -2016.23682 593.36015" />
    <path d="M -2329.63867 540.85504 L -2329.63867 621.94649 L -505.73929 927.50959" />
    <path d="M -1416.46525 693.84161 L -505.73929 846.41814" />
    <path d="M -481.76717 840.06797 L -505.26811 844.9812" />
    <path d="M -780.69256 789.98814 L -804.1935 794.90137" />
    <path d="M -1080.95909 739.68362 L -1104.46003 744.59685" />
    <path d="M -1381.22563 689.37911 L -1404.72656 694.29234" />
    <path d="M -2282.02522 538.46556 L -2305.52615 543.37879" />
    <path d="M -919.45162 158.43993 L -813.56901 136.30355 L -552.79162 179.99234 L -422.40293 499.59007" />
    <path d="M -1049.84031 434.34888 L -919.45162 158.43993 L -658.67424 202.12872 L -528.28554 521.72645 L -1049.84031 434.34888 Z" />
    <path d="M -658.67424 202.12872 L -552.79162 179.99234" />
    <path d="M -528.28554 521.72645 L -422.40293 499.59007" />
    <path d="M -1411.36319 706.34735 L -1517.2458 728.48373 L -1647.63449 408.88601 L -1908.41187 365.19722 L -2038.80057 641.10617 L -1517.2458 728.48373" />
    <path d="M -1541.75188 386.74962 L -1647.63449 408.88601" />
    <path d="M -1411.36319 706.34735 L -1541.75188 386.74962 L -1802.52926 343.06084 L -1908.41187 365.19722" />
    <path d="M 967.32339 249.09089 L 967.32339 131.98431" />
    <path d="M 967.32339 73.51544 L 967.32339 62.84088" />
    <path d="M 933.48827 126.31582 L 933.48827 234.9236" />
    <path d="M 933.48827 261.60296 L 933.48827 343.37297" />
    <path d="M 665.23569 -305.14857 L 417.71864 -346.61581" />
    <path d="M 364.96916 -355.45308 L 117.45211 -396.92032" />
    <path d="M 64.70263 -405.7576 L -182.81442 -447.22484" />
    <path d="M -235.5639 -456.06211 L -445.18519 -491.18057" />
</svg>