<svg version="1.1" xmlns="http://www.w3.org/2000/svg" viewBox="-1640.1280982710216 -1572.2895784196032 2836.875182262944 3115.757115922395" fill="none" stroke="black" stroke-width="0.6%" vector-effect="non-scaling-stroke">
    <path d="M -1379.45749 22.44218 L -1379.45749 392.92787 L -1331.78668 428.86983" />
    <path d="M -102.60594 1355.62494 L -102.60594 983.40597" />
    <path d="M -801.51806 828.67202 L -102.60594 1355.62494 L 28.15328 1318.37918" />
    <path d="M -806.48712 466.29778 L -714.84956 803.98517" />
    <path d="M -989.76223 328.11538 L -806.48712 466.29778" />
    <path d="M -1410.60573 -1.0424 A 914.4 690.31165 127.01489 1 1 -309.62684 -1461.30091" />
    <path d="M -1421.6637 624.54192 L -1330.02614 425.03694 L -1146.75103 563.21934 L -1055.11347 900.90673 L -1421.6637 624.54192 Z" />
    <path d="M -1330.02614 425.03694 L -989.76223 328.11538" />
    <path d="M -1146.75103 563.21934 L -806.48712 466.29778" />
    <path d="M -1055.11347 900.90673 L -714.84956 803.98517" />
    <path d="M 283.73768 1245.57793 L 711.55906 1123.7163" />
    <path d="M 819.55776 1092.9537 L 936.07648 1059.76424 L 936.07648 687.54526 A 914.4 690.31165 307.01489 0 0 967.22471 -498.60383 A 914.4 690.31165 307.01489 1 0 -133.75418 961.65468 L -1410.60573 -1.0424" />
    <path d="M -133.75418 961.65468 A 914.4 690.31165 307.01489 0 0 -102.60594 983.40597" />
    <path d="M 25.60774 1229.07268 L 122.09565 1201.58884" />
    <path d="M 25.60774 1229.07268 L 25.60774 1317.68644 L 764.86056 1518.86589 L 767.81802 1540.79099 L 837.95989 1538.75906 L 851.58702 1542.46754 L 856.98469 1538.20794 L 856.98469 1449.59418 L 867.62321 1449.28599 L 867.62321 1537.89975" />
    <path d="M 711.37489 1033.73718 L 807.8628 1006.25334" />
    <path d="M 711.37489 1033.73718 L 711.37489 1122.35094 L 744.92653 1371.08535" />
    <path d="M 757.33509 1374.46221 L 122.09565 1201.58884" />
    <path d="M 711.37489 1033.73718 L 757.33509 1374.46221" />
    <path d="M 861.34847 1402.76829 L 807.8628 1006.25334" />
    <path d="M 902.2251 1413.89241 L 861.34847 1402.76829" />
    <path d="M 866.63728 1441.97677 L 902.2251 1413.89241 L 902.2251 1502.50617" />
    <path d="M 867.62321 1449.28599 L 866.63728 1441.97677" />
    <path d="M 851.58702 1453.85378 L 856.98469 1449.59418" />
    <path d="M 837.95989 1450.14531 L 851.58702 1453.85378 L 851.58702 1542.46754" />
    <path d="M 767.81802 1452.17724 L 837.95989 1450.14531 L 837.95989 1538.75906" />
    <path d="M 764.86056 1430.25213 L 767.81802 1452.17724 L 767.81802 1540.79099" />
    <path d="M 25.60774 1229.07268 L 764.86056 1430.25213" />
    <path d="M 764.86056 1518.86589 L 764.86056 1430.25213" />
    <path d="M 856.98469 1538.20794 L 867.62321 1537.89975" />
    <path d="M 867.62321 1529.81247 L 902.2251 1502.50617" />
    <path d="M 967.22471 -498.60383 L -309.62684 -1461.30091" />
</svg>