<svg version="1.1" xmlns="http://www.w3.org/2000/svg" viewBox="-1296.1333439631217 -1407.3463975637435 2273.961870572146 2994.3801456863293" fill="none" stroke="black" stroke-width="0.6%" vector-effect="non-scaling-stroke">
    <path d="M 516.1904 756.73026 L 624.85194 860.87737" />
    <path d="M 699.51182 932.43545 L 860.51012 1086.74496" />
    <path d="M 935.17 1158.30304 L 938.98683 1161.9613 L 976.82853 1155.09186 L 976.82853 1080.06618 L 938.98683 1086.93563 L 938.98683 1161.9613" />
    <path d="M 524.50858 689.67718 L 938.98683 1086.93563" />
    <path d="M 938.97686 1091.26583 L 922.5161 1075.48895" />
    <path d="M 938.97686 1157.61198 L 938.97686 1091.26583" />
    <path d="M 703.31868 865.39824 L 686.85792 849.62136" />
    <path d="M 703.31868 931.74439 L 703.31868 865.39824" />
    <path d="M 529.29144 651.12236 L 976.82853 1080.06618" />
    <path d="M -523.63823 885.82832 L -274.66503 840.63195" />
    <path d="M 193.19584 755.70067 L 348.84721 727.44511" />
    <path d="M -605.2655 807.59231 L -356.2923 762.39594" />
    <path d="M 111.56857 677.46466 L 267.21994 649.2091" />
    <path d="M -581.83736 830.04712 L -332.86415 784.85075" />
    <path d="M 134.99672 699.91947 L 290.64808 671.66391" />
    <path d="M -114.32786 1348.8195 L -60.60309 1339.06679" />
    <path d="M 740.08906 1586.03375 L -60.60309 1339.06679" />
    <path d="M 752.35186 1579.11641 L 740.08906 1586.03375 L 740.08906 1519.6876 L 752.35186 1512.77026 L 752.35186 1579.11641 Z" />
    <path d="M 772.84504 1580.08752 L 752.35186 1579.11641" />
    <path d="M 772.84504 1580.08752 L 885.25209 1167.36469 L 885.25209 1101.01854 L 938.97686 1091.26583" />
    <path d="M 885.25209 1167.36469 L 938.97686 1157.61198" />
    <path d="M 118.47935 1306.55776 L 822.5679 1178.74382" />
    <path d="M 849.01599 1088.8315 L 922.5161 1075.48895" />
    <path d="M 772.84504 1513.74137 L 885.25209 1101.01854" />
    <path d="M 752.35186 1512.77026 L 772.84504 1513.74137 L 772.84504 1580.08752" />
    <path d="M 740.08906 1519.6876 L -60.60309 1272.72064 L -60.60309 1339.06679" />
    <path d="M -114.32786 1282.47336 L -60.60309 1272.72064" />
    <path d="M -126.98175 1266.00541 L -57.28851 1253.35392 L -56.1306 1252.70075" />
    <path d="M -55.22652 1252.97961 L -56.1306 1252.70075" />
    <path d="M -55.22652 1252.97961 L 846.95401 1089.20581 L 847.08093 1088.7398 L 849.01599 1088.8315" />
    <path d="M -16.92844 1264.79234 L 841.57744 1108.94685" />
    <path d="M 735.8911 1496.99338 L -16.92844 1264.79234" />
    <path d="M 735.8911 1496.99338 L 841.57744 1108.94685" />
    <path d="M -287.98005 1111.6959 L -148.02569 1086.28984" />
    <path d="M 296.21267 1005.64678 L 703.31868 931.74439" />
    <path d="M -362.63994 1040.13782 L -220.80614 1014.39058" />
    <path d="M 296.21267 920.53561 L 686.85792 849.62136" />
    <path d="M -346.17918 1055.9147 L -206.22482 1030.50864" />
    <path d="M 296.21267 939.30063 L 703.31868 865.39824" />
    <path d="M -706.12561 632.97652 L -525.52696 600.19226" />
    <path d="M -118.3809 526.2826 L -6.0623 505.89328" />
    <path d="M 46.80488 496.29625 L 97.98527 487.00542" />
    <path d="M -722.86393 550.90388 L -600.18684 528.63417" />
    <path d="M -119.35124 441.34758 L 23.32539 415.44734" />
    <path d="M -719.17352 568.99897 L -583.72609 544.41106" />
    <path d="M -118.3809 459.93645 L 39.78615 431.22422" />
    <path d="M -851.39839 387.8125 L -763.7191 371.89599" />
    <path d="M -275.16467 283.20818 L -140.20687 258.70915" />
    <path d="M -1087.35219 345.53428 L -838.37898 300.3379" />
    <path d="M -349.82455 211.6501 L -214.86675 187.15107" />
    <path d="M -1070.89143 361.31116 L -821.91823 316.11479" />
    <path d="M -333.3638 227.42698 L -198.40599 202.92795" />
    <path d="M -114.31788 1353.16883 L -114.31788 1278.14315 L -152.15957 1285.01259 L -152.15957 1360.03827 L -114.31788 1353.16883 Z" />
    <path d="M -1091.16104 341.88366 L -1022.75338 407.44928" />
    <path d="M -686.36655 729.86067 L -114.31788 1278.14315" />
    <path d="M -1129.00274 423.77878 L -1052.70774 496.90405" />
    <path d="M -686.43958 847.95533 L -152.15957 1360.03827" />
    <path d="M -1091.16104 341.88366 L -1129.00274 348.7531 L -1033.68897 440.10699" />
    <path d="M -1129.00274 348.7531 L -1129.00274 423.77878" />
    <path d="M -675.43096 783.4809 L -152.15957 1285.01259" />
    <path d="M 550.87083 623.34505 L 696.43343 596.92092" />
    <path d="M 539.59566 568.05976 L 550.87083 623.34505 L 534.66427 607.81181" />
    <path d="M 643.90224 339.34587 L 696.43343 596.92092" />
    <path d="M -663.14417 843.72649 L -808.70676 870.15062 L -878.54028 527.73747 L -1018.20731 393.87301 L -1088.04082 602.4217 L -808.70676 870.15062" />
    <path d="M -732.97768 501.31333 L -878.54028 527.73747" />
    <path d="M -663.14417 843.72649 L -732.97768 501.31333 L -872.64471 367.44887 L -1018.20731 393.87301" />
    <path d="M -562.92845 -1370.09271 A 765 637.51493 133.78474 0 1 -33.58604 -1227.10904 A 765 637.51493 133.78474 0 1 49.80717 -447.60905" />
    <path d="M -240.66413 -115.77098 A 765 637.51493 133.78474 0 1 -551.56094 18.295" />
    <path d="M -1173.81445 -222.21455 A 765 637.51493 133.78474 0 1 -562.92845 -1370.09271" />
    <path d="M -564.9237 -1372.00506 A 765 637.51493 313.78474 0 0 -1174.50897 -222.08848" />
    <path d="M -34.5849 -1228.06392 A 765 637.51493 313.78474 0 0 -35.58128 -1229.02139 L -33.58604 -1227.10904" />
    <path d="M -35.58128 -1229.02139 A 765 637.51493 313.78474 0 0 -564.9237 -1372.00506" />
    <path d="M -14.32378 -460.35663 L 5.16437 -463.89434" />
    <path d="M -1111.53313 -261.17905 A 690.9233 575.78289 133.78474 0 1 -1193.34833 -498.25378 A 690.9233 575.78289 133.78474 0 1 -413.25449 -1312.16204 A 690.9233 575.78289 133.78474 0 1 -14.32378 -460.35663 A 654.36626 272.94935 180 0 0 -237.96979 -516.59144 A 700 291.98411 180 0 0 -1057.77264 -367.77175 A 654.36626 272.94935 180 0 0 -1111.53313 -261.17905 Z" />
    <path d="M -1131.02128 -257.64135 L -1111.53313 -261.17905" />
    <path d="M -612.20732 -39.83178 A 690.9233 575.78289 313.78474 0 0 -240.66413 -192.68898" />
    <path d="M -194.81764 -399.93289 L 523.46993 288.5129" />
    <path d="M 936.08832 213.60984 L 523.46993 288.5129" />
    <path d="M 217.80075 -474.83594 L 936.08832 213.60984" />
    <path d="M 217.80075 -474.83594 L 55.41291 -445.3575 A 700 291.98411 180 0 0 5.16437 -463.89434" />
    <path d="M -1131.02128 -257.64135 A 700 291.98411 180 0 0 -1132.9184 -236.15915 A 700 291.98411 180 0 0 -1132.7455 -229.66984" />
    <path d="M -1295.13334 -200.1914 L -1132.7455 -229.66984" />
    <path d="M -1295.13334 -200.1914 L -576.84577 488.25438 L -164.22738 413.35132 A 50 41.66764 133.78474 0 1 -129.62984 422.69666 L -847.91741 -265.74912 A 50 41.66764 313.78474 0 0 -882.51495 -275.09446 L -164.22738 413.35132" />
    <path d="M -194.81764 -399.93289 L -882.51495 -275.09446" />
    <path d="M -230.04493 -377.17871 L -847.27402 -265.13246" />
    <path d="M 477.62345 342.27803 A 50 41.66764 133.78474 0 1 523.46993 288.5129" />
    <path d="M -240.66413 -346.16776 L 477.62345 342.27803 L 477.62345 850.87124 L 505.13134 845.8777 L 564.65532 366.05311 L 936.08832 240.87538 L 936.08832 213.60984" />
    <path d="M -194.81764 -399.93289 A 50 41.66764 313.78474 0 0 -230.04493 -377.17871 A 50 41.66764 313.78474 0 0 -240.66413 -346.16776 L -240.66413 162.42546 L 477.62345 850.87124" />
    <path d="M -1295.13334 -172.92586 L -1295.13334 -200.1914" />
    <path d="M -864.17636 275.6123 L -869.44166 235.08014" />
    <path d="M -1295.13334 -172.92586 L -576.84577 515.51992 L -576.84577 488.25438" />
    <path d="M -129.62984 422.69666 A 50 41.66764 133.78474 0 1 -118.3809 450.47133 L -118.3809 686.16" />
    <path d="M -180.39615 698.42153 L -205.41277 505.84439 L -576.84577 515.51992" />
    <path d="M -847.28766 -265.12998 A 50 41.66764 313.78474 0 0 -847.91741 -265.74912" />
    <path d="M -864.17636 275.6123 L -223.02277 890.12868" />
    <path d="M -554.94748 -1394.25311 A 800 666.68228 133.78474 0 1 97.34007 -452.96858" />
    <path d="M -240.66413 -67.25721 A 800 666.68228 133.78474 0 1 -516.47404 51.92419" />
    <path d="M -1207.23503 -216.14768 A 800 666.68228 133.78474 0 1 -554.94748 -1394.25311" />
    <path d="M -554.94748 -1385.1646 A 790 658.34875 133.78474 0 1 87.01121 -451.09358" />
    <path d="M -240.66413 -77.33004 A 790 658.34875 133.78474 0 1 -524.13859 44.57807" />
    <path d="M -1196.90617 -218.02269 A 790 658.34875 133.78474 0 1 -554.94748 -1385.1646" />
    <path d="M 228.91019 789.93123 L 82.57905 649.67953 L 53.9377 654.87882" />
    <path d="M 228.91019 831.73839 L 228.91019 789.93123" />
    <path d="M 296.21267 894.99041 L 228.91019 830.48405" />
    <path d="M 51.66751 939.38295 L 296.21267 894.99041" />
    <path d="M -14.53466 875.9312 L 51.66751 939.38295" />
    <path d="M -14.53466 875.9312 L 228.91019 831.73839" />
    <path d="M -108.79504 1123.89063 L -14.53466 1106.77944 L 51.66751 1170.23119 L 51.66751 939.38295" />
    <path d="M -214.58284 1022.49786 L -108.79504 1123.89063 L -108.79504 851.23522 L 228.91019 789.93123" />
    <path d="M -223.02277 1005.58642 A 101.6 42.37941 180 0 0 -214.58284 1022.49786 L -214.58284 749.84246 L -108.79504 851.23522" />
    <path d="M 51.66751 1170.23119 L 296.21267 1125.83865 L 296.21267 894.99041" />
    <path d="M -6.0623 665.77069 L -161.96612 694.07207 A 101.6 42.37941 180 0 0 -223.02277 732.93101 L -223.02277 1005.58642" />
    <path d="M -223.02277 732.93101 A 101.6 42.37941 180 0 0 -214.58284 749.84246" />
    <path d="M -3.57019 736.60263 A 30 12.5136 360 0 1 -6.0623 731.60909" />
    <path d="M 53.9377 731.60909 A 30 12.5136 360 0 1 -3.57019 736.60263" />
    <path d="M -14.53466 875.9312 L -14.53466 1106.77944" />
    <path d="M 57.16909 943.83735 L 290.7111 901.44222" />
    <path d="M 57.16909 943.83735 L 57.16909 1163.77938 L 57.80757 1164.39133 L 291.34957 1121.9962 L 291.34957 902.05417 L 290.7111 901.44222" />
    <path d="M 230.82625 1169.08507 A 12.5 5.214 180 0 0 255.82625 1169.08507 L 255.82625 1133.17004" />
    <path d="M 47.4403 1202.37532 A 12.5 5.214 180 0 0 72.4403 1202.37532 L 72.4403 1166.46029" />
    <path d="M -3.57019 509.38979 A 30 12.5136 360 0 1 -6.0623 504.39625 L -6.0623 731.60909" />
    <path d="M -6.0623 504.39625 A 30 12.5136 360 1 1 53.9377 504.39625 L 53.9377 731.60909" />
    <path d="M 53.9377 504.39625 A 30 12.5136 360 0 1 -3.57019 509.38979" />
    <path d="M 57.80757 944.4493 L 291.34957 902.05417" />
    <path d="M 57.16909 943.83735 L 57.80757 944.4493" />
    <path d="M 57.80757 1164.39133 L 57.80757 944.4493" />
    <path d="M 105.80884 1090.24031 L 105.80884 1144.77139 L 107.20551 1146.11004 L 244.74497 1121.14235 L 244.74497 1066.61127 L 107.20551 1091.57895 L 107.20551 1146.11004" />
    <path d="M 243.3483 1065.27263 L 105.80884 1090.24031 L 107.20551 1091.57895" />
    <path d="M 243.3483 1065.27263 L 244.74497 1066.61127" />
    <path d="M -1132.9184 -229.63846 L -1132.9184 -236.15915" />
    <path d="M 230.82625 1169.08507 L 230.82625 1137.70832" />
    <path d="M 47.4403 1202.37532 L 47.4403 1166.1796" />
</svg>