<svg version="1.1" xmlns="http://www.w3.org/2000/svg" viewBox="-2487.6428223963426 -967.2933833933347 4750.036168581961 2629.257180345476" fill="none" stroke="black" stroke-width="0.6%" vector-effect="non-scaling-stroke">
    <path d="M 1556.03179 594.99113 L 1707.34669 638.44164" />
    <path d="M 1995.61246 710.43895 L 2006.50862 706.36017 L 2006.50862 628.37294 L 1979.31726 638.55154 L 1979.31726 694.73342" />
    <path d="M 1975.72897 637.52115 L 1979.31726 638.55154" />
    <path d="M 1975.72897 637.52115 L 1975.72897 637.52588" />
    <path d="M 1673.92186 550.85638 L 1825.2439 594.30893" />
    <path d="M 1673.92186 550.85638 L 1673.92186 550.8611 L 1528.11899 605.43979" />
    <path d="M 1528.11899 508.98866 L 1579.21038 523.6597" />
    <path d="M 1979.29845 694.7153 L 1979.29845 643.05721 L 1968.9165 640.076" />
    <path d="M 1535.05072 540.19008 L 1535.05072 515.4902 L 1528.11899 513.49974" />
    <path d="M 1528.11899 491.00198 L 1606.40175 513.4811" />
    <path d="M 1697.13698 539.53598 L 1852.43527 584.13033" />
    <path d="M 1998.94409 626.20076 L 2006.50862 628.37294" />
    <path d="M 1697.13698 542.16621 L 1673.92186 550.85638" />
    <path d="M 1998.94409 628.83099 L 1975.72897 637.52115" />
    <path d="M 1528.11899 -139.64654 L 1528.11899 639.7534" />
    <path d="M 1528.50864 648.48797 L 1528.11899 639.7534" />
    <path d="M 1577.53388 692.11036 A 75 46.68359 106.02157 0 1 1556.83394 693.34265 A 75 46.68359 106.02157 0 1 1528.50864 648.48797" />
    <path d="M 1913.55515 566.32681 L 1577.53388 692.11036" />
    <path d="M 1962.87254 481.46019 A 75 46.68359 106.02157 0 1 1913.55515 566.32681" />
    <path d="M 1962.97005 476.97469 L 1962.87254 481.46019" />
    <path d="M 1962.97005 476.97469 L 1962.97005 5.20892" />
    <path d="M 2073.32583 -343.73495 A 500 311.22395 106.02157 0 1 1962.97005 5.20892" />
    <path d="M 2073.32583 -343.73495 L 2199.76621 -391.06564 L 2192.09315 -393.26899 L 2065.65277 -345.9383 A 500 311.22395 106.02157 0 1 1955.29698 3.00558 L 1962.97005 5.20892" />
    <path d="M 1998.94409 327.99066 A 914.4 569.16636 286.02157 0 0 2199.76621 -391.06564" />
    <path d="M 1998.94409 327.99066 L 1998.94409 628.83099" />
    <path d="M 1218.87071 920.84221 L 1975.72897 637.52588" />
    <path d="M 1218.87071 920.83749 L 1195.65559 929.52765 L 1195.65559 628.68732" />
    <path d="M 994.83347 59.97934 A 914.4 569.16636 286.02157 0 0 1195.65559 628.68732" />
    <path d="M 1528.11899 -139.64654 L 994.83347 59.97934 L 509.44313 -79.40188" />
    <path d="M 1245.89407 574.78151 L 1245.89407 814.74222 L 1318.63771 835.63076 L 1494.35706 769.85337 L 1494.35706 529.89266 L 1421.61343 509.00412" />
    <path d="M 1245.89407 574.78151 L 1421.61343 509.00412" />
    <path d="M 1187.98253 927.32431 L 1187.98253 738.38359 L 893.84848 653.92216" />
    <path d="M 1569.86082 689.90701 A 75 46.68359 106.02157 0 1 1553.07321 691.977" />
    <path d="M 1905.88209 564.12347 L 1569.86082 689.90701 L 1577.53388 692.11036" />
    <path d="M 1955.19947 479.25684 A 75 46.68359 106.02157 0 1 1905.88209 564.12347 L 1913.55515 566.32681" />
    <path d="M 1955.29698 474.77135 L 1955.19947 479.25684 L 1962.87254 481.46019" />
    <path d="M 1955.29698 451.15317 L 1955.29698 474.77135 L 1962.97005 476.97469" />
    <path d="M 893.84848 842.86287 L 893.84848 653.92216" />
    <path d="M 933.3804 665.27386 L 933.3804 771.3859 L 974.86682 755.8562" />
    <path d="M 1528.11899 548.75616 L 1657.60506 500.28537 L 1657.60506 368.02356" />
    <path d="M 1697.13698 379.37526 L 1697.13698 542.16621" />
    <path d="M 1055.72086 782.27357 L 917.0636 834.17743" />
    <path d="M 917.0636 834.17271 L 893.84848 842.86287" />
    <path d="M 884.82135 840.27071 L 884.82135 651.32999 L 590.6873 566.86856" />
    <path d="M 933.3804 765.41459 L 969.64009 751.84142" />
    <path d="M 1528.11899 542.78485 L 1648.57793 497.6932 L 1648.57793 365.43139 L 1528.11899 330.84127" />
    <path d="M 590.6873 755.80927 L 590.6873 566.86856" />
    <path d="M 630.21922 578.22026 L 630.21922 684.3323 L 758.43439 636.33724 L 749.40726 633.74508 L 630.21922 599.51989" />
    <path d="M 948.06088 565.35396 L 963.89662 559.42614" />
    <path d="M 963.89662 616.10977 L 948.06088 622.0376" />
    <path d="M 844.12588 660.9438 L 613.90242 747.12383" />
    <path d="M 613.90242 747.11911 L 590.6873 755.80927" />
    <path d="M 581.66017 753.2171 L 581.66017 564.27639 L 513.85988 544.80734" />
    <path d="M 630.21922 678.36099 L 749.40726 633.74508" />
    <path d="M 948.06088 559.38265 L 963.89662 553.45483" />
    <path d="M 287.52612 668.75567 L 287.52612 479.81495" />
    <path d="M 327.05804 491.16666 L 327.05804 586.69296" />
    <path d="M 988.99306 406.17881 L 948.06088 421.50104" />
    <path d="M 540.9647 573.8902 L 502.77084 588.18739" />
    <path d="M 308.1339 661.04152 L 287.52612 668.75567" />
    <path d="M 278.49899 666.1635 L 278.49899 477.22279 L 212.05277 458.14257" />
    <path d="M 237.80352 486.8366 L 204.22749 499.40518" />
    <path d="M -621.95742 358.00387 L -621.95742 218.65415" />
    <path d="M -630.98455 387.52924 L -630.98455 216.06198 L -638.65761 213.85864" />
    <path d="M 471.52338 688.70451 L 581.66017 647.47677" />
    <path d="M 630.21922 629.29956 L 675.23864 612.44735" />
    <path d="M 496.55075 610.37088 L 570.98066 582.50937" />
    <path d="M 948.06088 441.35614 L 1019.00902 414.79798" />
    <path d="M 1222.44019 995.33863 L 1261.04444 980.88782" />
    <path d="M 2237.85634 1044.3778 L 1261.04444 980.88782" />
    <path d="M 2241.86715 1037.74483 L 2237.85634 1044.3778 L 2237.85634 975.41271 L 2241.86715 968.77974 L 2261.39335 966.60206 L 1940.6942 657.50802 L 1979.29845 643.05721" />
    <path d="M 2261.39335 1035.56714 L 2241.86715 1037.74483" />
    <path d="M 1449.40525 910.37832 L 1909.31153 738.22065" />
    <path d="M 2134.10757 954.88201 L 1909.31153 738.22065" />
    <path d="M 2237.85634 975.41271 L 1261.04444 911.92274 L 1261.04444 980.88782" />
    <path d="M 1222.44019 926.37354 L 1261.04444 911.92274" />
    <path d="M 1292.42711 900.17519 L 1909.31153 669.25556 L 1909.31153 738.22065" />
    <path d="M 2210.83639 959.86917 L 1292.42711 900.17519" />
    <path d="M 2210.83639 959.86917 L 1909.31153 669.25556" />
    <path d="M 753.98131 787.34316 L 884.82135 738.36553" />
    <path d="M 933.3804 720.18833 L 963.89662 708.76512" />
    <path d="M 785.01207 796.25373 L 884.82135 758.89192" />
    <path d="M 933.3804 740.71471 L 963.89662 729.29151" />
    <path d="M 1528.11899 518.08497 L 1535.05072 515.4902" />
    <path d="M 1528.11899 293.35477 L 1648.57793 327.9449" />
    <path d="M 1697.13698 241.32589 L 1697.13698 341.88877 L 1955.29698 416.02016" />
    <path d="M 1482.98333 -152.60737 L 1528.11899 -139.64654" />
    <path d="M 1955.29698 3.00558 L 1955.29698 203.66246" />
    <path d="M 1917.83439 192.90496 L 1955.29698 203.66246" />
    <path d="M 1917.83439 208.93752 L 1917.83439 192.90496" />
    <path d="M 1917.83439 208.93752 L 1955.29698 219.69501 L 1955.29698 439.81644" />
    <path d="M 1910.91358 427.07162 L 1955.29698 439.81644" />
    <path d="M 1910.91358 438.40835 L 1910.91358 427.07162" />
    <path d="M 1910.91358 438.40835 L 1955.29698 451.15317" />
    <path d="M 2073.32583 -343.73495 L 2065.65277 -345.9383" />
    <path d="M 382.15319 -912.99843 L 373.12606 -915.5906 L 291.72649 -885.12013" />
    <path d="M 382.15319 -912.99843 A 914.4 569.16636 106.02157 0 1 280.58634 -394.97387" />
    <path d="M 1897.9591 -477.73042 L 1888.93197 -480.32259 L 1849.40005 -465.52452 A 854.4 531.81949 106.02157 0 1 1690.07176 156.80345 L 1528.11899 110.29825" />
    <path d="M 1897.9591 -477.73042 A 914.4 569.16636 106.02157 0 1 1737.00879 170.28155" />
    <path d="M 1955.29698 266.29907 L 1721.50079 199.16382 L 1693.5475 169.54625 A 854.4 531.81949 106.02157 0 1 1657.60506 230.25458" />
    <path d="M 1721.50079 199.16382 A 914.4 569.16636 106.02157 0 1 1697.13698 241.32589" />
    <path d="M 1674.03197 185.53302 L 1528.11899 143.63369" />
    <path d="M 264.0265 646.65123 L 278.49899 650.80705" />
    <path d="M 465.84294 704.6034 L 581.66017 737.86065" />
    <path d="M 613.90242 747.11911 L 884.82135 824.91426" />
    <path d="M 917.0636 834.17271 L 1187.98253 911.96786" />
    <path d="M 1218.87071 920.83749 L 1222.459 921.86787 L 1195.26763 932.04647 L 1195.26763 1010.0337 L 1222.459 999.8551 L 1222.459 921.86787" />
    <path d="M 272.29549 667.01238 L 308.1339 677.30348" />
    <path d="M 459.81782 720.85995 L 1195.26763 932.04647" />
    <path d="M 1187.98253 927.32431 L 1195.65559 929.52765" />
    <path d="M 884.82135 840.27071 L 893.84848 842.86287" />
    <path d="M 581.66017 753.2171 L 590.6873 755.80927" />
    <path d="M 278.49899 666.1635 L 287.52612 668.75567" />
    <path d="M 1187.98253 626.48398 L 1195.65559 628.68732" />
    <path d="M 1187.98253 727.04687 L 1187.98253 626.48398 A 914.4 569.16636 106.02157 0 1 1169.24607 608.41941 L 875.11202 523.95797" />
    <path d="M 1187.98253 727.04687 L 893.84848 642.58543 L 893.84848 542.02255 A 914.4 569.16636 106.02157 0 1 875.11202 523.95797" />
    <path d="M 884.82135 539.43038 L 893.84848 542.02255" />
    <path d="M 884.82135 639.99326 L 884.82135 539.43038 A 914.4 569.16636 106.02157 0 1 866.08489 521.36581 L 571.95084 436.90437" />
    <path d="M 884.82135 639.99326 L 590.6873 555.53183 L 590.6873 454.96894 A 914.4 569.16636 106.02157 0 1 571.95084 436.90437" />
    <path d="M 581.66017 452.37678 L 590.6873 454.96894" />
    <path d="M 581.66017 552.93966 L 581.66017 452.37678 A 914.4 569.16636 106.02157 0 1 562.9237 434.3122 L 536.97396 426.86066" />
    <path d="M 581.66017 552.93966 L 516.36018 534.18858" />
    <path d="M 369.96846 492.15178 L 287.52612 468.47823 L 287.52612 367.91534 A 914.4 569.16636 106.02157 0 1 268.78966 349.85077" />
    <path d="M 278.49899 365.32318 L 287.52612 367.91534" />
    <path d="M 278.49899 465.88606 L 278.49899 365.32318 A 914.4 569.16636 106.02157 0 1 259.76252 347.2586 L 235.16685 340.19588" />
    <path d="M 278.49899 465.88606 L 214.55307 447.52381" />
    <path d="M -15.63506 318.18904 L -15.63506 280.86174 A 914.4 569.16636 106.02157 0 1 -34.37153 262.79717" />
    <path d="M -24.66219 278.26957 L -15.63506 280.86174" />
    <path d="M -24.66219 315.59687 L -24.66219 278.26957 A 914.4 569.16636 106.02157 0 1 -43.39866 260.205 L -67.99433 253.14228" />
    <path d="M -581.60855 218.90372 L -621.95742 207.31742 L -621.95742 106.75454 A 914.4 569.16636 106.02157 0 1 -640.69389 88.68996" />
    <path d="M -630.98455 104.16237 L -621.95742 106.75454" />
    <path d="M -630.98455 204.72526 L -630.98455 104.16237 A 914.4 569.16636 106.02157 0 1 -649.72102 86.0978 L -657.39408 83.89446" />
    <path d="M -630.98455 204.72526 L -638.65761 202.52191 L -630.98455 199.64964" />
    <path d="M -638.65761 202.52191 L -638.65761 213.85864" />
    <path d="M -585.12303 229.23125 L -621.95742 218.65415" />
    <path d="M 366.05617 502.36508 L 287.52612 479.81495" />
    <path d="M 308.1339 -137.2084 L 207.63602 -166.06666" />
    <path d="M 144.14927 -184.29706 L -4.90058 -227.09715" />
    <path d="M -250.2002 -297.53564 L -398.68634 -340.17386" />
    <path d="M -462.17309 -358.40426 L -489.87463 -366.35884" />
    <path d="M -553.36138 -384.58924 L -701.84752 -427.22746" />
    <path d="M -765.33427 -445.45786 L -793.03581 -453.41244" />
    <path d="M -655.34836 80.24062 A 914.4 569.16636 106.02157 0 1 -671.80104 61.85992" />
    <path d="M -726.61254 -16.22588 A 914.4 569.16636 106.02157 0 1 -741.40226 -43.24144" />
    <path d="M -772.87358 -113.97282 A 914.4 569.16636 106.02157 0 1 -779.02588 -130.71096" />
    <path d="M -792.40062 -172.00373 A 914.4 569.16636 106.02157 0 1 -831.10978 -423.26812" />
    <path d="M -655.34836 80.24062 L -663.02142 78.03728 A 914.4 569.16636 286.02157 0 0 -657.39408 83.89446" />
    <path d="M 401.17276 387.86496 L 268.78966 349.85077" />
    <path d="M -542.13814 116.99053 L -640.69389 88.68996" />
    <path d="M 189.42845 327.06197 L -34.37153 262.79717" />
    <path d="M -113.73273 240.00837 L -119.04409 238.4832" />
    <path d="M 1163.61872 602.56223 L 869.48467 518.10079 L 897.43796 467.5556 A 854.4 531.81949 106.02157 0 1 733.17792 -3.85339" />
    <path d="M 1163.61872 602.56223 A 914.4 569.16636 106.02157 0 1 987.21229 69.09331 L 693.07824 -15.36813" />
    <path d="M 869.48467 518.10079 A 914.4 569.16636 106.02157 0 1 693.07824 -15.36813" />
    <path d="M 860.45754 515.50863 L 566.32349 431.04719 L 586.28227 394.95769" />
    <path d="M 566.32349 431.04719 A 914.4 569.16636 106.02157 0 1 540.62018 401.44221" />
    <path d="M 557.29636 428.45503 A 914.4 569.16636 106.02157 0 1 539.63496 408.64578" />
    <path d="M 557.29636 428.45503 L 537.58884 422.79595" />
    <path d="M 402.06467 383.8798 L 263.16231 343.99359 L 283.12109 307.90408" />
    <path d="M 263.16231 343.99359 A 914.4 569.16636 106.02157 0 1 238.66355 315.88882" />
    <path d="M 254.13518 341.40142 A 914.4 569.16636 106.02157 0 1 237.6825 323.02072" />
    <path d="M 254.13518 341.40142 L 235.78173 336.13118" />
    <path d="M 190.00576 322.98648 L -39.99887 256.93999 L -20.04009 220.85048" />
    <path d="M -39.99887 256.93999 A 914.4 569.16636 106.02157 0 1 -64.49763 228.83522" />
    <path d="M -49.026 254.34782 A 914.4 569.16636 106.02157 0 1 -65.47868 235.96712" />
    <path d="M -49.026 254.34782 L -67.37945 249.07758" />
    <path d="M -113.15542 235.93287 L -119.04409 234.24193" />
    <path d="M -540.50278 113.21886 L -646.32123 82.83279 L -626.36245 46.74328" />
    <path d="M -646.32123 82.83279 A 914.4 569.16636 106.02157 0 1 -670.81999 54.72802" />
    <path d="M -720.40839 -18.54829 A 914.4 569.16636 106.02157 0 1 -732.37513 -40.64927" />
    <path d="M -767.93999 -122.38149 A 914.4 569.16636 106.02157 0 1 -769.99875 -128.1188" />
    <path d="M -783.37349 -169.41157 A 914.4 569.16636 106.02157 0 1 -822.37757 -430.55253" />
    <path d="M -563.11189 -376.08672 L -698.09358 -414.8471" />
    <path d="M -760.46208 -432.75639 L -803.90458 -445.23103" />
    <path d="M -469.71239 -26.91921 A 914.4 569.16636 106.02157 0 1 -475.8647 -43.65736" />
    <path d="M -489.23944 -84.95013 A 914.4 569.16636 106.02157 0 1 -527.9486 -336.21452" />
    <path d="M -464.77881 -35.32789 A 914.4 569.16636 106.02157 0 1 -466.83757 -41.0652" />
    <path d="M -480.21231 -82.35796 A 914.4 569.16636 106.02157 0 1 -519.21639 -343.49893" />
    <path d="M -259.95071 -289.03312 L -394.9324 -327.7935" />
    <path d="M -457.3009 -345.70279 L -500.7434 -358.17743" />
    <path d="M 77.72875 -192.0675 L -21.987 -220.70116" />
    <path d="M 171.48077 224.41771 A 914.4 569.16636 106.02157 0 1 130.45766 130.44984" />
    <path d="M 117.08292 89.15707 A 914.4 569.16636 106.02157 0 1 77.72875 -192.0675" />
    <path d="M 180.50791 227.00988 L 171.48077 224.41771" />
    <path d="M 180.50791 227.00988 A 914.4 569.16636 106.02157 0 1 139.48479 133.04201" />
    <path d="M 126.11005 91.74924 A 914.4 569.16636 106.02157 0 1 86.75588 -189.47533" />
    <path d="M 308.1339 -125.906 L 211.38996 -153.6863" />
    <path d="M 149.02147 -171.59559 L 86.75588 -189.47533" />
    <path d="M 417.83681 167.88505 A 914.4 569.16636 106.02157 0 1 391.3604 40.477" />
    <path d="M 684.05111 -17.96029 L 513.19707 -67.02152" />
    <path d="M 860.45754 515.50863 A 914.4 569.16636 106.02157 0 1 684.05111 -17.96029" />
    <path d="M -693.83378 -491.41234 L -721.32809 -499.30741" />
    <path d="M -720.88312 -481.28691 L -693.83378 -491.41234" />
    <path d="M 989.22973 32.22045 L 499.82233 -108.31429" />
    <path d="M 308.1339 -163.35817 L 198.01522 -194.97906" />
    <path d="M 131.55719 -214.06268 L 34.63133 -241.89522" />
    <path d="M -226.70544 -316.93882 L -408.30714 -369.08627" />
    <path d="M -529.86662 -403.99242 L -711.46832 -456.13987" />
    <path d="M 989.22973 32.22045 L 1482.98333 -152.60737" />
    <path d="M 1245.89407 574.78151 L 1318.63771 595.67005 L 1494.35706 529.89266" />
    <path d="M 1318.63771 835.63076 L 1318.63771 595.67005" />
    <path d="M 963.89662 740.80044 A 101.6 33.31032 180 0 0 998.55591 765.85849 L 1187.98253 820.25289" />
    <path d="M 1907.35571 439.74018 L 1910.91358 438.40835" />
    <path d="M 1907.35571 439.74018 L 1657.60506 368.02356" />
    <path d="M 23.89685 279.5291 L 23.89685 329.54074" />
    <path d="M 166.99124 407.71652 L 174.85816 409.97553" />
    <path d="M 220.02056 422.94405 L 278.49899 439.73629" />
    <path d="M 327.05804 366.5827 L 327.05804 453.68016 L 287.52612 468.47823" />
    <path d="M 327.05804 453.68016 L 378.43938 468.43446" />
    <path d="M 521.82767 509.60882 L 581.66017 526.7899" />
    <path d="M 630.21922 453.6363 L 630.21922 540.73377 L 590.6873 555.53183" />
    <path d="M 630.21922 540.73377 L 884.82135 613.8435" />
    <path d="M 933.3804 540.6899 L 933.3804 627.78737 L 893.84848 642.58543" />
    <path d="M 933.3804 627.78737 L 963.89673 636.55022" />
    <path d="M 1648.57793 497.6932 L 1657.60506 500.28537" />
    <path d="M 1648.57793 354.09467 L 1528.11899 319.50454" />
    <path d="M 1648.57793 354.09467 L 1648.57793 227.66241 L 1657.60506 230.25458" />
    <path d="M 1657.60506 356.68684 L 1657.60506 230.25458" />
    <path d="M 1907.35571 428.40345 L 1657.60506 356.68684" />
    <path d="M 1907.35571 428.40345 L 1907.35571 439.74018" />
    <path d="M 884.82135 672.62962 L 758.43439 636.33724" />
    <path d="M 948.06088 677.71415 L 933.3804 683.20953" />
    <path d="M 581.66017 585.57602 L 508.9507 564.69729" />
    <path d="M 948.06088 394.42502 L 1033.26331 418.89114" />
    <path d="M 358.30714 521.43956 L 327.05804 512.46629" />
    <path d="M 278.49899 498.52242 L 207.14359 478.03251" />
    <path d="M 22.25349 -3.68504 L 11.01976 0.52011" />
    <path d="M 2241.86715 968.77974 L 2241.86715 1037.74483" />
    <path d="M 2261.39335 966.60206 L 2261.39335 1035.56714" />
    <path d="M 22.25349 -162.30411 A 762 474.3053 106.02157 0 1 -59.70212 -79.85889" />
    <path d="M -106.12549 -43.51722 A 762 474.3053 106.02157 0 1 -116.73586 -36.16528" />
    <path d="M 22.25349 -33.83139 L -34.55401 -12.56652" />
    <path d="M -570.60734 188.09544 L -621.95742 207.31742" />
    <path d="M 22.25349 -15.02176 L -6.11854 -4.4012" />
    <path d="M 1684.52037 166.95409 A 854.4 531.81949 106.02157 0 1 1648.57793 227.66241" />
    <path d="M 1697.13698 341.88877 L 1657.60506 356.68684" />
    <path d="M 1907.35571 428.40345 L 1910.91358 427.07162" />
    <path d="M 1105.22695 527.22281 L 897.43796 467.5556" />
    <path d="M 1935.01315 227.13907 L 1699.0989 159.39562" />
    <path d="M 1950.21895 243.2502 L 1917.83439 208.93752" />
    <path d="M 1950.21895 243.2502 L 1693.5475 169.54625" />
    <path d="M 382.15319 -912.99843 L 281.64289 -875.3742 A 762 474.3053 106.02157 0 1 186.54668 -432.31544" />
    <path d="M 269.1465 -884.62946 L 270.7441 -884.66418 L 272.34403 -884.69894 L 273.94629 -884.73376 L 275.5509 -884.76863 L 277.15786 -884.80355 L 278.76716 -884.83852 L 280.37881 -884.87354 L 281.99281 -884.90861 L 283.60918 -884.94374 L 285.22791 -884.97891 L 286.849 -885.01414 L 288.47246 -885.04942 L 290.09829 -885.08475 L 291.72649 -885.12013" />
    <path d="M 262.55657 -882.16264 L 269.1465 -884.62946" />
    <path d="M 262.55657 -882.16264 L 264.15397 -882.19735 L 265.75374 -882.23212 L 267.35588 -882.26693 L 268.96038 -882.3018 L 270.56726 -882.33672 L 272.17652 -882.37169 L 273.78816 -882.40671 L 275.40218 -882.44179 L 277.0186 -882.47691 L 278.6374 -882.51209 L 280.2586 -882.54732 L 281.8822 -882.5826 L 283.50821 -882.61794 L 285.13662 -882.65332 L 272.61576 -877.96637 A 762 474.3053 106.02157 0 1 177.37997 -434.57867" />
    <path d="M 281.64289 -875.3742 L 272.61576 -877.96637" />
    <path d="M 1528.11899 103.74889 L 1705.7559 -2.70083 L 1705.7559 -31.04264 L 1528.11899 35.45255" />
    <path d="M 1897.9591 -477.73042 L 1858.42719 -462.93236 A 854.4 531.81949 106.02157 0 1 1699.0989 159.39562" />
    <path d="M 1858.42719 -462.93236 L 1849.40005 -465.52452" />
    <path d="M 1684.52037 166.95409 L 1528.11899 122.04298" />
    <path d="M 194.24572 722.58739 L 308.1339 755.29071" />
    <path d="M 431.35054 790.67272 L 1195.26763 1010.0337" />
    <path d="M 998.55591 661.56061 A 101.6 33.31032 0 0 1 963.89673 636.55022" />
    <path d="M 998.55591 661.56061 L 1187.98253 715.95501" />
    <path d="M -660.9179 74.23368 L -663.02142 78.03728" />
    <path d="M 802.06577 440.16921 L 656.99924 398.51294" />
    <path d="M 886.7764 364.18201 L 828.26729 372.92384" />
    <path d="M 769.2172 381.74649 L 618.62826 404.24593 L 618.62826 375.90411 L 745.66199 328.35131" />
    <path d="M -735.44153 15.42091 L -714.46431 21.44458" />
    <path d="M -668.26619 34.7105 L -523.75009 76.20871" />
    <path d="M -119.04409 192.4212 L -108.14195 195.55178" />
    <path d="M -61.94383 208.8177 L 195.01923 282.60538" />
    <path d="M 241.21735 295.8713 L 409.76911 344.27142" />
    <path d="M 543.02446 382.53608 L 618.62826 404.24593" />
    <path d="M -624.75438 -123.86364 A 762 474.3053 106.02157 0 1 -660.64406 -191.13643" />
    <path d="M -604.72797 -80.66082 L -636.13605 -68.90377 A 700 229.50024 180 0 0 -618.75679 -56.59975" />
    <path d="M -636.13605 -51.89868 L -636.13605 -68.90377" />
    <path d="M -717.05316 -471.38386 L -693.61424 -480.1578 A 762 474.3053 106.02157 0 1 -693.83378 -491.41234" />
    <path d="M 162.65086 -278.02643 L 274.41856 -245.93202" />
    <path d="M 464.45797 -191.36165 L 1099.42481 -9.02911" />
    <path d="M 351.68611 -419.86766 L 554.09794 -361.74453" />
    <path d="M 599.25021 -348.77892 L 857.25912 -274.69093" />
    <path d="M 902.41139 -261.72532 L 1160.4203 -187.63732" />
    <path d="M 1205.57257 -174.67172 L 1395.91416 -120.01459" />
    <path d="M 1528.11899 -82.05159 L 1705.7559 -31.04264" />
    <path d="M 351.68611 -419.86766 L 282.40899 -393.93502" />
    <path d="M -193.04341 -342.15981 A 540.76194 177.29285 180 0 0 -276.96255 -331.37029" />
    <path d="M -354.34306 -316.13815 A 540.76194 177.29285 180 0 0 -389.14126 -307.18875" />
    <path d="M -439.39066 -291.18514 A 540.76194 177.29285 180 0 0 -474.37163 -277.11427" />
    <path d="M -521.94977 -251.56443 A 540.76194 177.29285 180 0 0 -554.98873 -120.01065" />
    <path d="M -565.41164 -106.8232 L -548.19063 -113.26957" />
    <path d="M -735.44153 -12.92091 L -710.49764 -22.2582" />
    <path d="M -641.79717 -47.97499 L -618.75679 -56.59975" />
    <path d="M -735.44153 -12.92091 L -711.78361 -6.12747" />
    <path d="M -665.24289 7.23683 L -511.73642 51.31666" />
    <path d="M -119.04409 164.07938 L -105.46125 167.97974" />
    <path d="M -58.92053 181.34404 L 197.69993 255.03334" />
    <path d="M 244.24065 268.39764 L 413.83972 317.0985" />
    <path d="M 546.04776 355.06241 L 618.62826 375.90411" />
    <path d="M 796.90261 309.17031 L 915.11762 264.91863 A 50 31.1224 106.02157 0 1 928.91758 264.0971 A 50 31.1224 106.02157 0 1 948.06088 299.82327 L 948.06088 482.09212" />
    <path d="M -438.95217 -123.90639 L -412.48372 -116.30589" />
    <path d="M -119.04409 -32.04386 L -104.70126 -27.92528" />
    <path d="M -54.11854 -13.40031 L 102.22236 31.49343" />
    <path d="M 160.29692 48.16971 L 198.45992 59.12832" />
    <path d="M 249.04264 73.6533 L 405.38355 118.54703" />
    <path d="M 550.84975 160.31807 L 708.54473 205.60064" />
    <path d="M 766.61928 222.27691 L 915.11762 264.91863" />
    <path d="M -409.71935 -134.84917 L -438.95217 -123.90639" />
    <path d="M 200.24673 219.621 L 180.50791 227.00988" />
    <path d="M -102.91445 132.5674 L -119.04409 138.60524" />
    <path d="M 1197.83283 -153.80749 L 1150.32867 -136.02515 L 1141.30153 -138.61732" />
    <path d="M 894.67165 -240.86109 L 847.16749 -223.07876 L 838.14035 -225.67092" />
    <path d="M 591.51047 -327.91469 L 544.0063 -310.13236 L 534.97917 -312.72452" />
    <path d="M -433.45946 -85.49865 A 854.4 531.81949 106.02157 0 1 -479.46681 -352.0678" />
    <path d="M -100.96591 73.84836 A 854.4 531.81949 106.02157 0 1 -106.24549 62.47985" />
    <path d="M 202.19527 160.90197 A 854.4 531.81949 106.02157 0 1 196.91569 149.53345" />
    <path d="M 179.45142 107.06636 A 854.4 531.81949 106.02157 0 1 126.85555 -177.96059" />
    <path d="M 989.0669 435.43527 A 101.6 33.31032 180 0 0 963.89662 457.38228 A 101.6 33.31032 180 0 0 998.55591 482.44033 L 1094.66423 510.03811" />
    <path d="M 1048.02557 413.36515 L 989.0669 435.43527" />
    <path d="M 900.25436 468.36434 L 886.7764 364.18201" />
    <path d="M 948.06088 544.90545 L 948.06088 632.00291" />
    <path d="M 948.06088 669.4894 L 948.06088 677.71415" />
    <path d="M 40.47358 -244.08216 L 129.52396 -218.51108" />
    <path d="M 196.47453 -199.28603 L 308.1339 -167.22273" />
    <path d="M 498.28164 -112.62126 L 995.07197 30.03351" />
    <path d="M 22.25349 3.74591 L 22.25349 -3.68504 L 22.25349 -15.02176 L 22.25349 -207.99738" />
    <path d="M 22.25349 -175.59353 A 762 474.3053 106.02157 0 1 -60.83082 -89.33705" />
    <path d="M -107.00054 -51.99426 A 762 474.3053 106.02157 0 1 -119.04409 -43.37282" />
    <path d="M -735.44153 15.42091 L -735.44153 -12.92091" />
    <path d="M -634.54596 -50.68935 A 700 229.50024 360 0 1 -636.13605 -51.89868" />
    <path d="M 266.31788 -881.08257 A 765 476.17265 106.02157 0 1 170.77344 -436.05067" />
    <path d="M 262.55657 -882.16264 L 266.31788 -881.08257" />
    <path d="M 122.79209 -442.91706 A 690.9233 430.06376 286.02157 0 0 217.50071 -862.80874 A 739.8449 242.56369 180 0 0 -751.48575 -699.6878" />
    <path d="M 217.50071 -862.80874 L 266.31788 -881.08257" />
    <path d="M -692.56891 -513.90839 A 690.9233 430.06376 286.02157 0 0 -688.65309 -449.58841" />
    <path d="M -683.86939 -410.76258 A 690.9233 430.06376 286.02157 0 0 -652.98689 -284.18317" />
    <path d="M -631.25197 -231.55358 A 690.9233 430.06376 286.02157 0 0 -548.19063 -113.26957" />
    <path d="M -425.15221 -124.72792 A 50 31.1224 286.02157 0 0 -438.95217 -123.90639" />
    <path d="M 1594.79792 -564.78402 L 1585.77079 -567.37619 L 1546.23887 -552.57813 A 854.4 531.81949 106.02157 0 1 1481.3256 -151.98683" />
    <path d="M 1594.79792 -564.78402 A 914.4 569.16636 106.02157 0 1 1526.61729 -140.07776" />
    <path d="M 1555.266 -549.98596 A 854.4 531.81949 106.02157 0 1 1490.67652 -150.39825" />
    <path d="M 1594.79792 -564.78402 L 1555.266 -549.98596 L 1546.23887 -552.57813" />
    <path d="M 1291.63674 -651.83762 L 1282.60961 -654.42979 L 1243.07769 -639.63173 A 854.4 531.81949 106.02157 0 1 1141.30153 -138.61732" />
    <path d="M 1291.63674 -651.83762 A 914.4 569.16636 106.02157 0 1 1197.83283 -153.80749" />
    <path d="M 1252.10482 -637.03956 A 854.4 531.81949 106.02157 0 1 1150.32867 -136.02515" />
    <path d="M 1291.63674 -651.83762 L 1252.10482 -637.03956 L 1243.07769 -639.63173" />
    <path d="M 988.47556 -738.89123 L 979.44842 -741.48339 L 939.91651 -726.68533 A 854.4 531.81949 106.02157 0 1 838.14035 -225.67092" />
    <path d="M 988.47556 -738.89123 A 914.4 569.16636 106.02157 0 1 894.67165 -240.86109" />
    <path d="M 948.94364 -724.09316 A 854.4 531.81949 106.02157 0 1 847.16749 -223.07876" />
    <path d="M 988.47556 -738.89123 L 948.94364 -724.09316 L 939.91651 -726.68533" />
    <path d="M 685.31438 -825.94483 L 676.28724 -828.53699 L 636.75533 -813.73893 A 854.4 531.81949 106.02157 0 1 534.97917 -312.72452" />
    <path d="M 685.31438 -825.94483 A 914.4 569.16636 106.02157 0 1 591.51047 -327.91469" />
    <path d="M 645.78246 -811.14676 A 854.4 531.81949 106.02157 0 1 544.0063 -310.13236" />
    <path d="M 685.31438 -825.94483 L 645.78246 -811.14676 L 636.75533 -813.73893" />
    <path d="M 219.72115 -866.12796 L 262.55657 -882.16264" />
    <path d="M 219.71975 -866.03502 A 700 435.71353 286.02157 0 0 219.72115 -866.12796 L 220.27915 -865.96773" />
    <path d="M 220.27915 -865.96773 A 749.84697 245.84294 180 0 0 -760.61648 -701.16455" />
    <path d="M 22.25349 -184.78069 A 765 476.17265 106.02157 0 1 -61.60172 -95.42728" />
    <path d="M -107.57232 -57.18841 A 765 476.17265 106.02157 0 1 -119.04409 -48.7078" />
    <path d="M -118.76412 -121.1516 A 690.9233 430.06376 286.02157 0 0 -117.16096 -122.37793" />
    <path d="M -72.19173 -160.56844 A 690.9233 430.06376 286.02157 0 0 -16.39035 -219.09406" />
    <path d="M 281.5875 689.89256 L 176.99265 729.04577 L 148.46518 658.80119" />
    <path d="M 149.94183 365.73492 L 45.34697 404.88813 L -89.91111 366.04838" />
    <path d="M 281.5875 689.89256 L 202.60916 495.4203" />
    <path d="M 172.46982 421.20672 L 149.94183 365.73492 L -76.10981 300.82354" />
    <path d="M 122.5325 594.94586 L 45.34697 404.88813" />
    <path d="M -32.96977 668.75446 L 79.12623 700.94315" />
    <path d="M 125.05174 714.13079 L 176.99265 729.04577" />
    <path d="M -1575.86527 -776.87786 A 765 476.17265 106.02157 0 1 -1528.53395 -734.79156" />
    <path d="M -1519.88114 -725.32633 A 765 476.17265 106.02157 0 1 -1463.70277 -645.01274" />
    <path d="M -1439.54081 -595.58242 A 765 476.17265 106.02157 0 1 -1380.76695 -285.3713" />
    <path d="M -1385.87699 -174.0692 A 765 476.17265 106.02157 0 1 -1506.2612 245.36699" />
    <path d="M -1591.96633 307.70381 L -1565.71185 315.24286" />
    <path d="M -1518.71854 328.73713 L -1262.55067 402.29646" />
    <path d="M -1215.55736 415.79073 L -959.38949 489.35007" />
    <path d="M -912.39617 502.84433 L -656.22831 576.40367" />
    <path d="M 58.59282 585.54335 L -119.04409 652.03855" />
    <path d="M -1295.47697 196.71833 L -1235.09773 214.05641" />
    <path d="M -1189.94547 227.02201 L -1093.06514 254.84147" />
    <path d="M -1047.91288 267.80707 L -931.93655 301.11001" />
    <path d="M -886.78429 314.07561 L -789.90396 341.89507" />
    <path d="M -744.7517 354.86068 L -628.77537 388.16361" />
    <path d="M -119.04409 534.53441 L 58.59282 585.54335" />
    <path d="M -1295.47697 196.71833 L -1412.16171 240.39717 A 700 229.50024 180 0 0 -1451.65339 236.37054 L -1491.59524 251.32206 L -1500.62238 248.7299" />
    <path d="M -1497.99859 243.46483 L -1498.54153 243.50164 L -1499.08416 243.53846 L -1499.62647 243.57529 L -1500.16847 243.61212 L -1500.71015 243.64896 L -1501.25151 243.68581 L -1501.79256 243.72267 L -1502.33329 243.75953 L -1502.87371 243.79641 L -1503.41381 243.83329 L -1503.9536 243.87017 L -1504.49307 243.90707 L -1505.03223 243.94397 L -1505.57107 243.98088" />
    <path d="M -1574.20281 270.79971 L -1561.03721 265.8714" />
    <path d="M -1511.10331 247.17954 L -1506.2612 245.36699" />
    <path d="M -1574.20281 270.79971 A 540.76194 177.29285 180 0 0 -1823.36881 272.87394" />
    <path d="M -1871.71902 277.86134 A 540.76194 177.29285 180 0 0 -1924.12564 285.2157" />
    <path d="M -2001.50614 300.44785 A 540.76194 177.29285 180 0 0 -2121.53471 339.47173" />
    <path d="M -2169.11285 365.02157 A 540.76194 177.29285 180 0 0 -2202.15181 496.57535" />
    <path d="M -2250.27646 523.87577 L -2195.35372 503.31643 A 690.9233 430.06376 106.02157 0 1 -2331.03247 205.82342" />
    <path d="M -2243.35727 532.73071 L -2283.29913 547.68223 A 700 229.50024 180 0 0 -2265.91988 559.98625" />
    <path d="M -2382.60461 603.66509 L -2265.91988 559.98625" />
    <path d="M -2382.60461 603.66509 L -1028.53482 992.49011 L -901.50109 944.93731" />
    <path d="M -850.26048 925.75631 L -732.04546 881.50463 A 50 31.1224 106.02157 0 1 -718.2455 880.6831 L -881.98589 833.66458" />
    <path d="M -2086.11525 492.67961 L -1848.1019 561.02583" />
    <path d="M -1790.02734 577.70211 L -1544.94072 648.07943" />
    <path d="M -1486.86616 664.75571 L -1241.77954 735.13303" />
    <path d="M -1183.70498 751.80931 L -938.61836 822.18664" />
    <path d="M -880.5438 838.86291 L -732.04546 881.50463" />
    <path d="M -1591.96633 307.70381 L -1702.16141 348.95337" />
    <path d="M -1758.77974 370.14743 L -1821.27114 393.53996" />
    <path d="M -1869.61077 411.63504 L -2086.11525 492.67961" />
    <path d="M -1115.98983 912.86714 L -1163.494 930.64948 A 914.4 569.16636 106.02157 0 1 -1257.24602 514.16427" />
    <path d="M -1163.494 930.64948 L -1172.52113 928.05731 A 914.4 569.16636 106.02157 0 1 -1266.27315 511.5721 L -1560.4072 427.11067" />
    <path d="M -1419.15101 825.81354 L -1466.65518 843.59588 A 914.4 569.16636 106.02157 0 1 -1560.4072 427.11067" />
    <path d="M -1466.65518 843.59588 L -1475.68231 841.00371 A 914.4 569.16636 106.02157 0 1 -1569.43434 424.5185 L -1863.56838 340.05707" />
    <path d="M -1722.31219 738.75994 L -1769.81636 756.54227 A 914.4 569.16636 106.02157 0 1 -1863.56838 340.05707" />
    <path d="M -1769.81636 756.54227 L -1778.84349 753.95011 A 914.4 569.16636 106.02157 0 1 -1872.59552 337.4649 L -2166.72957 253.00347" />
    <path d="M -2025.47337 651.70634 L -2072.97754 669.48867 A 914.4 569.16636 106.02157 0 1 -2166.72957 253.00347" />
    <path d="M -2072.97754 669.48867 L -2082.00467 666.89651 A 914.4 569.16636 106.02157 0 1 -2175.7567 250.4113 L -2469.89075 165.94986" />
    <path d="M -752.49143 375.72491 L -799.9956 393.50724 L -809.02273 390.91508" />
    <path d="M -1055.65261 288.67131 L -1103.15678 306.45364 L -1112.18391 303.86147" />
    <path d="M -2335.81617 166.99759 A 690.9233 430.06376 106.02157 0 1 -2205.09933 -434.05995" />
    <path d="M -2199.25993 -444.3905 A 690.9233 430.06376 106.02157 0 1 -2190.50256 -459.35474" />
    <path d="M -2172.92149 -487.64173 A 690.9233 430.06376 106.02157 0 1 -1829.25976 -758.81474 A 690.9233 430.06376 106.02157 0 1 -1729.97033 -761.95189" />
    <path d="M -1661.43746 -742.55122 A 690.9233 430.06376 106.02157 0 1 -1510.40544 -601.66667" />
    <path d="M -1485.48802 -553.11959 A 690.9233 430.06376 106.02157 0 1 -1429.65278 -274.20999" />
    <path d="M -1429.75809 -240.90478 A 690.9233 430.06376 106.02157 0 1 -1432.39102 -186.74033" />
    <path d="M -1558.15971 242.24107 A 690.9233 430.06376 106.02157 0 1 -1574.20281 270.79971" />
    <path d="M -1624.90959 367.27189 L -1569.12818 383.28968" />
    <path d="M -1520.92073 397.13259 L -1265.967 470.34329" />
    <path d="M -1217.75955 484.18619 L -962.80582 557.39689" />
    <path d="M -914.59837 571.2398 L -659.64464 644.45049" />
    <path d="M -1591.96633 307.70381 A 50 31.1224 286.02157 0 0 -1617.27911 334.18429 L -1676.45396 356.33534" />
    <path d="M -1617.27911 334.18429 A 50 31.1224 286.02157 0 0 -1624.90959 367.27189" />
    <path d="M -119.04409 720.33489 L 58.59282 613.88517 L 58.59282 585.54335" />
    <path d="M -1624.90959 601.56424 L -1624.90959 408.58862" />
    <path d="M -1624.90959 371.13645 L -1624.90959 367.27189" />
    <path d="M -1367.26968 -210.7243 A 762 474.3053 106.02157 0 1 -1491.59524 251.32206" />
    <path d="M -1265.28219 -270.34086 A 914.4 569.16636 106.02157 0 1 -1266.89228 -227.47284" />
    <path d="M -1269.07065 -194.76293 A 914.4 569.16636 106.02157 0 1 -1367.38104 223.63433" />
    <path d="M -1377.90186 -190.1427 A 762 474.3053 106.02157 0 1 -1500.62238 248.7299" />
    <path d="M -1516.54086 -724.36716 A 762 474.3053 106.02157 0 1 -1460.9691 -647.35511" />
    <path d="M -1436.1703 -598.44189 A 762 474.3053 106.02157 0 1 -1374.64547 -295.84095" />
    <path d="M -1516.54086 -724.36716 L -1524.21392 -726.5705" />
    <path d="M -1529.77 -732.55654 A 762 474.3053 106.02157 0 1 -1524.21392 -726.5705" />
    <path d="M -1522.09694 -730.3532 L -1529.77 -732.55654 L -1527.75711 -736.19624" />
    <path d="M -1584.72069 -782.8423 A 762 474.3053 106.02157 0 1 -1522.09694 -730.3532" />
    <path d="M -2243.35727 532.73071 A 762 474.3053 106.02157 0 1 -2365.14665 196.02743" />
    <path d="M -2368.03327 157.74636 A 762 474.3053 106.02157 0 1 -2368.5732 146.83309" />
    <path d="M -2340.77732 136.4282 A 762 474.3053 106.02157 0 1 -2340.99686 125.17365 L -2369.43233 117.00833 A 762 474.3053 106.02157 0 1 -2232.9068 -442.04495" />
    <path d="M -2204.47133 -433.87962 L -2232.9068 -442.04495" />
    <path d="M -2204.47133 -433.87962 A 762 474.3053 106.02157 0 1 -2199.00332 -444.11861" />
    <path d="M -2219.80516 -466.15895 A 762 474.3053 106.02157 0 1 -2219.02767 -467.54581" />
    <path d="M -2202.40471 -496.10792 A 762 474.3053 106.02157 0 1 -1875.38264 -802.03579" />
    <path d="M -1846.94718 -793.87046 L -1875.38264 -802.03579" />
    <path d="M -1846.94718 -793.87046 A 762 474.3053 106.02157 0 1 -1839.04079 -796.91935" />
    <path d="M -1839.04079 -814.57341 A 762 474.3053 106.02157 0 1 -1710.88862 -827.79069" />
    <path d="M -1581.75847 -784.09402 A 762 474.3053 106.02157 0 1 -1513.0698 -727.76103" />
    <path d="M -1484.63434 -719.59571 L -1513.0698 -727.76103" />
    <path d="M -1484.63434 -719.59571 A 762 474.3053 106.02157 0 1 -1479.07826 -713.60967 L -1507.51373 -721.77499 A 762 474.3053 106.02157 0 1 -1455.9463 -651.60472" />
    <path d="M -1430.47892 -603.19392 A 762 474.3053 106.02157 0 1 -1366.09211 -310.09752" />
    <path d="M -1336.98977 -261.99514 L -1338.35863 -262.38821" />
    <path d="M -1336.98977 -261.99514 A 762 474.3053 106.02157 0 1 -1337.08472 -250.62287 L -1344.07518 -252.6302" />
    <path d="M -2293.48431 699.41878 A 914.4 569.16636 106.02157 0 1 -2337.94509 644.83102" />
    <path d="M -2367.57148 598.03771 A 914.4 569.16636 106.02157 0 1 -2469.89075 165.94986" />
    <path d="M -2283.29913 564.68732 L -2283.29913 547.68223" />
    <path d="M -2293.48431 699.41878 L -2273.52554 663.32928" />
    <path d="M -2281.70905 565.89665 A 700 229.50024 360 0 1 -2283.29913 564.68732" />
    <path d="M -2382.60461 632.00691 L -2382.60461 603.66509" />
    <path d="M -2090.65706 775.90846 L -2092.5389 761.36211" />
    <path d="M -2382.60461 632.00691 L -1028.53482 1020.83193 L -1028.53482 992.49011" />
    <path d="M -718.2455 880.6831 A 50 31.1224 106.02157 0 1 -699.1022 916.40927 L -699.1022 1098.67812" />
    <path d="M -699.1022 1161.49145 L -699.1022 1248.58891" />
    <path d="M -699.1022 1286.0754 L -699.1022 1294.30015 L -713.78269 1299.79553" />
    <path d="M -746.90873 1084.95034 L -760.38669 980.76801 L -818.89579 989.50984" />
    <path d="M -877.94588 998.33249 L -1028.53482 1020.83193" />
    <path d="M -2072.31529 491.85808 A 50 31.1224 286.02157 0 0 -2086.11525 492.67961" />
    <path d="M -1733.07229 377.52939 L -1819.95306 410.05165" />
    <path d="M -1868.29676 428.14825 L -2053.17524 497.3542" />
    <path d="M -845.09731 1056.7552 L -990.16384 1015.09893" />
    <path d="M -1115.98983 912.86714 A 854.4 531.81949 106.02157 0 1 -1217.14635 525.67901" />
    <path d="M -1419.15101 825.81354 A 854.4 531.81949 106.02157 0 1 -1520.30753 438.62541" />
    <path d="M -1722.31219 738.75994 A 854.4 531.81949 106.02157 0 1 -1823.46871 351.5718" />
    <path d="M -2025.47337 651.70634 A 854.4 531.81949 106.02157 0 1 -2126.62989 264.5182" />
    <path d="M -2175.53628 213.02242 L -2401.97525 147.99982 L -2340.99686 125.17365" />
    <path d="M -2014.85827 -408.91798 L -2242.64696 -474.32815 L -2204.47133 -433.87962" />
    <path d="M -1655.00712 -811.74416 L -1846.94718 -866.8603 L -1846.94718 -793.87046" />
    <path d="M -1333.02409 -806.31367 A 854.4 531.81949 106.02157 0 1 -1252.19421 -769.58141" />
    <path d="M -1140.00003 -663.8584 A 854.4 531.81949 106.02157 0 1 -1101.80248 -603.83093" />
    <path d="M -1077.35544 -553.86898 A 854.4 531.81949 106.02157 0 1 -1014.79369 -296.07389" />
    <path d="M -1010.54808 -215.1223 A 854.4 531.81949 106.02157 0 1 -1010.46328 -208.46887 L -1014.14999 -209.52752" />
    <path d="M -1062.67624 -223.46198 L -1276.16186 -284.76498 L -1336.98977 -261.99514" />
    <path d="M -1276.16186 -284.76498 A 854.4 531.81949 106.02157 0 1 -1276.10634 -273.44904 L -1337.08472 -250.62287" />
    <path d="M -1010.40775 -197.15293 L -1020.20082 -199.96504" />
    <path d="M -1068.48756 -213.83072 L -1276.10634 -273.44904" />
    <path d="M -1010.40775 -197.15293 A 854.4 531.81949 106.02157 0 1 -1011.19992 -154.05005" />
    <path d="M -1012.8465 -121.18743 A 854.4 531.81949 106.02157 0 1 -1112.18391 303.86147" />
    <path d="M -1001.38062 -194.56077 A 854.4 531.81949 106.02157 0 1 -1002.17278 -151.45788" />
    <path d="M -1003.81936 -118.59526 A 854.4 531.81949 106.02157 0 1 -1103.15678 306.45364" />
    <path d="M -707.24657 -110.09933 L -717.03964 -112.91144" />
    <path d="M -765.32638 -126.77711 L -1001.38062 -194.56077" />
    <path d="M -707.24657 -110.09933 A 854.4 531.81949 106.02157 0 1 -708.03874 -66.99645" />
    <path d="M -709.68531 -34.13383 A 854.4 531.81949 106.02157 0 1 -809.02273 390.91508" />
    <path d="M -698.21944 -107.50716 A 854.4 531.81949 106.02157 0 1 -699.0116 -64.40428" />
    <path d="M -700.65818 -31.54166 A 854.4 531.81949 106.02157 0 1 -799.9956 393.50724" />
    <path d="M -462.1652 -39.72351 L -698.21944 -107.50716" />
    <path d="M -100.92421 64.00787 L -119.04409 58.8047" />
    <path d="M -100.92421 64.00787 A 854.4 531.81949 106.02157 0 1 -119.04409 273.93668" />
    <path d="M -91.89708 66.60004 A 854.4 531.81949 106.02157 0 1 -119.04409 324.39858" />
    <path d="M 202.23697 151.06147 L -91.89708 66.60004" />
    <path d="M 202.23697 151.06147 A 854.4 531.81949 106.02157 0 1 42.90868 773.38945 L -119.04409 726.88425" />
    <path d="M 37.35729 783.54009 L -119.04409 738.62898" />
    <path d="M 37.35729 783.54009 A 854.4 531.81949 106.02157 0 1 1.41485 844.24841 L 10.44198 846.84058" />
    <path d="M 46.38442 786.13225 A 854.4 531.81949 106.02157 0 1 10.44198 846.84058" />
    <path d="M 303.05587 859.8362 L 46.38442 786.13225" />
    <path d="M 287.85007 843.72507 L 51.93581 775.98161" />
    <path d="M 211.2641 153.65364 A 854.4 531.81949 106.02157 0 1 51.93581 775.98161" />
    <path d="M 420.07848 213.61529 L 211.2641 153.65364" />
    <path d="M 419.82548 202.24264 L 211.20858 142.3377" />
    <path d="M 110.09612 -270.14411 A 854.4 531.81949 106.02157 0 1 211.20858 142.3377" />
    <path d="M 295.4044 -283.87866 L 211.30228 -308.02882" />
    <path d="M 297.42595 -287.53403 L 217.70586 -310.42589" />
    <path d="M -243.04615 -468.28872 A 854.4 531.81949 106.02157 0 1 -115.85661 -456.8352 A 854.4 531.81949 106.02157 0 1 -36.45364 -422.38187" />
    <path d="M -139.20121 -376.47615 L -359.57674 -439.75761" />
    <path d="M -739.23672 -75.95504 A 854.4 531.81949 106.02157 0 1 -359.57674 -439.75761" />
    <path d="M -499.05237 26.35003 L -755.27652 -47.22547" />
    <path d="M -914.60481 575.1025 A 854.4 531.81949 106.02157 0 1 -755.27652 -47.22547" />
    <path d="M -659.73037 648.29043 L -914.60481 575.1025" />
    <path d="M -749.72512 1084.1416 A 854.4 531.81949 106.02157 0 1 -913.98517 612.73261" />
    <path d="M -541.93613 1143.80881 L -749.72512 1084.1416" />
    <path d="M -962.89155 561.23683 L -1217.76599 488.0489 A 854.4 531.81949 106.02157 0 1 -1058.4377 -134.27907" />
    <path d="M -802.21355 -60.70357 L -1058.4377 -134.27907" />
    <path d="M -1042.39791 -163.00864 A 854.4 531.81949 106.02157 0 1 -662.73792 -526.81121" />
    <path d="M -442.36239 -463.52975 L -662.73792 -526.81121" />
    <path d="M -1266.05274 474.18322 L -1520.92717 400.9953 A 854.4 531.81949 106.02157 0 1 -1361.59888 -221.33267" />
    <path d="M -1105.37473 -147.75717 L -1361.59888 -221.33267" />
    <path d="M -1345.55909 -250.06224 A 854.4 531.81949 106.02157 0 1 -965.8991 -613.86482" />
    <path d="M -745.52357 -550.58335 L -965.8991 -613.86482" />
    <path d="M -120.37937 -458.09927 A 854.4 531.81949 106.02157 0 1 -39.54949 -421.367" />
    <path d="M -546.20733 -555.34232 A 854.4 531.81949 106.02157 0 1 -419.01779 -543.8888 A 854.4 531.81949 106.02157 0 1 -339.61482 -509.43547" />
    <path d="M 103.94499 -267.84154 A 854.4 531.81949 106.02157 0 1 202.18144 139.74553 L -91.9526 55.2841" />
    <path d="M -221.48935 -400.10542 A 854.4 531.81949 106.02157 0 1 -186.85244 -346.47724" />
    <path d="M -113.6821 -147.62212 A 854.4 531.81949 106.02157 0 1 -91.9526 55.2841" />
    <path d="M -423.54055 -545.15287 A 854.4 531.81949 106.02157 0 1 -342.71067 -508.4206" />
    <path d="M -849.36851 -642.39592 A 854.4 531.81949 106.02157 0 1 -722.17897 -630.9424 A 854.4 531.81949 106.02157 0 1 -642.776 -596.48907" />
    <path d="M -230.51648 -402.69759 A 854.4 531.81949 106.02157 0 1 -192.31894 -342.67012" />
    <path d="M -118.11721 -127.52102 A 854.4 531.81949 106.02157 0 1 -100.97974 52.69193 L -119.04409 47.5047" />
    <path d="M -524.65053 -487.15903 A 854.4 531.81949 106.02157 0 1 -490.01362 -433.53085" />
    <path d="M -464.96794 -383.86898 A 854.4 531.81949 106.02157 0 1 -400.73595 -132.67965" />
    <path d="M -1569.21392 387.12962 L -1824.08835 313.9417 A 854.4 531.81949 106.02157 0 1 -1664.76006 -308.38628" />
    <path d="M -1408.53591 -234.81078 L -1664.76006 -308.38628" />
    <path d="M -1648.72027 -337.11584 A 854.4 531.81949 106.02157 0 1 -1269.06028 -700.91842" />
    <path d="M -1048.68476 -637.63695 L -1269.06028 -700.91842" />
    <path d="M -1872.3751 300.07602 L -2127.24953 226.8881 A 854.4 531.81949 106.02157 0 1 -1967.92124 -395.43988" />
    <path d="M -1711.69709 -321.86438 L -1967.92124 -395.43988" />
    <path d="M -1951.88145 -424.16944 A 854.4 531.81949 106.02157 0 1 -1572.22146 -787.97202" />
    <path d="M -1351.84594 -724.69056 L -1572.22146 -787.97202" />
    <path d="M -726.70173 -632.20647 A 854.4 531.81949 106.02157 0 1 -645.87185 -595.4742" />
    <path d="M -1152.52969 -729.44952 A 854.4 531.81949 106.02157 0 1 -1025.34015 -717.996 A 854.4 531.81949 106.02157 0 1 -945.93718 -683.54267" />
    <path d="M -533.67766 -489.75119 A 854.4 531.81949 106.02157 0 1 -495.48012 -429.72372" />
    <path d="M -471.03308 -379.76177 A 854.4 531.81949 106.02157 0 1 -408.47132 -121.96669" />
    <path d="M -827.81171 -574.21263 A 854.4 531.81949 106.02157 0 1 -793.1748 -520.58445" />
    <path d="M -768.12912 -470.92258 A 854.4 531.81949 106.02157 0 1 -703.89713 -219.73325" />
    <path d="M -698.7169 -141.24726 A 854.4 531.81949 106.02157 0 1 -698.27497 -118.82311" />
    <path d="M -456.35388 -49.35477 L -698.27497 -118.82311" />
    <path d="M -1029.86291 -719.26007 A 854.4 531.81949 106.02157 0 1 -949.03303 -682.5278" />
    <path d="M -1455.69087 -816.50313 A 854.4 531.81949 106.02157 0 1 -1328.50133 -805.04961 A 854.4 531.81949 106.02157 0 1 -1249.09836 -770.59627" />
    <path d="M -836.83884 -576.80479 A 854.4 531.81949 106.02157 0 1 -798.6413 -516.77732" />
    <path d="M -774.19426 -466.81538 A 854.4 531.81949 106.02157 0 1 -711.63251 -209.02029" />
    <path d="M -707.3869 -128.06869 A 854.4 531.81949 106.02157 0 1 -707.3021 -121.41527 L -710.98881 -122.47392" />
    <path d="M -1130.97289 -661.26623 A 854.4 531.81949 106.02157 0 1 -1096.33598 -607.63805" />
    <path d="M -1071.2903 -557.97618 A 854.4 531.81949 106.02157 0 1 -1007.05831 -306.78685" />
    <path d="M -1001.87808 -228.30086 A 854.4 531.81949 106.02157 0 1 -1001.43615 -205.87671" />
    <path d="M -759.51506 -136.40837 L -1001.43615 -205.87671" />
    <path d="M -2278.14764 720.74837 L -2269.1205 723.34054 A 914.4 569.16636 106.02157 0 1 -2287.85697 705.27596" />
    <path d="M -2278.14764 720.74837 A 914.4 569.16636 106.02157 0 1 -2296.8841 702.6838 L -2304.55716 700.48045" />
    <path d="M -1993.72292 789.7374 L -2287.85697 705.27596" />
    <path d="M -2310.18451 694.62328 A 914.4 569.16636 286.02157 0 0 -2304.55716 700.48045" />
    <path d="M -1974.98646 807.80197 A 914.4 569.16636 106.02157 0 1 -1993.72292 789.7374" />
    <path d="M -2302.51145 696.82662 L -2310.18451 694.62328" />
    <path d="M -1974.98646 807.80197 L -1965.95932 810.39414 A 914.4 569.16636 106.02157 0 1 -1984.69579 792.32956" />
    <path d="M -2302.51145 696.82662 A 914.4 569.16636 106.02157 0 1 -2346.97222 642.23885" />
    <path d="M -2373.77562 600.36012 A 914.4 569.16636 106.02157 0 1 -2478.91788 163.3577 L -2486.59094 161.15436" />
    <path d="M -1690.56174 876.791 L -1984.69579 792.32956" />
    <path d="M -2486.64282 149.83705 A 914.4 569.16636 286.02157 0 0 -2486.59094 161.15436" />
    <path d="M -1671.82527 894.85557 A 914.4 569.16636 106.02157 0 1 -1690.56174 876.791" />
    <path d="M -2478.96976 152.04039 L -2486.64282 149.83705" />
    <path d="M -1671.82527 894.85557 L -1662.79814 897.44774 A 914.4 569.16636 106.02157 0 1 -1681.53461 879.38317" />
    <path d="M -2478.96976 152.04039 A 914.4 569.16636 106.02157 0 1 -2308.06542 -514.70594 L -2315.73848 -516.90929" />
    <path d="M -1387.40056 963.8446 L -1681.53461 879.38317" />
    <path d="M -2310.18451 -527.05719 A 914.4 569.16636 286.02157 0 0 -2315.73848 -516.90929" />
    <path d="M -1368.66409 981.90917 A 914.4 569.16636 106.02157 0 1 -1387.40056 963.8446" />
    <path d="M -2302.51145 -524.85385 L -2310.18451 -527.05719" />
    <path d="M -1368.66409 981.90917 L -1359.63696 984.50134 A 914.4 569.16636 106.02157 0 1 -1378.37343 966.43677" />
    <path d="M -2302.51145 -524.85385 A 914.4 569.16636 106.02157 0 1 -1884.40977 -934.30664 L -1892.08283 -936.50999" />
    <path d="M -1084.23938 1050.8982 L -1378.37343 966.43677" />
    <path d="M -1884.17645 -939.54399 A 914.4 569.16636 286.02157 0 0 -1892.08283 -936.50999" />
    <path d="M -1065.50291 1068.96278 A 914.4 569.16636 106.02157 0 1 -1084.23938 1050.8982" />
    <path d="M -1876.50339 -937.34065 L -1884.17645 -939.54399" />
    <path d="M -1065.50291 1068.96278 L -1056.47578 1071.55494 A 914.4 569.16636 106.02157 0 1 -1075.21225 1053.49037" />
    <path d="M -1876.50339 -937.34065 A 914.4 569.16636 106.02157 0 1 -1624.12969 -952.36485" />
    <path d="M -781.0782 1137.9518 L -1075.21225 1053.49037" />
    <path d="M -762.34173 1156.01638 A 914.4 569.16636 106.02157 0 1 -781.0782 1137.9518" />
    <path d="M -762.34173 1156.01638 L -753.3146 1158.60854 A 914.4 569.16636 106.02157 0 1 -772.05107 1140.54397" />
    <path d="M -477.91702 1225.00541 L -772.05107 1140.54397" />
    <path d="M -459.18055 1243.06998 A 914.4 569.16636 106.02157 0 1 -477.91702 1225.00541" />
    <path d="M -459.18055 1243.06998 L -451.50749 1245.27332 A 914.4 569.16636 106.02157 0 1 202.51046 -427.83989 L 194.83739 -430.04324" />
    <path d="M 202.51046 -427.83989 A 914.4 569.16636 106.02157 0 1 351.781 944.57666 L 351.781 1245.41699 L 328.56589 1254.10715 L 332.15417 1255.13754 L 332.15417 1311.31942" />
    <path d="M 308.1339 882.88507 L 74.3377 815.74982 L 46.38442 786.13225" />
    <path d="M 74.3377 815.74982 A 914.4 569.16636 106.02157 0 1 49.97389 857.91189 L 49.97389 958.47477 L 308.1339 1032.60616" />
    <path d="M 26.86889 802.11902 L -119.04409 760.21969" />
    <path d="M 250.52372 164.92715 A 914.4 569.16636 106.02157 0 1 89.84571 786.86755" />
    <path d="M 157.54355 -287.9052 A 914.4 569.16636 106.02157 0 1 250.74413 127.53827 L 211.20858 142.3377" />
    <path d="M 418.45509 175.69695 L 250.74413 127.53827" />
    <path d="M -147.73083 -378.92545 A 914.4 569.16636 106.02157 0 1 -144.73501 -373.28157" />
    <path d="M -80.18926 -197.27736 A 914.4 569.16636 106.02157 0 1 -52.41705 40.48467 L -91.9526 55.2841" />
    <path d="M 201.61733 113.43137 L -52.41705 40.48467" />
    <path d="M -57.5363 -415.01904 L -351.67035 -499.48047 A 914.4 569.16636 106.02157 0 1 -99.29666 -514.50467 L -108.32379 -517.09684" />
    <path d="M -57.5363 -415.01904 A 914.4 569.16636 106.02157 0 1 194.83739 -430.04324" />
    <path d="M -99.29666 -514.50467 A 914.4 569.16636 106.02157 0 1 38.47974 -439.91966" />
    <path d="M -360.69749 -502.07264 L -654.83153 -586.53407 A 914.4 569.16636 106.02157 0 1 -402.45784 -601.55827 L -411.48497 -604.15044" />
    <path d="M -360.69749 -502.07264 A 914.4 569.16636 106.02157 0 1 -108.32379 -517.09684" />
    <path d="M -402.45784 -601.55827 A 914.4 569.16636 106.02157 0 1 -264.68144 -526.97326" />
    <path d="M -450.89201 -465.97905 A 914.4 569.16636 106.02157 0 1 -447.8962 -460.33517" />
    <path d="M -423.80288 -409.1414 A 914.4 569.16636 106.02157 0 1 -364.40506 -179.68918" />
    <path d="M -101.54385 26.37777 L -119.04409 21.35252" />
    <path d="M -663.85867 -589.12624 L -957.99272 -673.58768 A 914.4 569.16636 106.02157 0 1 -705.61902 -688.61187 L -714.64615 -691.20404" />
    <path d="M -663.85867 -589.12624 A 914.4 569.16636 106.02157 0 1 -411.48497 -604.15044" />
    <path d="M -705.61902 -688.61187 A 914.4 569.16636 106.02157 0 1 -567.84262 -614.02686" />
    <path d="M -483.54436 -2.53224 L -777.67841 -86.99368 A 914.4 569.16636 106.02157 0 1 -359.57674 -496.44647 L -359.57674 -439.75761" />
    <path d="M -483.54436 -2.53224 A 914.4 569.16636 106.02157 0 1 -65.44269 -411.98503 L -359.57674 -496.44647" />
    <path d="M -786.70554 -89.58584 L -1080.83959 -174.04728 A 914.4 569.16636 106.02157 0 1 -662.73792 -583.50007 L -662.73792 -526.81121" />
    <path d="M -786.70554 -89.58584 A 914.4 569.16636 106.02157 0 1 -368.60387 -499.03864 L -662.73792 -583.50007" />
    <path d="M -660.00267 674.362 L -954.13672 589.90057 L -914.60481 575.1025" />
    <path d="M -660.00267 674.362 A 914.4 569.16636 106.02157 0 1 -489.09833 7.61567 L -783.23238 -76.84577 L -755.27652 -47.22547" />
    <path d="M -954.13672 589.90057 A 914.4 569.16636 106.02157 0 1 -783.23238 -76.84577" />
    <path d="M -483.54436 1219.14823 L -777.67841 1134.68679 L -749.72512 1084.1416" />
    <path d="M -483.54436 1219.14823 A 914.4 569.16636 106.02157 0 1 -659.95079 685.67931 L -954.08484 601.21787" />
    <path d="M -777.67841 1134.68679 A 914.4 569.16636 106.02157 0 1 -954.08484 601.21787" />
    <path d="M -963.16385 587.3084 L -1257.2979 502.84697 L -1217.76599 488.0489" />
    <path d="M -963.16385 587.3084 A 914.4 569.16636 106.02157 0 1 -792.25951 -79.43794 L -1086.39356 -163.89937 L -1058.4377 -134.27907" />
    <path d="M -1257.2979 502.84697 A 914.4 569.16636 106.02157 0 1 -1086.39356 -163.89937" />
    <path d="M -1089.86672 -176.63945 L -1384.00077 -261.10088 A 914.4 569.16636 106.02157 0 1 -965.8991 -670.55367 L -965.8991 -613.86482" />
    <path d="M -1089.86672 -176.63945 A 914.4 569.16636 106.02157 0 1 -671.76505 -586.09224 L -965.8991 -670.55367" />
    <path d="M -1266.32504 500.2548 L -1560.45908 415.79336 L -1520.92717 400.9953" />
    <path d="M -1266.32504 500.2548 A 914.4 569.16636 106.02157 0 1 -1095.42069 -166.49154 L -1389.55474 -250.95297 L -1361.59888 -221.33267" />
    <path d="M -1560.45908 415.79336 A 914.4 569.16636 106.02157 0 1 -1389.55474 -250.95297" />
    <path d="M -52.63747 77.87355 A 914.4 569.16636 106.02157 0 1 -119.04409 471.78622" />
    <path d="M -658.95983 -96.23365 A 914.4 569.16636 106.02157 0 1 -660.56992 -53.36564" />
    <path d="M -662.74829 -20.65572 A 914.4 569.16636 106.02157 0 1 -752.49143 375.72491" />
    <path d="M -962.12101 -183.28725 A 914.4 569.16636 106.02157 0 1 -963.7311 -140.41924" />
    <path d="M -965.90947 -107.70932 A 914.4 569.16636 106.02157 0 1 -1055.65261 288.67131" />
    <path d="M -754.05319 -553.03266 A 914.4 569.16636 106.02157 0 1 -751.05738 -547.38877" />
    <path d="M -726.96406 -496.195 A 914.4 569.16636 106.02157 0 1 -667.56624 -266.74278" />
    <path d="M -660.83863 -194.43468 A 914.4 569.16636 106.02157 0 1 -658.73941 -133.62253 L -698.27497 -118.82311" />
    <path d="M -442.51508 -71.5331 L -658.73941 -133.62253" />
    <path d="M -967.01985 -676.17984 L -1261.1539 -760.64128 A 914.4 569.16636 106.02157 0 1 -1008.7802 -775.66548 L -1017.80733 -778.25764" />
    <path d="M -967.01985 -676.17984 A 914.4 569.16636 106.02157 0 1 -714.64615 -691.20404" />
    <path d="M -1008.7802 -775.66548 A 914.4 569.16636 106.02157 0 1 -871.0038 -701.08046" />
    <path d="M -1057.21437 -640.08626 A 914.4 569.16636 106.02157 0 1 -1054.21856 -634.44237" />
    <path d="M -1030.12524 -583.2486 A 914.4 569.16636 106.02157 0 1 -970.72742 -353.79638" />
    <path d="M -963.99981 -281.48828 A 914.4 569.16636 106.02157 0 1 -961.90059 -220.67613 L -1001.43615 -205.87671" />
    <path d="M -745.67626 -158.5867 L -961.90059 -220.67613" />
    <path d="M -1360.37555 -727.13986 A 914.4 569.16636 106.02157 0 1 -1357.37974 -721.49598" />
    <path d="M -1333.28642 -670.3022 A 914.4 569.16636 106.02157 0 1 -1273.8886 -440.84999" />
    <path d="M -1267.16099 -368.54188 A 914.4 569.16636 106.02157 0 1 -1265.06177 -307.72974 L -1324.26949 -285.56639" />
    <path d="M -1048.83744 -245.6403 L -1265.06177 -307.72974" />
    <path d="M -1270.18103 -763.23344 L -1564.31508 -847.69488 A 914.4 569.16636 106.02157 0 1 -1311.94138 -862.71908 L -1320.96851 -865.31124" />
    <path d="M -1270.18103 -763.23344 A 914.4 569.16636 106.02157 0 1 -1017.80733 -778.25764" />
    <path d="M -1311.94138 -862.71908 A 914.4 569.16636 106.02157 0 1 -1174.16498 -788.13406" />
    <path d="M -1573.34221 -850.28705 L -1867.47626 -934.74848 A 914.4 569.16636 106.02157 0 1 -1615.10256 -949.77268 L -1624.12969 -952.36485" />
    <path d="M -1573.34221 -850.28705 A 914.4 569.16636 106.02157 0 1 -1320.96851 -865.31124" />
    <path d="M -1615.10256 -949.77268 A 914.4 569.16636 106.02157 0 1 -1477.32617 -875.18766" />
    <path d="M -1393.0279 -263.69305 L -1687.16195 -348.15448 A 914.4 569.16636 106.02157 0 1 -1269.06028 -757.60727 L -1269.06028 -700.91842" />
    <path d="M -1393.0279 -263.69305 A 914.4 569.16636 106.02157 0 1 -974.92623 -673.14584 L -1269.06028 -757.60727" />
    <path d="M -1569.48622 413.2012 L -1863.62027 328.73976 L -1824.08835 313.9417" />
    <path d="M -1569.48622 413.2012 A 914.4 569.16636 106.02157 0 1 -1398.58187 -253.54514 L -1692.71592 -338.00657 L -1664.76006 -308.38628" />
    <path d="M -1863.62027 328.73976 A 914.4 569.16636 106.02157 0 1 -1692.71592 -338.00657" />
    <path d="M -786.70554 1132.09463 L -1080.83959 1047.63319 L -1060.88081 1011.54368" />
    <path d="M -1080.83959 1047.63319 A 914.4 569.16636 106.02157 0 1 -1125.30037 993.04542" />
    <path d="M -1089.86672 1045.04102 A 914.4 569.16636 106.02157 0 1 -1134.3275 990.45326" />
    <path d="M -1089.86672 1045.04102 L -1384.00077 960.57959 L -1364.04199 924.49008" />
    <path d="M -1384.00077 960.57959 A 914.4 569.16636 106.02157 0 1 -1428.46155 905.99182" />
    <path d="M -1393.0279 957.98742 A 914.4 569.16636 106.02157 0 1 -1437.48868 903.39966" />
    <path d="M -1393.0279 957.98742 L -1687.16195 873.52599 L -1667.20317 837.43648" />
    <path d="M -1687.16195 873.52599 A 914.4 569.16636 106.02157 0 1 -1731.62273 818.93822" />
    <path d="M -1696.18908 870.93382 A 914.4 569.16636 106.02157 0 1 -1740.64986 816.34605" />
    <path d="M -1696.18908 870.93382 L -1990.32313 786.47239 L -1970.36435 750.38288" />
    <path d="M -1990.32313 786.47239 A 914.4 569.16636 106.02157 0 1 -2034.78391 731.88462" />
    <path d="M -1999.35026 783.88022 A 914.4 569.16636 106.02157 0 1 -2043.81104 729.29245" />
    <path d="M -1999.35026 783.88022 L -2293.48431 699.41878" />
    <path d="M -963.11197 598.62571 L -1257.24602 514.16427" />
    <path d="M -786.70554 1132.09463 A 914.4 569.16636 106.02157 0 1 -963.11197 598.62571" />
    <path d="M -1696.18908 -350.74665 L -1990.32313 -435.20808 A 914.4 569.16636 106.02157 0 1 -1572.22146 -844.66088 L -1572.22146 -787.97202" />
    <path d="M -1696.18908 -350.74665 A 914.4 569.16636 106.02157 0 1 -1278.08741 -760.19944 L -1572.22146 -844.66088" />
    <path d="M -1999.35026 -437.80025 L -2293.48431 -522.26169 A 914.4 569.16636 106.02157 0 1 -1875.38264 -931.71448 L -1875.38264 -802.03579" />
    <path d="M -1999.35026 -437.80025 A 914.4 569.16636 106.02157 0 1 -1581.24859 -847.25304 L -1875.38264 -931.71448" />
    <path d="M -1872.6474 326.1476 L -2166.78145 241.68616 L -2127.24953 226.8881" />
    <path d="M -1872.6474 326.1476 A 914.4 569.16636 106.02157 0 1 -1701.74305 -340.59874 L -1995.8771 -425.06018 L -1967.92124 -395.43988" />
    <path d="M -2166.78145 241.68616 A 914.4 569.16636 106.02157 0 1 -1995.8771 -425.06018" />
    <path d="M -2175.80858 239.09399 L -2469.94263 154.63256 L -2369.43233 117.00833" />
    <path d="M -2175.80858 239.09399 A 914.4 569.16636 106.02157 0 1 -2004.90424 -427.65234 L -2299.03828 -512.11378 L -2232.9068 -442.04495" />
    <path d="M -2469.94263 154.63256 A 914.4 569.16636 106.02157 0 1 -2299.03828 -512.11378" />
    <path d="M -699.1022 1011.01101 L -613.89978 1035.47713" />
    <path d="M -1624.90959 620.33191 L -1624.90959 612.90096 L -1636.14333 617.10611" />
    <path d="M -1624.90959 612.90096 L -1624.90959 601.56424 L -1653.28162 612.1848" />
    <path d="M -1624.90959 440.99247 A 762 474.3053 106.02157 0 1 -1772.92607 577.82855" />
    <path d="M -1624.90959 454.28189 A 762 474.3053 106.02157 0 1 -1763.89894 580.42072" />
    <path d="M -1974.98646 908.36486 L -2269.1205 823.90342 L -2269.1205 723.34054" />
    <path d="M -1624.90959 582.7546 L -1681.71709 604.01947" />
    <path d="M -2097.91899 759.8172 L -2269.1205 823.90342" />
    <path d="M -2090.65706 775.90846 L -2201.15312 817.27068 L -1974.98646 882.21509" />
    <path d="M -2384.83695 152.92113 L -2340.77732 136.4282" />
    <path d="M -2221.88976 -468.36766 L -2199.00332 -444.11861" />
    <path d="M -1839.04079 -864.58995 L -1839.04079 -796.91935" />
    <path d="M -1492.44064 -765.06273 L -1513.0698 -727.76103" />
    <path d="M -1464.00518 -756.8974 L -1484.63434 -719.59571" />
    <path d="M -1456.3537 -754.70026 L -1479.07826 -713.60967" />
    <path d="M -762.34173 1289.21562 L -888.72869 1252.92324 L -897.75582 1250.33108 L -1016.94387 1216.10589" />
    <path d="M -1065.50291 1202.16202 L -1191.88987 1165.86964 L -1200.917 1163.27747 L -1320.10505 1129.05229" />
    <path d="M -1368.66409 1115.10842 L -1453.14618 1090.84914" />
    <path d="M -1877.37487 969.03066 L -1926.42741 954.94508" />
    <path d="M -1974.98646 941.00121 L -2072.93795 912.87416 L -2075.79977 890.75275" />
    <path d="M -2080.83647 851.81996 L -2089.25818 786.72154 L -2184.01483 822.19199" />
    <path d="M -2089.25818 786.72154 L -2090.65706 775.90846" />
    <path d="M 1.41485 970.68067 L -119.04409 936.09054" />
    <path d="M 1.41485 970.68067 L 1.41485 844.24841" />
    <path d="M 10.44198 973.27283 L 10.44198 846.84058" />
    <path d="M 260.19263 1044.98945 L 10.44198 973.27283" />
    <path d="M 260.19263 1044.98945 L 260.19263 1056.32617 L 263.7505 1054.99435 L 308.1339 1067.73917 L 308.1339 1091.35735 L 308.03639 1095.84284 L 315.70945 1098.04618 A 75 46.68359 106.02157 0 1 266.39207 1182.91281 L -69.6292 1308.69635 A 75 46.68359 106.02157 0 1 -90.32914 1309.92865 A 75 46.68359 106.02157 0 1 -118.65444 1265.07396 L -119.04409 1256.33939 L -119.04409 -113.51503 L -118.94658 -118.00053 A 75 46.68359 106.02157 0 1 -69.6292 -202.86715 L 266.39207 -328.6507 A 75 46.68359 106.02157 0 1 287.09201 -329.883 A 75 46.68359 106.02157 0 1 315.41731 -285.02831 L 315.80696 -276.29374 L 315.80696 -87.94612 A 500 311.22395 106.02157 0 1 315.80696 621.79492 L 315.80696 1093.56069 L 315.70945 1098.04618" />
    <path d="M 260.19263 1056.32617 L 10.44198 984.60956" />
    <path d="M 10.44198 1116.87137 L 10.44198 984.60956" />
    <path d="M 1.41485 1114.2792 L 10.44198 1116.87137" />
    <path d="M 1.41485 1114.2792 L 1.41485 982.01739 L -119.04409 947.42726" />
    <path d="M 49.97389 958.47477 L 10.44198 973.27283" />
    <path d="M 303.05587 859.8362 L 270.6713 825.52351 L 270.6713 809.49096 L 308.1339 820.24845" />
    <path d="M 270.6713 825.52351 L 308.1339 836.28101 L 308.1339 1056.40244" />
    <path d="M 418.48969 270.6477 L 381.02709 259.89021" />
    <path d="M 420.04971 233.94606 L 381.72561 248.292 A 500 311.22395 106.02157 0 1 381.02709 259.89021" />
    <path d="M 419.18821 259.0495 L 381.72561 248.292" />
    <path d="M 270.6713 -223.12367 L 308.1339 -212.36618 L 308.1339 -90.14946 L 315.80696 -87.94612" />
    <path d="M 297.42595 -287.53403 L 270.6713 -239.15622 L 308.1339 -228.39873" />
    <path d="M 270.6713 -223.12367 L 270.6713 -239.15622" />
    <path d="M -753.3146 1259.17143 L -753.3146 1158.60854" />
    <path d="M -713.78269 1157.2759 L -713.78269 1244.37337 L -683.26636 1253.13622" />
    <path d="M -713.78269 1244.37337 L -753.3146 1259.17143" />
    <path d="M -1926.42741 809.0615 L -1926.42741 896.15896 L -1965.95932 910.95702 L -1965.95932 810.39414" />
    <path d="M -1926.42741 896.15896 L -1816.5771 927.70279" />
    <path d="M -1623.26623 896.1151 L -1623.26623 946.12674" />
    <path d="M -1480.17185 1024.30252 L -1368.66409 1056.32229" />
    <path d="M -1320.10505 983.1687 L -1320.10505 1070.26616 L -1359.63696 1085.06423 L -1359.63696 984.50134" />
    <path d="M -1320.10505 1070.26616 L -1065.50291 1143.37589" />
    <path d="M -1016.94387 1070.2223 L -1016.94387 1157.31976 L -1056.47578 1172.11783 L -1056.47578 1071.55494" />
    <path d="M -1016.94387 1157.31976 L -762.34173 1230.4295" />
    <path d="M -713.78269 1281.85986 L -713.78269 1387.9719 L -672.29626 1372.4422" />
    <path d="M -1016.94387 1194.80626 L -1016.94387 1300.9183 L -888.72869 1252.92324" />
    <path d="M -1320.10505 1107.75266 L -1320.10505 1213.8647 L -1191.88987 1165.86964" />
    <path d="M -1926.42741 933.64545 L -1926.42741 1039.75749 L -1911.96857 1034.34508" />
    <path d="M -762.34173 1256.57926 L -762.34173 1156.01638" />
    <path d="M -1065.50291 1169.52566 L -1065.50291 1068.96278" />
    <path d="M -1368.66409 1082.47206 L -1368.66409 981.90917" />
    <path d="M -1662.79814 934.77504 L -1662.79814 897.44774" />
    <path d="M -1671.82527 932.18287 L -1671.82527 894.85557" />
    <path d="M -1974.98646 908.36486 L -1974.98646 807.80197" />
    <path d="M -2278.14764 821.31125 L -2278.14764 720.74837" />
    <path d="M -2278.14764 821.31125 L -2285.8207 819.10791 L -2278.14764 816.23564" />
    <path d="M -2285.8207 819.10791 L -2285.8207 830.44464" />
    <path d="M -2278.14764 832.64798 L -2285.8207 830.44464" />
    <path d="M -2278.14764 1021.5887 L -2278.14764 832.64798" />
    <path d="M -2278.14764 1021.5887 L -2269.1205 1024.18086 L -2269.1205 835.24015" />
    <path d="M -1974.98646 919.70158 L -2269.1205 835.24015" />
    <path d="M -1974.98646 1108.6423 L -1974.98646 919.70158" />
    <path d="M -1974.98646 1108.6423 L -1965.95932 1111.23446 L -1965.95932 922.29375" />
    <path d="M -1867.58282 950.54285 L -1965.95932 922.29375" />
    <path d="M -1368.66409 1093.80879 L -1462.93823 1066.7377" />
    <path d="M -1368.66409 1282.7495 L -1368.66409 1093.80879" />
    <path d="M -1368.66409 1282.7495 L -1359.63696 1285.34167 L -1359.63696 1096.40095" />
    <path d="M -1065.50291 1180.86239 L -1359.63696 1096.40095" />
    <path d="M -1065.50291 1369.8031 L -1065.50291 1180.86239" />
    <path d="M -1065.50291 1369.8031 L -1056.47578 1372.39527 L -1056.47578 1183.45455" />
    <path d="M -762.34173 1267.91599 L -1056.47578 1183.45455" />
    <path d="M -762.34173 1456.8567 L -762.34173 1267.91599" />
    <path d="M -762.34173 1456.8567 L -753.3146 1459.44887 L -753.3146 1270.50816" />
    <path d="M -459.18055 1354.96959 L -753.3146 1270.50816" />
    <path d="M -459.18055 1543.91031 L -459.18055 1354.96959" />
    <path d="M -459.18055 1543.91031 L -451.50749 1546.11365 L -451.50749 1245.27332" />
    <path d="M -459.18055 1343.63286 L -459.18055 1243.06998" />
    <path d="M -459.18055 1343.63286 L -753.3146 1259.17143" />
    <path d="M -762.34173 1256.57926 L -1056.47578 1172.11783" />
    <path d="M -1065.50291 1169.52566 L -1359.63696 1085.06423" />
    <path d="M -1368.66409 1082.47206 L -1468.15005 1053.90438" />
    <path d="M -1856.10901 942.50086 L -1965.95932 910.95702" />
    <path d="M -2308.08098 690.81968 L -2310.18451 694.62328" />
    <path d="M -2478.95936 146.96088 L -2486.64282 149.83705" />
    <path d="M -2310.09991 -510.93501 L -2315.73848 -516.90929" />
    <path d="M -1892.08283 -931.21988 L -1892.08283 -936.50999" />
    <path d="M 328.56589 1254.10715 L 328.56589 1254.11187" />
    <path d="M -428.29237 1537.42821 L 328.56589 1254.11187" />
    <path d="M -428.29237 1537.42348 L -451.50749 1546.11365" />
    <path d="M -401.26901 1191.36751 L -401.26901 1431.32822 L -328.52538 1452.21676 L -152.80602 1386.43937 L -152.80602 1146.47866 L -225.54966 1125.59011" />
    <path d="M -401.26901 1191.36751 L -225.54966 1125.59011" />
    <path d="M -119.04409 909.94077 L 1.41485 944.5309" />
    <path d="M 49.97389 995.96126 L 49.97389 1158.75221 L 26.75878 1167.44237 L 178.08082 1210.89493" />
    <path d="M 308.1339 619.59158 L 308.1339 820.24845" />
    <path d="M 418.48969 270.6477 A 500 311.22395 106.02157 0 1 308.1339 619.59158 L 315.80696 621.79492" />
    <path d="M 308.1339 -90.14946 A 500 311.22395 106.02157 0 1 419.18821 259.0495" />
    <path d="M 308.1339 -278.49708 L 308.1339 -228.39873" />
    <path d="M 307.74425 -287.23165 L 308.1339 -278.49708 L 315.80696 -276.29374" />
    <path d="M 283.17968 -330.72068 A 75 46.68359 106.02157 0 1 307.74425 -287.23165 L 315.41731 -285.02831" />
    <path d="M -699.1022 1181.93996 L -683.26646 1176.01214" />
    <path d="M -699.1022 1175.96865 L -683.26646 1170.04083" />
    <path d="M -683.26646 1232.69577 L -699.1022 1238.62359" />
    <path d="M -803.0372 1277.5298 L -1033.26066 1363.70983" />
    <path d="M -1033.26066 1363.70511 L -1056.47578 1372.39527" />
    <path d="M -1624.90959 431.80531 A 765 476.17265 106.02157 0 1 -1778.20623 576.31234" />
    <path d="M -1860.68351 552.62875 A 690.9233 430.06376 286.02157 0 0 -1850.88903 548.06607" />
    <path d="M -1803.66315 521.75326 A 690.9233 430.06376 286.02157 0 0 -1663.55343 397.49193" />
    <path d="M -1638.89919 367.1193 A 690.9233 430.06376 286.02157 0 0 -1620.7412 342.71297" />
    <path d="M -1016.94387 1294.94699 L -897.75582 1250.33108" />
    <path d="M -1320.10505 1207.89338 L -1200.917 1163.27747" />
    <path d="M -1926.42741 1033.78618 L -1908.02376 1026.8971" />
    <path d="M 263.7505 1043.65762 L 308.1339 1056.40244" />
    <path d="M 260.19263 1044.98945 L 263.7505 1043.65762" />
    <path d="M 263.7505 1054.99435 L 263.7505 1043.65762" />
    <path d="M -119.04409 1165.34216 L 10.44198 1116.87137" />
    <path d="M 26.75878 1167.44237 L 26.75878 1167.4471 L -119.04409 1222.02579" />
    <path d="M -591.44222 1398.85957 L -730.09948 1450.76343" />
    <path d="M -730.09948 1450.75871 L -753.3146 1459.44887" />
    <path d="M -713.78269 1382.00059 L -677.523 1368.42742" />
    <path d="M -119.04409 1159.37085 L 1.41485 1114.2792" />
    <path d="M -658.17002 1022.76481 L -699.1022 1038.08703" />
    <path d="M -1106.19838 1190.4762 L -1336.42184 1276.65623" />
    <path d="M -1336.42184 1276.6515 L -1359.63696 1285.34167" />
    <path d="M -1409.35956 1103.4226 L -1442.93559 1115.99118" />
    <path d="M -1949.41223 1105.04036 L -1965.95932 1111.23446" />
    <path d="M 308.1339 1091.35735 L 315.80696 1093.56069" />
    <path d="M -648.60717 1278.14661 L -459.18055 1332.54101" />
    <path d="M -648.60717 1099.02633 L -552.49885 1126.62411" />
    <path d="M -658.09618 1052.02127 A 101.6 33.31032 180 0 0 -683.26646 1073.96828 L -683.26646 1103.2254" />
    <path d="M -683.26646 1073.96828 A 101.6 33.31032 180 0 0 -648.60717 1099.02633" />
    <path d="M -599.13751 1029.95115 L -658.09618 1052.02127" />
    <path d="M -648.60717 1278.14661 A 101.6 33.31032 0 0 1 -683.26636 1253.13622" />
    <path d="M -683.26646 1357.38644 A 101.6 33.31032 180 0 0 -648.60717 1382.44449 L -648.60717 1300.57519" />
    <path d="M -2278.14764 1014.14446 L -2293.37771 1019.84557 L -2293.37771 1097.8328 L -1991.50641 1184.516" />
    <path d="M -2293.37771 1019.84557 L -1955.65345 1116.82405" />
    <path d="M -1374.8676 1283.59838 L -451.89546 1548.63247 L -451.89546 1626.6197 L -424.70409 1616.4411 L -424.70409 1538.45387 L -451.89546 1548.63247" />
    <path d="M -428.29237 1537.42348 L -424.70409 1538.45387" />
    <path d="M -730.09948 1450.75871 L -459.18055 1528.55386" />
    <path d="M -1033.26066 1363.70511 L -762.34173 1441.50025" />
    <path d="M -1336.42184 1276.6515 L -1065.50291 1354.44665" />
    <path d="M -1383.13659 1263.23723 L -1368.66409 1267.39305" />
    <path d="M -2245.90539 1015.4907 L -1974.98646 1093.28585" />
    <path d="M -2245.90539 1015.4907 L -2269.1205 1024.18086" />
    <path d="M -2015.68193 929.31539 L -2245.90539 1015.49542" />
    <path d="M -77.30226 1306.49301 A 75 46.68359 106.02157 0 1 -94.08987 1308.563" />
    <path d="M 258.71901 1180.70947 L -77.30226 1306.49301 L -69.6292 1308.69635" />
    <path d="M 308.03639 1095.84284 A 75 46.68359 106.02157 0 1 258.71901 1180.70947 L 266.39207 1182.91281" />
    <path d="M -119.04409 1125.57466 L -67.9527 1140.2457" />
    <path d="M 359.34554 1244.95894 L 332.15417 1255.13754" />
    <path d="M -119.04409 1107.58798 L -40.76134 1130.0671" />
    <path d="M 49.97389 1156.12198 L 205.27218 1200.71633" />
    <path d="M 351.781 1242.78676 L 359.34554 1244.95894" />
    <path d="M -91.13129 1211.57713 L 60.18361 1255.02764" />
    <path d="M 332.13537 1311.3013 L 332.13537 1259.64321 L 321.75341 1256.662" />
    <path d="M -112.11236 1156.77608 L -112.11236 1132.0762 L -119.04409 1130.08574" />
    <path d="M -401.26901 1191.36751 L -328.52538 1212.25605 L -152.80602 1146.47866" />
    <path d="M -328.52538 1452.21676 L -328.52538 1212.25605" />
    <path d="M -648.60717 1382.44449 L -459.18055 1436.83889" />
    <path d="M -1452.91736 1339.17339 L -451.89546 1626.6197" />
    <path d="M 348.44937 1327.02495 L 359.34554 1322.94616 L 359.34554 1244.95894" />
    <path d="M -1202.14076 1315.2107 L -1065.50291 1264.06277" />
    <path d="M -1016.94387 1245.88556 L -971.92444 1229.03335" />
    <path d="M -1306.39874 1285.27273 L -1076.18242 1199.09537" />
    <path d="M -699.1022 1057.94214 L -628.15406 1031.38398" />
    <path d="M -424.72289 1611.92463 L -386.11865 1597.47382" />
    <path d="M 590.69326 1660.9638 L -386.11865 1597.47382" />
    <path d="M 594.70407 1654.33082 L 590.69326 1660.9638 L 590.69326 1591.99871 L 594.70407 1585.36574 L 594.70407 1654.33082 Z" />
    <path d="M 614.23026 1652.15314 L 594.70407 1654.33082" />
    <path d="M -197.75783 1526.96432 L 262.14845 1354.80664" />
    <path d="M 486.94449 1571.46801 L 262.14845 1354.80664" />
    <path d="M 293.53112 1274.09402 L 332.13537 1259.64321" />
    <path d="M 614.23026 1583.18806 L 293.53112 1274.09402" />
    <path d="M 594.70407 1585.36574 L 614.23026 1583.18806 L 614.23026 1652.15314" />
    <path d="M 590.69326 1591.99871 L -386.11865 1528.50873 L -386.11865 1597.47382" />
    <path d="M -424.72289 1542.95954 L -386.11865 1528.50873" />
    <path d="M -354.73597 1516.76119 L 262.14845 1285.84156 L 262.14845 1354.80664" />
    <path d="M 563.6733 1576.45517 L -354.73597 1516.76119" />
    <path d="M 563.6733 1576.45517 L 262.14845 1285.84156" />
    <path d="M -893.18178 1403.92916 L -762.34173 1354.95153" />
    <path d="M -713.78269 1336.77432 L -683.26646 1325.35112" />
    <path d="M -862.15101 1412.83973 L -762.34173 1375.47792" />
    <path d="M -713.78269 1357.30071 L -683.26646 1345.87751" />
    <path d="M -119.04409 1134.67097 L -112.11236 1132.0762" />
    <path d="M -2124.07422 1050.47487 L -1974.98646 994.66653" />
    <path d="M -1926.42741 976.48932 L -1893.8579 964.29751" />
    <path d="M -2228.3322 1020.53689 L -1998.11588 934.35953" />
    <path d="M -1365.57558 1306.47856 L -1470.17044 1345.63177 L -1601.81611 1021.47413 L -1865.10746 945.86926 L -1996.75313 1194.42204 L -1470.17044 1345.63177" />
    <path d="M -1497.22126 982.32092 L -1601.81611 1021.47413" />
    <path d="M -1365.57558 1306.47856 L -1497.22126 982.32092 L -1760.5126 906.71605 L -1865.10746 945.86926" />
    <path d="M 998.55591 765.85849 L 998.55591 683.9892" />
    <path d="M 998.55591 661.56061 L 998.55591 559.40524" />
    <path d="M 998.55591 496.59191 L 998.55591 482.44033" />
    <path d="M -648.60717 1278.14661 L -648.60717 1175.99124" />
    <path d="M -648.60717 1113.17791 L -648.60717 1099.02633" />
    <path d="M 963.89662 457.38228 L 963.89662 486.6394" />
    <path d="M 963.89662 549.45273 L 963.89662 636.55019" />
    <path d="M 963.89662 674.03668 L 963.89662 740.80044" />
    <path d="M 928.91758 264.0971 L 765.1772 217.07858" />
    <path d="M 707.42361 200.49447 L 550.57489 155.45491" />
    <path d="M 404.26242 113.44087 L 248.76778 68.79014" />
    <path d="M 198.03744 54.22278 L 158.85484 42.97138" />
    <path d="M 101.10124 26.38727 L -54.3934 -18.26346" />
    <path d="M -105.12374 -32.83083 L -119.04409 -36.8281" />
    <path d="M -409.67055 -120.28232 L -425.15221 -124.72792" />
    <path d="M -939.73948 817.08047 L -1185.14707 746.61098" />
    <path d="M -1242.90066 730.02687 L -1488.30825 659.55738" />
    <path d="M -1546.06184 642.97327 L -1791.46943 572.50377" />
    <path d="M -1849.22302 555.91967 L -2072.31529 491.85808" />
    <path d="M -683.26646 1166.03872 L -683.26646 1253.13619" />
    <path d="M -683.26646 1290.62268 L -683.26646 1357.38644" />
</svg>