<svg version="1.1" xmlns="http://www.w3.org/2000/svg" viewBox="-2593.732144159649 -1009.0250417538808 4666.16241564933 2640.033031365065" fill="none" stroke="black" stroke-width="0.6%" vector-effect="non-scaling-stroke">
    <path d="M 1978.67501 849.42572 L 2041.8466 838.9708 L 2057.49547 839.71837 L 2058.98082 836.13508 L 2068.56216 834.54937 L 2061.63706 829.72711 L 2071.43027 806.10177 L 2024.48913 803.85931 L 1648.81247 542.25856" />
    <path d="M 1957.90215 834.96063 L 1978.67501 849.42572 L 1978.67501 943.48711 L 2041.8466 933.03219 L 2057.49547 933.77977 L 2058.98082 930.19647 L 2068.56216 928.61076" />
    <path d="M 1108.97279 794.40584 L 1957.90215 834.96063" />
    <path d="M 1108.97279 794.40584 L 1175.55977 763.30452" />
    <path d="M 1905.04419 798.15323 L 1175.55977 763.30452" />
    <path d="M 1582.22549 573.35988 L 1905.04419 798.15323" />
    <path d="M 1582.22549 573.35988 L 1648.81247 542.25856" />
    <path d="M 2041.8466 838.9708 L 2041.8466 933.03219" />
    <path d="M 1957.90215 929.02203 L 1978.67501 943.48711" />
    <path d="M 1957.90215 929.02203 L 1957.90215 834.96063" />
    <path d="M 1108.97279 888.46724 L 1957.90215 929.02203" />
    <path d="M 1108.97279 794.40584 L 1108.97279 888.46724" />
    <path d="M 1020.49164 536.19825 A 914.4 505.67545 103.86015 0 1 841.29114 -21.17986 L 833.04023 -23.21567" />
    <path d="M 1020.49164 536.19825 L 1020.49164 931.29983 L 1111.89594 888.60688" />
    <path d="M 1361.17969 772.1719 L 1583.51907 668.32205" />
    <path d="M 1730.95484 599.45803 L 1737.29362 596.49733 L 1737.29362 201.39575" />
    <path d="M 1916.49412 -523.38361 A 914.4 505.67545 103.86015 0 1 1737.29362 201.39575" />
    <path d="M 1916.49412 -523.38361 L 1725.74407 -434.28845 L 1717.49316 -436.32425 A 590.15 326.36086 103.86015 0 1 1233.40708 285.3683" />
    <path d="M 1725.74407 -434.28845 A 590.15 326.36086 103.86015 0 1 1237.52055 286.43476 A 590.15 326.36086 103.86015 0 1 1032.04119 -110.27503 L 1023.79027 -112.31084 L 833.04023 -23.21567" />
    <path d="M 1032.04119 -110.27503 L 841.29114 -21.17986" />
    <path d="M 1582.22549 573.35988 L 1582.22549 667.42127 L 1760.01614 791.22499" />
    <path d="M 2071.43027 806.10177 L 2071.43027 900.16316" />
    <path d="M 2068.56216 907.08226 L 2071.43027 900.16316" />
    <path d="M 2068.56216 834.54937 L 2068.56216 928.61076" />
    <path d="M 2058.98082 930.19647 L 2058.98082 836.13508" />
    <path d="M 2057.49547 839.71837 L 2057.49547 933.77977" />
    <path d="M 1012.24072 534.16245 L 1020.49164 536.19825" />
    <path d="M 1012.24072 534.16245 A 914.4 505.67545 103.86015 0 1 833.04023 -23.21567" />
    <path d="M 1916.49412 -523.38361 L 1908.2432 -525.41942 L 1717.49316 -436.32425" />
    <path d="M 1412.75766 121.32074 L 1412.75766 128.7236" />
    <path d="M 1086.76565 40.88647 L 1086.76565 149.42532" />
    <path d="M 1012.24072 833.69764 L 1012.24072 534.16245" />
    <path d="M -59.17078 664.90722 L -40.72125 669.4594" />
    <path d="M 2.41149 680.10185 L 128.15339 711.12702" />
    <path d="M 326.94746 760.17686 L 1020.49164 931.29983" />
    <path d="M -943.71131 200.81255 L -943.71131 51.55683 L -934.00435 53.95189 A 914.4 505.67545 103.86015 0 1 -1072.87118 -195.40369" />
    <path d="M -934.00435 158.59183 L -934.00435 53.95189" />
    <path d="M -617.7193 281.24682 L -617.7193 131.9911 A 914.4 505.67545 103.86015 0 1 -752.6042 -104.1292" />
    <path d="M -617.7193 131.9911 L -608.01235 134.38616 A 914.4 505.67545 103.86015 0 1 -746.87917 -114.96942" />
    <path d="M -608.01235 239.0261 L -608.01235 134.38616" />
    <path d="M 74.71037 602.37427 L 168.72374 625.57085" />
    <path d="M 359.73447 672.70025 L 360.25671 672.8291 L 360.25671 671.16921" />
    <path d="M 369.96367 675.22417 L 369.96367 641.74478" />
    <path d="M 369.96367 675.22417 L 686.24872 753.26337 L 686.24872 453.72818 A 914.4 505.67545 103.86015 0 1 507.04822 -103.64994" />
    <path d="M 686.24872 453.72818 L 695.95568 456.12324 A 914.4 505.67545 103.86015 0 1 516.75518 -101.25487 L 507.04822 -103.64994" />
    <path d="M 695.95568 755.65844 L 695.95568 456.12324" />
    <path d="M 695.95568 755.65844 L 1012.24072 833.69764" />
    <path d="M 968.80046 628.21862 L 695.95568 755.65844" />
    <path d="M 642.80845 547.78435 L 369.96367 675.22417" />
    <path d="M 74.71037 602.37427 L 75.06312 602.20951" />
    <path d="M 206.13785 519.04563 L 67.01956 584.02473" />
    <path d="M -661.15957 226.04727 L -866.55001 321.98064" />
    <path d="M -160.10813 712.05285 L -351.99056 664.70836" />
    <path d="M -396.03162 653.84181 L -433.86543 644.50681" />
    <path d="M -160.10813 712.05285 L -149.84082 707.25721" />
    <path d="M -89.84082 679.23252 L -33.94654 653.12553" />
    <path d="M 23.22854 626.4203 L 74.71037 602.37427" />
    <path d="M 552.03087 -117.73137 L 516.75518 -101.25487" />
    <path d="M 623.76227 262.63459 A 854.4 472.49465 103.86015 0 1 552.03087 -117.73137 L 542.32391 -120.12644 L 507.04822 -103.64994" />
    <path d="M 613.41057 267.46965 L 623.76227 262.63459" />
    <path d="M 613.41057 295.68806 L 613.41057 267.46965 L 889.41174 335.56933 L 889.94259 335.32138" />
    <path d="M 731.23136 413.89 A 854.4 472.49465 103.86015 0 1 644.26076 303.29995" />
    <path d="M 731.23136 413.89 L 731.23136 682.7451 L 889.73679 608.71069 L 880.02983 606.31563 L 731.23136 569.60155" />
    <path d="M 1556.68247 -586.98212 A 854.4 472.49465 103.86015 0 1 1379.97952 107.49466" />
    <path d="M 1591.95815 -603.45862 L 1556.68247 -586.98212 L 1546.97551 -589.37719 A 854.4 472.49465 103.86015 0 1 1379.97952 86.99728" />
    <path d="M 1591.95815 -603.45862 A 914.4 505.67545 103.86015 0 1 1412.75766 121.32074" />
    <path d="M 731.23136 675.81613 L 880.02983 606.31563" />
    <path d="M 1582.2512 -605.85369 L 1546.97551 -589.37719" />
    <path d="M 1591.95815 -603.45862 L 1582.2512 -605.85369" />
    <path d="M 245.25907 170.18554 A 914.4 505.67545 103.86015 0 1 200.77319 -21.16135" />
    <path d="M 405.23936 513.60582 L 405.23936 602.31083 L 563.74478 528.27642 L 554.03783 525.88136 L 410.44571 490.45187" />
    <path d="M 1051.48996 50.15223 L 1051.48996 31.60623" />
    <path d="M 1135.5131 -152.25573 A 854.4 472.49465 103.86015 0 1 1051.48996 31.60623" />
    <path d="M 1169.31076 -224.87715 L 1158.95905 -220.04209 L 1149.2521 -222.43716" />
    <path d="M 1230.69046 -667.41639 A 854.4 472.49465 103.86015 0 1 1158.95905 -220.04209" />
    <path d="M 1265.96615 -683.89289 L 1230.69046 -667.41639 L 1220.9835 -669.81146 A 854.4 472.49465 103.86015 0 1 1149.2521 -222.43716" />
    <path d="M 1265.96615 -683.89289 A 914.4 505.67545 103.86015 0 1 1190.18072 -208.1903" />
    <path d="M 1183.10788 -186.43075 A 914.4 505.67545 103.86015 0 1 1086.76565 40.88647" />
    <path d="M 246.94925 197.72907 A 914.4 505.67545 103.86015 0 1 188.24766 -47.23179" />
    <path d="M 405.23936 595.38186 L 554.03783 525.88136" />
    <path d="M 1120.94204 -141.79311 A 854.4 472.49465 103.86015 0 1 1045.42751 22.5627" />
    <path d="M 1256.25919 -686.28796 L 1220.9835 -669.81146" />
    <path d="M 1265.96615 -683.89289 L 1256.25919 -686.28796" />
    <path d="M -301.66794 392.01637 L -300.30309 395.10199" />
    <path d="M -272.98817 456.85519 L -160.10813 712.05285" />
    <path d="M 50.28555 546.19271 L 75.06312 602.20951" />
    <path d="M -66.49668 282.17303 L 23.15485 484.85599" />
    <path d="M -301.66794 392.01637 L -299.16731 390.84838" />
    <path d="M -248.64384 367.24997 L -66.49668 282.17303" />
    <path d="M 43.97167 399.89464 L 43.97167 295.2547 A 914.4 505.67545 103.86015 0 1 -128.95235 -134.01043" />
    <path d="M -28.22174 101.76605 A 854.4 472.49465 103.86015 0 1 -93.56938 -153.86452" />
    <path d="M -38.57345 106.60111 L -28.22174 101.76605" />
    <path d="M -38.57345 134.81952 L -38.57345 106.60111 L 76.60454 135.01977" />
    <path d="M 69.1491 243.79464 A 854.4 472.49465 103.86015 0 1 -7.72325 142.43141" />
    <path d="M 79.24735 439.74119 L 79.24735 521.87656 L 222.6946 454.8755" />
    <path d="M 843.31876 -305.31142 L 832.96705 -300.47636 L 823.26009 -302.87143" />
    <path d="M 904.69846 -747.85066 A 854.4 472.49465 103.86015 0 1 832.96705 -300.47636" />
    <path d="M 939.97414 -764.32716 L 904.69846 -747.85066 L 894.9915 -750.24573 A 854.4 472.49465 103.86015 0 1 823.26009 -302.87143" />
    <path d="M 939.97414 -764.32716 A 914.4 505.67545 103.86015 0 1 867.54605 -299.33365" />
    <path d="M -291.7273 226.85212 L -291.7273 212.42537 L -282.02034 214.82043 A 914.4 505.67545 103.86015 0 1 -344.10027 138.66431" />
    <path d="M -291.7273 212.42537 A 914.4 505.67545 103.86015 0 1 -347.39417 145.90571" />
    <path d="M -443.65595 -87.22602 A 914.4 505.67545 103.86015 0 1 -470.92779 -344.95275" />
    <path d="M -435.65211 -361.42925 L -470.92779 -344.95275" />
    <path d="M 568.99949 -830.68 A 854.4 472.49465 103.86015 0 1 497.26809 -383.3057" />
    <path d="M 604.27518 -847.1565 L 568.99949 -830.68" />
    <path d="M -349.61629 212.31696 L -291.7273 226.60031" />
    <path d="M -379.37713 226.2176 L -349.61629 212.31696" />
    <path d="M -763.06432 -179.38576 A 914.4 505.67545 103.86015 0 1 -787.21284 -422.99195 L -796.9198 -425.38702" />
    <path d="M -751.93715 -439.46846 L -787.21284 -422.99195" />
    <path d="M -680.20575 -59.10249 A 854.4 472.49465 103.86015 0 1 -718.21448 -165.72404" />
    <path d="M -732.9795 -229.62229 A 854.4 472.49465 103.86015 0 1 -751.93715 -439.46846 L -761.64411 -441.86352 L -796.9198 -425.38702" />
    <path d="M -690.55746 -54.26743 L -680.20575 -59.10249" />
    <path d="M -690.55746 -26.04902 L -690.55746 -54.26743 L -575.37947 -25.84877" />
    <path d="M -582.83491 82.9261 A 854.4 472.49465 103.86015 0 1 -659.70726 -18.43713" />
    <path d="M 191.33475 -466.17996 L 180.98304 -461.3449 L 171.27608 -463.73997" />
    <path d="M 252.71444 -908.7192 A 854.4 472.49465 103.86015 0 1 180.98304 -461.3449" />
    <path d="M 287.99013 -925.19571 L 252.71444 -908.7192 L 243.00749 -911.11427 A 854.4 472.49465 103.86015 0 1 171.27608 -463.73997" />
    <path d="M 287.99013 -925.19571 A 914.4 505.67545 103.86015 0 1 215.56204 -460.20219" />
    <path d="M -769.64796 -167.66029 A 914.4 505.67545 103.86015 0 1 -796.9198 -425.38702" />
    <path d="M 278.28318 -927.59077 L 243.00749 -911.11427" />
    <path d="M 287.99013 -925.19571 L 278.28318 -927.59077" />
    <path d="M -1089.05633 -259.82003 A 914.4 505.67545 103.86015 0 1 -1113.20485 -503.42622 L -1122.9118 -505.82129" />
    <path d="M -820.83862 -639.98408 L -941.33819 -583.70137" />
    <path d="M -990.57841 -560.70235 L -1113.20485 -503.42622" />
    <path d="M -799.60398 161.84751 L -799.60398 -4.25798" />
    <path d="M -799.60398 -214.20592 L -799.60398 -517.36823" />
    <path d="M -799.60398 -582.63795 L -799.60398 -628.58214" />
    <path d="M -799.25628 170.52687 L -799.60398 161.84751" />
    <path d="M -755.50937 211.79793 A 75 41.476 103.86015 0 1 -773.47583 214.06813 A 75 41.476 103.86015 0 1 -799.25628 170.52687" />
    <path d="M -711.97078 191.46201 L -755.50937 211.79793" />
    <path d="M -351.60274 -859.15388 L -351.60274 -554.59892" />
    <path d="M -38.00187 -1005.62998 L -351.60274 -859.15388 L -361.3097 -861.54895 L -361.3097 -552.0665" />
    <path d="M -38.00187 -1005.62998 A 914.4 505.67545 103.86015 0 1 -112.08283 -535.33199" />
    <path d="M -943.71131 51.55683 A 914.4 505.67545 103.86015 0 1 -1078.59621 -184.56347" />
    <path d="M -1095.63996 -248.09456 A 914.4 505.67545 103.86015 0 1 -1122.9118 -505.82129" />
    <path d="M -828.28294 -643.43598 L -944.15435 -589.31498" />
    <path d="M -993.62056 -566.2104 L -1122.9118 -505.82129" />
    <path d="M -765.21633 209.40286 A 75 41.476 103.86015 0 1 -778.19833 212.33976" />
    <path d="M -712.65014 184.85035 L -765.21633 209.40286 L -755.50937 211.79793" />
    <path d="M -361.3097 -437.5574 L -361.3097 -418.92358" />
    <path d="M -47.70883 -1008.02504 L -361.3097 -861.54895" />
    <path d="M -38.00187 -1005.62998 L -47.70883 -1008.02504" />
    <path d="M -417.19308 363.51205 L -301.66794 392.01637" />
    <path d="M -985.97254 -127.15725 L -901.02252 -166.83554" />
    <path d="M -856.1588 -187.7904 L -780.66091 -223.05381" />
    <path d="M -735.64815 -244.07829 L -721.40488 -250.73101 L -719.63477 -250.29425" />
    <path d="M 1134.15119 221.2569 L 1153.9794 211.99557 A 50 27.65067 103.86015 0 1 1165.95704 210.4821 L 1115.67565 198.07583" />
    <path d="M 445.26671 225.98235 L 564.10347 255.30376" />
    <path d="M 120.73075 145.90733 L 238.11146 174.86949" />
    <path d="M -293.37481 43.7322 L -249.38747 54.5855" />
    <path d="M -205.26126 65.47306 L -87.88054 94.43522" />
    <path d="M -531.25326 -14.96121 L -486.26473 -3.86087" />
    <path d="M -985.97254 -127.15725 L -901.37148 -106.28304" />
    <path d="M -857.24527 -95.39548 L -812.25673 -84.29514" />
    <path d="M -768.13053 -73.40758 L -739.86455 -66.43332" />
    <path d="M 889.41174 363.78775 L 889.41174 335.56933" />
    <path d="M 613.41057 295.68806 L 889.41174 363.78775" />
    <path d="M -985.97254 -98.93883 L -902.46926 -78.33549" />
    <path d="M -858.74594 -67.54733 L -823.88202 -58.94511" />
    <path d="M -780.15869 -48.15695 L -727.54718 -35.17575" />
    <path d="M -690.55746 -26.04902 L -576.47726 2.09878" />
    <path d="M -532.75393 12.88694 L -497.89001 21.48916" />
    <path d="M -308.00528 68.34074 L -250.48525 82.53305" />
    <path d="M -206.76193 93.32121 L -75.56317 125.69279" />
    <path d="M -38.57345 134.81952 L 75.50675 162.96732" />
    <path d="M 119.23008 173.75548 L 247.2527 205.34339" />
    <path d="M 443.76604 253.83049 L 576.42084 286.56133" />
    <path d="M 900.111 361.47548 L 889.41174 363.78775" />
    <path d="M 1012.24072 638.93694 L 889.73679 608.71069" />
    <path d="M 1500.61209 150.40053 L 1379.97952 120.63602" />
    <path d="M 1319.97952 105.8318 L 1274.60175 94.63543 L 1101.03608 175.70415" />
    <path d="M 1500.61209 165.4121 L 1500.61209 150.40053" />
    <path d="M 686.24872 558.50267 L 563.74478 528.27642" />
    <path d="M 1047.03823 30.50783 L 1051.48996 31.60623" />
    <path d="M 1033.13543 -78.74433 L 1190.18072 -191.50934 L 1190.18072 -219.72776 L 925.61306 -96.154" />
    <path d="M 1169.31076 -224.87715 L 1190.18072 -219.72776" />
    <path d="M -104.08034 -539.06977 L -128.97375 -527.44261" />
    <path d="M -203.10329 -492.81832 L -301.85241 -446.69477" />
    <path d="M -352.12804 -423.21213 L -368.648 -415.49602 L -343.93238 -409.39776" />
    <path d="M 843.31876 -305.31142 L 1151.42377 -229.29053" />
    <path d="M 517.32675 -385.74569 L 825.43176 -309.7248" />
    <path d="M 517.32675 -385.74569 L 506.97504 -380.91063 L 497.26809 -383.3057" />
    <path d="M 191.33475 -466.17996 L 499.43976 -390.15907" />
    <path d="M -104.08034 -539.06977 L 173.44775 -470.59334" />
    <path d="M 34.26471 292.85964 L 43.97167 295.2547" />
    <path d="M 34.26471 442.11536 L 34.26471 292.85964 A 914.4 505.67545 103.86015 0 1 -137.79525 -128.13612" />
    <path d="M 79.24735 514.94759 L 224.40405 447.14808" />
    <path d="M 930.26719 -766.72223 L 894.9915 -750.24573" />
    <path d="M -281.66758 229.08242 L -265.99104 232.9504" />
    <path d="M -223.69226 243.38707 L -66.49668 282.17303" />
    <path d="M -281.66758 229.08242 L -282.02034 229.24718 L -282.02034 214.82043" />
    <path d="M -291.7273 226.85212 L -282.02034 229.24718" />
    <path d="M 939.97414 -764.32716 L 930.26719 -766.72223" />
    <path d="M -437.07232 -98.95149 A 914.4 505.67545 103.86015 0 1 -461.22084 -342.55768 L -470.92779 -344.95275" />
    <path d="M -425.94515 -359.03419 L -435.65211 -361.42925" />
    <path d="M -425.94515 -359.03419 L -461.22084 -342.55768" />
    <path d="M -406.98749 -149.18802 A 854.4 472.49465 103.86015 0 1 -425.94515 -359.03419" />
    <path d="M -256.8429 163.36037 A 854.4 472.49465 103.86015 0 1 -318.57503 87.40016" />
    <path d="M 578.70645 -828.28493 A 854.4 472.49465 103.86015 0 1 506.97504 -380.91063" />
    <path d="M 578.70645 -828.28493 L 568.99949 -830.68" />
    <path d="M 613.98214 -844.76144 L 604.27518 -847.1565" />
    <path d="M 613.98214 -844.76144 L 578.70645 -828.28493" />
    <path d="M 613.98214 -844.76144 A 914.4 505.67545 103.86015 0 1 541.55404 -379.76792" />
    <path d="M -985.97254 -98.93883 L -985.97254 -127.15725" />
    <path d="M -617.7193 236.76559 L -709.64632 214.08379 L -735.45907 -37.1279" />
    <path d="M -718.6269 -251.81807 A 50 27.65067 283.86015 0 0 -721.40488 -250.73101" />
    <path d="M 1165.95704 210.4821 A 50 27.65067 103.86015 0 1 1183.3758 245.29585 L 1183.3758 263.3676" />
    <path d="M -9.17556 386.91581 L -18.28453 391.17041" />
    <path d="M 224.93734 444.68011 L 85.90974 410.37686" />
    <path d="M 34.26471 397.63413 L -21.51291 383.87173" />
    <path d="M 1220.3769 281.29225 L 1500.61209 150.40053" />
    <path d="M 1374.24691 146.08058 A 30 10.18434 360 0 1 1319.97952 140.09291" />
    <path d="M 1379.97952 140.09291 A 30 10.18434 360 0 1 1374.24691 146.08058" />
    <path d="M -398.04441 -354.7349 L -307.33296 -332.35304" />
    <path d="M 402.65111 -157.17374 L 871.93711 -41.38355" />
    <path d="M -398.04441 -354.7349 L -398.04441 -175.41483" />
    <path d="M 898.28542 -53.69027 A 50 27.65067 103.86015 0 1 925.61306 -96.154" />
    <path d="M -368.648 -415.49602 A 50 27.65067 283.86015 0 0 -398.04441 -354.7349" />
    <path d="M 1374.24691 -136.1036 A 30 10.18434 360 0 1 1319.97952 -142.09127 L 1319.97952 140.09291" />
    <path d="M 1319.97952 -142.09127 A 30 10.18434 360 0 1 1379.97952 -142.09127 L 1379.97952 140.09291" />
    <path d="M 1379.97952 -142.09127 A 30 10.18434 360 0 1 1374.24691 -136.1036" />
    <path d="M 508.85467 1535.94659 L 572.02626 1525.49168 L 572.02626 1619.55307 L 587.67513 1620.30064 L 589.16048 1616.71735 L 598.74182 1615.13164" />
    <path d="M 488.08181 1521.48151 L 508.85467 1535.94659 L 508.85467 1630.00799 L 572.02626 1619.55307" />
    <path d="M -360.84755 1480.92672 L 488.08181 1521.48151" />
    <path d="M -360.84755 1480.92672 L -294.26057 1449.8254" />
    <path d="M 435.22385 1484.6741 L -294.26057 1449.8254" />
    <path d="M 112.40515 1259.88075 L 435.22385 1484.6741" />
    <path d="M 112.40515 1259.88075 L 178.99213 1228.77943" />
    <path d="M 554.66879 1490.38019 L 178.99213 1228.77943" />
    <path d="M 601.60993 1492.62265 L 554.66879 1490.38019" />
    <path d="M 591.81672 1516.24798 L 601.60993 1492.62265 L 601.60993 1586.68404" />
    <path d="M 598.74182 1521.07024 L 591.81672 1516.24798" />
    <path d="M 589.16048 1522.65596 L 598.74182 1521.07024 L 598.74182 1615.13164" />
    <path d="M 587.67513 1526.23925 L 589.16048 1522.65596" />
    <path d="M 572.02626 1525.49168 L 587.67513 1526.23925 L 587.67513 1620.30064" />
    <path d="M 488.08181 1615.5429 L 508.85467 1630.00799" />
    <path d="M 488.08181 1615.5429 L 488.08181 1521.48151" />
    <path d="M -360.84755 1574.98811 L 488.08181 1615.5429" />
    <path d="M -360.84755 1480.92672 L -360.84755 1574.98811" />
    <path d="M -449.3287 1222.71913 L -449.3287 1617.8207 L -357.9244 1575.12775" />
    <path d="M -108.64065 1458.69278 L 113.69873 1354.84293" />
    <path d="M 261.1345 1285.97891 L 267.47328 1283.0182 L 267.47328 887.91663" />
    <path d="M -449.3287 1222.71913 A 914.4 505.67545 103.86015 0 1 128.11936 -473.53659 L 119.86844 -475.5724" />
    <path d="M 128.11936 -473.53659 A 914.4 505.67545 103.86015 0 1 267.47328 887.91663" />
    <path d="M 112.40515 1259.88075 L 112.40515 1353.94215 L 290.1958 1477.74587" />
    <path d="M -90.92771 -155.11448 A 590.15 326.36086 103.86015 0 1 50.44437 -172.97797 A 590.15 326.36086 103.86015 0 1 -232.29979 972.95564 A 590.15 326.36086 103.86015 0 1 -90.92771 -155.11448 Z" />
    <path d="M 598.74182 1593.60314 L 601.60993 1586.68404" />
    <path d="M 589.16048 1616.71735 L 589.16048 1522.65596" />
    <path d="M -457.57962 1520.21852 L -457.57962 1220.68332 A 914.4 505.67545 103.86015 0 1 119.86844 -475.5724" />
    <path d="M -457.57962 1220.68332 L -449.3287 1222.71913" />
    <path d="M -2421.78256 1131.14347 L -2160.39369 1195.63776" />
    <path d="M -1528.99112 1351.4281 L -449.3287 1617.8207" />
    <path d="M -2421.78256 1035.57709 L -2421.78256 1131.14347" />
    <path d="M -2421.78256 1035.57709 L -2413.53165 1037.6129 L -2413.53165 738.0777 A 914.4 505.67545 103.86015 0 1 -1836.08359 -958.17802" />
    <path d="M -2413.53165 738.0777 L -2403.82469 740.47277 A 914.4 505.67545 103.86015 0 1 -1826.37663 -955.78295 L -1836.08359 -958.17802" />
    <path d="M -2403.82469 1040.00796 L -2403.82469 740.47277" />
    <path d="M -2403.82469 1040.00796 L -2112.94383 1111.77902" />
    <path d="M -2087.53964 1066.88189 L -2087.53964 818.51197 A 914.4 505.67545 103.86015 0 1 -1510.09158 -877.74375" />
    <path d="M -2087.53964 818.51197 L -2077.83268 820.90704 A 914.4 505.67545 103.86015 0 1 -1500.38463 -875.34868 L -1510.09158 -877.74375" />
    <path d="M -2077.83268 1049.72666 L -2077.83268 820.90704" />
    <path d="M -1395.10997 1288.89515 L -1109.56363 1359.34998 L -1109.56363 1059.81478 A 914.4 505.67545 103.86015 0 1 -532.11557 -636.44094" />
    <path d="M -1109.56363 1059.81478 L -1099.85667 1062.20985 A 914.4 505.67545 103.86015 0 1 -522.40861 -634.04587 L -532.11557 -636.44094" />
    <path d="M -1099.85667 1361.74504 L -1099.85667 1062.20985" />
    <path d="M -1099.85667 1361.74504 L -783.57162 1439.78425 L -783.57162 1140.24905 A 914.4 505.67545 103.86015 0 1 -206.12356 -556.00667" />
    <path d="M -783.57162 1140.24905 L -773.86466 1142.64412 A 914.4 505.67545 103.86015 0 1 -196.4166 -553.6116 L -206.12356 -556.00667" />
    <path d="M -773.86466 1442.17931 L -773.86466 1142.64412" />
    <path d="M -773.86466 1442.17931 L -457.57962 1520.21852" />
    <path d="M -57.06268 807.84162 L -57.06268 815.24447" />
    <path d="M -383.05469 727.40735 L -383.05469 835.9462" />
    <path d="M 46.30693 -173.94731 A 590.15 326.36086 103.86015 0 1 -236.41326 971.88917" />
    <path d="M -2413.53165 1031.72327 L -2421.78256 1035.57709" />
    <path d="M -2130.97991 912.56814 L -2403.82469 1040.00796" />
    <path d="M -501.01988 1314.73949 L -773.86466 1442.17931" />
    <path d="M -827.01188 1234.30522 L -1099.85667 1361.74504" />
    <path d="M -1395.10997 1288.89515 L -1394.75722 1288.73038" />
    <path d="M -1153.00389 1153.87095 L -1402.80078 1270.54561" />
    <path d="M -1629.92847 1398.57372 L -2196.16769 1258.86159 L -2054.60788 1008.68118 L -1771.48827 1078.53724 L -1629.92847 1398.57372 L -1395.10997 1288.89515" />
    <path d="M -1761.54764 913.37299 L -1761.54764 898.94624 L -1751.84068 901.34131 A 914.4 505.67545 103.86015 0 1 -1174.39262 -794.91441 L -1184.09958 -797.30948" />
    <path d="M -1761.54764 898.94624 A 914.4 505.67545 103.86015 0 1 -1184.09958 -797.30948" />
    <path d="M -1193.63072 -737.81251 A 854.4 472.49465 103.86015 0 1 -1089.06121 -683.42459" />
    <path d="M -1044.81611 -640.11961 A 854.4 472.49465 103.86015 0 1 -946.75964 -458.45615" />
    <path d="M -930.52001 -402.5267 A 854.4 472.49465 103.86015 0 1 -972.55225 303.21518" />
    <path d="M -1819.43663 898.83784 L -1761.54764 913.12119" />
    <path d="M -2054.60788 1008.68118 L -1819.43663 898.83784" />
    <path d="M -1500.38463 -875.34868 A 914.4 505.67545 103.86015 0 1 -1353.91712 -789.01139" />
    <path d="M -1311.49752 -738.30785 A 914.4 505.67545 103.86015 0 1 -1232.60686 -579.84615" />
    <path d="M -1216.12032 -524.91738 A 914.4 505.67545 103.86015 0 1 -1198.9201 -15.55167" />
    <path d="M -2042.557 778.6738 L -2042.557 1003.05247" />
    <path d="M -1278.48559 220.34092 L -1288.8373 225.17597 L -1298.54426 222.78091" />
    <path d="M -2150.02609 627.41838 A 854.4 472.49465 103.86015 0 1 -1514.75779 -817.09568 A 854.4 472.49465 103.86015 0 1 -1410.92668 -765.90718" />
    <path d="M -1365.11742 -722.74952 A 854.4 472.49465 103.86015 0 1 -1266.24485 -545.91825" />
    <path d="M -1249.43793 -490.76333 A 854.4 472.49465 103.86015 0 1 -1288.8373 225.17597" />
    <path d="M -2160.37779 632.25344 L -2150.02609 627.41838" />
    <path d="M -2160.37779 660.47186 L -2160.37779 632.25344 L -1883.69289 700.52183" />
    <path d="M -2042.557 778.6738 A 854.4 472.49465 103.86015 0 1 -2129.5276 668.08374" />
    <path d="M -1519.62273 -818.24679 A 854.4 472.49465 103.86015 0 1 -1415.05322 -763.85886" />
    <path d="M -1370.80812 -720.55388 A 854.4 472.49465 103.86015 0 1 -1272.75165 -538.89042" />
    <path d="M -1256.51201 -482.96097 A 854.4 472.49465 103.86015 0 1 -1298.54426 222.78091" />
    <path d="M -1826.37663 -955.78295 A 914.4 505.67545 103.86015 0 1 -1679.90913 -869.44566" />
    <path d="M -1637.48953 -818.74212 A 914.4 505.67545 103.86015 0 1 -1558.59886 -660.28042" />
    <path d="M -1542.11233 -605.35165 A 914.4 505.67545 103.86015 0 1 -1524.9121 -95.98594" />
    <path d="M -1821.42308 -536.6506 L -1821.42308 -254.48992" />
    <path d="M -1821.42308 -127.98218 L -1821.42308 263.06339" />
    <path d="M -1821.77078 -545.32996 L -1821.42308 -536.6506" />
    <path d="M -1865.51769 -586.60102 A 75 41.476 103.86015 0 1 -1847.55123 -588.87122 A 75 41.476 103.86015 0 1 -1821.77078 -545.32996" />
    <path d="M -2225.32971 -418.54071 L -2073.61186 -489.40479" />
    <path d="M -1999.40275 -524.06624 L -1865.51769 -586.60102" />
    <path d="M -2269.33731 -331.8693 A 75 41.476 103.86015 0 1 -2225.32971 -418.54071" />
    <path d="M -2269.42432 -327.39904 L -2269.33731 -331.8693" />
    <path d="M -2269.42432 848.36839 L -2269.42432 633.56605" />
    <path d="M -2269.42432 472.31495 L -2269.42432 -327.39904" />
    <path d="M -2269.07662 857.04775 L -2269.42432 848.36839" />
    <path d="M -2225.32971 898.3188 A 75 41.476 103.86015 0 1 -2243.29617 900.58901 A 75 41.476 103.86015 0 1 -2269.07662 857.04775" />
    <path d="M -2181.79111 877.98288 L -2225.32971 898.3188" />
    <path d="M -1831.13004 -539.04567 L -1831.13004 -230.13543" />
    <path d="M -1831.13004 -97.06071 L -1831.13004 267.5973" />
    <path d="M -1831.47774 -547.72503 L -1831.13004 -539.04567 L -1821.42308 -536.6506" />
    <path d="M -1852.53569 -589.53792 A 75 41.476 103.86015 0 1 -1831.47774 -547.72503 L -1821.77078 -545.32996" />
    <path d="M -2235.03667 895.92374 A 75 41.476 103.86015 0 1 -2248.01867 898.86064" />
    <path d="M -2182.47048 871.37123 L -2235.03667 895.92374 L -2225.32971 898.3188" />
    <path d="M -196.4166 -553.6116 A 914.4 505.67545 103.86015 0 1 -49.9491 -467.27431" />
    <path d="M 100.29526 -149.41187 A 914.4 505.67545 103.86015 0 1 -57.06268 807.84162" />
    <path d="M -738.58898 1100.41088 L -738.58898 1369.26598 L -580.08355 1295.23157 L -589.79051 1292.8365 L -738.58898 1256.12242" />
    <path d="M -846.05806 949.15547 A 854.4 472.49465 103.86015 0 1 -210.78977 -495.3586 A 854.4 472.49465 103.86015 0 1 -106.95866 -444.1701" />
    <path d="M 53.80797 -171.73272 A 854.4 472.49465 103.86015 0 1 -89.84082 794.01553" />
    <path d="M -856.40977 953.99052 L -846.05806 949.15547" />
    <path d="M -856.40977 982.20894 L -856.40977 953.99052 L -580.4086 1022.09021 L -579.87775 1021.84226" />
    <path d="M -738.58898 1100.41088 A 854.4 472.49465 103.86015 0 1 -825.55958 989.82082" />
    <path d="M -738.58898 1362.33701 L -589.79051 1292.8365" />
    <path d="M -215.65471 -496.5097 A 854.4 472.49465 103.86015 0 1 -111.0852 -442.12178" />
    <path d="M 44.01711 -174.43987 A 854.4 472.49465 103.86015 0 1 -89.84082 773.51816" />
    <path d="M -522.40861 -634.04587 A 914.4 505.67545 103.86015 0 1 -375.94111 -547.70858" />
    <path d="M -333.52151 -497.00504 A 914.4 505.67545 103.86015 0 1 -254.63084 -338.54334" />
    <path d="M -205.8301 -70.1235 A 914.4 505.67545 103.86015 0 1 -279.63962 478.33057" />
    <path d="M -286.71245 500.09013 A 914.4 505.67545 103.86015 0 1 -383.05469 727.40735" />
    <path d="M -1064.58098 1019.97661 L -1064.58098 1288.83171 L -906.07556 1214.7973 L -915.78251 1212.40223 L -1064.58098 1175.68815" />
    <path d="M -418.33037 736.67311 L -418.33037 718.12711" />
    <path d="M -334.30723 534.26514 A 854.4 472.49465 103.86015 0 1 -418.33037 718.12711" />
    <path d="M -300.50958 461.64373 L -310.86128 466.47878 L -320.56824 464.08372" />
    <path d="M -1172.05007 868.72119 A 854.4 472.49465 103.86015 0 1 -536.78178 -575.79287 A 854.4 472.49465 103.86015 0 1 -432.95066 -524.60437" />
    <path d="M -387.1414 -481.44671 A 854.4 472.49465 103.86015 0 1 -288.26883 -304.61544" />
    <path d="M -240.14399 -31.46282 A 854.4 472.49465 103.86015 0 1 -310.86128 466.47878" />
    <path d="M -1182.40178 873.55625 L -1172.05007 868.72119" />
    <path d="M -1182.40178 901.77467 L -1182.40178 873.55625 L -905.71687 941.82464" />
    <path d="M -1064.58098 1019.97661 A 854.4 472.49465 103.86015 0 1 -1151.55159 909.38655" />
    <path d="M -1064.58098 1281.90273 L -915.78251 1212.40223" />
    <path d="M -348.8783 544.72777 A 854.4 472.49465 103.86015 0 1 -424.39283 709.08357" />
    <path d="M -541.64671 -576.94397 A 854.4 472.49465 103.86015 0 1 -437.0772 -522.55605" />
    <path d="M -392.8321 -479.25107 A 854.4 472.49465 103.86015 0 1 -294.77563 -297.58761" />
    <path d="M -249.36417 -19.85914 A 854.4 472.49465 103.86015 0 1 -320.56824 464.08372" />
    <path d="M -1425.49592 1219.23675 L -1394.75722 1288.73038" />
    <path d="M -1425.49592 1219.23675 L -1425.84867 1219.40151 L -1425.84867 981.77558 A 914.4 505.67545 103.86015 0 1 -848.40061 -714.48014 L -858.10757 -716.87521" />
    <path d="M -1435.55563 1197.45615 L -1425.84867 1219.40151" />
    <path d="M -1536.31702 968.6939 L -1435.55563 1196.49388" />
    <path d="M -1771.48827 1078.53724 L -1536.31702 968.6939" />
    <path d="M -848.40061 -714.48014 A 914.4 505.67545 103.86015 0 1 -701.93311 -628.14285" />
    <path d="M -659.51351 -577.43931 A 914.4 505.67545 103.86015 0 1 -580.62285 -418.97761" />
    <path d="M -564.13631 -364.04884 A 914.4 505.67545 103.86015 0 1 -546.93609 145.31687" />
    <path d="M -1390.57299 939.54234 L -1390.57299 1208.39744 L -1232.06756 1134.36303 L -1241.77452 1131.96796 L -1390.57299 1095.25388" />
    <path d="M -1390.57299 939.54234 A 854.4 472.49465 103.86015 0 1 -1477.54359 828.95228" />
    <path d="M -1508.39378 821.3404 L -1508.39378 793.12198 L -1231.70888 861.39037" />
    <path d="M -1508.39378 793.12198 L -1498.04207 788.28692 A 854.4 472.49465 103.86015 0 1 -862.77378 -656.22714 A 854.4 472.49465 103.86015 0 1 -758.94267 -605.03864" />
    <path d="M -713.13341 -561.88098 A 854.4 472.49465 103.86015 0 1 -614.26084 -385.04971" />
    <path d="M -597.45392 -329.89479 A 854.4 472.49465 103.86015 0 1 -636.85329 386.04451 L -646.56025 383.64945" />
    <path d="M -626.50158 381.20946 L -636.85329 386.04451" />
    <path d="M -1761.54764 913.37299 L -1751.84068 915.76806 L -1751.84068 901.34131" />
    <path d="M -1174.39262 -794.91441 A 914.4 505.67545 103.86015 0 1 -1027.92512 -708.57712" />
    <path d="M -985.50552 -657.87358 A 914.4 505.67545 103.86015 0 1 -906.61485 -499.41188" />
    <path d="M -890.12832 -444.48311 A 914.4 505.67545 103.86015 0 1 -872.92809 64.8826" />
    <path d="M -1751.48792 915.60329 L -1536.31702 968.6939" />
    <path d="M -1751.48792 915.60329 L -1751.84068 915.76806" />
    <path d="M -1716.56499 859.10807 L -1716.56499 924.22007" />
    <path d="M -1716.56499 859.10807 A 854.4 472.49465 103.86015 0 1 -1803.5356 748.51801" />
    <path d="M -2455.79288 587.58204 L -2197.36752 651.34513" />
    <path d="M -2160.37779 660.47186 L -1871.37552 731.7794" />
    <path d="M -1834.38579 740.90613 L -1545.38351 812.21367" />
    <path d="M -1508.39378 821.3404 L -1219.39151 892.64794" />
    <path d="M -1182.40178 901.77467 L -893.3995 973.08221" />
    <path d="M -856.40977 982.20894 L -580.4086 1050.30862 L -580.4086 1022.09021" />
    <path d="M -569.70933 1047.99635 L -580.4086 1050.30862" />
    <path d="M -2455.79288 559.36363 L -2250.48125 463.46706" />
    <path d="M -2205.46848 442.44258 L -2191.22522 435.78987 L -1931.0087 499.9949" />
    <path d="M -335.66915 907.77777 L -315.84094 898.51645 A 50 27.65067 103.86015 0 1 -303.8633 897.00298 L -354.14469 884.5967" />
    <path d="M -1834.38579 712.68771 L -1557.70088 780.9561" />
    <path d="M -1834.38579 712.68771 L -1824.03408 707.85265 A 854.4 472.49465 103.86015 0 1 -1188.76579 -736.66141 A 854.4 472.49465 103.86015 0 1 -1084.93467 -685.47291" />
    <path d="M -2455.79288 559.36363 L -2209.68489 620.08756" />
    <path d="M -962.8453 305.61024 L -972.55225 303.21518" />
    <path d="M -1039.12541 -642.31525 A 854.4 472.49465 103.86015 0 1 -940.25284 -465.48398" />
    <path d="M -923.44592 -410.32906 A 854.4 472.49465 103.86015 0 1 -962.8453 305.61024" />
    <path d="M -1590.49437 155.20165 L -1838.46834 271.02486 L -1611.56977 327.00912" />
    <path d="M -279.63962 466.79312 L -437.63704 540.59025" />
    <path d="M -300.50958 461.64373 L -279.63962 466.79312" />
    <path d="M -626.50158 381.20946 L -610.45646 385.16838" />
    <path d="M -428.593 430.04082 L -318.39657 457.23034" />
    <path d="M -952.49359 300.77519 L -936.44847 304.73411" />
    <path d="M -894.33418 315.12526 L -644.38858 376.79607" />
    <path d="M -952.49359 300.77519 L -962.8453 305.61024" />
    <path d="M -1278.48559 220.34092 L -1262.44047 224.29984" />
    <path d="M -1220.32619 234.69099 L -970.38058 296.3618" />
    <path d="M -1546.31819 154.25672 L -1296.37259 215.92753" />
    <path d="M -436.68491 607.77655 L -279.63962 495.01153 L -279.63962 466.79312" />
    <path d="M -1946.35963 958.12079 L -2042.557 934.38534" />
    <path d="M -2087.53964 923.28646 L -2179.46666 900.60467 L -2205.27941 649.39297" />
    <path d="M -2455.79288 587.58204 L -2455.79288 559.36363" />
    <path d="M -457.57962 1325.45781 L -580.08355 1295.23157" />
    <path d="M 30.79175 836.92141 L -89.84082 807.15689" />
    <path d="M -149.84082 792.35268 L -195.21859 781.15631 L -368.78426 862.22503" />
    <path d="M 30.79175 851.93297 L 30.79175 836.92141" />
    <path d="M -783.57162 1245.02354 L -906.07556 1214.7973" />
    <path d="M -422.78211 717.0287 L -418.33037 718.12711" />
    <path d="M -1109.56363 1164.58927 L -1232.06756 1134.36303" />
    <path d="M -1435.55563 979.38051 L -1425.84867 981.77558" />
    <path d="M -1435.55563 1197.45615 L -1435.55563 979.38051 A 914.4 505.67545 103.86015 0 1 -858.10757 -716.87521" />
    <path d="M -1390.57299 1201.46846 L -1241.77452 1131.96796" />
    <path d="M -867.63872 -657.37824 A 854.4 472.49465 103.86015 0 1 -763.06921 -602.99032" />
    <path d="M -718.82411 -559.68534 A 854.4 472.49465 103.86015 0 1 -620.76764 -378.02188" />
    <path d="M -604.528 -322.09243 A 854.4 472.49465 103.86015 0 1 -646.56025 383.64945" />
    <path d="M -1478.9959 1073.43668 L -1488.10487 1077.69128" />
    <path d="M -1834.38579 740.90613 L -1834.38579 712.68771" />
    <path d="M -1435.55563 1084.155 L -1491.33325 1070.3926" />
    <path d="M -2179.24758 434.2764 A 50 27.65067 283.86015 0 0 -2191.22522 435.78987" />
    <path d="M -303.8633 897.00298 A 50 27.65067 103.86015 0 1 -286.44453 931.81673 L -286.44453 949.88848" />
    <path d="M -1867.86475 331.78597 L -1614.47991 394.30537" />
    <path d="M -1569.77089 405.33674 L -1288.4879 474.73964" />
    <path d="M -1243.77888 485.77101 L -962.4959 555.17391" />
    <path d="M -917.78688 566.20528 L -636.50389 635.60818" />
    <path d="M -1867.86475 331.78597 L -1867.86475 511.10605" />
    <path d="M -1838.46834 271.02486 A 50 27.65067 283.86015 0 0 -1867.86475 331.78597" />
    <path d="M -249.44344 967.81312 L 30.79175 836.92141" />
    <path d="M -95.57342 832.60145 A 30 10.18434 360 0 1 -149.84082 826.61379" />
    <path d="M -89.84082 826.61379 A 30 10.18434 360 0 1 -95.57342 832.60145" />
    <path d="M -95.57342 550.41727 A 30 10.18434 360 0 1 -149.84082 544.42961 L -149.84082 826.61379" />
    <path d="M -149.84082 544.42961 A 30 10.18434 360 0 1 -89.84082 544.42961 L -89.84082 826.61379" />
    <path d="M -89.84082 544.42961 A 30 10.18434 360 0 1 -95.57342 550.41727" />
    <path d="M -671.05411 -238.30761 L -584.61015 -216.97869" />
    <path d="M -536.02949 -204.99205 L -461.18836 -186.52598" />
    <path d="M -411.47024 -174.25868 L -393.64276 -169.85998" />
    <path d="M -159.5469 -112.09989 L -135.19636 -106.09171" />
    <path d="M -85.47824 -93.82441 L 67.37386 -56.11015" />
    <path d="M 115.95452 -44.12351 L 190.79565 -25.65744" />
    <path d="M 440.49048 35.9515 L 516.78765 54.77683" />
    <path d="M 566.50577 67.04413 L 842.77966 135.2111" />
    <path d="M 1119.6787 203.53232 L 1153.9794 211.99557" />
    <path d="M -275.31087 -392.4663 L -211.24172 -376.65807" />
    <path d="M 375.2171 -231.95702 L 925.61306 -96.154" />
    <path d="M -1881.29058 512.26219 L -1605.0167 580.42917" />
    <path d="M -1555.29858 592.69646 L -1279.02469 660.86344" />
    <path d="M -1229.30657 673.13073 L -953.03269 741.29771" />
    <path d="M -903.31457 753.565 L -627.04068 821.73198" />
    <path d="M -350.14164 890.0532 L -315.84094 898.51645" />
    <path d="M -1567.90432 337.783 L -1285.57777 407.44339" />
    <path d="M -1241.91232 418.21727 L -959.58576 487.87766" />
    <path d="M -915.92031 498.65154 L -633.59376 568.31193" />
    <path d="M 842.19984 130.59924 L 565.74798 62.38836" />
    <path d="M 516.20783 50.16497 L 440.02252 31.36724" />
    <path d="M 190.21583 -30.2693 L 115.48656 -48.70777" />
    <path d="M 66.74859 -60.73323 L -86.23603 -98.48018" />
    <path d="M -135.77618 -110.70357 L -155.19119 -115.49397" />
    <path d="M -391.09611 -173.70043 L -412.22803 -178.91445" />
    <path d="M -461.76818 -191.13784 L -536.49745 -209.57631" />
    <path d="M -585.23542 -221.60177 L -668.35015 -242.10924" />
    <path d="M -627.6205 817.12012 L -904.07236 748.90923" />
    <path d="M -953.61251 736.68585 L -1230.06436 668.47496" />
    <path d="M -1279.60451 656.25158 L -1556.05637 588.04069" />
    <path d="M -1605.59652 575.81731 L -1882.04837 507.60642" />
    <path d="M -1931.58852 495.38304 L -2179.24758 434.2764" />
</svg>