<svg version="1.1" xmlns="http://www.w3.org/2000/svg" viewBox="-1503.361671655467 -1519.5306729005558 2841.0330575324488 3165.5111502303807" fill="none" stroke="black" stroke-width="0.6%" vector-effect="non-scaling-stroke">
    <path d="M 962.35154 1199.30779 L 966.26589 1202.81143 L 1003.437 1195.06923 L 1003.437 1120.61075 L 966.26589 1128.35296 L 966.26589 1202.81143" />
    <path d="M 964.19341 1126.49793 L 966.26589 1128.35296" />
    <path d="M 964.19341 1126.49793 L 964.19341 1126.50244" />
    <path d="M 966.25502 1198.49475 L 966.25502 1132.65019 L 960.29402 1127.31463" />
    <path d="M 995.92891 1113.89044 L 1003.437 1120.61075" />
    <path d="M 995.92891 1119.88789 L 964.19341 1126.49793" />
    <path d="M -70.44606 1341.99831 L -102.18156 1348.60836 L -102.18156 1332.37722 L -101.39949 1333.07723 L -101.39949 1051.8252" />
    <path d="M 941.88804 1114.91268 L -47.35862 1320.9584" />
    <path d="M 995.92891 1119.88789 L 995.92891 1104.51965" />
    <path d="M -70.44606 1342.00282 L 964.19341 1126.50244" />
    <path d="M -270.79358 198.55323 L -273.91933 199.20427" />
    <path d="M -345.5729 214.12867 L -382.98918 221.92194" />
    <path d="M -906.71466 331.00635 L -922.83715 334.36443" />
    <path d="M -987.30556 347.79227 L -1097.93286 370.83433" />
    <path d="M -1161.6192 400.3304 L -1161.6192 384.09927" />
    <path d="M -68.38445 1413.99513 L -15.61172 1403.00334" />
    <path d="M 807.5469 1644.98048 L -15.61172 1403.00334" />
    <path d="M 819.15409 1637.61916 L 807.5469 1644.98048 L 807.5469 1579.13591 L 819.15409 1571.7746 L 819.15409 1637.61916 Z" />
    <path d="M 839.72243 1638.27878 L 819.15409 1637.61916" />
    <path d="M 839.72243 1638.27878 L 913.48229 1209.48655 L 913.48229 1143.64198 L 966.25502 1132.65019" />
    <path d="M 913.48229 1209.48655 L 966.25502 1198.49475" />
    <path d="M 158.3889 1366.76154 L 858.83427 1220.86894" />
    <path d="M 839.72243 1572.43422 L 913.48229 1143.64198" />
    <path d="M 819.15409 1571.7746 L 839.72243 1572.43422 L 839.72243 1638.27878" />
    <path d="M 807.5469 1579.13591 L -15.61172 1337.15877 L -15.61172 1403.00334" />
    <path d="M -68.38445 1348.15057 L -15.61172 1337.15877" />
    <path d="M 27.28899 1328.22318 L 870.58159 1152.57758" />
    <path d="M 801.23176 1555.73274 L 27.28899 1328.22318" />
    <path d="M 801.23176 1555.73274 L 870.58159 1152.57758" />
    <path d="M 996.71098 817.1243 L 996.71098 1104.35676 L 942.67011 1115.61269 L 942.67011 803.68139" />
    <path d="M 932.24257 1046.65259 L 821.61527 947.63267 L 767.5744 958.8886 L 767.5744 646.9573" />
    <path d="M 821.61527 660.40021 L 821.61527 947.63267" />
    <path d="M 757.14687 889.92851 L 646.51957 790.90859 L 592.4787 802.16452 L 592.4787 490.23322" />
    <path d="M 646.51957 503.67612 L 646.51957 790.90859" />
    <path d="M 582.05116 733.20442 L 537.25461 693.10807" />
    <path d="M -1161.6192 398.04851 L -1169.12294 399.61143 L -1169.12294 474.0699 L -1068.50877 564.1273" />
    <path d="M -1169.12294 399.61143 L -1047.80131 508.20359" />
    <path d="M -670.18751 846.1969 L -105.5447 1351.59554 L -105.5447 1426.05401 L -68.37359 1418.31181 L -68.37359 1343.85333 L -105.5447 1351.59554" />
    <path d="M -70.44606 1341.99831 L -68.37359 1343.85333" />
    <path d="M -102.18156 1348.60836 L -671.85545 838.70653" />
    <path d="M -1046.13337 503.69908 L -1161.6192 400.3304" />
    <path d="M -1162.40126 383.39926 L -1161.6192 384.09927" />
    <path d="M -1162.40126 383.39926 L -1162.40126 102.14723" />
    <path d="M -1151.97373 392.7327 L -1151.97373 111.48068" />
    <path d="M -1041.61937 491.50832 L -1151.97373 392.7327" />
    <path d="M -987.30556 447.39134 L -987.30556 258.87132" />
    <path d="M -976.87802 445.21944 L -976.87802 268.20476" />
    <path d="M -812.20985 491.75876 L -812.20985 415.59541" />
    <path d="M -801.78232 501.09221 L -801.78232 424.92885" />
    <path d="M -637.11415 853.57152 L -676.36945 818.43501" />
    <path d="M -637.11415 853.57152 L -637.11415 572.31949" />
    <path d="M -626.68661 862.90497 L -626.68661 581.65294" />
    <path d="M -462.01844 1010.29561 L -626.68661 862.90497" />
    <path d="M -462.01844 1010.29561 L -462.01844 729.04358" />
    <path d="M -451.59091 1019.62905 L -451.59091 738.37703" />
    <path d="M -286.92274 1167.0197 L -451.59091 1019.62905" />
    <path d="M -286.92274 1167.0197 L -286.92274 885.76767" />
    <path d="M -276.4952 1176.35314 L -276.4952 895.10111" />
    <path d="M -111.82703 1323.74378 L -276.4952 1176.35314" />
    <path d="M -111.82703 1323.74378 L -111.82703 1042.49176" />
    <path d="M 941.88804 1114.91268 L 942.67011 1115.61269" />
    <path d="M -222.45433 1165.09721 L -276.4952 1176.35314" />
    <path d="M -397.55004 1008.37312 L -451.59091 1019.62905" />
    <path d="M -572.64574 851.64904 L -626.68661 862.90497" />
    <path d="M -1097.93286 381.47677 L -1151.97373 392.7327" />
    <path d="M 582.05116 792.83107 L 592.4787 802.16452" />
    <path d="M 757.14687 949.55516 L 767.5744 958.8886" />
    <path d="M 932.24257 1106.27925 L 941.88804 1114.91268" />
    <path d="M -47.35862 1321.8213 L -101.39949 1333.07723" />
    <path d="M -683.09113 909.10566 L -105.5447 1426.05401" />
    <path d="M 1020.45031 790.05831 A 914.4 742.85554 131.83098 0 1 996.71098 817.1243" />
    <path d="M 991.8041 748.33171 L 984.16157 757.5771" />
    <path d="M 991.8041 748.33171 A 854.4 694.11174 131.83098 0 1 942.67011 803.68139" />
    <path d="M 932.24257 1106.27925 L 932.24257 794.34795 A 854.4 694.11174 311.83098 0 0 981.37656 738.99827 A 854.4 694.11174 311.83098 0 0 1206.77019 147.1188 A 854.4 694.11174 311.83098 0 0 1037.44565 -299.90318" />
    <path d="M 932.24257 794.34795 L 942.67011 803.68139" />
    <path d="M -57.78616 1000.55656 L -47.35862 1009.89 A 854.4 694.11174 131.83098 0 1 -96.49261 975.00812 L -104.13515 968.94639" />
    <path d="M -47.35862 1009.89 L -47.35862 1018.20788" />
    <path d="M -47.35862 1068.5997 L -47.35862 1321.8213" />
    <path d="M -106.92015 965.67467 A 854.4 694.11174 311.83098 0 0 -57.78616 1000.55656" />
    <path d="M -222.45433 943.47184 L -222.45433 1165.09721" />
    <path d="M -397.55004 786.74775 L -397.55004 1008.37312" />
    <path d="M -572.64574 630.02366 L -572.64574 851.64904" />
    <path d="M -747.74145 473.29957 L -747.74145 549.46293" />
    <path d="M -922.83715 316.57549 L -922.83715 433.96351" />
    <path d="M -1097.93286 159.8514 L -1097.93286 381.47677" />
    <path d="M 582.05116 480.89977 A 854.4 694.11174 311.83098 0 0 631.18515 425.5501 A 854.4 694.11174 311.83098 0 0 685.39034 353.93368" />
    <path d="M 582.05116 792.83107 L 582.05116 480.89977 L 592.4787 490.23322" />
    <path d="M 670.2589 476.61013 A 914.4 742.85554 131.83098 0 1 646.51957 503.67612" />
    <path d="M 641.61269 434.88354 L 633.97015 444.12892" />
    <path d="M 641.61269 434.88354 A 854.4 694.11174 131.83098 0 1 592.4787 490.23322" />
    <path d="M 757.14687 637.62386 A 854.4 694.11174 311.83098 0 0 806.28086 582.27418 A 854.4 694.11174 311.83098 0 0 1031.67449 -9.60528 A 854.4 694.11174 311.83098 0 0 915.48361 -392.59539" />
    <path d="M 757.14687 949.55516 L 757.14687 637.62386 L 767.5744 646.9573" />
    <path d="M 845.3546 633.33422 A 914.4 742.85554 131.83098 0 1 821.61527 660.40021" />
    <path d="M 816.70839 591.60763 L 809.06586 600.85301 L 973.68299 748.19797" />
    <path d="M 816.70839 591.60763 A 854.4 694.11174 131.83098 0 1 767.5744 646.9573" />
    <path d="M -88.85008 981.06984 L -96.49261 975.00812 A 854.4 694.11174 131.83098 0 1 -122.17394 953.36331 A 854.4 694.11174 131.83098 0 1 -318.28988 550.69052" />
    <path d="M 1087.80702 846.4531 L 1049.59435 816.14446 L 984.16157 757.5771" />
    <path d="M 798.58729 591.47388 L 633.97015 444.12892" />
    <path d="M 577.31782 393.42074 L 623.49158 434.7498" />
    <path d="M 1064.87942 797.65369 L 999.44663 739.08633 L 1037.60915 769.35519 A 914.4 742.85554 311.83098 0 0 1268.48317 213.18041" />
    <path d="M 1064.87942 797.65369 L 1049.59435 816.14446" />
    <path d="M 999.44663 739.08633 L 991.8041 748.33171" />
    <path d="M -127.35875 948.66424 A 854.4 694.11174 311.83098 0 0 -106.92015 965.67467" />
    <path d="M -321.81149 466.26423 A 854.4 694.11174 131.83098 0 1 -105.90663 -103.30399" />
    <path d="M -88.79904 -124.05809 A 854.4 694.11174 131.83098 0 1 436.9156 -451.60326" />
    <path d="M 509.79362 -464.34131 A 854.4 694.11174 131.83098 0 1 984.98975 -346.85523" />
    <path d="M 1047.87319 -290.56973 A 854.4 694.11174 131.83098 0 1 1217.19773 156.45225 L 1217.19773 167.27601" />
    <path d="M 1217.19773 156.45225 A 854.4 694.11174 131.83098 0 1 991.8041 748.33171" />
    <path d="M -100.1058 970.99511 L -152.5617 924.04306" />
    <path d="M -138.09961 938.54559 L -116.11622 958.22241" />
    <path d="M -61.62996 1085.86414 L -23.41729 1039.63721 L -38.70236 1027.51375 L -104.13515 968.94639" />
    <path d="M -23.41729 1039.63721 L -88.85008 981.06984" />
    <path d="M -331.65227 763.1222 A 854.4 694.11174 131.83098 0 1 -493.38558 393.96643" />
    <path d="M -496.9072 309.54014 A 854.4 694.11174 131.83098 0 1 -281.00234 -260.02808" />
    <path d="M -263.89475 -280.78218 A 854.4 694.11174 131.83098 0 1 261.81989 -608.32734" />
    <path d="M 334.69792 -621.0654 A 854.4 694.11174 131.83098 0 1 805.28192 -507.08647" />
    <path d="M 921.71429 -389.06479 A 854.4 694.11174 131.83098 0 1 1042.10202 -0.27184 L 1042.10202 10.55192 L 1206.69544 157.87565" />
    <path d="M 1042.10202 -0.27184 A 854.4 694.11174 131.83098 0 1 816.70839 591.60763" />
    <path d="M -506.74798 606.39811 A 854.4 694.11174 131.83098 0 1 -537.8798 570.45128" />
    <path d="M 83.18505 -450.37804 A 854.4 694.11174 311.83098 0 0 123.76513 -565.1045" />
    <path d="M 141.45826 -640.0554 A 854.4 694.11174 311.83098 0 0 151.48336 -707.087" />
    <path d="M 154.62528 -842.11141 A 854.4 694.11174 311.83098 0 0 141.96515 -937.78296" />
    <path d="M 125.02789 -1003.83871 A 854.4 694.11174 311.83098 0 0 101.04212 -1068.23531" />
    <path d="M 60.61769 -1145.29407 A 854.4 694.11174 311.83098 0 0 40.00508 -1176.21583" />
    <path d="M -1304.7312 -161.29524 A 854.4 694.11174 131.83098 0 1 -1368.86411 -389.654" />
    <path d="M -1372.38573 -474.0803 A 854.4 694.11174 131.83098 0 1 -1156.48087 -1043.64852" />
    <path d="M -1139.37328 -1064.40262 A 854.4 694.11174 131.83098 0 1 -613.65864 -1391.94778" />
    <path d="M -540.78061 -1404.68584 A 854.4 694.11174 131.83098 0 1 -70.19661 -1290.70691" />
    <path d="M 46.23576 -1172.68523 A 854.4 694.11174 131.83098 0 1 65.88343 -1144.11448" />
    <path d="M 108.35759 -1065.91666 A 854.4 694.11174 131.83098 0 1 132.62576 -1003.34416" />
    <path d="M 150.6108 -936.95041 A 854.4 694.11174 131.83098 0 1 164.2983 -843.27097" />
    <path d="M 166.6057 -778.64778 A 854.4 694.11174 131.83098 0 1 166.5258 -771.59235" />
    <path d="M 161.9109 -697.75356 A 854.4 694.11174 131.83098 0 1 154.40575 -644.5677" />
    <path d="M 138.3054 -570.85755 A 854.4 694.11174 131.83098 0 1 98.89422 -453.65003" />
    <path d="M 638.77658 416.25896 L 602.84205 384.09481" />
    <path d="M 707.62615 345.80926 A 854.4 694.11174 131.83098 0 1 641.61269 434.88354" />
    <path d="M 649.25522 425.63815 L 813.87228 572.98305" />
    <path d="M 649.25522 425.63815 L 641.61269 434.88354" />
    <path d="M 988.96799 729.70714 L 824.35093 582.36224 L 816.70839 591.60763" />
    <path d="M 1103.09208 827.96233 L 1087.80702 846.4531" />
    <path d="M 1103.09208 827.96233 L 1037.61155 769.35223" />
    <path d="M 990.79058 727.44387 L 862.51584 612.62814" />
    <path d="M 815.69487 570.71978 L 687.42013 455.90405" />
    <path d="M 640.59917 413.9957 L 605.93192 382.96585" />
    <path d="M 1103.09208 827.96233 L 1064.87942 797.65369" />
    <path d="M 862.51344 612.63111 L 824.35093 582.36224" />
    <path d="M 687.41774 455.90702 L 649.25522 425.63815" />
    <path d="M 1028.634 -389.77832 A 914.4 742.85554 131.83098 0 1 1047.07402 -373.93036" />
    <path d="M 448.10153 -519.56047 A 914.4 742.85554 131.83098 0 1 1011.89655 -403.09622 L 1022.32408 -393.76278 A 914.4 742.85554 311.83098 0 0 458.52907 -510.22702" />
    <path d="M -137.44013 -163.70608 A 914.4 742.85554 131.83098 0 1 426.42003 -515.04539 L 436.84757 -505.71194 A 914.4 742.85554 311.83098 0 0 -127.0126 -154.37264 L -88.85008 -124.10377" />
    <path d="M -386.28373 468.10503 A 914.4 742.85554 131.83098 0 1 -152.7276 -145.21235" />
    <path d="M -172.61761 988.7368 A 914.4 742.85554 131.83098 0 1 -386.28268 489.83175" />
    <path d="M -375.85515 499.16519 A 914.4 742.85554 311.83098 0 0 -162.19007 998.07024 A 914.4 742.85554 311.83098 0 0 -142.29766 1015.11265 L -104.13515 968.94639" />
    <path d="M -142.30006 -135.8789 A 914.4 742.85554 311.83098 0 0 -375.85619 477.43848 L -321.88624 466.19732" />
    <path d="M 436.84757 -451.66415 L 436.84757 -505.71194" />
    <path d="M 984.16157 -347.59652 L 1022.32408 -393.76278" />
    <path d="M 1217.19773 145.62848 L 1217.19773 156.45225" />
    <path d="M 1217.19773 145.62848 L 1271.16767 134.38732 A 914.4 742.85554 311.83098 0 0 1101.38786 -321.07098" />
    <path d="M 1075.28832 -348.01913 A 914.4 742.85554 311.83098 0 0 1057.50156 -364.59691 A 914.4 742.85554 311.83098 0 0 1039.06154 -380.44488" />
    <path d="M -1267.07815 4.86633 L -1268.78237 6.92798" />
    <path d="M -76.91502 1073.74068 L -143.75005 1013.9182" />
    <path d="M -190.40437 972.15901 L -318.84576 857.19411" />
    <path d="M -365.50008 815.43492 L -493.94147 700.47003" />
    <path d="M -540.59578 658.71083 L -669.03717 543.74594" />
    <path d="M -715.69149 501.98674 L -844.13288 387.02185" />
    <path d="M -890.7872 345.26266 L -1019.22858 230.29776" />
    <path d="M -1065.8829 188.53857 L -1194.32429 73.57368" />
    <path d="M -1240.97861 31.81448 L -1268.78237 6.92798" />
    <path d="M -76.91502 1073.74068 L -38.70236 1027.51375" />
    <path d="M -297.08219 833.81757 L -317.39337 858.38856" />
    <path d="M -472.1779 677.09348 L -492.48907 701.66447" />
    <path d="M -647.27361 520.36939 L -667.58478 544.94039" />
    <path d="M -822.36931 363.6453 L -842.68049 388.2163" />
    <path d="M -997.46502 206.92122 L -1017.77619 231.49221" />
    <path d="M -1172.56072 50.19713 L -1192.8719 74.76812" />
    <path d="M -550.95085 342.44111 A 914.4 742.85554 311.83098 0 0 -337.28578 841.34615 A 914.4 742.85554 311.83098 0 0 -317.39337 858.38856" />
    <path d="M -61.62996 1085.86414 L -76.91502 1073.74068" />
    <path d="M 853.5383 -546.50241 A 914.4 742.85554 131.83098 0 1 871.97831 -530.65445" />
    <path d="M 273.00582 -676.28456 A 914.4 742.85554 131.83098 0 1 836.80084 -559.82031 L 847.22838 -550.48687 L 810.15843 -505.64232" />
    <path d="M -312.53584 -320.43017 A 914.4 742.85554 131.83098 0 1 251.32433 -671.76947 L 261.75186 -662.43603 L 261.75186 -608.38823" />
    <path d="M -561.37943 311.38094 A 914.4 742.85554 131.83098 0 1 -327.8233 -301.93643" />
    <path d="M -347.71331 832.01271 A 914.4 742.85554 131.83098 0 1 -561.37839 333.10766" />
    <path d="M -317.39577 -292.60299 A 914.4 742.85554 311.83098 0 0 -550.9519 320.71439" />
    <path d="M -496.98195 309.47323 L -550.9519 320.71439" />
    <path d="M 261.75186 -662.43603 A 914.4 742.85554 311.83098 0 0 -302.1083 -311.09673" />
    <path d="M -263.94579 -280.82786 L -302.1083 -311.09673" />
    <path d="M 847.22838 -550.48687 A 914.4 742.85554 311.83098 0 0 283.43336 -666.95111" />
    <path d="M 1042.10202 -11.09561 L 1042.10202 -0.27184" />
    <path d="M 1096.07197 -22.33677 L 1042.10202 -11.09561" />
    <path d="M 1096.07197 -22.33677 A 914.4 742.85554 311.83098 0 0 1041.44052 -295.70641" />
    <path d="M 900.19262 -504.74321 A 914.4 742.85554 311.83098 0 0 882.40585 -521.321 L 871.97831 -530.65445" />
    <path d="M 882.40585 -521.321 A 914.4 742.85554 311.83098 0 0 863.96583 -537.16896" />
    <path d="M 862.51344 612.63111 A 914.4 742.85554 311.83098 0 0 1093.38747 56.45632" />
    <path d="M -726.04656 185.71702 A 914.4 742.85554 311.83098 0 0 -512.38148 684.62207 L -522.80902 675.28862 A 914.4 742.85554 131.83098 0 1 -736.47409 176.38357" />
    <path d="M -512.38148 684.62207 A 914.4 742.85554 311.83098 0 0 -492.48907 701.66447" />
    <path d="M -612.21024 449.1177 A 854.4 694.11174 131.83098 0 1 -668.48129 237.24235" />
    <path d="M -612.21024 449.1177 L -645.59763 456.07181 L -547.4919 543.88396 L -530.33289 540.30999" />
    <path d="M -645.59763 483.13122 L -645.59763 456.07181" />
    <path d="M -182.64093 552.26471 L -317.40176 559.16383" />
    <path d="M -382.02805 562.4724 L -453.68161 566.14072" />
    <path d="M -520.83214 569.57852 L -547.4919 570.94337 L -547.4919 543.88396" />
    <path d="M -645.59763 483.13122 L -547.4919 570.94337" />
    <path d="M -820.69333 326.40713 L -681.16601 451.29478" />
    <path d="M -995.78904 169.68304 L -856.26172 294.57069" />
    <path d="M -1170.88475 12.95895 L -1031.35743 137.84661" />
    <path d="M -1329.55708 -129.06496 L -1206.45313 -18.87748" />
    <path d="M -901.14226 28.99293 A 914.4 742.85554 311.83098 0 0 -687.47719 527.89798 L -697.90472 518.56453 A 914.4 742.85554 131.83098 0 1 -911.5698 19.65949" />
    <path d="M -687.47719 527.89798 A 914.4 742.85554 311.83098 0 0 -667.58478 544.94039" />
    <path d="M -787.30595 292.39361 A 854.4 694.11174 131.83098 0 1 -843.577 80.51826" />
    <path d="M -787.30595 292.39361 L -820.69333 299.34772 L -696.85074 410.19634" />
    <path d="M -820.69333 326.40713 L -820.69333 299.34772" />
    <path d="M -1076.23797 -127.73116 A 914.4 742.85554 311.83098 0 0 -862.57289 371.17389 L -873.00043 361.84045 A 914.4 742.85554 131.83098 0 1 -1086.6655 -137.0646" />
    <path d="M -862.57289 371.17389 A 914.4 742.85554 311.83098 0 0 -842.68049 388.2163" />
    <path d="M -962.40166 135.66952 A 854.4 694.11174 131.83098 0 1 -1018.6727 -76.20583" />
    <path d="M -962.40166 135.66952 L -995.78904 142.62363 L -871.94644 253.47225" />
    <path d="M -995.78904 169.68304 L -995.78904 142.62363" />
    <path d="M -1251.33367 -284.45525 A 914.4 742.85554 311.83098 0 0 -1037.6686 214.4498 L -1048.09614 205.11636 A 914.4 742.85554 131.83098 0 1 -1261.76121 -293.78869" />
    <path d="M -1037.6686 214.4498 A 914.4 742.85554 311.83098 0 0 -1017.77619 231.49221" />
    <path d="M -1137.49736 -21.05456 A 854.4 694.11174 131.83098 0 1 -1193.76841 -232.92992" />
    <path d="M -1137.49736 -21.05456 L -1170.88475 -14.10046 L -1047.04215 96.74817" />
    <path d="M -1170.88475 12.95895 L -1170.88475 -14.10046" />
    <path d="M -1426.42938 -441.17933 A 914.4 742.85554 311.83098 0 0 -1212.76431 57.72571 L -1223.19184 48.39227 A 914.4 742.85554 131.83098 0 1 -1436.85692 -450.51278" />
    <path d="M -1212.76431 57.72571 A 914.4 742.85554 311.83098 0 0 -1192.8719 74.76812" />
    <path d="M -21.94023 -1330.12285 A 914.4 742.85554 131.83098 0 1 -3.50021 -1314.27488" />
    <path d="M -602.4727 -1459.90499 A 914.4 742.85554 131.83098 0 1 -38.67769 -1343.44075 L -28.25015 -1334.1073 L -65.32009 -1289.26276" />
    <path d="M -1188.01437 -1104.05061 A 914.4 742.85554 131.83098 0 1 -624.1542 -1455.38991 L -613.72667 -1446.05647 L -613.72667 -1392.00867 L -496.25148 -1286.85937" />
    <path d="M -1436.85796 -472.23949 A 914.4 742.85554 131.83098 0 1 -1203.30183 -1085.55687" />
    <path d="M -1192.8743 -1076.22343 A 914.4 742.85554 311.83098 0 0 -1426.43042 -462.90605" />
    <path d="M -1372.46048 -474.14721 L -1426.43042 -462.90605" />
    <path d="M -613.72667 -1446.05647 A 914.4 742.85554 311.83098 0 0 -1177.58683 -1094.71716" />
    <path d="M -1139.42432 -1064.4483 L -1177.58683 -1094.71716" />
    <path d="M -28.25015 -1334.1073 A 914.4 742.85554 311.83098 0 0 -592.04517 -1450.57155" />
    <path d="M 218.97189 -847.64414 A 914.4 742.85554 311.83098 0 0 209.48694 -928.24138" />
    <path d="M 194.38758 -996.35049 A 914.4 742.85554 311.83098 0 0 182.09251 -1036.56479" />
    <path d="M 24.71409 -1288.36365 A 914.4 742.85554 311.83098 0 0 6.92732 -1304.94144 L -3.50021 -1314.27488" />
    <path d="M 6.92732 -1304.94144 A 914.4 742.85554 311.83098 0 0 -11.5127 -1320.7894" />
    <path d="M 157.38662 -464.92863 A 914.4 742.85554 311.83098 0 0 196.30471 -590.96362" />
    <path d="M 217.79035 -725.70664 A 914.4 742.85554 311.83098 0 0 217.90894 -727.16411" />
    <path d="M 166.62349 -778.64988 L 166.62349 -773.06852" />
    <path d="M 271.42425 -326.01783 A 854.4 694.11174 311.83098 0 0 298.86084 -408.38041" />
    <path d="M 316.55396 -483.33131 A 854.4 694.11174 311.83098 0 0 326.57907 -550.36291" />
    <path d="M 315.23917 -323.63849 L 281.85179 -316.68438 L 271.42425 -326.01783" />
    <path d="M 341.7014 -621.92369 A 854.4 694.11174 131.83098 0 1 341.6215 -614.86826" />
    <path d="M 337.00661 -541.02947 A 854.4 694.11174 131.83098 0 1 329.50145 -487.84361" />
    <path d="M 313.4011 -414.13346 A 854.4 694.11174 131.83098 0 1 281.85179 -316.68438" />
    <path d="M 341.7192 -621.92579 L 341.7192 -616.34443 L 449.53701 -519.83922" />
    <path d="M 332.48232 -308.20455 A 914.4 742.85554 311.83098 0 0 371.40041 -434.23953" />
    <path d="M 392.88606 -568.98255 A 914.4 742.85554 311.83098 0 0 393.00464 -570.44003" />
    <path d="M 573.78105 394.71299 L 938.63202 261.40534 L 938.63202 234.34593 L 533.3255 318.76539" />
    <path d="M 446.51996 -169.29374 A 854.4 694.11174 311.83098 0 0 501.67478 -393.63882" />
    <path d="M 490.33488 -166.9144 L 456.94749 -159.96029 L 446.51996 -169.29374" />
    <path d="M 516.79711 -465.19961 A 854.4 694.11174 131.83098 0 1 516.71721 -458.14417" />
    <path d="M 513.22808 -395.37704 A 854.4 694.11174 131.83098 0 1 456.94749 -159.96029" />
    <path d="M 516.8149 -465.2017 L 516.8149 -459.62034" />
    <path d="M 507.57803 -151.48046 A 914.4 742.85554 311.83098 0 0 568.10035 -413.71594" />
    <path d="M 621.61566 -12.56965 A 854.4 694.11174 311.83098 0 0 681.48307 -323.05346 A 854.4 694.11174 311.83098 0 0 667.25227 -467.61069" />
    <path d="M 665.43058 -10.19031 L 632.0432 -3.23621 L 621.61566 -12.56965" />
    <path d="M 691.91061 -313.72001 A 854.4 694.11174 131.83098 0 1 632.0432 -3.23621" />
    <path d="M 691.91061 -313.72001 L 691.91061 -302.89626 L 856.50403 -155.57252" />
    <path d="M 682.67374 5.24363 A 914.4 742.85554 311.83098 0 0 743.19605 -256.99185" />
    <path d="M 796.71137 144.15444 A 854.4 694.11174 311.83098 0 0 856.57878 -166.32937 A 854.4 694.11174 311.83098 0 0 801.42495 -441.33896" />
    <path d="M 840.52629 146.53377 L 807.13891 153.48788 L 796.71137 144.15444" />
    <path d="M 867.00632 -156.99593 A 854.4 694.11174 131.83098 0 1 807.13891 153.48788" />
    <path d="M 867.00632 -156.99593 L 867.00632 -146.17217" />
    <path d="M 687.41774 455.90702 A 914.4 742.85554 311.83098 0 0 782.49568 318.45375" />
    <path d="M 857.76944 161.96772 A 914.4 742.85554 311.83098 0 0 918.29176 -100.26776" />
    <path d="M 1336.67138 214.58744 L 1282.63052 225.84337 L 1217.19773 167.27601" />
    <path d="M 1031.59973 1.15157 L 867.00632 -146.17217" />
    <path d="M 681.40832 -312.29661 L 516.8149 -459.62034" />
    <path d="M 274.4413 -676.56331 L 166.62349 -773.06852" />
    <path d="M 1282.63052 204.19584 L 1217.19773 145.62848" />
    <path d="M 1282.63052 204.19584 L 1282.63052 225.84337" />
    <path d="M 1206.69309 136.22602 L 1042.10202 -11.09561" />
    <path d="M 119.46125 -836.92987 L 114.34721 -841.50733" />
    <path d="M 111.94515 -867.02876 L 144.80404 -873.87278" />
    <path d="M 1336.67138 192.93991 L 1271.16663 134.30813" />
    <path d="M 1203.17383 73.44936 L 1096.07092 -22.41595" />
    <path d="M 1028.07812 -83.27473 L 920.97522 -179.14004" />
    <path d="M 852.98242 -239.99882 L 745.87951 -335.86413" />
    <path d="M 677.88671 -396.7229 L 595.62377 -470.35454" />
    <path d="M 502.791 -553.44699 L 420.52807 -627.07863" />
    <path d="M 327.6953 -710.17108 L 245.43236 -783.80272" />
    <path d="M 152.59959 -866.89517 L 144.80404 -873.87278" />
    <path d="M 1336.67138 192.93991 L 1282.63052 204.19584" />
    <path d="M 867.00632 -167.8197 L 1031.59738 -20.49807" />
    <path d="M 920.97626 -179.06085 L 867.00632 -167.8197 L 867.00632 -156.99593" />
    <path d="M 856.50168 -177.22215 L 691.91061 -324.54378 L 691.91061 -313.72001" />
    <path d="M 745.88056 -335.78494 L 691.91061 -324.54378" />
    <path d="M 532.8423 -466.92212 L 681.40597 -333.94624" />
    <path d="M 469.65266 -523.4817 L 357.7466 -623.64621" />
    <path d="M 182.65089 -780.3703 L 294.55696 -680.20578" />
    <path d="M 1103.09208 -323.13263 L -88.77526 -1389.94532" />
    <path d="M 1103.09208 -323.13263 L 1064.87942 -276.9057" />
    <path d="M -112.42384 -1391.9512 L -104.06033 -1402.06878 L -88.77526 -1389.94532" />
    <path d="M 1087.80702 -335.25608 L -104.06033 -1402.06878" />
    <path d="M 1087.80702 -335.25608 L 1049.59435 -289.02915 L 1064.87942 -276.9057" />
    <path d="M 1049.59435 -289.02915 L 984.16157 -347.59652" />
    <path d="M 672.13267 -707.21095 L 635.06273 -662.36641" />
    <path d="M 661.70513 -716.5444 L 672.13267 -707.21095 A 914.4 742.85554 311.83098 0 0 108.33765 -823.6752" />
    <path d="M 497.03696 -863.93504 L 459.96702 -819.0905" />
    <path d="M 486.60943 -873.26849 L 497.03696 -863.93504 A 914.4 742.85554 311.83098 0 0 -66.75805 -980.39929" />
    <path d="M 321.94126 -1020.65913 L 284.87132 -975.81459" />
    <path d="M 311.51372 -1029.99257 L 321.94126 -1020.65913 A 914.4 742.85554 311.83098 0 0 -241.85376 -1137.12337" />
    <path d="M 146.84555 -1177.38322 L 109.77561 -1132.53867" />
    <path d="M 136.41802 -1186.71666 L 146.84555 -1177.38322 A 914.4 742.85554 311.83098 0 0 -416.94946 -1293.84746" />
    <path d="M 523.8967 -451.71797 L -667.97064 -1518.53067" />
    <path d="M 523.8967 -451.71797 L 523.8967 -397.59915" />
    <path d="M 379.22705 -503.23893 L 261.75186 -608.38823" />
    <path d="M -671.34719 -1443.58346 L -689.58699 -1459.90948 L -689.58699 -1514.0283 L -667.97064 -1518.53067" />
    <path d="M 502.28036 -447.2156 L -689.58699 -1514.0283" />
    <path d="M 502.28036 -447.2156 L 502.28036 -393.09678 L 523.8967 -397.59915" />
    <path d="M 502.28036 -393.09678 L 436.84757 -451.66415" />
    <path d="M 86.65616 -765.11232 L 204.13134 -659.96302" />
    <path d="M 86.65616 -819.16012 L 86.65616 -765.11232" />
    <path d="M 76.22862 -828.49356 L 86.65616 -819.16012 A 914.4 742.85554 311.83098 0 0 -477.20401 -467.82081" />
    <path d="M 29.03564 -816.68711 L -88.43955 -921.83641" />
    <path d="M -88.43955 -975.8842 L -88.43955 -921.83641" />
    <path d="M -98.86708 -985.21765 L -88.43955 -975.8842 A 914.4 742.85554 311.83098 0 0 -652.29971 -624.5449" />
    <path d="M -263.53525 -1078.5605 L -146.06007 -973.41119" />
    <path d="M -263.53525 -1132.60829 L -263.53525 -1078.5605" />
    <path d="M -273.96279 -1141.94174 L -263.53525 -1132.60829 A 914.4 742.85554 311.83098 0 0 -827.39542 -781.26899" />
    <path d="M -321.15577 -1130.13528 L -438.63096 -1235.28458" />
    <path d="M -438.63096 -1289.33238 L -438.63096 -1235.28458" />
    <path d="M -449.0585 -1298.66582 L -438.63096 -1289.33238 A 914.4 742.85554 311.83098 0 0 -1002.49113 -937.99308" />
    <path d="M -137.44013 -163.70608 L -127.0126 -154.37264" />
    <path d="M -1186.1406 -1106.26295 L -1215.28464 -1132.34911 L -1253.4973 -1162.65775" />
    <path d="M -61.62996 -95.84505 L -1253.4973 -1162.65775" />
    <path d="M -61.62996 -95.84505 L -23.41729 -65.53641 L -88.85008 -124.10377" />
    <path d="M -263.94579 -280.82786 L -135.56636 -165.91843" />
    <path d="M -312.53584 -320.43017 L -302.1083 -311.09673" />
    <path d="M -310.66207 -322.64252 L -439.04149 -437.55195 L -477.20401 -467.82081" />
    <path d="M -487.63154 -477.15426 L -477.20401 -467.82081" />
    <path d="M -614.1372 -594.27604 L -485.75777 -479.3666" />
    <path d="M -614.1372 -594.27604 L -652.29971 -624.5449" />
    <path d="M -662.72725 -633.87835 L -652.29971 -624.5449" />
    <path d="M -660.85348 -636.09069 L -789.2329 -751.00012 L -827.39542 -781.26899" />
    <path d="M -837.82296 -790.60243 L -827.39542 -781.26899" />
    <path d="M -964.32861 -907.72421 L -835.94918 -792.81478" />
    <path d="M -964.32861 -907.72421 L -1002.49113 -937.99308" />
    <path d="M -1012.91866 -947.32652 L -1002.49113 -937.99308" />
    <path d="M -1011.04489 -949.53887 L -1139.42432 -1064.4483" />
    <path d="M -1188.01437 -1104.05061 L -1177.58683 -1094.71716" />
    <path d="M -76.91502 -77.35428 L -1268.78237 -1144.16698 L -1253.4973 -1162.65775" />
    <path d="M -76.91502 -77.35428 L -38.70236 -47.04564 L -23.41729 -65.53641" />
    <path d="M -386.28373 468.10503 L -375.85619 477.43848" />
    <path d="M -1434.17346 -529.38506 L -1448.3208 -542.04801 L -1502.36167 -530.79208" />
    <path d="M -310.49432 536.02061 L -1502.36167 -530.79208" />
    <path d="M -310.49432 536.02061 L -256.45346 524.76468 L -321.88624 466.19732" />
    <path d="M -496.98195 309.47323 L -383.59922 410.95947" />
    <path d="M -561.37943 311.38094 L -550.9519 320.71439" />
    <path d="M -558.69493 254.23538 L -672.07765 152.74914 L -726.0476 163.9903" />
    <path d="M -736.47514 154.65686 L -726.0476 163.9903" />
    <path d="M -847.17336 -3.97494 L -733.79063 97.51129" />
    <path d="M -847.17336 -3.97494 L -901.14331 7.26621" />
    <path d="M -911.57084 -2.06723 L -901.14331 7.26621" />
    <path d="M -908.88634 -59.21279 L -1022.26907 -160.69903 L -1076.23901 -149.45787" />
    <path d="M -1086.66655 -158.79132 L -1076.23901 -149.45787" />
    <path d="M -1197.36477 -317.42312 L -1083.98204 -215.93688" />
    <path d="M -1197.36477 -317.42312 L -1251.33472 -306.18196" />
    <path d="M -1261.76225 -315.51541 L -1251.33472 -306.18196" />
    <path d="M -1259.07775 -372.66097 L -1372.46048 -474.14721" />
    <path d="M -1436.85796 -472.23949 L -1426.43042 -462.90605" />
    <path d="M -310.49432 557.66814 L -1502.36167 -509.14456 L -1502.36167 -530.79208" />
    <path d="M -310.49432 557.66814 L -256.45346 546.41221 L -256.45346 524.76468" />
    <path d="M 746.61859 -545.78888 A 854.4 694.11174 131.83098 0 1 766.26626 -517.21813" />
    <path d="M 808.74041 -439.02031 A 854.4 694.11174 131.83098 0 1 867.00632 -156.99593" />
    <path d="M 159.60221 -777.78949 A 854.4 694.11174 131.83098 0 1 630.18621 -663.81056" />
    <path d="M -438.99045 -437.50627 A 854.4 694.11174 131.83098 0 1 86.72418 -765.05143" />
    <path d="M -672.0029 152.81605 A 854.4 694.11174 131.83098 0 1 -456.09804 -416.75217" />
    <path d="M 761.00052 -518.39772 A 854.4 694.11174 311.83098 0 0 740.3879 -549.31948" />
    <path d="M -206.43813 -343.3798 L -78.16186 -228.56269" />
    <path d="M -31.34243 -186.65571 L 533.3255 318.76539" />
    <path d="M -259.40113 -379.02232 L -352.08354 -359.71791" />
    <path d="M -384.77154 -352.90948 L -522.43437 -324.23631" />
    <path d="M -606.29835 -306.76866 L -800.81218 -266.25425" />
    <path d="M -872.27635 -251.36931 L -924.25056 -240.54383 L -884.88837 -205.31166" />
    <path d="M -830.42222 -156.56027 L -709.79267 -48.58757" />
    <path d="M -655.32651 0.16382 L -534.69696 108.13652" />
    <path d="M -480.23081 156.8879 L -359.60126 264.8606" />
    <path d="M -305.1351 313.61199 L -142.18537 459.4645 A 50 40.61983 131.83098 0 1 -108.8386 467.30774 L -301.18148 295.1461" />
    <path d="M -466.98592 527.11574 L -385.75842 510.19723" />
    <path d="M -294.06559 491.09894 L -142.18537 459.4645" />
    <path d="M -1329.55708 -156.12437 L -1222.13786 -59.97592" />
    <path d="M -1329.55708 -156.12437 L -1250.81716 -172.52475" />
    <path d="M -1187.50945 -185.71083 L -1170.04686 -189.34803" />
    <path d="M -1171.26386 -212.78662 A 700 302.24398 180 0 0 -1171.35775 -207.8366 A 700 302.24398 180 0 0 -1170.04686 -189.34803" />
    <path d="M -1108.03419 -333.45563 A 654.36626 282.54038 180 0 0 -1145.66079 -271.14408" />
    <path d="M -302.75878 -501.18281 A 700 302.24398 180 0 0 -374.43421 -507.16929" />
    <path d="M -458.74437 -510.03152 A 700 302.24398 180 0 0 -519.2799 -509.37148" />
    <path d="M -557.78311 -507.7681 A 700 302.24398 180 0 0 -688.29311 -495.20011" />
    <path d="M -771.33616 -480.92085 A 700 302.24398 180 0 0 -978.12172 -416.34082" />
    <path d="M -1057.11978 -373.31647 A 700 302.24398 180 0 0 -1108.03419 -333.45563" />
    <path d="M -74.02851 -446.77962 A 654.36626 282.54038 180 0 0 -82.42449 -449.80854" />
    <path d="M -156.35461 -472.51503 A 654.36626 282.54038 180 0 0 -302.75878 -501.18281" />
    <path d="M -74.02851 -446.77962 L -54.8857 -450.76679" />
    <path d="M -2.94339 -432.43874 A 700 302.24398 180 0 0 -54.8857 -450.76679" />
    <path d="M 156.56684 -465.6624 L -2.94339 -432.43874" />
    <path d="M 156.56684 -465.6624 L 195.58564 -430.73758" />
    <path d="M 246.45799 -385.20292 L 281.60997 -353.7392" />
    <path d="M 315.23917 -323.63849 L 456.70568 -197.01511" />
    <path d="M 490.33488 -166.9144 L 631.80139 -40.29103" />
    <path d="M 665.43058 -10.19031 L 806.89709 116.43306" />
    <path d="M 840.52629 146.53377 L 938.63202 234.34593" />
    <path d="M -1329.55708 -129.06496 L -1329.55708 -156.12437" />
    <path d="M -157.45524 747.52222 L -182.64093 552.26471" />
    <path d="M -108.8386 467.30774 A 50 40.61983 131.83098 0 1 -97.15131 495.18357 L -97.15131 733.06889" />
    <path d="M 571.52288 -702.51297 A 854.4 694.11174 131.83098 0 1 591.17055 -673.94221" />
    <path d="M 633.64471 -595.74439 A 854.4 694.11174 131.83098 0 1 657.91287 -533.17189" />
    <path d="M 675.89792 -466.77815 A 854.4 694.11174 131.83098 0 1 691.91061 -313.72001" />
    <path d="M -15.49349 -934.51358 A 854.4 694.11174 131.83098 0 1 455.09051 -820.53464" />
    <path d="M -614.08616 -594.23035 A 854.4 694.11174 131.83098 0 1 -88.37152 -921.77552" />
    <path d="M -847.09861 -3.90803 A 854.4 694.11174 131.83098 0 1 -631.19375 -573.47625" />
    <path d="M 650.315 -533.66645 A 854.4 694.11174 311.83098 0 0 626.32924 -598.06305" />
    <path d="M 585.90481 -675.12181 A 854.4 694.11174 311.83098 0 0 565.29219 -706.04357" />
    <path d="M 396.42717 -859.23706 A 854.4 694.11174 131.83098 0 1 416.07485 -830.6663" />
    <path d="M 458.549 -752.46848 A 854.4 694.11174 131.83098 0 1 482.81717 -689.89598" />
    <path d="M 500.80221 -623.50224 A 854.4 694.11174 131.83098 0 1 514.48971 -529.82279" />
    <path d="M -190.5892 -1091.23766 A 854.4 694.11174 131.83098 0 1 279.9948 -977.25873" />
    <path d="M -789.18187 -750.95444 A 854.4 694.11174 131.83098 0 1 -263.46723 -1078.49961" />
    <path d="M -1022.19431 -160.63212 A 854.4 694.11174 131.83098 0 1 -806.28945 -730.20034" />
    <path d="M 504.8167 -528.66323 A 854.4 694.11174 311.83098 0 0 492.15656 -624.33478" />
    <path d="M 475.2193 -690.39054 A 854.4 694.11174 311.83098 0 0 451.23353 -754.78714" />
    <path d="M 410.8091 -831.8459 A 854.4 694.11174 311.83098 0 0 390.19649 -862.76765" />
    <path d="M 221.33147 -1015.96114 A 854.4 694.11174 131.83098 0 1 240.97914 -987.39039" />
    <path d="M 283.4533 -909.19257 A 854.4 694.11174 131.83098 0 1 307.72146 -846.62007" />
    <path d="M 325.70651 -780.22632 A 854.4 694.11174 131.83098 0 1 339.394 -686.54688" />
    <path d="M -365.68491 -1247.96175 A 854.4 694.11174 131.83098 0 1 104.89909 -1133.98282" />
    <path d="M -964.27757 -907.67853 A 854.4 694.11174 131.83098 0 1 -438.56293 -1235.22369" />
    <path d="M -1197.29002 -317.35621 A 854.4 694.11174 131.83098 0 1 -981.38516 -886.92443" />
    <path d="M 329.72099 -685.38732 A 854.4 694.11174 311.83098 0 0 317.06086 -781.05887" />
    <path d="M 300.12359 -847.11463 A 854.4 694.11174 311.83098 0 0 276.13783 -911.51122" />
    <path d="M 235.7134 -988.56998 A 854.4 694.11174 311.83098 0 0 215.10078 -1019.49174" />
    <path d="M -293.77375 -243.79897 L -293.77375 79.73878" />
    <path d="M -283.34273 -357.79998 A 50 40.61983 311.83098 0 0 -289.48108 -346.87444" />
    <path d="M 515.31188 872.36458 L 573.78105 394.71299" />
    <path d="M 488.29144 373.24435 A 50 40.61983 131.83098 0 1 533.3255 318.76539" />
    <path d="M 488.29144 373.24435 L 488.29144 877.99254 L 515.31188 872.36458" />
    <path d="M 1336.67138 192.93991 L 1336.67138 214.58744" />
    <path d="M 920.97626 -179.06085 A 914.4 742.85554 311.83098 0 0 882.47533 -409.66844" />
    <path d="M 725.09691 -661.4673 A 914.4 742.85554 311.83098 0 0 707.31014 -678.04509 L 696.88261 -687.37853" />
    <path d="M 707.31014 -678.04509 A 914.4 742.85554 311.83098 0 0 688.87013 -693.89305" />
    <path d="M 678.44259 -703.2265 A 914.4 742.85554 131.83098 0 1 696.88261 -687.37853" />
    <path d="M 745.88056 -335.78494 A 914.4 742.85554 311.83098 0 0 734.77406 -458.06912" />
    <path d="M 719.6747 -526.17822 A 914.4 742.85554 311.83098 0 0 707.37963 -566.39253" />
    <path d="M 550.0012 -818.19139 A 914.4 742.85554 311.83098 0 0 532.21444 -834.76918 L 521.7869 -844.10262" />
    <path d="M 532.21444 -834.76918 A 914.4 742.85554 311.83098 0 0 513.77442 -850.61714" />
    <path d="M 503.34689 -859.95058 A 914.4 742.85554 131.83098 0 1 521.7869 -844.10262" />
    <path d="M 569.1633 -534.19596 A 914.4 742.85554 311.83098 0 0 559.67835 -614.7932" />
    <path d="M 544.579 -682.90231 A 914.4 742.85554 311.83098 0 0 532.28392 -723.11662" />
    <path d="M 374.9055 -974.91548 A 914.4 742.85554 311.83098 0 0 357.11873 -991.49326 L 346.6912 -1000.82671" />
    <path d="M 357.11873 -991.49326 A 914.4 742.85554 311.83098 0 0 338.67872 -1007.34123" />
    <path d="M 328.25118 -1016.67467 A 914.4 742.85554 131.83098 0 1 346.6912 -1000.82671" />
    <path d="M 394.0676 -690.92005 A 914.4 742.85554 311.83098 0 0 384.58265 -771.51729" />
    <path d="M 369.48329 -839.6264 A 914.4 742.85554 311.83098 0 0 357.18822 -879.8407" />
    <path d="M 199.80979 -1131.63956 A 914.4 742.85554 311.83098 0 0 182.02303 -1148.21735 L 171.59549 -1157.5508" />
    <path d="M 182.02303 -1148.21735 A 914.4 742.85554 311.83098 0 0 163.58301 -1164.06531" />
    <path d="M 153.15547 -1173.39876 A 914.4 742.85554 131.83098 0 1 171.59549 -1157.5508" />
    <path d="M 1087.80702 -335.25608 L 1103.09208 -323.13263" />
    <path d="M 97.91012 -833.00864 A 914.4 742.85554 131.83098 0 1 661.70513 -716.5444" />
    <path d="M -77.18559 -989.73273 A 914.4 742.85554 131.83098 0 1 486.60943 -873.26849" />
    <path d="M -252.28129 -1146.45682 A 914.4 742.85554 131.83098 0 1 311.51372 -1029.99257" />
    <path d="M -427.377 -1303.18091 A 914.4 742.85554 131.83098 0 1 136.41802 -1186.71666" />
    <path d="M 502.28036 -447.2156 L 523.8967 -451.71797" />
    <path d="M -487.63154 -477.15426 A 914.4 742.85554 131.83098 0 1 76.22862 -828.49356" />
    <path d="M -662.72725 -633.87835 A 914.4 742.85554 131.83098 0 1 -98.86708 -985.21765" />
    <path d="M -837.82296 -790.60243 A 914.4 742.85554 131.83098 0 1 -273.96279 -1141.94174" />
    <path d="M -1012.91866 -947.32652 A 914.4 742.85554 131.83098 0 1 -449.0585 -1298.66582" />
    <path d="M -76.91502 -77.35428 L -61.62996 -95.84505" />
    <path d="M -492.49147 -449.32708 A 914.4 742.85554 311.83098 0 0 -726.0476 163.9903" />
    <path d="M -736.47514 154.65686 A 914.4 742.85554 131.83098 0 1 -502.91901 -458.66052" />
    <path d="M -667.58718 -606.05116 A 914.4 742.85554 311.83098 0 0 -901.14331 7.26621" />
    <path d="M -911.57084 -2.06723 A 914.4 742.85554 131.83098 0 1 -678.01471 -615.38461" />
    <path d="M -842.68288 -762.77525 A 914.4 742.85554 311.83098 0 0 -1076.23901 -149.45787" />
    <path d="M -1086.66655 -158.79132 A 914.4 742.85554 131.83098 0 1 -853.11042 -772.1087" />
    <path d="M -1017.77859 -919.49934 A 914.4 742.85554 311.83098 0 0 -1251.33472 -306.18196" />
    <path d="M -1261.76225 -315.51541 A 914.4 742.85554 131.83098 0 1 -1028.20613 -928.83278" />
    <path d="M -310.49432 557.66814 L -310.49432 536.02061" />
    <path d="M -254.55988 -291.66456 L -126.2167 -176.78757" />
    <path d="M -79.46417 -134.94047 L 488.29144 373.24435" />
    <path d="M -261.7331 -376.61866 A 50 40.61983 311.83098 0 0 -283.34273 -357.79998 L -337.36884 -346.54713" />
    <path d="M -889.64752 -231.5155 A 50 40.61983 311.83098 0 0 -890.90378 -232.70059 A 50 40.61983 311.83098 0 0 -924.25056 -240.54383" />
    <path d="M -370.05684 -339.73869 L -534.0391 -305.58357" />
    <path d="M -616.42842 -288.42307 L -806.50549 -248.83277" />
    <path d="M -877.29364 -234.08863 L -889.59256 -231.52694" />
    <path d="M -1171.3334 -189.08006 A 700 302.24398 360 0 1 -1171.35775 -191.60096 L -1171.35775 -207.8366" />
    <path d="M -612.91155 -1336.23237 A 765 621.48347 131.83098 0 1 -561.26208 -1345.04884" />
    <path d="M -480.74299 -1350.94756 A 765 621.48347 131.83098 0 1 -276.91108 -1318.61192" />
    <path d="M -130.94334 -1239.71358 A 765 621.48347 131.83098 0 1 -102.7059 -1216.23074 A 765 621.48347 131.83098 0 1 -49.28849 -1160.51567" />
    <path d="M -0.99664 -1090.84511 A 765 621.48347 131.83098 0 1 39.45523 -1004.15358" />
    <path d="M 58.68614 -940.29305 A 765 621.48347 131.83098 0 1 72.92059 -855.37619" />
    <path d="M 75.57689 -762.4929 A 765 621.48347 131.83098 0 1 51.7806 -602.92297" />
    <path d="M 24.91542 -518.06382 A 765 621.48347 131.83098 0 1 -11.101 -435.56116" />
    <path d="M -293.77375 -101.15205 A 765 621.48347 131.83098 0 1 -424.26582 -21.86006" />
    <path d="M -506.00773 13.17524 A 765 621.48347 131.83098 0 1 -588.23156 38.21427" />
    <path d="M -1261.39836 -277.97021 A 765 621.48347 131.83098 0 1 -1269.72591 -300.91771" />
    <path d="M -1294.70875 -404.55345 A 765 621.48347 131.83098 0 1 -1118.52142 -1009.67191" />
    <path d="M -1101.72729 -1030.70657 A 765 621.48347 131.83098 0 1 -612.91155 -1336.23237" />
    <path d="M -1235.21102 -518.22887 A 690.9233 561.3038 131.83098 0 1 -1073.49246 -969.36752" />
    <path d="M -1056.82009 -990.51118 A 690.9233 561.3038 131.83098 0 1 -512.49807 -1282.16485" />
    <path d="M -308.25142 -1253.08102 A 690.9233 561.3038 131.83098 0 1 -150.89997 -1159.94783" />
    <path d="M -93.24078 -1097.29825 A 690.9233 561.3038 131.83098 0 1 -34.64776 -996.92839" />
    <path d="M -12.43794 -934.89598 A 690.9233 561.3038 131.83098 0 1 -11.25334 -930.71831" />
    <path d="M 6.32022 -837.01915 A 690.9233 561.3038 131.83098 0 1 8.40552 -810.67035" />
    <path d="M 8.57047 -743.68923 A 690.9233 561.3038 131.83098 0 1 -25.73334 -562.11153" />
    <path d="M -66.94652 -460.87059 A 690.9233 561.3038 131.83098 0 1 -74.02851 -446.77962" />
    <path d="M -649.35616 -16.49694 A 690.9233 561.3038 311.83098 0 0 -472.96078 -68.13199" />
    <path d="M -376.35526 -119.07141 A 690.9233 561.3038 311.83098 0 0 -293.77375 -177.68049" />
    <path d="M -273.00967 196.56965 L 488.29144 877.99254" />
    <path d="M -615.08395 -1338.17684 A 765 621.48347 311.83098 0 0 -1103.89969 -1032.65104" />
    <path d="M -1120.69383 -1011.61637 A 765 621.48347 311.83098 0 0 -1296.88116 -406.49792" />
    <path d="M -1271.89832 -302.86218 A 765 621.48347 311.83098 0 0 -1261.26075 -274.0507" />
    <path d="M -103.7935 -1217.20141 A 765 621.48347 311.83098 0 0 -104.8783 -1218.17521 L -102.7059 -1216.23074" />
    <path d="M -104.8783 -1218.17521 A 765 621.48347 311.83098 0 0 -130.49117 -1239.61824" />
    <path d="M -273.69229 -1318.63172 A 765 621.48347 311.83098 0 0 -482.9154 -1352.89203" />
    <path d="M -563.43448 -1346.99331 A 765 621.48347 311.83098 0 0 -615.08395 -1338.17684" />
    <path d="M 542.05083 653.92638 L 582.05116 645.59489" />
    <path d="M 646.51957 632.16705 L 678.11295 625.58661" />
    <path d="M 622.72091 376.83156 L 628.60614 403.26102" />
    <path d="M 650.08548 499.72058 L 678.11295 625.58661" />
    <path d="M -657.37204 903.74874 L -800.35517 933.53005 L -876.38929 592.07543 L -1028.45752 455.9627 L -1104.49164 661.30459 L -800.35517 933.53005" />
    <path d="M -733.40615 562.29412 L -876.38929 592.07543" />
    <path d="M -657.37204 903.74874 L -733.40615 562.29412 L -885.47439 426.18139 L -1028.45752 455.9627" />
    <path d="M -604.22193 -1360.02381 A 800 649.91736 131.83098 0 1 -582.65075 -1364.19334" />
    <path d="M -506.19859 -1373.73227 A 800 649.91736 131.83098 0 1 -187.90643 -1314.10439" />
    <path d="M -53.0706 -1218.03642 A 800 649.91736 131.83098 0 1 1.30256 -1155.66944" />
    <path d="M 47.30451 -1082.31779 A 800 649.91736 131.83098 0 1 80.69607 -1005.18924" />
    <path d="M 99.43994 -940.29014 A 800 649.91736 131.83098 0 1 114.73166 -836.11775" />
    <path d="M 114.71465 -739.99782 A 800 649.91736 131.83098 0 1 98.08455 -623.39551" />
    <path d="M 76.77184 -544.50002 A 800 649.91736 131.83098 0 1 35.92021 -440.53346" />
    <path d="M -293.77375 -51.92743 A 800 649.91736 131.83098 0 1 -445.46843 32.34696" />
    <path d="M -521.83648 61.25283 A 800 649.91736 131.83098 0 1 -552.23323 70.43553" />
    <path d="M -1253.68704 -190.65747 A 800 649.91736 131.83098 0 1 -1307.439 -334.67382" />
    <path d="M -1322.30309 -429.2525 A 800 649.91736 131.83098 0 1 -1131.09505 -1020.92627" />
    <path d="M -1114.25129 -1041.91651 A 800 649.91736 131.83098 0 1 -604.22193 -1360.02381" />
    <path d="M -604.22193 -1351.00401 A 790 641.79339 131.83098 0 1 -574.1937 -1356.62363" />
    <path d="M -496.68561 -1365.21743 A 790 641.79339 131.83098 0 1 -216.60088 -1316.72393" />
    <path d="M -75.47098 -1225.39709 A 790 641.79339 131.83098 0 1 -12.43962 -1157.33892" />
    <path d="M 34.83271 -1084.87947 A 790 641.79339 131.83098 0 1 70.52775 -1005.13622" />
    <path d="M 89.71165 -940.50078 A 790 641.79339 131.83098 0 1 105.68745 -834.48892" />
    <path d="M 106.25759 -747.56753 A 790 641.79339 131.83098 0 1 88.36415 -619.33107" />
    <path d="M 66.22705 -539.44529 A 790 641.79339 131.83098 0 1 25.76494 -438.41827" />
    <path d="M -293.77375 -61.93699 A 790 641.79339 131.83098 0 1 -441.46648 21.33391" />
    <path d="M -518.73645 51.15824 A 790 641.79339 131.83098 0 1 -559.95458 63.52433" />
    <path d="M -1257.34926 -219.66366 A 790 641.79339 131.83098 0 1 -1294.94859 -323.49394" />
    <path d="M -1312.24743 -420.25191 A 790 641.79339 131.83098 0 1 -1125.02054 -1015.48911" />
    <path d="M -1108.1905 -1036.49164 A 790 641.79339 131.83098 0 1 -604.22193 -1351.00401" />
    <path d="M 265.62828 833.2993 L 106.30422 690.69205 L 85.36233 695.05394" />
    <path d="M 265.62828 874.7904 L 265.62828 833.2993" />
    <path d="M 338.78944 939.08271 L 265.62828 873.59787" />
    <path d="M 98.57778 989.11532 L 338.78944 939.08271" />
    <path d="M 26.49743 924.59788 L 98.57778 989.11532" />
    <path d="M 26.49743 924.59788 L 265.62828 874.7904" />
    <path d="M -47.35862 1169.08403 L 26.49743 1153.70089 L 98.57778 1218.21832 L 98.57778 989.11532" />
    <path d="M -181.27341 1069.89037 L -111.82703 1132.05021" />
    <path d="M -191.36421 1050.83033 A 101.6 43.86856 180 0 0 -181.27341 1069.89037 L -181.27341 980.83648" />
    <path d="M 98.57778 1218.21832 L 338.78944 1168.18572 L 338.78944 939.08271" />
    <path d="M 25.36233 707.55107 L -133.90744 740.72465 A 101.6 43.86856 180 0 0 -191.36421 780.23623 L -191.36421 879.22915" />
    <path d="M -191.36421 780.23623 A 101.6 43.86856 180 0 0 -181.27341 799.29627 L -66.09259 902.39194 L 265.62828 833.2993" />
    <path d="M 28.34189 782.05081 A 30 12.95331 360 0 1 25.36233 776.42285" />
    <path d="M 85.36233 776.42285 A 30 12.95331 360 0 1 28.34189 782.05081" />
    <path d="M 26.49743 924.59788 L 26.49743 1153.70089" />
    <path d="M -66.09259 995.19674 L -66.09259 902.39194" />
    <path d="M 103.98186 993.40161 L 333.38535 945.62019" />
    <path d="M 103.98186 993.40161 L 103.98186 1211.68085 L 104.67703 1212.30308 L 334.08052 1164.52166 L 334.08052 946.24242 L 333.38535 945.62019" />
    <path d="M 271.96426 1211.33171 A 12.5 5.39721 180 0 0 296.96426 1211.33171 L 296.96426 1176.8973" />
    <path d="M 91.82802 1248.85147 A 12.5 5.39721 180 0 0 116.82802 1248.85147 L 116.82802 1214.41706" />
    <path d="M 28.34189 556.55573 A 30 12.95331 360 0 1 25.36233 550.92776 L 25.36233 776.42285" />
    <path d="M 25.36233 550.92776 A 30 12.95331 360 1 1 85.36233 550.92776 L 85.36233 776.42285" />
    <path d="M 85.36233 550.92776 A 30 12.95331 360 0 1 28.34189 556.55573" />
    <path d="M 104.67703 994.02384 L 334.08052 946.24242" />
    <path d="M 103.98186 993.40161 L 104.67703 994.02384" />
    <path d="M 104.67703 1212.30308 L 104.67703 994.02384" />
    <path d="M 151.82769 1137.53969 L 151.82769 1191.65851 L 153.34837 1193.01964 L 288.45055 1164.87982 L 288.45055 1110.761 L 153.34837 1138.90082 L 153.34837 1193.01964" />
    <path d="M 286.92986 1109.39987 L 151.82769 1137.53969 L 153.34837 1138.90082" />
    <path d="M 286.92986 1109.39987 L 288.45055 1110.761" />
    <path d="M -181.27341 891.81757 L -181.27341 799.29627" />
    <path d="M 1057.50156 -364.59691 L 1047.07402 -373.93036" />
    <path d="M -162.19007 998.07024 L -172.61761 988.7368" />
    <path d="M -337.28578 841.34615 L -347.71331 832.01271" />
    <path d="M -354.99375 246.98 L -476.27719 138.42202" />
    <path d="M -530.08945 90.25591 L -651.3729 -18.30207" />
    <path d="M -705.18516 -66.46817 L -826.4686 -175.02616" />
    <path d="M -880.28087 -223.19226 L -890.90378 -232.70059" />
    <path d="M -191.36421 971.29988 L -191.36421 1050.83033" />
    <path d="M 271.96426 1211.33171 L 271.96426 1182.10444" />
    <path d="M 91.82802 1248.85147 L 91.82802 1212.17678" />
</svg>