<svg version="1.1" xmlns="http://www.w3.org/2000/svg" viewBox="-2601.9830584361016 -1011.060847104549 4674.413329925783 2642.068836715733" fill="none" stroke="black" stroke-width="0.6%" vector-effect="non-scaling-stroke">
    <path d="M 1905.04419 798.15323 L 1175.55977 763.30452" />
    <path d="M 1582.22549 573.35988 L 1905.04419 798.15323" />
    <path d="M 1582.22549 573.35988 L 1648.81247 542.25856" />
    <path d="M 2024.48913 803.85931 L 1648.81247 542.25856" />
    <path d="M 2071.43027 806.10177 L 2024.48913 803.85931" />
    <path d="M 2061.63706 829.72711 L 2071.43027 806.10177 L 2071.43027 900.16316" />
    <path d="M 2068.56216 834.54937 L 2061.63706 829.72711" />
    <path d="M 2058.98082 836.13508 L 2068.56216 834.54937 L 2068.56216 928.61076" />
    <path d="M 2057.49547 839.71837 L 2058.98082 836.13508" />
    <path d="M 2041.8466 838.9708 L 2057.49547 839.71837 L 2057.49547 933.77977 L 2058.98082 930.19647 L 2068.56216 928.61076" />
    <path d="M 1978.67501 849.42572 L 2041.8466 838.9708 L 2041.8466 933.03219 L 2057.49547 933.77977" />
    <path d="M 1957.90215 834.96063 L 1978.67501 849.42572 L 1978.67501 943.48711 L 2041.8466 933.03219" />
    <path d="M 1108.97279 794.40584 L 1957.90215 834.96063" />
    <path d="M 1108.97279 794.40584 L 1175.55977 763.30452" />
    <path d="M 1582.22549 667.42127 L 1760.01614 791.22499" />
    <path d="M 1582.22549 573.35988 L 1582.22549 667.42127" />
    <path d="M 1020.49164 536.19825 A 914.4 505.67545 103.86015 0 1 841.29114 -21.17986 L 411.27228 -127.2814" />
    <path d="M 1020.49164 536.19825 L 1020.49164 931.29983 L 1111.89594 888.60688" />
    <path d="M 1361.17969 772.1719 L 1583.51907 668.32205" />
    <path d="M 1730.95484 599.45803 L 1737.29362 596.49733 L 1737.29362 201.39575" />
    <path d="M 1916.49412 -523.38361 A 914.4 505.67545 103.86015 0 1 1737.29362 201.39575" />
    <path d="M 1916.49412 -523.38361 L 1725.74407 -434.28845 L 1677.20928 -446.26377 L 1832.68364 -518.88244 L -42.70064 -981.60902 A 854.4 472.49465 103.86015 0 1 -114.43205 -534.23472 L -115.62527 -533.67739" />
    <path d="M 1725.74407 -434.28845 A 590.15 326.36086 103.86015 0 1 1237.52055 286.43476 A 590.15 326.36086 103.86015 0 1 1032.04119 -110.27503 L 983.5064 -122.25036" />
    <path d="M 1032.04119 -110.27503 L 841.29114 -21.17986" />
    <path d="M 1108.97279 794.40584 L 1108.97279 888.46724 L 1957.90215 929.02203 L 1978.67501 943.48711" />
    <path d="M 2068.56216 907.08226 L 2071.43027 900.16316" />
    <path d="M 2058.98082 930.19647 L 2058.98082 836.13508" />
    <path d="M 1957.90215 929.02203 L 1957.90215 834.96063" />
    <path d="M 428.97965 390.25039 L 1020.49164 536.19825" />
    <path d="M 828.03204 -49.63169 L 403.50897 -154.37721" />
    <path d="M 828.03204 -49.63169 L 983.5064 -122.25036" />
    <path d="M 1677.20928 -446.26377 A 590.15 326.36086 103.86015 0 1 1213.66839 278.76422" />
    <path d="M -321.02582 -851.60943 L -42.70064 -981.60902" />
    <path d="M -321.02582 -851.60943 L -369.56061 -863.58475 L -369.56061 -596.33262" />
    <path d="M -55.95974 -1010.06085 L -369.56061 -863.58475" />
    <path d="M 1916.49412 -523.38361 L -55.95974 -1010.06085" />
    <path d="M 326.94746 760.17686 L 1020.49164 931.29983" />
    <path d="M 1134.15119 221.2569 L 1153.9794 211.99557 A 50 27.65067 103.86015 0 1 1165.95704 210.4821 L 1115.67565 198.07583" />
    <path d="M 1183.3758 245.29585 L 1183.3758 263.3676" />
    <path d="M 1165.95704 210.4821 A 50 27.65067 103.86015 0 1 1183.3758 245.29585" />
    <path d="M 1179.82901 -214.8927 L -114.43205 -534.23472" />
    <path d="M 1179.82901 -214.8927 A 854.4 472.49465 103.86015 0 1 1166.22926 -174.3112" />
    <path d="M 1047.03823 30.50783 L 1319.97952 97.85253" />
    <path d="M 1379.97952 112.65674 L 1476.65208 136.50943" />
    <path d="M -321.02582 -584.3573 L -321.02582 -851.60943" />
    <path d="M 1179.82901 -214.8927 L 925.61306 -96.154" />
    <path d="M 919.75175 -92.47196 A 50 27.65067 103.86015 0 1 925.61306 -96.154" />
    <path d="M 1033.13543 -78.74433 L 1166.22926 -174.3112" />
    <path d="M 402.65111 -157.17374 L 831.65323 -51.32307" />
    <path d="M 1274.60175 94.63543 L 1101.03608 175.70415" />
    <path d="M 1471.11383 143.12222 L 1379.97952 120.63602" />
    <path d="M 1319.97952 105.8318 L 1274.60175 94.63543" />
    <path d="M 1224.09704 279.55465 L 1436.61863 180.29047" />
    <path d="M 1374.24691 146.08058 A 30 10.18434 360 0 1 1319.97952 140.09291" />
    <path d="M 1379.97952 140.09291 A 30 10.18434 360 0 1 1374.24691 146.08058" />
    <path d="M 1374.24691 -136.1036 A 30 10.18434 360 0 1 1319.97952 -142.09127 L 1319.97952 140.09291" />
    <path d="M 1319.97952 -142.09127 A 30 10.18434 360 0 1 1379.97952 -142.09127 L 1379.97952 140.09291" />
    <path d="M 1379.97952 -142.09127 A 30 10.18434 360 0 1 1374.24691 -136.1036" />
    <path d="M 435.22385 1484.6741 L -294.26057 1449.8254" />
    <path d="M 112.40515 1259.88075 L 435.22385 1484.6741" />
    <path d="M 112.40515 1259.88075 L 178.99213 1228.77943" />
    <path d="M 554.66879 1490.38019 L 178.99213 1228.77943" />
    <path d="M 601.60993 1492.62265 L 554.66879 1490.38019" />
    <path d="M 591.81672 1516.24798 L 601.60993 1492.62265 L 601.60993 1586.68404" />
    <path d="M 598.74182 1521.07024 L 591.81672 1516.24798" />
    <path d="M 589.16048 1522.65596 L 598.74182 1521.07024 L 598.74182 1615.13164" />
    <path d="M 587.67513 1526.23925 L 589.16048 1522.65596" />
    <path d="M 572.02626 1525.49168 L 587.67513 1526.23925 L 587.67513 1620.30064 L 589.16048 1616.71735 L 598.74182 1615.13164" />
    <path d="M 508.85467 1535.94659 L 572.02626 1525.49168 L 572.02626 1619.55307 L 587.67513 1620.30064" />
    <path d="M 488.08181 1521.48151 L 508.85467 1535.94659 L 508.85467 1630.00799 L 572.02626 1619.55307" />
    <path d="M -360.84755 1480.92672 L 488.08181 1521.48151" />
    <path d="M -360.84755 1480.92672 L -294.26057 1449.8254" />
    <path d="M 112.40515 1353.94215 L 290.1958 1477.74587" />
    <path d="M 112.40515 1259.88075 L 112.40515 1353.94215" />
    <path d="M -449.3287 1222.71913 L -449.3287 1617.8207 L -357.9244 1575.12775" />
    <path d="M -108.64065 1458.69278 L 113.69873 1354.84293" />
    <path d="M 261.1345 1285.97891 L 267.47328 1283.0182 L 267.47328 887.91663" />
    <path d="M -449.3287 1222.71913 A 914.4 505.67545 103.86015 0 1 128.11936 -473.53659 L -1844.3345 -960.21382 A 914.4 505.67545 283.86015 0 0 -2421.78256 736.0419 L -2421.78256 1131.14347 L -2160.39369 1195.63776" />
    <path d="M 128.11936 -473.53659 A 914.4 505.67545 103.86015 0 1 267.47328 887.91663" />
    <path d="M -360.84755 1480.92672 L -360.84755 1574.98811 L 488.08181 1615.5429 L 508.85467 1630.00799" />
    <path d="M -90.92771 -155.11448 A 590.15 326.36086 103.86015 0 1 50.44437 -172.97797 A 590.15 326.36086 103.86015 0 1 -232.29979 972.95564 A 590.15 326.36086 103.86015 0 1 -90.92771 -155.11448 Z" />
    <path d="M 598.74182 1593.60314 L 601.60993 1586.68404" />
    <path d="M 589.16048 1616.71735 L 589.16048 1522.65596" />
    <path d="M 488.08181 1615.5429 L 488.08181 1521.48151" />
    <path d="M -2421.78256 736.0419 L -449.3287 1222.71913" />
    <path d="M -1528.99112 1351.4281 L -449.3287 1617.8207" />
    <path d="M -1536.66978 968.85867 L -1395.10997 1288.89515" />
    <path d="M -1819.78938 899.0026 L -1536.66978 968.85867" />
    <path d="M 25.76174 -177.28275 A 590.15 326.36086 103.86015 0 1 -256.15195 965.28509" />
    <path d="M -2196.16769 1258.86159 L -2054.60788 1008.68118 L -1771.48827 1078.53724 L -1629.92847 1398.57372 L -2196.16769 1258.86159 Z" />
    <path d="M -2054.60788 1008.68118 L -1819.78938 899.0026" />
    <path d="M -1771.48827 1078.53724 L -1536.66978 968.85867" />
    <path d="M -1629.92847 1398.57372 L -1395.10997 1288.89515" />
    <path d="M -335.66915 907.77777 L -315.84094 898.51645 A 50 27.65067 103.86015 0 1 -303.8633 897.00298 L -354.14469 884.5967" />
    <path d="M -286.44453 931.81673 L -286.44453 949.88848" />
    <path d="M -303.8633 897.00298 A 50 27.65067 103.86015 0 1 -286.44453 931.81673" />
    <path d="M -289.99133 471.62817 L -429.5556 437.19251" />
    <path d="M -289.99133 471.62817 A 854.4 472.49465 103.86015 0 1 -303.59108 512.20967" />
    <path d="M -422.78211 717.0287 L -149.84082 784.3734" />
    <path d="M -89.84082 799.17762 L 6.83174 823.03031" />
    <path d="M -289.99133 471.62817 L -437.63704 540.59025" />
    <path d="M -436.68491 607.77655 L -303.59108 512.20967" />
    <path d="M -195.21859 781.15631 L -368.78426 862.22503" />
    <path d="M 1.29349 829.6431 L -89.84082 807.15689" />
    <path d="M -149.84082 792.35268 L -195.21859 781.15631" />
    <path d="M -245.7233 966.07552 L -33.2017 866.81135" />
    <path d="M -95.57342 832.60145 A 30 10.18434 360 0 1 -149.84082 826.61379" />
    <path d="M -89.84082 826.61379 A 30 10.18434 360 0 1 -95.57342 832.60145" />
    <path d="M -95.57342 550.41727 A 30 10.18434 360 0 1 -149.84082 544.42961 L -149.84082 826.61379" />
    <path d="M -149.84082 544.42961 A 30 10.18434 360 0 1 -89.84082 544.42961 L -89.84082 826.61379" />
    <path d="M -89.84082 544.42961 A 30 10.18434 360 0 1 -95.57342 550.41727" />
    <path d="M 1119.6787 203.53232 L 1153.9794 211.99557" />
    <path d="M 375.2171 -231.95702 L 925.61306 -96.154" />
    <path d="M -350.14164 890.0532 L -315.84094 898.51645" />
</svg>