<svg version="1.1" xmlns="http://www.w3.org/2000/svg" viewBox="-2601.9830584361016 -1298.056221554894 4674.413329925783 2865.8776166080975" fill="none" stroke="black" stroke-width="0.6%" vector-effect="non-scaling-stroke">
    <path d="M 1108.97279 612.77452 L 1175.55977 577.1913" />
    <path d="M 1905.04419 617.06193 L 1175.55977 577.1913" />
    <path d="M 1582.22549 359.87441 L 1905.04419 617.06193" />
    <path d="M 1582.22549 359.87441 L 1648.81247 324.29119" />
    <path d="M 2024.48913 623.5903 L 1648.81247 324.29119" />
    <path d="M 2071.43027 626.15591 L 2024.48913 623.5903" />
    <path d="M 2061.63706 653.18581 L 2071.43027 626.15591 L 2071.43027 718.30503" />
    <path d="M 2068.56216 658.70299 L 2061.63706 653.18581" />
    <path d="M 2058.98082 660.51721 L 2068.56216 658.70299 L 2068.56216 750.85211" />
    <path d="M 2057.49547 664.61688 L 2058.98082 660.51721" />
    <path d="M 2041.8466 663.76158 L 2057.49547 664.61688 L 2057.49547 756.766 L 2058.98082 752.66634 L 2068.56216 750.85211" />
    <path d="M 1978.67501 675.72312 L 2041.8466 663.76158 L 2041.8466 755.9107 L 2057.49547 756.766" />
    <path d="M 1957.90215 659.17352 L 1978.67501 675.72312 L 1978.67501 767.87224 L 2041.8466 755.9107" />
    <path d="M 1108.97279 612.77452 L 1957.90215 659.17352" />
    <path d="M 1020.49164 366.61206 A 914.4 495.39506 105.76402 0 1 841.29114 -165.67111 L 393.36872 -292.11662" />
    <path d="M 1020.49164 366.61206 L 1020.49164 753.68121 L 1111.47581 705.06045" />
    <path d="M 1334.50151 585.8784 L 1583.33315 452.906" />
    <path d="M 1719.14894 380.32779 L 1737.29362 370.63151 L 1737.29362 -16.43764" />
    <path d="M 1916.49412 -740.24566 A 914.4 495.39506 105.76402 0 1 1737.29362 -16.43764" />
    <path d="M 1916.49412 -740.24566 L 1711.04081 -630.45407 L 1662.50602 -644.15512 L 1832.68364 -735.09584 L -42.70064 -1264.5043 A 854.4 462.88882 105.76402 0 1 -183.03647 -643.64286" />
    <path d="M 1711.04081 -630.45407 A 565.15 306.18167 105.76402 0 1 1225.35497 76.97505 A 565.15 306.18167 105.76402 0 1 1046.74445 -275.4627 L 998.20966 -289.16374" />
    <path d="M 1046.74445 -275.4627 L 841.29114 -165.67111" />
    <path d="M 1108.97279 612.77452 L 1108.97279 704.92365 L 1957.90215 751.32264 L 1978.67501 767.87224" />
    <path d="M 1582.22549 359.87441 L 1582.22549 452.02353 L 1780.86027 610.27454" />
    <path d="M 2068.56216 726.22122 L 2071.43027 718.30503" />
    <path d="M 2058.98082 752.66634 L 2058.98082 660.51721" />
    <path d="M 1957.90215 751.32264 L 1957.90215 659.17352" />
    <path d="M 437.83115 202.1309 L 1020.49164 366.61206" />
    <path d="M -817.56185 -890.06591 L -899.96957 -846.02829" />
    <path d="M -817.56185 -890.06591 L -769.02706 -876.36487 L -769.02706 -809.0641" />
    <path d="M -851.43478 -832.32725 L -769.02706 -876.36487" />
    <path d="M 828.03204 -198.22303 L 380.44039 -324.57516" />
    <path d="M 828.03204 -198.22303 L 998.20966 -289.16374" />
    <path d="M 1662.50602 -644.15512 A 565.15 306.18167 105.76402 0 1 1201.60915 68.27692" />
    <path d="M -321.02582 -1115.77093 L -42.70064 -1264.5043" />
    <path d="M -321.02582 -1115.77093 L -369.56061 -1129.47198 L -369.56061 -696.29738" />
    <path d="M -55.95974 -1297.05622 L -369.56061 -1129.47198" />
    <path d="M 1916.49412 -740.24566 L -55.95974 -1297.05622" />
    <path d="M 354.68586 565.72869 L 1020.49164 753.68121" />
    <path d="M -321.02582 -682.59633 L -321.02582 -1115.77093" />
    <path d="M 335.43252 -408.59781 L 539.64773 -350.94922" />
    <path d="M 1051.09978 -206.56972 L 1319.97952 -130.66676" />
    <path d="M 1379.97952 -113.72916 L 1473.62261 -87.29434" />
    <path d="M 1227.71667 -441.8362 A 854.4 462.88882 105.76402 0 1 1214.54234 -402.2569" />
    <path d="M 1227.71667 -441.8362 L 823.26009 -556.01159 L 566.1045 -418.59097 L 970.56108 -304.41558" />
    <path d="M 945.1311 -260.79925 A 45 24.37968 105.76402 0 1 970.56108 -304.41558" />
    <path d="M 1227.71667 -441.8362 L 970.56108 -304.41558" />
    <path d="M 1044.58149 -276.07329 L 1214.54234 -402.2569" />
    <path d="M 539.64773 -362.98571 L 539.64773 -279.63199" />
    <path d="M 566.1045 -418.59097 A 45 24.37968 285.76402 0 0 539.64773 -362.98571 L 930.0961 -252.76474" />
    <path d="M 613.73915 778.02862 L 305.01719 690.87847" />
    <path d="M 613.73915 638.8577 L 613.73915 778.02862" />
    <path d="M 676.59701 774.16625 A 45 17.47796 360 0 1 613.73915 778.02862" />
    <path d="M 820.55076 697.23924 L 676.59701 774.16625" />
    <path d="M 1274.60175 -82.98769 L 1120.911 -0.85734" />
    <path d="M 1431.57139 -38.67621 L 1379.97952 -53.24025" />
    <path d="M 1319.97952 -70.17785 L 1274.60175 -82.98769" />
    <path d="M 1374.24691 -24.12896 A 30 11.65197 360 0 1 1319.97952 -30.97949" />
    <path d="M 1379.97952 -30.97949 A 30 11.65197 360 0 1 1374.24691 -24.12896" />
    <path d="M 1374.24691 -300.57634 A 30 11.65197 360 0 1 1319.97952 -307.42686 L 1319.97952 -30.97949" />
    <path d="M 1319.97952 -307.42686 A 30 11.65197 360 0 1 1379.97952 -307.42686 L 1379.97952 -30.97949" />
    <path d="M 1379.97952 -307.42686 A 30 11.65197 360 0 1 1374.24691 -300.57634" />
    <path d="M -360.84755 1398.22748 L -294.26057 1362.64426" />
    <path d="M 435.22385 1402.51489 L -294.26057 1362.64426" />
    <path d="M 112.40515 1145.32737 L 435.22385 1402.51489" />
    <path d="M 112.40515 1145.32737 L 178.99213 1109.74415" />
    <path d="M 554.66879 1409.04326 L 178.99213 1109.74415" />
    <path d="M 601.60993 1411.60887 L 554.66879 1409.04326" />
    <path d="M 591.81672 1438.63877 L 601.60993 1411.60887 L 601.60993 1503.758" />
    <path d="M 598.74182 1444.15595 L 591.81672 1438.63877" />
    <path d="M 589.16048 1445.97018 L 598.74182 1444.15595 L 598.74182 1536.30507" />
    <path d="M 587.67513 1450.06984 L 589.16048 1445.97018" />
    <path d="M 572.02626 1449.21454 L 587.67513 1450.06984 L 587.67513 1542.21897 L 589.16048 1538.1193 L 598.74182 1536.30507" />
    <path d="M 508.85467 1461.17608 L 572.02626 1449.21454 L 572.02626 1541.36366 L 587.67513 1542.21897" />
    <path d="M 488.08181 1444.62648 L 508.85467 1461.17608 L 508.85467 1553.32521 L 572.02626 1541.36366" />
    <path d="M -360.84755 1398.22748 L 488.08181 1444.62648" />
    <path d="M -449.3287 1152.06503 L -449.3287 1539.13418 L -358.34453 1490.51341" />
    <path d="M -135.31883 1371.33137 L 113.51281 1238.35896" />
    <path d="M 249.32861 1165.78076 L 267.47328 1156.08448 L 267.47328 769.01533" />
    <path d="M -449.3287 1152.06503 A 914.4 495.39506 105.76402 0 1 157.49276 -547.51373 L -1814.9611 -1104.32429 A 914.4 495.39506 285.76402 0 0 -2421.78256 595.25446 L -2421.78256 982.32362 L -2146.42466 1060.05531" />
    <path d="M 157.49276 -547.51373 A 914.4 495.39506 105.76402 0 1 267.47328 769.01533" />
    <path d="M -360.84755 1398.22748 L -360.84755 1490.37661 L 488.08181 1536.7756 L 508.85467 1553.32521" />
    <path d="M 112.40515 1145.32737 L 112.40515 1237.47649 L 311.03993 1395.72751" />
    <path d="M -90.92771 -202.24679 A 565.15 306.18167 105.76402 0 1 62.60994 -225.36004 A 565.15 306.18167 105.76402 0 1 -244.46536 862.42801 A 565.15 306.18167 105.76402 0 1 -90.92771 -202.24679 Z" />
    <path d="M 598.74182 1511.67418 L 601.60993 1503.758" />
    <path d="M 589.16048 1538.1193 L 589.16048 1445.97018" />
    <path d="M 488.08181 1536.7756 L 488.08181 1444.62648" />
    <path d="M -2421.78256 595.25446 L -449.3287 1152.06503" />
    <path d="M -1509.74908 1239.78458 L -449.3287 1539.13418" />
    <path d="M -1536.66978 859.24935 L -1395.10997 1178.52293" />
    <path d="M -1819.78938 779.32658 L -1536.66978 859.24935" />
    <path d="M 37.82098 -230.36296 A 565.15 306.18167 105.76402 0 1 -268.21119 853.72988" />
    <path d="M -2196.16769 1144.16134 L -2054.60788 904.81054 L -1771.48827 984.73332 L -1629.92847 1304.00689 L -2196.16769 1144.16134 Z" />
    <path d="M -2054.60788 904.81054 L -1819.78938 779.32658" />
    <path d="M -1771.48827 984.73332 L -1536.66978 859.24935" />
    <path d="M -1629.92847 1304.00689 L -1395.10997 1178.52293" />
    <path d="M -1224.13667 1320.41106 L -1224.13667 1459.58198" />
    <path d="M -856.08118 1563.48159 L -1224.13667 1459.58198" />
    <path d="M -856.08118 1424.31067 L -856.08118 1563.48159" />
    <path d="M -793.22333 1559.61922 A 45 17.47796 360 0 1 -856.08118 1563.48159" />
    <path d="M -649.26958 1482.6922 L -793.22333 1559.61922" />
    <path d="M -418.72056 578.88325 L -149.84082 654.7862" />
    <path d="M -89.84082 671.7238 L 3.80227 698.15862" />
    <path d="M -242.10367 343.61677 A 854.4 462.88882 105.76402 0 1 -255.27799 383.19606" />
    <path d="M -242.10367 343.61677 L -401.34143 298.66501" />
    <path d="M -242.10367 343.61677 L -421.28912 439.37115" />
    <path d="M -423.11069 507.79967 L -255.27799 383.19606" />
    <path d="M -195.21859 702.46527 L -348.90934 784.59562" />
    <path d="M -38.24895 746.77676 L -89.84082 732.21271" />
    <path d="M -149.84082 715.27512 L -195.21859 702.46527" />
    <path d="M -95.57342 761.324 A 30 11.65197 360 0 1 -149.84082 754.47347" />
    <path d="M -89.84082 754.47347 A 30 11.65197 360 0 1 -95.57342 761.324" />
    <path d="M -95.57342 484.87663 A 30 11.65197 360 0 1 -149.84082 478.0261 L -149.84082 754.47347" />
    <path d="M -149.84082 478.0261 A 30 11.65197 360 0 1 -89.84082 478.0261 L -89.84082 754.47347" />
    <path d="M -89.84082 478.0261 A 30 11.65197 360 0 1 -95.57342 484.87663" />
    <path d="M 676.59701 656.60206 L 676.59701 774.16625" />
    <path d="M -793.22333 1442.05502 L -793.22333 1559.61922" />
</svg>