<svg version="1.1" xmlns="http://www.w3.org/2000/svg" viewBox="-1422.6637000898154 -337.29879118442847 2359.740179071817 684.5525889726466" fill="none" stroke="black" stroke-width="0.6%" vector-effect="non-scaling-stroke">
    <path d="M 807.8628 145.95377 L 936.07648 137.72548 L 323.83286 33.72286 L -42.71737 -28.54351 L -340.77507 -79.17496 L -758.48281 -52.36799" />
    <path d="M 861.34847 235.29056 L 807.8628 145.95377" />
    <path d="M 902.2251 237.79688 L 861.34847 235.29056" />
    <path d="M 866.63728 244.12443 L 902.2251 237.79688 L 902.2251 337.2503" />
    <path d="M 867.62321 245.77123 L 866.63728 244.12443" />
    <path d="M 856.98469 245.84067 L 867.62321 245.77123 L 867.62321 345.22465" />
    <path d="M 851.58702 246.80038 L 856.98469 245.84067" />
    <path d="M 837.95989 245.96484 L 851.58702 246.80038 L 851.58702 346.2538 L 856.98469 345.29409 L 867.62321 345.22465" />
    <path d="M 767.81802 246.42264 L 837.95989 245.96484 L 837.95989 345.41826 L 851.58702 346.2538" />
    <path d="M 764.86056 241.48281 L 767.81802 246.42264 L 767.81802 345.87606 L 837.95989 345.41826" />
    <path d="M 25.60774 196.15608 L 764.86056 241.48281" />
    <path d="M -102.60594 204.38437 L 25.60774 196.15608 L 25.60774 295.6095 L 764.86056 340.93623 L 767.81802 345.87606" />
    <path d="M -714.84956 100.38175 L -102.60594 204.38437 L -102.60594 305.42904 L 38.288 296.38698" />
    <path d="M -714.84956 100.38175 L -714.3384 100.34894" />
    <path d="M 711.37489 152.14602 L 757.33509 228.91306 L 122.09565 189.96383 L 711.37489 152.14602 L 711.37489 226.09505" />
    <path d="M 936.07648 137.72548 L 936.07648 238.77015" />
    <path d="M 902.2251 240.94261 L 936.07648 238.77015" />
    <path d="M 867.62321 343.40255 L 902.2251 337.2503" />
    <path d="M 856.98469 345.29409 L 856.98469 245.84067" />
    <path d="M 764.86056 340.93623 L 764.86056 241.48281" />
    <path d="M -1379.45749 67.12191 L -1379.45749 88.5286 L -102.60594 305.42904" />
    <path d="M -1146.75103 -194.80009 L -805.97595 -216.66981 L -714.3384 100.34894" />
    <path d="M -1055.11347 122.21866 L -714.84956 100.38175" />
    <path d="M -1146.75103 -194.80009 L -1055.11347 122.21866 L -1421.6637 59.95229 L -1330.02614 -225.93328 L -1146.75103 -194.80009 Z" />
    <path d="M -989.25107 -247.80299 L -805.97595 -216.66981" />
    <path d="M -1330.02614 -225.93328 L -989.25107 -247.80299" />
    <path d="M 48.92019 -314.42908 L 389.69526 -336.29879 L 572.97038 -305.16561 L 664.60793 11.85314" />
    <path d="M -42.71737 -28.54351 L 48.92019 -314.42908 L 232.1953 -283.29589 L 323.83286 33.72286 L 664.60793 11.85314" />
    <path d="M 232.1953 -283.29589 L 572.97038 -305.16561" />
</svg>