<svg version="1.1" xmlns="http://www.w3.org/2000/svg" viewBox="-2601.9830135683414 -1009.0247554187972 4674.4132772402645 2640.032559218962" fill="none" stroke="black" stroke-width="0.6%" vector-effect="non-scaling-stroke">
    <path d="M 1978.67501 849.42572 L 2041.8466 838.9708 L 2057.49547 839.71837 L 2058.98082 836.13508 L 2068.56215 834.54937 L 2061.63706 829.72711 L 2071.43026 806.10178 L 2024.48912 803.85932 L 1648.81241 542.25866" />
    <path d="M 1957.90215 834.96063 L 1978.67501 849.42572 L 1978.67501 943.48711 L 2041.8466 933.0322 L 2057.49547 933.77977 L 2058.98082 930.19648 L 2068.56215 928.61076" />
    <path d="M 1108.97278 794.40587 L 1957.90215 834.96063" />
    <path d="M 1108.97278 794.40587 L 1175.55976 763.30456" />
    <path d="M 1905.04418 798.15324 L 1175.55976 763.30456" />
    <path d="M 1582.22544 573.35997 L 1905.04418 798.15324" />
    <path d="M 1582.22544 573.35997 L 1648.81241 542.25866" />
    <path d="M 2041.8466 838.9708 L 2041.8466 933.0322" />
    <path d="M 1957.90215 929.02203 L 1978.67501 943.48711" />
    <path d="M 1957.90215 929.02203 L 1957.90215 834.96063" />
    <path d="M 1108.97278 888.46727 L 1957.90215 929.02203" />
    <path d="M 1108.97278 794.40587 L 1108.97278 888.46727" />
    <path d="M 1408.289 -286.01212 L 1408.289 489.99441" />
    <path d="M 1408.289 -286.01212 L 841.29115 -21.1799 L 411.27236 -127.28138" />
    <path d="M 841.29115 -21.1799 A 914.4 505.67543 283.86014 0 0 1020.49163 536.19826 L 1020.49163 931.29985 L 1111.89593 888.60691" />
    <path d="M 1361.17973 772.17194 L 1583.51902 668.32215" />
    <path d="M 1730.95482 599.45813 L 1737.29356 596.49744 L 1737.29356 201.39585 A 914.4 505.67543 283.86014 0 0 1916.49404 -523.38352 L 1908.24313 -525.41932 L 1839.51064 -493.31589 A 500 276.50669 103.86014 0 1 1694.00213 -65.08497 L 1702.25305 -63.04916" />
    <path d="M 1847.76156 -491.28009 L 1916.49404 -523.38352" />
    <path d="M 1847.76156 -491.28009 A 500 276.50669 103.86014 0 1 1702.25305 -63.04916" />
    <path d="M 1702.25305 352.69027 L 1702.25305 -63.04916" />
    <path d="M 1702.25305 352.69027 L 1702.16604 357.16053 A 75 41.476 103.86014 0 1 1658.15844 443.83194 L 1452.38361 539.94483 A 75 41.476 103.86014 0 1 1434.41716 542.21504 A 75 41.476 103.86014 0 1 1408.6367 498.67377 L 1408.289 489.99441" />
    <path d="M 1582.22544 573.35997 L 1582.22544 667.42137 L 1760.01606 791.22501" />
    <path d="M 2071.43026 806.10178 L 2071.43026 900.16318" />
    <path d="M 2068.56215 907.08226 L 2071.43026 900.16318" />
    <path d="M 2068.56215 834.54937 L 2068.56215 928.61076" />
    <path d="M 2058.98082 930.19648 L 2058.98082 836.13508" />
    <path d="M 2057.49547 839.71837 L 2057.49547 933.77977" />
    <path d="M 1408.289 -286.01212 L 1400.03809 -288.04793 L 1380.61915 -278.97777" />
    <path d="M 828.03205 -49.63172 L 1340.33528 -288.91729 L 1380.61915 -278.97777" />
    <path d="M 828.03205 -49.63172 L 403.50906 -154.37718" />
    <path d="M 224.18191 -198.62379 L 78.97308 -234.45216" />
    <path d="M 19.77241 -249.05915 L -36.3209 -262.89943" />
    <path d="M -306.21961 -329.49339 L -539.16468 -386.96951" />
    <path d="M -632.21163 -409.92762 L -865.1567 -467.40375" />
    <path d="M -958.20365 -490.36186 L -1047.35231 -512.35812 L -992.9392 -537.77329 L -1041.47399 -549.74861 L -1131.16279 -507.85695 A 914.4 505.67543 283.86014 0 0 -1131.11649 -496.5912" />
    <path d="M 270.22074 -162.08401 L 86.73639 -207.35636" />
    <path d="M 29.78967 -221.40721 L -49.68692 -241.01701" />
    <path d="M -296.20235 -301.84145 L -560.8947 -367.1508" />
    <path d="M -622.19437 -382.27569 L -886.88672 -447.58504" />
    <path d="M -948.18639 -462.70993 L -1131.16279 -507.85695" />
    <path d="M 1012.24072 534.16246 L 1020.49163 536.19826" />
    <path d="M 1012.24072 534.16246 A 914.4 505.67543 103.86014 0 1 995.52153 517.00258 L 679.23647 438.9634" />
    <path d="M 695.95566 456.12328 A 914.4 505.67543 103.86014 0 1 679.23647 438.9634" />
    <path d="M 686.2487 453.72822 L 695.95566 456.12328" />
    <path d="M 686.2487 453.72822 A 914.4 505.67543 103.86014 0 1 669.52951 436.56834 L 430.84902 377.67707" />
    <path d="M 343.79887 356.41908 A 914.4 505.67543 103.86014 0 1 343.53749 356.1341 L 106.31305 297.60209" />
    <path d="M 63.84684 287.12411 L 27.25243 278.09492" />
    <path d="M 43.97162 295.2548 A 914.4 505.67543 103.86014 0 1 27.25243 278.09492" />
    <path d="M 34.26466 292.85974 L 43.97162 295.2548" />
    <path d="M 34.26466 292.85974 A 914.4 505.67543 103.86014 0 1 17.54547 275.69986 L -61.53122 256.18873" />
    <path d="M -544.0634 137.13026 L -545.67099 136.73361" />
    <path d="M -588.1372 126.25564 L -624.73161 117.22645" />
    <path d="M -608.01242 134.38633 A 914.4 505.67543 103.86014 0 1 -624.73161 117.22645" />
    <path d="M -617.71937 131.99126 L -608.01242 134.38633" />
    <path d="M -617.71937 131.99126 A 914.4 505.67543 103.86014 0 1 -634.43857 114.83138 L -827.58921 67.174" />
    <path d="M -870.05542 56.69603 L -871.66301 56.29937" />
    <path d="M -914.12922 45.8214 L -950.72363 36.79221" />
    <path d="M -934.00443 53.95209 A 914.4 505.67543 103.86014 0 1 -950.72363 36.79221" />
    <path d="M -943.71139 51.55702 L -934.00443 53.95209" />
    <path d="M -943.71139 51.55702 A 914.4 505.67543 103.86014 0 1 -960.43059 34.39714 L -968.6815 32.36134" />
    <path d="M -973.70297 26.77776 A 914.4 505.67543 283.86014 0 0 -968.6815 32.36134" />
    <path d="M -965.45206 28.81356 L -973.70297 26.77776" />
    <path d="M -965.45206 28.81356 A 914.4 505.67543 103.86014 0 1 -1058.48726 -127.64845" />
    <path d="M -1072.1505 -164.69484 A 914.4 505.67543 103.86014 0 1 -1078.59629 -184.56332" />
    <path d="M -1095.64004 -248.09443 A 914.4 505.67543 103.86014 0 1 -1122.86558 -494.5554 L -1131.11649 -496.5912" />
    <path d="M 990.50006 511.41899 L 674.215 433.37982 L 699.15867 381.82231 A 854.4 472.49463 103.86014 0 1 552.55808 -81.16667" />
    <path d="M 990.50006 511.41899 A 914.4 505.67543 103.86014 0 1 833.08653 -11.94996 L 516.80147 -89.98914" />
    <path d="M 674.215 433.37982 A 914.4 505.67543 103.86014 0 1 516.80147 -89.98914" />
    <path d="M 664.50804 430.98475 L 431.45024 373.48081" />
    <path d="M 664.50804 430.98475 A 914.4 505.67543 103.86014 0 1 507.09451 -92.3842 L 414.41475 -115.25171" />
    <path d="M 284.71135 -147.25432 L 190.80945 -170.42338" />
    <path d="M 345.46692 349.79131 A 914.4 505.67543 103.86014 0 1 233.92792 135.82523" />
    <path d="M 223.02222 96.69976 A 914.4 505.67543 103.86014 0 1 190.80945 -170.42338" />
    <path d="M 338.51602 350.55052 L 106.91426 293.40583" />
    <path d="M 64.41827 282.92051 L 22.23096 272.51134 L 47.17463 220.95383 A 854.4 472.49463 103.86014 0 1 -7.7233 142.43149" />
    <path d="M 338.51602 350.55052 A 914.4 505.67543 103.86014 0 1 224.22096 133.43016" />
    <path d="M 213.31526 94.3047 A 914.4 505.67543 103.86014 0 1 181.1025 -172.81844 L 89.87878 -195.32669" />
    <path d="M 33.8201 -209.15843 L -53.83634 -230.78651" />
    <path d="M 22.23096 272.51134 A 914.4 505.67543 103.86014 0 1 -61.53122 138.10503" />
    <path d="M 12.524 270.11628 L -61.53122 251.84413" />
    <path d="M 12.524 270.11628 A 914.4 505.67543 103.86014 0 1 -61.53122 156.66926" />
    <path d="M -300.22681 -291.58011 L -461.17458 -331.29185" />
    <path d="M -437.07237 -98.95143 A 914.4 505.67543 103.86014 0 1 -461.17458 -331.29185" />
    <path d="M -542.6437 133.13596 L -545.06977 132.53736" />
    <path d="M -587.56576 122.05203 L -629.75308 111.64286 L -604.8094 60.08535 A 854.4 472.49463 103.86014 0 1 -659.70734 -18.43699" />
    <path d="M -443.65601 -87.22595 A 914.4 505.67543 103.86014 0 1 -470.88154 -333.68692 L -562.10526 -356.19517" />
    <path d="M -626.21882 -372.01435 L -787.1666 -411.72609" />
    <path d="M -629.75308 111.64286 A 914.4 505.67543 103.86014 0 1 -722.78828 -44.81915" />
    <path d="M -736.45153 -81.86553 A 914.4 505.67543 103.86014 0 1 -744.04814 -105.47749" />
    <path d="M -763.06439 -179.38567 A 914.4 505.67543 103.86014 0 1 -787.1666 -411.72609" />
    <path d="M -639.46004 109.2478 L -826.13973 63.18704" />
    <path d="M -868.63572 52.70172 L -871.06179 52.10312" />
    <path d="M -913.55778 41.61779 L -955.7451 31.20863 L -902.71776 -78.39662" />
    <path d="M -639.46004 109.2478 A 914.4 505.67543 103.86014 0 1 -732.49524 -47.21421" />
    <path d="M -746.15848 -84.2606 A 914.4 505.67543 103.86014 0 1 -752.60427 -104.12908" />
    <path d="M -769.64803 -167.66019 A 914.4 505.67543 103.86014 0 1 -796.87356 -414.12116 L -888.09728 -436.62941" />
    <path d="M -952.21084 -452.44859 L -1113.15862 -492.16033" />
    <path d="M -955.7451 31.20863 A 914.4 505.67543 103.86014 0 1 -1048.7803 -125.25339" />
    <path d="M -1062.44354 -162.29977 A 914.4 505.67543 103.86014 0 1 -1070.04016 -185.91173" />
    <path d="M -1089.05641 -259.81991 A 914.4 505.67543 103.86014 0 1 -1113.15862 -492.16033" />
    <path d="M -59.17087 664.90734 L -40.72129 669.45953" />
    <path d="M 2.41146 680.10197 L 224.18191 734.82091" />
    <path d="M 326.94743 760.17695 L 1020.49163 931.29985" />
    <path d="M -943.71139 200.81291 L -943.71139 162.96944 L -951.96231 160.93363" />
    <path d="M -951.96231 149.64627 L -951.96231 160.93363" />
    <path d="M -943.71139 151.68207 L -951.96231 149.64627 L -943.71139 145.79245" />
    <path d="M -943.71139 151.68207 L -943.71139 51.55702" />
    <path d="M -934.00443 154.07714 L -934.00443 53.95209" />
    <path d="M -617.71937 232.11631 L -861.26731 172.02406" />
    <path d="M -933.08796 154.30326 L -934.00443 154.07714" />
    <path d="M -617.71937 232.11631 L -617.71937 131.99126" />
    <path d="M -608.01242 234.51137 L -608.01242 134.38633" />
    <path d="M -607.09594 234.7375 L -608.01242 234.51137" />
    <path d="M 74.71032 602.37438 L 224.18191 639.25453" />
    <path d="M 359.73446 672.70034 L 360.25668 672.82919 L 360.25668 671.16936" />
    <path d="M 305.95915 471.30919 L 84.52838 416.67407" />
    <path d="M 34.26466 442.11562 L 34.26466 404.27215 L -18.69493 391.20507" />
    <path d="M -24.29924 378.53491 L -18.69493 391.20507" />
    <path d="M 34.26466 392.98479 L -24.29924 378.53491 L -23.94649 378.37015" />
    <path d="M 34.26466 392.98479 L 34.26466 292.85974" />
    <path d="M 43.97162 395.37985 L 43.97162 295.2548" />
    <path d="M 310.07454 461.03724 L 86.86271 405.96266" />
    <path d="M 44.8881 395.60598 L 43.97162 395.37985" />
    <path d="M 686.2487 553.85326 L 411.39869 486.03764" />
    <path d="M 686.2487 553.85326 L 686.2487 453.72822" />
    <path d="M 695.95566 556.24833 L 695.95566 456.12328" />
    <path d="M 1012.24072 634.2875 L 695.95566 556.24833" />
    <path d="M 1012.24072 634.2875 L 1012.24072 534.16246" />
    <path d="M 369.96364 675.22425 L 369.96364 641.74494" />
    <path d="M 369.96364 675.22425 L 686.2487 753.26343 L 686.2487 565.14063 L 409.06436 496.74905" />
    <path d="M 695.95566 755.65849 L 695.95566 567.5357" />
    <path d="M 695.95566 755.65849 L 1012.24072 833.69767 L 1012.24072 645.57487 L 695.95566 567.5357" />
    <path d="M -617.71937 281.24715 L -617.71937 243.40368 L -864.20384 182.58688" />
    <path d="M 1412.75759 221.44592 L 1694.00213 290.83931" />
    <path d="M 1412.75759 121.32087 L 1412.75759 221.44592 L 1408.289 223.5331" />
    <path d="M 1597.26982 466.38205 L 1412.75759 420.85608 L 1408.289 422.94326" />
    <path d="M 1412.75759 257.91359 L 1412.75759 420.85608" />
    <path d="M 1434.49825 78.26824 A 914.4 505.67543 103.86014 0 1 1412.75759 121.32087" />
    <path d="M 1694.00213 142.2974 L 1434.49825 78.26824 L 1409.55457 50.01201 A 854.4 472.49463 103.86014 0 1 1408.289 52.6207" />
    <path d="M 1591.95807 -603.4585 A 914.4 505.67543 103.86014 0 1 1448.67304 48.09052" />
    <path d="M 1591.95807 -603.4585 L 1582.25111 -605.85356 L 1546.97542 -589.37706 A 854.4 472.49463 103.86014 0 1 1408.289 29.84009" />
    <path d="M 1265.96605 -683.89274 A 914.4 505.67543 103.86014 0 1 1194.06267 -220.59657" />
    <path d="M 1265.96605 -683.89274 L 1256.25909 -686.2878 L 1220.9834 -669.8113 A 854.4 472.49463 103.86014 0 1 1149.252 -222.43699" />
    <path d="M 939.97403 -764.32697 A 914.4 505.67543 103.86014 0 1 867.54594 -299.33346" />
    <path d="M 939.97403 -764.32697 L 930.26707 -766.72204 L 894.99139 -750.24554 A 854.4 472.49463 103.86014 0 1 823.25998 -302.87123" />
    <path d="M 613.98201 -844.76121 A 914.4 505.67543 103.86014 0 1 541.55392 -379.7677" />
    <path d="M 613.98201 -844.76121 L 604.27505 -847.15628 L 568.99937 -830.67978 A 854.4 472.49463 103.86014 0 1 497.26797 -383.30547" />
    <path d="M 287.98999 -925.19545 A 914.4 505.67543 103.86014 0 1 215.5619 -460.20194" />
    <path d="M 287.98999 -925.19545 L 278.28303 -927.59052 L 243.00735 -911.11402 A 854.4 472.49463 103.86014 0 1 171.27595 -463.73971" />
    <path d="M -38.00203 -1005.62969 A 914.4 505.67543 103.86014 0 1 -112.08298 -535.3317" />
    <path d="M -38.00203 -1005.62969 L -47.70898 -1008.02475 L -137.39778 -966.13309 A 762 421.39619 103.86014 0 1 -209.41443 -556.79769" />
    <path d="M 1847.76156 -491.28009 L 1839.51064 -493.31589" />
    <path d="M 1694.00213 -65.08497 L 1694.00213 76.02287" />
    <path d="M 1653.71825 66.08336 L 1694.00213 76.02287" />
    <path d="M 1653.71825 82.0461 L 1653.71825 66.08336" />
    <path d="M 1653.71825 82.0461 L 1694.00213 91.98562 L 1694.00213 315.85175" />
    <path d="M 1646.27625 304.07601 L 1694.00213 315.85175" />
    <path d="M 1646.27625 315.36338 L 1646.27625 304.07601" />
    <path d="M 1646.27625 315.36338 L 1694.00213 327.13911 L 1694.00213 350.65446 L 1693.91512 355.12473 A 75 41.476 103.86014 0 1 1649.90753 441.79613 L 1444.13269 537.90903 A 75 41.476 103.86014 0 1 1430.38623 540.81399" />
    <path d="M 1694.00213 350.65446 L 1702.25305 352.69027" />
    <path d="M 1693.91512 355.12473 L 1702.16604 357.16053" />
    <path d="M 731.23134 539.77183 L 695.95566 556.24833" />
    <path d="M 731.23134 539.77183 L 1007.23253 607.87149" />
    <path d="M 1009.937 606.60829 L 1007.23253 607.87149" />
    <path d="M 1009.937 606.60829 L 1012.24072 607.17671" />
    <path d="M -690.26766 38.99965 L -805.74756 10.50651" />
    <path d="M -848.72346 -0.09723 L -864.12899 -3.89834" />
    <path d="M -522.73144 80.33701 L -538.13697 76.5359" />
    <path d="M -581.11287 65.93216 L -604.8094 60.08535" />
    <path d="M -38.28362 199.86813 L -61.53122 194.13209" />
    <path d="M 287.70839 280.30237 L 113.84707 237.40437" />
    <path d="M 70.87117 226.80064 L 47.17463 220.95383" />
    <path d="M 359.0924 284.51492 A 854.4 472.49463 103.86014 0 1 315.99293 218.73819" />
    <path d="M 613.70041 360.7366 L 438.38304 317.47935" />
    <path d="M 297.77025 182.20037 A 854.4 472.49463 103.86014 0 1 283.42164 148.03715" />
    <path d="M 269.37394 108.13644 A 854.4 472.49463 103.86014 0 1 226.56606 -161.6009" />
    <path d="M -28.22177 101.76613 A 854.4 472.49463 103.86014 0 1 -42.57038 67.60291" />
    <path d="M -56.61808 27.7022 A 854.4 472.49463 103.86014 0 1 -61.53122 11.71404" />
    <path d="M -406.98755 -149.18799 A 854.4 472.49463 103.86014 0 1 -425.41797 -322.46938" />
    <path d="M -684.64291 -69.08244 A 854.4 472.49463 103.86014 0 1 -694.55442 -93.26556" />
    <path d="M -708.60212 -133.16628 A 854.4 472.49463 103.86014 0 1 -718.21456 -165.72395" />
    <path d="M -732.97957 -229.62222 A 854.4 472.49463 103.86014 0 1 -751.40999 -402.90362" />
    <path d="M 939.69243 441.17084 L 699.15867 381.82231" />
    <path d="M -1031.53957 -508.45654 L -992.7433 -526.57742 A 762 421.39619 103.86014 0 1 -992.9392 -537.77329" />
    <path d="M -398.04453 -207.51461 A 762 421.39619 103.86014 0 1 -413.81084 -189.12602" />
    <path d="M -734.2778 -25.63057 A 762 421.39619 103.86014 0 1 -762.98325 -30.21465" />
    <path d="M -127.69082 -963.73803 L -137.39778 -966.13309" />
    <path d="M -127.69082 -963.73803 A 762 421.39619 103.86014 0 1 -199.70084 -554.42209" />
    <path d="M -398.04453 -193.66185 A 762 421.39619 103.86014 0 1 -411.32255 -178.69083" />
    <path d="M -734.14738 -24.36129 A 762 421.39619 103.86014 0 1 -758.14262 -28.96506 A 762 421.39619 103.86014 0 1 -785.10279 -37.37525" />
    <path d="M -824.84809 -56.78036 A 762 421.39619 103.86014 0 1 -831.21511 -60.75428" />
    <path d="M -945.48563 -191.61417 A 762 421.39619 103.86014 0 1 -995.14285 -321.4216" />
    <path d="M -1008.73057 -383.31761 A 762 421.39619 103.86014 0 1 -1019.88952 -469.14741" />
    <path d="M -1022.33449 -506.1853 A 762 421.39619 103.86014 0 1 -1022.62544 -512.62013" />
    <path d="M 731.23134 451.79245 L 731.23134 539.77183" />
    <path d="M 45.04198 394.87991 L 43.97162 395.37985" />
    <path d="M -606.94206 234.01143 L -608.01242 234.51137" />
    <path d="M -775.47637 80.03216 L -842.85372 111.50264" />
    <path d="M -932.93408 153.57719 L -934.00443 154.07714" />
    <path d="M -971.37134 21.95838 L -973.70297 26.77776" />
    <path d="M 287.41854 187.03543 L 297.77025 182.20037" />
    <path d="M 287.41854 215.25385 L 287.41854 187.03543 L 308.2885 192.18482 L 329.46526 182.29362" />
    <path d="M -38.57348 106.60119 L -28.22177 101.76613" />
    <path d="M -38.57348 134.81961 L -38.57348 106.60119 L 76.60457 135.01986" />
    <path d="M -690.55752 -26.04887 L -690.55752 -36.86663" />
    <path d="M 416.35067 462.07917 L 686.2487 528.67296" />
    <path d="M 91.81469 382.00419 L 318.75251 437.99811" />
    <path d="M -36.32379 350.38771 L 34.26466 367.80448" />
    <path d="M -61.53122 666.00981 L -33.94656 653.12562" />
    <path d="M 23.22852 626.4204 L 74.71032 602.37438 L 75.06308 602.20962" />
    <path d="M 50.28552 546.19286 L 75.06308 602.20962" />
    <path d="M -18.21715 391.32296 L 23.15483 484.85615" />
    <path d="M -61.53122 293.39909 L -23.94649 378.37015" />
    <path d="M 79.24731 514.94771 L 218.74662 449.79065" />
    <path d="M 79.24731 439.74147 L 79.24731 521.87668 L 228.45358 452.18571" />
    <path d="M 305.39635 472.68427 L 67.01952 584.02485" />
    <path d="M 405.23933 595.38195 L 544.73864 530.22489" />
    <path d="M 405.23933 513.60608 L 405.23933 602.31092 L 554.4456 532.61995" />
    <path d="M 577.81557 578.14119 L 369.96364 675.22425" />
    <path d="M 731.23134 576.23951 L 731.23134 682.74516 L 733.93581 681.48196 L 731.23134 680.81467" />
    <path d="M 733.93581 681.48196 L 733.93581 690.8881 L 1012.24072 759.55617" />
    <path d="M 799.82223 707.1447 L 695.95566 755.65849" />
    <path d="M 1646.04108 315.47323 L 1646.27625 315.36338" />
    <path d="M 1646.04108 315.47323 L 1408.289 256.81103" />
    <path d="M 1646.04108 304.18586 L 1646.27625 304.07601" />
    <path d="M 1646.04108 304.18586 L 1408.289 245.52366" />
    <path d="M 1685.55576 118.11167 L 1653.71825 82.0461" />
    <path d="M 1685.55576 118.11167 L 1409.55457 50.01201" />
    <path d="M 1672.49412 103.31543 L 1414.50827 39.66082" />
    <path d="M 1556.68238 -586.982 A 854.4 472.49463 103.86014 0 1 1414.50827 39.66082" />
    <path d="M 1591.95807 -603.4585 L 1556.68238 -586.982 L 1546.97542 -589.37706" />
    <path d="M 1169.31067 -224.87699 L 1158.95896 -220.04193 L 1149.252 -222.43699" />
    <path d="M 1230.69036 -667.41624 A 854.4 472.49463 103.86014 0 1 1158.95896 -220.04193" />
    <path d="M 1265.96605 -683.89274 L 1230.69036 -667.41624 L 1220.9834 -669.8113" />
    <path d="M 843.31865 -305.31122 L 832.96694 -300.47617 L 823.25998 -302.87123" />
    <path d="M 904.69834 -747.85048 A 854.4 472.49463 103.86014 0 1 832.96694 -300.47617" />
    <path d="M 939.97403 -764.32697 L 904.69834 -747.85048 L 894.99139 -750.24554" />
    <path d="M 517.32663 -385.74546 L 506.97492 -380.91041 L 497.26797 -383.30547" />
    <path d="M 578.70633 -828.28472 A 854.4 472.49463 103.86014 0 1 506.97492 -380.91041" />
    <path d="M 613.98201 -844.76121 L 578.70633 -828.28472 L 568.99937 -830.67978" />
    <path d="M 191.33461 -466.1797 L 180.98291 -461.34465 L 171.27595 -463.73971" />
    <path d="M 252.71431 -908.71896 A 854.4 472.49463 103.86014 0 1 180.98291 -461.34465" />
    <path d="M 287.98999 -925.19545 L 252.71431 -908.71896 L 243.00735 -911.11402" />
    <path d="M -38.00203 -1005.62969 L -127.69082 -963.73803" />
    <path d="M 1646.04108 304.18586 L 1646.04108 315.47323" />
    <path d="M -670.45878 230.39092 L -866.5498 321.98072" />
    <path d="M -854.44267 148.52764 L -617.71937 206.936" />
    <path d="M 577.81557 652.36748 L 686.2487 679.12193" />
    <path d="M 577.81557 -15.46844 L 834.93089 47.97138" />
    <path d="M 577.81557 652.36748 L 577.81557 538.38618" />
    <path d="M 577.81557 501.91851 L 577.81557 413.93913" />
    <path d="M 577.81557 351.88249 L 577.81557 289.84104" />
    <path d="M 577.81557 124.39855 L 577.81557 -15.46844" />
    <path d="M 981.76698 -121.43793 L 865.90033 -150.0265 L 712.1654 -78.22029" />
    <path d="M 661.12327 -54.37964 L 577.81557 -15.46844" />
    <path d="M -985.97262 -98.93866 L -902.46928 -78.33531" />
    <path d="M -858.74596 -67.54715 L -823.88208 -58.94495" />
    <path d="M -780.15876 -48.1568 L -727.54724 -35.1756" />
    <path d="M -690.55752 -26.04887 L -576.47726 2.09893" />
    <path d="M -532.75394 12.88709 L -497.89006 21.48929" />
    <path d="M -38.57348 134.81961 L 75.50678 162.96741" />
    <path d="M 119.2301 173.75556 L 250.42881 206.12712" />
    <path d="M 287.41854 215.25385 L 308.2885 220.40323 L 308.2885 192.18482" />
    <path d="M 538.29136 170.69623 L 446.40312 190.55463" />
    <path d="M 368.70431 207.34649 L 308.2885 220.40323" />
    <path d="M -963.17329 -137.80614 L -932.72058 -152.02993" />
    <path d="M -856.15881 -187.79025 L -780.66096 -223.05363" />
    <path d="M -735.6482 -244.07811 L -721.40498 -250.7308 L -719.63493 -250.29406" />
    <path d="M 446.2134 127.76313 L 522.23617 92.25457" />
    <path d="M 567.20982 71.24836 L 572.85614 68.61109 A 50 27.65067 103.86014 0 1 577.81557 66.96879" />
    <path d="M 120.73077 145.90742 L 238.11145 174.86955" />
    <path d="M -744.89945 87.57661 L -850.98398 137.12637" />
    <path d="M -729.08671 91.4782 L -852.33909 149.04668" />
    <path d="M -985.97262 -98.93866 L -985.97262 -109.75642" />
    <path d="M 1169.31067 -224.87699 L 1190.18063 -219.7276 L 1098.87866 -177.08246" />
    <path d="M 1190.18063 -218.78336 L 1190.18063 -219.7276" />
    <path d="M -104.08049 -539.06949 L -128.97338 -527.44256" />
    <path d="M -352.12789 -423.212 L -368.64813 -415.49576 L -343.93212 -409.39742" />
    <path d="M 983.87866 -123.36849 L 980.44417 -121.76431" />
    <path d="M 843.31865 -305.31122 L 1151.42367 -229.29037" />
    <path d="M 517.32663 -385.74546 L 825.43166 -309.7246" />
    <path d="M 191.33461 -466.1797 L 499.43964 -390.15884" />
    <path d="M -104.08049 -539.06949 L 173.44762 -470.59308" />
    <path d="M 1087.89117 -218.18094 A 57.5 19.51999 360 0 1 983.87866 -229.65729 L 983.87866 -122.42425" />
    <path d="M 983.87866 -229.65729 A 57.5 19.51999 360 1 1 1098.87866 -229.65729 L 1098.87866 -176.13822" />
    <path d="M 1098.87866 -229.65729 A 57.5 19.51999 360 0 1 1087.89117 -218.18094" />
    <path d="M -718.6271 -251.81783 A 50 27.65067 283.86014 0 0 -721.40498 -250.7308" />
    <path d="M -728.60892 29.53945 L -735.45918 -37.12776" />
    <path d="M 577.81557 467.25622 L 572.19457 412.55222" />
    <path d="M 565.6522 348.88134 L 552.55473 221.41576" />
    <path d="M -712.79125 183.47827 L -722.06655 93.21033" />
    <path d="M -398.04453 -354.73465 L -398.04453 -352.14997" />
    <path d="M -398.04453 -315.71535 L -398.04453 -175.41466" />
    <path d="M -368.64813 -415.49576 A 50 27.65067 283.86014 0 0 -398.04453 -354.73465 L -307.3328 -332.35273" />
    <path d="M -34.51151 -265.03766 L 18.65922 -251.91849" />
    <path d="M 78.11529 -237.24848 L 224.18191 -201.20847" />
    <path d="M 402.65126 -157.17351 L 715.78633 -79.91155" />
    <path d="M 508.85479 1535.94641 L 572.02637 1525.49149 L 572.02637 1619.55289 L 587.67524 1620.30046 L 589.1606 1616.71717 L 598.74193 1615.13145" />
    <path d="M 488.08192 1521.48132 L 508.85479 1535.94641 L 508.85479 1630.0078 L 572.02637 1619.55289" />
    <path d="M -360.84744 1480.92656 L 488.08192 1521.48132" />
    <path d="M -360.84744 1480.92656 L -294.26047 1449.82525" />
    <path d="M 435.22395 1484.67393 L -294.26047 1449.82525" />
    <path d="M 112.40522 1259.88066 L 435.22395 1484.67393" />
    <path d="M 112.40522 1259.88066 L 178.99219 1228.77935" />
    <path d="M 554.6689 1490.38001 L 178.99219 1228.77935" />
    <path d="M 601.61004 1492.62247 L 554.6689 1490.38001" />
    <path d="M 591.81684 1516.2478 L 601.61004 1492.62247 L 601.61004 1586.68387" />
    <path d="M 598.74193 1521.07005 L 591.81684 1516.2478" />
    <path d="M 589.1606 1522.65577 L 598.74193 1521.07005 L 598.74193 1615.13145" />
    <path d="M 587.67524 1526.23906 L 589.1606 1522.65577" />
    <path d="M 572.02637 1525.49149 L 587.67524 1526.23906 L 587.67524 1620.30046" />
    <path d="M 488.08192 1615.54272 L 508.85479 1630.0078" />
    <path d="M 488.08192 1615.54272 L 488.08192 1521.48132" />
    <path d="M -360.84744 1574.98796 L 488.08192 1615.54272" />
    <path d="M -360.84744 1480.92656 L -360.84744 1574.98796" />
    <path d="M -449.32859 1222.71895 A 914.4 505.67543 103.86014 0 1 128.11935 -473.53677 L 119.86844 -475.57258" />
    <path d="M 128.11935 -473.53677 A 914.4 505.67543 103.86014 0 1 267.47334 887.91654" />
    <path d="M -449.32859 1222.71895 L -449.32859 1617.82054 L -357.92429 1575.1276" />
    <path d="M -108.64049 1458.69262 L 113.6988 1354.84283" />
    <path d="M 261.1346 1285.97882 L 267.47334 1283.01813 L 267.47334 887.91654" />
    <path d="M 112.40522 1259.88066 L 112.40522 1353.94205 L 290.19584 1477.7457" />
    <path d="M -281.08033 401.94902 A 57.5 31.79827 103.86014 0 1 -253.53177 290.29743" />
    <path d="M -61.53122 -187.37517 L -61.44421 -191.84544 A 75 41.476 103.86014 0 1 -17.43661 -278.51684 L 188.33822 -374.62974 A 75 41.476 103.86014 0 1 206.30467 -376.89994 A 75 41.476 103.86014 0 1 232.08512 -333.35867 L 232.43282 -324.67931 L 232.43282 -191.12407 A 500 276.50669 103.86014 0 1 232.43282 623.47153 L 232.43282 1039.21096 L 232.34581 1043.68122 A 75 41.476 103.86014 0 1 188.33822 1130.35263 L -17.43661 1226.46552 A 75 41.476 103.86014 0 1 -35.40307 1228.73573 A 75 41.476 103.86014 0 1 -61.18352 1185.19446 L -61.53122 1176.51509 L -61.53122 -187.37517 Z" />
    <path d="M 598.74193 1593.60295 L 601.61004 1586.68387" />
    <path d="M 589.1606 1616.71717 L 589.1606 1522.65577" />
    <path d="M -106.23368 -444.52488 L -422.51874 -522.56406 L -422.51874 -466.12202" />
    <path d="M -795.60523 -96.46093 A 914.4 505.67543 103.86014 0 1 -422.51874 -522.56406" />
    <path d="M -479.32017 -18.42176 L -795.60523 -96.46093" />
    <path d="M -479.32017 -18.42176 A 914.4 505.67543 103.86014 0 1 -106.23368 -444.52488" />
    <path d="M -432.2257 -524.95912 L -748.51076 -602.99829 L -748.51076 -546.55625" />
    <path d="M -1121.59725 -176.89517 A 914.4 505.67543 103.86014 0 1 -748.51076 -602.99829" />
    <path d="M -805.31219 -98.85599 L -1121.59725 -176.89517" />
    <path d="M -805.31219 -98.85599 A 914.4 505.67543 103.86014 0 1 -432.2257 -524.95912" />
    <path d="M -758.21772 -605.39336 L -1074.50278 -683.43253 L -1074.50278 -626.99049" />
    <path d="M -1447.58927 -257.32941 A 914.4 505.67543 103.86014 0 1 -1074.50278 -683.43253" />
    <path d="M -1131.30421 -179.29023 L -1447.58927 -257.32941" />
    <path d="M -1131.30421 -179.29023 A 914.4 505.67543 103.86014 0 1 -758.21772 -605.39336" />
    <path d="M -1084.20973 -685.8276 L -1400.49479 -763.86677 L -1400.49479 -707.42473" />
    <path d="M -1773.58128 -337.76365 A 914.4 505.67543 103.86014 0 1 -1400.49479 -763.86677" />
    <path d="M -1457.29622 -259.72447 L -1773.58128 -337.76365" />
    <path d="M -1457.29622 -259.72447 A 914.4 505.67543 103.86014 0 1 -1084.20973 -685.8276" />
    <path d="M -1410.20175 -766.26184 L -1726.48681 -844.30101 L -1726.48681 -787.85897" />
    <path d="M -2099.5733 -418.19788 A 914.4 505.67543 103.86014 0 1 -1726.48681 -844.30101" />
    <path d="M -1783.28824 -340.15871 L -2099.5733 -418.19788" />
    <path d="M -1783.28824 -340.15871 A 914.4 505.67543 103.86014 0 1 -1410.20175 -766.26184" />
    <path d="M -1736.19377 -846.69607 L -2052.47883 -924.73525 L -2052.47883 -795.62117" />
    <path d="M -2425.56532 -498.63212 A 914.4 505.67543 103.86014 0 1 -2052.47883 -924.73525" />
    <path d="M -2109.28026 -420.59295 L -2425.56532 -498.63212" />
    <path d="M -2109.28026 -420.59295 A 914.4 505.67543 103.86014 0 1 -1736.19377 -846.69607" />
    <path d="M -2062.18579 -927.13031 L -2070.4367 -929.16612" />
    <path d="M -2063.38157 -932.53548 A 914.4 505.67543 283.86014 0 0 -2070.4367 -929.16612" />
    <path d="M -2055.13065 -930.49968 L -2063.38157 -932.53548" />
    <path d="M -2055.13065 -930.49968 A 914.4 505.67543 103.86014 0 1 -1836.08368 -958.17801" />
    <path d="M -35.32197 764.78893 A 914.4 505.67543 103.86014 0 1 -57.06264 807.84156 L -57.06264 907.96661 L -61.53122 910.05378" />
    <path d="M 224.18191 828.81809 L -35.32197 764.78893 L -60.26565 736.5327 A 854.4 472.49463 103.86014 0 1 -61.53122 739.14139" />
    <path d="M -457.5795 1220.68314 L -449.32859 1222.71895" />
    <path d="M -457.5795 1220.68314 A 914.4 505.67543 103.86014 0 1 -474.2987 1203.52326 L -790.58376 1125.48409" />
    <path d="M -773.86456 1142.64397 A 914.4 505.67543 103.86014 0 1 -790.58376 1125.48409" />
    <path d="M -783.57152 1140.24891 L -773.86456 1142.64397" />
    <path d="M -783.57152 1140.24891 A 914.4 505.67543 103.86014 0 1 -800.29072 1123.08902 L -1116.57578 1045.04985" />
    <path d="M -1099.85658 1062.20973 A 914.4 505.67543 103.86014 0 1 -1116.57578 1045.04985" />
    <path d="M -1109.56354 1059.81467 L -1099.85658 1062.20973" />
    <path d="M -1109.56354 1059.81467 A 914.4 505.67543 103.86014 0 1 -1126.28273 1042.65479 L -1442.56779 964.61561" />
    <path d="M -1425.8486 981.77549 A 914.4 505.67543 103.86014 0 1 -1442.56779 964.61561" />
    <path d="M -1435.55556 979.38043 L -1425.8486 981.77549" />
    <path d="M -1435.55556 979.38043 A 914.4 505.67543 103.86014 0 1 -1452.27475 962.22055 L -1768.55981 884.18137" />
    <path d="M -1751.84062 901.34125 A 914.4 505.67543 103.86014 0 1 -1768.55981 884.18137" />
    <path d="M -1761.54758 898.94619 L -1751.84062 901.34125" />
    <path d="M -1761.54758 898.94619 A 914.4 505.67543 103.86014 0 1 -1778.26677 881.78631 L -2094.55183 803.74713" />
    <path d="M -2077.83264 820.90701 A 914.4 505.67543 103.86014 0 1 -2094.55183 803.74713" />
    <path d="M -2087.5396 818.51195 L -2077.83264 820.90701" />
    <path d="M -2087.5396 818.51195 A 914.4 505.67543 103.86014 0 1 -2104.25879 801.35207 L -2420.54385 723.3129" />
    <path d="M -2403.82466 740.47278 A 914.4 505.67543 103.86014 0 1 -2420.54385 723.3129" />
    <path d="M -2413.53162 738.07771 L -2403.82466 740.47278" />
    <path d="M -2413.53162 738.07771 A 914.4 505.67543 103.86014 0 1 -2430.25081 720.91783 L -2438.50172 718.88203" />
    <path d="M -2443.52319 713.29845 A 914.4 505.67543 283.86014 0 0 -2438.50172 718.88203" />
    <path d="M -2435.27228 715.33425 L -2443.52319 713.29845" />
    <path d="M -2435.27228 715.33425 A 914.4 505.67543 103.86014 0 1 -2592.6858 191.96529 L -2600.93672 189.92949" />
    <path d="M -2600.98301 178.66374 A 914.4 505.67543 283.86014 0 0 -2600.93672 189.92949" />
    <path d="M -2592.7321 180.69955 L -2600.98301 178.66374" />
    <path d="M -2592.7321 180.69955 A 914.4 505.67543 103.86014 0 1 -2440.22828 -490.6786 L -2448.47919 -492.71441" />
    <path d="M -2443.52319 -503.06299 A 914.4 505.67543 283.86014 0 0 -2448.47919 -492.71441" />
    <path d="M -2435.27228 -501.02719 L -2443.52319 -503.06299" />
    <path d="M -2435.27228 -501.02719 A 914.4 505.67543 103.86014 0 1 -2062.18579 -927.13031" />
    <path d="M -99.17854 -447.89425 L -415.4636 -525.93342 A 914.4 505.67543 103.86014 0 1 -196.41662 -553.61175 L -206.12358 -556.00682" />
    <path d="M -99.17854 -447.89425 A 914.4 505.67543 103.86014 0 1 119.86844 -475.57258" />
    <path d="M -196.41662 -553.61175 A 914.4 505.67543 103.86014 0 1 -49.94911 -467.27447" />
    <path d="M -425.17056 -528.32849 L -741.45562 -606.36766 A 914.4 505.67543 103.86014 0 1 -522.40864 -634.04599 L -532.1156 -636.44105" />
    <path d="M -425.17056 -528.32849 A 914.4 505.67543 103.86014 0 1 -206.12358 -556.00682" />
    <path d="M -522.40864 -634.04599 A 914.4 505.67543 103.86014 0 1 -375.94113 -547.70871" />
    <path d="M -751.16258 -608.76273 L -1067.44764 -686.8019 A 914.4 505.67543 103.86014 0 1 -848.40066 -714.48023 L -858.10762 -716.87529" />
    <path d="M -751.16258 -608.76273 A 914.4 505.67543 103.86014 0 1 -532.1156 -636.44105" />
    <path d="M -848.40066 -714.48023 A 914.4 505.67543 103.86014 0 1 -701.93315 -628.14294" />
    <path d="M -1077.1546 -689.19696 L -1393.43966 -767.23614 A 914.4 505.67543 103.86014 0 1 -1174.39268 -794.91447 L -1184.09964 -797.30953" />
    <path d="M -1077.1546 -689.19696 A 914.4 505.67543 103.86014 0 1 -858.10762 -716.87529" />
    <path d="M -1174.39268 -794.91447 A 914.4 505.67543 103.86014 0 1 -1027.92517 -708.57718" />
    <path d="M -1403.14662 -769.6312 L -1719.43168 -847.67038 A 914.4 505.67543 103.86014 0 1 -1500.3847 -875.34871 L -1510.09166 -877.74377" />
    <path d="M -1403.14662 -769.6312 A 914.4 505.67543 103.86014 0 1 -1184.09964 -797.30953" />
    <path d="M -1500.3847 -875.34871 A 914.4 505.67543 103.86014 0 1 -1353.91719 -789.01142" />
    <path d="M -1729.13863 -850.06544 L -2045.42369 -928.10462 A 914.4 505.67543 103.86014 0 1 -1826.37672 -955.78294 L -1836.08368 -958.17801" />
    <path d="M -1729.13863 -850.06544 A 914.4 505.67543 103.86014 0 1 -1510.09166 -877.74377" />
    <path d="M -1826.37672 -955.78294 A 914.4 505.67543 103.86014 0 1 -1679.90921 -869.44566" />
    <path d="M -484.27617 -8.07317 L -800.56123 -86.11234 L -775.61525 -57.85351" />
    <path d="M -953.06505 585.26581 A 914.4 505.67543 103.86014 0 1 -800.56123 -86.11234" />
    <path d="M -636.77999 663.30498 L -953.06505 585.26581 L -917.78936 568.78931 A 854.4 472.49463 103.86014 0 1 -775.61525 -57.85351" />
    <path d="M -636.77999 663.30498 A 914.4 505.67543 103.86014 0 1 -484.27617 -8.07317" />
    <path d="M -810.26819 -88.50741 L -1126.55325 -166.54658 L -1101.60727 -138.28775" />
    <path d="M -1279.05706 504.83157 A 914.4 505.67543 103.86014 0 1 -1126.55325 -166.54658" />
    <path d="M -962.772 582.87074 L -1279.05706 504.83157 L -1243.78138 488.35507 A 854.4 472.49463 103.86014 0 1 -1101.60727 -138.28775" />
    <path d="M -962.772 582.87074 A 914.4 505.67543 103.86014 0 1 -810.26819 -88.50741" />
    <path d="M -1136.2602 -168.94165 L -1452.54527 -246.98082 L -1427.59929 -218.72199" />
    <path d="M -1605.04908 424.39733 A 914.4 505.67543 103.86014 0 1 -1452.54527 -246.98082" />
    <path d="M -1288.76402 502.4365 L -1605.04908 424.39733 L -1569.7734 407.92083 A 854.4 472.49463 103.86014 0 1 -1427.59929 -218.72199" />
    <path d="M -1288.76402 502.4365 A 914.4 505.67543 103.86014 0 1 -1136.2602 -168.94165" />
    <path d="M -1462.25222 -249.37589 L -1778.53728 -327.41506 L -1753.59131 -299.15623" />
    <path d="M -1931.0411 343.96309 A 914.4 505.67543 103.86014 0 1 -1778.53728 -327.41506" />
    <path d="M -1614.75604 422.00226 L -1931.0411 343.96309 L -1895.76542 327.48659 A 854.4 472.49463 103.86014 0 1 -1753.59131 -299.15623" />
    <path d="M -1614.75604 422.00226 A 914.4 505.67543 103.86014 0 1 -1462.25222 -249.37589" />
    <path d="M -1788.24424 -329.81012 L -2104.5293 -407.8493 L -2079.58333 -379.59047" />
    <path d="M -2257.03312 263.52885 A 914.4 505.67543 103.86014 0 1 -2104.5293 -407.8493" />
    <path d="M -1940.74806 341.56803 L -2257.03312 263.52885 L -2221.75744 247.05235 A 854.4 472.49463 103.86014 0 1 -2079.58333 -379.59047" />
    <path d="M -1940.74806 341.56803 A 914.4 505.67543 103.86014 0 1 -1788.24424 -329.81012" />
    <path d="M -2114.23626 -410.24436 L -2430.52132 -488.28354 L -2371.50992 -421.43535" />
    <path d="M -2583.02514 183.09461 A 914.4 505.67543 103.86014 0 1 -2430.52132 -488.28354" />
    <path d="M -2266.74008 261.13379 L -2583.02514 183.09461 L -2493.33634 141.20295 A 762 421.39619 103.86014 0 1 -2371.50992 -421.43535" />
    <path d="M -2266.74008 261.13379 A 914.4 505.67543 103.86014 0 1 -2114.23626 -410.24436" />
    <path d="M -1227.3401 -261.15804 L -1385.50875 -300.18408" />
    <path d="M -1430.97232 -311.40162 L -1507.86855 -330.37475 L -1589.36338 -292.3103" />
    <path d="M -1599.39683 -756.50119 A 914.4 505.67543 103.86014 0 1 -1558.59892 -660.28042" />
    <path d="M -1542.11238 -605.35164 A 914.4 505.67543 103.86014 0 1 -1507.86855 -330.37475" />
    <path d="M -901.34808 -180.72381 L -1059.51673 -219.74984" />
    <path d="M -1104.9803 -230.96738 L -1181.87653 -249.94051 L -1217.15546 -233.46249" />
    <path d="M -1273.40481 -676.06695 A 914.4 505.67543 103.86014 0 1 -1232.6069 -579.84618" />
    <path d="M -1216.12036 -524.9174 A 914.4 505.67543 103.86014 0 1 -1181.87653 -249.94051" />
    <path d="M 371.06328 133.22694 L 122.09155 71.79645 L 86.81261 88.27446" />
    <path d="M 51.28968 -310.61738 A 914.4 505.67543 103.86014 0 1 122.09155 71.79645" />
    <path d="M 76.62798 60.57891 L -61.53122 26.48995" />
    <path d="M -295.42875 -434.76423 A 914.4 505.67543 103.86014 0 1 -254.63085 -338.54346" />
    <path d="M -452.99626 -70.0989 L -529.89249 -89.07203 L -565.17143 -72.59401" />
    <path d="M -621.42077 -515.19847 A 914.4 505.67543 103.86014 0 1 -580.62287 -418.9777" />
    <path d="M -564.13632 -364.04892 A 914.4 505.67543 103.86014 0 1 -529.89249 -89.07203" />
    <path d="M -575.35606 -100.28957 L -733.52471 -139.3156" />
    <path d="M -778.98828 -150.53314 L -855.88451 -169.50627 L -891.16344 -153.02825" />
    <path d="M -947.41279 -595.63271 A 914.4 505.67543 103.86014 0 1 -906.61488 -499.41194" />
    <path d="M -890.12834 -444.48316 A 914.4 505.67543 103.86014 0 1 -855.88451 -169.50627" />
    <path d="M -636.73369 674.57072 L -953.01875 596.53155" />
    <path d="M -795.60523 1119.90051 A 914.4 505.67543 103.86014 0 1 -953.01875 596.53155" />
    <path d="M -479.32017 1197.93968 L -795.60523 1119.90051 L -770.66155 1068.34299 A 854.4 472.49463 103.86014 0 1 -917.26214 605.35402" />
    <path d="M -479.32017 1197.93968 A 914.4 505.67543 103.86014 0 1 -636.73369 674.57072" />
    <path d="M -962.72571 594.13649 L -1279.01077 516.09731" />
    <path d="M -1121.59725 1039.46627 A 914.4 505.67543 103.86014 0 1 -1279.01077 516.09731" />
    <path d="M -805.31219 1117.50544 L -1121.59725 1039.46627 L -1096.65357 987.90875 A 854.4 472.49463 103.86014 0 1 -1153.82729 905.25888" />
    <path d="M -805.31219 1117.50544 A 914.4 505.67543 103.86014 0 1 -962.72571 594.13649" />
    <path d="M -1288.71773 513.70225 L -1605.00279 435.66307" />
    <path d="M -1447.58927 959.03203 A 914.4 505.67543 103.86014 0 1 -1605.00279 435.66307" />
    <path d="M -1131.30421 1037.0712 L -1447.58927 959.03203 L -1422.64559 907.47452 A 854.4 472.49463 103.86014 0 1 -1477.54352 828.95217" />
    <path d="M -1131.30421 1037.0712 A 914.4 505.67543 103.86014 0 1 -1288.71773 513.70225" />
    <path d="M -1614.70975 433.26801 L -1930.99481 355.22883" />
    <path d="M -1773.58128 878.59779 A 914.4 505.67543 103.86014 0 1 -1930.99481 355.22883" />
    <path d="M -1457.29622 956.63697 L -1773.58128 878.59779 L -1748.63761 827.04028 A 854.4 472.49463 103.86014 0 1 -1803.53554 748.51793" />
    <path d="M -1457.29622 956.63697 A 914.4 505.67543 103.86014 0 1 -1614.70975 433.26801" />
    <path d="M -1940.70176 352.83377 L -2256.98683 274.79459" />
    <path d="M -2099.5733 798.16355 A 914.4 505.67543 103.86014 0 1 -2256.98683 274.79459" />
    <path d="M -1783.28824 876.20273 L -2099.5733 798.16355 L -2074.62963 746.60604 A 854.4 472.49463 103.86014 0 1 -2129.52756 668.0837" />
    <path d="M -1783.28824 876.20273 A 914.4 505.67543 103.86014 0 1 -1940.70176 352.83377" />
    <path d="M -2266.69378 272.39953 L -2582.97884 194.36036" />
    <path d="M -2425.56532 717.72931 A 914.4 505.67543 103.86014 0 1 -2582.97884 194.36036" />
    <path d="M -2109.28026 795.76849 L -2425.56532 717.72931 L -2372.53798 608.12407" />
    <path d="M -2109.28026 795.76849 A 914.4 505.67543 103.86014 0 1 -2266.69378 272.39953" />
    <path d="M -1508.04972 -293.98482 A 914.4 505.67543 103.86014 0 1 -1508.60377 -272.38393" />
    <path d="M -1510.09316 -239.07626 A 914.4 505.67543 103.86014 0 1 -1524.91216 -95.98568" />
    <path d="M -1182.0577 -213.55058 A 914.4 505.67543 103.86014 0 1 -1182.61175 -191.94969" />
    <path d="M -1184.10114 -158.64203 A 914.4 505.67543 103.86014 0 1 -1198.92015 -15.55144" />
    <path d="M 121.91037 108.18637 A 914.4 505.67543 103.86014 0 1 -21.14719 734.61121" />
    <path d="M -530.07367 -52.6821 A 914.4 505.67543 103.86014 0 1 -530.62771 -31.08122" />
    <path d="M -532.1171 2.22645 A 914.4 505.67543 103.86014 0 1 -546.93611 145.31704" />
    <path d="M -856.06569 -133.11634 A 914.4 505.67543 103.86014 0 1 -856.61973 -111.51545" />
    <path d="M -858.10912 -78.20779 A 914.4 505.67543 103.86014 0 1 -872.92813 64.8828" />
    <path d="M -2421.78253 1131.1435 L -2160.39365 1195.63776" />
    <path d="M -1528.99109 1351.42803 L -449.32859 1617.82054" />
    <path d="M -2421.78253 1035.57712 L -2421.78253 1131.1435" />
    <path d="M -2421.78253 1035.57712 L -2413.53162 1037.61292 L -2413.53162 849.49013 L -2421.78253 847.45432" />
    <path d="M -2421.78253 836.16695 L -2421.78253 847.45432" />
    <path d="M -2413.53162 838.20276 L -2421.78253 836.16695 L -2413.53162 832.31313" />
    <path d="M -2413.53162 838.20276 L -2413.53162 738.07771" />
    <path d="M -2403.82466 840.59782 L -2403.82466 740.47278" />
    <path d="M -2087.5396 918.637 L -2403.82466 840.59782" />
    <path d="M -2087.5396 918.637 L -2087.5396 818.51195" />
    <path d="M -2077.83264 921.03206 L -2077.83264 820.90701" />
    <path d="M -1939.84609 955.07843 L -2077.83264 921.03206" />
    <path d="M -1955.65883 962.46421 L -2077.83264 932.31943" />
    <path d="M -2077.83264 1049.72664 L -2077.83264 932.31943" />
    <path d="M -1395.1099 1288.89507 L -1109.56354 1359.34988 L -1109.56354 1171.22708 L -1425.8486 1093.18791" />
    <path d="M -1425.8486 1219.40144 L -1425.8486 1093.18791" />
    <path d="M -1435.55556 1197.45608 L -1425.8486 1219.40144" />
    <path d="M -1435.55556 1197.45608 L -1435.55556 1090.79284 L -1488.51515 1077.72576" />
    <path d="M -1494.11947 1065.0556 L -1488.51515 1077.72576" />
    <path d="M -1435.55556 1079.50548 L -1494.11947 1065.0556 L -1493.76671 1064.89084" />
    <path d="M -1435.55556 1079.50548 L -1435.55556 979.38043" />
    <path d="M -1425.8486 1081.90054 L -1425.8486 981.77549" />
    <path d="M -1109.56354 1159.93971 L -1425.8486 1081.90054" />
    <path d="M -1109.56354 1159.93971 L -1109.56354 1059.81467" />
    <path d="M -1099.85658 1162.33478 L -1099.85658 1062.20973" />
    <path d="M -783.57152 1240.37395 L -1099.85658 1162.33478" />
    <path d="M -783.57152 1240.37395 L -783.57152 1140.24891" />
    <path d="M -773.86456 1242.76902 L -773.86456 1142.64397" />
    <path d="M -457.5795 1320.80819 L -773.86456 1242.76902" />
    <path d="M -457.5795 1320.80819 L -457.5795 1220.68314" />
    <path d="M -1099.85658 1361.74494 L -1099.85658 1173.62215" />
    <path d="M -1099.85658 1361.74494 L -783.57152 1439.78412 L -783.57152 1251.66132 L -1099.85658 1173.62215" />
    <path d="M -773.86456 1442.17918 L -773.86456 1254.05638" />
    <path d="M -773.86456 1442.17918 L -457.5795 1520.21835 L -457.5795 1332.09556 L -773.86456 1254.05638" />
    <path d="M -2403.82466 1040.00799 L -2112.94379 1111.77901" />
    <path d="M -2087.5396 1066.88187 L -2087.5396 929.92437 L -2403.82466 851.88519" />
    <path d="M -2403.82466 1040.00799 L -2403.82466 851.88519" />
    <path d="M -57.06264 907.96661 L 224.18191 977.36" />
    <path d="M 127.4496 1152.90273 L -57.06264 1107.37677 L -61.53122 1109.46395" />
    <path d="M -57.06264 944.43428 L -57.06264 1107.37677" />
    <path d="M -104.87628 440.28593 A 57.5 31.79827 103.86014 0 1 -118.65056 442.02642 L -281.08033 401.94902" />
    <path d="M -118.65056 442.02642 A 57.5 31.79827 103.86014 0 1 -91.102 330.37484 L -253.53177 290.29743" />
    <path d="M -91.102 330.37484 A 57.5 31.79827 103.86014 0 1 -104.87628 440.28593" />
    <path d="M -25.68753 1224.42972 A 75 41.476 103.86014 0 1 -39.43399 1227.33468" />
    <path d="M 202.08468 -377.5347 A 75 41.476 103.86014 0 1 223.83421 -335.39448 L 224.18191 -326.71511 L 224.18191 -272.13181" />
    <path d="M 223.83421 -335.39448 L 232.08512 -333.35867" />
    <path d="M 180.0873 1128.31682 L -25.68753 1224.42972 L -17.43661 1226.46552" />
    <path d="M 224.18191 -326.71511 L 232.43282 -324.67931" />
    <path d="M 224.0949 1041.64542 A 75 41.476 103.86014 0 1 180.0873 1128.31682 L 188.33822 1130.35263" />
    <path d="M 224.0949 1041.64542 L 232.34581 1043.68122" />
    <path d="M 183.89803 -282.07133 L 224.18191 -272.13181" />
    <path d="M 183.89803 -266.10858 L 183.89803 -282.07133" />
    <path d="M 183.89803 -266.10858 L 224.18191 -256.16907 L 224.18191 -193.15988 A 500 276.50669 103.86014 0 1 370.31373 181.62629 L 330.02986 171.68678 A 500 276.50669 103.86014 0 1 329.40654 183.26528" />
    <path d="M 224.18191 -193.15988 L 232.43282 -191.12407" />
    <path d="M 224.18191 1037.17515 L 224.0949 1041.64542" />
    <path d="M 224.18191 1037.17515 L 232.43282 1039.21096" />
    <path d="M 369.69042 193.2048 L 329.40654 183.26528" />
    <path d="M 369.69042 193.2048 A 500 276.50669 103.86014 0 1 224.18191 621.43572 L 224.18191 762.54356" />
    <path d="M 224.18191 621.43572 L 232.43282 623.47153" />
    <path d="M 183.89803 752.60404 L 224.18191 762.54356" />
    <path d="M 183.89803 768.56679 L 183.89803 752.60404" />
    <path d="M 183.89803 768.56679 L 224.18191 778.50631 L 224.18191 1002.37243" />
    <path d="M 176.45603 990.5967 L 224.18191 1002.37243" />
    <path d="M 176.45603 1001.88407 L 176.45603 990.5967" />
    <path d="M 176.45603 1001.88407 L 224.18191 1013.6598 L 224.18191 1037.17515" />
    <path d="M -173.75774 -404.74351 L -422.51874 -466.12202" />
    <path d="M -760.92946 -87.90514 A 854.4 472.49463 103.86014 0 1 -422.51874 -466.12202" />
    <path d="M -499.74976 -485.17775 L -748.51076 -546.55625" />
    <path d="M -1086.92148 -168.33938 A 854.4 472.49463 103.86014 0 1 -748.51076 -546.55625" />
    <path d="M -825.74178 -565.61199 L -1074.50278 -626.99049" />
    <path d="M -1412.9135 -248.77362 A 854.4 472.49463 103.86014 0 1 -1074.50278 -626.99049" />
    <path d="M -1151.7338 -646.04623 L -1400.49479 -707.42473" />
    <path d="M -1738.90552 -329.20786 A 854.4 472.49463 103.86014 0 1 -1400.49479 -707.42473" />
    <path d="M -1477.72582 -726.48047 L -1726.48681 -787.85897" />
    <path d="M -2064.89753 -409.6421 A 854.4 472.49463 103.86014 0 1 -1726.48681 -787.85897" />
    <path d="M -1803.71783 -806.91471 L -2021.90191 -860.74876 L -2021.90191 -788.07671 A 762 421.39619 103.86014 0 1 -2014.84678 -791.46089" />
    <path d="M -2021.90191 -788.07671 L -2052.47883 -795.62117" />
    <path d="M -2343.3718 -478.35195 A 762 421.39619 103.86014 0 1 -2052.47883 -795.62117" />
    <path d="M -2356.98309 -448.0352 L -2336.05371 -424.32638" />
    <path d="M -2070.4367 -923.00189 L -2070.4367 -929.16612" />
    <path d="M -1857.30594 -820.13687 A 762 421.39619 103.86014 0 1 -1812.66763 -800.60569" />
    <path d="M -1765.21851 -766.50204 A 762 421.39619 103.86014 0 1 -1738.8816 -740.0383 L -1747.13251 -742.07411 A 762 421.39619 103.86014 0 1 -1742.17463 -736.35909" />
    <path d="M -1747.13251 -742.07411 L -1744.91397 -746.65974" />
    <path d="M -1733.92372 -734.32328 L -1742.17463 -736.35909" />
    <path d="M -1733.92372 -734.32328 A 762 421.39619 103.86014 0 1 -1645.01945 -564.6904" />
    <path d="M -1629.35277 -506.46636 A 762 421.39619 103.86014 0 1 -1607.13285 -296.69469" />
    <path d="M -1607.32125 -296.74117 L -1607.13318 -296.82901" />
    <path d="M -1607.53775 -263.11943 A 762 421.39619 103.86014 0 1 -1709.94155 210.99289" />
    <path d="M -1867.86475 479.00608 A 762 421.39619 103.86014 0 1 -1883.63106 497.39467" />
    <path d="M -2204.09803 660.89012 A 762 421.39619 103.86014 0 1 -2232.80348 656.30604" />
    <path d="M -1867.86475 492.85884 A 762 421.39619 103.86014 0 1 -1881.14277 507.82985" />
    <path d="M -2203.96761 662.1594 A 762 421.39619 103.86014 0 1 -2227.96284 657.55563 A 762 421.39619 103.86014 0 1 -2301.03534 625.76641" />
    <path d="M -2245.29659 766.55285 L -2403.82466 840.59782" />
    <path d="M 215.73553 804.63236 L 183.89803 768.56679" />
    <path d="M 215.73553 804.63236 L -60.26565 736.5327" />
    <path d="M -738.58888 1138.31314 L -738.58888 1226.29252 L -462.5877 1294.39218" />
    <path d="M -738.58888 1226.29252 L -773.86456 1242.76902" />
    <path d="M -1064.5809 1057.8789 L -1064.5809 1145.85828 L -783.57152 1215.19364" />
    <path d="M -1064.5809 1145.85828 L -1099.85658 1162.33478" />
    <path d="M -1390.57292 977.44466 L -1390.57292 1065.42404 L -1109.56354 1134.75941" />
    <path d="M -1390.57292 1065.42404 L -1425.8486 1081.90054" />
    <path d="M -1751.84062 915.768 L -1751.84062 901.34125" />
    <path d="M -1716.56494 897.01042 L -1716.56494 924.22001" />
    <path d="M -1751.48786 915.60324 L -1751.84062 915.768" />
    <path d="M -1761.54758 913.37294 L -1761.54758 898.94619" />
    <path d="M -1761.54758 913.37294 L -1751.84062 915.768" />
    <path d="M -2042.55695 816.57619 L -2042.55695 904.55557 L -1904.5704 938.60193" />
    <path d="M -2042.55695 904.55557 L -2077.83264 921.03206" />
    <path d="M -2363.14548 675.41855 L -2335.06182 617.37082" />
    <path d="M -2441.19156 708.47906 L -2443.52319 713.29845" />
    <path d="M -2592.71949 174.80404 L -2600.98301 178.66374" />
    <path d="M -2442.47623 -485.91425 L -2448.47919 -492.71441" />
    <path d="M 210.71176 -337.49417 L 183.89803 -282.07133" />
    <path d="M 210.71176 -337.49417 L 144.04775 -353.94264" />
    <path d="M -312.49038 -500.52614 A 854.4 472.49463 103.86014 0 1 -210.78978 -495.35875 A 854.4 472.49463 103.86014 0 1 -118.35782 -452.62648" />
    <path d="M -215.65472 -496.50985 A 854.4 472.49463 103.86014 0 1 -128.06478 -455.02155" />
    <path d="M -638.4824 -580.96038 A 854.4 472.49463 103.86014 0 1 -536.7818 -575.79299 A 854.4 472.49463 103.86014 0 1 -444.34984 -533.06072" />
    <path d="M -541.64674 -576.94409 A 854.4 472.49463 103.86014 0 1 -454.0568 -535.45579" />
    <path d="M -964.47442 -661.39461 A 854.4 472.49463 103.86014 0 1 -862.77382 -656.22723 A 854.4 472.49463 103.86014 0 1 -770.34186 -613.49496" />
    <path d="M -867.63876 -657.37833 A 854.4 472.49463 103.86014 0 1 -780.04882 -615.89002" />
    <path d="M -1290.46644 -741.82885 A 854.4 472.49463 103.86014 0 1 -1188.76584 -736.66147 A 854.4 472.49463 103.86014 0 1 -1096.33388 -693.9292" />
    <path d="M -1193.63078 -737.81257 A 854.4 472.49463 103.86014 0 1 -1106.04084 -696.32426" />
    <path d="M -1616.45846 -822.26309 A 854.4 472.49463 103.86014 0 1 -1514.75786 -817.0957 A 854.4 472.49463 103.86014 0 1 -1422.3259 -774.36344" />
    <path d="M -2014.84678 -859.00799 L -2014.84678 -791.46089" />
    <path d="M -1519.62279 -818.24681 A 854.4 472.49463 103.86014 0 1 -1432.03286 -776.7585" />
    <path d="M -1676.60738 -775.55188 L -1698.59772 -730.09879 A 762 421.39619 103.86014 0 1 -1693.63984 -724.38377 L -1724.21676 -731.92822 A 762 421.39619 103.86014 0 1 -1638.67989 -572.67766" />
    <path d="M -1698.59772 -730.09879 L -1729.17464 -737.64324" />
    <path d="M -1707.1843 -783.09633 L -1729.17464 -737.64324" />
    <path d="M -2014.84678 -811.61578 A 762 421.39619 103.86014 0 1 -1878.42935 -825.34879" />
    <path d="M -1847.59898 -817.7418 A 762 421.39619 103.86014 0 1 -1810.39628 -802.23018" />
    <path d="M -1761.12748 -768.98498 A 762 421.39619 103.86014 0 1 -1729.17464 -737.64324" />
    <path d="M -499.61407 10.24615 L -775.61525 -57.85351" />
    <path d="M -499.61407 10.24615 L -495.1212 15.33568" />
    <path d="M -641.78818 636.88897 L -917.78936 568.78931" />
    <path d="M -641.78818 636.88897 L -636.47945 634.40938" />
    <path d="M -819.48697 -68.67828 L -1101.60727 -138.28775" />
    <path d="M -962.54453 557.74656 L -1243.78138 488.35507" />
    <path d="M -1145.47899 -149.11252 L -1427.59929 -218.72199" />
    <path d="M -1288.53655 477.31232 L -1569.7734 407.92083" />
    <path d="M -1471.47101 -229.54676 L -1753.59131 -299.15623" />
    <path d="M -1614.52857 396.87808 L -1895.76542 327.48659" />
    <path d="M -1797.46303 -309.981 L -2079.58333 -379.59047" />
    <path d="M -1940.52059 316.44384 L -2221.75744 247.05235" />
    <path d="M -2123.45505 -390.41523 L -2374.99843 -452.48025 L -2340.933 -413.8909 A 762 421.39619 103.86014 0 1 -2336.05371 -424.32638" />
    <path d="M -2340.933 -413.8909 L -2371.50992 -421.43535" />
    <path d="M -2266.51261 236.0096 L -2517.17254 174.16257 L -2462.75943 148.7474 L -2493.33634 141.20295" />
    <path d="M -1669.70813 -773.84958 L -1693.63984 -724.38377" />
    <path d="M -1350.63583 -695.12269 A 854.4 472.49463 103.86014 0 1 -1272.75169 -538.89043" />
    <path d="M -1256.51205 -482.96098 A 854.4 472.49463 103.86014 0 1 -1226.86242 -235.85756 L -1397.70026 -278.00954" />
    <path d="M -1442.66246 -289.10338 L -1512.57056 -306.35228 A 854.4 472.49463 103.86014 0 1 -1512.52102 -295.08805 L -1542.97372 -280.86427" />
    <path d="M -1512.57056 -306.35228 L -1558.78646 -284.76585" />
    <path d="M -1622.34392 -515.59229 A 762 421.39619 103.86014 0 1 -1597.42589 -294.29962" />
    <path d="M -1024.64381 -614.68845 A 854.4 472.49463 103.86014 0 1 -946.75967 -458.45619" />
    <path d="M -930.52003 -402.52674 A 854.4 472.49463 103.86014 0 1 -900.8704 -155.42332 L -1071.70824 -197.57531" />
    <path d="M -1116.67044 -208.66914 L -1217.15546 -233.46249" />
    <path d="M -1340.92887 -692.72762 A 854.4 472.49463 103.86014 0 1 -1266.24489 -545.91827" />
    <path d="M -1249.43796 -490.76335 A 854.4 472.49463 103.86014 0 1 -1217.15546 -233.46249" />
    <path d="M 208.83629 -333.61764 L 137.96875 -351.10327" />
    <path d="M 362.81379 156.37412 L 330.02986 171.68678" />
    <path d="M 362.81379 156.37412 L 86.81261 88.27446" />
    <path d="M 10.18235 -291.41705 A 854.4 472.49463 103.86014 0 1 86.81261 88.27446" />
    <path d="M 3.15909 -288.13664 A 854.4 472.49463 103.86014 0 1 77.10565 85.8794 L -61.53122 51.67257" />
    <path d="M -362.95282 -451.42491 A 854.4 472.49463 103.86014 0 1 -288.26883 -304.61556" />
    <path d="M -372.65977 -453.81997 A 854.4 472.49463 103.86014 0 1 -294.77563 -297.58772" />
    <path d="M -464.68641 -47.80066 L -565.17143 -72.59401" />
    <path d="M -688.94483 -531.85915 A 854.4 472.49463 103.86014 0 1 -614.26085 -385.04979" />
    <path d="M -597.45393 -329.89487 A 854.4 472.49463 103.86014 0 1 -565.17143 -72.59401" />
    <path d="M -698.65179 -534.25421 A 854.4 472.49463 103.86014 0 1 -620.76765 -378.02196" />
    <path d="M -604.52801 -322.0925 A 854.4 472.49463 103.86014 0 1 -574.87838 -74.98908 L -745.71622 -117.14107" />
    <path d="M -790.67843 -128.2349 L -891.16344 -153.02825" />
    <path d="M -1014.93685 -612.29339 A 854.4 472.49463 103.86014 0 1 -940.25287 -465.48403" />
    <path d="M -923.44594 -410.32911 A 854.4 472.49463 103.86014 0 1 -891.16344 -153.02825" />
    <path d="M -530.12779 1127.69153 L -770.66155 1068.34299" />
    <path d="M -1172.04998 868.72106 A 854.4 472.49463 103.86014 0 1 -1243.25416 524.91978" />
    <path d="M -1182.40169 873.55612 L -1172.04998 868.72106" />
    <path d="M -1182.40169 901.77454 L -1182.40169 873.55612 L -1161.53173 878.7055 L -947.58406 778.77525" />
    <path d="M -856.11981 1047.25729 L -1096.65357 987.90875" />
    <path d="M -1498.042 788.28682 A 854.4 472.49463 103.86014 0 1 -1569.24618 444.48554" />
    <path d="M -1508.39371 793.12188 L -1498.042 788.28682" />
    <path d="M -1508.39371 821.3403 L -1508.39371 793.12188 L -1231.70878 861.39024" />
    <path d="M -1182.11183 966.82305 L -1422.64559 907.47452" />
    <path d="M -1824.03402 707.85258 A 854.4 472.49463 103.86014 0 1 -1895.2382 364.05131" />
    <path d="M -1834.38572 712.68764 L -1824.03402 707.85258" />
    <path d="M -1834.38572 740.90606 L -1834.38572 712.68764 L -1557.7008 780.956" />
    <path d="M -1508.10385 886.38882 L -1748.63761 827.04028" />
    <path d="M -2150.02603 627.41834 A 854.4 472.49463 103.86014 0 1 -2221.23021 283.61707" />
    <path d="M -2160.37774 632.2534 L -2150.02603 627.41834" />
    <path d="M -2160.37774 660.47182 L -2160.37774 632.2534 L -1883.69281 700.52176" />
    <path d="M -1834.09587 805.95458 L -2074.62963 746.60604" />
    <path d="M -2501.3598 178.06415 L -2462.56352 159.94327 A 762 421.39619 103.86014 0 1 -2462.75943 148.7474" />
    <path d="M -2394.1504 530.57179 A 762 421.39619 103.86014 0 1 -2489.70974 217.37328" />
    <path d="M -2492.15471 180.33539 A 762 421.39619 103.86014 0 1 -2492.44566 173.90056" />
    <path d="M -2160.08789 725.52034 L -2370.04473 673.71625 L -2341.96107 615.66852" />
    <path d="M -1226.81287 -224.59333 L -1402.98374 -268.06117" />
    <path d="M -1447.73891 -279.10392 L -1512.52102 -295.08805" />
    <path d="M -1226.81287 -224.59333 A 854.4 472.49463 103.86014 0 1 -1226.99447 -202.90055" />
    <path d="M -1227.97286 -169.4668 A 854.4 472.49463 103.86014 0 1 -1298.54428 222.78098" />
    <path d="M -1597.8308 -260.72437 A 762 421.39619 103.86014 0 1 -1696.69699 204.80664" />
    <path d="M -900.82086 -144.15909 L -1076.99172 -187.62693" />
    <path d="M -1121.74689 -198.66968 L -1217.10592 -222.19827 A 854.4 472.49463 103.86014 0 1 -1217.28752 -200.50548" />
    <path d="M -900.82086 -144.15909 A 854.4 472.49463 103.86014 0 1 -901.00246 -122.46631" />
    <path d="M -901.98085 -89.03256 A 854.4 472.49463 103.86014 0 1 -972.55226 303.21522" />
    <path d="M -1278.48561 220.34099 L -1288.83732 225.17604 L -1298.54428 222.78098" />
    <path d="M -1218.26591 -167.07173 A 854.4 472.49463 103.86014 0 1 -1288.83732 225.17604" />
    <path d="M 347.0506 163.73676 L 86.86216 99.53869 A 854.4 472.49463 103.86014 0 1 -55.31195 726.18151" />
    <path d="M 202.6739 789.83612 L -55.31195 726.18151" />
    <path d="M 77.1552 97.14362 L -61.53122 62.92457" />
    <path d="M 77.1552 97.14362 A 854.4 472.49463 103.86014 0 1 -61.53122 716.36078" />
    <path d="M -469.76285 -37.80121 L -565.12188 -61.32979 A 854.4 472.49463 103.86014 0 1 -565.30348 -39.63701" />
    <path d="M -626.50157 381.20946 L -636.85328 386.04452 L -646.56024 383.64946" />
    <path d="M -566.28187 -6.20325 A 854.4 472.49463 103.86014 0 1 -636.85328 386.04452" />
    <path d="M -574.82884 -63.72485 L -750.9997 -107.19269" />
    <path d="M -795.75487 -118.23544 L -891.1139 -141.76403 A 854.4 472.49463 103.86014 0 1 -891.2955 -120.07124" />
    <path d="M -574.82884 -63.72485 A 854.4 472.49463 103.86014 0 1 -575.01044 -42.03207" />
    <path d="M -575.98883 -8.59832 A 854.4 472.49463 103.86014 0 1 -646.56024 383.64946" />
    <path d="M -952.49359 300.77523 L -962.8453 305.61028 L -972.55226 303.21522" />
    <path d="M -892.27389 -86.63749 A 854.4 472.49463 103.86014 0 1 -962.8453 305.61028" />
    <path d="M -459.88323 1293.12898 L -462.5877 1294.39218" />
    <path d="M -459.88323 1293.12898 L -457.5795 1293.69739" />
    <path d="M -1506.14401 1036.9084 L -1435.55556 1054.32517" />
    <path d="M -1771.48819 1078.53714 L -1629.92838 1398.57362 L -2196.16762 1258.86154 L -2054.60781 1008.6811 L -1771.48819 1078.53714 L -1536.31695 968.69383 L -1493.76671 1064.89084" />
    <path d="M -1629.92838 1398.57362 L -1395.1099 1288.89507 L -1394.75714 1288.73031" />
    <path d="M -1425.49584 1219.23667 L -1394.75714 1288.73031" />
    <path d="M -1425.49584 1219.23667 L -1425.8486 1219.40144" />
    <path d="M -1488.03737 1077.84365 L -1435.55556 1196.49381" />
    <path d="M -1390.57292 1201.4684 L -1251.0736 1136.31134" />
    <path d="M -1390.57292 1101.89172 L -1390.57292 1208.39737 L -1241.36665 1138.7064" />
    <path d="M -1162.30295 1158.21433 L -1402.8007 1270.54554" />
    <path d="M -1064.5809 1281.90263 L -925.08158 1216.74558" />
    <path d="M -1064.5809 1182.32596 L -1064.5809 1288.83161 L -915.37463 1219.14064" />
    <path d="M -892.00466 1264.66188 L -1099.85658 1361.74494" />
    <path d="M -738.58888 1262.7602 L -738.58888 1369.26584 L -735.88441 1368.00265 L -738.58888 1367.33535" />
    <path d="M -735.88441 1368.00265 L -735.88441 1377.40879 L -457.5795 1446.07686" />
    <path d="M -669.998 1393.66539 L -773.86456 1442.17918" />
    <path d="M 176.22086 990.70655 L 176.45603 990.5967" />
    <path d="M 176.22086 990.70655 L -61.53122 932.04435" />
    <path d="M 176.22086 1001.99391 L 176.45603 1001.88407" />
    <path d="M 176.22086 1001.99391 L -61.53122 943.33172" />
    <path d="M 176.22086 990.70655 L 176.22086 1001.99391" />
    <path d="M -2413.53162 1031.7233 L -2421.78253 1035.57712" />
    <path d="M -2140.27901 916.91161 L -2403.82466 1040.00799" />
    <path d="M -2214.71967 774.0973 L -2337.97205 831.66578 L -2087.5396 893.45669" />
    <path d="M -2042.55695 941.02324 L -2042.55695 1003.05241" />
    <path d="M -2198.90693 777.99889 L -2322.15931 835.56736" />
    <path d="M -632.24654 549.72495 L -757.65483 608.3004" />
    <path d="M -808.69695 632.14105 L -892.00466 671.05225 L -634.88934 734.49207" />
    <path d="M -892.00466 1338.88817 L -783.57152 1365.64262" />
    <path d="M -892.00466 1338.88817 L -892.00466 1224.90687" />
    <path d="M -892.00466 1188.4392 L -892.00466 1100.45982" />
    <path d="M -892.00466 1038.40318 L -892.00466 976.36173" />
    <path d="M -892.00466 810.91924 L -892.00466 671.05225" />
    <path d="M -1751.48786 915.60324 L -1536.31695 968.69383" />
    <path d="M -1819.43657 898.83779 L -1761.54758 913.12114" />
    <path d="M -2054.60781 1008.6811 L -1819.43657 898.83779" />
    <path d="M -2455.79284 559.36361 L -2250.48119 463.46706" />
    <path d="M -2205.46842 442.44258 L -2191.2252 435.78989 L -1931.00862 499.99491" />
    <path d="M -902.6104 757.76905 L -896.96409 755.13178 A 50 27.65067 103.86014 0 1 -892.00466 753.48948" />
    <path d="M -2455.79284 559.36361 L -2209.68483 620.08752" />
    <path d="M -1161.53173 906.92392 L -1161.53173 878.7055" />
    <path d="M -1182.40169 901.77454 L -1161.53173 906.92392" />
    <path d="M -2455.79284 587.58203 L -2197.36746 651.34509" />
    <path d="M -2160.37774 660.47182 L -1871.37545 731.77933" />
    <path d="M -1834.38572 740.90606 L -1545.38343 812.21357" />
    <path d="M -1508.39371 821.3403 L -1219.39141 892.64781" />
    <path d="M -931.52887 857.21692 L -1161.53173 906.92392" />
    <path d="M -2455.79284 587.58203 L -2455.79284 559.36361" />
    <path d="M -1546.31816 154.25683 L -1296.37261 215.92761" />
    <path d="M -1590.49432 155.20171 L -1838.46835 271.02492 L -1611.5697 327.00918" />
    <path d="M -626.50157 381.20946 L -610.45638 385.1684" />
    <path d="M -952.49359 300.77523 L -936.4484 304.73416" />
    <path d="M -894.33412 315.12531 L -644.38857 376.79608" />
    <path d="M -1278.48561 220.34099 L -1262.44042 224.29993" />
    <path d="M -1220.32614 234.69107 L -970.38059 296.36184" />
    <path d="M -1867.86475 331.78604 L -1867.86475 334.37071" />
    <path d="M -1867.86475 370.80534 L -1867.86475 511.10603" />
    <path d="M -1838.46835 271.02492 A 50 27.65067 283.86014 0 0 -1867.86475 331.78604 L -1614.47982 394.30543" />
    <path d="M -2179.24757 434.27642 A 50 27.65067 283.86014 0 0 -2191.2252 435.78989" />
    <path d="M -2198.42914 716.06014 L -2205.2794 649.39293" />
    <path d="M -2182.61147 869.99896 L -2191.88677 779.73102" />
    <path d="M -892.00466 1153.77691 L -897.62566 1099.07291" />
    <path d="M -904.16803 1035.40203 L -917.2655 907.93645" />
    <path d="M -1569.7708 405.33679 L -1288.48781 474.73967" />
    <path d="M -1243.77878 485.77103 L -962.49579 555.17391" />
    <path d="M -917.78677 566.20527 L -754.03389 606.60914" />
    <path d="M 1649.90753 441.79613 L 1658.15844 443.83194" />
    <path d="M 1444.13269 537.90903 L 1452.38361 539.94483" />
    <path d="M -671.05428 -238.30743 L -584.61011 -216.97847" />
    <path d="M -536.02946 -204.99183 L -461.18839 -186.52578" />
    <path d="M -411.47028 -174.25849 L -393.64291 -169.85982" />
    <path d="M -61.53122 -87.91564 L 67.37393 -56.10999" />
    <path d="M 115.95457 -44.12335 L 190.79564 -25.65731" />
    <path d="M 240.51376 -13.39001 L 358.691 15.76866" />
    <path d="M 440.49055 35.95163 L 516.78766 54.77693" />
    <path d="M 566.50578 67.04422 L 572.85614 68.61109" />
    <path d="M -275.31068 -392.46598 L -211.2421 -376.6579" />
    <path d="M 53.06081 -311.44464 L 183.89803 -279.16227" />
    <path d="M 375.21731 -231.95676 L 811.06915 -124.41606" />
    <path d="M -1881.2905 512.2622 L -1605.0166 580.42914" />
    <path d="M -1555.29848 592.69644 L -1279.02458 660.86338" />
    <path d="M -1229.30646 673.13067 L -953.03256 741.29762" />
    <path d="M -903.31444 753.56491 L -896.96409 755.13178" />
    <path d="M -1567.90425 337.78305 L -1285.57768 407.44342" />
    <path d="M -1241.91223 418.21729 L -959.58566 487.87766" />
    <path d="M -915.92021 498.65153 L -658.75107 562.10463" />
    <path d="M 577.81557 65.36597 L 565.74799 62.38846" />
    <path d="M 516.20784 50.16508 L 440.02258 31.36737" />
    <path d="M 357.6964 11.05447 L 239.75597 -18.04578" />
    <path d="M 190.21582 -30.26916 L 115.48661 -48.70761" />
    <path d="M 66.74865 -60.73306 L -61.53122 -92.38443" />
    <path d="M -391.09626 -173.70026 L -412.22807 -178.91426" />
    <path d="M -461.76821 -191.13764 L -536.49743 -209.57609" />
    <path d="M -585.23538 -221.60154 L -668.35033 -242.10905" />
    <path d="M -892.00466 751.88666 L -904.07223 748.90915" />
    <path d="M -953.61238 736.68577 L -1230.06425 668.47491" />
    <path d="M -1279.6044 656.25153 L -1556.05627 588.04067" />
    <path d="M -1605.59642 575.81729 L -1882.04829 507.60643" />
    <path d="M -1931.58844 495.38305 L -2179.24757 434.27642" />
</svg>