<svg version="1.1" xmlns="http://www.w3.org/2000/svg" viewBox="-1481.1715737143497 -1503.1951371792277 2829.0431754641795 3158.638114105196" fill="none" stroke="black" stroke-width="0.6%" vector-effect="non-scaling-stroke">
    <path d="M 972.44296 1214.62708 L 976.37044 1218.16412 L 1013.66811 1210.62824 L 1013.66811 1137.85706" />
    <path d="M 976.37044 1145.39294 L 976.37044 1218.16412" />
    <path d="M 976.35974 1213.83571 L 976.35974 1147.81048 L 974.16918 1145.83769" />
    <path d="M -80.91635 1354.87131 L -95.67707 1357.85367 L -95.67707 1341.57799 L -93.30987 1343.70987" />
    <path d="M -22.93409 1343.1607 L 966.71207 1143.20587" />
    <path d="M -374.49961 246.9892 L -426.58461 257.5128" />
    <path d="M -712.96218 315.37447 L -742.6662 321.37608" />
    <path d="M -884.29637 349.992 L -903.23376 353.81824" />
    <path d="M -968.60737 367.02676 L -1049.28972 383.32838" />
    <path d="M -1139.47209 417.8251 L -1139.47209 401.54943 L -1141.83929 399.41756 L -1141.83929 390.61269 L -1146.11995 386.75759 L -1146.11995 395.56246 L -1157.9902 384.87225 L -1157.9902 103.42375" />
    <path d="M -61.80235 1423.59303 L -8.84994 1412.89416" />
    <path d="M 810.30309 1654.44298 L -8.84994 1412.89416" />
    <path d="M 822.0312 1647.20585 L 810.30309 1654.44298 L 810.30309 1588.41775 L 822.0312 1581.18062 L 842.58816 1581.89465 L 923.40733 1158.50934 L 976.35974 1147.81048" />
    <path d="M 842.58816 1647.91988 L 822.0312 1647.20585" />
    <path d="M 842.58816 1647.91988 L 923.40733 1224.53457 L 923.40733 1158.50934" />
    <path d="M 923.40733 1224.53457 L 976.35974 1213.83571" />
    <path d="M 167.06493 1377.35113 L 867.25155 1235.88067" />
    <path d="M 810.30309 1588.41775 L -8.84994 1346.86893 L -8.84994 1412.89416" />
    <path d="M -61.80235 1357.5678 L -8.84994 1346.86893" />
    <path d="M 34.19682 1338.17147 L 880.36056 1167.2068" />
    <path d="M 804.3735 1565.27832 L 34.19682 1338.17147" />
    <path d="M 804.3735 1565.27832 L 880.36056 1167.2068" />
    <path d="M 1024.69023 847.6095 L 1024.69023 1135.63008 L 970.46537 1146.58604 L 970.46537 833.79885" />
    <path d="M -1139.47209 415.57839 L -1146.9638 417.09206 L -1030.79028 521.71646" />
    <path d="M -656.15392 859.10922 L -99.08932 1360.79454 L -99.08932 1435.45731 L -61.79165 1427.92144 L -61.79165 1355.15026" />
    <path d="M -78.87448 1356.71019 L -99.08932 1360.79454" />
    <path d="M -95.67707 1357.85367 L -657.79723 851.61538" />
    <path d="M -1029.14698 517.1825 L -1139.47209 417.8251" />
    <path d="M -1129.96903 410.10776 L -1129.96903 128.08398" />
    <path d="M -1114.14965 424.3545 L -1129.96903 410.10776" />
    <path d="M -1024.69963 504.91206 L -1103.51458 433.93231 L -1103.87608 434.00535 L -1103.87608 151.58296" />
    <path d="M -957.9723 282.98205 L -957.9723 458.27192" />
    <path d="M -957.45862 458.16813 L -957.45862 283.44467" />
    <path d="M -795.22178 505.92544 L -795.22178 429.55311" />
    <path d="M -784.94821 515.17769 L -784.94821 438.80536" />
    <path d="M -622.71137 866.93759 L -662.24458 831.33448" />
    <path d="M -622.71137 866.93759 L -622.71137 584.9138" />
    <path d="M -612.43779 876.18984 L -612.43779 594.16605" />
    <path d="M -531.98052 948.64864 L -612.43779 876.18984" />
    <path d="M -450.20095 1022.29828 L -521.34545 958.22645 L -521.70694 958.29949 L -521.70694 676.31113" />
    <path d="M -450.20095 1022.29828 L -450.20095 740.91391" />
    <path d="M -439.92738 1031.55053 L -439.92738 750.18579" />
    <path d="M -386.43823 1079.72218 L -439.92738 1031.55053" />
    <path d="M -277.69054 1177.65897 L -375.80316 1089.29999 L -376.16466 1089.37303 L -376.16466 806.95064" />
    <path d="M -277.69054 1177.65897 L -277.69054 895.63518" />
    <path d="M -267.41697 1186.91122 L -267.41697 904.88743" />
    <path d="M -105.18013 1333.01966 L -267.41697 1186.91122" />
    <path d="M -105.18013 1333.01966 L -105.18013 1050.99587" />
    <path d="M -77.15896 1358.25517 L -77.15896 1076.23139" />
    <path d="M -77.15896 1358.25517 L -89.02921 1347.56497 L -89.02921 1338.7601 L -93.30987 1334.90499 L -93.30987 1343.70987" />
    <path d="M 952.61234 1145.25607 L 401.68774 1256.56862 L 401.68774 573.43035" />
    <path d="M 396.12289 1251.55698 L 401.68774 1256.56862" />
    <path d="M 396.12289 1251.3021 L -22.93409 1335.97122" />
    <path d="M -22.93409 1347.29921 L -77.15896 1358.25517" />
    <path d="M -89.02921 1342.84497 L -93.30987 1343.70987" />
    <path d="M 960.1918 1137.33379 L 970.46537 1146.58604" />
    <path d="M 960.1918 1137.33379 L 952.61234 1138.86519" />
    <path d="M -213.19211 1175.95526 L -267.41697 1186.91122" />
    <path d="M -321.5783 1078.34403 L -375.80316 1089.29999" />
    <path d="M -386.43823 1020.74322 L -439.92738 1031.55053" />
    <path d="M -467.12058 947.27049 L -521.34545 958.22645" />
    <path d="M -558.21293 865.23388 L -612.43779 876.18984" />
    <path d="M -622.71137 818.22722 L -663.31963 826.43199" />
    <path d="M -1049.28972 422.97635 L -1103.51458 433.93231" />
    <path d="M -1114.14965 406.91151 L -1129.96903 410.10776" />
    <path d="M -743.19334 361.13055 L -742.6662 361.02405" />
    <path d="M -364.22604 282.67343 L -374.49961 273.42118" />
    <path d="M -356.55314 281.12314 L -364.22604 282.67343" />
    <path d="M -374.49961 246.1396 L -427.06401 256.76007" />
    <path d="M -713.11231 314.55521 L -742.6662 320.52648" />
    <path d="M -885.06416 349.29753 L -903.23376 352.96864" />
    <path d="M -968.60737 366.17717 L -1049.28972 382.47878" />
    <path d="M 822.0312 1581.18062 L 822.0312 1647.20585" />
    <path d="M 842.58816 1581.89465 L 842.58816 1647.91988" />
    <path d="M -1146.9638 417.09206 L -1146.9638 491.75484 L -1051.192 578.0057" />
    <path d="M -669.33442 921.9018 L -99.08932 1435.45731" />
    <path d="M -386.43823 1080.12078 L -376.16466 1089.37303" />
    <path d="M -531.98052 949.04724 L -521.70694 958.29949" />
    <path d="M -1114.14965 424.7531 L -1103.87608 434.00535" />
    <path d="M 952.61234 1145.25607 L 952.61234 -279.26088 A 100 81.73993 312.0058 0 0 929.15815 -335.30866 A 100 81.73993 312.0058 0 0 867.91225 -352.41455 L 862.23757 -351.44647 L 492.06251 -276.65378 L 480.73555 -273.65202 A 100 81.73993 312.0058 0 0 401.68774 -167.94833 L 401.68774 424.74441 A 87.5 71.52244 312.0058 0 0 370.24467 558.62865 A 87.5 71.52244 312.0058 0 0 401.68774 573.43035" />
    <path d="M 396.12289 572.27862 L 396.12289 1251.55698" />
    <path d="M 396.12289 419.73277 A 87.5 71.52244 312.0058 0 0 364.67981 553.61701" />
    <path d="M 923.5933 -340.32029 A 100 81.73993 312.0058 0 0 862.3474 -357.42618 L 867.91225 -352.41455" />
    <path d="M 862.3474 -357.42618 L 856.67272 -356.4581 L 862.23757 -351.44647" />
    <path d="M 856.67272 -356.4581 L 486.49766 -281.66542 L 492.06251 -276.65378" />
    <path d="M 486.49766 -281.66542 L 475.1707 -278.66365 L 480.73555 -273.65202" />
    <path d="M 475.1707 -278.66365 A 100 81.73993 312.0058 0 0 396.12289 -172.95997 L 396.12289 419.73277 L 401.68774 424.74441" />
    <path d="M 960.1918 1137.33379 L 960.1918 824.5466 L 970.46537 833.79885" />
    <path d="M 960.1918 824.5466 A 854.4 698.38597 312.0058 0 0 1062.79368 -275.13314" />
    <path d="M -103.11259 972.71527 A 854.4 698.38597 312.0058 0 0 -33.20767 1025.25978 L -22.93409 1034.51203 A 854.4 698.38597 132.0058 0 1 -72.23537 999.23363 A 854.4 698.38597 132.0058 0 1 -98.00381 977.37249 A 854.4 698.38597 132.0058 0 1 -295.87751 560.35886" />
    <path d="M 71.853 968.06187 L 312.88251 919.36263" />
    <path d="M 71.853 1197.79349 L 71.853 968.06187 L 105.0024 997.91579 L 346.03191 949.21655 L 312.88251 919.36263" />
    <path d="M -22.93409 1034.51203 L -22.93409 1042.85268" />
    <path d="M -22.93409 1053.5514 L -22.93409 1347.29921" />
    <path d="M -64.56682 1005.35878 L -72.23537 999.23363 L -79.90392 993.10848 L -118.19637 1039.16777" />
    <path d="M 1048.51041 820.61456 A 914.4 747.42992 132.0058 0 1 1024.69023 847.6095" />
    <path d="M 1019.76664 778.59812 L 1012.09809 787.82208" />
    <path d="M 1019.76664 778.59812 A 854.4 698.38597 132.0058 0 1 970.46537 833.79885" />
    <path d="M -213.19211 953.72166 L -213.19211 1175.95526" />
    <path d="M -321.5783 856.6775 L -321.5783 1078.34403" />
    <path d="M -356.34997 678.36469 L -390.00474 685.16453" />
    <path d="M -516.77836 665.55597 L -478.25331 657.77211" />
    <path d="M -516.77836 665.55597 A 914.4 747.42992 312.0058 0 0 -436.80037 753.00193 A 914.4 747.42992 312.0058 0 0 -416.84058 770.21258" />
    <path d="M -411.28772 763.53343 L -416.84058 770.21258" />
    <path d="M -359.07231 667.58674 L -396.22761 675.09385" />
    <path d="M -483.32898 647.46964 L -527.05193 656.30372 L -516.77836 665.55597" />
    <path d="M -447.07394 743.74968 A 914.4 747.42992 132.0058 0 1 -527.05193 656.30372" />
    <path d="M -386.43823 1080.12078 L -386.43823 797.69839" />
    <path d="M -467.12058 725.03689 L -467.12058 947.27049" />
    <path d="M -376.38975 567.15654 L -442.67403 580.54906" />
    <path d="M -379.74315 522.61132 L -457.45069 538.31188" />
    <path d="M -520.90267 551.13215 L -544.97106 555.99509" />
    <path d="M -662.32064 534.48244 L -636.44755 529.25486" />
    <path d="M -662.32064 534.48244 A 914.4 747.42992 312.0058 0 0 -582.34265 621.9284 A 914.4 747.42992 312.0058 0 0 -562.38286 639.13904" />
    <path d="M -560.20978 636.5252 L -562.38286 639.13904" />
    <path d="M -380.19391 511.3744 L -460.67661 527.63567" />
    <path d="M -524.07412 540.44494 L -551.86635 546.06027" />
    <path d="M -642.07403 519.06368 L -672.59422 525.23019 L -662.32064 534.48244" />
    <path d="M -592.61622 612.67615 A 914.4 747.42992 132.0058 0 1 -672.59422 525.23019" />
    <path d="M -531.98052 949.04724 L -531.98052 666.62485" />
    <path d="M -558.21293 643.00027 L -558.21293 865.23388" />
    <path d="M -667.24923 808.51217 L -667.24923 545.38721" />
    <path d="M -460.03259 423.57642 L -481.87141 427.98888" />
    <path d="M -545.32942 440.81037 L -603.74688 452.61343" />
    <path d="M -382.56871 672.33411 L -382.56871 568.40497" />
    <path d="M -382.56871 511.85422 L -382.56871 493.33941" />
    <path d="M -371.61535 360.48924 L -427.13469 371.70674" />
    <path d="M -550.32928 396.59781 L -620.59272 410.79431" />
    <path d="M -684.25094 423.65625 L -698.06968 426.44829" />
    <path d="M -807.86293 403.4089 L -793.13535 400.43324" />
    <path d="M -807.86293 403.4089 A 914.4 747.42992 312.0058 0 0 -727.88493 490.85486 A 914.4 747.42992 312.0058 0 0 -707.92514 508.06551" />
    <path d="M -707.71433 507.81194 L -707.92514 508.06551" />
    <path d="M -370.24859 348.88509 L -437.40826 362.45449" />
    <path d="M -551.18915 385.44355 L -624.31729 400.21886" />
    <path d="M -687.88585 413.06268 L -705.69527 416.66102" />
    <path d="M -799.34669 390.36023 L -818.1365 394.15665 L -807.86293 403.4089" />
    <path d="M -738.15851 481.60261 A 914.4 747.42992 132.0058 0 1 -818.1365 394.15665" />
    <path d="M -677.5228 761.66243 L -677.5228 536.21036" />
    <path d="M -392.84228 674.40985 L -392.84228 570.48072" />
    <path d="M -392.84228 513.92996 L -392.84228 484.08716" />
    <path d="M -369.8483 348.8051 A 100 81.73993 312.0058 0 0 -370.24859 348.88509 L -369.90912 349.19081" />
    <path d="M -730.72334 488.29863 L -730.72334 564.01191" />
    <path d="M -812.79151 490.10236 L -812.79151 413.73003" />
    <path d="M -758.56665 323.41438 L -758.56665 333.7103" />
    <path d="M -605.57488 292.50288 L -649.82702 301.44388" />
    <path d="M -713.16945 314.24202 L -758.56665 323.41438" />
    <path d="M -528.11099 541.26057 L -528.11099 525.85303" />
    <path d="M -451.58164 314.7519 L -451.58164 349.69013" />
    <path d="M -451.58164 431.18724 L -451.58164 525.79806" />
    <path d="M -415.14253 307.38949 L -451.58164 314.7519" />
    <path d="M -415.14253 307.38949 L -415.14253 299.24939 L -415.85516 288.05755 A 100 81.73993 312.0058 0 0 -438.59672 243.20162 A 100 81.73993 312.0058 0 0 -482.10797 225.42088" />
    <path d="M -548.00463 235.64824 L -572.67698 240.6332" />
    <path d="M -646.58826 255.56674 L -656.28777 257.5265" />
    <path d="M -719.83571 270.36616 L -782.38957 283.00496" />
    <path d="M -846.35204 295.92837 L -849.1238 296.4884" />
    <path d="M -953.40521 272.33536 L -948.21515 271.28673" />
    <path d="M -953.40521 272.33536 A 914.4 747.42992 312.0058 0 0 -873.42722 359.78133 A 914.4 747.42992 312.0058 0 0 -864.74967 367.44854" />
    <path d="M -546.65611 224.04778 L -582.95055 231.38095" />
    <path d="M -656.86184 246.31449 L -657.48161 246.43972" />
    <path d="M -721.10806 259.29524 L -786.63317 272.53438" />
    <path d="M -850.4676 285.43192 L -857.55169 286.86324" />
    <path d="M -955.05228 261.34016 L -963.67878 263.08311 L -953.40521 272.33536" />
    <path d="M -883.70079 350.52908 A 914.4 747.42992 132.0058 0 1 -963.67878 263.08311" />
    <path d="M -823.06509 480.85011 L -823.06509 404.47778" />
    <path d="M -538.38456 543.33632 L -538.38456 481.53092" />
    <path d="M -448.87029 233.94937 A 100 81.73993 312.0058 0 0 -481.09099 217.73306" />
    <path d="M -903.23376 332.27889 L -903.23376 447.21217" />
    <path d="M -722.36975 99.07027 L -728.49283 100.30742" />
    <path d="M -802.40412 115.24096 L -826.49711 120.10887" />
    <path d="M -889.94041 132.92738 L -947.56747 144.57075" />
    <path d="M -1109.07668 131.9804 L -1109.22107 132.00958 L -1108.70739 132.47219 A 914.4 747.42992 132.0058 0 1 -1243.12228 -281.66423" />
    <path d="M -1029.24308 219.45554 A 914.4 747.42992 132.0058 0 1 -1109.22107 132.00958" />
    <path d="M -968.60737 460.4207 L -968.60737 273.40424" />
    <path d="M -594.41257 102.87583 A 100 81.73993 312.0058 0 0 -656.48377 85.88852" />
    <path d="M -1049.28972 200.74274 L -1049.28972 422.97635" />
    <path d="M -1049.65122 61.26731 L -1049.65122 107.33258" />
    <path d="M -898.07892 30.64261 L -982.12343 47.62353" />
    <path d="M -1045.46913 60.42233 L -1049.65122 61.26731" />
    <path d="M -819.19556 118.63361 L -819.19556 100.1188" />
    <path d="M -742.6662 52.60482 L -742.6662 87.54306" />
    <path d="M -742.6662 169.04017 L -742.6662 263.65099" />
    <path d="M -742.6662 320.20174 L -742.6662 361.02405" />
    <path d="M -716.27179 47.27192 L -742.6662 52.60482" />
    <path d="M -710.22982 11.29194 A 100 81.73993 312.0058 0 0 -729.68128 -18.94546 A 100 81.73993 312.0058 0 0 -796.60187 -35.08327 L -832.42097 -27.84613" />
    <path d="M -937.67283 -6.58033 L -992.24299 4.4454" />
    <path d="M -1055.55716 17.23782 L -1101.69119 26.55905" />
    <path d="M -1244.48978 10.18829 L -1185.92822 -1.64388" />
    <path d="M -1244.48978 10.18829 A 914.4 747.42992 312.0058 0 0 -1164.51179 97.63425 L -1174.78536 88.382 A 914.4 747.42992 132.0058 0 1 -1254.76335 0.93604 L -1244.48978 10.18829 Z" />
    <path d="M -1164.51179 97.63425 A 914.4 747.42992 312.0058 0 0 -1144.552 114.8449" />
    <path d="M -1131.83546 99.54908 L -1144.552 114.8449" />
    <path d="M -806.87544 -44.33552 L -831.69158 -39.32149" />
    <path d="M -947.9464 -15.83258 L -994.33629 -6.45965" />
    <path d="M -1057.67147 6.33702 L -1107.05169 16.31413" />
    <path d="M -1190.28115 -12.09238 L -1254.76335 0.93604" />
    <path d="M -1114.14965 424.7531 L -1114.14965 142.33071" />
    <path d="M -829.46913 96.13345 L -829.46913 90.86655" />
    <path d="M -739.95486 -28.1977 A 100 81.73993 312.0058 0 0 -806.87544 -44.33552 L -796.60187 -35.08327" />
    <path d="M -374.49961 -23.67006 L -374.49961 273.42118" />
    <path d="M -358.536 -128.43824 A 100 81.73993 132.0058 0 1 -320.56395 -144.48119 L -182.03365 -172.47079" />
    <path d="M -149.23439 -179.09778 L -105.03639 -188.02784" />
    <path d="M -310.29037 -135.22894 L -171.76008 -163.21854" />
    <path d="M -138.96081 -169.84553 L -117.4415 -174.19344" />
    <path d="M -242.5093 -103.70113 L -162.36058 -119.89492" />
    <path d="M -287.34037 -55.08831 A 50 40.86997 132.0058 0 1 -242.5093 -103.70113" />
    <path d="M -287.69668 -49.34841 L -287.34037 -55.08831" />
    <path d="M -287.69668 84.38169 L -287.69668 -49.34841" />
    <path d="M -364.22604 -25.7458 L -364.22604 282.67343" />
    <path d="M -400.66514 -18.38339 L -364.22604 -25.7458" />
    <path d="M -400.66514 -18.38339 L -400.66514 -26.52349 L -407.95685 -33.09031" />
    <path d="M -400.66514 -26.52349 L -399.95251 -38.0033 L -404.03145 -41.67674" />
    <path d="M -399.95251 -38.0033 A 100 81.73993 132.0058 0 1 -392.54916 -65.62375" />
    <path d="M -384.78278 -80.94362 A 100 81.73993 132.0058 0 1 -310.29037 -135.22894 L -320.56395 -144.48119" />
    <path d="M -651.05958 95.99027 L -657.639 97.31962" />
    <path d="M -792.13055 124.49321 L -824.85735 131.10555" />
    <path d="M -888.25051 143.91394 L -942.78024 154.93149" />
    <path d="M -561.39744 156.98401 A 100 81.73993 312.0058 0 0 -584.139 112.12808 L -594.41257 102.87583" />
    <path d="M -584.139 112.12808 A 100 81.73993 312.0058 0 0 -651.05958 95.99027" />
    <path d="M -560.68481 168.17586 L -561.39744 156.98401" />
    <path d="M -560.68481 176.31596 L -560.68481 168.17586" />
    <path d="M -560.68481 176.31596 L -597.12392 183.67836 L -597.12392 218.6166" />
    <path d="M -597.12392 300.1137 L -597.12392 394.72453" />
    <path d="M -597.12392 451.27528 L -597.12392 466.99133" />
    <path d="M -751.11716 161.42934 L -816.58689 174.65729" />
    <path d="M -879.89077 187.44764 L -904.10894 192.34084 L -904.10894 224.44277" />
    <path d="M 64.90717 -1157.56814 A 854.4 698.38597 132.0058 0 1 83.81267 -1129.53662" />
    <path d="M 125.55483 -1051.45352 A 854.4 698.38597 132.0058 0 1 148.98432 -990.41101" />
    <path d="M 166.90424 -923.91038 A 854.4 698.38597 132.0058 0 1 180.32863 -832.74117" />
    <path d="M 182.83903 -768.1472 A 854.4 698.38597 132.0058 0 1 182.746 -758.59305" />
    <path d="M 178.11549 -684.57985 A 854.4 698.38597 132.0058 0 1 171.78808 -638.39058" />
    <path d="M 156.49013 -565.43277 A 854.4 698.38597 132.0058 0 1 67.79475 -341.85396" />
    <path d="M -258.84973 -1235.2541 A 700 572.17951 132.0058 0 1 -120.87394 -1148.7687 A 700 572.17951 132.0058 0 1 -118.90326 -1146.98376" />
    <path d="M -60.53393 -1083.00047 A 700 572.17951 132.0058 0 1 -3.86319 -986.78939" />
    <path d="M 19.27285 -924.42601 A 700 572.17951 132.0058 0 1 26.0816 -899.68302" />
    <path d="M 41.17606 -807.90576 A 700 572.17951 132.0058 0 1 41.30349 -806.35696" />
    <path d="M 43.10027 -740.27213 A 700 572.17951 132.0058 0 1 17.70675 -572.98428" />
    <path d="M -13.83021 -481.95625 A 700 572.17951 132.0058 0 1 -191.26913 -216.95374" />
    <path d="M -210.49189 -198.09992 A 700 572.17951 132.0058 0 1 -256.52064 -157.42094" />
    <path d="M -479.51445 -27.29116 A 700 572.17951 132.0058 0 1 -645.41753 13.34439" />
    <path d="M -1070.51203 -120.38147 A 700 572.17951 132.0058 0 1 -1103.61889 -156.02924" />
    <path d="M -1221.72339 -484.21939 A 700 572.17951 132.0058 0 1 -1057.00537 -960.45924" />
    <path d="M -1040.25989 -981.54406 A 700 572.17951 132.0058 0 1 -476.78302 -1274.37314" />
    <path d="M -267.0395 -1238.53563 A 700 572.17951 132.0058 0 1 -258.84973 -1235.2541" />
    <path d="M -1141.83929 394.69756 L -1146.11995 395.56246" />
    <path d="M -958.3338 458.34496 L -958.3338 282.65649" />
    <path d="M -298.32139 487.71437 A 854.4 698.38597 132.0058 0 1 -81.68141 -82.09484" />
    <path d="M -64.5156 -102.80112 A 854.4 698.38597 132.0058 0 1 462.98892 -428.02644" />
    <path d="M 531.32968 -439.75939 A 854.4 698.38597 132.0058 0 1 1012.9291 -319.63553" />
    <path d="M 1068.28533 -270.74676 A 854.4 698.38597 132.0058 0 1 1245.92767 186.47456 L 1245.92767 197.32802" />
    <path d="M 1245.92767 186.47456 A 854.4 698.38597 132.0058 0 1 1019.76664 778.59812" />
    <path d="M 71.853 1197.79349 L 105.0024 1227.64741 L 346.03191 1178.94817 L 346.03191 949.21655" />
    <path d="M 105.0024 1227.64741 L 105.0024 997.91579" />
    <path d="M -17.84774 1047.43338 L -64.56682 1005.35878" />
    <path d="M -17.84774 1047.43338 L -33.18485 1035.18308 L -79.90392 993.10848" />
    <path d="M -56.19051 1093.5532 L -17.84774 1047.43338" />
    <path d="M -172.39911 1080.26364 L -105.18013 1140.80021" />
    <path d="M -182.17835 1061.71155 A 101.6 43.33937 180 0 0 -172.39911 1080.26364 L -172.39911 991.04017" />
    <path d="M 1097.15993 860.52244 L 1058.81716 829.89669 L 1012.09809 787.82208" />
    <path d="M 1074.15427 811.44876 L 1027.4352 769.37416 L 1019.76664 778.59812" />
    <path d="M 1074.15427 811.44876 L 1058.81716 829.89669" />
    <path d="M -326.14722 768.56578 A 854.4 698.38597 132.0058 0 1 -485.0458 401.04983" />
    <path d="M -488.5794 316.37042 A 854.4 698.38597 132.0058 0 1 -271.93942 -253.43879" />
    <path d="M -254.77361 -274.14507 A 854.4 698.38597 132.0058 0 1 272.73091 -599.37039" />
    <path d="M 345.85714 -611.69723 A 854.4 698.38597 132.0058 0 1 814.06627 -497.51188" />
    <path d="M -1245.41065 23.30604 L -1245.79701 23.77077" />
    <path d="M -71.52762 1081.3029 L -119.65373 1037.96113" />
    <path d="M -184.02431 979.9898 L -309.91174 866.61717" />
    <path d="M -356.53472 824.62911 L -418.29794 769.00594" />
    <path d="M -464.92092 727.01788 L -482.42216 711.25648" />
    <path d="M -529.04514 669.26842 L -563.84022 637.9324" />
    <path d="M -610.4632 595.94434 L -654.93257 555.89579" />
    <path d="M -701.55555 513.90773 L -709.38251 506.85887" />
    <path d="M -756.00549 464.8708 L -827.44298 400.5351" />
    <path d="M -901.54777 333.79727 L -999.9534 245.17441" />
    <path d="M -1047.09006 202.72373 L -1146.00936 113.63826" />
    <path d="M -1236.83439 31.84239 L -1245.79701 23.77077" />
    <path d="M -71.52762 1081.3029 L -33.18485 1035.18308" />
    <path d="M -288.93811 844.34906 L -308.45438 867.82381" />
    <path d="M -480.21134 711.55685 L -480.96479 712.46312" />
    <path d="M -650.25434 553.22828 L -653.47521 557.10243" />
    <path d="M -806.46935 378.26699 L -825.98562 401.74174" />
    <path d="M -978.97976 222.90629 L -998.49603 246.38105" />
    <path d="M 773.85433 -508.09385 A 854.4 698.38597 312.0058 0 0 754.94883 -536.12538" />
    <path d="M -498.65763 613.20509 A 854.4 698.38597 132.0058 0 1 -657.55622 245.68914" />
    <path d="M -661.08981 161.00973 A 854.4 698.38597 132.0058 0 1 -444.44984 -408.79949" />
    <path d="M -427.28403 -429.50576 A 854.4 698.38597 132.0058 0 1 100.2205 -754.73108" />
    <path d="M 173.34672 -767.05792 A 854.4 698.38597 132.0058 0 1 641.55586 -652.87257" />
    <path d="M 761.06882 -532.59099 A 854.4 698.38597 132.0058 0 1 778.92994 -506.90169" />
    <path d="M 666.51556 -524.32893 A 854.4 698.38597 312.0058 0 0 643.08607 -585.37144" />
    <path d="M 601.34391 -663.45454 A 854.4 698.38597 312.0058 0 0 582.43841 -691.48607" />
    <path d="M -671.16804 457.8444 A 854.4 698.38597 132.0058 0 1 -830.06663 90.32845" />
    <path d="M -833.60022 5.64903 A 854.4 698.38597 132.0058 0 1 -616.96025 -564.16018" />
    <path d="M -599.79444 -584.86646 A 854.4 698.38597 132.0058 0 1 -72.28991 -910.09178" />
    <path d="M 0.83631 -922.41861 A 854.4 698.38597 132.0058 0 1 469.04544 -808.23326" />
    <path d="M 588.55841 -687.95168 A 854.4 698.38597 132.0058 0 1 606.41953 -662.26238" />
    <path d="M 650.25115 -582.99751 A 854.4 698.38597 132.0058 0 1 673.89662 -523.73545" />
    <path d="M 525.34946 -522.01979 A 854.4 698.38597 312.0058 0 0 511.92506 -613.189" />
    <path d="M 494.00514 -679.68962 A 854.4 698.38597 312.0058 0 0 470.57565 -740.73213" />
    <path d="M 428.8335 -818.81523 A 854.4 698.38597 312.0058 0 0 409.928 -846.84676" />
    <path d="M -843.67846 302.4837 A 854.4 698.38597 132.0058 0 1 -1002.57704 -65.03224" />
    <path d="M -1006.11064 -149.71166 A 854.4 698.38597 132.0058 0 1 -789.47066 -719.52087" />
    <path d="M -772.30485 -740.22715 A 854.4 698.38597 132.0058 0 1 -244.80033 -1065.45247" />
    <path d="M -171.6741 -1077.7793 A 854.4 698.38597 132.0058 0 1 296.53503 -963.59395" />
    <path d="M 416.04799 -843.31237 A 854.4 698.38597 132.0058 0 1 433.90912 -817.62307" />
    <path d="M 477.74074 -738.35821 A 854.4 698.38597 132.0058 0 1 501.3862 -679.09614" />
    <path d="M 520.36076 -612.22594 A 854.4 698.38597 132.0058 0 1 534.7146 -522.95101" />
    <path d="M 344.29849 -483.02989 A 854.4 698.38597 312.0058 0 0 350.6259 -529.21916" />
    <path d="M 355.25642 -603.23236 A 854.4 698.38597 312.0058 0 0 355.34944 -612.78651" />
    <path d="M 352.83904 -677.38048 A 854.4 698.38597 312.0058 0 0 339.41465 -768.54969" />
    <path d="M 321.49473 -835.05032 A 854.4 698.38597 312.0058 0 0 298.06524 -896.09282" />
    <path d="M 256.32309 -974.17593 A 854.4 698.38597 312.0058 0 0 237.41759 -1002.20745" />
    <path d="M -1016.18887 147.12301 A 854.4 698.38597 132.0058 0 1 -1175.08745 -220.39293" />
    <path d="M -1178.62105 -305.07235 A 854.4 698.38597 132.0058 0 1 -961.98108 -874.88156" />
    <path d="M -944.81527 -895.58784 A 854.4 698.38597 132.0058 0 1 -417.31074 -1220.81316" />
    <path d="M -344.18452 -1233.14 A 854.4 698.38597 132.0058 0 1 124.02462 -1118.95464" />
    <path d="M 243.53758 -998.67306 A 854.4 698.38597 132.0058 0 1 261.39871 -972.98377" />
    <path d="M 305.23033 -893.7189 A 854.4 698.38597 132.0058 0 1 328.87579 -834.45683" />
    <path d="M 347.85035 -767.58663 A 854.4 698.38597 132.0058 0 1 362.20418 -678.3117" />
    <path d="M 365.5914 -613.82909 A 854.4 698.38597 132.0058 0 1 365.628 -606.31215 L 365.628 -595.4587 L 458.09421 -512.1848" />
    <path d="M 365.628 -606.31215 A 854.4 698.38597 132.0058 0 1 365.52999 -593.98011" />
    <path d="M 360.89947 -519.96691 A 854.4 698.38597 132.0058 0 1 356.64384 -486.95823" />
    <path d="M -656.98498 90.65393 L -651.05958 95.99027" />
    <path d="M -1232.8487 -272.41198 A 914.4 747.42992 312.0058 0 0 -1018.45582 229.1704 L -1029.24308 219.45554" />
    <path d="M -1018.45582 229.1704 A 914.4 747.42992 312.0058 0 0 -998.49603 246.38105" />
    <path d="M -1191.91859 -11.76154 A 854.4 698.38597 132.0058 0 1 -1347.59787 -375.75362" />
    <path d="M -1351.13146 -460.43304 A 854.4 698.38597 132.0058 0 1 -1134.49149 -1030.24225" />
    <path d="M -1117.32568 -1050.94853 A 854.4 698.38597 132.0058 0 1 -589.82115 -1376.17385" />
    <path d="M -516.69493 -1388.50069 A 854.4 698.38597 132.0058 0 1 -48.48579 -1274.31533" />
    <path d="M 71.02717 -1154.03376 A 854.4 698.38597 132.0058 0 1 88.88829 -1128.34446" />
    <path d="M 132.71991 -1049.07959 A 854.4 698.38597 132.0058 0 1 156.36538 -989.81753" />
    <path d="M 175.33993 -922.94732 A 854.4 698.38597 132.0058 0 1 189.69377 -833.67239" />
    <path d="M 193.08099 -769.18978 A 854.4 698.38597 132.0058 0 1 193.11759 -761.67285 L 193.11759 -750.81939" />
    <path d="M 193.11759 -761.67285 A 854.4 698.38597 132.0058 0 1 193.01958 -749.3408" />
    <path d="M 188.38906 -675.3276 A 854.4 698.38597 132.0058 0 1 184.13343 -642.31892" />
    <path d="M 170.25043 -570.38208 A 854.4 698.38597 132.0058 0 1 91.82527 -358.58848" />
    <path d="M -400.66514 -18.38339 L -410.5529 -27.28818" />
    <path d="M 1112.49704 842.07451 L 1065.73005 799.95676" />
    <path d="M 1112.49704 842.07451 L 1074.15427 811.44876" />
    <path d="M 1065.72764 799.95971 L 1027.4352 769.37416" />
    <path d="M 416.96916 -547.65465 A 914.4 747.42992 312.0058 0 0 417.08806 -549.11442" />
    <path d="M -710.51611 10.43662 A 700 572.17951 312.0058 0 0 -710.06659 10.42784" />
    <path d="M -643.84159 5.52572 A 700 572.17951 312.0058 0 0 -474.65243 -38.81696" />
    <path d="M -277.69086 -153.14356 A 700 572.17951 312.0058 0 0 -217.96591 -204.83093" />
    <path d="M -198.74316 -223.68475 A 700 572.17951 312.0058 0 0 -28.07202 -472.96309" />
    <path d="M 6.60297 -567.04043 A 700 572.17951 312.0058 0 0 35.3345 -737.97747" />
    <path d="M 34.4666 -804.45379 A 700 572.17951 312.0058 0 0 33.70203 -814.63677" />
    <path d="M 18.60758 -906.41403 A 700 572.17951 312.0058 0 0 13.92921 -923.89014" />
    <path d="M -8.16825 -986.26356 A 700 572.17951 312.0058 0 0 -63.05777 -1083.06847" />
    <path d="M -119.1315 -1146.97268 A 700 572.17951 312.0058 0 0 -124.62905 -1152.11412" />
    <path d="M -352.54904 520.37474 A 914.4 747.42992 312.0058 0 0 -138.15616 1021.95712 L -166.17733 996.72161 A 914.4 747.42992 132.0058 0 1 -380.57021 495.13923" />
    <path d="M -138.15616 1021.95712 A 914.4 747.42992 312.0058 0 0 -118.19637 1039.16777" />
    <path d="M -118.19878 -114.98191 A 914.4 747.42992 312.0058 0 0 -352.55009 498.5884" />
    <path d="M -298.39639 487.64682 L -352.55009 498.5884" />
    <path d="M 462.92066 -482.28401 L 462.92066 -428.08791" />
    <path d="M 462.92066 -482.28401 A 914.4 747.42992 312.0058 0 0 -102.85926 -133.4328" />
    <path d="M -64.56682 -102.84724 L -102.85926 -133.4328" />
    <path d="M 1050.39054 -366.44323 L 1012.09809 -320.38393" />
    <path d="M 1050.39054 -366.44323 A 914.4 747.42992 312.0058 0 0 484.67598 -486.67874" />
    <path d="M 1245.92767 175.6211 L 1245.92767 186.47456" />
    <path d="M 1300.08136 164.67951 L 1245.92767 175.6211" />
    <path d="M 1300.08136 164.67951 A 914.4 747.42992 312.0058 0 0 1112.11068 -311.71412" />
    <path d="M 1103.53442 -320.25047 A 914.4 747.42992 312.0058 0 0 1085.68744 -336.98228 L 1057.66627 -362.21779" />
    <path d="M 1085.68744 -336.98228 A 914.4 747.42992 312.0058 0 0 1067.18501 -352.98629" />
    <path d="M 1065.72764 799.95971 A 914.4 747.42992 312.0058 0 0 1297.79942 238.36154" />
    <path d="M 110.42488 1002.24693 L 340.60942 955.73888" />
    <path d="M 110.42488 1002.24693 L 110.42488 1221.12509 L 111.10979 1221.7419 L 341.29433 1175.23386 L 341.29433 956.3557 L 340.60942 955.73888" />
    <path d="M 279.46306 1222.27742 A 12.5 5.33211 180 0 0 304.46306 1222.27742 L 304.46306 1187.34703" />
    <path d="M 98.71352 1258.79728 A 12.5 5.33211 180 0 0 123.71352 1258.79728 L 123.71352 1223.86689" />
    <path d="M -56.19051 1093.5532 L -71.52762 1081.3029" />
    <path d="M 1039.16384 -378.2218 A 914.4 747.42992 132.0058 0 1 1057.66627 -362.21779" />
    <path d="M 456.65481 -511.91425 A 914.4 747.42992 132.0058 0 1 1022.36937 -391.67874 L 1050.39054 -366.44323" />
    <path d="M -130.88043 -158.66831 A 914.4 747.42992 132.0058 0 1 434.89949 -507.51952 L 462.92066 -482.28401" />
    <path d="M -380.57126 473.35289 A 914.4 747.42992 132.0058 0 1 -146.21995 -140.21743" />
    <path d="M 1112.49704 842.07451 L 1097.15993 860.52244" />
    <path d="M -542.80705 349.03079 A 914.4 747.42992 312.0058 0 0 -328.41417 850.61317 L -338.68774 841.36092 A 914.4 747.42992 132.0058 0 1 -553.08062 339.77854" />
    <path d="M -328.41417 850.61317 A 914.4 747.42992 312.0058 0 0 -308.45438 867.82381" />
    <path d="M 866.65343 -533.58249 A 914.4 747.42992 132.0058 0 1 885.15585 -517.57848" />
    <path d="M 284.1444 -667.27494 A 914.4 747.42992 132.0058 0 1 849.85895 -547.03943 L 860.13253 -537.78718 L 824.10515 -494.45238" />
    <path d="M -303.39085 -314.029 A 914.4 747.42992 132.0058 0 1 262.38908 -662.88021 L 272.66265 -653.62796 L 272.66265 -599.43187" />
    <path d="M -553.08167 317.9922 A 914.4 747.42992 132.0058 0 1 -318.73036 -295.57812" />
    <path d="M -308.45679 -286.32587 A 914.4 747.42992 312.0058 0 0 -542.8081 327.24445" />
    <path d="M -488.6544 316.30287 L -542.8081 327.24445" />
    <path d="M 272.66265 -653.62796 A 914.4 747.42992 312.0058 0 0 -293.11727 -304.77675" />
    <path d="M -254.82483 -274.19119 L -293.11727 -304.77675" />
    <path d="M 860.13253 -537.78718 A 914.4 747.42992 312.0058 0 0 294.41797 -658.02269" />
    <path d="M 913.2764 -491.59442 A 914.4 747.42992 312.0058 0 0 895.42943 -508.32623 L 885.15585 -517.57848" />
    <path d="M 895.42943 -508.32623 A 914.4 747.42992 312.0058 0 0 876.927 -524.33024" />
    <path d="M -1405.35912 -427.77267 A 914.4 747.42992 312.0058 0 0 -1190.96624 73.80971 L -1218.98741 48.5742 A 914.4 747.42992 132.0058 0 1 -1433.38029 -453.00818" />
    <path d="M -1190.96624 73.80971 A 914.4 747.42992 312.0058 0 0 -1182.81087 81.02376" />
    <path d="M -715.31746 193.67009 A 914.4 747.42992 312.0058 0 0 -500.92458 695.25248 L -511.19816 686.00023 A 914.4 747.42992 132.0058 0 1 -725.59104 184.41785" />
    <path d="M -500.92458 695.25248 A 914.4 747.42992 312.0058 0 0 -480.96479 712.46312" />
    <path d="M -887.82788 38.3094 A 914.4 747.42992 312.0058 0 0 -673.435 539.89178 L -683.70857 530.63954 A 914.4 747.42992 132.0058 0 1 -898.10145 29.05715" />
    <path d="M -673.435 539.89178 A 914.4 747.42992 312.0058 0 0 -653.47521 557.10243" />
    <path d="M -1060.33829 -117.05129 A 914.4 747.42992 312.0058 0 0 -845.94541 384.53109 L -856.21898 375.27884 A 914.4 747.42992 132.0058 0 1 -1070.61186 -126.30354" />
    <path d="M -845.94541 384.53109 A 914.4 747.42992 312.0058 0 0 -825.98562 401.74174" />
    <path d="M 694.14301 -688.94318 A 914.4 747.42992 132.0058 0 1 712.64544 -672.93917" />
    <path d="M 111.63398 -822.63563 A 914.4 747.42992 132.0058 0 1 677.34854 -702.40012 L 687.62211 -693.14787 L 651.59474 -649.81308" />
    <path d="M -475.90126 -469.38969 A 914.4 747.42992 132.0058 0 1 89.87867 -818.2409 L 100.15224 -808.98865 L 100.15224 -754.79256 L 215.03536 -651.33027" />
    <path d="M -725.59209 162.63151 A 914.4 747.42992 132.0058 0 1 -491.24077 -450.93881" />
    <path d="M -480.9672 -441.68656 A 914.4 747.42992 312.0058 0 0 -715.31851 171.88376" />
    <path d="M -661.16482 160.94218 L -715.31851 171.88376" />
    <path d="M 100.15224 -808.98865 A 914.4 747.42992 312.0058 0 0 -465.62769 -460.13744" />
    <path d="M -427.33524 -429.55189 L -465.62769 -460.13744" />
    <path d="M 687.62211 -693.14787 A 914.4 747.42992 312.0058 0 0 121.90756 -813.38338" />
    <path d="M 740.76599 -646.95512 A 914.4 747.42992 312.0058 0 0 722.91901 -663.68692 L 712.64544 -672.93917" />
    <path d="M 722.91901 -663.68692 A 914.4 747.42992 312.0058 0 0 704.41658 -679.69093" />
    <path d="M 521.6326 -844.30387 A 914.4 747.42992 132.0058 0 1 540.13503 -828.29986" />
    <path d="M -60.87643 -977.99632 A 914.4 747.42992 132.0058 0 1 504.83813 -857.76081 L 515.1117 -848.50856 L 479.08433 -805.17377" />
    <path d="M -648.41167 -624.75038 A 914.4 747.42992 132.0058 0 1 -82.63174 -973.60159 L -72.35817 -964.34934 L -72.35817 -910.15325" />
    <path d="M -898.1025 7.27082 A 914.4 747.42992 132.0058 0 1 -663.75119 -606.2995" />
    <path d="M -653.47761 -597.04725 A 914.4 747.42992 312.0058 0 0 -887.82893 16.52307" />
    <path d="M -833.67523 5.58149 L -887.82893 16.52307" />
    <path d="M -72.35817 -964.34934 A 914.4 747.42992 312.0058 0 0 -638.1381 -615.49814" />
    <path d="M -599.84565 -584.91258 L -638.1381 -615.49814" />
    <path d="M 515.1117 -848.50856 A 914.4 747.42992 312.0058 0 0 -50.60286 -968.74407" />
    <path d="M 736.50611 -515.64684 A 914.4 747.42992 312.0058 0 0 725.09791 -552.00326" />
    <path d="M 568.25558 -802.31581 A 914.4 747.42992 312.0058 0 0 550.4086 -819.04761 L 540.13503 -828.29986" />
    <path d="M 550.4086 -819.04761 A 914.4 747.42992 312.0058 0 0 531.90617 -835.05162" />
    <path d="M 349.12219 -999.66456 A 914.4 747.42992 132.0058 0 1 367.62461 -983.66056" />
    <path d="M -233.38684 -1133.35701 A 914.4 747.42992 132.0058 0 1 332.32771 -1013.1215 L 342.60129 -1003.86925 L 306.57391 -960.53446" />
    <path d="M -820.92209 -780.11108 A 914.4 747.42992 132.0058 0 1 -255.14216 -1128.96228 L -244.86858 -1119.71003 L -244.86858 -1065.51394 L -129.98546 -962.05166" />
    <path d="M -1070.61291 -148.08987 A 914.4 747.42992 132.0058 0 1 -836.2616 -761.66019" />
    <path d="M -825.98803 -752.40794 A 914.4 747.42992 312.0058 0 0 -1060.33934 -138.83762" />
    <path d="M -1006.18564 -149.77921 L -1060.33934 -138.83762" />
    <path d="M -244.86858 -1119.71003 A 914.4 747.42992 312.0058 0 0 -810.64851 -770.85883" />
    <path d="M -772.35607 -740.27327 L -810.64851 -770.85883" />
    <path d="M 342.60129 -1003.86925 A 914.4 747.42992 312.0058 0 0 -223.11327 -1124.10476" />
    <path d="M 589.82022 -526.22576 A 914.4 747.42992 312.0058 0 0 579.93233 -602.30469" />
    <path d="M 563.9957 -671.00753 A 914.4 747.42992 312.0058 0 0 552.5875 -707.36395" />
    <path d="M 395.74517 -957.6765 A 914.4 747.42992 312.0058 0 0 377.89819 -974.40831 L 367.62461 -983.66056" />
    <path d="M 377.89819 -974.40831 A 914.4 747.42992 312.0058 0 0 359.39576 -990.41231" />
    <path d="M 176.61177 -1155.02525 A 914.4 747.42992 132.0058 0 1 195.1142 -1139.02125" />
    <path d="M -405.89725 -1288.71771 A 914.4 747.42992 132.0058 0 1 159.8173 -1168.48219 L 170.09087 -1159.22994 L 134.0635 -1115.89515" />
    <path d="M -993.4325 -935.47177 A 914.4 747.42992 132.0058 0 1 -427.65257 -1284.32297 L -417.379 -1275.07073 L -417.379 -1220.87463" />
    <path d="M -1243.12332 -303.45057 A 914.4 747.42992 132.0058 0 1 -1008.77201 -917.02088" />
    <path d="M -998.49844 -907.76863 A 914.4 747.42992 312.0058 0 0 -1232.84975 -294.19832" />
    <path d="M -1178.69605 -305.1399 L -1232.84975 -294.19832" />
    <path d="M -417.379 -1275.07073 A 914.4 747.42992 312.0058 0 0 -983.15893 -926.21952" />
    <path d="M -944.86648 -895.63396 L -983.15893 -926.21952" />
    <path d="M 170.09087 -1159.22994 A 914.4 747.42992 312.0058 0 0 -395.62368 -1279.46546" />
    <path d="M 365.628 -613.83257 L 365.628 -606.31215" />
    <path d="M 417.30981 -681.58645 A 914.4 747.42992 312.0058 0 0 407.42192 -757.66538" />
    <path d="M 391.48529 -826.36822 A 914.4 747.42992 312.0058 0 0 380.07708 -862.72464" />
    <path d="M 223.23475 -1113.03719 A 914.4 747.42992 312.0058 0 0 205.38777 -1129.769 L 195.1142 -1139.02125" />
    <path d="M 205.38777 -1129.769 A 914.4 747.42992 312.0058 0 0 186.88535 -1145.773" />
    <path d="M -305.90218 562.38431 L -1480.17157 -495.14782 L -1480.17157 -516.85474" />
    <path d="M -305.90218 562.38431 L -251.67732 551.42835 L -251.67732 529.72143 L -298.39639 487.64682" />
    <path d="M -1171.00885 -1063.12932 A 914.4 747.42992 312.0058 0 0 -1405.36016 -449.55901 L -1433.38134 -474.79452 A 914.4 747.42992 132.0058 0 1 -1199.03002 -1088.36483" />
    <path d="M -1351.20647 -460.50059 L -1405.36016 -449.55901" />
    <path d="M -589.88941 -1430.43142 L -589.88941 -1376.23532 L -475.00629 -1272.77304" />
    <path d="M -589.88941 -1430.43142 A 914.4 747.42992 312.0058 0 0 -1155.66934 -1081.58021 L -1183.69051 -1106.81572 A 914.4 747.42992 132.0058 0 1 -617.91058 -1455.66693 L -589.88941 -1430.43142 Z" />
    <path d="M -1117.37689 -1050.99465 L -1155.66934 -1081.58021" />
    <path d="M -2.41954 -1314.59063 L -38.44691 -1271.25584" />
    <path d="M -2.41954 -1314.59063 A 914.4 747.42992 312.0058 0 0 -568.13409 -1434.82615" />
    <path d="M 193.11759 -769.19326 L 193.11759 -761.67285" />
    <path d="M 244.79939 -836.94715 A 914.4 747.42992 312.0058 0 0 234.91151 -913.02607" />
    <path d="M 218.97487 -981.72891 A 914.4 747.42992 312.0058 0 0 207.56667 -1018.08534" />
    <path d="M 50.72434 -1268.39788 A 914.4 747.42992 312.0058 0 0 32.87736 -1285.12969 L 4.85619 -1310.3652" />
    <path d="M 32.87736 -1285.12969 A 914.4 747.42992 312.0058 0 0 14.37493 -1301.1337" />
    <path d="M 169.44537 -406.36113 A 914.4 747.42992 312.0058 0 0 227.45382 -588.25872" />
    <path d="M 244.45874 -703.01534 A 914.4 747.42992 312.0058 0 0 244.57765 -704.47511" />
    <path d="M 1346.8716 228.44667 L 1292.64674 239.40263 L 1245.92767 197.32802" />
    <path d="M 355.27942 -604.7785 L 347.39244 -611.88142" />
    <path d="M 285.5838 -667.54549 L 193.11759 -750.81939" />
    <path d="M -13.64624 -1326.36921 A 914.4 747.42992 132.0058 0 1 4.85619 -1310.3652" />
    <path d="M -596.15526 -1460.06166 A 914.4 747.42992 132.0058 0 1 -30.44071 -1339.82615 L -2.41954 -1314.59063" />
    <path d="M -33.18485 -42.32471 L -17.84774 -60.77264 L -64.56682 -102.84724" />
    <path d="M -71.52762 -72.95046 L -1245.79701 -1130.48259 L -1230.4599 -1148.93052" />
    <path d="M -71.52762 -72.95046 L -33.18485 -42.32471" />
    <path d="M -380.57126 473.35289 L -352.55009 498.5884" />
    <path d="M -1431.09939 -526.76962 L -1480.17157 -516.85474" />
    <path d="M -305.90218 540.67739 L -1480.17157 -516.85474" />
    <path d="M -305.90218 540.67739 L -251.67732 529.72143" />
    <path d="M -488.6544 316.30287 L -377.87762 416.06703" />
    <path d="M -553.08167 317.9922 L -542.8081 327.24445" />
    <path d="M -550.38803 260.70634 L -661.16482 160.94218" />
    <path d="M -725.59209 162.63151 L -715.31851 171.88376" />
    <path d="M -833.67523 5.58149 L -722.89845 105.34565" />
    <path d="M -898.1025 7.27082 L -887.82893 16.52307" />
    <path d="M -895.40886 -50.01504 L -1006.18564 -149.77921" />
    <path d="M -1070.61291 -148.08987 L -1060.33934 -138.83762" />
    <path d="M -1178.69605 -305.1399 L -1067.91927 -205.37573" />
    <path d="M -1243.12332 -303.45057 L -1232.84975 -294.19832" />
    <path d="M -1240.42969 -360.73642 L -1351.20647 -460.50059" />
    <path d="M 509.63974 -386.01331 L 462.92066 -428.08791" />
    <path d="M 509.63974 -386.01331 L 531.32968 -390.39569" />
    <path d="M -664.62965 -1444.28982 L -664.62965 -1497.81275 L -642.93971 -1502.19514" />
    <path d="M 509.63974 -440.28062 L -664.62965 -1497.81275" />
    <path d="M 509.63974 -440.28062 L 509.63974 -386.01331" />
    <path d="M 387.54578 -495.96958 L 272.66265 -599.43187" />
    <path d="M 42.52495 -806.69097 L -72.35817 -910.15325" />
    <path d="M -302.49587 -1117.41235 L -417.379 -1220.87463" />
    <path d="M -130.88043 -158.66831 L -102.85926 -133.4328" />
    <path d="M -1181.81038 -1109.02264 L -1192.11714 -1118.30477 L -1230.4599 -1148.93052" />
    <path d="M -56.19051 -91.39839 L -1230.4599 -1148.93052" />
    <path d="M -56.19051 -91.39839 L -17.84774 -60.77264" />
    <path d="M -254.82483 -274.19119 L -129.00031 -160.87523" />
    <path d="M -303.39085 -314.029 L -293.11727 -304.77675" />
    <path d="M -301.51072 -316.23592 L -427.33524 -429.55189" />
    <path d="M -475.90126 -469.38969 L -465.62769 -460.13744" />
    <path d="M -599.84565 -584.91258 L -474.02113 -471.59661" />
    <path d="M -648.41167 -624.75038 L -638.1381 -615.49814" />
    <path d="M -646.53155 -626.9573 L -772.35607 -740.27327" />
    <path d="M -820.92209 -780.11108 L -810.64851 -770.85883" />
    <path d="M -944.86648 -895.63396 L -819.04196 -782.31799" />
    <path d="M -993.4325 -935.47177 L -983.15893 -926.21952" />
    <path d="M -991.55237 -937.67868 L -1117.37689 -1050.99465" />
    <path d="M 1058.81716 -278.30933 L 1012.09809 -320.38393" />
    <path d="M 1058.81716 -278.30933 L 1074.15427 -266.05903" />
    <path d="M -82.2505 -1375.77749 L -77.10946 -1381.96128 L -61.77235 -1369.71098" />
    <path d="M 1097.15993 -324.42915 L -77.10946 -1381.96128" />
    <path d="M 1097.15993 -324.42915 L 1058.81716 -278.30933" />
    <path d="M 531.32968 -444.66301 L -642.93971 -1502.19514" />
    <path d="M 531.32968 -444.66301 L 531.32968 -390.39569" />
    <path d="M 1292.64674 217.6957 L 1245.92767 175.6211" />
    <path d="M 1292.64674 217.6957 L 1292.64674 239.40263" />
    <path d="M 1346.8716 206.73974 L 1300.08032 164.6001" />
    <path d="M 524.25624 -534.09722 L 431.97841 -617.20147" />
    <path d="M 351.74583 -689.45791 L 259.468 -772.56216" />
    <path d="M 1346.8716 206.73974 L 1292.64674 217.6957" />
    <path d="M 478.27836 -515.71414 L 368.98327 -614.14391" />
    <path d="M 196.47286 -769.5046 L 305.76795 -671.07483" />
    <path d="M 1112.49704 -312.17885 L -61.77235 -1369.71098" />
    <path d="M 1112.49704 -312.17885 L 1074.15427 -266.05903" />
    <path d="M 111.10979 1002.86374 L 341.29433 956.3557" />
    <path d="M 110.42488 1002.24693 L 111.10979 1002.86374" />
    <path d="M 111.10979 1221.7419 L 111.10979 1002.86374" />
    <path d="M -305.90218 562.38431 L -305.90218 540.67739" />
    <path d="M 1346.8716 206.73974 L 1346.8716 228.44667" />
    <path d="M -71.52762 -72.95046 L -56.19051 -91.39839" />
    <path d="M 509.63974 -440.28062 L 531.32968 -444.66301" />
    <path d="M 1097.15993 -324.42915 L 1112.49704 -312.17885" />
    <path d="M 158.42098 1147.06205 L 158.42098 1201.32937 L 159.91921 1202.67865 L 295.48136 1175.28875 L 295.48136 1121.02144 L 159.91921 1148.41134 L 159.91921 1202.67865" />
    <path d="M 293.98313 1119.67215 L 158.42098 1147.06205 L 159.91921 1148.41134" />
    <path d="M 293.98313 1119.67215 L 295.48136 1121.02144" />
    <path d="M -643.52768 916.68763 L -786.99763 945.67527 L -861.9091 604.06254 L -1011.73204 469.1339 L -1086.64351 675.81799 L -786.99763 945.67527" />
    <path d="M -718.43915 575.0749 L -861.9091 604.06254" />
    <path d="M -643.52768 916.68763 L -718.43915 575.0749 L -868.26209 440.14626 L -1011.73204 469.1339" />
    <path d="M -50.2459 -441.55715 A 3.5 2.8609 312.0058 0 0 -49.84878 -437.92706 L -46.25588 -434.69134" />
    <path d="M -45.16434 -443.1286 A 3.5 2.8609 312.0058 0 0 -50.2459 -441.55715" />
    <path d="M -728.50648 -17.86171 A 690.9233 564.76022 312.0058 0 0 -704.01399 -18.9385" />
    <path d="M -636.48772 -26.99227 A 690.9233 564.76022 312.0058 0 0 -452.8437 -86.33786" />
    <path d="M -346.99759 -147.56877 A 690.9233 564.76022 312.0058 0 0 -245.56681 -229.68795" />
    <path d="M -226.32769 -248.52703 A 690.9233 564.76022 312.0058 0 0 -90.08571 -429.6701" />
    <path d="M -38.89129 -540.81907 A 690.9233 564.76022 312.0058 0 0 3.29471 -727.66874" />
    <path d="M 5.40047 -795.72311 A 690.9233 564.76022 312.0058 0 0 2.48542 -842.75006" />
    <path d="M -30.42008 -983.1852 A 690.9233 564.76022 312.0058 0 0 -82.32129 -1083.29563" />
    <path d="M -133.23338 -1146.16159 A 690.9233 564.76022 312.0058 0 0 -225.98375 -1220.31153" />
    <path d="M 396.12289 -172.95997 L 401.68774 -167.94833" />
    <path d="M 929.15815 -335.30866 L 923.5933 -340.32029" />
    <path d="M 370.24467 558.62865 L 364.67981 553.61701" />
    <path d="M -436.80037 753.00193 L -447.07394 743.74968" />
    <path d="M -582.34265 621.9284 L -592.61622 612.67615" />
    <path d="M -727.88493 490.85486 L -738.15851 481.60261" />
    <path d="M -438.59672 243.20162 L -448.87029 233.94937" />
    <path d="M -873.42722 359.78133 L -883.70079 350.52908" />
    <path d="M -729.68128 -18.94546 L -739.95486 -28.1977" />
    <path d="M 279.46306 1222.27742 L 279.46306 1192.3982" />
    <path d="M 98.71352 1258.79728 L 98.71352 1221.98373" />
    <path d="M -182.17835 981.7836 L -182.17835 1061.71155" />
    <path d="M -45.16434 -443.1286 L -42.99911 -441.17863" />
</svg>