<svg version="1.1" xmlns="http://www.w3.org/2000/svg" viewBox="-1425.3703301771116 -1523.4591588549183 2341.93039239079 3051.6804080587453" fill="none" stroke="black" stroke-width="0.6%" vector-effect="non-scaling-stroke">
    <path d="M -1367.61776 -952.39938 L -1371.98504 -956.44191 A 765 614.79013 132.78861 0 1 -999.53965 -1407.55175" />
    <path d="M -1253.65229 -270.19697 A 765 614.79013 132.78861 0 1 -1371.98504 -956.44191" />
    <path d="M -1249.28502 -266.15444 A 765 614.79013 132.78861 0 1 -1367.61776 -952.39938 A 765 614.79013 132.78861 0 1 -995.17238 -1403.50922 L -999.53965 -1407.55175" />
    <path d="M -96.00968 -1229.81042 L -150.03225 -1195.80355 L -154.39952 -1199.84608" />
    <path d="M -258.4972 -1345.2953 A 700 562.55306 132.78861 0 1 -154.39952 -1199.84608" />
    <path d="M -472.82234 -1522.45916 L -495.19922 -1463.9302" />
    <path d="M -468.45507 -1518.41663 A 765 614.79013 132.78861 0 1 -212.15271 -1390.98244 A 765 614.79013 132.78861 0 1 -96.00968 -1229.81042" />
    <path d="M -468.45507 -1518.41663 L -472.82234 -1522.45916" />
    <path d="M -490.83195 -1459.88767 L -468.45507 -1518.41663" />
    <path d="M -490.83195 -1459.88767 A 700 562.55306 132.78861 0 1 -256.30691 -1343.28122 A 700 562.55306 132.78861 0 1 -150.03225 -1195.80355" />
    <path d="M -490.83195 -1459.88767 L -495.19922 -1463.9302" />
    <path d="M 174.11896 789.87319 L 174.11896 754.40668" />
    <path d="M -55.00761 804.3924 L 174.11896 754.40668" />
    <path d="M -55.00761 804.3924 L -55.00761 1020.58176 L 14.8251 1085.22178 L 243.95167 1035.23607 L 212.75186 1006.35625 L 212.75186 790.16689 L 205.1266 783.10863 L -23.99996 833.09435 L -23.99996 1049.28371 L -16.3747 1056.34196 L 86.81898 1033.82947" />
    <path d="M -55.00761 1020.58176 L -23.99996 1013.8172" />
    <path d="M 243.95167 819.0467 L 174.11896 754.40668" />
    <path d="M 243.95167 1035.23607 L 243.95167 819.0467" />
    <path d="M 90.70585 1008.81373 L 90.70585 1053.48096" />
    <path d="M 99.70179 1006.8512 L 90.70585 1008.81373" />
    <path d="M 122.19164 1001.94487 L 113.1957 1003.9074 L 113.1957 1048.57463" />
    <path d="M 144.68148 997.03854 L 135.68554 999.00107 L 135.68554 1043.66829" />
    <path d="M 167.17133 992.1322 L 158.17539 994.09474 L 158.17539 1038.76196" />
    <path d="M 95.81491 1003.25335 L 99.70179 1006.8512" />
    <path d="M 86.81898 1049.88311 L 90.70585 1053.48096" />
    <path d="M 86.81898 1005.21588 L 86.81898 1049.88311" />
    <path d="M 86.81898 1005.21588 L 90.70585 1008.81373" />
    <path d="M 95.81491 1003.25335 L 86.81898 1005.21588" />
    <path d="M 118.30476 998.34702 L 122.19164 1001.94487" />
    <path d="M 109.30882 1044.97678 L 113.1957 1048.57463" />
    <path d="M 118.30476 998.34702 L 109.30882 1000.30955 L 109.30882 1044.97678" />
    <path d="M 109.30882 1000.30955 L 113.1957 1003.9074" />
    <path d="M 140.79461 993.44069 L 144.68148 997.03854" />
    <path d="M 131.79867 1040.07044 L 135.68554 1043.66829" />
    <path d="M 140.79461 993.44069 L 131.79867 995.40322 L 131.79867 1040.07044" />
    <path d="M 131.79867 995.40322 L 135.68554 999.00107" />
    <path d="M 163.28446 988.53435 L 167.17133 992.1322" />
    <path d="M 154.28852 1035.16411 L 158.17539 1038.76196" />
    <path d="M 163.28446 988.53435 L 154.28852 990.49689 L 154.28852 1035.16411" />
    <path d="M 154.28852 990.49689 L 158.17539 994.09474" />
    <path d="M 874.69347 1063.17777 L 878.43382 1066.63999 L 915.56006 1058.54061 L 915.56006 984.79503 L 878.43382 992.8944 L 878.43382 1066.63999" />
    <path d="M 876.35063 990.96612 L 878.43382 992.8944" />
    <path d="M 876.35063 990.96612 L 876.35063 990.97058" />
    <path d="M 878.4229 1062.36416 L 878.4229 997.15002 L 872.6251 991.78334" />
    <path d="M 908.04782 977.84139 L 915.56006 984.79503" />
    <path d="M 908.04782 984.05113 L 876.35063 990.96612" />
    <path d="M -157.03987 1216.40816 L -188.73706 1223.32315 L -761.71673 692.94967" />
    <path d="M -188.73706 1223.32315 L -188.73706 1207.24741 L -766.25408 672.67398" />
    <path d="M 908.04782 967.9754 L -188.73706 1207.24741" />
    <path d="M 908.04782 984.05113 L 908.04782 967.9754 L -156.86826 -17.75459 L -1253.65314 221.51743" />
    <path d="M -157.03987 1216.41263 L 876.35063 990.97058" />
    <path d="M -1253.65314 237.59316 L -1253.65314 221.51743" />
    <path d="M -154.9676 1287.80621 L -102.25857 1276.30733" />
    <path d="M 722.29629 1527.22125 L -102.25857 1276.30733" />
    <path d="M 733.86088 1519.54696 L 722.29629 1527.22125 L 722.29629 1462.0071 L 733.86088 1454.33281 L 733.86088 1519.54696 Z" />
    <path d="M 754.43298 1520.21038 L 733.86088 1519.54696" />
    <path d="M 754.43298 1520.21038 L 825.71388 1073.86304 L 825.71388 1008.64889 L 878.4229 997.15002" />
    <path d="M 825.71388 1073.86304 L 878.4229 1062.36416" />
    <path d="M 65.41168 1239.72878 L 772.07444 1085.56489" />
    <path d="M 754.43298 1454.99624 L 825.71388 1008.64889" />
    <path d="M 733.86088 1454.33281 L 754.43298 1454.99624 L 754.43298 1520.21038" />
    <path d="M 722.29629 1462.0071 L -102.25857 1211.09318 L -102.25857 1276.30733" />
    <path d="M -154.9676 1222.59206 L -102.25857 1211.09318" />
    <path d="M -59.40966 1201.74536 L 782.86496 1017.99671" />
    <path d="M 715.84588 1437.65739 L -59.40966 1201.74536" />
    <path d="M 715.84588 1437.65739 L 782.86496 1017.99671" />
    <path d="M -1253.65314 235.2154 L -1261.16101 236.8533 L -1261.16101 310.59889 L -1156.26088 407.69875" />
    <path d="M -1261.16101 236.8533 L -1135.44634 353.21996" />
    <path d="M -759.96405 700.78176 L -192.08292 1226.43582 L -192.08292 1300.18141 L -154.95668 1292.08203 L -154.95668 1218.33645 L -192.08292 1226.43582" />
    <path d="M -157.03987 1216.40816 L -154.95668 1218.33645" />
    <path d="M -1133.69365 348.63258 L -1253.65314 237.59316" />
    <path d="M -1129.15631 336.75679 L -1253.65314 221.51743" />
    <path d="M -769.25814 765.92435 L -192.08292 1300.18141" />
    <path d="M 215.28299 18.10621 L 358.09352 -13.049 L 510.94811 128.43947 L 587.3754 469.96436" />
    <path d="M 138.8557 218.14262 L 215.28299 18.10621 L 368.13758 159.59468 L 444.56487 501.11957 L 138.8557 218.14262 Z" />
    <path d="M 368.13758 159.59468 L 510.94811 128.43947" />
    <path d="M 444.56487 501.11957 L 587.3754 469.96436" />
    <path d="M -746.49745 760.95893 L -889.30798 792.11414 L -965.73527 450.58925 L -1118.58986 309.10078 L -1195.01716 509.13719 L -889.30798 792.11414" />
    <path d="M -822.92474 419.43404 L -965.73527 450.58925" />
    <path d="M -746.49745 760.95893 L -822.92474 419.43404 L -975.77933 277.94557 L -1118.58986 309.10078" />
    <path d="M -995.17238 -1403.50922 L -972.7955 -1354.74363" />
    <path d="M -1367.61776 -952.39938 L -1371.98504 -956.44191" />
    <path d="M -1177.08998 -1174.61831 A 700 562.55306 132.78861 0 1 -972.7955 -1354.74363" />
    <path d="M -1205.13025 -313.85627 A 700 562.55306 312.78861 0 0 -731.81372 -204.23466" />
    <path d="M -1177.08998 -1174.61831 L -1218.43707 -1206.65797" />
    <path d="M -1251.47474 -268.16913 A 765 614.79013 132.78861 0 1 -1218.43707 -1206.65797" />
    <path d="M -727.44645 -200.19213 L -731.81372 -204.23466" />
    <path d="M -1172.72271 -1170.57578 A 700 562.55306 312.78861 0 0 -1202.95326 -311.82782 A 700 562.55306 312.78861 0 0 -727.44645 -200.19213 L -727.44645 -142.12474 A 765 614.79013 132.78861 0 1 -1247.10746 -264.1266 L -1251.47474 -268.16913" />
    <path d="M -1172.72271 -1170.57578 L -1177.08998 -1174.61831" />
    <path d="M -1247.10746 -264.1266 A 765 614.79013 132.78861 0 1 -1214.06979 -1202.61545 L -1172.72271 -1170.57578" />
    <path d="M -1214.06979 -1202.61545 L -1218.43707 -1206.65797" />
    <path d="M -16.3747 840.1526 L -16.3747 1056.34196" />
    <path d="M -16.3747 840.1526 L 212.75186 790.16689" />
    <path d="M 90.70585 1032.98152 L 109.30882 1028.92314" />
    <path d="M 113.1957 1028.07519 L 131.79867 1024.01681" />
    <path d="M 135.68554 1023.16885 L 154.28852 1019.11047" />
    <path d="M 158.17539 1018.26252 L 212.75186 1006.35625" />
    <path d="M -23.99996 833.09435 L -16.3747 840.1526" />
    <path d="M -212.15271 -1390.98244 L -216.51998 -1395.02496" />
</svg>