<svg version="1.1" xmlns="http://www.w3.org/2000/svg" viewBox="-1481.1292474702468 -1503.1769612411797 2828.9883180674306 3158.6155173831953" fill="none" stroke="black" stroke-width="0.6%" vector-effect="non-scaling-stroke">
    <path d="M 972.43002 1214.64496 L 976.35751 1218.18214 L 1013.65575 1210.64713 L 1013.65575 1137.87392" />
    <path d="M 976.35751 1145.40893 L 976.35751 1218.18214" />
    <path d="M 976.34681 1213.85369 L 976.34681 1147.82779 L 974.15508 1145.85387" />
    <path d="M -80.94548 1354.86438 L -95.70624 1357.84636 L -95.70624 1341.57052 L -93.3392 1343.70233" />
    <path d="M -22.9637 1343.15539 L 966.69899 1143.22305" />
    <path d="M -410.88747 254.38982 L -426.54465 257.55289" />
    <path d="M -884.25437 350.01972 L -903.20326 353.84779" />
    <path d="M -968.21547 366.9816 L -1049.24925 383.3521" />
    <path d="M -1139.43 417.84631 L -1139.43 401.57048 L -1141.79704 399.43867 L -1141.79704 390.63371 L -1146.0774 386.77872 L -1146.0774 395.58368 L -1157.94685 384.8938 L -1157.94685 103.44308" />
    <path d="M -61.83117 1423.58712 L -8.87796 1412.88947" />
    <path d="M 810.25676 1654.43856 L -8.87796 1412.88947" />
    <path d="M 821.98542 1647.20192 L 810.25676 1654.43856 L 810.25676 1588.41265 L 821.98542 1581.17602 L 842.54233 1581.8903 L 923.3936 1158.52543 L 976.34681 1147.82779" />
    <path d="M 842.54233 1647.9162 L 821.98542 1647.20192" />
    <path d="M 842.54233 1647.9162 L 923.3936 1224.55133 L 923.3936 1158.52543" />
    <path d="M 923.3936 1224.55133 L 976.34681 1213.85369" />
    <path d="M 167.04405 1377.34959 L 867.23102 1235.89734" />
    <path d="M 810.25676 1588.41265 L -8.87796 1346.86357 L -8.87796 1412.88947" />
    <path d="M -61.83117 1357.56122 L -8.87796 1346.86357" />
    <path d="M 34.16947 1338.1671 L 880.34617 1167.2219" />
    <path d="M 804.32893 1565.2742 L 34.16947 1338.1671" />
    <path d="M 804.32893 1565.2742 L 880.34617 1167.2219" />
    <path d="M 1024.67667 847.62396 L 1024.67667 1135.64746 L 970.45098 1146.60217 L 970.45098 833.81182" />
    <path d="M -1139.43 415.59973 L -1146.92165 417.1132 L -1030.77087 521.72109" />
    <path d="M -656.14894 859.11365 L -99.11871 1360.78705 L -99.11871 1435.45059 L -61.82047 1427.91557 L -61.82047 1355.14236" />
    <path d="M -78.90375 1356.70321 L -99.11871 1360.78705" />
    <path d="M -95.70624 1357.84636 L -657.79216 851.61971" />
    <path d="M -1029.12765 517.18698 L -1139.43 417.84631" />
    <path d="M -1129.92759 410.12855 L -1129.92759 128.10246" />
    <path d="M -1113.74782 424.7004 L -1129.92759 410.12855" />
    <path d="M -1113.74782 424.7004 L -1113.74782 142.67431" />
    <path d="M -1103.47495 433.95237 L -1103.47495 151.92628" />
    <path d="M -1024.6806 504.91625 L -1103.47495 433.95237" />
    <path d="M -968.21547 460.3515 L -968.21547 273.74387" />
    <path d="M -957.42895 458.1724 L -957.42895 283.45844" />
    <path d="M -822.68312 481.18662 L -822.68312 404.81343" />
    <path d="M -812.41025 490.43859 L -812.41025 414.0654" />
    <path d="M -795.20319 505.93564 L -795.20319 429.56245" />
    <path d="M -784.93032 515.18761 L -784.93032 438.81442" />
    <path d="M -677.15078 763.33394 L -677.15078 536.54232" />
    <path d="M -666.8779 810.18379 L -666.8779 545.70967" />
    <path d="M -622.70456 866.94452 L -662.23921 831.33876" />
    <path d="M -622.70456 866.94452 L -622.70456 584.91843" />
    <path d="M -612.43168 876.19649 L -612.43168 594.1704" />
    <path d="M -531.61843 948.97864 L -612.43168 876.19649" />
    <path d="M -531.61843 948.97864 L -531.61843 666.95255" />
    <path d="M -521.34556 958.23061 L -521.34556 676.65459" />
    <path d="M -450.20592 1022.3005 L -521.34556 958.23061" />
    <path d="M -450.20592 1022.3005 L -450.20592 740.91422" />
    <path d="M -439.93305 1031.55246 L -439.93305 750.1857" />
    <path d="M -386.08608 1080.0482 L -439.93305 1031.55246" />
    <path d="M -386.08608 1080.0482 L -386.08608 798.02211" />
    <path d="M -375.81321 1089.30017 L -375.81321 807.27408" />
    <path d="M -277.70729 1177.65647 L -375.81321 1089.30017" />
    <path d="M -277.70729 1177.65647 L -277.70729 895.63039" />
    <path d="M -267.43441 1186.90844 L -267.43441 904.88236" />
    <path d="M -105.20865 1333.01245 L -267.43441 1186.90844" />
    <path d="M -105.20865 1333.01245 L -105.20865 1050.98637" />
    <path d="M -77.18939 1358.2472 L -77.18939 1076.22111" />
    <path d="M -77.18939 1358.2472 L -89.05884 1347.55732 L -89.05884 1338.75236 L -93.3392 1334.89737 L -93.3392 1343.70233" />
    <path d="M 952.59805 1145.27202 L 401.66502 1256.57189 L 401.66502 573.42669" />
    <path d="M 396.10054 1251.5604 L 401.66502 1256.57189" />
    <path d="M 396.10054 1251.30554 L -22.9637 1335.96519" />
    <path d="M -22.9637 1347.29249 L -77.18939 1358.2472" />
    <path d="M -89.05884 1342.83761 L -93.3392 1343.70233" />
    <path d="M 960.17811 1137.35021 L 970.45098 1146.60217" />
    <path d="M 960.17811 1137.35021 L 952.59805 1138.88153" />
    <path d="M -213.20872 1175.95373 L -267.43441 1186.90844" />
    <path d="M -321.58752 1078.34546 L -375.81321 1089.30017" />
    <path d="M -386.08608 1020.67426 L -439.93305 1031.55246" />
    <path d="M -467.11986 947.2759 L -521.34556 958.23061" />
    <path d="M -558.20599 865.24177 L -612.43168 876.19649" />
    <path d="M -622.70456 818.23712 L -663.31317 826.4409" />
    <path d="M -1049.24925 422.99766 L -1103.47495 433.95237" />
    <path d="M -1113.74782 406.8599 L -1129.92759 410.12855" />
    <path d="M -743.16876 361.16307 L -706.18137 353.69085 L -706.18137 348.1106" />
    <path d="M -585.6678 489.81472 L -560.64903 484.76041 L -560.64903 447.67737" />
    <path d="M -426.60868 618.15159 L -415.11668 615.82997 L -415.11668 578.74693" />
    <path d="M -400.6146 290.07216 L -410.88747 280.82019 L -410.88747 243.73715" />
    <path d="M -356.60485 281.18128 L -400.6146 290.07216 L -400.6146 252.98912 L -410.88747 243.73715" />
    <path d="M -410.88747 253.54027 L -427.02366 256.80012" />
    <path d="M -885.02218 349.32529 L -903.20326 352.99824" />
    <path d="M -968.21547 366.13205 L -1049.24925 382.50255" />
    <path d="M 821.98542 1581.17602 L 821.98542 1647.20192" />
    <path d="M 842.54233 1581.8903 L 842.54233 1647.9162" />
    <path d="M -1146.92165 417.1132 L -1146.92165 491.77674 L -1051.17119 578.01166" />
    <path d="M -669.3297 921.90631 L -99.11871 1435.45059" />
    <path d="M 952.59805 1145.27202 L 952.59805 -279.25939 A 100 81.74201 312.00688 0 0 929.14388 -335.30799 A 100 81.74201 312.00688 0 0 867.89666 -352.41592 L 862.22189 -351.44798 L 492.04117 -276.66381 L 480.71403 -273.6623 A 100 81.74201 312.00688 0 0 401.66502 -167.95952 L 401.66502 424.73924 A 87.5 71.52426 312.00688 0 0 370.22113 558.62375 A 87.5 71.52426 312.00688 0 0 401.66502 573.42669" />
    <path d="M 396.10054 572.27493 L 396.10054 1251.5604" />
    <path d="M 396.10054 419.72775 A 87.5 71.52426 312.00688 0 0 364.65665 553.61227" />
    <path d="M 923.57941 -340.31947 A 100 81.74201 312.00688 0 0 862.33219 -357.42741 L 867.89666 -352.41592" />
    <path d="M 862.33219 -357.42741 L 856.65742 -356.45946 L 862.22189 -351.44798" />
    <path d="M 856.65742 -356.45946 L 486.4767 -281.6753 L 492.04117 -276.66381" />
    <path d="M 486.4767 -281.6753 L 475.14956 -278.67379 L 480.71403 -273.6623" />
    <path d="M 475.14956 -278.67379 A 100 81.74201 312.00688 0 0 396.10054 -172.97101 L 396.10054 419.72775 L 401.66502 424.73924" />
    <path d="M 960.17811 1137.35021 L 960.17811 824.55985 L 970.45098 833.81182" />
    <path d="M 960.17811 824.55985 A 854.4 698.40375 312.00688 0 0 1062.78286 -275.12716" />
    <path d="M -103.14622 972.70015 A 854.4 698.40375 312.00688 0 0 -33.23657 1025.25016 L -22.9637 1034.50213 A 854.4 698.40375 132.00688 0 1 -72.26573 999.22213 A 854.4 698.40375 132.00688 0 1 -98.03779 977.35723 A 854.4 698.40375 132.00688 0 1 -295.9116 560.33369" />
    <path d="M 71.82571 968.0543 L 312.85891 919.3606" />
    <path d="M 71.82571 1197.78825 L 71.82571 968.0543 L 104.97284 997.90732 L 346.00604 949.21362 L 312.85891 919.3606" />
    <path d="M -22.9637 1034.50213 L -22.9637 1042.84343" />
    <path d="M -22.9637 1053.53411 L -22.9637 1347.29249" />
    <path d="M -64.59706 1005.34753 L -72.26573 999.22213 L -79.9344 993.09672 L -118.22744 1039.15552" />
    <path d="M 1048.49697 820.62962 A 914.4 747.44896 132.00688 0 1 1024.67667 847.62396" />
    <path d="M 1019.75301 778.61176 L 1012.08434 787.83562" />
    <path d="M 1019.75301 778.61176 A 854.4 698.40375 132.00688 0 1 970.45098 833.81182" />
    <path d="M -213.20872 953.71918 L -213.20872 1175.95373" />
    <path d="M -329.48121 760.42177 A 854.4 698.40375 132.00688 0 1 -339.34648 753.7437" />
    <path d="M -321.58752 856.67793 L -321.58752 1078.34546" />
    <path d="M -331.86039 756.30313 L -330.69743 757.35052" />
    <path d="M -331.86039 756.30313 A 854.4 698.40375 132.00688 0 1 -343.86023 748.42632" />
    <path d="M -498.89885 612.65663 A 854.4 698.40375 132.00688 0 1 -499.72602 612.0455" />
    <path d="M -467.11986 725.04135 L -467.11986 947.2759" />
    <path d="M -499.96808 610.05217 A 854.4 698.40375 132.00688 0 1 -504.3889 606.8937" />
    <path d="M -558.20599 643.00722 L -558.20599 865.24177" />
    <path d="M -730.70463 488.31057 L -730.70463 564.02443" />
    <path d="M -903.20326 332.29526 L -903.20326 447.21769" />
    <path d="M -1049.24925 200.76311 L -1049.24925 422.99766" />
    <path d="M -742.62104 323.96938 L -712.50309 317.88493" />
    <path d="M -742.62104 52.63006 L -742.62104 87.57666" />
    <path d="M -742.62104 169.07534 L -742.62104 263.65635" />
    <path d="M -742.62104 320.20687 L -742.62104 323.96938" />
    <path d="M -716.28862 47.31037 L -742.62104 52.63006" />
    <path d="M -710.2237 11.1974 A 100 81.74201 312.00688 0 0 -729.63554 -18.92028 A 100 81.74201 312.00688 0 0 -796.55753 -35.06027 L -832.42043 -27.81522" />
    <path d="M -937.63616 -6.55947 L -992.22347 4.4683" />
    <path d="M -1055.53787 17.25911 L -1101.6582 26.57637" />
    <path d="M -1244.4523 10.20052 L -1185.89701 -1.62886" />
    <path d="M -1244.4523 10.20052 A 914.4 747.44896 312.00688 0 0 -1164.47653 97.64627 A 914.4 747.44896 312.00688 0 0 -1144.51299 114.86069" />
    <path d="M -1131.79954 99.56898 L -1144.51299 114.86069" />
    <path d="M -898.07575 30.67173 L -982.10218 47.64681" />
    <path d="M -1045.44827 60.44402 L -1077.93319 67.00665" />
    <path d="M -815.63703 178.82776 L -815.76459 174.51327" />
    <path d="M -817.42654 118.2985 L -817.93058 101.24995" />
    <path d="M -806.8304 -44.31224 L -831.69165 -39.28975" />
    <path d="M -947.90903 -15.81144 L -994.31704 -6.43606" />
    <path d="M -1057.65242 6.35899 L -1107.01864 16.33199" />
    <path d="M -1190.24989 -12.07679 L -1254.72517 0.94855 L -1244.4523 10.20052" />
    <path d="M -1174.7494 88.3943 A 914.4 747.44896 132.00688 0 1 -1254.72517 0.94855" />
    <path d="M -827.61854 111.78209 L -828.20345 91.99798" />
    <path d="M -739.90842 -28.17225 A 100 81.74201 312.00688 0 0 -806.8304 -44.31224 L -796.55753 -35.06027" />
    <path d="M -751.09031 161.44773 L -816.57811 174.67762" />
    <path d="M -879.88228 187.46637 L -921.46046 195.86603" />
    <path d="M -651.02518 96.00929 L -657.6519 97.34802" />
    <path d="M -792.10381 124.51009 L -824.85036 131.12557" />
    <path d="M -888.24366 143.93233 L -942.75891 154.94554" />
    <path d="M -561.36167 157.0059 A 100 81.74201 312.00688 0 0 -584.1032 112.14928 A 100 81.74201 312.00688 0 0 -651.02518 96.00929" />
    <path d="M -560.64903 168.19787 L -561.36167 157.0059" />
    <path d="M -560.64903 176.33805 L -560.64903 168.19787" />
    <path d="M -560.64903 176.33805 L -597.08869 183.69962 L -597.08869 218.64622" />
    <path d="M -597.08869 300.1449 L -597.08869 394.72591" />
    <path d="M -597.08869 451.27643 L -597.08869 455.03894 L -560.64903 447.67737" />
    <path d="M -564.06129 444.60421 L -560.64903 447.67737" />
    <path d="M -722.38252 99.09765 L -728.46451 100.32633" />
    <path d="M -802.37668 115.25812 L -826.49045 120.1296" />
    <path d="M -889.93384 132.94648 L -947.54613 144.58535" />
    <path d="M -1109.04845 131.98894 L -1109.19283 132.01811 L -1108.67918 132.48071 A 914.4 747.44896 132.00688 0 1 -1243.09613 -281.66329" />
    <path d="M -1029.21706 219.46386 A 914.4 747.44896 132.00688 0 1 -1109.19283 132.01811" />
    <path d="M -594.37607 102.89731 A 100 81.74201 312.00688 0 0 -656.49705 85.91513" />
    <path d="M -441.31693 584.03992 L -415.11668 578.74693" />
    <path d="M -451.55635 314.76918 L -451.55635 349.71578" />
    <path d="M -451.55635 431.21446 L -451.55635 525.79547" />
    <path d="M -415.11668 307.40761 L -451.55635 314.76918" />
    <path d="M -415.11668 307.40761 L -415.11668 299.26744 L -415.82932 288.07546 A 100 81.74201 312.00688 0 0 -438.57085 243.21884 A 100 81.74201 312.00688 0 0 -482.13257 225.43322" />
    <path d="M -548.03021 235.67228 L -572.65929 240.64786" />
    <path d="M -646.57146 255.57965 L -656.29346 257.54369" />
    <path d="M -719.84142 270.3817 L -782.38005 283.01579" />
    <path d="M -846.34313 295.93766 L -849.10526 296.49567" />
    <path d="M -953.38761 272.33964 L -948.19808 271.29124" />
    <path d="M -953.38761 272.33964 A 914.4 747.44896 312.00688 0 0 -873.41184 359.78539 A 914.4 747.44896 312.00688 0 0 -864.73488 367.45239" />
    <path d="M -605.55796 292.51729 L -649.83085 301.46133" />
    <path d="M -713.17345 314.25785 L -763.36598 324.39778" />
    <path d="M -418.52894 575.67377 L -415.11668 578.74693" />
    <path d="M -546.68236 224.07268 L -582.93216 231.39589" />
    <path d="M -656.84434 246.32768 L -657.48767 246.45765" />
    <path d="M -721.1141 259.3115 L -786.6237 272.5458" />
    <path d="M -850.45871 285.44179 L -857.53276 286.87089" />
    <path d="M -955.03486 261.34512 L -963.66048 263.08767 L -953.38761 272.33964" />
    <path d="M -883.68471 350.53342 A 914.4 747.44896 132.00688 0 1 -963.66048 263.08767" />
    <path d="M -531.58578 541.96307 L -532.58576 508.13939" />
    <path d="M -448.84372 233.96687 A 100 81.74201 312.00688 0 0 -481.11494 217.73864" />
    <path d="M -371.65451 360.51084 L -427.12694 371.71742" />
    <path d="M -550.34768 396.61056 L -620.59515 410.802" />
    <path d="M -684.2539 423.66239 L -698.06196 426.4519" />
    <path d="M -807.85526 403.4092 L -793.12922 400.43423" />
    <path d="M -807.85526 403.4092 A 914.4 747.44896 312.00688 0 0 -727.87949 490.85495 A 914.4 747.44896 312.00688 0 0 -707.91595 508.06937" />
    <path d="M -707.70558 507.81634 L -707.91595 508.06937" />
    <path d="M -460.02561 423.58685 L -481.88797 428.0035" />
    <path d="M -545.34604 440.82334 L -603.74778 452.6217" />
    <path d="M -376.11346 671.02455 L -379.16754 567.72196" />
    <path d="M -380.8295 511.50718 L -381.33353 494.45863" />
    <path d="M -370.23336 348.89644 L -437.39981 362.46545" />
    <path d="M -551.20792 385.45705 L -624.31983 400.22716" />
    <path d="M -687.88889 413.06943 L -705.68723 416.66506" />
    <path d="M -799.34029 390.3617 L -818.12813 394.15723 L -807.85526 403.4092" />
    <path d="M -738.15236 481.60298 A 914.4 747.44896 132.00688 0 1 -818.12813 394.15723" />
    <path d="M -386.05344 673.03263 L -389.10752 569.73004" />
    <path d="M -390.76948 513.51527 L -391.60641 485.20666" />
    <path d="M -369.88816 348.82736 A 100 81.74201 312.00688 0 0 -370.23336 348.89644 L -369.94062 349.16009" />
    <path d="M -379.77435 522.62132 L -457.46522 538.31649" />
    <path d="M -520.91764 551.13519 L -544.97438 555.99515" />
    <path d="M -662.32291 534.47876 L -636.45254 529.25241" />
    <path d="M -662.32291 534.47876 A 914.4 747.44896 312.00688 0 0 -582.34714 621.92451 L -592.62002 612.67254 A 914.4 747.44896 132.00688 0 1 -672.59578 525.22679 L -662.32291 534.47876 Z" />
    <path d="M -582.34714 621.92451 A 914.4 747.44896 312.00688 0 0 -562.3836 639.13893" />
    <path d="M -560.21149 636.52633 L -562.3836 639.13893" />
    <path d="M -376.4191 567.16671 L -442.68697 580.55419" />
    <path d="M -506.49145 593.44402 L -514.65478 595.09318" />
    <path d="M -380.22554 511.38517 L -460.69129 527.64092" />
    <path d="M -524.08922 540.44861 L -551.86945 546.06079" />
    <path d="M -642.07882 519.06173 L -672.59578 525.22679" />
    <path d="M -356.37709 678.3647 L -390.0193 685.16112" />
    <path d="M -516.79057 665.54832 L -478.26961 657.76629" />
    <path d="M -516.79057 665.54832 A 914.4 747.44896 312.00688 0 0 -436.8148 752.99407 L -447.08767 743.7421 A 914.4 747.44896 132.00688 0 1 -527.06344 656.29635 L -516.79057 665.54832 Z" />
    <path d="M -436.8148 752.99407 A 914.4 747.44896 312.00688 0 0 -416.85125 770.20849" />
    <path d="M -411.3001 763.53157 L -416.85125 770.20849" />
    <path d="M -343.79896 721.04688 L -362.60748 724.84658" />
    <path d="M -359.09959 667.5874 L -396.24202 675.09094" />
    <path d="M -483.34514 647.46435 L -527.06344 656.29635" />
    <path d="M -374.4478 236.37558 L -410.88747 243.73715" />
    <path d="M -374.4478 -23.63643 L -374.4478 236.37558" />
    <path d="M -358.65105 -128.29309 A 100 81.74201 132.00688 0 1 -320.51132 -144.44664 L -181.99106 -172.4306" />
    <path d="M -149.19103 -179.05688 L -105.15345 -187.95338" />
    <path d="M -310.23844 -135.19467 L -171.71818 -163.17863" />
    <path d="M -138.91815 -169.80491 L -117.55434 -174.12084" />
    <path d="M -242.45633 -103.66484 L -162.46207 -119.82533" />
    <path d="M -287.28808 -55.05265 A 50 40.87101 132.00688 0 1 -242.45633 -103.66484" />
    <path d="M -287.64441 -49.31269 L -287.28808 -55.05265" />
    <path d="M -291.80648 93.14858 L -287.64441 -49.31269" />
    <path d="M -364.17493 245.62755 L -400.6146 252.98912" />
    <path d="M -364.17493 -25.71176 L -364.17493 245.62755 L -374.4478 236.37558" />
    <path d="M -400.6146 -18.3502 L -364.17493 -25.71176" />
    <path d="M -400.6146 -18.3502 L -400.6146 -26.49038 L -407.97272 -33.11726" />
    <path d="M -400.6146 -26.49038 L -399.90195 -37.97029 L -404.0472 -41.70359" />
    <path d="M -399.90195 -37.97029 A 100 81.74201 132.00688 0 1 -391.94469 -66.89753" />
    <path d="M -385.47258 -79.665 A 100 81.74201 132.00688 0 1 -310.23844 -135.19467 L -320.51132 -144.44664" />
    <path d="M 64.96469 -1157.53699 A 854.4 698.40375 132.00688 0 1 83.86276 -1129.51747" />
    <path d="M 125.61001 -1051.42975 A 854.4 698.40375 132.00688 0 1 149.03665 -990.40105" />
    <path d="M 166.96029 -923.89837 A 854.4 698.40375 132.00688 0 1 180.38705 -832.74763" />
    <path d="M 182.90162 -768.15429 A 854.4 698.40375 132.00688 0 1 182.80825 -758.54027" />
    <path d="M 178.17676 -684.52701 A 854.4 698.40375 132.00688 0 1 171.86368 -638.42809" />
    <path d="M 156.57475 -565.47797 A 854.4 698.40375 132.00688 0 1 67.96886 -342.01714" />
    <path d="M -258.79409 -1235.22755 A 700 572.19409 132.00688 0 1 -120.81354 -1148.73544 A 700 572.19409 132.00688 0 1 -118.86905 -1146.97429" />
    <path d="M -60.49149 -1082.98887 A 700 572.19409 132.00688 0 1 -3.81932 -986.78907" />
    <path d="M 19.32201 -924.42504 A 700 572.19409 132.00688 0 1 26.14429 -899.63519" />
    <path d="M 41.23709 -807.85781 A 700 572.19409 132.00688 0 1 41.35912 -806.37554" />
    <path d="M 43.16206 -740.29352 A 700 572.19409 132.00688 0 1 17.79614 -573.05073" />
    <path d="M -13.71511 -482.04933 A 700 572.19409 132.00688 0 1 -191.21919 -216.90835" />
    <path d="M -210.44272 -198.05477 A 700 572.19409 132.00688 0 1 -256.46182 -157.38596" />
    <path d="M -479.5738 -27.21566 A 700 572.19409 132.00688 0 1 -645.43635 13.38166" />
    <path d="M -1070.4978 -120.39208 A 700 572.19409 132.00688 0 1 -1103.56161 -155.99549" />
    <path d="M -1221.68427 -484.27693 A 700 572.19409 132.00688 0 1 -1056.96273 -960.4489" />
    <path d="M -1040.21678 -981.53383 A 700 572.19409 132.00688 0 1 -476.73255 -1274.35241" />
    <path d="M -267.01218 -1238.52033 A 700 572.19409 132.00688 0 1 -258.79409 -1235.22755" />
    <path d="M -1141.79704 394.71896 L -1146.0774 395.58368" />
    <path d="M -298.35521 487.69201 A 854.4 698.40375 132.00688 0 1 -81.71216 -82.11726" />
    <path d="M -64.54585 -102.82361 A 854.4 698.40375 132.00688 0 1 462.96676 -428.03901" />
    <path d="M 531.30466 -439.76987 A 854.4 698.40375 132.00688 0 1 1012.91527 -319.63329" />
    <path d="M 1068.27362 -270.74138 A 854.4 698.40375 132.00688 0 1 1245.91749 186.48786 L 1245.91749 197.34143" />
    <path d="M 1245.91749 186.48786 A 854.4 698.40375 132.00688 0 1 1019.75301 778.61176" />
    <path d="M 71.82571 1197.78825 L 104.97284 1227.64127 L 346.00604 1178.94758 L 346.00604 949.21362" />
    <path d="M 104.97284 1227.64127 L 104.97284 997.90732" />
    <path d="M -17.88118 1047.42086 L -64.59706 1005.34753" />
    <path d="M -17.88118 1047.42086 L -33.21852 1035.17005 L -79.9344 993.09672" />
    <path d="M -56.22453 1093.54019 L -17.88118 1047.42086" />
    <path d="M -172.4175 1080.2604 L -105.20865 1140.79014" />
    <path d="M -182.19533 1061.71042 A 101.6 43.33739 180 0 0 -172.4175 1080.2604 L -172.4175 991.03814" />
    <path d="M 1097.14358 860.53597 L 1058.80022 829.90895 L 1012.08434 787.83562" />
    <path d="M 1074.13756 811.46122 L 1027.42168 769.38789 L 1019.75301 778.61176" />
    <path d="M 1074.13756 811.46122 L 1058.80022 829.90895" />
    <path d="M -326.18269 768.53869 A 854.4 698.40375 132.00688 0 1 -485.0665 401.0345" />
    <path d="M -488.60023 316.35326 A 854.4 698.40375 132.00688 0 1 -271.95718 -253.45602" />
    <path d="M -254.79087 -274.16237 A 854.4 698.40375 132.00688 0 1 272.72174 -599.37777" />
    <path d="M 345.84839 -611.70281 A 854.4 698.40375 132.00688 0 1 814.05208 -497.51455" />
    <path d="M 773.8573 -508.09355 A 854.4 698.40375 312.00688 0 0 754.95923 -536.11308" />
    <path d="M -498.68132 613.18271 A 854.4 698.40375 132.00688 0 1 -657.56513 245.67852" />
    <path d="M -661.09887 160.99728 A 854.4 698.40375 132.00688 0 1 -444.45581 -408.812" />
    <path d="M -427.2895 -429.51835 A 854.4 698.40375 132.00688 0 1 100.2231 -754.73375" />
    <path d="M 173.34975 -767.05879 A 854.4 698.40375 132.00688 0 1 641.55344 -652.87053" />
    <path d="M 761.07874 -532.57864 A 854.4 698.40375 132.00688 0 1 778.93211 -506.90132" />
    <path d="M 666.53255 -524.33311 A 854.4 698.40375 312.00688 0 0 643.10591 -585.36181" />
    <path d="M 601.35866 -663.44953 A 854.4 698.40375 312.00688 0 0 582.4606 -691.46906" />
    <path d="M -671.17996 457.82673 A 854.4 698.40375 132.00688 0 1 -830.06377 90.32254" />
    <path d="M -833.5975 5.6413 A 854.4 698.40375 132.00688 0 1 -616.95445 -564.16798" />
    <path d="M -599.78814 -584.87433 A 854.4 698.40375 132.00688 0 1 -72.27553 -910.08973" />
    <path d="M 0.85112 -922.41477 A 854.4 698.40375 132.00688 0 1 469.05481 -808.22651" />
    <path d="M 588.5801 -687.93462 A 854.4 698.40375 132.00688 0 1 606.43348 -662.2573" />
    <path d="M 650.27036 -582.98762 A 854.4 698.40375 132.00688 0 1 673.91271 -523.73919" />
    <path d="M 525.38432 -522.03567 A 854.4 698.40375 312.00688 0 0 511.95756 -613.18641" />
    <path d="M 494.03392 -679.68909 A 854.4 698.40375 312.00688 0 0 470.60728 -740.71779" />
    <path d="M 428.86003 -818.80551 A 854.4 698.40375 312.00688 0 0 409.96196 -846.82503" />
    <path d="M -843.67859 302.47075 A 854.4 698.40375 132.00688 0 1 -1002.5624 -65.03344" />
    <path d="M -1006.09614 -149.71468 A 854.4 698.40375 132.00688 0 1 -789.45308 -719.52396" />
    <path d="M -772.28677 -740.2303 A 854.4 698.40375 132.00688 0 1 -244.77417 -1065.4457" />
    <path d="M -171.64752 -1077.77075 A 854.4 698.40375 132.00688 0 1 296.55617 -963.58249" />
    <path d="M 416.08147 -843.2906 A 854.4 698.40375 132.00688 0 1 433.93484 -817.61328" />
    <path d="M 477.77173 -738.3436 A 854.4 698.40375 132.00688 0 1 501.41408 -679.09517" />
    <path d="M 520.39239 -612.22277 A 854.4 698.40375 132.00688 0 1 534.7482 -522.96592" />
    <path d="M 344.36232 -483.07211 A 854.4 698.40375 312.00688 0 0 350.6754 -529.17103" />
    <path d="M 355.30688 -603.18429 A 854.4 698.40375 312.00688 0 0 355.40025 -612.79832" />
    <path d="M 352.88568 -677.39165 A 854.4 698.40375 312.00688 0 0 339.45893 -768.54239" />
    <path d="M 321.53528 -835.04507 A 854.4 698.40375 312.00688 0 0 298.10864 -896.07377" />
    <path d="M 256.36139 -974.16149 A 854.4 698.40375 312.00688 0 0 237.46333 -1002.18101" />
    <path d="M -1016.17723 147.11477 A 854.4 698.40375 132.00688 0 1 -1175.06104 -220.38942" />
    <path d="M -1178.59477 -305.07066 A 854.4 698.40375 132.00688 0 1 -961.95172 -874.87993" />
    <path d="M -944.78541 -895.58628 A 854.4 698.40375 132.00688 0 1 -417.2728 -1220.80168" />
    <path d="M -344.14615 -1233.12673 A 854.4 698.40375 132.00688 0 1 124.05754 -1118.93847" />
    <path d="M 243.58283 -998.64658 A 854.4 698.40375 132.00688 0 1 261.43621 -972.96926" />
    <path d="M 305.27309 -893.69957 A 854.4 698.40375 132.00688 0 1 328.91544 -834.45115" />
    <path d="M 347.89375 -767.57875 A 854.4 698.40375 132.00688 0 1 362.24956 -678.3219" />
    <path d="M 365.64086 -613.83972 A 854.4 698.40375 132.00688 0 1 365.67793 -606.27481 L 365.67793 -595.42125 L 458.08393 -512.19842" />
    <path d="M 365.67793 -606.27481 A 854.4 698.40375 132.00688 0 1 365.57975 -593.93232" />
    <path d="M 360.94827 -519.91906 A 854.4 698.40375 132.00688 0 1 356.70529 -486.99808" />
    <path d="M -1191.87906 -11.74767 A 854.4 698.40375 132.00688 0 1 -1347.55967 -375.7454" />
    <path d="M -1351.09341 -460.42664 A 854.4 698.40375 132.00688 0 1 -1134.45035 -1030.23591" />
    <path d="M -1117.28404 -1050.94226 A 854.4 698.40375 132.00688 0 1 -589.77144 -1376.15766" />
    <path d="M -516.64479 -1388.48271 A 854.4 698.40375 132.00688 0 1 -48.4411 -1274.29445" />
    <path d="M 71.0842 -1154.00256 A 854.4 698.40375 132.00688 0 1 88.93757 -1128.32524" />
    <path d="M 132.77446 -1049.05555 A 854.4 698.40375 132.00688 0 1 156.41681 -989.80713" />
    <path d="M 175.39512 -922.93473 A 854.4 698.40375 132.00688 0 1 189.75093 -833.67788" />
    <path d="M 193.14223 -769.1957 A 854.4 698.40375 132.00688 0 1 193.1793 -761.63079 L 193.1793 -750.77722" />
    <path d="M 193.1793 -761.63079 A 854.4 698.40375 132.00688 0 1 193.08112 -749.2883" />
    <path d="M 188.44963 -675.27504 A 854.4 698.40375 132.00688 0 1 184.20665 -642.35406" />
    <path d="M 170.33202 -570.42408 A 854.4 698.40375 132.00688 0 1 91.97976 -358.72964" />
    <path d="M -1245.36522 23.32519 L -1245.75109 23.78932" />
    <path d="M -71.56187 1081.28938 L -119.68455 1037.94906" />
    <path d="M -184.06094 979.9703 L -309.92957 866.61031" />
    <path d="M -356.55958 824.61432 L -418.30836 769.00204" />
    <path d="M -464.93837 727.00605 L -482.4282 711.25433" />
    <path d="M -529.05821 669.25834 L -563.84071 637.93248" />
    <path d="M -610.47072 595.93649 L -654.92684 555.89835" />
    <path d="M -701.55685 513.90236 L -709.37306 506.86292" />
    <path d="M -756.00307 464.86693 L -827.42547 400.54237" />
    <path d="M -901.53541 333.79736 L -999.92411 245.18639" />
    <path d="M -1047.06776 202.7278 L -1145.9701 113.65423" />
    <path d="M -1236.79914 31.85165 L -1245.75109 23.78932" />
    <path d="M -71.56187 1081.28938 L -33.21852 1035.17005" />
    <path d="M -288.96051 844.34783 L -308.47246 867.81677" />
    <path d="M -480.21825 711.55527 L -480.97109 712.46079" />
    <path d="M -650.25007 553.23222 L -653.46973 557.10481" />
    <path d="M -806.45642 378.2799 L -825.96836 401.74883" />
    <path d="M -978.95505 222.92392 L -998.467 246.39285" />
    <path d="M -656.9933 90.63428 L -651.02518 96.00929" />
    <path d="M -1232.82326 -272.41132 A 914.4 747.44896 312.00688 0 0 -1018.43054 229.17843 L -1029.21706 219.46386" />
    <path d="M -1018.43054 229.17843 A 914.4 747.44896 312.00688 0 0 -998.467 246.39285" />
    <path d="M -400.6146 -18.3502 L -410.56885 -27.31521" />
    <path d="M 1112.48092 842.08824 L 1065.71712 799.97176" />
    <path d="M 1112.48092 842.08824 L 1074.13756 811.46122" />
    <path d="M 1065.71471 799.97472 L 1027.42168 769.38789" />
    <path d="M 417.01902 -547.60502 A 914.4 747.44896 312.00688 0 0 417.13873 -549.07455" />
    <path d="M -710.46951 10.465 A 700 572.19409 312.00688 0 0 -710.08392 10.4575" />
    <path d="M -643.86121 5.56459 A 700 572.19409 312.00688 0 0 -474.7149 -38.73717" />
    <path d="M -277.63056 -153.10944 A 700 572.19409 312.00688 0 0 -217.91623 -204.78558" />
    <path d="M -198.6927 -223.63915 A 700 572.19409 312.00688 0 0 -27.94931 -473.06452" />
    <path d="M 6.6961 -567.11082 A 700 572.19409 312.00688 0 0 35.39771 -738.0001" />
    <path d="M 34.52347 -804.47334 A 700 572.19409 312.00688 0 0 33.76358 -814.58862" />
    <path d="M 18.67078 -906.366 A 700 572.19409 312.00688 0 0 13.97923 -923.88963" />
    <path d="M -8.12348 -986.26361 A 700 572.19409 312.00688 0 0 -63.01452 -1083.05696" />
    <path d="M -119.09623 -1146.96327 A 700 572.19409 312.00688 0 0 -124.56839 -1152.08076" />
    <path d="M -352.5837 520.35135 A 914.4 747.44896 312.00688 0 0 -138.19098 1021.9411 L -166.21024 996.70635 A 914.4 747.44896 132.00688 0 1 -380.60295 495.11661" />
    <path d="M -138.19098 1021.9411 A 914.4 747.44896 312.00688 0 0 -118.22744 1039.15552" />
    <path d="M -118.22984 -115.00588 A 914.4 747.44896 312.00688 0 0 -352.58474 498.56479" />
    <path d="M -298.43022 487.62446 L -352.58474 498.56479" />
    <path d="M 462.8985 -482.29713 L 462.8985 -428.10049" />
    <path d="M 462.8985 -482.29713 A 914.4 747.44896 312.00688 0 0 -102.89009 -133.45657" />
    <path d="M -64.59706 -102.86974 L -102.89009 -133.45657" />
    <path d="M 1050.37737 -366.44045 L 1012.08434 -320.38165" />
    <path d="M 1050.37737 -366.44045 A 914.4 747.44896 312.00688 0 0 484.65415 -486.69136" />
    <path d="M 1245.91749 175.63428 L 1245.91749 186.48786" />
    <path d="M 1300.07202 164.69395 L 1245.91749 175.63428" />
    <path d="M 1300.07202 164.69395 A 914.4 747.44896 312.00688 0 0 1112.09504 -311.7127" />
    <path d="M 1103.52896 -320.23916 A 914.4 747.44896 312.00688 0 0 1085.67826 -336.97521 L 1057.659 -362.20996" />
    <path d="M 1085.67826 -336.97521 A 914.4 747.44896 312.00688 0 0 1067.17182 -352.98318" />
    <path d="M 1065.71471 799.97472 A 914.4 747.44896 312.00688 0 0 1297.79032 238.37295" />
    <path d="M 110.39541 1002.23863 L 340.58347 955.73588" />
    <path d="M 110.39541 1002.23863 L 110.39541 1221.11901 L 111.08026 1221.73581 L 111.08026 1002.85543 L 341.26833 956.35268 L 340.58347 955.73588" />
    <path d="M 279.43836 1222.27738 A 12.5 5.33186 180 0 0 304.43836 1222.27738 L 304.43836 1187.34511" />
    <path d="M 98.68605 1258.79309 A 12.5 5.33186 180 0 0 123.68605 1258.79309 L 123.68605 1223.86081" />
    <path d="M -56.22453 1093.54019 L -71.56187 1081.28938" />
    <path d="M 1039.15257 -378.21792 A 914.4 747.44896 132.00688 0 1 1057.659 -362.20996" />
    <path d="M 456.63489 -511.92611 A 914.4 747.44896 132.00688 0 1 1022.35811 -391.67519 L 1050.37737 -366.44045" />
    <path d="M -130.90935 -158.69131 A 914.4 747.44896 132.00688 0 1 434.87924 -507.53188 L 462.8985 -482.29713" />
    <path d="M -380.604 473.33005 A 914.4 747.44896 132.00688 0 1 -146.2491 -140.24062" />
    <path d="M 1112.48092 842.08824 L 1097.14358 860.53597" />
    <path d="M -542.82872 349.0126 A 914.4 747.44896 312.00688 0 0 -328.436 850.60234 L -338.70887 841.35037 A 914.4 747.44896 132.00688 0 1 -553.10159 339.76063" />
    <path d="M -328.436 850.60234 A 914.4 747.44896 312.00688 0 0 -308.47246 867.81677" />
    <path d="M 866.65393 -533.5739 A 914.4 747.44896 132.00688 0 1 885.16036 -517.56594" />
    <path d="M 284.13626 -667.28209 A 914.4 747.44896 132.00688 0 1 849.85948 -547.03117 L 860.13235 -537.7792 L 824.10821 -494.44942" />
    <path d="M -303.40799 -314.04729 A 914.4 747.44896 132.00688 0 1 262.38061 -662.88786 L 272.65348 -653.63589 L 272.65348 -599.43924" />
    <path d="M -553.10264 317.97407 A 914.4 747.44896 132.00688 0 1 -318.74773 -295.5966" />
    <path d="M -308.47486 -286.34463 A 914.4 747.44896 312.00688 0 0 -542.82977 327.22604" />
    <path d="M -488.67524 316.2857 L -542.82977 327.22604" />
    <path d="M 272.65348 -653.63589 A 914.4 747.44896 312.00688 0 0 -293.13511 -304.79532" />
    <path d="M -254.84208 -274.20849 L -293.13511 -304.79532" />
    <path d="M 860.13235 -537.7792 A 914.4 747.44896 312.00688 0 0 294.40913 -658.03012" />
    <path d="M 913.28394 -491.57791 A 914.4 747.44896 312.00688 0 0 895.43324 -508.31397 L 885.16036 -517.56594" />
    <path d="M 895.43324 -508.31397 A 914.4 747.44896 312.00688 0 0 876.9268 -524.32193" />
    <path d="M -715.32735 193.65662 A 914.4 747.44896 312.00688 0 0 -500.93464 695.24636 L -511.20751 685.99439 A 914.4 747.44896 132.00688 0 1 -725.60022 184.40465" />
    <path d="M -500.93464 695.24636 A 914.4 747.44896 312.00688 0 0 -480.97109 712.46079" />
    <path d="M 694.1553 -688.92988 A 914.4 747.44896 132.00688 0 1 712.66173 -672.92191" />
    <path d="M 111.63762 -822.63806 A 914.4 747.44896 132.00688 0 1 677.36084 -702.38715 L 687.63371 -693.13518 L 651.60957 -649.8054" />
    <path d="M -475.90662 -469.40327 A 914.4 747.44896 132.00688 0 1 89.88197 -818.24383 L 100.15484 -808.99187 L 100.15484 -754.79522 L 215.02672 -651.33914" />
    <path d="M -725.60127 162.61809 A 914.4 747.44896 132.00688 0 1 -491.24637 -450.95258" />
    <path d="M -480.9735 -441.70061 A 914.4 747.44896 312.00688 0 0 -715.3284 171.87006" />
    <path d="M -661.17387 160.92973 L -715.3284 171.87006" />
    <path d="M 100.15484 -808.99187 A 914.4 747.44896 312.00688 0 0 -465.63375 -460.1513" />
    <path d="M -427.34072 -429.56447 L -465.63375 -460.1513" />
    <path d="M 687.63371 -693.13518 A 914.4 747.44896 312.00688 0 0 121.91049 -813.3861" />
    <path d="M 740.78531 -646.93389 A 914.4 747.44896 312.00688 0 0 722.9346 -663.66994 L 712.66173 -672.92191" />
    <path d="M 722.9346 -663.66994 A 914.4 747.44896 312.00688 0 0 704.42817 -679.67791" />
    <path d="M -887.82599 38.30064 A 914.4 747.44896 312.00688 0 0 -673.43327 539.89038 L -683.70614 530.63841 A 914.4 747.44896 132.00688 0 1 -898.09886 29.04867" />
    <path d="M -673.43327 539.89038 A 914.4 747.44896 312.00688 0 0 -653.46973 557.10481" />
    <path d="M 521.65666 -844.28586 A 914.4 747.44896 132.00688 0 1 540.16309 -828.27789" />
    <path d="M -60.86101 -977.99404 A 914.4 747.44896 132.00688 0 1 504.86221 -857.74313 L 515.13508 -848.49116 L 479.11093 -805.16138" />
    <path d="M -648.40526 -624.75925 A 914.4 747.44896 132.00688 0 1 -82.61666 -973.59981 L -72.34379 -964.34784 L -72.34379 -910.1512" />
    <path d="M -898.09991 7.26211 A 914.4 747.44896 132.00688 0 1 -663.745 -606.30856" />
    <path d="M -653.47213 -597.05659 A 914.4 747.44896 312.00688 0 0 -887.82704 16.51408" />
    <path d="M -833.67251 5.57375 L -887.82704 16.51408" />
    <path d="M -72.34379 -964.34784 A 914.4 747.44896 312.00688 0 0 -638.13238 -615.50728" />
    <path d="M -599.83935 -584.92045 L -638.13238 -615.50728" />
    <path d="M 515.13508 -848.49116 A 914.4 747.44896 312.00688 0 0 -50.58814 -968.74207" />
    <path d="M 736.52576 -515.64557 A 914.4 747.44896 312.00688 0 0 725.12163 -551.98594" />
    <path d="M 568.28667 -802.28987 A 914.4 747.44896 312.00688 0 0 550.43597 -819.02592 L 540.16309 -828.27789" />
    <path d="M 550.43597 -819.02592 A 914.4 747.44896 312.00688 0 0 531.92953 -835.03389" />
    <path d="M -1060.32462 -117.05534 A 914.4 747.44896 312.00688 0 0 -845.93191 384.5344 L -856.20478 375.28244 A 914.4 747.44896 132.00688 0 1 -1070.59749 -126.30731" />
    <path d="M -845.93191 384.5344 A 914.4 747.44896 312.00688 0 0 -825.96836 401.74883" />
    <path d="M 349.15802 -999.64184 A 914.4 747.44896 132.00688 0 1 367.66446 -983.63387" />
    <path d="M -233.35965 -1133.35002 A 914.4 747.44896 132.00688 0 1 332.36357 -1013.09911 L 342.63644 -1003.84714 L 306.6123 -960.51736" />
    <path d="M -820.90389 -780.11523 A 914.4 747.44896 132.00688 0 1 -255.1153 -1128.95579 L -244.84243 -1119.70382 L -244.84243 -1065.50718 L -129.97055 -962.0511" />
    <path d="M -1070.59854 -148.09387 A 914.4 747.44896 132.00688 0 1 -836.24364 -761.66454" />
    <path d="M -825.97077 -752.41257 A 914.4 747.44896 312.00688 0 0 -1060.32567 -138.8419" />
    <path d="M -1006.17114 -149.78223 L -1060.32567 -138.8419" />
    <path d="M -244.84243 -1119.70382 A 914.4 747.44896 312.00688 0 0 -810.63102 -770.86326" />
    <path d="M -772.33799 -740.27643 L -810.63102 -770.86326" />
    <path d="M 342.63644 -1003.84714 A 914.4 747.44896 312.00688 0 0 -223.08678 -1124.09805" />
    <path d="M 589.85572 -526.23575 A 914.4 747.44896 312.00688 0 0 579.96685 -602.29604" />
    <path d="M 564.02712 -671.00155 A 914.4 747.44896 312.00688 0 0 552.62299 -707.34192" />
    <path d="M 395.78804 -957.64585 A 914.4 747.44896 312.00688 0 0 377.93733 -974.3819 L 367.66446 -983.63387" />
    <path d="M 377.93733 -974.3819 A 914.4 747.44896 312.00688 0 0 359.4309 -990.38987" />
    <path d="M 176.65939 -1154.99782 A 914.4 747.44896 132.00688 0 1 195.16582 -1138.98985" />
    <path d="M -405.85828 -1288.706 A 914.4 747.44896 132.00688 0 1 159.86494 -1168.45509 L 170.13781 -1159.20312 L 134.11366 -1115.87333" />
    <path d="M -993.40253 -935.4712 A 914.4 747.44896 132.00688 0 1 -427.61393 -1284.31177 L -417.34106 -1275.0598 L -417.34106 -1220.86316" />
    <path d="M -1243.09718 -303.44985 A 914.4 747.44896 132.00688 0 1 -1008.74227 -917.02052" />
    <path d="M -998.4694 -907.76855 A 914.4 747.44896 312.00688 0 0 -1232.82431 -294.19788" />
    <path d="M -1178.66978 -305.13821 L -1232.82431 -294.19788" />
    <path d="M -417.34106 -1275.0598 A 914.4 747.44896 312.00688 0 0 -983.12965 -926.21924" />
    <path d="M -944.83662 -895.63241 L -983.12965 -926.21924" />
    <path d="M 170.13781 -1159.20312 A 914.4 747.44896 312.00688 0 0 -395.58541 -1279.45403" />
    <path d="M 365.67793 -613.84324 L 365.67793 -606.27481" />
    <path d="M 417.35708 -681.59173 A 914.4 747.44896 312.00688 0 0 407.46822 -757.65202" />
    <path d="M 391.52849 -826.35753 A 914.4 747.44896 312.00688 0 0 380.12436 -862.6979" />
    <path d="M 223.2894 -1113.00183 A 914.4 747.44896 312.00688 0 0 205.4387 -1129.73788 L 195.16582 -1138.98985" />
    <path d="M 205.4387 -1129.73788 A 914.4 747.44896 312.00688 0 0 186.93226 -1145.74585" />
    <path d="M -1405.32189 -427.7673 A 914.4 747.44896 312.00688 0 0 -1190.92918 73.82245 L -1218.94843 48.5877 A 914.4 747.44896 132.00688 0 1 -1433.34115 -453.00204" />
    <path d="M -1190.92918 73.82245 A 914.4 747.44896 312.00688 0 0 -1182.77437 81.03629" />
    <path d="M -1170.96804 -1063.12453 A 914.4 747.44896 312.00688 0 0 -1405.32294 -449.55386 L -1433.3422 -474.7886 A 914.4 747.44896 132.00688 0 1 -1198.9873 -1088.35927" />
    <path d="M -1351.16841 -460.49419 L -1405.32294 -449.55386" />
    <path d="M -589.8397 -1430.41578 L -589.8397 -1376.21914 L -474.96782 -1272.76306" />
    <path d="M -589.8397 -1430.41578 A 914.4 747.44896 312.00688 0 0 -1155.62829 -1081.57521 L -1183.64755 -1106.80996 A 914.4 747.44896 132.00688 0 1 -617.85895 -1455.65053 L -589.8397 -1430.41578 Z" />
    <path d="M -1117.33526 -1050.98839 L -1155.62829 -1081.57521" />
    <path d="M -2.36083 -1314.5591 L -38.38497 -1271.22931" />
    <path d="M -2.36083 -1314.5591 A 914.4 747.44896 312.00688 0 0 -568.08405 -1434.81001" />
    <path d="M 193.1793 -769.19922 L 193.1793 -761.63079" />
    <path d="M 244.85845 -836.94771 A 914.4 747.44896 312.00688 0 0 234.96958 -913.008" />
    <path d="M 219.02985 -981.71351 A 914.4 747.44896 312.00688 0 0 207.62572 -1018.05388" />
    <path d="M 50.79077 -1268.35781 A 914.4 747.44896 312.00688 0 0 32.94006 -1285.09386 L 4.9208 -1310.32861" />
    <path d="M 32.94006 -1285.09386 A 914.4 747.44896 312.00688 0 0 14.43363 -1301.10183" />
    <path d="M 169.5688 -406.46141 A 914.4 747.44896 312.00688 0 0 227.53259 -588.29147" />
    <path d="M 244.52038 -702.96099 A 914.4 747.44896 312.00688 0 0 244.64009 -704.43053" />
    <path d="M -305.94003 562.35965 L -1480.12925 -495.14041 L -1480.12925 -516.84755" />
    <path d="M -305.94003 562.35965 L -251.71433 551.40493 L -251.71433 529.69779 L -298.43022 487.62446" />
    <path d="M 1346.85907 228.46004 L 1292.63338 239.41475 L 1245.91749 197.34143" />
    <path d="M 355.33005 -604.74077 L 347.39396 -611.88818" />
    <path d="M 285.58529 -667.5544 L 193.1793 -750.77722" />
    <path d="M -13.58563 -1326.33657 A 914.4 747.44896 132.00688 0 1 4.9208 -1310.32861" />
    <path d="M -596.1033 -1460.04476 A 914.4 747.44896 132.00688 0 1 -30.38008 -1339.79384 L -2.36083 -1314.5591" />
    <path d="M -33.21852 -42.34868 L -17.88118 -60.79641 L -64.59706 -102.86974" />
    <path d="M -71.56187 -72.9757 L -1245.75109 -1130.47575 L -1230.41375 -1148.92348" />
    <path d="M -71.56187 -72.9757 L -33.21852 -42.34868" />
    <path d="M -380.604 473.33005 L -352.58474 498.56479" />
    <path d="M -1431.06049 -526.76046 L -1480.12925 -516.84755" />
    <path d="M -305.94003 540.6525 L -1480.12925 -516.84755" />
    <path d="M -305.94003 540.6525 L -251.71433 529.69779" />
    <path d="M -488.67524 316.2857 L -377.91027 416.04302" />
    <path d="M -553.10264 317.97407 L -542.82977 327.22604" />
    <path d="M -550.4089 260.68704 L -661.17387 160.92973" />
    <path d="M -725.60127 162.61809 L -715.3284 171.87006" />
    <path d="M -833.67251 5.57375 L -722.90754 105.33106" />
    <path d="M -898.09991 7.26211 L -887.82704 16.51408" />
    <path d="M -895.40617 -50.02492 L -1006.17114 -149.78223" />
    <path d="M -1070.59854 -148.09387 L -1060.32567 -138.8419" />
    <path d="M -1178.66978 -305.13821 L -1067.90481 -205.3809" />
    <path d="M -1243.09718 -303.44985 L -1232.82431 -294.19788" />
    <path d="M -1240.40344 -360.73688 L -1351.16841 -460.49419" />
    <path d="M 509.61438 -386.02716 L 462.8985 -428.10049" />
    <path d="M 509.61438 -386.02716 L 531.30466 -390.40904" />
    <path d="M -664.57484 -1444.27553 L -664.57484 -1497.79508 L -642.88456 -1502.17696" />
    <path d="M 509.61438 -440.29502 L -664.57484 -1497.79508" />
    <path d="M 509.61438 -440.29502 L 509.61438 -386.02716" />
    <path d="M 387.52536 -495.98316 L 272.65348 -599.43924" />
    <path d="M 42.52809 -806.69512 L -72.34379 -910.1512" />
    <path d="M -302.46918 -1117.40708 L -417.34106 -1220.86316" />
    <path d="M -130.90935 -158.69131 L -102.89009 -133.45657" />
    <path d="M -1181.76715 -1109.01713 L -1192.0704 -1118.29646 L -1230.41375 -1148.92348" />
    <path d="M -56.22453 -91.42343 L -1230.41375 -1148.92348" />
    <path d="M -56.22453 -91.42343 L -17.88118 -60.79641" />
    <path d="M -254.84208 -274.20849 L -129.02895 -160.89848" />
    <path d="M -303.40799 -314.04729 L -293.13511 -304.79532" />
    <path d="M -301.52759 -316.25446 L -427.34072 -429.56447" />
    <path d="M -475.90662 -469.40327 L -465.63375 -460.1513" />
    <path d="M -599.83935 -584.92045 L -474.02622 -471.61044" />
    <path d="M -648.40526 -624.75925 L -638.13238 -615.50728" />
    <path d="M -646.52486 -626.96642 L -772.33799 -740.27643" />
    <path d="M -820.90389 -780.11523 L -810.63102 -770.86326" />
    <path d="M -944.83662 -895.63241 L -819.02349 -782.3224" />
    <path d="M -993.40253 -935.4712 L -983.12965 -926.21924" />
    <path d="M -991.52213 -937.67838 L -1117.33526 -1050.98839" />
    <path d="M 1058.80022 -278.30832 L 1012.08434 -320.38165" />
    <path d="M 1058.80022 -278.30832 L 1074.13756 -266.05751" />
    <path d="M -82.18651 -1375.74427 L -77.04565 -1381.9277 L -61.7083 -1369.67689" />
    <path d="M 1097.14358 -324.42764 L -77.04565 -1381.9277" />
    <path d="M 1097.14358 -324.42764 L 1058.80022 -278.30832" />
    <path d="M 531.30466 -444.67691 L -642.88456 -1502.17696" />
    <path d="M 531.30466 -444.67691 L 531.30466 -390.40904" />
    <path d="M 1292.63338 217.70761 L 1245.91749 175.63428" />
    <path d="M 1292.63338 217.70761 L 1292.63338 239.41475" />
    <path d="M 1346.85907 206.7529 L 1300.07097 164.61453" />
    <path d="M 524.29496 -534.06603 L 431.98196 -617.20509" />
    <path d="M 351.79632 -689.422 L 259.48333 -772.56107" />
    <path d="M 1346.85907 206.7529 L 1292.63338 217.70761" />
    <path d="M 478.26834 -515.72705 L 368.9851 -614.14989" />
    <path d="M 196.48646 -769.50587 L 305.76971 -671.08303" />
    <path d="M 1112.48092 -312.17683 L -61.7083 -1369.67689" />
    <path d="M 1112.48092 -312.17683 L 1074.13756 -266.05751" />
    <path d="M 110.39541 1002.23863 L 111.08026 1002.85543" />
    <path d="M 341.26833 1175.23306 L 341.26833 956.35268" />
    <path d="M 111.08026 1221.73581 L 341.26833 1175.23306" />
    <path d="M -305.94003 562.35965 L -305.94003 540.6525" />
    <path d="M 1346.85907 206.7529 L 1346.85907 228.46004" />
    <path d="M -71.56187 -72.9757 L -56.22453 -91.42343" />
    <path d="M 509.61438 -440.29502 L 531.30466 -444.67691" />
    <path d="M 1097.14358 -324.42764 L 1112.48092 -312.17683" />
    <path d="M 158.39218 1147.05639 L 158.39218 1201.32425 L 159.89031 1202.6735 L 295.45454 1175.28672 L 295.45454 1121.01886 L 159.89031 1148.40564 L 159.89031 1202.6735" />
    <path d="M 293.95641 1119.66961 L 158.39218 1147.05639 L 159.89031 1148.40564" />
    <path d="M 293.95641 1119.66961 L 295.45454 1121.01886" />
    <path d="M -643.52341 916.69291 L -786.99555 945.67725 L -861.90191 604.06378 L -1011.71462 469.13923 L -1086.62097 675.82816 L -786.99555 945.67725" />
    <path d="M -718.42976 575.07944 L -861.90191 604.06378" />
    <path d="M -643.52341 916.69291 L -718.42976 575.07944 L -868.24247 440.15489 L -1011.71462 469.13923" />
    <path d="M -50.18459 -441.5155 A 3.5 2.86097 312.00688 0 0 -49.78748 -437.88537 L -46.19627 -434.65105" />
    <path d="M -45.10294 -443.08682 A 3.5 2.86097 312.00688 0 0 -50.18459 -441.5155" />
    <path d="M -728.45675 -17.83273 A 690.9233 564.77461 312.00688 0 0 -704.03373 -18.90439" />
    <path d="M -636.51066 -26.94803 A 690.9233 564.77461 312.00688 0 0 -452.92094 -86.23943" />
    <path d="M -347.13131 -147.40094 A 690.9233 564.77461 312.00688 0 0 -245.51568 -229.64223" />
    <path d="M -226.27577 -248.48106 A 690.9233 564.77461 312.00688 0 0 -89.91694 -429.82341" />
    <path d="M -38.78203 -540.90768 A 690.9233 564.77461 312.00688 0 0 3.36253 -727.69643" />
    <path d="M 5.46117 -795.74661 A 690.9233 564.77461 312.00688 0 0 2.54851 -842.70159" />
    <path d="M -30.37313 -983.18693 A 690.9233 564.77461 312.00688 0 0 -82.2765 -1083.285" />
    <path d="M -133.19614 -1146.15278 A 690.9233 564.77461 312.00688 0 0 -225.93053 -1220.28547" />
    <path d="M 396.10054 -172.97101 L 401.66502 -167.95952" />
    <path d="M 929.14388 -335.30799 L 923.57941 -340.31947" />
    <path d="M 370.22113 558.62375 L 364.65665 553.61227" />
    <path d="M -729.63554 -18.92028 L -739.90842 -28.17225" />
    <path d="M -1164.47653 97.64627 L -1174.7494 88.3943" />
    <path d="M -584.1032 112.14928 L -594.37607 102.89731" />
    <path d="M -438.57085 243.21884 L -448.84372 233.96687" />
    <path d="M -873.41184 359.78539 L -883.68471 350.53342" />
    <path d="M -727.87949 490.85495 L -738.15236 481.60298" />
    <path d="M 279.43836 1222.27738 L 279.43836 1192.39563" />
    <path d="M 98.68605 1258.79309 L 98.68605 1221.97926" />
    <path d="M -182.19533 981.78321 L -182.19533 1061.71042" />
    <path d="M -45.10294 -443.08682 L -42.93944 -441.13833" />
</svg>