<svg version="1.1" xmlns="http://www.w3.org/2000/svg" viewBox="-2601.983002557114 -1009.0246851478321 4674.41326431044 2640.0324433471587" fill="none" stroke="black" stroke-width="0.6%" vector-effect="non-scaling-stroke">
    <path d="M 1978.67501 849.42572 L 2041.8466 838.9708 L 2057.49547 839.71837 L 2058.98082 836.13508 L 2068.56215 834.54937 L 2061.63706 829.72711 L 2071.43026 806.10178 L 2024.48912 803.85933 L 1648.8124 542.25868" />
    <path d="M 1957.90215 834.96063 L 1978.67501 849.42572 L 1978.67501 943.48711 L 2041.8466 933.0322 L 2057.49547 933.77977 L 2058.98082 930.19648 L 2068.56215 928.61077" />
    <path d="M 1108.97278 794.40588 L 1957.90215 834.96063" />
    <path d="M 1108.97278 794.40588 L 1175.55975 763.30457" />
    <path d="M 1905.04417 798.15324 L 1175.55975 763.30457" />
    <path d="M 1582.22543 573.35999 L 1905.04417 798.15324" />
    <path d="M 1582.22543 573.35999 L 1648.8124 542.25868" />
    <path d="M 2041.8466 838.9708 L 2041.8466 933.0322" />
    <path d="M 1957.90215 929.02203 L 1978.67501 943.48711" />
    <path d="M 1957.90215 929.02203 L 1957.90215 834.96063" />
    <path d="M 1108.97278 888.46728 L 1957.90215 929.02203" />
    <path d="M 1108.97278 794.40588 L 1108.97278 888.46728" />
    <path d="M 1737.29355 201.39588 A 914.4 505.67543 283.86014 0 0 1916.49402 -523.38349 L 1908.24311 -525.4193 L 1818.55432 -483.52764 A 762 421.39619 103.86014 0 1 1687.96109 69.1796 L 1647.67721 59.24009 A 762 421.39619 103.86014 0 1 1642.65762 69.51664" />
    <path d="M 1826.80523 -481.49183 L 1916.49402 -523.38349" />
    <path d="M 1826.80523 -481.49183 A 762 421.39619 103.86014 0 1 1196.35346 453.28112 A 762 421.39619 103.86014 0 1 930.97995 -63.07157 L 841.29116 -21.17991 A 914.4 505.67543 283.86014 0 0 1020.49163 536.19826 L 1020.49163 931.29986 L 1111.89593 888.60692" />
    <path d="M 1361.17974 772.17194 L 1583.51901 668.32217" />
    <path d="M 1730.95482 599.45815 L 1737.29355 596.49747 L 1737.29355 201.39588" />
    <path d="M 1582.22543 573.35999 L 1582.22543 667.42139 L 1760.01604 791.22501" />
    <path d="M 2071.43026 806.10178 L 2071.43026 900.16318" />
    <path d="M 2068.56215 907.08226 L 2071.43026 900.16318" />
    <path d="M 2068.56215 834.54937 L 2068.56215 928.61077" />
    <path d="M 2058.98082 930.19648 L 2058.98082 836.13508" />
    <path d="M 2057.49547 839.71837 L 2057.49547 933.77977" />
    <path d="M 1500.61202 243.12288 L 1569.96303 260.23433" />
    <path d="M 1412.75757 121.3209 L 1412.75757 128.72373" />
    <path d="M 1086.76555 141.01172 L 1144.70491 155.3075" />
    <path d="M 1086.76555 40.88667 L 1086.76555 141.01172 L 1051.48986 157.48822 L 1051.48986 31.60643" />
    <path d="M 947.16926 106.56818 L 1041.7829 129.91285" />
    <path d="M 1086.76555 177.47939 L 1086.76555 182.3697" />
    <path d="M 1064.12348 -13.11681 L 973.03714 -35.59117" />
    <path d="M 1108.50621 -2.16596 A 914.4 505.67543 103.86014 0 1 1086.76555 40.88667" />
    <path d="M 1390.1155 67.31742 L 1379.97944 64.81648" />
    <path d="M 1319.97944 50.01227 L 1108.50621 -2.16596 L 1083.56253 -30.42219 A 854.4 472.49463 103.86014 0 1 1051.48986 31.60643" />
    <path d="M 1434.49823 78.26827 A 914.4 505.67543 103.86014 0 1 1412.75757 121.3209" />
    <path d="M 1654.90031 132.64958 L 1434.49823 78.26827 L 1409.55456 50.01204 A 854.4 472.49463 103.86014 0 1 1379.97944 107.49479" />
    <path d="M 1591.95805 -603.45847 A 914.4 505.67543 103.86014 0 1 1448.67302 48.09055" />
    <path d="M 1591.95805 -603.45847 L 1582.25109 -605.85353 L 1546.9754 -589.37703 A 854.4 472.49463 103.86014 0 1 1404.8013 37.26579 L 1379.97944 31.14132" />
    <path d="M 1265.96602 -683.8927 A 914.4 505.67543 103.86014 0 1 1190.18061 -208.1901" />
    <path d="M 1183.10777 -186.43055 A 914.4 505.67543 103.86014 0 1 1122.681 -32.34368" />
    <path d="M 1265.96602 -683.8927 L 1256.25907 -686.28776 L 1220.98338 -669.81127 A 854.4 472.49463 103.86014 0 1 1149.25198 -222.43695" />
    <path d="M 939.974 -764.32693 A 914.4 505.67543 103.86014 0 1 867.54591 -299.33341" />
    <path d="M 939.974 -764.32693 L 930.26704 -766.72199 L 894.99136 -750.2455 A 854.4 472.49463 103.86014 0 1 823.25996 -302.87119" />
    <path d="M 613.98198 -844.76116 A 914.4 505.67543 103.86014 0 1 541.55389 -379.76764" />
    <path d="M 613.98198 -844.76116 L 604.27502 -847.15622 L 568.99934 -830.67973 A 854.4 472.49463 103.86014 0 1 497.26794 -383.30542" />
    <path d="M 287.98996 -925.19539 A 914.4 505.67543 103.86014 0 1 215.56187 -460.20187" />
    <path d="M 287.98996 -925.19539 L 278.283 -927.59045 L 243.00731 -911.11396 A 854.4 472.49463 103.86014 0 1 171.27591 -463.73965" />
    <path d="M -38.00206 -1005.62962 A 914.4 505.67543 103.86014 0 1 -112.08301 -535.33163" />
    <path d="M -38.00206 -1005.62962 L -47.70902 -1008.02468 L -361.30986 -861.54864 L -361.30986 -552.06663" />
    <path d="M 1826.80523 -481.49183 L 1818.55432 -483.52764" />
    <path d="M 1682.9415 79.45615 A 762 421.39619 103.86014 0 1 1192.23728 452.22561" />
    <path d="M 1682.9415 79.45615 L 1642.65762 69.51664" />
    <path d="M 930.97995 -63.07157 L 882.44516 -75.04689" />
    <path d="M 828.03205 -49.63173 L 882.44516 -75.04689" />
    <path d="M 828.03205 -49.63173 L 403.50908 -154.37717" />
    <path d="M 265.67818 -188.38513 L 78.9731 -234.45214" />
    <path d="M 19.77243 -249.05913 L -141.17109 -288.76982" />
    <path d="M -306.21959 -329.49336 L -539.16473 -386.9695" />
    <path d="M -632.21161 -409.92759 L -865.15675 -467.40373" />
    <path d="M -958.20364 -490.36182 L -1047.35233 -512.35808 L -981.42952 -543.14918" />
    <path d="M -932.84581 -565.84156 L -896.14585 -582.9833" />
    <path d="M -944.68064 -594.95862 L -946.59497 -594.06448" />
    <path d="M -996.26044 -570.86683 L -1131.16281 -507.85691 A 914.4 505.67543 283.86014 0 0 -1131.11651 -496.59116" />
    <path d="M 841.29116 -21.17991 L 411.27238 -127.28137" />
    <path d="M 280.65834 -159.50867 L 86.7364 -207.35635" />
    <path d="M 29.78969 -221.4072 L -167.864 -270.17564" />
    <path d="M -296.20234 -301.84143 L -560.89474 -367.15079" />
    <path d="M -622.19436 -382.27566 L -886.88677 -447.58502" />
    <path d="M -948.18638 -462.70989 L -1131.16281 -507.85691" />
    <path d="M 1012.24072 534.16246 L 1020.49163 536.19826" />
    <path d="M 1012.24072 534.16246 A 914.4 505.67543 103.86014 0 1 995.52153 517.00258 L 679.23646 438.96341" />
    <path d="M 695.95566 456.12329 A 914.4 505.67543 103.86014 0 1 679.23646 438.96341" />
    <path d="M 686.2487 453.72823 L 695.95566 456.12329" />
    <path d="M 686.2487 453.72823 A 914.4 505.67543 103.86014 0 1 669.5295 436.56835 L 430.84903 377.67709" />
    <path d="M 337.43087 354.62739 L 106.31305 297.60212" />
    <path d="M 63.84684 287.12414 L 27.25242 278.09495" />
    <path d="M 43.97161 295.25483 A 914.4 505.67543 103.86014 0 1 27.25242 278.09495" />
    <path d="M 34.26465 292.85976 L 43.97161 295.25483" />
    <path d="M 34.26465 292.85976 A 914.4 505.67543 103.86014 0 1 17.54546 275.69988 L -219.67897 217.16789" />
    <path d="M -262.14518 206.68991 L -298.7396 197.66072" />
    <path d="M -282.02041 214.8206 A 914.4 505.67543 103.86014 0 1 -298.7396 197.66072" />
    <path d="M -291.72737 212.42553 L -282.02041 214.8206" />
    <path d="M -291.72737 212.42553 A 914.4 505.67543 103.86014 0 1 -308.44656 195.26565 L -457.27385 158.54448" />
    <path d="M -544.06341 137.1303 L -545.67099 136.73365" />
    <path d="M -588.1372 126.25568 L -624.73163 117.22649" />
    <path d="M -608.01243 134.38637 A 914.4 505.67543 103.86014 0 1 -624.73163 117.22649" />
    <path d="M -617.71939 131.9913 L -608.01243 134.38637" />
    <path d="M -617.71939 131.9913 A 914.4 505.67543 103.86014 0 1 -634.43858 114.83142 L -827.58922 67.17405" />
    <path d="M -870.05543 56.69607 L -871.66302 56.29942" />
    <path d="M -914.12922 45.82145 L -950.72365 36.79226" />
    <path d="M -934.00446 53.95214 A 914.4 505.67543 103.86014 0 1 -950.72365 36.79226" />
    <path d="M -943.71141 51.55707 L -934.00446 53.95214" />
    <path d="M -943.71141 51.55707 A 914.4 505.67543 103.86014 0 1 -960.43061 34.39719 L -968.68152 32.36139" />
    <path d="M -973.70299 26.7778 A 914.4 505.67543 283.86014 0 0 -968.68152 32.36139" />
    <path d="M -965.45208 28.81361 L -973.70299 26.7778" />
    <path d="M -965.45208 28.81361 A 914.4 505.67543 103.86014 0 1 -1058.48732 -127.64851" />
    <path d="M -1072.15056 -164.6949 A 914.4 505.67543 103.86014 0 1 -1078.59631 -184.56328" />
    <path d="M -1095.64006 -248.0944 A 914.4 505.67543 103.86014 0 1 -1122.8656 -494.55536 L -1131.11651 -496.59116" />
    <path d="M 990.50006 511.41899 L 674.21499 433.37983 L 699.15867 381.82231 A 854.4 472.49463 103.86014 0 1 644.26074 303.29997" />
    <path d="M 990.50006 511.41899 A 914.4 505.67543 103.86014 0 1 833.08654 -11.94997 L 516.80147 -89.98914" />
    <path d="M 674.21499 433.37983 A 914.4 505.67543 103.86014 0 1 516.80147 -89.98914" />
    <path d="M 664.50803 430.98476 L 431.45024 373.48083" />
    <path d="M 664.50803 430.98476 A 914.4 505.67543 103.86014 0 1 507.09451 -92.38421 L 414.41477 -115.25171" />
    <path d="M 286.52729 -146.80626 L 190.80945 -170.42337" />
    <path d="M 339.04621 342.18684 A 914.4 505.67543 103.86014 0 1 233.9279 135.8252" />
    <path d="M 223.02221 96.69974 A 914.4 505.67543 103.86014 0 1 190.80945 -170.42337" />
    <path d="M 337.99051 350.42087 L 106.91427 293.40586" />
    <path d="M 64.41828 282.92053 L 22.23095 272.51137 L 47.17462 220.95385 A 854.4 472.49463 103.86014 0 1 -7.72331 142.4315" />
    <path d="M 338.04382 350.01469 A 914.4 505.67543 103.86014 0 1 224.22095 133.43014" />
    <path d="M 213.31525 94.30468 A 914.4 505.67543 103.86014 0 1 181.10249 -172.81844 L 89.8788 -195.32668" />
    <path d="M 33.82012 -209.15842 L -135.18257 -250.8576" />
    <path d="M 22.23095 272.51137 A 914.4 505.67543 103.86014 0 1 -92.06412 55.39097" />
    <path d="M -102.96981 16.26551 A 914.4 505.67543 103.86014 0 1 -135.18257 -250.8576" />
    <path d="M 12.52399 270.1163 L -219.07776 212.97163" />
    <path d="M -261.57375 202.4863 L -303.76107 192.07713 L -278.8174 140.51962 A 854.4 472.49463 103.86014 0 1 -333.71533 61.99727" />
    <path d="M 12.52399 270.1163 A 914.4 505.67543 103.86014 0 1 -101.77108 52.99591" />
    <path d="M -112.67677 13.87045 A 914.4 505.67543 103.86014 0 1 -144.88953 -253.25267 L -178.96796 -261.66107" />
    <path d="M -300.22684 -291.5801 L -461.17459 -331.29183" />
    <path d="M -303.76107 192.07713 A 914.4 505.67543 103.86014 0 1 -400.42992 26.34406" />
    <path d="M -437.07238 -98.95142 A 914.4 505.67543 103.86014 0 1 -461.17459 -331.29183" />
    <path d="M -313.46803 189.68207 L -455.81258 154.56043" />
    <path d="M -542.64371 133.136 L -545.06978 132.5374" />
    <path d="M -587.56577 122.05207 L -629.7531 111.6429 L -604.80942 60.08539 A 854.4 472.49463 103.86014 0 1 -659.70735 -18.43696" />
    <path d="M -313.46803 189.68207 A 914.4 505.67543 103.86014 0 1 -405.30665 36.19117" />
    <path d="M -443.65602 -87.22594 A 914.4 505.67543 103.86014 0 1 -470.88155 -333.6869 L -562.10525 -356.19514" />
    <path d="M -626.21886 -372.01433 L -787.16662 -411.72606" />
    <path d="M -629.7531 111.6429 A 914.4 505.67543 103.86014 0 1 -722.78834 -44.81922" />
    <path d="M -736.45158 -81.8656 A 914.4 505.67543 103.86014 0 1 -744.04816 -105.47749" />
    <path d="M -763.06441 -179.38565 A 914.4 505.67543 103.86014 0 1 -787.16662 -411.72606" />
    <path d="M -639.46006 109.24784 L -826.13974 63.18709" />
    <path d="M -868.63573 52.70177 L -871.0618 52.10316" />
    <path d="M -913.55779 41.61784 L -955.74512 31.20867 L -902.71778 -78.39657" />
    <path d="M -639.46006 109.24784 A 914.4 505.67543 103.86014 0 1 -732.49529 -47.21428" />
    <path d="M -746.15853 -84.26067 A 914.4 505.67543 103.86014 0 1 -752.60429 -104.12905" />
    <path d="M -769.64804 -167.66017 A 914.4 505.67543 103.86014 0 1 -796.87357 -414.12113 L -888.09727 -436.62937" />
    <path d="M -952.21088 -452.44856 L -1113.15864 -492.1603" />
    <path d="M -955.74512 31.20867 A 914.4 505.67543 103.86014 0 1 -1048.78036 -125.25345" />
    <path d="M -1062.4436 -162.29983 A 914.4 505.67543 103.86014 0 1 -1070.04018 -185.91172" />
    <path d="M -1089.05643 -259.81988 A 914.4 505.67543 103.86014 0 1 -1113.15864 -492.1603" />
    <path d="M -59.17089 664.90737 L -40.7213 669.45956" />
    <path d="M 2.41145 680.102 L 227.58541 735.66071" />
    <path d="M 326.94743 760.17697 L 1020.49163 931.29986" />
    <path d="M -943.71141 200.813 L -943.71141 162.96949 L -951.96233 160.93368" />
    <path d="M -951.96233 149.64632 L -951.96233 160.93368" />
    <path d="M -943.71141 151.68212 L -951.96233 149.64632 L -943.71141 145.7925" />
    <path d="M -943.71141 151.68212 L -943.71141 51.55707" />
    <path d="M -934.00446 154.07718 L -934.00446 53.95214" />
    <path d="M -617.71939 232.11635 L -861.26731 172.02411" />
    <path d="M -933.08797 154.30331 L -934.00446 154.07718" />
    <path d="M -617.71939 232.11635 L -617.71939 131.9913" />
    <path d="M -608.01243 234.51142 L -608.01243 134.38637" />
    <path d="M -470.02589 268.55777 L -490.76388 263.44095" />
    <path d="M -607.09595 234.73755 L -608.01243 234.51142" />
    <path d="M -485.83863 275.94356 L -493.63105 274.02088" />
    <path d="M 74.71031 602.37441 L 263.62573 648.9868" />
    <path d="M 359.73446 672.70036 L 360.25667 672.82921 L 360.25667 671.1694" />
    <path d="M 315.90085 473.7622 L 84.52838 416.67409" />
    <path d="M 34.26465 442.11569 L 34.26465 404.27218 L -18.69494 391.2051" />
    <path d="M -24.29925 378.53494 L -18.69494 391.2051" />
    <path d="M 34.26465 392.98481 L -24.29925 378.53494 L -23.9465 378.37018" />
    <path d="M 34.26465 392.98481 L 34.26465 292.85976" />
    <path d="M 43.97161 395.37988 L 43.97161 295.25483" />
    <path d="M 318.28406 463.06286 L 86.86271 405.96269" />
    <path d="M 44.8881 395.60601 L 43.97161 395.37988" />
    <path d="M 686.2487 553.85328 L 411.39869 486.03766" />
    <path d="M 686.2487 553.85328 L 686.2487 453.72823" />
    <path d="M 695.95566 556.24834 L 695.95566 456.12329" />
    <path d="M 1012.24072 634.28751 L 695.95566 556.24834" />
    <path d="M 1012.24072 634.28751 L 1012.24072 534.16246" />
    <path d="M 369.96363 675.22427 L 369.96363 641.74498" />
    <path d="M 369.96363 675.22427 L 686.2487 753.26344 L 686.2487 565.14064 L 409.06436 496.74906" />
    <path d="M 695.95566 755.6585 L 695.95566 567.53571" />
    <path d="M 695.95566 755.6585 L 1012.24072 833.69767 L 1012.24072 645.57487 L 695.95566 567.53571" />
    <path d="M -617.71939 281.24723 L -617.71939 243.40372 L -864.20385 182.58693" />
    <path d="M 1544.77522 290.48724 L 1500.61202 279.59055" />
    <path d="M 731.23134 576.23952 L 731.23134 682.74517 L 880.43763 613.0542" />
    <path d="M 959.50133 632.56212 L 695.95566 755.6585" />
    <path d="M 731.23134 675.8162 L 870.73067 610.65914" />
    <path d="M 1093.61649 179.16977 L 1051.48986 168.77558" />
    <path d="M 405.23932 513.60614 L 405.23932 602.31094 L 554.4456 532.61997" />
    <path d="M 1051.48986 182.23888 L 1051.48986 168.77558" />
    <path d="M 633.50931 552.12789 L 369.96363 675.22427" />
    <path d="M 405.23932 595.38197 L 544.73865 530.2249" />
    <path d="M 1041.7829 179.84382 L 1041.7829 166.38052 L 955.39394 145.06518" />
    <path d="M 79.2473 439.74154 L 79.2473 521.87671 L 228.45358 452.18574" />
    <path d="M 307.51728 471.69366 L 67.01951 584.02488" />
    <path d="M 950.75378 -13.93204 L 1011.02274 122.32318" />
    <path d="M 1000.92117 169.76172 L 1019.78221 160.95214" />
    <path d="M 79.2473 514.94774 L 218.74662 449.79067" />
    <path d="M 1041.7829 155.09315 L 952.6232 133.09417" />
    <path d="M 1041.7829 155.09315 L 1041.7829 29.21137 L 1051.48986 31.60643" />
    <path d="M 1073.85558 -32.81725 A 854.4 472.49463 103.86014 0 1 1041.7829 29.21137" />
    <path d="M 1109.42923 171.78399 L 1051.48986 157.48822" />
    <path d="M 1399.8476 47.61698 A 854.4 472.49463 103.86014 0 1 1379.97944 86.99741" />
    <path d="M 731.23134 539.77184 L 695.95566 556.24834" />
    <path d="M 731.23134 539.77184 L 1007.23253 607.8715" />
    <path d="M 1012.24072 605.53228 L 1007.23253 607.8715" />
    <path d="M 1552.79633 281.17898 L 1500.61202 268.30318" />
    <path d="M 1073.85558 -32.81725 L 995.94573 -52.04048" />
    <path d="M 1399.8476 47.61698 L 1379.97944 42.71477" />
    <path d="M 1319.97944 27.91056 L 1083.56253 -30.42219" />
    <path d="M 1671.43277 102.11317 L 1642.65762 69.51664" />
    <path d="M 1665.57967 113.18286 L 1409.55456 50.01204" />
    <path d="M 1670.99767 102.94623 L 1414.50826 39.66085" />
    <path d="M 1556.68236 -586.98197 A 854.4 472.49463 103.86014 0 1 1414.50826 39.66085" />
    <path d="M 1591.95805 -603.45847 L 1556.68236 -586.98197 L 1546.9754 -589.37703" />
    <path d="M 1319.97944 16.33711 L 1088.51623 -40.77338" />
    <path d="M 1135.513 -152.25554 A 854.4 472.49463 103.86014 0 1 1088.51623 -40.77338" />
    <path d="M 1169.31065 -224.87695 L 1158.95894 -220.04189 L 1149.25198 -222.43695" />
    <path d="M 1230.69034 -667.4162 A 854.4 472.49463 103.86014 0 1 1158.95894 -220.04189" />
    <path d="M 1265.96602 -683.8927 L 1230.69034 -667.4162 L 1220.98338 -669.81127" />
    <path d="M 1120.94193 -141.79291 A 854.4 472.49463 103.86014 0 1 1078.80928 -43.16844 L 1007.9417 -60.65408" />
    <path d="M 843.31863 -305.31118 L 832.96692 -300.47612 L 823.25996 -302.87119" />
    <path d="M 904.69832 -747.85043 A 854.4 472.49463 103.86014 0 1 832.96692 -300.47612" />
    <path d="M 939.974 -764.32693 L 904.69832 -747.85043 L 894.99136 -750.2455" />
    <path d="M 517.3266 -385.74541 L 506.9749 -380.91035 L 497.26794 -383.30542" />
    <path d="M 578.7063 -828.28466 A 854.4 472.49463 103.86014 0 1 506.9749 -380.91035" />
    <path d="M 613.98198 -844.76116 L 578.7063 -828.28466 L 568.99934 -830.67973" />
    <path d="M 191.33458 -466.17964 L 180.98287 -461.34458 L 171.27591 -463.73965" />
    <path d="M 252.71427 -908.71889 A 854.4 472.49463 103.86014 0 1 180.98287 -461.34458" />
    <path d="M 287.98996 -925.19539 L 252.71427 -908.71889 L 243.00731 -911.11396" />
    <path d="M -351.6029 -859.15358 L -351.6029 -554.59906" />
    <path d="M -38.00206 -1005.62962 L -351.6029 -859.15358" />
    <path d="M -361.30986 -861.54864 L -351.6029 -859.15358" />
    <path d="M -361.30986 -437.55778 L -361.30986 -418.92326" />
    <path d="M 939.69244 441.17085 L 699.15867 381.82231" />
    <path d="M 623.76226 262.63462 A 854.4 472.49463 103.86014 0 1 552.55808 -81.16667" />
    <path d="M 297.77024 182.20039 A 854.4 472.49463 103.86014 0 1 283.42162 148.03712" />
    <path d="M 269.37392 108.13641 A 854.4 472.49463 103.86014 0 1 226.56606 -161.6009" />
    <path d="M -28.22178 101.76615 A 854.4 472.49463 103.86014 0 1 -42.5704 67.60289" />
    <path d="M -56.6181 27.70218 A 854.4 472.49463 103.86014 0 1 -99.42596 -242.03513" />
    <path d="M -354.2138 21.33192 A 854.4 472.49463 103.86014 0 1 -368.56243 -12.83134" />
    <path d="M -406.98757 -149.18798 A 854.4 472.49463 103.86014 0 1 -425.41798 -322.46936" />
    <path d="M -684.64297 -69.08251 A 854.4 472.49463 103.86014 0 1 -694.55445 -93.26557" />
    <path d="M -708.60214 -133.16628 A 854.4 472.49463 103.86014 0 1 -718.21457 -165.72393" />
    <path d="M -732.97959 -229.62221 A 854.4 472.49463 103.86014 0 1 -751.41001 -402.90359" />
    <path d="M -1031.53959 -508.4565 L -976.94652 -533.95572" />
    <path d="M -928.67196 -556.50371 L -880.33311 -579.08172" />
    <path d="M -799.6041 161.84779 L -799.6041 124.41536" />
    <path d="M -799.6041 -291.52816 L -799.6041 -414.79485" />
    <path d="M -799.6041 -451.22948 L -799.6041 -517.36827" />
    <path d="M -799.6041 -291.52816 L -789.79038 -289.10675" />
    <path d="M -799.6041 91.30174 L -799.6041 74.07901" />
    <path d="M -799.6041 12.02237 L -799.6041 -4.25766" />
    <path d="M -769.02718 98.84619 L -799.6041 91.30174 L -842.85372 111.50269" />
    <path d="M -769.02718 98.84619 L -769.02718 110.13356 L -852.33911 149.04673" />
    <path d="M 731.23134 451.79246 L 731.23134 539.77184" />
    <path d="M 45.04198 394.87993 L 43.97161 395.37988" />
    <path d="M -282.02041 229.24735 L -282.02041 214.8206" />
    <path d="M -281.66765 229.08258 L -282.02041 229.24735" />
    <path d="M -291.72737 226.85228 L -291.72737 212.42553" />
    <path d="M -291.72737 226.85228 L -282.02041 229.24735" />
    <path d="M -606.94206 234.01147 L -608.01243 234.51142" />
    <path d="M -793.73746 -216.94585 L -783.20035 -238.72562" />
    <path d="M -932.93409 153.57724 L -934.00446 154.07718" />
    <path d="M -971.37136 21.95842 L -973.70299 26.7778" />
    <path d="M 613.41055 267.46967 L 623.76226 262.63462" />
    <path d="M 613.41055 295.68809 L 613.41055 267.46967 L 889.41174 335.56932 L 889.9426 335.32137" />
    <path d="M 613.70041 360.73662 L 438.38305 317.47937" />
    <path d="M 287.41853 187.03544 L 297.77024 182.20039" />
    <path d="M 287.41853 215.25386 L 287.41853 187.03544 L 308.46016 192.22719" />
    <path d="M 346.20511 267.29084 A 854.4 472.49463 103.86014 0 1 318.26871 222.86574" />
    <path d="M 287.70839 280.30239 L 113.84707 237.4044" />
    <path d="M 70.87117 226.80066 L 47.17462 220.95385" />
    <path d="M -38.57349 106.60121 L -28.22178 101.76615" />
    <path d="M -38.57349 134.81963 L -38.57349 106.60121 L 76.60457 135.01988" />
    <path d="M -38.28363 199.86816 L -212.14495 156.97017" />
    <path d="M -255.12085 146.36643 L -278.8174 140.51962" />
    <path d="M -364.56551 26.16698 L -354.2138 21.33192" />
    <path d="M -364.56551 54.3854 L -364.56551 26.16698 L -249.38745 54.58565" />
    <path d="M -364.27565 119.43392 L -435.11889 101.95429" />
    <path d="M -522.73145 80.33705 L -538.13697 76.53594" />
    <path d="M -581.11287 65.9322 L -604.80942 60.08539" />
    <path d="M -690.55754 -26.04883 L -690.55754 -36.8667" />
    <path d="M -690.26767 38.99969 L -805.74757 10.50655" />
    <path d="M -848.72347 -0.09718 L -864.129 -3.89829" />
    <path d="M -803.71493 -212.28559 L -785.01413 -250.93936" />
    <path d="M -847.93429 -191.6317 L -799.6041 -291.52816" />
    <path d="M 416.35067 462.07919 L 686.2487 528.67297" />
    <path d="M 91.81469 382.00422 L 323.29428 439.11876" />
    <path d="M -36.3238 350.38774 L 34.26465 367.80451" />
    <path d="M -301.66797 392.01647 L -300.30311 395.10214" />
    <path d="M -272.98819 456.85532 L -165.93153 698.88757" />
    <path d="M -89.84075 679.23259 L -33.94657 653.12565" />
    <path d="M 23.22852 626.42042 L 74.71031 602.37441 L 75.06307 602.20965" />
    <path d="M 50.28552 546.19289 L 75.06307 602.20965" />
    <path d="M -18.21716 391.32299 L 23.15482 484.85619" />
    <path d="M -66.49674 282.17317 L -23.9465 378.37018" />
    <path d="M -301.66797 392.01647 L -299.16731 390.84847" />
    <path d="M -248.64384 367.25007 L -66.49674 282.17317" />
    <path d="M -670.45878 230.39097 L -866.54975 321.98074" />
    <path d="M -484.06135 239.9144 L -434.75021 252.08128" />
    <path d="M -854.44268 148.5277 L -617.71939 206.93605" />
    <path d="M 1201.94455 454.21798 L 1201.94455 289.90165 L 1500.61202 150.40065 L 1379.97944 120.63616" />
    <path d="M 1183.37578 285.32005 L 1201.94455 289.90165" />
    <path d="M 1319.97944 105.83195 L 1274.60167 94.63558 L 1074.75544 187.97935" />
    <path d="M 1500.61202 336.64846 L 1500.61202 150.40065" />
    <path d="M 889.41174 363.78774 L 889.41174 335.56932" />
    <path d="M 1128.26974 312.16702 L 1034.31722 332.47154" />
    <path d="M 900.11102 361.47547 L 889.41174 363.78774" />
    <path d="M 1128.26974 312.16702 L 1140.55101 431.68933" />
    <path d="M 1183.37578 449.6784 L 1183.37578 245.29589" />
    <path d="M 1153.97937 211.99561 A 50 27.65067 103.86014 0 1 1165.95701 210.48214 A 50 27.65067 103.86014 0 1 1183.37578 245.29589" />
    <path d="M 1004.43539 281.84431 L 1153.97937 211.99561" />
    <path d="M -352.12786 -423.21197 L -368.64816 -415.4957 L -343.93206 -409.39733" />
    <path d="M -398.04456 -354.73459 L -398.04456 -352.14996" />
    <path d="M -398.04456 -315.71533 L -398.04456 -175.41462" />
    <path d="M -368.64816 -415.4957 A 50 27.65067 283.86014 0 0 -398.04456 -354.73459 L -307.33276 -332.35265" />
    <path d="M -799.59558 162.0605 L -799.6041 161.84779" />
    <path d="M -755.50949 211.79822 A 75 41.476 103.86014 0 1 -773.47594 214.06842 A 75 41.476 103.86014 0 1 -790.31759 200.81739" />
    <path d="M -752.15794 210.23278 L -755.50949 211.79822" />
    <path d="M -765.21645 209.40315 A 75 41.476 103.86014 0 1 -778.19844 212.34005" />
    <path d="M -761.8649 207.83772 L -765.21645 209.40315 L -755.50949 211.79822" />
    <path d="M 951.32261 -19.99924 L 1190.18061 -191.50914 L 1190.18061 -219.72756 L 925.61297 -96.15384" />
    <path d="M 1169.31065 -224.87695 L 1190.18061 -219.72756" />
    <path d="M -104.08052 -539.06942 L -128.97329 -527.44255" />
    <path d="M -104.08052 -539.06942 L 173.44759 -470.59302" />
    <path d="M 191.33458 -466.17964 L 499.43961 -390.15879" />
    <path d="M 517.3266 -385.74541 L 825.43163 -309.72456" />
    <path d="M 843.31863 -305.31118 L 1151.42365 -229.29033" />
    <path d="M -721.405 -250.73075 L -735.64821 -244.07806" />
    <path d="M -780.66097 -223.05359 L -793.73746 -216.94585 L -803.71493 -212.28559 L -856.15881 -187.79021" />
    <path d="M -932.72055 -152.02991 L -963.17317 -137.80616" />
    <path d="M -205.26125 65.4732 L -87.88058 94.43534" />
    <path d="M 120.73077 145.90744 L 238.11144 174.86957" />
    <path d="M 445.26675 225.98241 L 564.10347 255.3038" />
    <path d="M -769.02718 98.84619 L -850.98398 137.12641" />
    <path d="M -281.66765 229.08258 L -265.99105 232.95058" />
    <path d="M -223.69227 243.38725 L -66.49674 282.17317" />
    <path d="M -509.64928 340.69983 L -301.66797 392.01647" />
    <path d="M -349.61636 212.31714 L -291.72737 226.60048" />
    <path d="M -495.30734 280.36618 L -349.61636 212.31714" />
    <path d="M -718.62715 -251.81777 A 50 27.65067 283.86014 0 0 -721.405 -250.73075 L -719.63497 -250.29401" />
    <path d="M -712.79128 183.47831 L -722.06657 93.21037" />
    <path d="M -728.60895 29.53949 L -735.4592 -37.12773" />
    <path d="M 613.41055 295.68809 L 889.41174 363.78774" />
    <path d="M 287.41853 215.25386 L 348.08283 230.22197" />
    <path d="M 443.76608 253.83055 L 576.42083 286.56137" />
    <path d="M -38.57349 134.81963 L 75.50678 162.96743" />
    <path d="M 119.2301 173.75558 L 250.42881 206.12713" />
    <path d="M -364.56551 54.3854 L -250.48524 82.5332" />
    <path d="M -206.76192 93.32135 L -75.56321 125.6929" />
    <path d="M -690.55754 -26.04883 L -576.47726 2.09897" />
    <path d="M -532.75394 12.88712 L -497.89007 21.48932" />
    <path d="M -408.83542 43.46238 L -401.55523 45.25867" />
    <path d="M -985.97264 -98.93861 L -902.46929 -78.33526" />
    <path d="M -858.74596 -67.54711 L -823.8821 -58.94491" />
    <path d="M -780.15878 -48.15676 L -727.54726 -35.17556" />
    <path d="M -985.97264 -98.93861 L -985.97264 -109.75647" />
    <path d="M 1374.24684 146.08071 A 30 10.18434 360 0 1 1319.97944 140.09305" />
    <path d="M 1379.97944 140.09305 A 30 10.18434 360 0 1 1374.24684 146.08071" />
    <path d="M -138.26405 -290.63718 L 18.65927 -251.91842" />
    <path d="M 78.11532 -237.24842 L 263.9734 -191.39039" />
    <path d="M 402.6513 -157.17345 L 831.65292 -51.32296" />
    <path d="M 942.19081 77.40269 L 951.32261 -19.99924" />
    <path d="M 903.52714 -69.84519 A 50 27.65067 103.86014 0 1 925.61297 -96.15384" />
    <path d="M 1374.24684 -136.10349 A 30 10.18434 360 0 1 1319.97944 -142.09115 L 1319.97944 140.09305" />
    <path d="M 1319.97944 -142.09115 A 30 10.18434 360 1 1 1379.97944 -142.09115 L 1379.97944 140.09305" />
    <path d="M 1379.97944 -142.09115 A 30 10.18434 360 0 1 1374.24684 -136.10349" />
    <path d="M 508.85482 1535.94636 L 572.0264 1525.49144 L 572.0264 1619.55284 L 587.67527 1620.30041 L 589.16062 1616.71712 L 598.74196 1615.13141" />
    <path d="M 488.08195 1521.48128 L 508.85482 1535.94636 L 508.85482 1630.00776 L 572.0264 1619.55284" />
    <path d="M -360.84742 1480.92652 L 488.08195 1521.48128" />
    <path d="M -360.84742 1480.92652 L -294.26044 1449.82521" />
    <path d="M 435.22398 1484.67389 L -294.26044 1449.82521" />
    <path d="M 112.40523 1259.88063 L 435.22398 1484.67389" />
    <path d="M 112.40523 1259.88063 L 178.99221 1228.77932" />
    <path d="M 554.66893 1490.37997 L 178.99221 1228.77932" />
    <path d="M 601.61007 1492.62242 L 554.66893 1490.37997" />
    <path d="M 591.81686 1516.24775 L 601.61007 1492.62242 L 601.61007 1586.68382" />
    <path d="M 598.74196 1521.07001 L 591.81686 1516.24775" />
    <path d="M 589.16062 1522.65572 L 598.74196 1521.07001 L 598.74196 1615.13141" />
    <path d="M 587.67527 1526.23901 L 589.16062 1522.65572" />
    <path d="M 572.0264 1525.49144 L 587.67527 1526.23901 L 587.67527 1620.30041" />
    <path d="M 488.08195 1615.54268 L 508.85482 1630.00776" />
    <path d="M 488.08195 1615.54268 L 488.08195 1521.48128" />
    <path d="M -360.84742 1574.98792 L 488.08195 1615.54268" />
    <path d="M -360.84742 1480.92652 L -360.84742 1574.98792" />
    <path d="M -449.32856 1222.7189 A 914.4 505.67543 103.86014 0 1 128.11935 -473.53682 L 119.86844 -475.57262" />
    <path d="M 128.11935 -473.53682 A 914.4 505.67543 103.86014 0 1 267.47335 887.91652" />
    <path d="M -449.32856 1222.7189 L -449.32856 1617.8205 L -357.92427 1575.12757" />
    <path d="M -108.64045 1458.69259 L 113.69881 1354.84281" />
    <path d="M 261.13462 1285.97879 L 267.47335 1283.01811 L 267.47335 887.91652" />
    <path d="M 112.40523 1259.88063 L 112.40523 1353.94203 L 290.19584 1477.74565" />
    <path d="M -90.92761 -316.75922 A 762 421.39619 283.86014 0 0 -273.46673 1139.80177 A 762 421.39619 283.86014 1 0 91.61152 -339.82449 A 762 421.39619 283.86014 0 0 -90.92761 -316.75922 Z" />
    <path d="M 598.74196 1593.60291 L 601.61007 1586.68382" />
    <path d="M 589.16062 1616.71712 L 589.16062 1522.65572" />
    <path d="M -106.23366 -444.52493 L -422.51872 -522.5641 L -422.51872 -466.12205" />
    <path d="M -795.6052 -96.46098 A 914.4 505.67543 103.86014 0 1 -422.51872 -522.5641" />
    <path d="M -479.32014 -18.42181 L -795.6052 -96.46098" />
    <path d="M -479.32014 -18.42181 A 914.4 505.67543 103.86014 0 1 -106.23366 -444.52493" />
    <path d="M -432.22568 -524.95916 L -748.51074 -602.99833 L -748.51074 -546.55629" />
    <path d="M -1121.59723 -176.89521 A 914.4 505.67543 103.86014 0 1 -748.51074 -602.99833" />
    <path d="M -805.31216 -98.85604 L -1121.59723 -176.89521" />
    <path d="M -805.31216 -98.85604 A 914.4 505.67543 103.86014 0 1 -432.22568 -524.95916" />
    <path d="M -758.2177 -605.39339 L -1074.50276 -683.43256 L -1074.50276 -626.99052" />
    <path d="M -1447.58925 -257.32944 A 914.4 505.67543 103.86014 0 1 -1074.50276 -683.43256" />
    <path d="M -1131.30418 -179.29027 L -1447.58925 -257.32944" />
    <path d="M -1131.30418 -179.29027 A 914.4 505.67543 103.86014 0 1 -758.2177 -605.39339" />
    <path d="M -1084.20972 -685.82762 L -1400.49479 -763.86679 L -1400.49479 -707.42475" />
    <path d="M -1773.58127 -337.76367 A 914.4 505.67543 103.86014 0 1 -1400.49479 -763.86679" />
    <path d="M -1457.29621 -259.7245 L -1773.58127 -337.76367" />
    <path d="M -1457.29621 -259.7245 A 914.4 505.67543 103.86014 0 1 -1084.20972 -685.82762" />
    <path d="M -1410.20175 -766.26185 L -1726.48681 -844.30102 L -1726.48681 -787.85898" />
    <path d="M -2099.57329 -418.1979 A 914.4 505.67543 103.86014 0 1 -1726.48681 -844.30102" />
    <path d="M -1783.28823 -340.15874 L -2099.57329 -418.1979" />
    <path d="M -1783.28823 -340.15874 A 914.4 505.67543 103.86014 0 1 -1410.20175 -766.26185" />
    <path d="M -1736.19377 -846.69608 L -2052.47883 -924.73525 L -2052.47883 -526.08397" />
    <path d="M -2425.56531 -498.63213 A 914.4 505.67543 103.86014 0 1 -2052.47883 -924.73525" />
    <path d="M -2109.28025 -420.59297 L -2425.56531 -498.63213" />
    <path d="M -2109.28025 -420.59297 A 914.4 505.67543 103.86014 0 1 -1736.19377 -846.69608" />
    <path d="M -2062.18579 -927.13031 L -2070.4367 -929.16612" />
    <path d="M -2063.38157 -932.53549 A 914.4 505.67543 283.86014 0 0 -2070.4367 -929.16612" />
    <path d="M -2055.13065 -930.49968 L -2063.38157 -932.53549" />
    <path d="M -2055.13065 -930.49968 A 914.4 505.67543 103.86014 0 1 -1836.0837 -958.17801" />
    <path d="M -405.69671 673.40383 L -496.78306 650.92948" />
    <path d="M -361.31399 684.35468 A 914.4 505.67543 103.86014 0 1 -383.05465 727.40732 L -383.05465 827.53236 L -418.33033 844.00886 L -418.33033 718.12707" />
    <path d="M -79.70469 753.83806 L -89.84075 751.33712" />
    <path d="M -149.84075 736.53291 L -361.31399 684.35468 L -386.25766 656.09845 A 854.4 472.49463 103.86014 0 1 -418.33033 718.12707" />
    <path d="M -35.32196 764.78891 A 914.4 505.67543 103.86014 0 1 -57.06263 807.84155 L -57.06263 815.24437" />
    <path d="M 185.08012 819.17022 L -35.32196 764.78891 L -60.26564 736.53268 A 854.4 472.49463 103.86014 0 1 -89.84075 794.01543" />
    <path d="M -457.57948 1220.6831 L -449.32856 1222.7189" />
    <path d="M -457.57948 1220.6831 A 914.4 505.67543 103.86014 0 1 -474.29867 1203.52322 L -790.58373 1125.48405" />
    <path d="M -773.86454 1142.64393 A 914.4 505.67543 103.86014 0 1 -790.58373 1125.48405" />
    <path d="M -783.5715 1140.24887 L -773.86454 1142.64393" />
    <path d="M -783.5715 1140.24887 A 914.4 505.67543 103.86014 0 1 -800.29069 1123.08899 L -1116.57575 1045.04982" />
    <path d="M -1099.85656 1062.2097 A 914.4 505.67543 103.86014 0 1 -1116.57575 1045.04982" />
    <path d="M -1109.56352 1059.81464 L -1099.85656 1062.2097" />
    <path d="M -1109.56352 1059.81464 A 914.4 505.67543 103.86014 0 1 -1126.28271 1042.65476 L -1442.56778 964.61559" />
    <path d="M -1425.84858 981.77547 A 914.4 505.67543 103.86014 0 1 -1442.56778 964.61559" />
    <path d="M -1435.55554 979.38041 L -1425.84858 981.77547" />
    <path d="M -1435.55554 979.38041 A 914.4 505.67543 103.86014 0 1 -1452.27473 962.22053 L -1768.5598 884.18136" />
    <path d="M -1751.84061 901.34124 A 914.4 505.67543 103.86014 0 1 -1768.5598 884.18136" />
    <path d="M -1761.54756 898.94618 L -1751.84061 901.34124" />
    <path d="M -1761.54756 898.94618 A 914.4 505.67543 103.86014 0 1 -1778.26676 881.7863 L -2094.55182 803.74713" />
    <path d="M -2077.83263 820.90701 A 914.4 505.67543 103.86014 0 1 -2094.55182 803.74713" />
    <path d="M -2087.53959 818.51195 L -2077.83263 820.90701" />
    <path d="M -2087.53959 818.51195 A 914.4 505.67543 103.86014 0 1 -2104.25878 801.35206 L -2420.54384 723.3129" />
    <path d="M -2403.82465 740.47278 A 914.4 505.67543 103.86014 0 1 -2420.54384 723.3129" />
    <path d="M -2413.53161 738.07771 L -2403.82465 740.47278" />
    <path d="M -2413.53161 738.07771 A 914.4 505.67543 103.86014 0 1 -2430.2508 720.91783 L -2438.50172 718.88203" />
    <path d="M -2443.52319 713.29845 A 914.4 505.67543 283.86014 0 0 -2438.50172 718.88203" />
    <path d="M -2435.27227 715.33425 L -2443.52319 713.29845" />
    <path d="M -2435.27227 715.33425 A 914.4 505.67543 103.86014 0 1 -2592.68579 191.96528 L -2600.93671 189.92948" />
    <path d="M -2600.983 178.66373 A 914.4 505.67543 283.86014 0 0 -2600.93671 189.92948" />
    <path d="M -2592.73209 180.69954 L -2600.983 178.66373" />
    <path d="M -2592.73209 180.69954 A 914.4 505.67543 103.86014 0 1 -2440.22827 -490.67861 L -2448.47919 -492.71442" />
    <path d="M -2443.52319 -503.063 A 914.4 505.67543 283.86014 0 0 -2448.47919 -492.71442" />
    <path d="M -2435.27227 -501.0272 L -2443.52319 -503.063" />
    <path d="M -2435.27227 -501.0272 A 914.4 505.67543 103.86014 0 1 -2062.18579 -927.13031" />
    <path d="M -99.17852 -447.8943 L -415.46358 -525.93346 A 914.4 505.67543 103.86014 0 1 -196.41663 -553.61179 L -206.12359 -556.00685" />
    <path d="M -99.17852 -447.8943 A 914.4 505.67543 103.86014 0 1 119.86844 -475.57262" />
    <path d="M -196.41663 -553.61179 A 914.4 505.67543 103.86014 0 1 -49.94911 -467.27451" />
    <path d="M -425.17054 -528.32853 L -741.45561 -606.36769 A 914.4 505.67543 103.86014 0 1 -522.40865 -634.04602 L -532.11561 -636.44108" />
    <path d="M -425.17054 -528.32853 A 914.4 505.67543 103.86014 0 1 -206.12359 -556.00685" />
    <path d="M -522.40865 -634.04602 A 914.4 505.67543 103.86014 0 1 -375.94114 -547.70874" />
    <path d="M -751.16256 -608.76276 L -1067.44763 -686.80192 A 914.4 505.67543 103.86014 0 1 -848.40067 -714.48025 L -858.10763 -716.87531" />
    <path d="M -751.16256 -608.76276 A 914.4 505.67543 103.86014 0 1 -532.11561 -636.44108" />
    <path d="M -848.40067 -714.48025 A 914.4 505.67543 103.86014 0 1 -701.93316 -628.14297" />
    <path d="M -1077.15459 -689.19699 L -1393.43965 -767.23615 A 914.4 505.67543 103.86014 0 1 -1174.39269 -794.91448 L -1184.09965 -797.30954" />
    <path d="M -1077.15459 -689.19699 A 914.4 505.67543 103.86014 0 1 -858.10763 -716.87531" />
    <path d="M -1174.39269 -794.91448 A 914.4 505.67543 103.86014 0 1 -1027.92518 -708.5772" />
    <path d="M -1403.14661 -769.63122 L -1719.43167 -847.67039 A 914.4 505.67543 103.86014 0 1 -1500.38472 -875.34871 L -1510.09167 -877.74378" />
    <path d="M -1403.14661 -769.63122 A 914.4 505.67543 103.86014 0 1 -1184.09965 -797.30954" />
    <path d="M -1500.38472 -875.34871 A 914.4 505.67543 103.86014 0 1 -1353.9172 -789.01143" />
    <path d="M -1729.13863 -850.06545 L -2045.42369 -928.10462 A 914.4 505.67543 103.86014 0 1 -1826.37674 -955.78294 L -1836.0837 -958.17801" />
    <path d="M -1729.13863 -850.06545 A 914.4 505.67543 103.86014 0 1 -1510.09167 -877.74378" />
    <path d="M -1826.37674 -955.78294 A 914.4 505.67543 103.86014 0 1 -1679.90922 -869.44566" />
    <path d="M -484.27614 -8.07323 L -800.5612 -86.11239 L -775.61523 -57.85356" />
    <path d="M -953.06502 585.26576 A 914.4 505.67543 103.86014 0 1 -800.5612 -86.11239" />
    <path d="M -636.77995 663.30492 L -953.06502 585.26576 L -917.78933 568.78926 A 854.4 472.49463 103.86014 0 1 -775.61523 -57.85356" />
    <path d="M -636.77995 663.30492 A 914.4 505.67543 103.86014 0 1 -484.27614 -8.07323" />
    <path d="M -810.26816 -88.50746 L -1126.55322 -166.54662 L -1101.60725 -138.28779" />
    <path d="M -1279.05704 504.83153 A 914.4 505.67543 103.86014 0 1 -1126.55322 -166.54662" />
    <path d="M -962.77198 582.87069 L -1279.05704 504.83153 L -1243.78136 488.35503 A 854.4 472.49463 103.86014 0 1 -1101.60725 -138.28779" />
    <path d="M -962.77198 582.87069 A 914.4 505.67543 103.86014 0 1 -810.26816 -88.50746" />
    <path d="M -1136.26018 -168.94169 L -1452.54525 -246.98086 L -1427.59927 -218.72202" />
    <path d="M -1605.04906 424.3973 A 914.4 505.67543 103.86014 0 1 -1452.54525 -246.98086" />
    <path d="M -1288.764 502.43646 L -1605.04906 424.3973 L -1569.77338 407.9208 A 854.4 472.49463 103.86014 0 1 -1427.59927 -218.72202" />
    <path d="M -1288.764 502.43646 A 914.4 505.67543 103.86014 0 1 -1136.26018 -168.94169" />
    <path d="M -1462.25221 -249.37592 L -1778.53727 -327.41509 L -1753.59129 -299.15625" />
    <path d="M -1931.04108 343.96306 A 914.4 505.67543 103.86014 0 1 -1778.53727 -327.41509" />
    <path d="M -1614.75602 422.00223 L -1931.04108 343.96306 L -1895.7654 327.48657 A 854.4 472.49463 103.86014 0 1 -1753.59129 -299.15625" />
    <path d="M -1614.75602 422.00223 A 914.4 505.67543 103.86014 0 1 -1462.25221 -249.37592" />
    <path d="M -1788.24423 -329.81015 L -2104.52929 -407.84932 L -2079.58332 -379.59048" />
    <path d="M -2257.03311 263.52883 A 914.4 505.67543 103.86014 0 1 -2104.52929 -407.84932" />
    <path d="M -1940.74804 341.568 L -2257.03311 263.52883 L -2221.75742 247.05234 A 854.4 472.49463 103.86014 0 1 -2079.58332 -379.59048" />
    <path d="M -1940.74804 341.568 A 914.4 505.67543 103.86014 0 1 -1788.24423 -329.81015" />
    <path d="M -2114.23625 -410.24438 L -2430.52131 -488.28355 L -2269.42429 -305.79262 L -2238.84737 -298.24817" />
    <path d="M -2583.02513 183.0946 A 914.4 505.67543 103.86014 0 1 -2430.52131 -488.28355" />
    <path d="M -2266.74006 261.13377 L -2583.02513 183.0946 L -2269.42429 36.61856 L -2250.15154 41.37386" />
    <path d="M -2266.74006 261.13377 A 914.4 505.67543 103.86014 0 1 -2114.23625 -410.24438" />
    <path d="M -1227.3401 -261.15803 L -1385.50876 -300.18406" />
    <path d="M -1430.97233 -311.40159 L -1507.86855 -330.37472 L -1589.3633 -292.31032" />
    <path d="M -1599.39685 -756.50121 A 914.4 505.67543 103.86014 0 1 -1558.59894 -660.28041" />
    <path d="M -1542.11239 -605.35164 A 914.4 505.67543 103.86014 0 1 -1507.86855 -330.37472" />
    <path d="M -901.34808 -180.7238 L -1059.51674 -219.74983" />
    <path d="M -1104.98031 -230.96736 L -1181.87653 -249.94049 L -1217.15547 -233.46248" />
    <path d="M -1273.40483 -676.06698 A 914.4 505.67543 103.86014 0 1 -1232.60691 -579.84618" />
    <path d="M -1216.12037 -524.91741 A 914.4 505.67543 103.86014 0 1 -1181.87653 -249.94049" />
    <path d="M 347.13435 127.32277 L 122.09156 71.79643 L 86.81262 88.27445" />
    <path d="M 34.49685 -346.67972 A 914.4 505.67543 103.86014 0 1 122.09156 71.79643" />
    <path d="M 76.62799 60.5789 L -203.90047 -8.6378 L -239.1794 7.84022" />
    <path d="M -295.42877 -434.76429 A 914.4 505.67543 103.86014 0 1 -254.63085 -338.54349" />
    <path d="M -224.16942 -222.09108 A 914.4 505.67543 103.86014 0 1 -203.90047 -8.6378" />
    <path d="M -249.36403 -19.85533 L -360.13168 -47.18579" />
    <path d="M -452.99627 -70.0989 L -529.89249 -89.07203 L -565.17142 -72.59402" />
    <path d="M -621.42079 -515.19852 A 914.4 505.67543 103.86014 0 1 -580.62287 -418.97772" />
    <path d="M -564.13633 -364.04894 A 914.4 505.67543 103.86014 0 1 -529.89249 -89.07203" />
    <path d="M -575.35606 -100.28957 L -733.52472 -139.3156" />
    <path d="M -778.98829 -150.53313 L -855.88451 -169.50626 L -891.16345 -153.02825" />
    <path d="M -947.41281 -595.63275 A 914.4 505.67543 103.86014 0 1 -906.61489 -499.41195" />
    <path d="M -890.12835 -444.48317 A 914.4 505.67543 103.86014 0 1 -855.88451 -169.50626" />
    <path d="M -636.73366 674.57067 L -953.01872 596.5315" />
    <path d="M -795.6052 1119.90047 A 914.4 505.67543 103.86014 0 1 -953.01872 596.5315" />
    <path d="M -479.32014 1197.93964 L -795.6052 1119.90047 L -770.66153 1068.34296 A 854.4 472.49463 103.86014 0 1 -825.55946 989.82061" />
    <path d="M -479.32014 1197.93964 A 914.4 505.67543 103.86014 0 1 -636.73366 674.57067" />
    <path d="M -962.72568 594.13644 L -1279.01074 516.09727" />
    <path d="M -1121.59723 1039.46624 A 914.4 505.67543 103.86014 0 1 -1279.01074 516.09727" />
    <path d="M -805.31216 1117.50541 L -1121.59723 1039.46624 L -1096.65355 987.90873 A 854.4 472.49463 103.86014 0 1 -1151.55148 909.38638" />
    <path d="M -805.31216 1117.50541 A 914.4 505.67543 103.86014 0 1 -962.72568 594.13644" />
    <path d="M -1288.7177 513.70221 L -1605.00277 435.66304" />
    <path d="M -1447.58925 959.03201 A 914.4 505.67543 103.86014 0 1 -1605.00277 435.66304" />
    <path d="M -1131.30418 1037.07117 L -1447.58925 959.03201 L -1422.64557 907.47449 A 854.4 472.49463 103.86014 0 1 -1477.5435 828.95215" />
    <path d="M -1131.30418 1037.07117 A 914.4 505.67543 103.86014 0 1 -1288.7177 513.70221" />
    <path d="M -1614.70973 433.26798 L -1930.99479 355.22881" />
    <path d="M -1773.58127 878.59778 A 914.4 505.67543 103.86014 0 1 -1930.99479 355.22881" />
    <path d="M -1457.29621 956.63694 L -1773.58127 878.59778 L -1748.63759 827.04026 A 854.4 472.49463 103.86014 0 1 -1803.53553 748.51792" />
    <path d="M -1457.29621 956.63694 A 914.4 505.67543 103.86014 0 1 -1614.70973 433.26798" />
    <path d="M -1940.70175 352.83374 L -2256.98681 274.79458" />
    <path d="M -2099.57329 798.16355 A 914.4 505.67543 103.86014 0 1 -2256.98681 274.79458" />
    <path d="M -1783.28823 876.20271 L -2099.57329 798.16355 L -2074.62962 746.60603 A 854.4 472.49463 103.86014 0 1 -2129.52755 668.08368" />
    <path d="M -1783.28823 876.20271 A 914.4 505.67543 103.86014 0 1 -1940.70175 352.83374" />
    <path d="M -2266.69377 272.39951 L -2582.97883 194.36035" />
    <path d="M -2425.56531 717.72932 A 914.4 505.67543 103.86014 0 1 -2582.97883 194.36035" />
    <path d="M -2109.28025 795.76848 L -2425.56531 717.72932 L -2372.53797 608.12407" />
    <path d="M -2109.28025 795.76848 A 914.4 505.67543 103.86014 0 1 -2266.69377 272.39951" />
    <path d="M -1508.04973 -293.9848 A 914.4 505.67543 103.86014 0 1 -1508.60377 -272.38397" />
    <path d="M -1510.09317 -239.0763 A 914.4 505.67543 103.86014 0 1 -1524.91218 -95.98562" />
    <path d="M -1182.05771 -213.55057 A 914.4 505.67543 103.86014 0 1 -1182.61175 -191.94974" />
    <path d="M -1184.10114 -158.64207 A 914.4 505.67543 103.86014 0 1 -1198.92016 -15.55138" />
    <path d="M 121.91038 108.18636 A 914.4 505.67543 103.86014 0 1 -21.14717 734.6112" />
    <path d="M -204.08164 27.75212 A 914.4 505.67543 103.86014 0 1 -279.63959 478.33054" />
    <path d="M -286.71243 500.09009 A 914.4 505.67543 103.86014 0 1 -347.1392 654.17697" />
    <path d="M -530.07367 -52.68211 A 914.4 505.67543 103.86014 0 1 -530.62771 -31.08128" />
    <path d="M -532.1171 2.22639 A 914.4 505.67543 103.86014 0 1 -546.93611 145.31708" />
    <path d="M -856.06569 -133.11634 A 914.4 505.67543 103.86014 0 1 -856.61973 -111.51551" />
    <path d="M -858.10912 -78.20784 A 914.4 505.67543 103.86014 0 1 -872.92814 64.88285" />
    <path d="M -2421.78252 1131.1435 L -2160.39364 1195.63776" />
    <path d="M -1528.99108 1351.42801 L -449.32856 1617.8205" />
    <path d="M -2421.78252 1035.57712 L -2421.78252 1131.1435" />
    <path d="M -2421.78252 1035.57712 L -2413.53161 1037.61293 L -2413.53161 849.49013 L -2421.78252 847.45433" />
    <path d="M -2421.78252 836.16696 L -2421.78252 847.45433" />
    <path d="M -2413.53161 838.20276 L -2421.78252 836.16696 L -2413.53161 832.31314" />
    <path d="M -2413.53161 838.20276 L -2413.53161 738.07771" />
    <path d="M -2403.82465 840.59783 L -2403.82465 740.47278" />
    <path d="M -2087.53959 918.63699 L -2403.82465 840.59783" />
    <path d="M -2087.53959 918.63699 L -2087.53959 818.51195" />
    <path d="M -2077.83263 921.03206 L -2077.83263 820.90701" />
    <path d="M -1939.84609 955.07842 L -2077.83263 921.03206" />
    <path d="M -1955.65883 962.4642 L -2077.83263 932.31943" />
    <path d="M -2077.83263 1049.72663 L -2077.83263 932.31943" />
    <path d="M -1395.10988 1288.89505 L -1109.56352 1359.34985 L -1109.56352 1171.22705 L -1425.84858 1093.18789" />
    <path d="M -1425.84858 1219.40142 L -1425.84858 1093.18789" />
    <path d="M -1435.55554 1197.45606 L -1425.84858 1219.40142" />
    <path d="M -1435.55554 1197.45606 L -1435.55554 1090.79282 L -1488.51513 1077.72574" />
    <path d="M -1494.11945 1065.05558 L -1488.51513 1077.72574" />
    <path d="M -1435.55554 1079.50546 L -1494.11945 1065.05558 L -1493.76669 1064.89082" />
    <path d="M -1435.55554 1079.50546 L -1435.55554 979.38041" />
    <path d="M -1425.84858 1081.90052 L -1425.84858 981.77547" />
    <path d="M -1109.56352 1159.93969 L -1425.84858 1081.90052" />
    <path d="M -1109.56352 1159.93969 L -1109.56352 1059.81464" />
    <path d="M -1099.85656 1162.33475 L -1099.85656 1062.2097" />
    <path d="M -783.5715 1240.37392 L -1099.85656 1162.33475" />
    <path d="M -783.5715 1240.37392 L -783.5715 1140.24887" />
    <path d="M -773.86454 1242.76898 L -773.86454 1142.64393" />
    <path d="M -457.57948 1320.80815 L -773.86454 1242.76898" />
    <path d="M -457.57948 1320.80815 L -457.57948 1220.6831" />
    <path d="M -1099.85656 1361.74492 L -1099.85656 1173.62212" />
    <path d="M -1099.85656 1361.74492 L -783.5715 1439.78408 L -783.5715 1251.66129 L -1099.85656 1173.62212" />
    <path d="M -773.86454 1442.17915 L -773.86454 1254.05635" />
    <path d="M -773.86454 1442.17915 L -457.57948 1520.21831 L -457.57948 1332.09552 L -773.86454 1254.05635" />
    <path d="M -2403.82465 1040.00799 L -2112.94378 1111.77901" />
    <path d="M -2087.53959 1066.88186 L -2087.53959 929.92436 L -2403.82465 851.88519" />
    <path d="M -2403.82465 1040.00799 L -2403.82465 851.88519" />
    <path d="M 30.79182 929.64352 L 100.14284 946.75497" />
    <path d="M -383.05465 827.53236 L -325.11528 841.82814" />
    <path d="M -522.65094 793.08882 L -428.03729 816.43349" />
    <path d="M -383.05465 864.00004 L -383.05465 868.89034" />
    <path d="M 213.1213 765.9768 A 762 421.39619 103.86014 0 1 -277.58291 1138.74625" />
    <path d="M 213.1213 765.9768 L 172.83742 756.03728" />
    <path d="M 177.85701 745.76073 A 762 421.39619 103.86014 0 1 172.83742 756.03728" />
    <path d="M 218.14089 755.70025 L 177.85701 745.76073" />
    <path d="M 348.73412 202.993 A 762 421.39619 103.86014 0 1 218.14089 755.70025" />
    <path d="M 348.73412 202.993 L 308.45024 193.05349" />
    <path d="M 308.53497 181.72655 A 762 421.39619 103.86014 0 1 308.45024 193.05349" />
    <path d="M 348.81885 191.66606 L 308.53497 181.72655" />
    <path d="M 222.02841 -251.71788 A 762 421.39619 103.86014 0 1 348.81885 191.66606" />
    <path d="M 222.02841 -251.71788 L 181.74453 -261.6574" />
    <path d="M 176.78665 -267.37242 A 762 421.39619 103.86014 0 1 181.74453 -261.6574" />
    <path d="M 217.07053 -257.43291 L 176.78665 -267.37242" />
    <path d="M 87.47679 -340.80478 A 762 421.39619 103.86014 0 1 217.07053 -257.43291" />
    <path d="M -173.75772 -404.74356 L -422.51872 -466.12205" />
    <path d="M -760.92943 -87.90519 A 854.4 472.49463 103.86014 0 1 -422.51872 -466.12205" />
    <path d="M -499.74975 -485.17779 L -748.51074 -546.55629" />
    <path d="M -1086.92146 -168.33942 A 854.4 472.49463 103.86014 0 1 -748.51074 -546.55629" />
    <path d="M -825.74177 -565.61202 L -1074.50276 -626.99052" />
    <path d="M -1412.91348 -248.77365 A 854.4 472.49463 103.86014 0 1 -1074.50276 -626.99052" />
    <path d="M -1151.73379 -646.04625 L -1400.49479 -707.42475" />
    <path d="M -1738.9055 -329.20788 A 854.4 472.49463 103.86014 0 1 -1400.49479 -707.42475" />
    <path d="M -1477.72581 -726.48048 L -1726.48681 -787.85898" />
    <path d="M -2064.89752 -409.64211 A 854.4 472.49463 103.86014 0 1 -1726.48681 -787.85898" />
    <path d="M -1803.71783 -806.91471 L -2021.90191 -860.74876 L -2021.90191 -574.59996" />
    <path d="M -2182.34107 -438.61976 L -2073.61187 -489.40477" />
    <path d="M -2267.81637 -347.02704 A 75 41.476 103.86014 0 1 -2229.14646 -416.49321" />
    <path d="M -2356.98309 -448.03522 L -2238.84737 -314.21092 L -2238.84737 -298.24817" />
    <path d="M -2070.4367 -923.00189 L -2070.4367 -929.16612" />
    <path d="M -1852.53571 -589.53787 A 75 41.476 103.86014 0 1 -1831.54499 -548.50702 L -1839.79591 -550.54282 A 75 41.476 103.86014 0 1 -1839.72867 -549.76078 L -1791.19388 -537.78546" />
    <path d="M -1839.79591 -550.54282 L -1833.96271 -562.59979" />
    <path d="M -1839.38097 -541.08141 L -1839.38097 -535.43773 L -1831.13005 -533.40193 L -1831.13005 -351.96308" />
    <path d="M -1839.72867 -549.76078 L -1839.38097 -541.08141 L -1790.84618 -529.10609 L -1791.19388 -537.78546" />
    <path d="M -1831.13005 -318.28792 L -1831.13005 -230.13531" />
    <path d="M -1831.13005 -97.06051 L -1831.13005 167.38318" />
    <path d="M -1839.38097 165.34738 L -1831.13005 167.38318" />
    <path d="M -1839.38097 181.31013 L -1831.13005 190.65677" />
    <path d="M -1839.38097 165.34738 L -1839.38097 181.31013 L -1831.13005 183.34593 L -1831.13005 267.59738" />
    <path d="M -1821.4231 185.741 L -1821.4231 263.06348" />
    <path d="M -1773.0929 240.48951 L -1821.4231 185.741 L -1790.84618 193.28545 L -1790.84618 177.3227" />
    <path d="M -1756.15842 232.57978 L -1790.84618 193.28545" />
    <path d="M -395.96462 653.70339 L -473.87446 634.48016" />
    <path d="M -428.03729 841.6138 L -428.03729 715.73201 L -418.33033 718.12707" />
    <path d="M -395.96462 653.70339 A 854.4 472.49463 103.86014 0 1 -428.03729 715.73201" />
    <path d="M -69.9726 734.13762 L -89.84075 729.23541" />
    <path d="M -149.84075 714.43121 L -386.25766 656.09845" />
    <path d="M -69.9726 734.13762 A 854.4 472.49463 103.86014 0 1 -89.84075 773.51806" />
    <path d="M 201.61258 788.63382 L 172.83742 756.03728" />
    <path d="M 195.75947 799.7035 L -60.26564 736.53268" />
    <path d="M -738.58886 1138.3131 L -738.58886 1226.29249 L -462.58767 1294.39214" />
    <path d="M -738.58886 1226.29249 L -773.86454 1242.76898" />
    <path d="M -1064.58088 1057.87887 L -1064.58088 1145.85825 L -783.5715 1215.19361" />
    <path d="M -1064.58088 1145.85825 L -1099.85656 1162.33475" />
    <path d="M -1390.5729 977.44464 L -1390.5729 1065.42402 L -1109.56352 1134.75938" />
    <path d="M -1390.5729 1065.42402 L -1425.84858 1081.90052" />
    <path d="M -1751.84061 915.76799 L -1751.84061 901.34124" />
    <path d="M -1716.56492 897.01041 L -1716.56492 924.22" />
    <path d="M -1751.48785 915.60323 L -1751.84061 915.76799" />
    <path d="M -1761.54756 913.37293 L -1761.54756 898.94618" />
    <path d="M -1761.54756 913.37293 L -1751.84061 915.76799" />
    <path d="M -2042.55694 816.57618 L -2042.55694 904.55556 L -1904.5704 938.60192" />
    <path d="M -2042.55694 904.55556 L -2077.83263 921.03206" />
    <path d="M -2363.14547 675.41855 L -2335.06181 617.37082" />
    <path d="M -2263.55766 469.57479 L -2253.02054 447.79502" />
    <path d="M -2269.42429 777.82238 L -2269.42429 760.59965" />
    <path d="M -2269.42429 698.54302 L -2269.42429 633.56601" />
    <path d="M -2269.42429 777.82238 L -2403.82465 840.59783" />
    <path d="M -2441.19156 708.47907 L -2443.52319 713.29845" />
    <path d="M -2592.71948 174.80403 L -2600.983 178.66373" />
    <path d="M -2442.47623 -485.91426 L -2448.47919 -492.71442" />
    <path d="M 186.55044 -287.55374 L 176.78665 -267.37242" />
    <path d="M -312.49035 -500.52618 A 854.4 472.49463 103.86014 0 1 -210.78979 -495.35879 A 854.4 472.49463 103.86014 0 1 -118.35786 -452.62654" />
    <path d="M -215.65472 -496.50989 A 854.4 472.49463 103.86014 0 1 -128.06482 -455.02161" />
    <path d="M -638.48237 -580.96041 A 854.4 472.49463 103.86014 0 1 -536.78181 -575.79302 A 854.4 472.49463 103.86014 0 1 -444.34988 -533.06077" />
    <path d="M -541.64674 -576.94412 A 854.4 472.49463 103.86014 0 1 -454.05684 -535.45584" />
    <path d="M -964.47439 -661.39464 A 854.4 472.49463 103.86014 0 1 -862.77383 -656.22725 A 854.4 472.49463 103.86014 0 1 -770.3419 -613.49501" />
    <path d="M -867.63877 -657.37835 A 854.4 472.49463 103.86014 0 1 -780.04886 -615.89007" />
    <path d="M -1290.46642 -741.82887 A 854.4 472.49463 103.86014 0 1 -1188.76585 -736.66148 A 854.4 472.49463 103.86014 0 1 -1096.33392 -693.92924" />
    <path d="M -1193.63079 -737.81258 A 854.4 472.49463 103.86014 0 1 -1106.04088 -696.3243" />
    <path d="M -1616.45844 -822.2631 A 854.4 472.49463 103.86014 0 1 -1514.75788 -817.09571 A 854.4 472.49463 103.86014 0 1 -1422.32595 -774.36347" />
    <path d="M -2014.84677 -859.008 L -2014.84677 -585.09982" />
    <path d="M -2014.84677 -499.5854 L -2014.84677 -495.0264 L -2018.72652 -493.21425" />
    <path d="M -1519.62281 -818.24681 A 854.4 472.49463 103.86014 0 1 -1432.0329 -776.75853" />
    <path d="M -1676.60738 -775.55189 L -1791.26111 -538.5675 A 75 41.476 103.86014 0 1 -1791.19388 -537.78546" />
    <path d="M -1791.26111 -538.5675 L -1821.83803 -546.11195" />
    <path d="M -1707.18429 -783.09634 L -1821.83803 -546.11195" />
    <path d="M -1865.5177 -586.60098 A 75 41.476 103.86014 0 1 -1847.55125 -588.87118 A 75 41.476 103.86014 0 1 -1821.83803 -546.11195" />
    <path d="M -1999.40278 -524.0662 L -1865.5177 -586.60098" />
    <path d="M -499.61404 10.24609 L -495.12117 15.33563" />
    <path d="M -499.61404 10.24609 L -775.61523 -57.85356" />
    <path d="M -641.78815 636.88891 L -636.47942 634.40932" />
    <path d="M -641.78815 636.88891 L -917.78933 568.78926" />
    <path d="M -819.48695 -68.67833 L -1101.60725 -138.28779" />
    <path d="M -962.5445 557.74651 L -1243.78136 488.35503" />
    <path d="M -1145.47897 -149.11256 L -1427.59927 -218.72202" />
    <path d="M -1288.53653 477.31228 L -1569.77338 407.9208" />
    <path d="M -1471.47099 -229.54679 L -1753.59129 -299.15625" />
    <path d="M -1614.52855 396.87805 L -1895.7654 327.48657" />
    <path d="M -1797.46302 -309.98102 L -2079.58332 -379.59048" />
    <path d="M -1940.52057 316.44382 L -2221.75742 247.05234" />
    <path d="M -2123.45504 -390.41525 L -2374.99842 -452.48026 L -2238.84737 -298.24817" />
    <path d="M -2269.42429 36.61856 L -2269.42429 -305.79262" />
    <path d="M -2266.51259 236.00959 L -2517.17252 174.16256 L -2251.40842 50.03" />
    <path d="M -1669.70813 -773.84959 L -1790.84618 -523.46241 L -1790.84618 -529.10609" />
    <path d="M -1821.4231 -531.00686 L -1790.84618 -523.46241" />
    <path d="M -1350.63586 -695.12271 A 854.4 472.49463 103.86014 0 1 -1272.7517 -538.89044" />
    <path d="M -1256.51206 -482.96098 A 854.4 472.49463 103.86014 0 1 -1226.86243 -235.85754 L -1397.70027 -278.00953" />
    <path d="M -1442.66247 -289.10336 L -1512.57057 -306.35226 A 854.4 472.49463 103.86014 0 1 -1512.52102 -295.08803 L -1542.97365 -280.86428" />
    <path d="M -1512.57057 -306.35226 L -1558.78639 -284.76587" />
    <path d="M -1605.96271 -262.73085 L -1790.84618 -176.37585" />
    <path d="M -1803.60108 -179.52295 L -1790.84618 -176.37585" />
    <path d="M -1636.53963 -270.2753 L -1797.86179 -194.92527" />
    <path d="M -1821.4231 -531.00686 L -1821.4231 -349.56801" />
    <path d="M -1821.4231 -315.89285 L -1821.4231 -254.48982" />
    <path d="M -1024.64383 -614.68848 A 854.4 472.49463 103.86014 0 1 -946.75967 -458.45621" />
    <path d="M -930.52004 -402.52675 A 854.4 472.49463 103.86014 0 1 -900.87041 -155.42331 L -1071.70825 -197.57529" />
    <path d="M -1116.67045 -208.66912 L -1217.15547 -233.46248" />
    <path d="M -1340.9289 -692.72765 A 854.4 472.49463 103.86014 0 1 -1266.24489 -545.91828" />
    <path d="M -1249.43797 -490.76335 A 854.4 472.49463 103.86014 0 1 -1217.15547 -233.46248" />
    <path d="M 348.53252 163.04457 L 308.53497 181.72655" />
    <path d="M 348.25132 152.781 L 86.81262 88.27445" />
    <path d="M -17.08512 -341.44615 A 854.4 472.49463 103.86014 0 1 86.81262 88.27445" />
    <path d="M -24.3738 -339.89187 A 854.4 472.49463 103.86014 0 1 77.10566 85.87938 L -239.1794 7.84022" />
    <path d="M -362.95283 -451.42496 A 854.4 472.49463 103.86014 0 1 -288.26883 -304.61558" />
    <path d="M -257.48545 -187.58788 A 854.4 472.49463 103.86014 0 1 -239.1794 7.84022" />
    <path d="M -372.65979 -453.82002 A 854.4 472.49463 103.86014 0 1 -294.77563 -297.58774" />
    <path d="M -265.17167 -178.94017 A 854.4 472.49463 103.86014 0 1 -248.88636 5.44515 L -372.9625 -25.169" />
    <path d="M -464.68641 -47.80066 L -565.17142 -72.59402" />
    <path d="M -688.94485 -531.85919 A 854.4 472.49463 103.86014 0 1 -614.26085 -385.04981" />
    <path d="M -597.45393 -329.89489 A 854.4 472.49463 103.86014 0 1 -565.17142 -72.59402" />
    <path d="M -698.65181 -534.25425 A 854.4 472.49463 103.86014 0 1 -620.76765 -378.02198" />
    <path d="M -604.52801 -322.09252 A 854.4 472.49463 103.86014 0 1 -574.87838 -74.98908 L -745.71623 -117.14106" />
    <path d="M -790.67843 -128.23489 L -891.16345 -153.02825" />
    <path d="M -1014.93688 -612.29342 A 854.4 472.49463 103.86014 0 1 -940.25287 -465.48404" />
    <path d="M -923.44595 -410.32912 A 854.4 472.49463 103.86014 0 1 -891.16345 -153.02825" />
    <path d="M -846.05793 949.15526 A 854.4 472.49463 103.86014 0 1 -917.26211 605.35397" />
    <path d="M -856.40964 953.99031 L -846.05793 949.15526" />
    <path d="M -856.40964 982.20873 L -856.40964 953.99031 L -580.40846 1022.08996 L -579.87759 1021.84201" />
    <path d="M -530.12776 1127.69149 L -770.66153 1068.34296" />
    <path d="M -1172.04996 868.72103 A 854.4 472.49463 103.86014 0 1 -1243.25413 524.91974" />
    <path d="M -1182.40166 873.55608 L -1172.04996 868.72103" />
    <path d="M -1182.40166 901.7745 L -1182.40166 873.55608 L -905.71673 941.82444" />
    <path d="M -856.11978 1047.25726 L -1096.65355 987.90873" />
    <path d="M -1498.04198 788.2868 A 854.4 472.49463 103.86014 0 1 -1569.24616 444.48551" />
    <path d="M -1508.39369 793.12185 L -1498.04198 788.2868" />
    <path d="M -1508.39369 821.34027 L -1508.39369 793.12185 L -1231.70875 861.39021" />
    <path d="M -1182.1118 966.82303 L -1422.64557 907.47449" />
    <path d="M -1824.034 707.85257 A 854.4 472.49463 103.86014 0 1 -1895.23818 364.05128" />
    <path d="M -1834.38571 712.68762 L -1824.034 707.85257" />
    <path d="M -1834.38571 740.90604 L -1834.38571 712.68762 L -1557.70077 780.95598" />
    <path d="M -1508.10383 886.3888 L -1748.63759 827.04026" />
    <path d="M -2150.02602 627.41833 A 854.4 472.49463 103.86014 0 1 -2221.2302 283.61705" />
    <path d="M -2160.37773 632.25339 L -2150.02602 627.41833" />
    <path d="M -2160.37773 660.47181 L -2160.37773 632.25339 L -1883.6928 700.52175" />
    <path d="M -1834.09585 805.95457 L -2074.62962 746.60603" />
    <path d="M -2501.35978 178.06414 L -2253.08009 62.09816" />
    <path d="M -2269.42429 394.99249 L -2269.42429 271.72579" />
    <path d="M -2269.42429 235.29117 L -2269.42429 69.73218" />
    <path d="M -2317.75449 494.88894 L -2269.42429 394.99249 L -2259.61058 397.41389" />
    <path d="M -2160.08787 725.52034 L -2370.04472 673.71625 L -2341.96106 615.66852" />
    <path d="M -2273.53513 474.23505 L -2254.83432 435.58128" />
    <path d="M -1226.81288 -224.59332 L -1402.98375 -268.06115" />
    <path d="M -1447.73892 -279.1039 L -1512.52102 -295.08803" />
    <path d="M -1590.14997 -258.82926 L -1790.84618 -165.08848 L -1790.84618 -176.37585" />
    <path d="M -1807.3532 -169.16137 L -1790.84618 -165.08848" />
    <path d="M -1226.81288 -224.59332 A 854.4 472.49463 103.86014 0 1 -1226.99448 -202.90059" />
    <path d="M -1227.97287 -169.46684 A 854.4 472.49463 103.86014 0 1 -1298.54428 222.781" />
    <path d="M -1746.18095 227.91953 L -1790.84618 177.3227" />
    <path d="M -1821.4231 169.77825 L -1790.84618 177.3227" />
    <path d="M -1821.4231 -127.98202 L -1821.4231 169.77825" />
    <path d="M -900.82086 -144.15908 L -1076.99173 -187.62692" />
    <path d="M -1121.7469 -198.66967 L -1217.10592 -222.19825 A 854.4 472.49463 103.86014 0 1 -1217.28752 -200.50553" />
    <path d="M -900.82086 -144.15908 A 854.4 472.49463 103.86014 0 1 -901.00246 -122.46636" />
    <path d="M -901.98085 -89.03261 A 854.4 472.49463 103.86014 0 1 -972.55226 303.21523" />
    <path d="M -1278.48561 220.341 L -1288.83732 225.17606 L -1298.54428 222.781" />
    <path d="M -1218.26591 -167.07178 A 854.4 472.49463 103.86014 0 1 -1288.83732 225.17606" />
    <path d="M 347.05061 163.73674 L 86.86217 99.53867 A 854.4 472.49463 103.86014 0 1 -55.31194 726.18149" />
    <path d="M 201.17748 789.46687 L -55.31194 726.18149" />
    <path d="M 77.15521 97.14361 L -239.12986 19.10444 A 854.4 472.49463 103.86014 0 1 -310.86126 466.47875 L -320.56821 464.08369" />
    <path d="M 77.15521 97.14361 A 854.4 472.49463 103.86014 0 1 -65.0189 723.78643 L -89.84075 717.66196" />
    <path d="M -149.84075 702.85776 L -381.30396 645.74726" />
    <path d="M -334.3072 534.26511 A 854.4 472.49463 103.86014 0 1 -381.30396 645.74726" />
    <path d="M -300.50955 461.6437 L -310.86126 466.47875" />
    <path d="M -248.83681 16.70938 L -378.5013 -15.28362" />
    <path d="M -469.76285 -37.80121 L -565.12188 -61.32979 A 854.4 472.49463 103.86014 0 1 -565.30348 -39.63707" />
    <path d="M -348.87826 544.72773 A 854.4 472.49463 103.86014 0 1 -391.01092 643.3522 L -461.87849 625.86656" />
    <path d="M -248.83681 16.70938 A 854.4 472.49463 103.86014 0 1 -320.56821 464.08369" />
    <path d="M -626.50157 381.20947 L -636.85328 386.04452 L -646.56024 383.64946" />
    <path d="M -566.28187 -6.20331 A 854.4 472.49463 103.86014 0 1 -636.85328 386.04452" />
    <path d="M -574.82884 -63.72485 L -750.9997 -107.19269" />
    <path d="M -795.75487 -118.23544 L -891.1139 -141.76402 A 854.4 472.49463 103.86014 0 1 -891.2955 -120.0713" />
    <path d="M -574.82884 -63.72485 A 854.4 472.49463 103.86014 0 1 -575.01044 -42.03213" />
    <path d="M -575.98882 -8.59838 A 854.4 472.49463 103.86014 0 1 -646.56024 383.64946" />
    <path d="M -952.49359 300.77524 L -962.8453 305.61029 L -972.55226 303.21523" />
    <path d="M -892.27389 -86.63754 A 854.4 472.49463 103.86014 0 1 -962.8453 305.61029" />
    <path d="M -457.57948 1292.05292 L -462.58767 1294.39214" />
    <path d="M 82.97614 967.69962 L 30.79182 954.82383" />
    <path d="M -1506.144 1036.90838 L -1435.55554 1054.32515" />
    <path d="M -1771.48817 1078.53711 L -1629.92836 1398.57359 L -2196.1676 1258.86153 L -2054.60779 1008.68108 L -1771.48817 1078.53711 L -1536.31694 968.69381 L -1493.76669 1064.89082" />
    <path d="M -1629.92836 1398.57359 L -1395.10988 1288.89505 L -1394.75713 1288.73029" />
    <path d="M -1425.49583 1219.23665 L -1394.75713 1288.73029" />
    <path d="M -1425.49583 1219.23665 L -1425.84858 1219.40142" />
    <path d="M -1488.03735 1077.84363 L -1435.55554 1196.49379" />
    <path d="M -1390.5729 1201.46838 L -1251.07357 1136.31132" />
    <path d="M -1390.5729 1101.8917 L -1390.5729 1208.39735 L -1241.36661 1138.70638" />
    <path d="M -1162.30291 1158.21431 L -1402.80069 1270.54552" />
    <path d="M -1064.58088 1281.90261 L -925.08155 1216.74555" />
    <path d="M -428.03729 866.36446 L -428.03729 852.90116 L -514.42626 831.58583" />
    <path d="M -1064.58088 1182.32593 L -1064.58088 1288.83158 L -915.37459 1219.14061" />
    <path d="M -418.33033 868.75952 L -418.33033 855.29623" />
    <path d="M -836.31089 1238.64854 L -1099.85656 1361.74492" />
    <path d="M -738.58886 1362.33684 L -599.08953 1297.17978" />
    <path d="M -738.58886 1262.76016 L -738.58886 1369.26581 L -589.38257 1299.57484" />
    <path d="M -510.31887 1319.08277 L -773.86454 1442.17915" />
    <path d="M 74.95502 977.00788 L 30.79182 966.11119" />
    <path d="M -376.20371 865.69042 L -418.33033 855.29623" />
    <path d="M -519.06641 672.5886 L -458.79746 808.84382" />
    <path d="M -468.89903 856.28236 L -450.03798 847.47278" />
    <path d="M -428.03729 841.6138 L -517.19699 819.61482" />
    <path d="M -360.39097 858.30463 L -418.33033 844.00886" />
    <path d="M -2413.53161 1031.7233 L -2421.78252 1035.57712" />
    <path d="M -2140.27898 916.91161 L -2403.82465 1040.00799" />
    <path d="M -2238.84737 785.36683 L -2269.42429 777.82238" />
    <path d="M -2238.84737 785.36683 L -2238.84737 796.6542 L -2322.15931 835.56737" />
    <path d="M -2269.42429 848.36843 L -2269.42429 810.936" />
    <path d="M -2042.55694 941.02324 L -2042.55694 1003.0524" />
    <path d="M -2269.41577 848.58114 L -2269.42429 848.36843" />
    <path d="M -2225.32969 898.31886 A 75 41.476 103.86014 0 1 -2243.29614 900.58906 A 75 41.476 103.86014 0 1 -2260.13778 887.33803" />
    <path d="M -2221.97814 896.75342 L -2225.32969 898.31886" />
    <path d="M -2235.03664 895.92379 A 75 41.476 103.86014 0 1 -2248.01864 898.86069" />
    <path d="M -2231.68509 894.35836 L -2235.03664 895.92379 L -2225.32969 898.31886" />
    <path d="M -1756.15842 232.57978 L -1838.46835 271.02494 L -1611.56968 327.00919" />
    <path d="M -1867.86476 331.78605 L -1867.86476 334.37068" />
    <path d="M -1867.86476 370.80531 L -1867.86476 511.10603" />
    <path d="M -1838.46835 271.02494 A 50 27.65067 283.86014 0 0 -1867.86476 331.78605 L -1614.4798 394.30545" />
    <path d="M -1746.18095 227.91953 L -1756.15842 232.57978" />
    <path d="M -2337.97205 831.66578 L -2087.53959 893.45669" />
    <path d="M -1751.48785 915.60323 L -1536.31694 968.69381" />
    <path d="M -1819.43656 898.83778 L -1761.54756 913.12112" />
    <path d="M -2054.60779 1008.68108 L -1819.43656 898.83778" />
    <path d="M -2238.84737 785.36683 L -2337.97205 831.66578" />
    <path d="M -2179.24756 434.27643 A 50 27.65067 283.86014 0 0 -2191.2252 435.78989 L -1931.0086 499.99491" />
    <path d="M -2191.2252 435.78989 L -2205.4684 442.44258" />
    <path d="M -2250.48117 463.46705 L -2263.55766 469.57479 L -2273.53513 474.23505 L -2455.79283 559.36361 L -2209.68482 620.08752" />
    <path d="M -2182.61147 869.99896 L -2191.88677 779.73101" />
    <path d="M -2198.42914 716.06013 L -2205.2794 649.39292" />
    <path d="M -465.3848 968.36495 L -315.84082 898.51625 A 50 27.65067 103.86014 0 1 -303.86319 897.00278 L -510.83618 845.93493" />
    <path d="M -580.40846 1050.30838 L -580.40846 1022.08996" />
    <path d="M -856.40964 982.20873 L -580.40846 1050.30838" />
    <path d="M -341.55045 998.68766 L -435.50297 1018.99218" />
    <path d="M -569.70918 1047.99611 L -580.40846 1050.30838" />
    <path d="M -1182.40166 901.7745 L -893.39936 973.08201" />
    <path d="M -1508.39369 821.34027 L -1219.39138 892.64778" />
    <path d="M -1834.38571 740.90604 L -1545.38341 812.21355" />
    <path d="M -2160.37773 660.47181 L -1871.37543 731.77931" />
    <path d="M -2455.79283 587.58203 L -2197.36745 651.34508" />
    <path d="M -2455.79283 587.58203 L -2455.79283 559.36361" />
    <path d="M -518.49759 666.52141 L -279.63959 495.0115 L -279.63959 466.79308 L -538.73021 587.80861" />
    <path d="M -1546.31815 154.25686 L -1296.37261 215.92762" />
    <path d="M -1590.49431 155.20173 L -1746.18095 227.91953" />
    <path d="M -1278.48561 220.341 L -1262.44041 224.29995" />
    <path d="M -1220.32613 234.69109 L -970.38059 296.36185" />
    <path d="M -952.49359 300.77524 L -936.44839 304.73418" />
    <path d="M -894.3341 315.12532 L -644.38857 376.79609" />
    <path d="M -626.50157 381.20947 L -610.45637 385.16841" />
    <path d="M -522.13023 406.96172 L -318.39654 457.23032" />
    <path d="M -300.50955 461.6437 L -279.63959 466.79308" />
    <path d="M -341.55045 998.68766 L -329.26918 1118.20997" />
    <path d="M -286.44442 1136.19905 L -286.44442 931.81654" />
    <path d="M -303.86319 897.00278 A 50 27.65067 103.86014 0 1 -286.44442 931.81654" />
    <path d="M -267.87564 1140.73863 L -267.87564 976.42229 L 30.79182 836.9213 L -89.84075 807.1568" />
    <path d="M -286.44442 971.84069 L -267.87564 976.42229" />
    <path d="M -149.84075 792.35259 L -195.21853 781.15622 L -395.06476 874.5" />
    <path d="M 30.79182 1023.1691 L 30.79182 836.9213" />
    <path d="M -527.62939 763.92334 L -518.49759 666.52141" />
    <path d="M -1569.77078 405.33681 L -1288.48778 474.73968" />
    <path d="M -1243.77876 485.77104 L -962.49576 555.17391" />
    <path d="M -917.78674 566.20527 L -638.16728 635.19768" />
    <path d="M -95.57335 832.60135 A 30 10.18434 360 0 1 -149.84075 826.61369" />
    <path d="M -89.84075 826.61369 A 30 10.18434 360 0 1 -95.57335 832.60135" />
    <path d="M -95.57335 550.41715 A 30 10.18434 360 0 1 -149.84075 544.42949 L -149.84075 826.61369" />
    <path d="M -149.84075 544.42949 A 30 10.18434 360 1 1 -89.84075 544.42949 L -89.84075 826.61369" />
    <path d="M -89.84075 544.42949 A 30 10.18434 360 0 1 -95.57335 550.41715" />
    <path d="M -275.31064 -392.4659 L -211.2422 -376.65786" />
    <path d="M -42.78841 -335.09411 L -17.94004 -328.9631" />
    <path d="M 50.68138 -312.03167 L 182.64068 -279.47245" />
    <path d="M 375.21736 -231.9567 L 925.61297 -96.15384" />
    <path d="M -671.05432 -238.30738 L -584.6101 -216.97841" />
    <path d="M -536.02946 -204.99178 L -461.1884 -186.52573" />
    <path d="M -411.47028 -174.25844 L -393.64295 -169.85978" />
    <path d="M -293.19416 -145.07537 L -258.61808 -136.54418" />
    <path d="M -210.03744 -124.55755 L -135.19638 -106.0915" />
    <path d="M -85.47826 -93.82421 L 67.37394 -56.10995" />
    <path d="M 115.95459 -44.12332 L 190.79564 -25.65727" />
    <path d="M 240.51376 -13.38998 L 333.41317 9.53172" />
    <path d="M 440.49056 35.95166 L 516.78766 54.77696" />
    <path d="M 566.50578 67.04425 L 842.77969 135.21119" />
    <path d="M 960.24767 164.19487 L 1153.97937 211.99561" />
    <path d="M -1881.29048 512.2622 L -1605.01657 580.42914" />
    <path d="M -1555.29846 592.69643 L -1279.02455 660.86337" />
    <path d="M -1229.30643 673.13066 L -953.03253 741.2976" />
    <path d="M -903.31441 753.56489 L -627.04051 821.73183" />
    <path d="M -509.57252 850.71551 L -315.84082 898.51625" />
    <path d="M -1567.90423 337.78307 L -1285.57766 407.44342" />
    <path d="M -1241.91221 418.2173 L -959.58564 487.87766" />
    <path d="M -915.92019 498.65153 L -633.59362 568.31189" />
    <path d="M 1165.95701 210.48214 L 958.98402 159.41428" />
    <path d="M 842.19987 130.59933 L 565.74799 62.38848" />
    <path d="M 516.20784 50.1651 L 440.0226 31.3674" />
    <path d="M 332.54403 4.84848 L 239.75597 -18.04575" />
    <path d="M 190.21582 -30.26913 L 115.48662 -48.70757" />
    <path d="M 66.74867 -60.73302 L -86.23605 -98.47998" />
    <path d="M -135.7762 -110.70336 L -210.5054 -129.1418" />
    <path d="M -259.24335 -141.16725 L -290.24633 -148.81683" />
    <path d="M -391.0963 -173.70022 L -412.22807 -178.91421" />
    <path d="M -461.76822 -191.13759 L -536.49742 -209.57603" />
    <path d="M -585.23538 -221.60148 L -668.35037 -242.10901" />
    <path d="M -627.62033 817.11998 L -904.0722 748.90912" />
    <path d="M -953.61235 736.68575 L -1230.06422 668.47489" />
    <path d="M -1279.60437 656.25151 L -1556.05625 588.04066" />
    <path d="M -1605.5964 575.81728 L -1882.04827 507.60643" />
    <path d="M -1931.58842 495.38305 L -2179.24756 434.27643" />
</svg>